<svg xmlns="http://www.w3.org/2000/svg" viewBox="0 0 403 245.89"><style>.st5{enable-background:new}.st11{fill:teal}.st15{fill:#666}.st20{fill:#4d4d4d}.st23{fill:#595959}.st24{fill:#5cadad}.st26{fill:#2e9797}.st117,.st118,.st27{fill:none;stroke-width:.5;stroke-miterlimit:10}.st27{stroke:#4d4d4d;stroke-linecap:round}.st117,.st118{stroke:#5cadad}.st118{stroke:#606060;stroke-linecap:round}</style><g id="_x31_.1_x5F_stredni_x5F_delka_x5F_zivota_x5F_des"><path class="st23" d="M12.5 213.64c.38.64.57 1.59.57 2.85 0 1.28-.19 2.23-.57 2.87-.38.63-.94.95-1.68.95-.75 0-1.31-.32-1.69-.96-.38-.64-.57-1.59-.57-2.86 0-2.54.75-3.81 2.27-3.81.73 0 1.29.32 1.67.96zm-2.62.51c-.2.47-.3 1.25-.3 2.34 0 1.1.1 1.88.3 2.34.2.46.52.69.94.69.42 0 .73-.23.93-.69.2-.46.3-1.24.3-2.34s-.1-1.88-.3-2.34c-.2-.46-.51-.69-.94-.69s-.73.22-.93.69z"/><path class="st20" d="M7.01 231.55v7.4H5.65v-6.02l-1.46.99-.61-.9 2.2-1.47h1.23zM12.91 235.82c.23.32.35.7.35 1.14 0 .42-.1.79-.31 1.12-.21.33-.5.58-.88.76-.38.18-.83.27-1.34.27-.51 0-.94-.09-1.31-.27a2.01 2.01 0 01-.85-.75c-.2-.32-.3-.68-.3-1.1 0-.45.11-.82.34-1.13s.56-.56 1-.75c-.37-.22-.65-.47-.81-.76-.17-.29-.25-.62-.25-.99 0-.4.1-.75.29-1.04.19-.29.46-.52.8-.67.34-.15.71-.23 1.13-.23.65 0 1.19.16 1.61.49s.63.8.63 1.4c0 .35-.09.67-.28.94-.19.28-.48.52-.89.73.48.24.84.52 1.07.84zm-1.32 1.99c.19-.19.29-.47.29-.84 0-.34-.09-.61-.26-.81s-.48-.38-.92-.56l-.29-.12c-.52.31-.78.8-.78 1.47 0 .38.1.67.29.86.19.19.47.29.83.29.37 0 .65-.1.84-.29zm-1.74-4.42c0 .3.07.54.22.7.15.17.39.33.73.47l.19.08c.26-.18.44-.36.54-.56.1-.2.15-.43.15-.71 0-.33-.08-.58-.23-.75-.15-.17-.38-.25-.68-.25-.62.01-.92.35-.92 1.02zM17.06 231.67c.33.17.58.4.75.68.17.29.26.6.26.95 0 .46-.12.83-.36 1.12s-.59.5-1.04.62c.49.06.89.24 1.18.54s.45.72.45 1.26c0 .42-.1.8-.3 1.14-.2.35-.48.62-.85.83-.37.21-.81.31-1.31.31-.46 0-.88-.09-1.24-.27-.36-.18-.69-.45-.98-.8l.78-.69c.23.24.46.42.67.53s.44.17.7.17c.34 0 .62-.11.83-.34.21-.22.31-.53.31-.93 0-.43-.1-.74-.31-.93-.21-.19-.51-.28-.92-.28h-.51l.15-.98h.34c.34 0 .61-.1.81-.3.2-.2.3-.48.3-.85 0-.32-.09-.56-.26-.73-.18-.17-.42-.26-.73-.26-.47 0-.9.21-1.3.62l-.7-.71c.62-.63 1.33-.95 2.16-.95.41 0 .79.09 1.12.25zM23.43 232.39c.41.65.62 1.61.62 2.87 0 1.28-.21 2.25-.62 2.89s-1.02.97-1.81.97-1.41-.32-1.82-.97c-.41-.65-.62-1.61-.62-2.89s.21-2.24.62-2.88c.41-.64 1.02-.96 1.82-.96s1.4.33 1.81.97zm-2.4.33c-.15.17-.26.46-.33.87s-.11.96-.11 1.67c0 .72.04 1.28.11 1.69.07.41.18.7.33.87s.34.26.58.26.44-.08.58-.25c.15-.17.26-.46.33-.87s.11-.98.11-1.69-.04-1.28-.11-1.68c-.07-.4-.18-.69-.33-.86s-.34-.25-.58-.25-.43.07-.58.24zM132.68 231.55v7.4h-1.35v-6.02l-1.46.99-.61-.9 2.2-1.47h1.22zM138.08 232.19c.41.51.62 1.22.62 2.12 0 1-.14 1.82-.42 2.46a3.51 3.51 0 01-1.28 1.52c-.57.38-1.33.7-2.29.95l-.29-.98c.88-.25 1.54-.58 1.99-.98s.72-.96.83-1.68c-.37.49-.84.74-1.41.74-.34 0-.66-.1-.96-.29-.29-.19-.53-.47-.7-.84-.17-.36-.26-.79-.26-1.27 0-.52.1-.97.31-1.35.21-.38.5-.67.86-.86.36-.2.77-.3 1.22-.3.78-.01 1.37.25 1.78.76zm-.79 2.37c.01-.79-.06-1.33-.21-1.65-.15-.31-.41-.47-.78-.47-.32 0-.56.12-.74.36s-.26.61-.26 1.11c0 .49.08.85.25 1.08.17.23.39.35.67.35.42 0 .78-.26 1.07-.78zM143.86 232.39c.41.65.62 1.61.62 2.87 0 1.28-.21 2.25-.62 2.89s-1.02.97-1.81.97-1.41-.32-1.82-.97c-.41-.65-.62-1.61-.62-2.89s.21-2.24.62-2.88c.41-.64 1.02-.96 1.82-.96s1.4.33 1.81.97zm-2.4.33c-.15.17-.26.46-.33.87s-.11.96-.11 1.67c0 .72.04 1.28.11 1.69.07.41.18.7.33.87s.34.26.58.26.44-.08.58-.25c.15-.17.26-.46.33-.87s.11-.98.11-1.69-.04-1.28-.11-1.68c-.07-.4-.18-.69-.33-.86s-.34-.25-.58-.25-.43.07-.58.24zM149.72 232.39c.41.65.62 1.61.62 2.87 0 1.28-.21 2.25-.62 2.89s-1.02.97-1.81.97-1.41-.32-1.82-.97c-.41-.65-.62-1.61-.62-2.89s.21-2.24.62-2.88c.41-.64 1.02-.96 1.82-.96s1.4.33 1.81.97zm-2.4.33c-.15.17-.26.46-.33.87s-.11.96-.11 1.67c0 .72.04 1.28.11 1.69.07.41.18.7.33.87.15.17.34.26.58.26s.44-.08.58-.25c.15-.17.26-.46.33-.87s.11-.98.11-1.69-.04-1.28-.11-1.68c-.07-.4-.18-.69-.33-.86-.15-.17-.34-.25-.58-.25s-.43.07-.58.24z"/><path class="st15" d="M35.48 236.35v.79h-.84v1.82h-.94v-1.82h-2.88v-.71l1.97-4.96.84.32-1.79 4.56h1.88l.1-2h.84v2h.82zM40.32 232.43c.38.64.57 1.59.57 2.85 0 1.28-.19 2.23-.57 2.87-.38.63-.94.95-1.68.95-.75 0-1.31-.32-1.69-.96-.38-.64-.57-1.59-.57-2.86 0-2.54.75-3.81 2.27-3.81.73.01 1.29.32 1.67.96zm-2.62.52c-.2.46-.3 1.24-.3 2.34 0 1.1.1 1.88.3 2.34.2.46.52.69.94.69.42 0 .73-.23.93-.69.2-.46.3-1.24.3-2.34 0-1.1-.1-1.88-.3-2.34-.2-.46-.51-.69-.94-.69s-.73.22-.93.69zM69.35 234.38c.27.18.49.44.65.79.16.35.24.78.24 1.29 0 .54-.09 1.01-.27 1.41-.18.4-.43.7-.75.91-.32.21-.69.31-1.11.31-.78 0-1.36-.31-1.73-.93-.37-.62-.56-1.48-.56-2.59 0-.84.1-1.57.31-2.19.21-.62.51-1.09.9-1.42.39-.33.85-.5 1.38-.5.51 0 .97.15 1.36.45l-.38.63c-.31-.21-.63-.31-.96-.31-.48 0-.86.25-1.14.75-.28.5-.44 1.19-.48 2.07.42-.63.95-.95 1.61-.95.34.02.65.11.93.28zm-.39 3.47c.19-.32.29-.78.29-1.37 0-.56-.09-.98-.28-1.23a.882.882 0 00-.76-.38c-.27 0-.53.09-.76.27-.24.18-.45.44-.62.76.01.84.12 1.46.32 1.85s.52.58.95.58c.38 0 .67-.16.86-.48zM75.22 232.43c.38.64.57 1.59.57 2.85 0 1.28-.19 2.23-.57 2.87-.38.63-.94.95-1.68.95-.75 0-1.31-.32-1.69-.96-.38-.64-.57-1.59-.57-2.86 0-2.54.75-3.81 2.27-3.81.73.01 1.29.32 1.67.96zm-2.62.52c-.2.46-.3 1.24-.3 2.34 0 1.1.1 1.88.3 2.34.2.46.52.69.94.69.42 0 .73-.23.93-.69.2-.46.3-1.24.3-2.34 0-1.1-.1-1.88-.3-2.34-.2-.46-.51-.69-.94-.69s-.73.22-.93.69zM104.75 235.84c.23.31.35.7.35 1.17 0 .41-.1.77-.29 1.09-.19.32-.46.56-.82.74-.36.18-.77.26-1.24.26-.46 0-.87-.09-1.22-.26s-.62-.42-.8-.73c-.19-.31-.28-.67-.28-1.08 0-.91.47-1.56 1.4-1.96-.4-.21-.68-.46-.86-.73-.18-.27-.26-.6-.26-.98 0-.4.09-.74.27-1.02.18-.29.43-.5.74-.65.31-.15.65-.22 1.03-.22.59 0 1.08.16 1.47.48.39.32.59.78.59 1.36 0 .38-.09.7-.29.97s-.5.52-.91.74c.51.24.88.51 1.12.82zm-.99 2.15c.23-.22.35-.55.35-.98 0-.39-.1-.69-.29-.91-.19-.22-.54-.43-1.04-.63l-.31-.12c-.35.18-.61.41-.78.67s-.25.59-.25.99c0 .44.12.77.35.99.23.22.56.33.98.33s.75-.11.99-.34zm-1.77-5.5c-.2.19-.3.49-.3.88 0 .33.08.59.25.78s.45.36.84.52l.25.11c.31-.21.53-.42.65-.63.13-.22.19-.48.19-.79 0-.39-.1-.68-.29-.88s-.46-.29-.8-.29c-.33.01-.59.11-.79.3zM110.08 232.43c.38.64.57 1.59.57 2.85 0 1.28-.19 2.23-.57 2.87-.38.63-.94.95-1.68.95-.75 0-1.31-.32-1.69-.96-.38-.64-.57-1.59-.57-2.86 0-2.54.76-3.81 2.27-3.81.73.01 1.29.32 1.67.96zm-2.62.52c-.2.46-.3 1.24-.3 2.34 0 1.1.1 1.88.3 2.34.2.46.51.69.94.69.42 0 .73-.23.93-.69.2-.46.3-1.24.3-2.34 0-1.1-.1-1.88-.3-2.34-.2-.46-.51-.69-.93-.69-.43-.01-.74.22-.94.69zM172.71 231.73c.3.17.54.41.7.71s.24.63.24 1.01c0 .45-.09.87-.26 1.27s-.45.85-.83 1.34c-.38.49-.97 1.19-1.76 2.09h3.01l-.12.81h-3.98v-.77c.85-.98 1.47-1.73 1.86-2.23s.67-.94.82-1.3c.15-.36.23-.75.23-1.15 0-.39-.1-.69-.29-.9s-.46-.32-.79-.32c-.28 0-.52.06-.73.19s-.42.32-.64.59l-.62-.47c.54-.74 1.22-1.11 2.06-1.11.44-.01.8.07 1.1.24zM178.8 232.43c.38.64.57 1.59.57 2.85 0 1.28-.19 2.23-.57 2.87-.38.63-.94.95-1.68.95-.75 0-1.31-.32-1.69-.96-.38-.64-.57-1.59-.57-2.86 0-2.54.75-3.81 2.27-3.81.73.01 1.29.32 1.67.96zm-2.62.52c-.2.46-.3 1.24-.3 2.34 0 1.1.1 1.88.3 2.34.2.46.52.69.94.69.42 0 .73-.23.93-.69.2-.46.3-1.24.3-2.34 0-1.1-.1-1.88-.3-2.34-.2-.46-.51-.69-.94-.69s-.73.22-.93.69z"/><path class="st20" d="M299.18 231.69c.33.18.59.42.76.73.18.31.26.66.26 1.05 0 .42-.08.82-.24 1.2s-.43.82-.81 1.29-.93 1.11-1.67 1.9h2.86l-.14 1.09h-4.22v-1.01c.81-.92 1.41-1.63 1.79-2.11.38-.48.64-.89.79-1.23.15-.34.23-.69.23-1.06 0-.34-.08-.6-.25-.78s-.39-.27-.68-.27c-.24 0-.46.06-.64.18s-.39.31-.61.57l-.83-.64c.56-.8 1.3-1.2 2.2-1.2.46.02.86.11 1.2.29zM305.46 232.39c.41.65.62 1.61.62 2.87 0 1.28-.21 2.25-.62 2.89-.41.65-1.02.97-1.82.97s-1.41-.32-1.82-.97c-.41-.65-.62-1.61-.62-2.89s.21-2.24.62-2.88c.41-.64 1.02-.96 1.82-.96.81 0 1.41.33 1.82.97zm-2.4.33c-.15.17-.26.46-.33.87s-.11.96-.11 1.67c0 .72.04 1.28.11 1.69.07.41.18.7.33.87s.34.26.58.26c.24 0 .44-.08.58-.25.15-.17.26-.46.33-.87s.11-.98.11-1.69-.04-1.28-.11-1.68c-.07-.4-.18-.69-.33-.86s-.34-.25-.58-.25a.692.692 0 00-.58.24zM311.32 232.39c.41.65.62 1.61.62 2.87 0 1.28-.21 2.25-.62 2.89-.41.65-1.02.97-1.81.97-.8 0-1.41-.32-1.82-.97-.41-.65-.62-1.61-.62-2.89s.21-2.24.62-2.88c.41-.64 1.02-.96 1.82-.96s1.4.33 1.81.97zm-2.39.33c-.15.17-.26.46-.33.87s-.11.96-.11 1.67c0 .72.04 1.28.11 1.69.07.41.18.7.33.87.15.17.34.26.58.26.24 0 .44-.08.58-.25.15-.17.26-.46.33-.87s.11-.98.11-1.69-.04-1.28-.11-1.68c-.07-.4-.18-.69-.33-.86a.73.73 0 00-.58-.25c-.24-.01-.44.07-.58.24zM317.19 232.39c.41.65.62 1.61.62 2.87 0 1.28-.21 2.25-.62 2.89-.41.65-1.02.97-1.82.97s-1.41-.32-1.82-.97c-.41-.65-.62-1.61-.62-2.89s.21-2.24.62-2.88c.41-.64 1.02-.96 1.82-.96s1.41.33 1.82.97zm-2.4.33c-.15.17-.26.46-.33.87s-.11.96-.11 1.67c0 .72.04 1.28.11 1.69.07.41.18.7.33.87s.34.26.58.26c.24 0 .44-.08.58-.25.15-.17.26-.46.33-.87s.11-.98.11-1.69-.04-1.28-.11-1.68c-.07-.4-.18-.69-.33-.86s-.34-.25-.58-.25a.692.692 0 00-.58.24z"/><path class="st15" d="M328.05 231.6v7.36h-.98v-6.33l-1.53 1.04-.45-.66 2.09-1.41h.87zM333.66 232.43c.38.64.57 1.59.57 2.85 0 1.28-.19 2.23-.57 2.87-.38.63-.94.95-1.68.95-.75 0-1.31-.32-1.69-.96-.38-.64-.57-1.59-.57-2.86 0-2.54.75-3.81 2.27-3.81.73.01 1.29.32 1.67.96zm-2.63.52c-.2.46-.3 1.24-.3 2.34 0 1.1.1 1.88.3 2.34.2.46.52.69.94.69.42 0 .73-.23.93-.69.2-.46.3-1.24.3-2.34 0-1.1-.1-1.88-.3-2.34-.2-.46-.51-.69-.94-.69s-.72.22-.93.69z"/><g><path class="st20" d="M346.66 231.69c.33.18.59.42.76.73.18.31.26.66.26 1.05 0 .42-.08.82-.24 1.2-.16.38-.43.82-.81 1.29s-.93 1.11-1.67 1.9h2.86l-.14 1.09h-4.22v-1.01c.81-.92 1.41-1.63 1.79-2.11.38-.48.64-.89.79-1.23.15-.34.23-.69.23-1.06 0-.34-.08-.6-.25-.78s-.39-.27-.68-.27c-.24 0-.46.06-.64.18s-.39.31-.61.57l-.83-.64c.56-.8 1.3-1.2 2.2-1.2.46.02.86.11 1.2.29zM352.94 232.39c.41.65.62 1.61.62 2.87 0 1.28-.21 2.25-.62 2.89-.41.65-1.02.97-1.81.97-.8 0-1.41-.32-1.82-.97-.41-.65-.62-1.61-.62-2.89s.21-2.24.62-2.88c.41-.64 1.02-.96 1.82-.96s1.4.33 1.81.97zm-2.4.33c-.15.17-.26.46-.33.87s-.11.96-.11 1.67c0 .72.04 1.28.11 1.69.07.41.18.7.33.87.15.17.34.26.58.26.24 0 .44-.08.58-.25.15-.17.26-.46.33-.87s.11-.98.11-1.69-.04-1.28-.11-1.68c-.07-.4-.18-.69-.33-.86a.73.73 0 00-.58-.25.704.704 0 00-.58.24zM357.64 231.55v7.4h-1.35v-6.02l-1.46.99-.6-.9 2.2-1.47h1.21zM363.54 235.82c.23.32.35.7.35 1.14 0 .42-.1.79-.31 1.12-.21.33-.5.58-.88.76-.38.18-.83.27-1.34.27-.51 0-.94-.09-1.31-.27a2.01 2.01 0 01-.85-.75c-.2-.32-.3-.68-.3-1.1 0-.45.11-.82.34-1.13.22-.3.56-.56 1-.75-.37-.22-.65-.47-.81-.76-.17-.29-.25-.62-.25-.99 0-.4.1-.75.29-1.04.19-.29.46-.52.8-.67s.71-.23 1.13-.23c.65 0 1.19.16 1.61.49.42.33.63.8.63 1.4 0 .35-.09.67-.28.94-.19.28-.48.52-.89.73.48.24.84.52 1.07.84zm-1.31 1.99c.19-.19.29-.47.29-.84 0-.34-.09-.61-.26-.81s-.48-.38-.92-.56l-.29-.12c-.52.31-.78.8-.78 1.47 0 .38.1.67.29.86.19.19.47.29.83.29.37 0 .65-.1.84-.29zm-1.75-4.42c0 .3.07.54.22.7s.39.33.73.47l.19.08c.26-.18.44-.36.54-.56.1-.2.15-.43.15-.71 0-.33-.08-.58-.23-.75-.15-.17-.38-.25-.68-.25-.62.01-.92.35-.92 1.02z"/></g><g><path class="st15" d="M208.73 236.35v.79h-.84v1.82h-.95v-1.82h-2.88v-.71l1.97-4.96.84.32-1.79 4.56h1.88l.1-2h.84v2h.83zM213.57 232.43c.38.64.57 1.59.57 2.85 0 1.28-.19 2.23-.57 2.87-.38.63-.94.95-1.68.95-.75 0-1.31-.32-1.69-.96-.38-.64-.57-1.59-.57-2.86 0-2.54.75-3.81 2.27-3.81.73.01 1.29.32 1.67.96zm-2.62.52c-.2.46-.3 1.24-.3 2.34 0 1.1.1 1.88.3 2.34.2.46.52.69.94.69.42 0 .73-.23.93-.69.2-.46.3-1.24.3-2.34 0-1.1-.1-1.88-.3-2.34-.2-.46-.51-.69-.94-.69s-.73.22-.93.69z"/></g><g><path class="st15" d="M242.29 234.38c.27.18.49.44.65.79.16.35.24.78.24 1.29 0 .54-.09 1.01-.27 1.41-.18.4-.43.7-.75.91-.32.21-.69.31-1.11.31-.79 0-1.36-.31-1.73-.93-.37-.62-.56-1.48-.56-2.59 0-.84.1-1.57.31-2.19.21-.62.51-1.09.9-1.42s.85-.5 1.38-.5c.51 0 .97.15 1.36.45l-.39.63c-.31-.21-.63-.31-.96-.31-.48 0-.86.25-1.14.75-.28.5-.44 1.19-.48 2.07.42-.63.95-.95 1.61-.95.36.02.67.11.94.28zm-.38 3.47c.19-.32.29-.78.29-1.37 0-.56-.09-.98-.28-1.23a.882.882 0 00-.76-.38c-.27 0-.53.09-.76.27s-.45.44-.62.76c.01.84.12 1.46.32 1.85s.52.58.95.58c.38 0 .66-.16.86-.48zM248.17 232.43c.38.64.57 1.59.57 2.85 0 1.28-.19 2.23-.57 2.87-.38.63-.94.95-1.68.95-.75 0-1.31-.32-1.69-.96-.38-.64-.57-1.59-.57-2.86 0-2.54.76-3.81 2.27-3.81.73.01 1.29.32 1.67.96zm-2.62.52c-.2.46-.3 1.24-.3 2.34 0 1.1.1 1.88.3 2.34.2.46.51.69.94.69.42 0 .73-.23.93-.69.2-.46.3-1.24.3-2.34 0-1.1-.1-1.88-.3-2.34-.2-.46-.51-.69-.93-.69-.43-.01-.74.22-.94.69z"/></g><g><path class="st15" d="M277.4 235.84c.23.31.35.7.35 1.17 0 .41-.1.77-.29 1.09s-.46.56-.82.74c-.36.18-.77.26-1.24.26-.46 0-.87-.09-1.22-.26s-.62-.42-.8-.73c-.19-.31-.28-.67-.28-1.08 0-.91.47-1.56 1.4-1.96-.4-.21-.68-.46-.86-.73s-.26-.6-.26-.98c0-.4.09-.74.28-1.02.18-.29.43-.5.74-.65.31-.15.65-.22 1.03-.22.59 0 1.08.16 1.47.48.39.32.59.78.59 1.36 0 .38-.1.7-.29.97-.19.27-.5.52-.91.74.5.24.87.51 1.11.82zm-.99 2.15c.23-.22.35-.55.35-.98 0-.39-.1-.69-.29-.91-.19-.22-.54-.43-1.04-.63l-.31-.12c-.35.18-.61.41-.78.67s-.25.59-.25.99c0 .44.12.77.35.99.23.22.56.33.98.33s.75-.11.99-.34zm-1.78-5.5c-.2.19-.3.49-.3.88 0 .33.08.59.25.78s.45.36.84.52l.25.11c.31-.21.53-.42.65-.63s.19-.48.19-.79c0-.39-.1-.68-.29-.88-.19-.19-.46-.29-.8-.29-.32.01-.59.11-.79.3zM282.73 232.43c.38.64.57 1.59.57 2.85 0 1.28-.19 2.23-.57 2.87-.38.63-.94.95-1.68.95-.75 0-1.31-.32-1.69-.96s-.57-1.59-.57-2.86c0-2.54.75-3.81 2.27-3.81.73.01 1.29.32 1.67.96zm-2.62.52c-.2.46-.3 1.24-.3 2.34 0 1.1.1 1.88.3 2.34.2.46.52.69.94.69.42 0 .73-.23.93-.69.2-.46.3-1.24.3-2.34 0-1.1-.1-1.88-.3-2.34s-.51-.69-.94-.69-.73.22-.93.69z"/></g><g><path class="st23" d="M6.41 182.82c.3.17.54.41.7.7s.24.63.24 1.01c0 .45-.09.87-.26 1.27s-.45.85-.83 1.34c-.38.49-.97 1.19-1.76 2.09h3.01l-.12.81H3.42v-.77c.85-.98 1.47-1.73 1.86-2.23s.67-.94.82-1.3c.15-.36.23-.75.23-1.15 0-.39-.1-.69-.29-.9s-.46-.32-.79-.32c-.28 0-.52.06-.73.19-.21.12-.42.32-.64.59l-.62-.47c.54-.74 1.22-1.11 2.06-1.11.43-.01.79.08 1.09.25zM12.5 183.52c.38.64.57 1.59.57 2.85 0 1.28-.19 2.23-.57 2.87-.38.63-.94.95-1.68.95-.75 0-1.31-.32-1.69-.96-.38-.64-.57-1.59-.57-2.86 0-2.54.75-3.81 2.27-3.81.73 0 1.29.32 1.67.96zm-2.62.51c-.2.47-.3 1.25-.3 2.34 0 1.1.1 1.88.3 2.34.2.46.52.69.94.69.42 0 .73-.23.93-.69.2-.46.3-1.24.3-2.34 0-1.1-.1-1.88-.3-2.34-.2-.46-.51-.69-.94-.69s-.73.22-.93.69z"/></g><g><path class="st23" d="M7.66 158.33v.79h-.83v1.82h-.95v-1.82H3v-.71l1.97-4.96.84.32-1.79 4.56H5.9l.1-2h.84v2h.82zM12.5 154.42c.38.64.57 1.59.57 2.85 0 1.28-.19 2.23-.57 2.87-.38.63-.94.95-1.68.95-.75 0-1.31-.32-1.69-.96-.38-.64-.57-1.59-.57-2.86 0-2.54.75-3.81 2.27-3.81.73 0 1.29.32 1.67.96zm-2.62.51c-.2.47-.3 1.25-.3 2.34 0 1.1.1 1.88.3 2.34.2.46.52.69.94.69.42 0 .73-.23.93-.69.2-.46.3-1.24.3-2.34 0-1.1-.1-1.88-.3-2.34-.2-.46-.51-.69-.94-.69s-.73.22-.93.69z"/></g><g><path class="st23" d="M6.62 126.88c.27.18.49.44.65.79s.24.78.24 1.29c0 .54-.09 1.01-.27 1.41-.18.4-.43.71-.75.91-.32.21-.69.31-1.11.31-.78 0-1.36-.31-1.73-.93-.37-.62-.56-1.48-.56-2.59 0-.84.1-1.57.31-2.19.21-.62.51-1.09.9-1.42.39-.33.85-.5 1.38-.5.51 0 .97.15 1.36.45l-.38.63c-.31-.21-.63-.31-.96-.31-.48 0-.86.25-1.14.75s-.44 1.19-.48 2.07c.42-.63.95-.95 1.61-.95.35.01.66.1.93.28zm-.38 3.47c.19-.32.29-.78.29-1.37 0-.56-.09-.98-.28-1.23a.882.882 0 00-.76-.38c-.27 0-.53.09-.76.28-.24.18-.45.44-.62.76.01.84.12 1.46.32 1.85s.52.58.95.58c.38-.01.66-.17.86-.49zM12.5 124.93c.38.64.57 1.59.57 2.85 0 1.28-.19 2.23-.57 2.87-.38.63-.94.95-1.68.95-.75 0-1.31-.32-1.69-.96-.38-.64-.57-1.59-.57-2.86 0-2.54.75-3.81 2.27-3.81.73 0 1.29.32 1.67.96zm-2.62.51c-.2.47-.3 1.25-.3 2.34 0 1.1.1 1.88.3 2.34.2.46.52.69.94.69.42 0 .73-.23.93-.69.2-.46.3-1.24.3-2.34s-.1-1.88-.3-2.34c-.2-.46-.51-.69-.94-.69s-.73.23-.93.69z"/></g><g><path class="st23" d="M6.82 100.43c.23.31.35.7.35 1.17 0 .41-.1.77-.29 1.09-.19.32-.46.56-.82.74-.36.18-.77.26-1.24.26-.46 0-.87-.09-1.22-.26s-.62-.42-.8-.73c-.19-.31-.28-.67-.28-1.08 0-.91.47-1.56 1.4-1.96-.4-.21-.68-.45-.86-.73-.18-.27-.26-.6-.26-.98 0-.4.09-.74.27-1.02.18-.29.43-.5.74-.65.31-.15.65-.22 1.03-.22.59 0 1.08.16 1.47.48.39.32.59.78.59 1.36 0 .37-.1.7-.29.97-.19.27-.5.52-.91.74.51.24.88.51 1.12.82zm-.99 2.15c.23-.22.35-.55.35-.98 0-.39-.1-.69-.29-.91s-.54-.43-1.04-.63l-.31-.12c-.35.18-.61.41-.78.67s-.25.59-.25.99c0 .44.12.77.35.99.23.22.56.33.98.33s.75-.11.99-.34zm-1.77-5.5c-.2.19-.3.49-.3.89 0 .33.08.59.25.78s.45.36.84.52l.25.11c.31-.21.53-.42.65-.63.13-.22.19-.48.19-.79 0-.39-.1-.68-.29-.87s-.46-.29-.8-.29c-.33-.01-.6.09-.79.28zM12.15 97.02c.38.64.57 1.59.57 2.85 0 1.28-.19 2.23-.57 2.87-.38.63-.94.95-1.68.95-.75 0-1.31-.32-1.69-.96-.38-.64-.57-1.59-.57-2.86 0-2.54.75-3.81 2.27-3.81.73.01 1.29.33 1.67.96zm-2.62.52c-.2.47-.3 1.25-.3 2.34 0 1.1.1 1.88.3 2.34.2.46.52.69.94.69.42 0 .73-.23.93-.69.2-.46.3-1.24.3-2.34 0-1.1-.1-1.88-.3-2.34-.2-.46-.51-.69-.94-.69s-.73.22-.93.69zM17.06 103.37c-.21-.21-.31-.51-.31-.89v-7.06l.99-.11v7.14c0 .29.12.43.35.43.1 0 .2-.02.32-.07l.22.69c-.23.12-.48.19-.74.19-.35 0-.63-.11-.83-.32zM23.75 101h-3.37c.03.67.17 1.16.41 1.46.24.3.57.45.99.45.26 0 .5-.04.71-.12s.43-.21.65-.4l.44.58c-.54.48-1.16.73-1.85.73-.75 0-1.34-.26-1.75-.79-.41-.52-.62-1.26-.62-2.21s.2-1.7.59-2.25.95-.83 1.65-.83 1.23.25 1.61.74.56 1.2.56 2.12c0 .15-.01.32-.02.52zm-.94-.82c0-1.21-.4-1.81-1.2-1.81a.99.99 0 00-.87.46c-.21.3-.33.8-.36 1.48h2.43v-.13zM27.88 103.29c-.37.26-.77.4-1.22.4-.47 0-.83-.14-1.08-.41-.25-.27-.38-.65-.38-1.14v-3.63h-.82v-.75h.82v-1.33l.99-.12v1.45h1.28l-.11.75h-1.17v3.62c0 .5.21.75.63.75.12 0 .24-.02.35-.06.11-.04.23-.09.36-.17l.35.64z"/></g><g><path class="st23" d="M7.42 75.72H5.98l-2.94-7.09c.1 1.06.14 2.08.14 3.08v4.01H2.17v-8.26H3.6l2.95 7.1c-.03-.28-.07-.66-.1-1.15-.04-.49-.05-.97-.05-1.45v-4.5h1.02v8.26zM13.45 74.85c.07.12.18.22.34.28l-.23.73c-.31-.05-.56-.14-.73-.29-.18-.14-.3-.36-.37-.66-.41.64-.98.96-1.72.96-.56 0-1-.17-1.33-.52-.33-.35-.49-.81-.49-1.4 0-.67.22-1.18.66-1.54.44-.35 1.07-.53 1.88-.53h.82v-.54c0-.44-.09-.76-.27-.95-.18-.2-.47-.29-.88-.29-.44 0-.95.11-1.54.34l-.26-.76c.7-.29 1.36-.43 1.97-.43 1.37 0 2.05.68 2.05 2.05v2.98c0 .26.03.45.1.57zm-1.17-.77v-1.49h-.7c-1.04 0-1.56.44-1.56 1.31 0 .38.08.66.25.86.17.2.41.3.72.3.56 0 .99-.33 1.29-.98zM19.78 66.85v8.87h-.96l-.07-.83c-.41.66-.96.98-1.64.98-.69 0-1.22-.29-1.6-.88-.38-.58-.57-1.39-.57-2.41 0-.66.09-1.25.28-1.75.19-.5.45-.89.8-1.17.34-.28.74-.41 1.19-.41.6 0 1.1.25 1.5.76v-3.28l1.07.12zm-1.68 7.93c.21-.16.41-.4.59-.71V70.9c-.36-.54-.78-.8-1.26-.8-.42 0-.76.2-1.01.61s-.37 1.02-.36 1.85c0 .84.11 1.46.34 1.86s.54.6.95.6c.29 0 .54-.08.75-.24zM26.13 72.94h-3.67c.03.74.18 1.27.44 1.59.26.32.62.49 1.08.49.29 0 .55-.04.77-.13.23-.09.47-.23.71-.43l.48.64c-.59.53-1.26.79-2.02.79-.82 0-1.46-.29-1.91-.86-.45-.57-.68-1.37-.68-2.41 0-1.03.22-1.85.65-2.45.43-.6 1.03-.91 1.8-.91.76 0 1.34.27 1.75.81s.61 1.31.61 2.31c.01.16 0 .35-.01.56zm-.96-6.62l.42.48-1.45 1.39h-.67l-1.45-1.39.42-.48 1.37 1.06 1.36-1.06zm-.06 5.73c0-1.32-.44-1.98-1.31-1.98-.4 0-.72.17-.95.5-.23.33-.36.87-.4 1.61h2.65v-.13zM28.73 75.47c0 .54-.07.97-.21 1.31-.14.34-.34.62-.6.83-.26.21-.61.42-1.05.63l-.34-.78c.28-.14.5-.29.65-.43.15-.14.27-.34.35-.58.08-.24.12-.56.12-.96v-6.08h1.08v6.06zm-.03-8.83c.13.14.2.3.2.5s-.06.37-.19.5-.3.2-.52.2c-.21 0-.38-.07-.51-.2s-.2-.3-.2-.5.07-.37.2-.5c.13-.14.3-.2.51-.2s.38.06.51.2zM35.08 72.94h-3.67c.03.74.18 1.27.44 1.59.26.32.62.49 1.08.49.29 0 .55-.04.77-.13.23-.09.47-.23.71-.43l.48.64c-.59.53-1.26.79-2.02.79-.82 0-1.46-.29-1.91-.86-.45-.57-.68-1.37-.68-2.41 0-1.03.22-1.85.65-2.45s1.03-.91 1.8-.91c.76 0 1.34.27 1.75.81.41.54.61 1.31.61 2.31.01.16 0 .35-.01.56zm-1.02-.89c0-1.32-.44-1.98-1.31-1.98-.4 0-.72.17-.95.5-.23.33-.36.87-.4 1.61h2.65v-.13zM6.61 77.85v8.87h-.96l-.07-.83c-.41.66-.96.98-1.64.98s-1.22-.29-1.6-.87c-.38-.58-.57-1.39-.57-2.41 0-.66.09-1.25.28-1.75.19-.5.45-.89.8-1.17.34-.28.74-.41 1.19-.41.6 0 1.1.25 1.5.76v-3.28l1.07.11zm-1.67 7.93c.21-.16.41-.4.59-.71V81.9c-.36-.54-.78-.8-1.26-.8-.42 0-.76.2-1.01.61s-.37 1.02-.36 1.85c0 .84.11 1.46.34 1.86.22.4.54.6.95.6.29 0 .54-.08.75-.24zM12.64 81.1c.45.57.67 1.38.67 2.45 0 1.02-.23 1.83-.68 2.43-.46.6-1.08.89-1.88.89-.81 0-1.44-.29-1.89-.88-.45-.58-.68-1.4-.68-2.44 0-1.05.23-1.86.68-2.44.46-.58 1.09-.87 1.9-.87s1.43.3 1.88.86zm-2.97.61c-.25.4-.37 1.01-.37 1.85 0 1.64.48 2.46 1.44 2.46s1.44-.82 1.44-2.47c0-.84-.12-1.46-.36-1.85-.24-.39-.6-.59-1.07-.59s-.83.2-1.08.6zM18.31 80.41v.8l-2.99 4.62h3l-.11.89h-4.08v-.8l2.99-4.62h-2.74v-.89h3.93zm-.63-3.09l.42.48-1.45 1.39h-.67l-1.45-1.39.42-.48 1.37 1.06 1.36-1.06zM20.66 77.64c.13.14.2.3.2.5s-.06.37-.19.5-.3.2-.52.2c-.21 0-.38-.07-.51-.2s-.2-.3-.2-.5.07-.37.2-.5c.13-.14.3-.2.51-.2s.38.06.51.2zm.03 2.77v6.31h-1.08v-6.31h1.08zM25.62 86.44c-.4.29-.84.43-1.33.43-.51 0-.91-.15-1.18-.44s-.41-.71-.41-1.25v-3.96h-.9v-.82h.9v-1.45l1.08-.13v1.58h1.39l-.12.82h-1.27v3.95c0 .54.23.82.68.82.14 0 .26-.02.38-.06.12-.04.25-.1.39-.18l.39.69z"/><path class="st23" d="M27.89 77.16l.46.86-2.3 1.04-.31-.55 2.15-1.35zm-.25 3.25v6.31h-1.08v-6.31h1.08z"/></g><g><path class="st24" d="M53.03 101.25l-2.42 7.58h-1.12l-2.44-7.58h1.12l1.9 6.45 1.9-6.45h1.06zM58.22 106.28h-3.7c.04.64.21 1.11.48 1.41.28.3.64.45 1.08.45.28 0 .54-.04.77-.12.23-.08.48-.21.74-.39l.44.61c-.62.48-1.29.73-2.02.73-.81 0-1.44-.26-1.89-.79-.45-.53-.68-1.25-.68-2.18 0-.6.1-1.13.29-1.6s.47-.83.84-1.09c.36-.26.79-.4 1.28-.4.77 0 1.36.25 1.77.76s.62 1.21.62 2.1c0 .16-.01.33-.02.51zm-.98-.82c0-.57-.11-1.01-.34-1.31-.23-.3-.57-.45-1.02-.45-.83 0-1.28.61-1.35 1.83h2.72v-.07zM65.37 101.61c.33.17.58.4.75.68.17.29.26.6.26.94 0 .45-.13.82-.39 1.11-.26.29-.61.49-1.04.59.49.04.89.22 1.2.53.31.31.46.73.46 1.25 0 .43-.1.81-.31 1.16-.21.34-.5.61-.88.81-.38.19-.82.29-1.32.29-.45 0-.86-.08-1.23-.25-.37-.16-.7-.41-.98-.74l.6-.56c.24.25.49.43.74.55.25.12.53.18.83.18.46 0 .82-.13 1.09-.39.26-.26.4-.61.4-1.05 0-.48-.12-.83-.37-1.02-.25-.2-.61-.3-1.09-.3h-.55l.12-.78h.37c.38 0 .7-.11.95-.34.25-.23.38-.55.38-.96 0-.34-.11-.62-.33-.82s-.52-.3-.89-.3c-.29 0-.55.05-.79.15s-.48.27-.73.51l-.53-.6c.62-.58 1.32-.87 2.1-.87.47-.02.86.06 1.18.23zM72.13 102.33c.41.65.62 1.59.62 2.82s-.21 2.17-.62 2.83c-.42.65-1.03.98-1.84.98s-1.43-.33-1.84-.98c-.41-.65-.62-1.59-.62-2.83s.21-2.17.62-2.82 1.03-.97 1.84-.97 1.42.32 1.84.97zm-2.91.54c-.23.47-.35 1.23-.35 2.29s.12 1.82.35 2.29c.23.47.58.71 1.06.71.47 0 .82-.24 1.06-.71.23-.47.35-1.24.35-2.29s-.12-1.81-.35-2.28c-.23-.47-.59-.71-1.06-.71-.47-.01-.83.23-1.06.7zM75.21 107.65c.15.15.22.33.22.54 0 .21-.07.39-.22.54-.15.15-.33.23-.55.23-.21 0-.39-.08-.54-.23a.732.732 0 01-.22-.54c0-.21.07-.39.22-.54.15-.15.33-.22.54-.22.22 0 .41.07.55.22zM80.22 108.62c-.22-.22-.32-.54-.32-.94v-6.98l1.01-.12v7.08c0 .16.03.28.08.35.06.07.15.11.28.11.14 0 .26-.02.37-.07l.26.7c-.24.13-.51.2-.8.2-.37.01-.66-.1-.88-.33zM87.48 106.28h-3.7c.04.64.21 1.11.48 1.41.28.3.64.45 1.08.45.28 0 .54-.04.77-.12.23-.08.48-.21.74-.39l.44.61c-.62.48-1.29.73-2.02.73-.81 0-1.44-.26-1.89-.79-.45-.53-.68-1.25-.68-2.18 0-.6.1-1.13.29-1.6s.47-.83.84-1.09c.36-.26.79-.4 1.28-.4.77 0 1.36.25 1.77.76s.62 1.21.62 2.1c0 .16-.01.33-.02.51zm-.98-.82c0-.57-.11-1.01-.34-1.31-.23-.3-.57-.45-1.02-.45-.83 0-1.28.61-1.35 1.83h2.72v-.07zM92.04 108.56c-.38.26-.81.4-1.3.4s-.87-.14-1.15-.42c-.28-.28-.41-.69-.41-1.23v-3.5h-1.01v-.78h1.01v-1.31l1.01-.12v1.43h1.38l-.11.78H90.2v3.45c0 .3.05.52.16.65s.28.2.53.2c.23 0 .48-.08.77-.23l.38.68zM97.28 106.28h-3.7c.04.64.21 1.11.48 1.41s.64.45 1.08.45c.28 0 .54-.04.77-.12.23-.08.48-.21.74-.39l.44.61c-.62.48-1.29.73-2.02.73-.81 0-1.44-.26-1.89-.79-.45-.53-.68-1.25-.68-2.18 0-.6.1-1.13.29-1.6s.47-.83.84-1.09c.36-.26.79-.4 1.28-.4.77 0 1.36.25 1.77.76.41.51.62 1.21.62 2.1 0 .16-.01.33-.02.51zm-.98-.82c0-.57-.11-1.01-.34-1.31-.23-.3-.57-.45-1.02-.45-.83 0-1.28.61-1.35 1.83h2.72v-.07zM101.98 103.05c.29.1.56.26.83.48l-.48.64c-.21-.15-.41-.25-.6-.32s-.41-.1-.64-.1c-.47 0-.83.19-1.09.56-.26.37-.39.93-.39 1.66 0 .73.13 1.27.38 1.62.26.35.62.52 1.1.52.23 0 .44-.03.63-.1s.4-.18.64-.34l.46.66c-.53.43-1.12.64-1.77.64-.78 0-1.4-.26-1.85-.79-.45-.53-.68-1.26-.68-2.19 0-.62.1-1.15.31-1.62.21-.46.5-.82.88-1.08.38-.26.83-.39 1.35-.39.31 0 .63.05.92.15zM108.14 103.37c.3.32.45.75.45 1.3v4.16h-1.01v-4.01c0-.41-.08-.7-.24-.87-.16-.17-.39-.25-.69-.25-.3 0-.57.09-.8.26a3.1 3.1 0 00-.66.75v4.12h-1.01v-8.12l1.01-.11v3.23c.46-.62 1.03-.94 1.72-.94.52.01.93.17 1.23.48zM116.04 101.47v7.36h-1.01v-6.28l-1.72 1.04-.44-.72 2.28-1.41h.89zM121.88 102.12c.4.51.6 1.21.6 2.1 0 1-.14 1.81-.41 2.42-.27.61-.69 1.1-1.24 1.46-.56.36-1.31.68-2.27.96l-.23-.76c.98-.28 1.74-.66 2.26-1.13.52-.48.81-1.11.84-1.9-.17.26-.4.48-.68.64-.29.16-.61.24-.97.24-.38 0-.73-.1-1.03-.29-.31-.19-.55-.47-.73-.83-.18-.36-.27-.77-.27-1.25 0-.5.11-.93.32-1.3s.5-.65.85-.84c.36-.19.75-.29 1.18-.29.78.01 1.37.26 1.78.77zm-.42 2.33c.01-.81-.09-1.4-.3-1.75-.22-.36-.56-.53-1.03-.53-.43 0-.77.14-1 .43-.23.29-.35.69-.35 1.22 0 .51.11.9.33 1.16.22.26.52.39.89.39.57-.01 1.06-.31 1.46-.92zM124.89 107.65c.15.15.22.33.22.54 0 .21-.07.39-.22.54-.15.15-.33.23-.55.23-.21 0-.39-.08-.54-.23a.732.732 0 01-.22-.54c0-.21.07-.39.22-.54.15-.15.33-.22.54-.22.22 0 .4.07.55.22zM132.27 103.06c.32.11.62.28.9.5l-.43.64c-.26-.17-.52-.29-.75-.37s-.49-.12-.75-.12c-.33 0-.59.07-.78.2-.19.14-.29.32-.29.56 0 .23.09.42.27.55.18.13.5.26.97.38.65.16 1.13.38 1.45.66.32.28.48.66.48 1.14 0 .57-.22 1.01-.67 1.31-.44.3-.98.45-1.62.45-.88 0-1.61-.25-2.19-.76l.54-.62c.49.37 1.03.56 1.63.56.38 0 .68-.08.91-.24.22-.16.33-.37.33-.64 0-.2-.04-.36-.12-.48-.08-.12-.22-.23-.42-.32a5.8 5.8 0 00-.87-.29c-.62-.16-1.06-.38-1.34-.65s-.41-.62-.41-1.03c0-.3.09-.57.27-.82.18-.25.43-.44.75-.57.32-.14.68-.2 1.07-.2s.75.05 1.07.16zM137.69 108.56c-.38.26-.81.4-1.3.4s-.87-.14-1.15-.42c-.27-.28-.41-.69-.41-1.23v-3.5h-1.01v-.78h1.01v-1.31l1.01-.12v1.43h1.38l-.11.78h-1.26v3.45c0 .3.05.52.16.65s.28.2.53.2c.23 0 .48-.08.77-.23l.38.68zM142.65 103.71c.45.54.68 1.28.68 2.21 0 .6-.1 1.13-.31 1.59-.21.46-.5.81-.89 1.07s-.85.38-1.39.38c-.81 0-1.45-.27-1.9-.81-.46-.54-.68-1.28-.68-2.21 0-.6.1-1.13.31-1.59.21-.46.5-.81.89-1.07.39-.25.85-.38 1.4-.38.8 0 1.44.27 1.89.81zm-3.41 2.23c0 1.47.5 2.21 1.5 2.21s1.5-.74 1.5-2.22c0-1.47-.5-2.21-1.48-2.21-1.01-.01-1.52.73-1.52 2.22zM145.27 108.62c-.22-.22-.32-.54-.32-.94v-6.98l1.01-.12v7.08c0 .16.03.28.08.35.05.07.15.11.28.11.14 0 .26-.02.37-.07l.26.7c-.24.13-.51.2-.8.2-.37.01-.67-.1-.88-.33zM149.08 107.65c.15.15.22.33.22.54 0 .21-.07.39-.22.54-.15.15-.33.23-.55.23-.21 0-.39-.08-.54-.23a.732.732 0 01-.22-.54c0-.21.07-.39.22-.54.15-.15.33-.22.54-.22.22 0 .4.07.55.22zM50.66 115.06c.32.11.62.28.9.5l-.43.64c-.26-.17-.51-.29-.75-.37-.24-.08-.49-.12-.75-.12-.33 0-.59.07-.78.2-.19.14-.29.32-.29.55 0 .24.09.42.27.55.18.13.5.26.97.38.65.16 1.13.38 1.45.66s.48.66.48 1.14c0 .57-.22 1.01-.67 1.31s-.98.45-1.62.45c-.88 0-1.61-.25-2.19-.76l.54-.62c.49.37 1.03.56 1.63.56.38 0 .68-.08.91-.24.22-.16.34-.37.34-.64 0-.2-.04-.36-.12-.48-.08-.12-.22-.23-.42-.32s-.49-.19-.87-.29c-.62-.16-1.06-.38-1.34-.65-.27-.27-.41-.62-.41-1.04 0-.3.09-.57.27-.82.18-.25.43-.44.75-.57.32-.14.68-.2 1.07-.2.39.02.75.08 1.06.18zM57.51 118.28h-3.7c.04.64.21 1.11.48 1.41.28.3.64.45 1.08.45.28 0 .54-.04.77-.12.23-.08.48-.21.74-.39l.44.61c-.62.48-1.29.73-2.02.73-.81 0-1.44-.26-1.89-.79-.45-.53-.68-1.25-.68-2.18 0-.6.1-1.13.29-1.6.19-.47.47-.83.84-1.1.36-.26.79-.4 1.28-.4.77 0 1.36.25 1.77.76s.62 1.21.62 2.1c.01.17 0 .34-.02.52zm-.97-.82c0-.57-.11-1.01-.34-1.31-.23-.3-.57-.45-1.02-.45-.83 0-1.28.61-1.35 1.83h2.72v-.07zM62.34 120.62c-.22-.22-.32-.54-.32-.94v-6.99l1.01-.12v7.08c0 .16.03.28.08.35s.15.11.28.11c.14 0 .26-.02.37-.07l.26.7c-.24.13-.51.2-.8.2-.37.02-.67-.09-.88-.32zM66.3 112.45c.13.13.2.3.2.49 0 .2-.07.36-.2.49s-.3.19-.52.19c-.21 0-.37-.06-.51-.19a.663.663 0 01-.2-.49c0-.2.07-.36.2-.49s.3-.2.51-.2c.22 0 .39.06.52.2zm0 2.58v5.8h-1.01v-5.8h1.01zM72.88 112.7v8.13h-.89l-.1-.8c-.19.29-.43.52-.71.69-.29.17-.6.25-.96.25-.69 0-1.23-.27-1.61-.81s-.58-1.27-.58-2.19c0-.59.09-1.12.27-1.58.18-.46.45-.82.79-1.08s.75-.39 1.21-.39c.59 0 1.12.24 1.56.72v-3.04l1.02.1zm-1.65 7.24c.22-.14.43-.36.64-.64v-2.84c-.19-.25-.39-.44-.61-.57-.22-.13-.46-.19-.73-.19-.45 0-.79.19-1.04.56s-.37.93-.37 1.67c0 .75.11 1.31.34 1.67.23.37.55.55.98.55.31.01.57-.06.79-.21zM79.33 118.28h-3.7c.04.64.21 1.11.48 1.41s.64.45 1.08.45c.28 0 .54-.04.77-.12.23-.08.48-.21.74-.39l.44.61c-.62.48-1.29.73-2.02.73-.81 0-1.44-.26-1.89-.79-.45-.53-.68-1.25-.68-2.18 0-.6.1-1.13.29-1.6.19-.47.47-.83.84-1.1.36-.26.79-.4 1.28-.4.77 0 1.36.25 1.77.76.41.51.62 1.21.62 2.1 0 .17-.01.34-.02.52zm-.98-.82c0-.57-.11-1.01-.34-1.31-.23-.3-.57-.45-1.02-.45-.83 0-1.28.61-1.35 1.83h2.72v-.07zm-.49-5.44l.45.85-2.33.95-.31-.54 2.19-1.26zM88.37 112.7v8.13h-.89l-.1-.8c-.19.29-.43.52-.71.69-.29.17-.61.25-.96.25-.69 0-1.23-.27-1.61-.81-.39-.54-.58-1.27-.58-2.19 0-.59.09-1.12.28-1.58.18-.46.45-.82.79-1.08s.75-.39 1.21-.39c.59 0 1.11.24 1.56.72v-3.04l1.01.1zm-1.65 7.24c.22-.14.43-.36.64-.64v-2.84c-.19-.25-.39-.44-.61-.57-.22-.13-.46-.19-.73-.19-.45 0-.79.19-1.04.56-.25.37-.37.93-.37 1.67 0 .75.11 1.31.34 1.67.23.37.55.55.98.55.3.01.57-.06.79-.21zM94.53 115.71c.45.54.68 1.28.68 2.21 0 .6-.1 1.13-.31 1.59-.21.46-.5.81-.89 1.07s-.85.38-1.39.38c-.81 0-1.45-.27-1.9-.81-.45-.54-.68-1.28-.68-2.21 0-.6.1-1.13.31-1.59.21-.46.5-.81.89-1.07.39-.25.85-.38 1.4-.38.81 0 1.44.27 1.89.81zm-3.4 2.23c0 1.47.5 2.21 1.5 2.21s1.5-.74 1.5-2.22c0-1.47-.5-2.21-1.49-2.21-1.01-.01-1.51.74-1.51 2.22zM100.21 115.03v.77l-3.03 4.18h3.06l-.12.85h-4.08v-.76l3.01-4.18h-2.76v-.86h3.92zm-.64-2.84l.43.5-1.49 1.24h-.67l-1.5-1.24.44-.5 1.39.92 1.4-.92zM102.99 112.02l.45.85-2.33.95-.31-.54 2.19-1.26zm-.37 3.01v5.8h-1.01v-5.8h1.01zM108.97 115.03l-1.97 5.8h-1.22l-2-5.8h1.1l1.52 4.9 1.51-4.9h1.06zM113.98 120c.08.11.2.2.36.26l-.23.7c-.3-.04-.54-.12-.73-.25-.18-.13-.32-.34-.41-.62-.39.58-.96.87-1.73.87-.57 0-1.02-.16-1.35-.48s-.49-.74-.49-1.27c0-.62.22-1.09.67-1.42.44-.33 1.07-.5 1.89-.5h.89v-.43c0-.41-.1-.71-.3-.88s-.5-.26-.91-.26c-.43 0-.95.1-1.56.31l-.25-.74c.72-.26 1.39-.4 2-.4.68 0 1.19.17 1.53.5.34.33.51.81.51 1.42v2.65c-.01.25.03.42.11.54zm-1.14-.7v-1.33h-.76c-1.07 0-1.61.4-1.61 1.19 0 .35.08.61.25.78.17.18.42.26.75.26.59 0 1.04-.3 1.37-.9zM116.09 120.62c-.22-.22-.32-.54-.32-.94v-6.99l1.01-.12v7.08c0 .16.03.28.08.35s.15.11.28.11c.14 0 .26-.02.37-.07l.26.7c-.24.13-.51.2-.8.2-.36.02-.66-.09-.88-.32zM120.06 112.45c.13.13.2.3.2.49 0 .2-.07.36-.2.49s-.3.19-.52.19c-.21 0-.37-.06-.51-.19a.663.663 0 01-.2-.49c0-.2.07-.36.2-.49s.3-.2.51-.2c.22 0 .39.06.52.2zm0 2.58v5.8h-1.01v-5.8h1.01zM52.31 127.69c.34.53.52 1.27.52 2.23 0 .91-.2 1.64-.59 2.2-.4.56-.96.84-1.68.84-.65 0-1.15-.22-1.52-.66v2.75l-1.01.12v-8.14h.87l.08.78c.21-.29.47-.52.77-.68a2 2 0 01.95-.24c.72.01 1.27.27 1.61.8zm-.57 2.23c0-1.48-.44-2.22-1.31-2.22-.29 0-.55.08-.78.25-.24.17-.44.39-.62.65v2.83c.15.23.33.4.55.52s.46.18.73.18c.95.01 1.43-.73 1.43-2.21zM57.65 126.97l-.19.99c-.18-.04-.34-.07-.51-.07-.36 0-.65.13-.87.4-.22.26-.39.68-.52 1.23v3.31h-1.01v-5.8h.87l.1 1.18c.15-.43.36-.76.63-.98s.57-.33.92-.33c.21 0 .4.02.58.07zM63.11 132.83h-.87l-.08-.9c-.22.36-.47.62-.76.79-.29.17-.63.25-1.05.25-.51 0-.9-.15-1.19-.46-.29-.31-.43-.74-.43-1.31v-4.16h1.01v4.05c0 .4.07.68.21.84.14.17.37.25.68.25.56 0 1.05-.33 1.45-1v-4.14h1.01v5.79zm-1.27-8.86c.23.22.35.5.35.83s-.12.61-.35.83c-.23.22-.54.34-.9.34-.37 0-.67-.11-.9-.34-.24-.22-.35-.5-.35-.83s.12-.61.35-.83c.23-.22.54-.34.9-.34s.66.11.9.34zm-1.33.38c-.1.11-.15.26-.15.45s.05.34.15.45c.1.11.25.16.43.16s.32-.05.42-.16c.11-.11.16-.26.16-.45s-.05-.34-.15-.45-.25-.17-.43-.17c-.19 0-.33.06-.43.17zM72.17 127.38c.29.32.43.75.43 1.29v4.16h-1.01v-4.01c0-.75-.27-1.12-.81-1.12-.29 0-.53.08-.73.25-.2.16-.41.42-.64.78v4.11H68.4v-4.01c0-.75-.27-1.12-.81-1.12-.29 0-.54.08-.74.25-.2.17-.41.42-.63.77v4.11H65.2v-5.8h.87l.09.85c.43-.65.99-.98 1.67-.98.36 0 .67.09.92.28.25.18.43.44.54.77.23-.34.48-.6.75-.78.28-.18.6-.27.97-.27.49-.01.87.15 1.16.47zM78.99 130.28h-3.7c.04.64.21 1.11.48 1.41.28.3.64.45 1.08.45.28 0 .54-.04.77-.12.23-.08.48-.21.74-.39l.44.61c-.62.48-1.29.73-2.02.73-.81 0-1.44-.26-1.89-.79-.45-.53-.68-1.25-.68-2.18 0-.6.1-1.13.29-1.6.19-.47.47-.83.84-1.1.36-.26.79-.4 1.28-.4.77 0 1.36.25 1.77.76s.62 1.21.62 2.1c0 .17-.01.34-.02.52zm-.94-6.09l.43.5-1.48 1.24h-.67l-1.5-1.24.44-.5 1.39.92 1.39-.92zm-.04 5.27c0-.57-.11-1.01-.34-1.31-.23-.3-.57-.45-1.02-.45-.83 0-1.28.61-1.35 1.83h2.72v-.07zM83.72 126.97l-.19.99c-.18-.04-.34-.07-.51-.07-.36 0-.65.13-.87.4-.22.26-.39.68-.52 1.23v3.31h-1.01v-5.8h.87l.1 1.18c.15-.43.36-.76.63-.98.26-.22.57-.33.92-.33.21 0 .4.02.58.07zM88.84 127.37c.3.31.45.75.45 1.3v4.16h-1.01v-4.01c0-.41-.08-.7-.23-.87-.15-.17-.38-.25-.68-.25-.31 0-.58.09-.81.26-.23.18-.45.43-.66.76v4.11h-1.01v-5.8h.87l.09.86c.21-.31.46-.55.76-.73.3-.18.64-.26 1.01-.26.51 0 .92.16 1.22.47zM95.67 130.28h-3.7c.04.64.21 1.11.48 1.41s.64.45 1.08.45c.28 0 .54-.04.77-.12.23-.08.48-.21.74-.39l.44.61c-.62.48-1.29.73-2.02.73-.81 0-1.44-.26-1.89-.79-.45-.53-.68-1.25-.68-2.18 0-.6.1-1.13.29-1.6.19-.47.47-.83.84-1.1.36-.26.79-.4 1.28-.4.77 0 1.36.25 1.77.76.41.51.62 1.21.62 2.1 0 .17 0 .34-.02.52zm-.93-6.09l.43.5-1.48 1.24h-.67l-1.5-1.24.44-.5 1.39.92 1.39-.92zm-.05 5.27c0-.57-.11-1.01-.34-1.31-.23-.3-.57-.45-1.02-.45-.83 0-1.28.61-1.35 1.83h2.72v-.07zM102.85 125.62c.33.18.59.42.78.72.18.3.27.65.27 1.03 0 .45-.1.88-.3 1.29-.2.41-.51.85-.93 1.33s-1.05 1.14-1.9 1.99h3.31l-.12.85h-4.34v-.8c.98-1.02 1.68-1.77 2.09-2.24.41-.47.7-.88.88-1.24.18-.35.26-.73.26-1.13 0-.38-.11-.68-.33-.9-.22-.22-.51-.32-.88-.32-.3 0-.56.06-.79.19s-.47.33-.73.62l-.66-.53c.3-.37.63-.65 1-.84.37-.18.78-.28 1.23-.28.44 0 .83.09 1.16.26zM110.19 130.86c0 .4-.11.76-.32 1.08-.22.32-.52.57-.91.75s-.83.27-1.32.27c-.5 0-.94-.09-1.32-.26-.38-.18-.68-.42-.89-.74-.21-.31-.31-.67-.31-1.08 0-.45.12-.84.37-1.14.25-.31.61-.57 1.08-.77-.39-.2-.68-.44-.86-.72s-.28-.61-.28-1c0-.4.1-.74.31-1.02s.48-.5.82-.65c.34-.15.71-.22 1.09-.22.38 0 .74.07 1.08.21.34.14.62.35.83.63.21.28.32.62.32 1.02 0 .37-.1.68-.31.95-.21.26-.52.5-.95.71 1.06.42 1.57 1.08 1.57 1.98zm-1.46.95c.27-.24.4-.55.4-.93 0-.26-.05-.49-.15-.67s-.27-.34-.5-.47c-.23-.14-.55-.27-.96-.41l-.27-.1c-.37.18-.64.4-.81.67s-.26.6-.26 1 .13.72.4.94c.26.22.62.34 1.08.34s.81-.14 1.07-.37zm-1.98-5.39c-.22.2-.34.48-.34.85 0 .35.11.62.32.8.22.18.56.35 1.04.51l.19.07c.33-.19.57-.39.71-.6.15-.21.22-.47.22-.78 0-.34-.11-.62-.32-.83-.22-.21-.52-.31-.92-.31-.37-.01-.67.09-.9.29zM114.92 132.62c-.22-.22-.32-.54-.32-.94v-6.99l1.01-.12v7.08c0 .16.03.28.08.35.06.07.15.11.28.11.14 0 .26-.02.37-.07l.26.7c-.24.13-.51.2-.8.2-.37.02-.67-.09-.88-.32zM122.17 130.28h-3.7c.04.64.21 1.11.48 1.41s.64.45 1.08.45c.28 0 .54-.04.77-.12.23-.08.48-.21.74-.39l.44.61c-.62.48-1.29.73-2.02.73-.81 0-1.44-.26-1.89-.79-.45-.53-.68-1.25-.68-2.18 0-.6.1-1.13.29-1.6.19-.47.47-.83.84-1.1.36-.26.79-.4 1.28-.4.77 0 1.36.25 1.77.76.41.51.62 1.21.62 2.1 0 .17 0 .34-.02.52zm-.98-.82c0-.57-.11-1.01-.34-1.31-.23-.3-.57-.45-1.02-.45-.83 0-1.28.61-1.35 1.83h2.72v-.07zM126.74 132.56c-.38.26-.81.4-1.3.4s-.87-.14-1.15-.42c-.28-.28-.41-.69-.41-1.23v-3.5h-1.01v-.78h1.01v-1.31l1.01-.12v1.43h1.38l-.11.78h-1.26v3.45c0 .3.05.52.16.65s.28.2.53.2c.23 0 .48-.08.77-.23l.38.68z"/></g><g><path d="M359.47 178.29v7.36h-1.01v-6.28l-1.72 1.04-.44-.72 2.28-1.41h.89zM363.94 182.55l2.01 3.1h-1.22l-1.42-2.45-1.44 2.45h-1.14l2.02-3.06-1.79-2.74h1.19l1.21 2.12 1.22-2.12h1.14l-1.78 2.7zM373.94 180.19c.3.32.45.75.45 1.3v4.16h-1.01v-4.01c0-.41-.08-.7-.23-.87s-.38-.25-.68-.25c-.31 0-.58.09-.81.26-.24.18-.46.43-.66.76v4.11h-1.01v-5.8h.87l.09.86c.21-.31.46-.55.76-.73.3-.18.64-.26 1.01-.26.51 0 .92.16 1.22.47zM380.44 184.82c.08.11.2.2.36.26l-.23.7c-.3-.04-.54-.12-.73-.25-.18-.13-.32-.34-.41-.62-.39.58-.96.87-1.73.87-.57 0-1.02-.16-1.35-.48-.33-.32-.5-.74-.5-1.27 0-.62.22-1.09.67-1.42s1.07-.49 1.89-.49h.89v-.43c0-.41-.1-.7-.3-.88-.2-.18-.5-.26-.91-.26-.43 0-.95.1-1.56.31l-.25-.74c.72-.26 1.39-.4 2-.4.68 0 1.19.17 1.53.5.34.33.51.81.51 1.42v2.65c0 .24.04.42.12.53zm-1.13-.7v-1.33h-.76c-1.07 0-1.61.4-1.61 1.19 0 .34.08.61.25.78s.42.26.75.26c.58 0 1.04-.3 1.37-.9zM386.89 177.52v8.13H386l-.1-.8c-.19.29-.43.52-.72.69-.29.17-.6.25-.96.25-.69 0-1.23-.27-1.61-.81s-.58-1.27-.58-2.19c0-.59.09-1.12.28-1.58.18-.46.45-.82.79-1.08.34-.26.75-.39 1.21-.39.59 0 1.11.24 1.56.71v-3.04l1.02.11zm-1.65 7.24c.22-.14.43-.36.64-.64v-2.84c-.19-.25-.39-.44-.61-.57-.22-.13-.46-.19-.73-.19-.45 0-.79.19-1.04.56s-.37.93-.37 1.67c0 .75.11 1.31.34 1.67.23.37.55.55.98.55.3.01.57-.06.79-.21zM393.33 183.1h-3.7c.04.64.21 1.11.48 1.41.28.3.64.45 1.08.45.28 0 .54-.04.77-.12.23-.08.48-.21.74-.39l.44.61c-.62.48-1.29.73-2.02.73-.81 0-1.44-.26-1.89-.79-.45-.53-.68-1.25-.68-2.18 0-.6.1-1.13.29-1.6s.47-.83.84-1.09c.36-.26.79-.4 1.28-.4.77 0 1.36.25 1.77.76.41.51.62 1.21.62 2.1.01.16 0 .33-.02.51zm-.93-6.08l.43.5-1.49 1.24h-.67l-1.5-1.24.44-.5 1.39.92 1.4-.92zm-.04 5.26c0-.57-.11-1.01-.34-1.31-.23-.3-.57-.45-1.02-.45-.83 0-1.28.61-1.35 1.83h2.72v-.07zM395.96 185.3c0 .54-.07.96-.2 1.29-.13.32-.32.58-.58.79s-.61.41-1.06.61l-.3-.74c.29-.13.51-.26.66-.39.15-.13.27-.31.35-.54.08-.23.12-.55.12-.95v-5.51h1.01v5.44zm.01-8.03c.13.13.2.3.2.5s-.07.36-.2.49-.3.19-.52.19c-.21 0-.37-.06-.51-.19-.13-.13-.2-.29-.2-.49s.07-.36.2-.5.3-.2.51-.2a.7.7 0 01.52.2zM402.41 183.1h-3.7c.04.64.21 1.11.48 1.41.28.3.64.45 1.08.45.28 0 .54-.04.77-.12.23-.08.48-.21.74-.39l.44.61c-.62.48-1.29.73-2.02.73-.81 0-1.44-.26-1.89-.79-.45-.53-.68-1.25-.68-2.18 0-.6.1-1.13.29-1.6s.47-.83.84-1.09c.36-.26.79-.4 1.28-.4.77 0 1.36.25 1.77.76.41.51.62 1.21.62 2.1 0 .16-.01.33-.02.51zm-.98-.82c0-.57-.11-1.01-.34-1.31-.23-.3-.57-.45-1.02-.45-.83 0-1.28.61-1.35 1.83h2.72v-.07zM361.45 189.52v8.13h-.89l-.1-.8c-.19.29-.43.52-.72.69-.29.17-.6.25-.96.25-.69 0-1.23-.27-1.61-.81-.38-.54-.58-1.27-.58-2.19 0-.59.09-1.12.27-1.58s.45-.82.79-1.08c.34-.26.75-.39 1.21-.39.59 0 1.11.24 1.56.71v-3.04l1.03.11zm-1.65 7.24c.22-.14.43-.36.64-.64v-2.84c-.19-.25-.39-.44-.61-.57-.22-.13-.46-.19-.73-.19-.45 0-.79.19-1.04.56-.25.37-.37.93-.37 1.67 0 .75.11 1.31.34 1.67.23.37.55.55.98.55.3.01.57-.06.79-.21zM367.61 192.54c.45.54.68 1.28.68 2.21 0 .6-.1 1.13-.31 1.59-.21.46-.5.81-.89 1.07s-.85.38-1.39.38c-.81 0-1.45-.27-1.9-.81-.46-.54-.68-1.28-.68-2.21 0-.6.1-1.13.31-1.59.21-.46.5-.81.89-1.07.39-.25.85-.38 1.4-.38.81-.01 1.44.26 1.89.81zm-3.4 2.22c0 1.47.5 2.21 1.5 2.21s1.5-.74 1.5-2.22c0-1.47-.5-2.21-1.48-2.21-1.02 0-1.52.74-1.52 2.22zM373.28 191.85v.77l-3.02 4.18h3.06l-.12.85h-4.08v-.76l3.01-4.18h-2.76v-.86h3.91zm-.64-2.83l.43.5-1.48 1.24h-.67l-1.5-1.24.44-.5 1.39.92 1.39-.92zM375.7 189.27c.13.13.2.3.2.5s-.07.36-.2.49-.3.19-.52.19c-.21 0-.37-.06-.51-.19-.13-.13-.2-.29-.2-.49s.07-.36.2-.5.3-.2.51-.2a.7.7 0 01.52.2zm0 2.58v5.8h-1.01v-5.8h1.01zM380.72 197.39c-.38.26-.81.4-1.3.4s-.88-.14-1.15-.42-.41-.69-.41-1.23v-3.5h-1.01v-.78h1.01v-1.31l1.01-.12v1.43h1.38l-.11.78h-1.27v3.45c0 .3.05.52.16.65.11.14.28.2.53.2.23 0 .48-.08.77-.23l.39.68zM383.14 188.84l.45.85-2.33.95-.31-.54 2.19-1.26zm-.37 3.01v5.8h-1.01v-5.8h1.01zM360.36 203.85v.77l-3.02 4.18h3.06l-.12.85h-4.08v-.76l3.01-4.18h-2.76v-.86h3.91zM364.95 209.45c-.22-.22-.32-.54-.32-.94v-6.99l1.01-.12v7.08c0 .16.03.28.08.35.06.07.15.11.28.11.14 0 .26-.02.37-.07l.26.7c-.24.13-.51.2-.8.2-.37.01-.66-.1-.88-.32zM372.2 207.1h-3.7c.04.64.21 1.11.48 1.41s.64.45 1.08.45c.28 0 .54-.04.77-.12.23-.08.48-.21.74-.39l.44.61c-.62.48-1.29.73-2.02.73-.81 0-1.44-.26-1.89-.79-.45-.53-.68-1.25-.68-2.18 0-.6.1-1.13.29-1.6s.47-.83.84-1.09c.36-.26.79-.4 1.28-.4.77 0 1.36.25 1.77.76.41.51.62 1.21.62 2.1.01.16 0 .33-.02.51zm-.98-.82c0-.57-.11-1.01-.34-1.31-.23-.3-.57-.45-1.02-.45-.83 0-1.28.61-1.35 1.83h2.72v-.07zM376.77 209.39c-.38.26-.81.4-1.3.4s-.87-.14-1.15-.42c-.28-.28-.41-.69-.41-1.23v-3.5h-1.01v-.78h1.01v-1.31l1.01-.12v1.43h1.38l-.11.78h-1.26v3.45c0 .3.05.52.16.65s.28.2.53.2c.23 0 .48-.08.77-.23l.38.68zM383.24 202.29v7.36h-1.01v-6.28l-1.72 1.04-.44-.72 2.28-1.41h.89zM390.01 207.68c0 .4-.11.76-.32 1.08-.22.32-.52.57-.91.75-.39.18-.83.27-1.32.27-.5 0-.94-.09-1.32-.26-.38-.18-.68-.42-.89-.74-.21-.31-.31-.67-.31-1.08 0-.46.12-.84.37-1.14s.61-.56 1.08-.77c-.39-.2-.68-.44-.86-.72-.19-.28-.28-.61-.28-1 0-.4.1-.74.31-1.02s.48-.5.82-.65c.34-.15.71-.22 1.09-.22.38 0 .74.07 1.08.21.34.14.62.35.83.63s.32.62.32 1.02c0 .37-.1.68-.31.95-.21.26-.52.5-.95.71 1.06.42 1.57 1.08 1.57 1.98zm-1.46.95c.27-.24.4-.55.4-.94 0-.26-.05-.49-.15-.67-.1-.18-.27-.34-.5-.47a5.83 5.83 0 00-.96-.41l-.28-.1c-.37.18-.64.4-.81.67-.18.27-.26.6-.26 1s.13.72.4.94.62.33 1.08.33c.46 0 .82-.12 1.08-.35zm-1.97-5.39c-.22.2-.34.48-.34.85 0 .35.11.62.32.8s.56.35 1.04.51l.19.07c.33-.19.57-.39.72-.61.15-.21.22-.47.22-.78 0-.34-.11-.62-.32-.82-.22-.21-.52-.31-.92-.31-.39-.01-.69.09-.91.29zM394.15 202.43c.33.17.58.4.75.68.17.29.26.6.26.94 0 .45-.13.82-.39 1.11s-.61.49-1.04.59c.49.04.89.22 1.2.53.31.31.46.73.46 1.25 0 .43-.1.81-.31 1.16s-.5.61-.88.81-.82.29-1.32.29c-.45 0-.86-.08-1.23-.25s-.7-.41-.98-.74l.6-.56c.24.25.49.43.74.55.25.12.53.18.83.18.46 0 .83-.13 1.09-.39.26-.26.4-.61.4-1.05 0-.48-.12-.83-.37-1.02-.25-.2-.61-.3-1.09-.3h-.55l.12-.78h.37c.38 0 .7-.11.95-.34.25-.23.38-.55.38-.96 0-.34-.11-.62-.33-.82-.22-.2-.52-.3-.89-.3-.29 0-.55.05-.79.15-.24.1-.48.27-.73.51l-.53-.6c.62-.58 1.32-.87 2.1-.87.47-.02.86.07 1.18.23zM400.91 203.16c.41.65.62 1.59.62 2.82 0 1.23-.21 2.17-.62 2.83-.42.65-1.03.98-1.84.98s-1.43-.33-1.84-.98-.62-1.59-.62-2.83c0-1.23.21-2.17.62-2.82.41-.65 1.03-.97 1.84-.97.81-.01 1.42.32 1.84.97zm-2.91.53c-.23.47-.35 1.23-.35 2.29s.12 1.82.35 2.29c.23.47.58.71 1.06.71.47 0 .82-.24 1.06-.71.23-.47.35-1.24.35-2.29s-.12-1.81-.35-2.28c-.23-.47-.59-.71-1.06-.71-.47-.01-.83.23-1.06.7z"/></g><g><path d="M359.58 150.86c.33.18.59.42.78.72.18.3.27.65.27 1.03 0 .45-.1.88-.3 1.29-.2.41-.51.85-.93 1.33s-1.05 1.14-1.9 1.99h3.31l-.12.85h-4.35v-.8c.98-1.02 1.68-1.76 2.09-2.24.41-.47.7-.88.88-1.24.18-.35.26-.73.26-1.13 0-.38-.11-.68-.33-.9-.22-.22-.51-.32-.88-.32-.3 0-.56.06-.79.19s-.47.33-.73.62l-.66-.53c.3-.37.63-.65 1-.84.37-.18.78-.28 1.23-.28.45-.01.84.08 1.17.26zM364.62 154.96l2.01 3.1h-1.22l-1.42-2.45-1.44 2.45h-1.14l2.02-3.06-1.79-2.74h1.19l1.21 2.12 1.22-2.12h1.14l-1.78 2.7z"/></g><g><path d="M359.56 110.26c.33.17.58.4.75.68.17.29.26.6.26.94 0 .45-.13.82-.39 1.11s-.61.49-1.04.59c.49.04.89.22 1.2.53.31.31.46.73.46 1.25 0 .43-.1.81-.31 1.16s-.5.61-.88.81c-.38.19-.82.29-1.32.29-.45 0-.86-.08-1.23-.25s-.7-.41-.98-.74l.61-.56c.24.25.49.43.74.55.25.12.53.18.83.18.46 0 .82-.13 1.09-.39.26-.26.4-.61.4-1.05 0-.48-.12-.83-.37-1.02-.25-.2-.61-.3-1.09-.3h-.55l.12-.78h.37c.38 0 .7-.11.95-.34.25-.23.38-.55.38-.96 0-.34-.11-.62-.33-.82-.22-.2-.52-.3-.89-.3-.29 0-.55.05-.79.15s-.48.27-.73.51l-.53-.6c.62-.58 1.32-.87 2.1-.87.45-.03.84.06 1.17.23zM364.67 114.37l2.01 3.1h-1.22l-1.42-2.45-1.44 2.45h-1.14l2.02-3.06-1.79-2.74h1.19l1.21 2.12 1.22-2.12h1.14l-1.78 2.7z"/></g><g><path class="st117" d="M41.58 130.53s-14.79 2.82-13.82 19.29M29.83 147.76l-2.03 2.34-2.3-1.99"/></g><g><path class="st11" d="M26.09 162.34c.28.16.49.37.64.64s.22.57.22.92c0 .41-.08.79-.24 1.16-.16.36-.41.77-.75 1.21-.35.45-.88 1.08-1.6 1.9h2.74l-.11.74h-3.62v-.7c.77-.89 1.34-1.57 1.7-2.03.36-.46.6-.86.74-1.19s.21-.68.21-1.04c0-.35-.09-.63-.27-.82s-.42-.29-.71-.29c-.25 0-.47.06-.66.17s-.38.29-.58.54l-.56-.43c.49-.67 1.11-1.01 1.87-1.01.37 0 .7.08.98.23zM31.77 166.08c.21.29.32.64.32 1.06 0 .37-.09.7-.26.99-.17.29-.42.51-.75.67s-.7.24-1.12.24c-.42 0-.79-.08-1.1-.23-.32-.16-.56-.38-.73-.67-.17-.29-.25-.61-.25-.98 0-.83.42-1.42 1.27-1.78-.36-.19-.62-.41-.78-.66a1.6 1.6 0 01-.24-.89c0-.36.08-.67.25-.93.17-.26.39-.46.67-.59.28-.13.6-.2.94-.2.53 0 .98.15 1.33.44.36.29.54.71.54 1.24 0 .34-.09.63-.26.88s-.45.47-.83.67c.45.21.79.45 1 .74zm-.9 1.95c.21-.2.32-.5.32-.9 0-.35-.09-.63-.27-.82-.18-.2-.49-.39-.94-.58l-.28-.11c-.32.17-.55.37-.71.61-.15.24-.22.54-.22.9 0 .4.11.7.32.9.21.2.51.3.89.3s.68-.09.89-.3zm-1.61-5c-.18.18-.27.44-.27.81 0 .3.08.53.23.7.15.17.4.33.77.48l.23.1c.28-.19.48-.38.6-.58s.18-.43.18-.71c0-.35-.09-.62-.26-.79s-.42-.26-.73-.26c-.32-.01-.57.08-.75.25zM43.2 160.29c.27.15.48.35.63.61.15.26.22.54.22.84 0 .43-.11.77-.33 1.04-.22.26-.53.44-.94.54.44.04.79.2 1.06.48.27.28.4.67.4 1.17 0 .38-.08.72-.26 1.03-.17.31-.41.55-.73.73s-.69.27-1.1.27c-.39 0-.73-.07-1.03-.22-.3-.15-.58-.38-.83-.69l.54-.46c.21.23.41.39.62.5.2.1.43.16.69.16.37 0 .66-.12.88-.35.22-.24.32-.56.32-.98 0-.44-.11-.76-.32-.96-.22-.2-.53-.29-.94-.29h-.42l.11-.67h.28c.33 0 .61-.1.82-.31.22-.21.32-.5.32-.89 0-.33-.09-.59-.27-.78-.18-.19-.44-.28-.76-.28-.23 0-.45.05-.65.14-.2.09-.4.24-.59.44l-.47-.48c.52-.53 1.12-.8 1.8-.8.36-.01.68.06.95.21zM48.84 160.94c.35.58.52 1.44.52 2.59 0 1.16-.17 2.03-.52 2.6-.35.58-.86.87-1.53.87-.68 0-1.19-.29-1.54-.87-.35-.58-.52-1.45-.52-2.6 0-2.31.69-3.46 2.06-3.46.67 0 1.18.29 1.53.87zm-2.38.46c-.18.42-.28 1.13-.28 2.12 0 1 .09 1.71.28 2.13.18.42.47.63.85.63s.66-.21.85-.63c.18-.42.27-1.13.27-2.13s-.09-1.71-.27-2.13c-.18-.42-.46-.63-.85-.63-.39.01-.67.22-.85.64zM60.82 155.48c.27.15.48.35.63.61.15.26.22.54.22.85 0 .43-.11.77-.33 1.04-.22.26-.53.44-.94.54.44.04.79.2 1.06.48s.4.67.4 1.17c0 .38-.08.72-.25 1.03s-.41.55-.73.73c-.32.18-.68.27-1.1.27-.39 0-.73-.08-1.04-.23-.3-.15-.58-.38-.83-.68l.54-.46c.21.23.41.39.62.5.2.1.43.15.68.15.37 0 .66-.12.88-.35.22-.24.33-.56.33-.98 0-.44-.11-.76-.33-.96-.22-.2-.53-.29-.93-.29h-.42l.11-.67h.28c.33 0 .61-.1.83-.31.22-.21.32-.5.32-.89 0-.33-.09-.59-.27-.78-.18-.19-.44-.28-.75-.28-.23 0-.45.05-.65.14-.2.09-.39.24-.59.44l-.47-.48c.52-.53 1.12-.8 1.8-.8.34-.01.66.06.93.21zM65.33 155.48c.27.15.48.35.63.61.15.26.22.54.22.85 0 .43-.11.77-.33 1.04-.22.26-.53.44-.94.54.44.04.79.2 1.06.48s.4.67.4 1.17c0 .38-.08.72-.25 1.03s-.41.55-.73.73c-.32.18-.68.27-1.1.27-.39 0-.73-.08-1.04-.23-.3-.15-.58-.38-.83-.68l.54-.46c.21.23.41.39.62.5.2.1.43.15.68.15.37 0 .66-.12.88-.35.22-.24.33-.56.33-.98 0-.44-.11-.76-.33-.96-.22-.2-.53-.29-.93-.29h-.42l.11-.67h.28c.33 0 .61-.1.83-.31.22-.21.32-.5.32-.89 0-.33-.09-.59-.27-.78-.18-.19-.44-.28-.75-.28-.23 0-.45.05-.65.14-.2.09-.39.24-.59.44l-.47-.48c.52-.53 1.12-.8 1.8-.8.34-.01.66.06.93.21zM78.09 154.89c.27.15.48.35.63.61.15.26.22.54.22.84 0 .43-.11.77-.33 1.04-.22.26-.53.44-.94.54.44.04.79.2 1.06.48.27.28.4.67.4 1.17 0 .38-.08.72-.25 1.03s-.41.55-.73.73c-.32.18-.68.27-1.1.27-.39 0-.73-.07-1.04-.22-.3-.15-.58-.38-.83-.68l.54-.46c.21.23.41.39.62.49.2.1.43.16.68.16.37 0 .66-.12.88-.36s.33-.56.33-.97c0-.44-.11-.76-.33-.96-.22-.2-.53-.29-.93-.29h-.42l.11-.67h.28c.33 0 .61-.1.83-.31.22-.21.32-.5.32-.89 0-.33-.09-.59-.27-.78-.18-.19-.44-.28-.75-.28-.23 0-.45.05-.65.14-.2.09-.39.24-.59.44l-.47-.48c.52-.53 1.12-.8 1.8-.8.34-.01.66.06.93.21zM82.6 154.89c.27.15.48.35.63.61.15.26.22.54.22.84 0 .43-.11.77-.33 1.04-.22.26-.53.44-.94.54.44.04.79.2 1.06.48.27.28.4.67.4 1.17 0 .38-.08.72-.25 1.03s-.41.55-.73.73c-.32.18-.68.27-1.1.27-.39 0-.73-.07-1.04-.22-.3-.15-.58-.38-.83-.68l.54-.46c.21.23.41.39.62.49.2.1.43.16.68.16.37 0 .66-.12.88-.36s.33-.56.33-.97c0-.44-.11-.76-.33-.96-.22-.2-.53-.29-.93-.29h-.42l.11-.67h.28c.33 0 .61-.1.83-.31.22-.21.32-.5.32-.89 0-.33-.09-.59-.27-.78-.18-.19-.44-.28-.75-.28-.23 0-.45.05-.65.14-.2.09-.39.24-.59.44l-.47-.48c.52-.53 1.12-.8 1.8-.8.34-.01.66.06.93.21zM95.14 150.66c.27.15.48.35.63.61.15.26.22.54.22.84 0 .43-.11.77-.33 1.04-.22.26-.53.44-.94.54.44.04.79.2 1.06.48.27.28.4.67.4 1.17 0 .38-.08.72-.26 1.03-.17.31-.41.55-.73.73s-.69.27-1.1.27c-.39 0-.73-.07-1.03-.22-.3-.15-.58-.38-.83-.69l.54-.46c.21.23.41.39.62.5.2.1.43.16.69.16.37 0 .66-.12.88-.35.22-.24.32-.56.32-.98 0-.44-.11-.76-.32-.96-.22-.2-.53-.29-.94-.29h-.42l.11-.67h.28c.33 0 .61-.1.82-.31.22-.21.32-.5.32-.89 0-.33-.09-.59-.27-.78-.18-.19-.44-.28-.76-.28-.23 0-.45.05-.65.14-.2.09-.4.24-.59.44l-.47-.48c.52-.53 1.12-.8 1.8-.8.36-.01.68.06.95.21zM100.4 153.08c.25.16.45.4.59.72.15.32.22.71.22 1.17 0 .49-.08.92-.25 1.29s-.39.64-.69.83c-.29.19-.63.29-1.01.29-.71 0-1.24-.28-1.58-.84s-.5-1.35-.5-2.35c0-.77.09-1.43.29-1.99.19-.56.46-.99.82-1.29.36-.3.77-.45 1.25-.45.47 0 .88.14 1.24.41l-.35.57c-.28-.19-.57-.28-.87-.28-.43 0-.78.23-1.04.68s-.4 1.08-.43 1.88c.38-.57.87-.86 1.46-.86.32-.02.6.06.85.22zm-.35 3.15c.18-.29.27-.71.27-1.25 0-.51-.08-.89-.25-1.12s-.4-.35-.7-.35c-.25 0-.48.08-.7.25-.22.17-.4.4-.56.69.01.77.11 1.33.29 1.68.18.35.47.53.87.53.34.01.6-.14.78-.43zM112.6 152.71c.27.15.48.35.63.61.15.26.22.54.22.84 0 .43-.11.77-.33 1.04-.22.26-.53.44-.94.54.44.04.79.2 1.06.48.27.28.4.67.4 1.17 0 .38-.08.72-.25 1.03s-.41.55-.73.73-.69.27-1.1.27c-.39 0-.73-.07-1.04-.22-.3-.15-.58-.38-.83-.68l.54-.46c.21.23.41.39.62.49.2.1.43.16.68.16.37 0 .66-.12.88-.36.22-.24.33-.56.33-.97 0-.44-.11-.76-.33-.96-.22-.2-.53-.29-.93-.29h-.42l.11-.67h.28c.33 0 .61-.1.83-.31s.33-.5.33-.89c0-.33-.09-.59-.28-.78s-.43-.28-.75-.28c-.23 0-.45.05-.65.14-.2.09-.4.24-.6.44l-.47-.48c.52-.53 1.12-.8 1.8-.8.34-.02.66.06.94.21zM117.94 153.29h-2.34v2c.31-.19.64-.28.98-.28.51 0 .93.19 1.24.56.31.37.47.89.47 1.55 0 .45-.09.84-.27 1.19-.18.35-.43.62-.75.81s-.69.29-1.12.29c-.38 0-.72-.07-1.01-.22s-.56-.36-.82-.65l.53-.48c.19.21.39.36.59.46.2.1.43.16.69.16.39 0 .69-.13.9-.41.21-.27.32-.66.32-1.16 0-.95-.36-1.43-1.08-1.43-.16 0-.31.02-.44.07-.13.04-.28.11-.45.21h-.65v-3.36h3.32l-.11.69zM129.87 152.12c.27.15.48.35.63.61.15.26.22.54.22.85 0 .43-.11.77-.33 1.04-.22.26-.53.44-.94.54.44.04.79.2 1.06.48s.4.67.4 1.17c0 .38-.08.72-.26 1.03-.17.31-.41.55-.73.73-.32.18-.69.27-1.11.27-.39 0-.73-.08-1.03-.23-.3-.15-.58-.38-.83-.68l.54-.46c.21.23.41.39.62.5s.43.15.69.15c.37 0 .66-.12.88-.35.22-.24.32-.56.32-.98 0-.44-.11-.76-.32-.96-.22-.2-.53-.29-.94-.29h-.42l.11-.67h.28c.33 0 .61-.1.82-.31s.33-.5.33-.89c0-.33-.09-.59-.27-.78-.18-.19-.44-.28-.76-.28-.23 0-.45.05-.64.14-.2.09-.4.24-.6.44l-.47-.48c.52-.53 1.12-.8 1.8-.8.36-.02.68.06.95.21zM135.21 152.7h-2.34v2c.31-.19.64-.28.98-.28.51 0 .93.19 1.24.56.31.37.47.89.47 1.55 0 .45-.09.84-.27 1.19-.18.35-.43.62-.75.81s-.69.29-1.12.29c-.38 0-.72-.07-1.01-.22s-.56-.36-.82-.65l.53-.48c.19.21.39.36.59.47.2.1.43.15.69.15.39 0 .69-.13.9-.4.21-.27.32-.66.32-1.17 0-.95-.36-1.43-1.08-1.43-.16 0-.31.02-.44.06-.13.04-.28.11-.45.21H132V152h3.32l-.11.7zM148.24 148.74v.72h-.76v1.65h-.86v-1.65H144v-.65l1.79-4.51.76.29-1.63 4.15h1.71l.09-1.82h.76v1.82h.76zM152.64 145.18c.35.58.52 1.44.52 2.59 0 1.16-.17 2.03-.52 2.6-.35.58-.86.87-1.53.87-.68 0-1.19-.29-1.54-.87-.35-.58-.52-1.45-.52-2.6 0-2.31.69-3.46 2.06-3.46.67 0 1.18.29 1.53.87zm-2.39.46c-.18.42-.27 1.13-.27 2.12 0 1 .09 1.71.27 2.13.18.42.47.63.86.63.38 0 .66-.21.84-.63s.28-1.13.28-2.13-.09-1.71-.27-2.13c-.18-.42-.46-.63-.85-.63s-.68.22-.86.64zM165.82 142.61v.72h-.76v1.65h-.86v-1.65h-2.62v-.65l1.79-4.51.76.29-1.63 4.15h1.71l.09-1.82h.76v1.82h.76zM169.92 138.99h-2.34v2c.31-.19.64-.28.98-.28.51 0 .93.19 1.24.56.31.37.47.89.47 1.55 0 .45-.09.84-.26 1.19-.18.35-.43.62-.75.81-.32.19-.69.29-1.12.29-.38 0-.71-.07-1-.22s-.57-.36-.83-.65l.53-.48c.19.21.39.36.59.47s.43.16.69.16c.39 0 .69-.13.9-.41s.32-.66.32-1.17c0-.95-.36-1.43-1.08-1.43-.16 0-.31.02-.44.06-.13.04-.28.11-.45.21h-.65v-3.36h3.32l-.12.7zM182.95 135.89v.72h-.76v1.65h-.86v-1.65h-2.62v-.65l1.79-4.51.76.29-1.63 4.15h1.71l.09-1.82h.76v1.82h.76zM187.1 132.15c.34.46.5 1.11.5 1.95 0 .89-.12 1.61-.36 2.17s-.6 1.01-1.08 1.35c-.48.34-1.11.62-1.89.85l-.2-.66c.81-.25 1.43-.59 1.85-1.01.42-.42.67-1.01.73-1.76-.17.24-.37.43-.59.57-.23.14-.49.21-.78.21-.31 0-.59-.09-.85-.26s-.47-.42-.62-.74-.23-.7-.23-1.13c0-.47.09-.87.26-1.2.17-.33.41-.59.71-.76.3-.17.64-.26 1.02-.26.69-.01 1.19.22 1.53.68zm-.42 2.14c.01-.77-.07-1.31-.24-1.64-.17-.33-.45-.5-.84-.5-.35 0-.62.13-.81.38s-.29.64-.29 1.16c0 .47.09.83.27 1.08.18.25.43.37.74.37.46 0 .85-.28 1.17-.85z"/><g><path class="st11" d="M199.56 122.93h-2.34v2c.31-.19.64-.28.98-.28.51 0 .93.19 1.24.56.31.37.47.89.47 1.55 0 .45-.09.84-.26 1.19-.18.35-.43.62-.75.81-.32.19-.69.29-1.12.29-.38 0-.71-.07-1-.22s-.57-.36-.83-.65l.53-.48c.19.21.39.36.59.47s.43.16.69.16c.39 0 .69-.13.9-.41s.32-.66.32-1.17c0-.95-.36-1.43-1.08-1.43-.16 0-.31.02-.44.06-.13.04-.28.11-.45.21h-.65v-3.36h3.32l-.12.7zM204.07 124.76c.25.16.45.4.59.72.15.32.22.71.22 1.17 0 .49-.08.92-.25 1.29s-.39.64-.69.83c-.29.19-.63.28-1.01.28-.71 0-1.24-.28-1.58-.84s-.5-1.35-.5-2.36c0-.77.09-1.43.29-1.99.19-.56.46-.99.82-1.29.36-.3.77-.45 1.25-.45.47 0 .88.14 1.24.41l-.35.57c-.28-.19-.57-.28-.87-.28-.43 0-.78.23-1.04.68s-.4 1.08-.43 1.88c.38-.57.87-.86 1.46-.86.32 0 .6.08.85.24zm-.35 3.15c.18-.29.27-.71.27-1.25 0-.51-.08-.89-.25-1.12s-.4-.35-.7-.35c-.25 0-.48.08-.7.25-.22.17-.4.4-.56.69.01.77.11 1.33.29 1.68.18.35.47.53.87.53.34.01.6-.14.78-.43z"/></g><g><path class="st11" d="M216.79 114.4c.25.16.45.4.6.72.15.32.22.71.22 1.17 0 .49-.08.92-.25 1.29s-.39.64-.69.83c-.29.19-.63.29-1.01.29-.71 0-1.24-.28-1.57-.85-.34-.56-.5-1.35-.5-2.35 0-.77.1-1.43.28-1.99.19-.56.46-.99.82-1.29.36-.3.77-.45 1.25-.45.47 0 .88.14 1.24.41l-.35.57c-.28-.19-.57-.28-.87-.28-.43 0-.78.23-1.03.68-.26.45-.4 1.08-.44 1.88.38-.57.87-.86 1.46-.86.31-.01.59.07.84.23zm-.35 3.15c.18-.29.26-.71.26-1.25 0-.51-.08-.89-.25-1.12a.818.818 0 00-.69-.35c-.25 0-.48.08-.69.25-.22.17-.41.4-.57.69.01.77.11 1.33.29 1.68.18.35.47.53.87.53.34.01.6-.14.78-.43zM221 111.98c.27.15.48.35.63.61.15.26.22.54.22.85 0 .43-.11.77-.33 1.04-.22.26-.53.44-.94.54.44.04.79.2 1.06.48s.4.67.4 1.17c0 .38-.08.72-.26 1.03-.17.31-.41.55-.73.73-.32.18-.69.27-1.11.27-.39 0-.73-.08-1.03-.23-.3-.15-.58-.38-.83-.68l.54-.46c.21.23.41.39.62.5s.43.15.69.15c.37 0 .66-.12.88-.35.22-.24.32-.56.32-.98 0-.44-.11-.76-.32-.96-.22-.2-.53-.29-.94-.29h-.42l.11-.67h.28c.33 0 .61-.1.82-.31s.33-.5.33-.89c0-.33-.09-.59-.27-.78-.18-.19-.44-.28-.76-.28-.23 0-.45.05-.64.14-.2.09-.4.24-.6.44l-.47-.48c.52-.53 1.12-.8 1.8-.8.36-.01.68.06.95.21z"/></g><g><path class="st11" d="M233.81 106.15c.25.16.45.4.6.72.15.32.22.71.22 1.17 0 .49-.08.92-.25 1.29-.16.36-.39.64-.68.83-.29.19-.63.28-1.01.28-.71 0-1.24-.28-1.57-.84-.34-.56-.5-1.35-.5-2.36 0-.77.09-1.43.28-1.99s.46-.99.82-1.29c.36-.3.78-.45 1.25-.45s.88.14 1.24.41l-.35.57c-.28-.19-.57-.28-.87-.28-.43 0-.78.23-1.04.68s-.4 1.08-.44 1.88c.38-.57.87-.86 1.46-.86.31 0 .59.08.84.24zm-.35 3.16c.18-.29.27-.71.27-1.25 0-.51-.08-.89-.25-1.12s-.4-.35-.69-.35c-.25 0-.48.08-.7.25-.22.17-.4.4-.56.69.01.77.11 1.33.29 1.68s.47.53.87.53c.33 0 .6-.14.77-.43zM239.31 107.48c.21.29.32.64.32 1.06 0 .37-.09.7-.26.99-.17.29-.42.51-.75.67-.32.16-.7.24-1.12.24-.42 0-.79-.08-1.1-.24-.32-.16-.56-.38-.73-.66-.17-.29-.25-.61-.25-.98 0-.83.42-1.42 1.27-1.78-.36-.19-.62-.41-.78-.66a1.6 1.6 0 01-.24-.89c0-.36.08-.67.25-.93.17-.26.39-.46.67-.59s.59-.2.94-.2c.53 0 .98.15 1.33.44s.54.71.54 1.24c0 .34-.09.63-.26.88s-.45.47-.83.67c.45.21.78.46 1 .74zm-.9 1.96c.21-.2.32-.5.32-.89 0-.35-.09-.63-.27-.83-.18-.2-.49-.39-.94-.57l-.28-.11c-.32.17-.56.37-.71.61-.15.24-.23.54-.23.9 0 .4.11.7.32.9s.51.3.89.3.68-.11.9-.31zm-1.61-5c-.18.18-.27.44-.27.81 0 .3.07.53.22.7.15.17.41.33.77.47l.23.1c.28-.19.48-.38.59-.58.12-.2.18-.43.18-.71 0-.35-.09-.62-.26-.79-.17-.18-.42-.27-.73-.27s-.55.09-.73.27z"/></g><g><path class="st11" d="M251.47 100.7v.66l-2.29 6.13-.81-.26 2.2-5.81h-2.68v-.72h3.58zM255.87 101.46c.35.58.52 1.44.52 2.59 0 1.16-.17 2.03-.52 2.61-.35.58-.86.86-1.53.86-.68 0-1.19-.29-1.54-.87s-.52-1.45-.52-2.6c0-2.31.69-3.46 2.06-3.46.67 0 1.18.29 1.53.87zm-2.39.47c-.18.42-.27 1.13-.27 2.12 0 1 .09 1.71.27 2.13.18.42.47.63.86.63.38 0 .66-.21.84-.63s.28-1.13.28-2.13-.09-1.71-.27-2.13c-.18-.42-.46-.63-.85-.63s-.67.21-.86.64z"/></g><g><path class="st11" d="M268.74 100.7v.66l-2.29 6.13-.81-.26 2.2-5.81h-2.68v-.72h3.58zM273.14 101.46c.35.58.52 1.44.52 2.59 0 1.16-.17 2.03-.52 2.61-.35.58-.86.86-1.53.86-.68 0-1.19-.29-1.54-.87s-.52-1.45-.52-2.6c0-2.31.69-3.46 2.06-3.46.67 0 1.18.29 1.53.87zm-2.38.47c-.18.42-.27 1.13-.27 2.12 0 1 .09 1.71.27 2.13.18.42.47.63.86.63.38 0 .66-.21.84-.63s.28-1.13.28-2.13-.09-1.71-.27-2.13c-.18-.42-.46-.63-.85-.63s-.68.21-.86.64z"/></g><g><path class="st11" d="M286.67 99.68v.66l-2.29 6.13-.81-.26 2.2-5.81h-2.68v-.72h3.58zM289.87 99.68v6.69h-.89v-5.75l-1.39.94-.41-.6 1.9-1.28h.79z"/></g><g><path class="st11" d="M303.63 96.46v.66l-2.29 6.13-.81-.26 2.2-5.81h-2.68v-.72h3.58zM306.9 96.58c.27.15.48.35.63.61.15.26.22.54.22.84 0 .43-.11.77-.33 1.04s-.53.44-.94.54c.44.04.79.2 1.06.48.27.28.4.67.4 1.17 0 .38-.08.72-.25 1.03s-.41.55-.73.73c-.32.18-.68.27-1.1.27-.39 0-.73-.07-1.04-.23-.3-.15-.58-.38-.83-.68l.54-.46c.21.23.41.39.62.5.2.1.43.16.68.16.37 0 .66-.12.88-.35.22-.24.33-.56.33-.98 0-.44-.11-.76-.33-.96s-.53-.29-.93-.29h-.42l.11-.67h.28c.33 0 .61-.1.83-.31.22-.21.32-.5.32-.89 0-.33-.09-.59-.27-.78-.18-.19-.44-.28-.75-.28-.23 0-.45.05-.65.14-.2.09-.39.24-.59.44l-.47-.48c.52-.53 1.12-.8 1.8-.8.34-.02.66.06.93.21z"/></g><g><path class="st11" d="M320.68 92.31v.66l-2.29 6.13-.81-.26 2.2-5.81h-2.68v-.72h3.58zM324.7 94.84c.25.16.45.4.59.72s.22.71.22 1.17c0 .49-.08.92-.25 1.29s-.39.64-.69.83c-.29.19-.63.28-1.01.28-.71 0-1.24-.28-1.58-.84s-.5-1.35-.5-2.35c0-.77.09-1.43.29-1.99.19-.56.46-.99.82-1.29.36-.3.77-.45 1.25-.45.47 0 .88.14 1.24.41l-.35.57c-.28-.19-.57-.28-.87-.28-.43 0-.78.23-1.04.68s-.4 1.08-.43 1.88c.38-.57.87-.86 1.46-.86.32-.01.6.07.85.23zm-.35 3.16c.18-.29.27-.71.27-1.25 0-.51-.08-.89-.25-1.12s-.4-.35-.7-.35c-.25 0-.48.08-.7.25-.22.17-.4.4-.56.69.01.77.11 1.33.29 1.68.18.35.47.53.87.53.34 0 .6-.14.78-.43z"/></g><g><path class="st11" d="M337.93 88.97v.66l-2.29 6.13-.81-.26 2.2-5.81h-2.68v-.72h3.58zM342.48 92.83c.21.29.32.64.32 1.06 0 .37-.09.7-.26.99s-.42.51-.75.67c-.32.16-.7.24-1.12.24-.42 0-.79-.08-1.1-.23s-.56-.38-.73-.67-.26-.61-.26-.98c0-.83.42-1.42 1.27-1.78-.36-.19-.62-.41-.78-.66s-.24-.54-.24-.89c0-.36.08-.67.25-.93.17-.26.39-.46.68-.59s.6-.2.94-.2c.53 0 .98.15 1.33.44s.54.71.54 1.24c0 .34-.09.63-.26.88s-.45.47-.83.67c.45.2.79.45 1 .74zm-.9 1.95c.21-.2.32-.5.32-.9 0-.35-.09-.63-.26-.83-.18-.2-.49-.39-.95-.57l-.28-.11c-.32.17-.55.37-.71.61-.15.24-.22.54-.22.9 0 .4.11.7.32.9.21.2.51.3.89.3s.68-.1.89-.3zm-1.61-5c-.18.18-.27.44-.27.81 0 .3.08.53.23.7.15.17.4.33.76.48l.23.1c.28-.19.48-.38.6-.58.12-.2.17-.43.17-.71 0-.35-.09-.62-.26-.79-.17-.18-.42-.27-.73-.27-.3 0-.55.08-.73.26z"/></g></g><path class="st118" d="M347.7 175.14h5v40.59h-5"/><path class="st118" d="M347.7 134.55h5v40.59h-5M347.7 93.96h5v40.59h-5"/><g><path class="st11" d="M210.94 124.22h13.89v10.33h-13.89zM228.3 115.91h13.69v18.63H228.3zM245.45 112.98h13.89v21.56h-13.89zM262.8 112.98h13.89v21.56H262.8zM280.16 111.97h13.69v22.57h-13.69zM297.31 108.83H311v25.71h-13.69zM314.47 104.68h13.89v29.86h-13.89zM331.82 101.34h13.69v33.2h-13.69z"/></g><g><path class="st26" d="M38.19 172.5h13.89v2.02H38.19zM55.55 167.64h13.69v6.88H55.55zM72.7 167.14h13.89v7.39H72.7zM90.06 162.89h13.89v11.64H90.06zM107.41 164.91h13.69v9.62h-13.69zM124.57 164.3h13.69v10.22h-13.69zM141.72 156.71h13.89v17.82h-13.89zM159.07 150.64h13.89v23.89h-13.89zM176.43 143.85h13.69v30.67h-13.69zM193.58 134.54h13.89v39.99h-13.89zM210.94 134.54h13.89v39.99h-13.89zM228.3 134.54h13.69v39.99H228.3zM245.45 134.54h13.89v39.99h-13.89zM262.81 134.54h13.89v39.99h-13.89zM280.16 134.54h13.69v39.99h-13.69zM297.31 134.54H311v39.99h-13.69zM314.47 134.54h13.89v39.99h-13.89zM331.82 134.54h13.69v39.99h-13.69z"/></g><g><path class="st24" d="M20.84 174.53h13.89v41.2H20.84zM38.19 174.53h13.89v41.2H38.19zM55.55 174.53h13.69v41.2H55.55zM72.7 174.53h13.89v41.2H72.7zM90.06 174.53h13.89v41.2H90.06zM107.41 174.53h13.69v41.2h-13.69zM124.57 174.53h13.69v41.2h-13.69zM141.72 174.53h13.89v41.2h-13.89zM159.07 174.53h13.89v41.2h-13.89zM176.43 174.53h13.69v41.2h-13.69zM193.58 174.53h13.89v41.2h-13.89zM210.94 174.53h13.89v41.2h-13.89zM228.3 174.53h13.69v41.2H228.3zM245.45 174.53h13.89v41.2h-13.89zM262.81 174.53h13.89v41.2h-13.89zM280.16 174.53h13.69v41.2h-13.69zM297.31 174.53H311v41.2h-13.69zM314.47 174.53h13.89v41.2h-13.89zM331.82 174.53h13.69v41.2h-13.69z"/></g><g class="st5"><path d="M4.81 12.91c0 1.18-.28 2.08-.84 2.68s-1.36 1.07-2.41 1.42L1 15.49c.47-.18.82-.39 1.06-.62.24-.23.4-.5.49-.82.09-.31.13-.72.13-1.22V3.47h2.13v9.44zM13.68 13.02c.1.15.26.27.49.36l-.43 1.36c-.48-.04-.87-.16-1.18-.35-.3-.19-.54-.49-.7-.88-.29.43-.65.74-1.08.95-.43.21-.91.31-1.45.31-.84 0-1.51-.24-2-.72s-.74-1.11-.74-1.89c0-.92.33-1.62 1-2.1.67-.48 1.62-.73 2.86-.73h1.06v-.48c0-.54-.13-.93-.38-1.14-.25-.22-.65-.33-1.21-.33-.62 0-1.37.15-2.24.45l-.47-1.4c1.06-.41 2.08-.61 3.07-.61 2.17 0 3.25.97 3.25 2.91v3.55c0 .34.05.58.15.74zm-2.17-.78v-1.71h-.85c-1.32 0-1.98.49-1.98 1.47 0 .41.1.72.3.94.2.22.5.34.9.34.69 0 1.24-.35 1.63-1.04zM18.06 2.45v12.08h-2.05V2.67l2.05-.22zm5.07 3.61l-2.82 3.73 3.09 4.74h-2.35L18.14 9.9l2.83-3.84h2.16zM33.58 5.95l-.35 1.98c-.26-.06-.51-.1-.75-.1-.5 0-.9.18-1.18.54s-.52.9-.69 1.64v4.51h-2.05V6.06h1.78l.19 1.66c.2-.61.5-1.07.88-1.4.38-.33.83-.49 1.33-.49.3.01.58.05.84.12zM40.75 7.02c.7.79 1.05 1.89 1.05 3.27 0 .89-.16 1.67-.48 2.34-.32.68-.78 1.2-1.38 1.58-.6.37-1.31.56-2.13.56-1.25 0-2.22-.4-2.93-1.19-.7-.79-1.06-1.89-1.06-3.29 0-.89.16-1.66.48-2.34a3.7 3.7 0 011.38-1.57c.6-.37 1.31-.56 2.14-.56 1.26 0 2.23.4 2.93 1.2zm-4.76 3.27c0 1 .15 1.74.46 2.22.3.47.76.71 1.37.71s1.06-.24 1.37-.72c.3-.48.46-1.22.46-2.21s-.15-1.73-.46-2.2-.75-.71-1.35-.71c-1.23 0-1.85.97-1.85 2.91zM49.4 6.83l-.8 1.2c-.73-.46-1.44-.69-2.13-.69-.41 0-.72.08-.94.23-.22.15-.34.36-.34.62 0 .19.05.35.14.48.1.13.27.25.52.36.25.11.62.24 1.11.38.92.25 1.6.57 2.04.98.44.41.66.97.66 1.7 0 .84-.34 1.5-1.02 1.98-.68.47-1.53.71-2.54.71-.69 0-1.33-.11-1.9-.32-.57-.21-1.06-.51-1.48-.88l1.02-1.15c.74.55 1.5.83 2.3.83.46 0 .82-.09 1.1-.27.27-.18.41-.43.41-.75 0-.25-.05-.44-.15-.58-.1-.14-.28-.27-.54-.38-.26-.11-.67-.25-1.22-.41-.86-.23-1.5-.56-1.9-.98-.41-.42-.61-.95-.61-1.58 0-.47.14-.89.41-1.26s.66-.67 1.15-.88 1.06-.32 1.7-.32a4.58 4.58 0 013.01.98zM56.18 14.13c-.3.21-.63.37-1 .48-.37.11-.74.16-1.13.16-.83-.01-1.46-.25-1.9-.71-.43-.46-.65-1.15-.65-2.06V7.54h-1.33V6.06h1.33V4.19l2.05-.24v2.11h1.97l-.21 1.47h-1.76v4.42c0 .42.07.71.22.9.14.18.37.27.68.27.31 0 .65-.1 1.01-.3l.72 1.31zM57.65 14.2c-.37-.38-.55-.91-.55-1.61V2.67l2.05-.22v10.08c0 .39.16.59.48.59.16 0 .32-.03.48-.08l.43 1.44c-.43.19-.88.29-1.36.29-.65 0-1.16-.19-1.53-.57zM68.22 13.02c.1.15.26.27.49.36l-.43 1.36c-.48-.04-.87-.16-1.18-.35-.3-.19-.54-.49-.7-.88-.29.43-.65.74-1.08.95-.43.21-.91.31-1.45.31-.84 0-1.51-.24-2-.72s-.74-1.11-.74-1.89c0-.92.33-1.62 1-2.1.67-.48 1.62-.73 2.86-.73h1.06v-.48c0-.54-.13-.93-.38-1.14-.25-.22-.65-.33-1.21-.33-.62 0-1.37.15-2.24.45l-.48-1.39c1.06-.41 2.08-.61 3.07-.61 2.17 0 3.25.97 3.25 2.91v3.55c.01.33.06.57.16.73zm-2.16-.78v-1.71h-.85c-1.32 0-1.98.49-1.98 1.47 0 .41.1.72.3.94.2.22.5.34.9.34.69 0 1.23-.35 1.63-1.04zM80.83 6.5c.42.45.63 1.09.63 1.9v6.13h-2.05V8.72c0-.5-.09-.85-.26-1.06-.18-.2-.44-.3-.78-.3-.35 0-.67.11-.95.33-.28.22-.56.54-.82.95v5.89h-2.05V6.06h1.78l.16 1.1c.69-.9 1.55-1.34 2.58-1.34.75 0 1.34.23 1.76.68zM90.26 13.02c.1.15.26.27.49.36l-.43 1.36c-.48-.04-.87-.16-1.18-.35-.3-.19-.54-.49-.7-.88-.29.43-.65.74-1.08.95s-.91.31-1.45.31c-.84 0-1.51-.24-2-.72s-.74-1.11-.74-1.89c0-.92.33-1.62 1-2.1.67-.48 1.62-.73 2.86-.73h1.06v-.48c0-.54-.13-.93-.38-1.14-.25-.22-.65-.33-1.21-.33-.62 0-1.37.15-2.24.45l-.48-1.39c1.06-.41 2.08-.61 3.07-.61 2.17 0 3.25.97 3.25 2.91v3.55c0 .33.05.57.16.73zm-2.17-.78v-1.71h-.85c-1.32 0-1.98.49-1.98 1.47 0 .41.1.72.3.94s.5.34.9.34c.69 0 1.23-.35 1.63-1.04zM99.7 2.67v11.86h-1.8l-.14-1.07c-.27.41-.61.73-1.02.96-.41.23-.88.35-1.4.35-1.04 0-1.83-.4-2.38-1.2s-.83-1.89-.83-3.26c0-.86.14-1.63.42-2.31.28-.68.67-1.21 1.19-1.59.52-.38 1.12-.58 1.8-.58.81 0 1.52.3 2.13.91V2.45l2.03.22zm-2.83 10.28c.28-.18.54-.45.78-.82V8.26c-.25-.3-.49-.52-.74-.67-.25-.15-.54-.22-.87-.22-.54 0-.97.24-1.29.73-.31.49-.47 1.22-.47 2.2 0 1.05.14 1.79.42 2.25.28.45.68.68 1.22.68.35-.01.67-.1.95-.28zM109.06 10.93h-5.31c.06.82.28 1.41.64 1.76.36.35.84.53 1.44.53.37 0 .73-.06 1.06-.18.33-.12.68-.31 1.06-.57l.85 1.17c-.94.76-1.98 1.14-3.14 1.14-1.29 0-2.29-.39-2.98-1.18-.7-.79-1.05-1.87-1.05-3.23 0-.86.15-1.64.45-2.33.3-.69.73-1.23 1.3-1.62.57-.39 1.24-.58 2.02-.58 1.18 0 2.1.38 2.75 1.13.65.75.98 1.8.98 3.14-.02.09-.03.37-.07.82zm-1.55-9.2l.78.9-2.22 2h-1.28l-2.22-2 .78-.9 2.08 1.41 2.08-1.41zm-.43 7.77c0-1.48-.55-2.22-1.65-2.22-.5 0-.89.18-1.18.55-.28.37-.45.96-.5 1.77h3.33v-.1zM112.98 13.78c0 .83-.12 1.51-.36 2.04s-.58.95-1.02 1.27-1.01.62-1.71.91l-.66-1.49c.42-.19.74-.38.98-.57.23-.19.41-.44.54-.76.12-.32.18-.75.18-1.28V6.06h2.05v7.72zm-.1-11.64c.24.24.36.54.36.89s-.12.65-.36.88c-.24.23-.55.35-.94.35-.37 0-.68-.12-.92-.35-.24-.23-.36-.53-.36-.88s.12-.65.36-.89.55-.36.92-.36c.39 0 .7.12.94.36zM122.34 10.93h-5.31c.06.82.28 1.41.64 1.76.36.35.84.53 1.44.53.37 0 .73-.06 1.06-.18.33-.12.68-.31 1.06-.57l.85 1.17c-.94.76-1.98 1.14-3.14 1.14-1.29 0-2.29-.39-2.98-1.18-.7-.79-1.05-1.87-1.05-3.23 0-.86.15-1.64.45-2.33.3-.69.73-1.23 1.3-1.62.57-.39 1.24-.58 2.02-.58 1.18 0 2.1.38 2.75 1.13.65.75.98 1.8.98 3.14-.02.09-.03.37-.07.82zm-1.98-1.43c0-1.48-.55-2.22-1.65-2.22-.5 0-.89.18-1.18.55-.28.37-.45.96-.5 1.77h3.33v-.1zM135.35 2.67v11.86h-1.81l-.14-1.07c-.27.41-.61.73-1.02.96-.41.23-.88.35-1.4.35-1.03 0-1.83-.4-2.38-1.2s-.83-1.89-.83-3.26c0-.86.14-1.63.42-2.31.28-.68.67-1.21 1.19-1.59.52-.38 1.12-.58 1.8-.58.81 0 1.52.3 2.13.91V2.45l2.04.22zm-2.83 10.28c.28-.18.54-.45.78-.82V8.26c-.25-.3-.49-.52-.74-.67-.25-.15-.54-.22-.87-.22-.54 0-.97.24-1.29.73s-.47 1.22-.47 2.2c0 1.05.14 1.79.42 2.25.28.45.68.68 1.22.68.35-.01.67-.1.95-.28zM144.19 7.02c.7.79 1.05 1.89 1.05 3.27 0 .89-.16 1.67-.48 2.34-.32.68-.78 1.2-1.38 1.58-.6.37-1.31.56-2.13.56-1.25 0-2.22-.4-2.93-1.19-.7-.79-1.06-1.89-1.06-3.29 0-.89.16-1.66.48-2.34a3.7 3.7 0 011.38-1.57c.6-.37 1.31-.56 2.14-.56 1.26 0 2.23.4 2.93 1.2zm-4.76 3.27c0 1 .15 1.74.46 2.22.3.47.76.71 1.37.71s1.06-.24 1.37-.72c.3-.48.46-1.22.46-2.21s-.15-1.73-.46-2.2-.75-.71-1.35-.71c-1.24 0-1.85.97-1.85 2.91zM152.54 6.06v1.47l-4.1 5.39h4.18l-.21 1.6h-6.32v-1.47l4.11-5.39h-3.76v-1.6h6.1zm-1.04-4.33l.78.9-2.22 2h-1.28l-2.22-2 .78-.9 2.08 1.41 2.08-1.41zM156.16 2.14c.24.24.36.54.36.89s-.12.65-.36.88c-.24.23-.55.35-.94.35-.37 0-.68-.12-.92-.35-.24-.23-.36-.53-.36-.88s.12-.65.36-.89.55-.36.92-.36c.39 0 .7.12.94.36zm.1 3.92v8.46h-2.05V6.06h2.05zM163.58 14.13c-.3.21-.63.37-1 .48-.37.11-.74.16-1.13.16-.83-.01-1.46-.25-1.9-.71-.43-.46-.65-1.15-.65-2.06V7.54h-1.33V6.06h1.33V4.19l2.05-.24v2.11h1.97l-.21 1.47h-1.76v4.42c0 .42.07.71.22.9.14.18.37.27.68.27.31 0 .65-.1 1.01-.3l.72 1.31zM166.97 1.41l.83 1.6-3.62 1.44-.58-1.04 3.37-2zm-.19 4.65v8.46h-2.05V6.06h2.05z"/></g><g><path class="st27" d="M15.65 128.11h1.4M15.65 157.24h1.4M15.65 186.52h1.4M15.65 215.73h1.4"/></g><g><path class="st27" d="M347.47 224.16v1.69M330.19 224.16v1.69M312.91 224.16v1.69M278.35 224.16v1.69M243.79 224.16v1.69M209.23 224.16v1.69M174.67 224.16v1.69M140.11 224.16v1.69M105.55 224.16v1.69M70.99 224.16v1.69M36.43 224.16v1.69M19.15 224.16v1.69"/></g><g class="st5"><path d="M6.72 26.87v.92l-4.09 6.37h4.09l-.13.97H1.36v-.91l4.13-6.4h-3.7v-.96h4.93zM12.62 34.23c.09.12.22.22.4.28l-.25.77c-.33-.04-.59-.13-.79-.28s-.35-.37-.44-.67c-.42.63-1.05.95-1.88.95-.62 0-1.12-.18-1.48-.53-.36-.35-.54-.81-.54-1.38 0-.67.24-1.19.73-1.55.48-.36 1.17-.54 2.06-.54h.97v-.47c0-.45-.11-.77-.32-.96-.22-.19-.55-.29-1-.29-.46 0-1.03.11-1.7.34l-.28-.8c.78-.29 1.51-.43 2.18-.43.74 0 1.3.18 1.67.55.37.36.55.88.55 1.55v2.89c-.02.25.03.44.12.57zm-1.24-.76v-1.45h-.83c-1.17 0-1.75.43-1.75 1.3 0 .38.09.66.28.85.18.19.46.29.82.29.62-.01 1.12-.34 1.48-.99zM20.67 27.11v8.03h-1.1v-6.85l-1.87 1.14-.48-.78 2.48-1.54h.97zM27.35 28.05c.45.71.68 1.73.68 3.08 0 1.34-.23 2.37-.68 3.08-.45.71-1.12 1.07-2.01 1.07-.89 0-1.56-.36-2.01-1.07s-.68-1.74-.68-3.08.23-2.37.68-3.08 1.12-1.06 2.01-1.06c.88 0 1.55.35 2.01 1.06zm-3.17.58c-.25.51-.38 1.34-.38 2.5 0 1.15.13 1.99.38 2.5.25.52.64.77 1.16.77.51 0 .9-.26 1.15-.77.26-.52.38-1.35.38-2.5 0-1.14-.13-1.97-.38-2.49s-.64-.77-1.15-.77c-.52-.01-.91.25-1.16.76zM34.04 28.05c.45.71.68 1.73.68 3.08 0 1.34-.23 2.37-.68 3.08s-1.12 1.07-2.01 1.07c-.89 0-1.56-.36-2.01-1.07-.45-.71-.68-1.74-.68-3.08s.23-2.37.68-3.08c.45-.71 1.12-1.06 2.01-1.06.89 0 1.56.35 2.01 1.06zm-3.17.58c-.25.51-.38 1.34-.38 2.5 0 1.15.13 1.99.38 2.5.25.52.64.77 1.16.77.51 0 .9-.26 1.15-.77.26-.52.38-1.35.38-2.5 0-1.14-.13-1.97-.38-2.49-.26-.52-.64-.77-1.15-.77-.52-.01-.9.25-1.16.76zM39.99 34.91c-.24-.24-.35-.59-.35-1.03v-7.62l1.1-.13v7.73c0 .18.03.3.09.38.06.08.16.12.31.12s.29-.02.41-.07l.29.77c-.26.14-.56.22-.88.22-.41 0-.73-.12-.97-.37zM47.91 32.35h-4.03c.05.7.22 1.21.53 1.54.3.33.7.49 1.18.49.3 0 .58-.04.84-.13s.52-.23.8-.42l.48.66c-.67.53-1.41.79-2.21.79-.88 0-1.57-.29-2.06-.86-.49-.58-.74-1.37-.74-2.38 0-.66.11-1.24.32-1.75.21-.51.52-.91.91-1.19s.86-.43 1.4-.43c.84 0 1.48.28 1.93.83.45.55.67 1.32.67 2.29 0 .18-.01.37-.02.56zm-1.07-.89c0-.62-.12-1.1-.37-1.43-.25-.33-.62-.49-1.12-.49-.9 0-1.4.66-1.48 1.99h2.96v-.07zM52.89 34.85c-.42.29-.89.43-1.42.43-.54 0-.95-.15-1.25-.46-.3-.31-.45-.75-.45-1.34v-3.82h-1.1v-.85h1.1v-1.43l1.1-.13v1.56h1.5l-.12.85h-1.38v3.77c0 .33.06.57.17.71.12.15.31.22.58.22.25 0 .53-.08.84-.25l.43.74zM60.09 28.85c.34.12.67.3.98.54l-.47.7c-.29-.18-.56-.32-.82-.41-.26-.09-.53-.13-.82-.13-.36 0-.64.07-.85.22-.21.15-.31.35-.31.61s.1.46.29.6c.2.14.55.28 1.06.42.7.18 1.23.42 1.58.72s.52.72.52 1.25c0 .62-.24 1.1-.73 1.43-.48.33-1.07.49-1.77.49-.96 0-1.76-.28-2.39-.83l.59-.67c.54.41 1.13.61 1.78.61.42 0 .75-.09.99-.26a.83.83 0 00.37-.7c0-.22-.04-.39-.13-.52s-.24-.25-.46-.35c-.22-.1-.53-.21-.95-.32-.67-.18-1.16-.41-1.46-.71-.3-.3-.45-.67-.45-1.13 0-.33.1-.63.29-.89s.47-.48.82-.62c.35-.15.74-.22 1.17-.22.44-.01.82.05 1.17.17zM67.56 32.35h-4.03c.05.7.22 1.21.53 1.54s.7.49 1.18.49c.3 0 .58-.04.84-.13s.52-.23.8-.42l.48.66c-.67.53-1.41.79-2.21.79-.88 0-1.57-.29-2.06-.86-.49-.58-.74-1.37-.74-2.38 0-.66.11-1.24.32-1.75.21-.51.52-.91.91-1.19.4-.29.86-.43 1.4-.43.84 0 1.48.28 1.93.83.45.55.67 1.32.67 2.29.01.18 0 .37-.02.56zm-1.06-.89c0-.62-.12-1.1-.37-1.43-.25-.33-.62-.49-1.12-.49-.9 0-1.4.66-1.48 1.99h2.96v-.07zM76.86 29.18c.32.34.49.82.49 1.42v4.54h-1.1v-4.38c0-.45-.08-.76-.25-.95-.17-.18-.42-.28-.74-.28-.34 0-.63.1-.89.29-.26.19-.5.47-.72.83v4.49h-1.1v-6.32h.95l.1.94c.22-.34.5-.6.83-.79.33-.19.7-.29 1.1-.29.55-.01 1 .16 1.33.5zM83.96 34.23c.09.12.22.22.4.28l-.25.77c-.33-.04-.59-.13-.79-.28-.2-.14-.35-.37-.44-.67-.42.63-1.05.95-1.88.95-.62 0-1.12-.18-1.48-.53-.36-.35-.54-.81-.54-1.38 0-.67.24-1.19.73-1.55s1.17-.54 2.06-.54h.97v-.47c0-.45-.11-.77-.32-.96-.22-.19-.55-.29-1-.29-.46 0-1.03.11-1.7.34l-.28-.8c.78-.29 1.51-.43 2.18-.43.74 0 1.3.18 1.67.55.37.36.55.88.55 1.55v2.89c-.02.25.03.44.12.57zm-1.24-.76v-1.45h-.83c-1.17 0-1.75.43-1.75 1.3 0 .38.09.66.28.85.18.19.46.29.82.29.62-.01 1.12-.34 1.48-.99zM90.99 26.27v8.87h-.97l-.11-.88c-.21.32-.47.57-.78.75s-.66.27-1.04.27c-.75 0-1.34-.3-1.76-.89-.42-.59-.63-1.39-.63-2.39 0-.65.1-1.22.3-1.73.2-.5.49-.9.86-1.18.38-.28.82-.43 1.32-.43.65 0 1.22.26 1.7.78v-3.31l1.11.14zm-1.8 7.9c.24-.16.47-.39.7-.7v-3.1c-.21-.27-.43-.48-.67-.62s-.5-.21-.8-.21c-.49 0-.87.2-1.13.61-.27.41-.4 1.02-.4 1.82 0 .82.12 1.42.37 1.82.25.4.6.6 1.07.6.33.01.62-.07.86-.22zM98.02 32.35h-4.03c.05.7.22 1.21.53 1.54.3.33.7.49 1.18.49.3 0 .58-.04.84-.13s.52-.23.8-.42l.48.66c-.67.53-1.41.79-2.21.79-.88 0-1.57-.29-2.06-.86-.49-.58-.74-1.37-.74-2.38 0-.66.11-1.24.32-1.75.21-.51.52-.91.91-1.19s.86-.43 1.4-.43c.84 0 1.48.28 1.93.83.45.55.67 1.32.67 2.29 0 .18 0 .37-.02.56zM97 25.71l.47.54-1.62 1.36h-.73l-1.63-1.36.48-.54 1.51 1.01L97 25.71zm-.05 5.75c0-.62-.12-1.1-.37-1.43-.25-.33-.62-.49-1.12-.49-.9 0-1.4.66-1.48 1.99h2.96v-.07zM100.89 34.75c0 .58-.07 1.05-.22 1.4s-.35.64-.63.86c-.28.22-.66.44-1.16.67l-.32-.8c.31-.14.55-.29.72-.43s.29-.34.38-.59.13-.6.13-1.04v-6.01h1.1v5.94zm.01-8.76c.14.14.22.32.22.54s-.07.39-.22.53c-.14.14-.33.21-.56.21a.732.732 0 01-.77-.74c0-.21.07-.4.22-.54s.33-.22.55-.22c.23 0 .42.08.56.22zM107.92 32.35h-4.03c.05.7.22 1.21.53 1.54.3.33.7.49 1.18.49.3 0 .58-.04.84-.13s.52-.23.8-.42l.48.66c-.67.53-1.41.79-2.21.79-.88 0-1.57-.29-2.06-.86-.49-.58-.74-1.37-.74-2.38 0-.66.11-1.24.32-1.75.21-.51.52-.91.91-1.19s.86-.43 1.4-.43c.84 0 1.48.28 1.93.83.45.55.67 1.32.67 2.29 0 .18 0 .37-.02.56zm-1.07-.89c0-.62-.12-1.1-.37-1.43-.25-.33-.62-.49-1.12-.49-.9 0-1.4.66-1.48 1.99h2.96v-.07zM117.78 26.27v8.87h-.97l-.11-.88c-.21.32-.47.57-.78.75s-.66.27-1.04.27c-.75 0-1.34-.3-1.76-.89-.42-.59-.63-1.39-.63-2.39 0-.65.1-1.22.3-1.73.2-.5.49-.9.86-1.18.38-.28.82-.43 1.32-.43.65 0 1.22.26 1.7.78v-3.31l1.11.14zm-1.8 7.9c.24-.16.47-.39.7-.7v-3.1c-.21-.27-.43-.48-.67-.62s-.5-.21-.8-.21c-.49 0-.87.2-1.13.61-.27.41-.4 1.02-.4 1.82 0 .82.12 1.42.37 1.82.25.4.6.6 1.07.6.34.01.62-.07.86-.22zM124.51 29.55c.49.59.74 1.4.74 2.41 0 .66-.11 1.23-.34 1.73s-.55.89-.97 1.16c-.42.28-.93.41-1.51.41-.89 0-1.58-.3-2.08-.89-.5-.59-.74-1.4-.74-2.41 0-.66.11-1.23.34-1.73.22-.5.55-.89.97-1.16.42-.28.93-.41 1.52-.41.89.01 1.58.3 2.07.89zm-3.71 2.43c0 1.61.54 2.41 1.63 2.41s1.63-.81 1.63-2.42c0-1.61-.54-2.41-1.62-2.41-1.1-.01-1.64.8-1.64 2.42zM130.7 28.81v.84l-3.3 4.56h3.34l-.13.92h-4.45v-.83l3.29-4.56h-3.01v-.94h4.26zm-.7-3.1l.47.54-1.62 1.36h-.73l-1.63-1.36.48-.54 1.51 1.01 1.52-1.01zM133.34 25.99c.14.14.22.32.22.54s-.07.39-.22.53c-.14.14-.33.21-.56.21a.732.732 0 01-.77-.74c0-.21.07-.4.22-.54s.33-.22.55-.22c.22 0 .41.08.56.22zm0 2.82v6.32h-1.1v-6.32h1.1zM138.81 34.85c-.42.29-.89.43-1.42.43-.54 0-.95-.15-1.25-.46-.3-.31-.45-.75-.45-1.34v-3.82h-1.1v-.85h1.1v-1.43l1.1-.13v1.56h1.5l-.12.85h-1.38v3.77c0 .33.06.57.17.71.12.15.31.22.58.22.25 0 .53-.08.84-.25l.43.74zM141.45 25.52l.49.92-2.54 1.03-.34-.59 2.39-1.36zm-.4 3.29v6.32h-1.1v-6.32h1.1zM150.22 28.81v.84l-3.3 4.56h3.34l-.13.92h-4.45v-.83l3.29-4.56h-3.01v-.94h4.26zM156.57 26.27v8.87h-.97l-.11-.88c-.21.32-.47.57-.78.75-.31.18-.66.27-1.04.27-.75 0-1.34-.3-1.76-.89-.42-.59-.63-1.39-.63-2.39 0-.65.1-1.22.3-1.73s.49-.9.86-1.18c.38-.28.82-.43 1.32-.43.65 0 1.22.26 1.7.78v-3.31l1.11.14zm-1.8 7.9c.24-.16.47-.39.7-.7v-3.1c-.21-.27-.43-.48-.67-.62-.24-.14-.5-.21-.8-.21-.49 0-.87.2-1.13.61s-.4 1.02-.4 1.82c0 .82.12 1.42.37 1.82.25.4.6.6 1.07.6.33.01.62-.07.86-.22zM163.49 28.81l-2.15 6.32h-1.33l-2.18-6.32h1.2l1.66 5.34 1.64-5.34h1.16zM169.15 29.55c.49.59.74 1.4.74 2.41 0 .66-.11 1.23-.34 1.73-.22.5-.55.89-.97 1.16-.42.28-.93.41-1.51.41-.89 0-1.58-.3-2.08-.89-.5-.59-.74-1.4-.74-2.41 0-.66.11-1.23.34-1.73.22-.5.55-.89.97-1.16.42-.28.93-.41 1.52-.41.89.01 1.58.3 2.07.89zm-3.71 2.43c0 1.61.54 2.41 1.63 2.41s1.63-.81 1.63-2.42c0-1.61-.54-2.41-1.62-2.41-1.1-.01-1.64.8-1.64 2.42zM172.79 34.75c0 .58-.07 1.05-.22 1.4s-.35.64-.63.86c-.28.22-.66.44-1.16.67l-.32-.8c.31-.14.55-.29.72-.43s.29-.34.38-.59.13-.6.13-1.04v-6.01h1.1v5.94zm.01-8.76c.14.14.22.32.22.54s-.07.39-.22.53c-.14.14-.33.21-.56.21a.732.732 0 01-.77-.74c0-.21.07-.4.22-.54s.33-.22.55-.22c.23 0 .42.08.56.22zM179.4 29.18c.32.34.49.82.49 1.42v4.54h-1.1v-4.38c0-.45-.08-.76-.25-.95-.17-.18-.42-.28-.74-.28-.34 0-.63.1-.89.29s-.5.47-.72.83v4.49h-1.1v-6.32h.95l.1.94c.22-.34.5-.6.83-.79.33-.19.7-.29 1.1-.29.55-.01 1 .16 1.33.5zM186.5 34.23c.09.12.22.22.4.28l-.25.77c-.33-.04-.59-.13-.79-.28-.2-.14-.35-.37-.44-.67-.42.63-1.05.95-1.88.95-.62 0-1.12-.18-1.48-.53s-.54-.81-.54-1.38c0-.67.24-1.19.73-1.55.48-.36 1.17-.54 2.06-.54h.97v-.47c0-.45-.11-.77-.32-.96-.22-.19-.55-.29-1-.29-.46 0-1.03.11-1.7.34l-.28-.8c.78-.29 1.51-.43 2.18-.43.74 0 1.3.18 1.67.55.37.36.55.88.55 1.55v2.89c-.02.25.03.44.12.57zm-1.46-8.71l.49.92-2.54 1.03-.34-.59 2.39-1.36zm.22 7.95v-1.45h-.83c-1.17 0-1.75.43-1.75 1.3 0 .38.09.66.28.85.18.19.46.29.82.29.62-.01 1.12-.34 1.48-.99zM191.39 28.85c.34.12.67.3.98.54l-.47.7c-.29-.18-.56-.32-.82-.41-.26-.09-.53-.13-.82-.13-.36 0-.64.07-.85.22-.21.15-.31.35-.31.61s.1.46.29.6c.2.14.55.28 1.06.42.7.18 1.23.42 1.58.72.35.3.52.72.52 1.25 0 .62-.24 1.1-.73 1.43-.48.33-1.07.49-1.77.49-.96 0-1.76-.28-2.39-.83l.59-.67c.54.41 1.13.61 1.78.61.42 0 .75-.09.99-.26s.37-.41.37-.7c0-.22-.04-.39-.13-.52s-.24-.25-.46-.35c-.22-.1-.53-.21-.95-.32-.67-.18-1.16-.41-1.46-.71-.3-.3-.45-.67-.45-1.13 0-.33.1-.63.29-.89.2-.27.47-.48.82-.62.35-.15.74-.22 1.17-.22.44-.01.83.05 1.17.17zM198.56 29.55c.49.59.74 1.4.74 2.41 0 .66-.11 1.23-.34 1.73s-.55.89-.97 1.16-.93.41-1.51.41c-.89 0-1.58-.3-2.08-.89-.5-.59-.74-1.4-.74-2.41 0-.66.11-1.23.34-1.73.22-.5.55-.89.97-1.16.42-.28.93-.41 1.52-.41.89.01 1.58.3 2.07.89zm-3.71 2.43c0 1.61.54 2.41 1.63 2.41 1.09 0 1.63-.81 1.63-2.42 0-1.61-.54-2.41-1.62-2.41-1.09-.01-1.64.8-1.64 2.42zM205.73 29.54c.42.58.64 1.39.64 2.43 0 .66-.1 1.23-.3 1.73s-.49.89-.86 1.16-.82.41-1.32.41c-.66 0-1.22-.28-1.68-.84l-.11.7h-.97v-8.87l1.1-.13v3.47c.46-.62 1.05-.94 1.79-.94.72.01 1.29.3 1.71.88zm-.96 4.27c.28-.4.41-1.01.41-1.84 0-.86-.13-1.47-.38-1.85-.26-.38-.62-.57-1.09-.57-.56 0-1.05.33-1.48.98v3.02c.17.26.37.47.62.62.24.15.5.23.77.23.49 0 .87-.2 1.15-.59zM209.36 25.99c.14.14.22.32.22.54s-.07.39-.22.53c-.14.14-.33.21-.56.21a.732.732 0 01-.77-.74c0-.21.07-.4.22-.54s.33-.22.55-.22c.22 0 .41.08.56.22zm0 2.82v6.32h-1.1v-6.32h1.1zM211.93 34.91c-.24-.24-.35-.59-.35-1.03v-7.62l1.1-.13v7.73c0 .18.03.3.09.38.06.08.16.12.31.12s.29-.02.41-.07l.29.77c-.26.14-.56.22-.88.22-.41 0-.73-.12-.97-.37zM219.48 34.23c.09.12.22.22.4.28l-.25.77c-.33-.04-.59-.13-.79-.28-.2-.14-.35-.37-.44-.67-.42.63-1.05.95-1.88.95-.62 0-1.12-.18-1.48-.53-.36-.35-.54-.81-.54-1.38 0-.67.24-1.19.73-1.55s1.17-.54 2.06-.54h.97v-.47c0-.45-.11-.77-.32-.96-.22-.19-.55-.29-1-.29-.46 0-1.03.11-1.7.34l-.28-.8c.78-.29 1.51-.43 2.18-.43.74 0 1.3.18 1.67.55.37.36.55.88.55 1.55v2.89c-.01.25.04.44.12.57zm-1.23-.76v-1.45h-.83c-1.17 0-1.75.43-1.75 1.3 0 .38.09.66.28.85.18.19.46.29.82.29.62-.01 1.12-.34 1.48-.99zM222.51 33.85c.16.16.24.36.24.59 0 .25-.07.53-.22.85l-.8 1.84h-.79l.48-1.99a.913.913 0 01-.25-.3.872.872 0 01-.09-.4c0-.23.08-.43.24-.59.16-.16.36-.24.59-.24.24 0 .44.08.6.24zM231.39 28.81v.84l-3.3 4.56h3.34l-.13.92h-4.45v-.83l3.29-4.56h-3.01v-.94h4.26zM237.14 34.23c.09.12.22.22.4.28l-.25.77c-.33-.04-.59-.13-.79-.28-.2-.14-.35-.37-.44-.67-.42.63-1.05.95-1.88.95-.62 0-1.12-.18-1.48-.53s-.54-.81-.54-1.38c0-.67.24-1.19.73-1.55.48-.36 1.17-.54 2.06-.54h.97v-.47c0-.45-.11-.77-.32-.96-.22-.19-.55-.29-1-.29-.46 0-1.03.11-1.7.34l-.28-.8c.78-.29 1.51-.43 2.18-.43.74 0 1.3.18 1.67.55.37.36.55.88.55 1.55v2.89c-.02.25.03.44.12.57zm-1.24-.76v-1.45h-.83c-1.17 0-1.75.43-1.75 1.3 0 .38.09.66.28.85.18.19.46.29.82.29.62-.01 1.12-.34 1.48-.99zM246.78 29.18c.32.34.49.82.49 1.42v4.54h-1.1v-4.38c0-.45-.08-.76-.25-.95-.17-.18-.42-.28-.74-.28-.34 0-.63.1-.89.29-.26.19-.5.47-.72.83v4.49h-1.1v-6.32h.95l.1.94c.22-.34.5-.6.83-.79.33-.19.7-.29 1.1-.29.55-.01 1 .16 1.33.5zM254.23 32.35h-4.03c.05.7.22 1.21.53 1.54s.7.49 1.18.49c.3 0 .58-.04.84-.13s.52-.23.8-.42l.48.66c-.67.53-1.41.79-2.21.79-.88 0-1.57-.29-2.06-.86-.49-.58-.74-1.37-.74-2.38 0-.66.11-1.24.32-1.75.21-.51.52-.91.91-1.19.4-.29.86-.43 1.4-.43.84 0 1.48.28 1.93.83.45.55.67 1.32.67 2.29.01.18 0 .37-.02.56zm-1.06-.89c0-.62-.12-1.1-.37-1.43-.25-.33-.62-.49-1.12-.49-.9 0-1.4.66-1.48 1.99h2.96v-.07zM259.36 28.83c.31.11.61.28.9.52l-.53.7c-.22-.16-.44-.28-.65-.35s-.45-.11-.7-.11c-.51 0-.91.2-1.19.61-.28.41-.43 1.01-.43 1.81s.14 1.39.42 1.77c.28.38.68.57 1.2.57.25 0 .48-.04.68-.11.21-.08.44-.2.7-.37l.5.72c-.58.46-1.22.7-1.93.7-.86 0-1.53-.29-2.02-.86-.49-.58-.74-1.37-.74-2.39 0-.67.11-1.26.34-1.76.22-.5.54-.9.95-1.18.41-.28.9-.42 1.47-.42.37-.01.72.04 1.03.15zM266.27 32.35h-4.03c.05.7.22 1.21.53 1.54s.7.49 1.18.49c.3 0 .58-.04.84-.13s.52-.23.8-.42l.48.66c-.67.53-1.41.79-2.21.79-.88 0-1.57-.29-2.06-.86-.49-.58-.74-1.37-.74-2.38 0-.66.11-1.24.32-1.75.21-.51.52-.91.91-1.19.4-.29.86-.43 1.4-.43.84 0 1.48.28 1.93.83.45.55.67 1.32.67 2.29 0 .18 0 .37-.02.56zm-1.07-.89c0-.62-.12-1.1-.37-1.43-.25-.33-.62-.49-1.12-.49-.9 0-1.4.66-1.48 1.99h2.96v-.07zM268.35 34.91c-.24-.24-.35-.59-.35-1.03v-7.62l1.1-.13v7.73c0 .18.03.3.09.38.06.08.16.12.31.12s.29-.02.41-.07l.29.77c-.26.14-.56.22-.88.22-.41 0-.73-.12-.97-.37zM273.99 35.17c-.25.74-.59 1.32-1.04 1.75-.44.43-1.08.69-1.9.77l-.12-.86c.42-.07.75-.18 1-.31.25-.14.45-.31.59-.52s.29-.5.41-.86h-.37l-2.12-6.32h1.18l1.69 5.52 1.66-5.52h1.14l-2.12 6.35zm.23-9.65l.49.92-2.54 1.03-.34-.59 2.39-1.36zM280.65 28.83c.31.11.61.28.9.52l-.53.7c-.22-.16-.44-.28-.65-.35-.21-.08-.45-.11-.7-.11-.51 0-.91.2-1.19.61-.28.41-.43 1.01-.43 1.81s.14 1.39.42 1.77.68.57 1.2.57c.25 0 .48-.04.68-.11.21-.08.44-.2.7-.37l.5.72c-.58.46-1.22.7-1.93.7-.86 0-1.53-.29-2.02-.86-.49-.58-.74-1.37-.74-2.39 0-.67.11-1.26.34-1.76s.54-.9.95-1.18c.41-.28.9-.42 1.47-.42.37-.01.71.04 1.03.15zM287.37 29.18c.32.34.49.82.49 1.42v4.54h-1.1v-4.38c0-.45-.09-.76-.26-.95-.17-.18-.42-.28-.75-.28s-.62.1-.88.29c-.26.19-.5.46-.72.82v4.5h-1.1v-8.86l1.1-.12v3.53c.5-.68 1.12-1.02 1.87-1.02.58 0 1.03.17 1.35.51zM296.12 27.27a2.092 2.092 0 011.15 1.91c0 .49-.11.96-.33 1.4-.22.45-.56.93-1.01 1.45-.46.52-1.15 1.24-2.08 2.17h3.61l-.13.92h-4.74v-.88a82.53 82.53 0 002.28-2.44c.45-.52.77-.97.96-1.35.19-.38.29-.8.29-1.24 0-.42-.12-.74-.36-.98s-.56-.35-.96-.35c-.33 0-.62.07-.86.2-.25.14-.51.36-.79.67l-.72-.58c.33-.41.69-.71 1.09-.91.4-.2.85-.3 1.34-.3.47.03.9.12 1.26.31zM303.42 28.05c.45.71.68 1.73.68 3.08 0 1.34-.23 2.37-.68 3.08-.45.71-1.12 1.07-2.01 1.07s-1.56-.36-2.01-1.07c-.45-.71-.68-1.74-.68-3.08s.23-2.37.68-3.08c.45-.71 1.12-1.06 2.01-1.06s1.55.35 2.01 1.06zm-3.17.58c-.25.51-.38 1.34-.38 2.5 0 1.15.13 1.99.38 2.5.25.52.64.77 1.16.77.51 0 .9-.26 1.15-.77.26-.52.38-1.35.38-2.5 0-1.14-.13-1.97-.38-2.49s-.64-.77-1.15-.77c-.52-.01-.91.25-1.16.76zM310.11 28.05c.45.71.68 1.73.68 3.08 0 1.34-.23 2.37-.68 3.08s-1.12 1.07-2.01 1.07c-.89 0-1.56-.36-2.01-1.07s-.68-1.74-.68-3.08.23-2.37.68-3.08 1.12-1.06 2.01-1.06c.89 0 1.56.35 2.01 1.06zm-3.17.58c-.25.51-.38 1.34-.38 2.5 0 1.15.13 1.99.38 2.5.25.52.64.77 1.16.77.51 0 .9-.26 1.15-.77.26-.52.38-1.35.38-2.5 0-1.14-.13-1.97-.38-2.49s-.64-.77-1.15-.77c-.52-.01-.9.25-1.16.76zM316.06 34.91c-.24-.24-.35-.59-.35-1.03v-7.62l1.1-.13v7.73c0 .18.03.3.09.38.06.08.16.12.31.12s.29-.02.41-.07l.29.77c-.26.14-.56.22-.88.22-.41 0-.73-.12-.97-.37zM323.98 32.35h-4.03c.05.7.22 1.21.53 1.54.3.33.7.49 1.18.49.3 0 .58-.04.84-.13s.52-.23.8-.42l.48.66c-.67.53-1.41.79-2.21.79-.88 0-1.57-.29-2.06-.86-.49-.58-.74-1.37-.74-2.38 0-.66.11-1.24.32-1.75.21-.51.52-.91.91-1.19s.86-.43 1.4-.43c.84 0 1.48.28 1.93.83.45.55.67 1.32.67 2.29 0 .18 0 .37-.02.56zm-1.07-.89c0-.62-.12-1.1-.37-1.43-.25-.33-.62-.49-1.12-.49-.9 0-1.4.66-1.48 1.99h2.96v-.07zM328.96 34.85c-.42.29-.89.43-1.42.43-.54 0-.95-.15-1.25-.46s-.45-.75-.45-1.34v-3.82h-1.1v-.85h1.1v-1.43l1.1-.13v1.56h1.5l-.12.85h-1.38v3.77c0 .33.06.57.17.71.12.15.31.22.58.22.25 0 .53-.08.84-.25l.43.74zM336.47 34.85c-.42.29-.89.43-1.42.43-.54 0-.95-.15-1.25-.46s-.45-.75-.45-1.34v-3.82h-1.1v-.85h1.1v-1.43l1.1-.13v1.56h1.5l-.12.85h-1.38v3.77c0 .33.06.57.17.71.12.15.31.22.58.22.25 0 .53-.08.84-.25l.43.74zM342.18 32.35h-4.03c.05.7.22 1.21.53 1.54s.7.49 1.18.49c.3 0 .58-.04.84-.13s.52-.23.8-.42l.48.66c-.67.53-1.41.79-2.21.79-.88 0-1.57-.29-2.06-.86-.49-.58-.74-1.37-.74-2.38 0-.66.11-1.24.32-1.75.21-.51.52-.91.91-1.19.4-.29.86-.43 1.4-.43.84 0 1.48.28 1.93.83.45.55.67 1.32.67 2.29.01.18 0 .37-.02.56zm-1.07-.89c0-.62-.12-1.1-.37-1.43-.25-.33-.62-.49-1.12-.49-.9 0-1.4.66-1.48 1.99h2.96v-.07zm-.52-5.94l.49.92-2.54 1.03-.34-.59 2.39-1.36zM351.57 29.19c.31.35.47.82.47 1.41v4.54h-1.1v-4.38c0-.82-.3-1.22-.89-1.22-.31 0-.58.09-.79.27s-.45.46-.7.85v4.49h-1.1v-4.38c0-.82-.3-1.22-.89-1.22-.32 0-.59.09-.8.28-.22.18-.44.46-.68.84v4.49h-1.1v-6.32h.95l.1.92c.47-.71 1.08-1.07 1.82-1.07.39 0 .73.1 1 .3.28.2.47.48.59.84.25-.37.52-.65.82-.85.3-.2.65-.29 1.06-.29.51-.02.92.15 1.24.5zM359.01 32.35h-4.03c.05.7.22 1.21.53 1.54.3.33.7.49 1.18.49.3 0 .58-.04.84-.13s.52-.23.8-.42l.48.66c-.67.53-1.41.79-2.21.79-.88 0-1.57-.29-2.06-.86-.49-.58-.74-1.37-.74-2.38 0-.66.11-1.24.32-1.75.21-.51.52-.91.91-1.19s.86-.43 1.4-.43c.84 0 1.48.28 1.93.83.45.55.67 1.32.67 2.29 0 .18-.01.37-.02.56zm-1.02-6.64l.47.54-1.62 1.36h-.73l-1.63-1.36.48-.54 1.51 1.01 1.52-1.01zm-.05 5.75c0-.62-.12-1.1-.37-1.43-.25-.33-.62-.49-1.12-.49-.9 0-1.4.66-1.48 1.99h2.96v-.07zM364.03 25.71l.47.54-1.62 1.36h-.73l-1.63-1.36.48-.54 1.51 1.01 1.52-1.01zm.14 3.03l-.2 1.08c-.19-.05-.38-.07-.55-.07-.39 0-.71.14-.95.43s-.43.74-.56 1.34v3.61h-1.1v-6.32h.95l.11 1.28c.17-.47.4-.83.68-1.07.29-.24.62-.36 1.01-.36.21.01.41.03.61.08zM5.85 43.21v.84l-3.3 4.56h3.34l-.13.92H1.3v-.83l3.29-4.56H1.58v-.94h4.27zM10.58 49.25c-.42.29-.89.43-1.42.43-.54 0-.95-.15-1.25-.46-.3-.31-.45-.75-.45-1.34v-3.82h-1.1v-.85h1.1v-1.43l1.1-.13v1.56h1.5l-.12.85H8.56v3.77c0 .33.06.57.17.71.12.15.31.22.58.22.25 0 .53-.08.84-.25l.43.74zM15.09 43.14l-.2 1.08c-.19-.05-.38-.07-.55-.07-.39 0-.71.14-.95.43s-.43.74-.56 1.34v3.61h-1.1v-6.32h.95l.11 1.28c.17-.47.4-.83.68-1.07.29-.24.62-.36 1.01-.36.21.01.42.03.61.08zM20.43 43.95c.49.59.74 1.4.74 2.41 0 .66-.11 1.23-.34 1.73-.22.5-.55.89-.97 1.16-.42.28-.93.41-1.51.41-.89 0-1.58-.3-2.08-.89-.5-.59-.74-1.4-.74-2.41 0-.66.11-1.23.34-1.73.22-.5.55-.89.97-1.16.42-.28.93-.41 1.52-.41.89.01 1.58.3 2.07.89zm-3.71 2.43c0 1.61.54 2.41 1.63 2.41s1.63-.81 1.63-2.42c0-1.61-.54-2.41-1.62-2.41-1.09-.01-1.64.8-1.64 2.42zM24.08 49.15c0 .58-.07 1.05-.22 1.4-.14.35-.35.64-.63.86-.28.22-.66.44-1.16.67l-.32-.8c.31-.14.55-.29.72-.43s.29-.34.38-.59.13-.6.13-1.04v-6.01h1.1v5.94zm.01-8.76c.14.14.22.32.22.54s-.07.39-.22.53c-.14.14-.33.21-.56.21a.732.732 0 01-.77-.74c0-.21.07-.4.22-.54s.33-.22.55-.22c.23 0 .41.08.56.22zM30.68 43.58c.32.34.49.82.49 1.42v4.54h-1.1v-4.38c0-.45-.08-.76-.25-.95-.17-.18-.42-.28-.74-.28-.34 0-.63.1-.89.29-.26.19-.5.47-.72.83v4.49h-1.1v-6.32h.95l.1.94c.22-.34.5-.6.83-.79.33-.19.7-.29 1.1-.29.56-.01 1.01.16 1.33.5zM37.78 48.63c.09.12.22.22.4.28l-.25.77c-.33-.04-.59-.13-.79-.28-.2-.14-.35-.37-.44-.67-.42.63-1.05.95-1.88.95-.62 0-1.12-.18-1.48-.53s-.54-.81-.54-1.38c0-.67.24-1.19.73-1.55s1.17-.54 2.06-.54h.97v-.47c0-.45-.11-.77-.32-.96-.22-.19-.55-.29-1-.29-.46 0-1.03.11-1.7.34l-.28-.8c.78-.29 1.51-.43 2.18-.43.74 0 1.3.18 1.67.55.37.36.55.88.55 1.55v2.89c-.01.25.03.44.12.57zm-1.45-8.71l.49.92-2.54 1.03-.34-.59 2.39-1.36zm.21 7.95v-1.45h-.83c-1.17 0-1.75.43-1.75 1.3 0 .38.09.66.28.85.18.19.46.29.82.29.63-.01 1.12-.34 1.48-.99zM42.68 43.25c.34.12.67.3.98.54l-.47.7c-.29-.18-.56-.32-.82-.41s-.53-.13-.82-.13c-.36 0-.64.07-.85.22-.21.15-.31.35-.31.61s.1.46.29.6c.2.14.55.28 1.06.42.7.18 1.23.42 1.58.72.35.3.52.72.52 1.25 0 .62-.24 1.1-.73 1.43-.48.33-1.07.49-1.77.49-.96 0-1.76-.28-2.39-.83l.59-.67c.54.41 1.13.61 1.78.61.42 0 .75-.09.99-.26s.37-.41.37-.7c0-.22-.04-.39-.13-.52s-.24-.25-.46-.35c-.22-.1-.53-.21-.95-.32-.67-.18-1.16-.41-1.46-.71-.3-.3-.45-.67-.45-1.13 0-.33.1-.63.29-.89.2-.27.47-.48.82-.62.35-.15.74-.22 1.17-.22s.82.05 1.17.17zM49.85 43.95c.49.59.74 1.4.74 2.41 0 .66-.11 1.23-.34 1.73-.22.5-.55.89-.97 1.16-.42.28-.93.41-1.51.41-.89 0-1.58-.3-2.08-.89-.5-.59-.74-1.4-.74-2.41 0-.66.11-1.23.34-1.73.22-.5.55-.89.97-1.16.42-.28.93-.41 1.52-.41.88.01 1.57.3 2.07.89zm-3.72 2.43c0 1.61.54 2.41 1.63 2.41 1.09 0 1.63-.81 1.63-2.42 0-1.61-.54-2.41-1.62-2.41-1.09-.01-1.64.8-1.64 2.42zM57.02 43.94c.42.58.64 1.39.64 2.43 0 .66-.1 1.23-.3 1.73-.2.5-.49.89-.86 1.16-.38.28-.82.41-1.32.41-.66 0-1.22-.28-1.68-.84l-.11.7h-.97v-8.87l1.1-.13V44c.46-.62 1.05-.94 1.79-.94.71.01 1.28.3 1.71.88zm-.97 4.27c.28-.4.41-1.01.41-1.84 0-.86-.13-1.47-.38-1.85s-.62-.57-1.09-.57c-.56 0-1.05.33-1.48.98v3.02c.17.26.37.47.62.62s.5.23.77.23c.49 0 .87-.2 1.15-.59zM60.64 40.39c.14.14.22.32.22.54s-.07.39-.22.53c-.14.14-.33.21-.56.21a.732.732 0 01-.77-.74c0-.21.07-.4.22-.54s.33-.22.55-.22c.23 0 .42.08.56.22zm0 2.82v6.32h-1.1v-6.32h1.1zM63.21 49.31c-.24-.24-.35-.59-.35-1.03v-7.62l1.1-.13v7.73c0 .18.03.3.09.38.06.08.16.12.31.12s.29-.02.41-.07l.29.77c-.26.14-.56.22-.88.22-.41 0-.73-.12-.97-.37zM70.77 48.63c.09.12.22.22.4.28l-.25.77c-.33-.04-.59-.13-.79-.28-.2-.14-.35-.37-.44-.67-.42.63-1.05.95-1.88.95-.62 0-1.12-.18-1.48-.53s-.54-.81-.54-1.38c0-.67.24-1.19.73-1.55s1.17-.54 2.06-.54h.97v-.47c0-.45-.11-.77-.32-.96-.22-.19-.55-.29-1-.29-.46 0-1.03.11-1.7.34l-.28-.8c.78-.29 1.51-.43 2.18-.43.74 0 1.3.18 1.67.55.37.36.55.88.55 1.55v2.89c-.01.25.03.44.12.57zm-1.24-.76v-1.45h-.83c-1.17 0-1.75.43-1.75 1.3 0 .38.09.66.28.85.18.19.46.29.82.29.63-.01 1.12-.34 1.48-.99z"/></g></g></svg>