<svg xmlns="http://www.w3.org/2000/svg" viewBox="0 0 620 300"><style>.st5{enable-background:new}.st11{fill:teal}.st15{fill:#666}.st20{fill:#4d4d4d}.st23{fill:#595959}.st24{fill:#5cadad}.st25{fill:#399}.st26{fill:#2e9797}.st117,.st118,.st27{fill:none;stroke-width:.5;stroke-miterlimit:10}.st27{stroke:#4d4d4d;stroke-linecap:round}.st117,.st118{stroke:#5cadad}.st118{stroke:#606060;stroke-linecap:round}</style><g id="_x31_.1_x5F_stredni_x5F_delka_x5F_zivota_x5F_des"><path class="st23" d="M19.99 235.7c0 2.51-.69 3.77-2.08 3.77-.69 0-1.21-.31-1.56-.94-.35-.63-.53-1.57-.53-2.84 0-2.51.7-3.77 2.09-3.77 1.38 0 2.08 1.26 2.08 3.78zm-3.17-2.49c-.24.52-.36 1.34-.36 2.48s.12 1.97.36 2.49c.24.52.6.78 1.09.78.48 0 .84-.26 1.08-.78.24-.52.36-1.34.36-2.48s-.12-1.97-.36-2.49c-.24-.52-.6-.78-1.08-.78-.49.01-.85.26-1.09.78z"/><path class="st20" d="M26.08 252.47v7.4h-1.35v-6.02l-1.46.99-.61-.9 2.2-1.47h1.22zM31.98 256.74c.23.32.35.7.35 1.14 0 .42-.1.79-.31 1.12-.21.33-.5.58-.88.76-.38.18-.83.27-1.34.27-.51 0-.94-.09-1.31-.27-.37-.18-.65-.43-.85-.75s-.3-.68-.3-1.09c0-.45.11-.82.34-1.13.22-.3.56-.56 1-.75-.37-.22-.65-.47-.81-.76-.17-.29-.25-.62-.25-.99 0-.4.1-.75.29-1.04s.46-.52.8-.67c.34-.15.71-.23 1.13-.23.65 0 1.19.17 1.61.5s.63.8.63 1.4c0 .35-.09.67-.28.94-.19.27-.48.52-.89.73.48.22.84.5 1.07.82zm-1.31 1.99c.19-.19.29-.47.29-.84 0-.34-.09-.61-.26-.81s-.48-.38-.92-.56l-.29-.12c-.52.31-.78.8-.78 1.47 0 .38.1.67.29.86s.47.29.83.29c.37 0 .65-.1.84-.29zm-1.75-4.42c0 .3.07.54.22.7.15.17.39.33.73.47l.19.08c.26-.18.44-.36.54-.56.1-.2.15-.43.15-.7 0-.33-.08-.58-.23-.75-.15-.17-.38-.25-.68-.25-.62 0-.92.33-.92 1.01zM36.13 252.59c.33.17.58.4.75.68.17.29.26.6.26.95 0 .45-.12.83-.36 1.12s-.59.5-1.04.62c.49.06.89.24 1.18.54s.45.72.45 1.27c0 .42-.1.8-.3 1.14-.2.34-.48.62-.85.83-.37.21-.81.31-1.31.31-.46 0-.88-.09-1.24-.27-.36-.18-.69-.45-.98-.8l.78-.69c.23.24.46.42.67.53.21.11.44.17.7.17.34 0 .62-.11.83-.34.21-.22.31-.53.31-.93 0-.43-.1-.74-.31-.93-.21-.19-.51-.28-.92-.28h-.51l.15-.98h.34c.34 0 .61-.1.81-.3.2-.2.3-.48.3-.85 0-.32-.09-.56-.26-.73-.18-.17-.42-.26-.73-.26-.47 0-.9.21-1.3.62l-.7-.71c.62-.63 1.33-.95 2.16-.95.41-.01.79.07 1.12.24zM42.5 253.31c.41.65.62 1.6.62 2.87 0 1.28-.21 2.25-.62 2.89s-1.02.97-1.81.97-1.41-.32-1.82-.97c-.41-.65-.62-1.61-.62-2.89s.21-2.24.62-2.88c.41-.64 1.02-.96 1.82-.96s1.4.33 1.81.97zm-2.39.33c-.15.17-.26.46-.33.87s-.11.96-.11 1.67c0 .72.04 1.28.11 1.69.07.41.18.7.33.87.15.17.34.26.58.26s.44-.08.58-.25.26-.46.33-.87.11-.97.11-1.69-.04-1.28-.11-1.68-.18-.69-.33-.86c-.15-.17-.34-.25-.58-.25s-.44.07-.58.24zM199.48 252.47v7.4h-1.35v-6.02l-1.46.99-.61-.9 2.2-1.47h1.22zM204.88 253.1c.41.51.62 1.22.62 2.12 0 1-.14 1.82-.42 2.46a3.51 3.51 0 01-1.28 1.52c-.57.38-1.33.7-2.29.95l-.29-.98c.88-.25 1.54-.58 1.99-.98s.72-.96.83-1.68c-.37.49-.84.74-1.41.74-.34 0-.66-.1-.96-.29-.29-.19-.53-.47-.7-.84-.17-.36-.26-.79-.26-1.27 0-.52.1-.97.31-1.35s.5-.67.86-.86c.36-.2.77-.3 1.22-.3.78 0 1.37.25 1.78.76zm-.79 2.38c.01-.79-.06-1.33-.21-1.65s-.41-.47-.78-.47c-.32 0-.56.12-.74.36-.18.24-.26.61-.26 1.11 0 .49.08.85.25 1.08.17.23.39.35.67.35.43 0 .79-.26 1.07-.78zM210.66 253.31c.41.65.62 1.6.62 2.87 0 1.28-.21 2.25-.62 2.89s-1.02.97-1.81.97-1.41-.32-1.82-.97c-.41-.65-.62-1.61-.62-2.89s.21-2.24.62-2.88c.41-.64 1.02-.96 1.82-.96s1.4.33 1.81.97zm-2.4.33c-.15.17-.26.46-.33.87s-.11.96-.11 1.67c0 .72.04 1.28.11 1.69.07.41.18.7.33.87.15.17.34.26.58.26s.44-.08.58-.25.26-.46.33-.87.11-.97.11-1.69-.04-1.28-.11-1.68-.18-.69-.33-.86c-.15-.17-.34-.25-.58-.25s-.43.07-.58.24zM216.52 253.31c.41.65.62 1.6.62 2.87 0 1.28-.21 2.25-.62 2.89s-1.02.97-1.81.97-1.41-.32-1.82-.97c-.41-.65-.62-1.61-.62-2.89s.21-2.24.62-2.88c.41-.64 1.02-.96 1.82-.96s1.4.33 1.81.97zm-2.4.33c-.15.17-.26.46-.33.87s-.11.96-.11 1.67c0 .72.04 1.28.11 1.69.07.41.18.7.33.87.15.17.34.26.58.26s.44-.08.58-.25c.15-.17.26-.46.33-.87s.11-.97.11-1.69-.04-1.28-.11-1.68c-.07-.4-.18-.69-.33-.86-.15-.17-.34-.25-.58-.25s-.43.07-.58.24z"/><path class="st15" d="M230.41 252.56v7.31h-.62v-6.63l-1.61 1.11-.29-.44 1.98-1.35h.54zM236.48 256.22c0 2.51-.69 3.77-2.08 3.77-.69 0-1.21-.31-1.56-.94s-.53-1.57-.53-2.84c0-2.51.7-3.77 2.09-3.77s2.08 1.26 2.08 3.78zm-3.17-2.49c-.24.52-.36 1.34-.36 2.48s.12 1.97.36 2.49c.24.52.6.78 1.09.78.48 0 .84-.26 1.08-.78.24-.52.36-1.34.36-2.48s-.12-1.97-.36-2.49c-.24-.52-.6-.78-1.08-.78s-.85.26-1.09.78zM57.38 257.43v.52h-.88v1.92h-.6v-1.92h-2.89v-.47l2-5.04.53.2-1.89 4.8h2.26l.07-2.16h.53v2.16h.87zM62.58 256.22c0 2.51-.69 3.77-2.08 3.77-.69 0-1.21-.31-1.56-.94-.35-.63-.53-1.57-.53-2.84 0-2.51.7-3.77 2.09-3.77s2.08 1.26 2.08 3.78zm-3.17-2.49c-.24.52-.36 1.34-.36 2.48s.12 1.97.36 2.49c.24.52.6.78 1.09.78.48 0 .84-.26 1.08-.78.24-.52.36-1.34.36-2.48s-.12-1.97-.36-2.49c-.24-.52-.6-.78-1.08-.78-.48.01-.84.26-1.09.78zM81.69 253.08h-2.66v2.52c.34-.24.72-.35 1.12-.35.56 0 1.02.2 1.35.61.34.4.51.96.51 1.67 0 .48-.09.91-.26 1.29s-.43.67-.75.87c-.32.21-.7.31-1.13.31-.39 0-.73-.08-1.03-.23s-.58-.37-.85-.65l.4-.35c.21.24.44.42.67.53.23.11.51.17.81.17.46 0 .83-.17 1.1-.52.27-.35.41-.83.41-1.44 0-.6-.12-1.04-.37-1.33-.25-.29-.58-.43-1-.43-.21 0-.4.03-.56.08-.16.05-.34.14-.54.27h-.47v-3.54h3.35l-.1.52zM87.37 256.22c0 2.51-.69 3.77-2.08 3.77-.69 0-1.21-.31-1.56-.94-.35-.63-.53-1.57-.53-2.84 0-2.51.7-3.77 2.09-3.77s2.08 1.26 2.08 3.78zm-3.17-2.49c-.24.52-.36 1.34-.36 2.48s.12 1.97.36 2.49c.24.52.6.78 1.09.78.48 0 .84-.26 1.08-.78.24-.52.36-1.34.36-2.48s-.12-1.97-.36-2.49c-.24-.52-.6-.78-1.08-.78-.48.01-.85.26-1.09.78zM106.64 255.7c.33.39.49.96.49 1.71 0 .54-.08 1.01-.25 1.4s-.39.68-.69.88c-.29.2-.63.3-1.01.3-.73 0-1.27-.3-1.61-.91-.34-.61-.51-1.44-.51-2.5 0-.87.1-1.61.29-2.23.19-.62.47-1.1.83-1.42s.78-.49 1.28-.49c.45 0 .86.14 1.24.43l-.27.42c-.3-.22-.63-.33-.98-.33-.54 0-.96.29-1.26.87-.31.58-.48 1.36-.51 2.35.44-.71 1-1.07 1.68-1.07.52 0 .95.2 1.28.59zm-.47 3.23c.23-.36.34-.86.34-1.5 0-.62-.11-1.08-.33-1.38-.22-.29-.52-.44-.9-.44-.32 0-.62.11-.9.32-.28.22-.51.52-.7.9.01.87.14 1.53.38 1.97.24.44.61.67 1.12.67.44.01.77-.17.99-.54zM112.52 256.22c0 2.51-.69 3.77-2.08 3.77-.69 0-1.21-.31-1.56-.94-.35-.63-.53-1.57-.53-2.84 0-2.51.7-3.77 2.09-3.77s2.08 1.26 2.08 3.78zm-3.17-2.49c-.24.52-.36 1.34-.36 2.48s.12 1.97.36 2.49c.24.52.6.78 1.09.78.48 0 .84-.26 1.08-.78.24-.52.36-1.34.36-2.48s-.12-1.97-.36-2.49c-.24-.52-.6-.78-1.08-.78-.48.01-.84.26-1.09.78zM131.78 252.56v.48l-2.58 6.92-.56-.19 2.52-6.69h-3.07v-.53h3.69zM136.99 256.22c0 2.51-.69 3.77-2.08 3.77-.69 0-1.21-.31-1.56-.94-.35-.63-.53-1.57-.53-2.84 0-2.51.7-3.77 2.09-3.77s2.08 1.26 2.08 3.78zm-3.17-2.49c-.24.52-.36 1.34-.36 2.48s.12 1.97.36 2.49c.24.52.61.78 1.09.78.48 0 .84-.26 1.08-.78.24-.52.36-1.34.36-2.48s-.12-1.97-.36-2.49c-.24-.52-.6-.78-1.08-.78-.48.01-.85.26-1.09.78zM156.69 256.8c.24.3.36.7.36 1.17 0 .62-.2 1.12-.59 1.48-.4.36-.92.54-1.57.54s-1.17-.18-1.56-.55c-.38-.37-.58-.85-.58-1.45 0-.96.48-1.64 1.45-2.05-.41-.2-.71-.43-.89-.69-.18-.26-.27-.59-.27-1 0-.38.09-.71.26-.99s.4-.49.68-.63.59-.21.93-.21c.33 0 .64.07.92.2s.51.34.69.61c.17.27.26.61.26 1s-.1.72-.29.99-.5.52-.93.76c.51.25.89.52 1.13.82zm-.69 2.3c.27-.25.41-.62.41-1.12 0-.44-.1-.78-.31-1.01-.21-.24-.58-.46-1.13-.68l-.34-.14c-.44.2-.76.44-.96.74-.2.29-.3.66-.3 1.11 0 .48.14.85.41 1.11.27.25.64.38 1.11.38s.84-.14 1.11-.39zm-2.11-3.99c.17.2.49.4.94.59l.31.13c.36-.22.62-.45.78-.69s.24-.53.24-.86c0-.44-.11-.78-.34-1.01-.23-.23-.54-.35-.92-.35s-.69.11-.92.34c-.23.23-.35.56-.35 1.01 0 .36.09.64.26.84zM162.43 256.22c0 2.51-.69 3.77-2.08 3.77-.69 0-1.21-.31-1.56-.94s-.53-1.57-.53-2.84c0-2.51.7-3.77 2.09-3.77s2.08 1.26 2.08 3.78zm-3.16-2.49c-.24.52-.36 1.34-.36 2.48s.12 1.97.36 2.49c.24.52.6.78 1.09.78.48 0 .84-.26 1.08-.78.24-.52.36-1.34.36-2.48s-.12-1.97-.36-2.49c-.24-.52-.6-.78-1.08-.78s-.85.26-1.09.78zM181.3 253.2c.33.51.5 1.24.5 2.2 0 .94-.12 1.71-.37 2.31-.25.6-.61 1.08-1.08 1.44-.48.36-1.11.67-1.89.93l-.15-.47c.91-.31 1.6-.73 2.07-1.25.47-.53.73-1.26.79-2.19-.4.65-.93.97-1.58.97-.34 0-.65-.09-.93-.28s-.49-.45-.65-.8c-.16-.35-.24-.76-.24-1.23 0-.51.09-.94.26-1.3a1.866 1.866 0 011.76-1.1c.67.01 1.17.26 1.51.77zm-.79 3.14c.25-.19.47-.47.68-.84-.01-.89-.12-1.54-.34-1.95-.22-.41-.57-.61-1.05-.61-.45 0-.79.16-1.04.48-.25.32-.37.79-.37 1.42 0 .57.12 1.01.35 1.32.23.31.54.46.94.46.3.01.58-.08.83-.28zM187.28 256.22c0 2.51-.69 3.77-2.08 3.77-.69 0-1.21-.31-1.56-.94s-.53-1.57-.53-2.84c0-2.51.7-3.77 2.09-3.77 1.38 0 2.08 1.26 2.08 3.78zm-3.17-2.49c-.24.52-.36 1.34-.36 2.48s.12 1.97.36 2.49c.24.52.6.78 1.09.78.48 0 .84-.26 1.08-.78.24-.52.36-1.34.36-2.48s-.12-1.97-.36-2.49c-.24-.52-.6-.78-1.08-.78-.49.01-.85.26-1.09.78zM280.51 252.96c.33.34.49.78.49 1.31 0 .48-.12.86-.37 1.15-.25.29-.58.48-1 .57.46.04.84.22 1.12.53.29.31.43.74.43 1.3 0 .42-.09.8-.26 1.13-.17.33-.42.59-.74.78-.32.19-.69.28-1.11.28-.4 0-.76-.08-1.07-.23-.31-.15-.59-.39-.86-.72l.4-.32c.23.27.47.46.7.58.23.11.51.17.81.17.46 0 .83-.15 1.09-.45.26-.3.4-.71.4-1.22 0-1.03-.51-1.54-1.54-1.54h-.43l.07-.5h.33c.39 0 .72-.13 1-.38s.42-.62.42-1.09c0-.42-.12-.75-.35-.99-.23-.24-.54-.36-.93-.36-.28 0-.53.05-.76.16-.23.11-.45.28-.68.51l-.34-.35c.26-.28.54-.49.84-.62.3-.14.62-.2.97-.2.59-.02 1.04.15 1.37.5zM286.67 256.22c0 2.51-.69 3.77-2.08 3.77-.69 0-1.21-.31-1.56-.94-.35-.63-.53-1.57-.53-2.84 0-2.51.7-3.77 2.09-3.77s2.08 1.26 2.08 3.78zm-3.17-2.49c-.24.52-.36 1.34-.36 2.48s.12 1.97.36 2.49c.24.52.61.78 1.09.78.48 0 .84-.26 1.08-.78.24-.52.36-1.34.36-2.48s-.12-1.97-.36-2.49c-.24-.52-.6-.78-1.08-.78-.48.01-.85.26-1.09.78zM255.64 252.96c.33.35.5.8.5 1.36 0 .47-.09.92-.27 1.34-.18.43-.46.89-.85 1.41-.39.51-1 1.26-1.83 2.25h3.12l-.09.55h-3.73v-.52c.88-1.06 1.52-1.85 1.92-2.39s.69-1 .85-1.39.24-.8.24-1.23c0-.43-.11-.77-.33-1.01-.22-.24-.52-.36-.9-.36-.3 0-.57.07-.8.2-.23.14-.45.34-.67.62l-.42-.31c.26-.35.54-.61.85-.79.31-.17.66-.26 1.05-.26.58.01 1.03.18 1.36.53zM261.69 256.22c0 2.51-.69 3.77-2.08 3.77-.69 0-1.21-.31-1.56-.94-.35-.63-.53-1.57-.53-2.84 0-2.51.7-3.77 2.09-3.77s2.08 1.26 2.08 3.78zm-3.17-2.49c-.24.52-.36 1.34-.36 2.48s.12 1.97.36 2.49c.24.52.61.78 1.09.78.48 0 .84-.26 1.08-.78.24-.52.36-1.34.36-2.48s-.12-1.97-.36-2.49c-.24-.52-.6-.78-1.08-.78-.48.01-.85.26-1.09.78z"/><path class="st20" d="M448.79 252.61c.33.18.59.42.76.73.18.31.26.66.26 1.05 0 .42-.08.82-.24 1.2-.16.38-.43.82-.81 1.29-.38.48-.93 1.11-1.67 1.9h2.86l-.14 1.09h-4.22v-1.01c.81-.92 1.41-1.63 1.79-2.11.38-.48.64-.89.79-1.23s.23-.69.23-1.06c0-.34-.08-.6-.25-.78s-.39-.27-.68-.27c-.24 0-.46.06-.64.18s-.39.31-.61.57l-.83-.64c.56-.8 1.3-1.2 2.2-1.2.47.02.87.11 1.2.29zM455.08 253.31c.41.65.62 1.6.62 2.87 0 1.28-.21 2.25-.62 2.89-.41.65-1.02.97-1.81.97-.8 0-1.41-.32-1.82-.97-.41-.65-.62-1.61-.62-2.89s.21-2.24.62-2.88 1.02-.96 1.82-.96c.79 0 1.4.33 1.81.97zm-2.4.33c-.15.17-.26.46-.33.87s-.11.96-.11 1.67c0 .72.04 1.28.11 1.69.07.41.18.7.33.87.15.17.34.26.58.26.24 0 .44-.08.58-.25.15-.17.26-.46.33-.87s.11-.97.11-1.69-.04-1.28-.11-1.68c-.07-.4-.18-.69-.33-.86a.73.73 0 00-.58-.25.665.665 0 00-.58.24zM460.94 253.31c.41.65.62 1.6.62 2.87 0 1.28-.21 2.25-.62 2.89-.41.65-1.02.97-1.82.97s-1.41-.32-1.82-.97c-.41-.65-.62-1.61-.62-2.89s.21-2.24.62-2.88 1.02-.96 1.82-.96c.81 0 1.41.33 1.82.97zm-2.4.33c-.15.17-.26.46-.33.87s-.11.96-.11 1.67c0 .72.04 1.28.11 1.69.07.41.18.7.33.87.15.17.34.26.58.26.24 0 .44-.08.58-.25s.26-.46.33-.87.11-.97.11-1.69-.04-1.28-.11-1.68-.18-.69-.33-.86a.73.73 0 00-.58-.25.676.676 0 00-.58.24zM466.81 253.31c.41.65.62 1.6.62 2.87 0 1.28-.21 2.25-.62 2.89-.41.65-1.02.97-1.81.97-.8 0-1.41-.32-1.82-.97-.41-.65-.62-1.61-.62-2.89s.21-2.24.62-2.88 1.02-.96 1.82-.96c.79 0 1.4.33 1.81.97zm-2.4.33c-.15.17-.26.46-.33.87s-.11.96-.11 1.67c0 .72.04 1.28.11 1.69.07.41.18.7.33.87.15.17.34.26.58.26.24 0 .44-.08.58-.25.15-.17.26-.46.33-.87s.11-.97.11-1.69-.04-1.28-.11-1.68c-.07-.4-.18-.69-.33-.86a.73.73 0 00-.58-.25.654.654 0 00-.58.24z"/><path class="st15" d="M479.56 252.56v7.31h-.62v-6.63l-1.61 1.11-.29-.44 1.98-1.35h.54zM485.63 256.22c0 2.51-.69 3.77-2.08 3.77-.69 0-1.21-.31-1.56-.94-.35-.63-.53-1.57-.53-2.84 0-2.51.7-3.77 2.09-3.77s2.08 1.26 2.08 3.78zm-3.17-2.49c-.24.52-.36 1.34-.36 2.48s.12 1.97.36 2.49c.24.52.6.78 1.09.78.48 0 .84-.26 1.08-.78.24-.52.36-1.34.36-2.48s-.12-1.97-.36-2.49c-.24-.52-.6-.78-1.08-.78-.48.01-.85.26-1.09.78z"/><path class="st20" d="M499.39 252.61c.33.18.59.42.76.73.18.31.26.66.26 1.05 0 .42-.08.82-.24 1.2-.16.38-.43.82-.81 1.29-.38.48-.93 1.11-1.67 1.9h2.86l-.14 1.09h-4.22v-1.01c.81-.92 1.41-1.63 1.79-2.11.38-.48.64-.89.79-1.23s.23-.69.23-1.06c0-.34-.08-.6-.25-.78s-.39-.27-.68-.27c-.24 0-.46.06-.64.18s-.39.31-.61.57l-.83-.64c.56-.8 1.3-1.2 2.2-1.2.47.02.87.11 1.2.29zM505.68 253.31c.41.65.62 1.6.62 2.87 0 1.28-.21 2.25-.62 2.89-.41.65-1.02.97-1.81.97-.8 0-1.41-.32-1.82-.97-.41-.65-.62-1.61-.62-2.89s.21-2.24.62-2.88 1.02-.96 1.82-.96c.79 0 1.4.33 1.81.97zm-2.4.33c-.15.17-.26.46-.33.87s-.11.96-.11 1.67c0 .72.04 1.28.11 1.69.07.41.18.7.33.87.15.17.34.26.58.26.24 0 .44-.08.58-.25.15-.17.26-.46.33-.87s.11-.97.11-1.69-.04-1.28-.11-1.68c-.07-.4-.18-.69-.33-.86a.73.73 0 00-.58-.25.665.665 0 00-.58.24zM510.38 252.47v7.4h-1.35v-6.02l-1.46.99-.6-.9 2.2-1.47h1.21zM516.28 256.74c.23.32.35.7.35 1.14 0 .42-.1.79-.31 1.12-.21.33-.5.58-.88.76-.38.18-.83.27-1.34.27-.51 0-.94-.09-1.31-.27-.37-.18-.65-.43-.85-.75s-.3-.68-.3-1.09c0-.45.11-.82.34-1.13.22-.3.56-.56 1-.75-.37-.22-.65-.47-.81-.76-.17-.29-.25-.62-.25-.99 0-.4.1-.75.29-1.04s.46-.52.8-.67.71-.23 1.13-.23c.65 0 1.19.17 1.61.5.42.33.63.8.63 1.4 0 .35-.09.67-.28.94-.19.27-.48.52-.89.73.48.22.84.5 1.07.82zm-1.32 1.99c.19-.19.29-.47.29-.84 0-.34-.09-.61-.26-.81s-.48-.38-.92-.56l-.29-.12c-.52.31-.78.8-.78 1.47 0 .38.1.67.29.86.19.19.47.29.83.29.37 0 .65-.1.84-.29zm-1.75-4.42c0 .3.07.54.22.7.15.17.39.33.73.47l.19.08c.26-.18.44-.36.54-.56.1-.2.15-.43.15-.7 0-.33-.08-.58-.23-.75-.15-.17-.38-.25-.68-.25-.61 0-.92.33-.92 1.01z"/><path class="st15" d="M306.54 257.43v.52h-.88v1.92h-.59v-1.92h-2.89v-.47l2-5.04.53.2-1.89 4.8h2.25l.07-2.16h.53v2.16h.87zM311.74 256.22c0 2.51-.69 3.77-2.08 3.77-.69 0-1.21-.31-1.56-.94s-.53-1.57-.53-2.84c0-2.51.7-3.77 2.09-3.77s2.08 1.26 2.08 3.78zm-3.16-2.49c-.24.52-.36 1.34-.36 2.48s.12 1.97.36 2.49c.24.52.6.78 1.09.78.48 0 .84-.26 1.08-.78.24-.52.36-1.34.36-2.48s-.12-1.97-.36-2.49c-.24-.52-.6-.78-1.08-.78s-.85.26-1.09.78zM330.83 253.08h-2.66v2.52c.34-.24.72-.35 1.12-.35.56 0 1.02.2 1.35.61.34.4.51.96.51 1.67 0 .48-.09.91-.26 1.29s-.43.67-.75.87c-.32.21-.7.31-1.13.31-.39 0-.73-.08-1.03-.23s-.58-.37-.85-.65l.4-.35c.21.24.44.42.67.53.23.11.51.17.81.17.46 0 .83-.17 1.1-.52.27-.35.41-.83.41-1.44 0-.6-.12-1.04-.37-1.33-.25-.29-.58-.43-1-.43-.21 0-.4.03-.56.08-.16.05-.34.14-.54.27h-.47v-3.54h3.35l-.1.52zM336.51 256.22c0 2.51-.69 3.77-2.08 3.77-.69 0-1.21-.31-1.56-.94-.35-.63-.53-1.57-.53-2.84 0-2.51.7-3.77 2.09-3.77s2.08 1.26 2.08 3.78zm-3.17-2.49c-.24.52-.36 1.34-.36 2.48s.12 1.97.36 2.49c.24.52.6.78 1.09.78.48 0 .84-.26 1.08-.78.24-.52.36-1.34.36-2.48s-.12-1.97-.36-2.49c-.24-.52-.6-.78-1.08-.78-.48.01-.85.26-1.09.78zM355.75 255.7c.33.39.5.96.5 1.71 0 .54-.08 1.01-.25 1.4-.16.39-.39.68-.69.88-.29.2-.63.3-1.01.3-.73 0-1.27-.3-1.61-.91-.34-.61-.51-1.44-.51-2.5 0-.87.1-1.61.29-2.23s.47-1.1.83-1.42.79-.49 1.28-.49c.45 0 .86.14 1.24.43l-.28.42c-.3-.22-.63-.33-.98-.33-.54 0-.96.29-1.27.87-.31.58-.48 1.36-.51 2.35.44-.71 1-1.07 1.68-1.07.54 0 .96.2 1.29.59zm-.46 3.23c.23-.36.34-.86.34-1.5 0-.62-.11-1.08-.33-1.38-.22-.29-.52-.44-.9-.44-.32 0-.62.11-.9.32-.27.22-.51.52-.7.9.01.87.14 1.53.38 1.97.24.44.61.67 1.12.67.43.01.76-.17.99-.54zM361.64 256.22c0 2.51-.69 3.77-2.08 3.77-.69 0-1.21-.31-1.56-.94-.35-.63-.53-1.57-.53-2.84 0-2.51.7-3.77 2.09-3.77 1.38 0 2.08 1.26 2.08 3.78zm-3.17-2.49c-.24.52-.36 1.34-.36 2.48s.12 1.97.36 2.49c.24.52.61.78 1.09.78.48 0 .84-.26 1.08-.78.24-.52.36-1.34.36-2.48s-.12-1.97-.36-2.49c-.24-.52-.6-.78-1.08-.78-.49.01-.85.26-1.09.78zM380.87 252.56v.48l-2.58 6.92-.56-.19 2.52-6.69h-3.07v-.53h3.69zM386.08 256.22c0 2.51-.69 3.77-2.08 3.77-.69 0-1.21-.31-1.56-.94-.35-.63-.53-1.57-.53-2.84 0-2.51.7-3.77 2.09-3.77s2.08 1.26 2.08 3.78zm-3.16-2.49c-.24.52-.36 1.34-.36 2.48s.12 1.97.36 2.49c.24.52.6.78 1.09.78.48 0 .84-.26 1.08-.78.24-.52.36-1.34.36-2.48s-.12-1.97-.36-2.49c-.24-.52-.6-.78-1.08-.78-.49.01-.85.26-1.09.78z"/><g><path class="st15" d="M405.75 256.8c.24.3.36.7.36 1.17 0 .62-.2 1.12-.59 1.48-.4.36-.92.54-1.57.54s-1.17-.18-1.56-.55c-.38-.37-.58-.85-.58-1.45 0-.96.48-1.64 1.45-2.05-.41-.2-.71-.43-.89-.69-.18-.26-.27-.59-.27-1 0-.38.09-.71.26-.99s.4-.49.68-.63.59-.21.93-.21c.33 0 .64.07.92.2s.51.34.69.61c.17.27.26.61.26 1s-.1.72-.29.99-.5.52-.93.76c.52.25.9.52 1.13.82zm-.68 2.3c.27-.25.41-.62.41-1.12 0-.44-.1-.78-.31-1.01-.21-.24-.58-.46-1.13-.68l-.34-.14c-.44.2-.76.44-.96.74-.2.29-.3.66-.3 1.11 0 .48.14.85.41 1.11.27.25.64.38 1.11.38s.84-.14 1.11-.39zm-2.11-3.99c.17.2.49.4.94.59l.31.13c.36-.22.62-.45.78-.69s.24-.53.24-.86c0-.44-.11-.78-.34-1.01-.23-.23-.54-.35-.92-.35s-.69.11-.92.34c-.23.23-.35.56-.35 1.01 0 .36.09.64.26.84zM411.5 256.22c0 2.51-.69 3.77-2.08 3.77-.69 0-1.21-.31-1.56-.94s-.53-1.57-.53-2.84c0-2.51.7-3.77 2.09-3.77s2.08 1.26 2.08 3.78zm-3.17-2.49c-.24.52-.36 1.34-.36 2.48s.12 1.97.36 2.49c.24.52.6.78 1.09.78.48 0 .84-.26 1.08-.78.24-.52.36-1.34.36-2.48s-.12-1.97-.36-2.49c-.24-.52-.6-.78-1.08-.78s-.84.26-1.09.78z"/></g><g><path class="st15" d="M430.34 253.2c.33.51.5 1.24.5 2.2 0 .94-.12 1.71-.37 2.31-.25.6-.61 1.08-1.08 1.44s-1.11.67-1.89.93l-.15-.47c.91-.31 1.6-.73 2.07-1.25.47-.53.74-1.26.79-2.19-.4.65-.93.97-1.58.97-.34 0-.65-.09-.93-.28-.28-.18-.49-.45-.65-.8-.16-.35-.24-.76-.24-1.23 0-.51.09-.94.26-1.3.17-.36.41-.63.71-.82.3-.19.65-.28 1.04-.28.68.01 1.19.26 1.52.77zm-.79 3.14c.25-.19.47-.47.68-.84-.01-.89-.12-1.54-.33-1.95-.22-.41-.57-.61-1.05-.61-.45 0-.79.16-1.04.48-.25.32-.37.79-.37 1.42 0 .57.12 1.01.35 1.32.23.31.54.46.94.46.3.01.58-.08.82-.28zM436.32 256.22c0 2.51-.69 3.77-2.08 3.77-.69 0-1.21-.31-1.56-.94s-.53-1.57-.53-2.84c0-2.51.7-3.77 2.09-3.77s2.08 1.26 2.08 3.78zm-3.17-2.49c-.24.52-.36 1.34-.36 2.48s.12 1.97.36 2.49c.24.52.6.78 1.09.78.48 0 .84-.26 1.08-.78.24-.52.36-1.34.36-2.48s-.12-1.97-.36-2.49c-.24-.52-.6-.78-1.08-.78s-.84.26-1.09.78z"/></g><g><path class="st23" d="M13.94 198.03c.33.35.49.8.49 1.36 0 .47-.09.92-.27 1.34-.18.43-.46.89-.85 1.41-.38.51-1 1.26-1.83 2.25h3.12l-.09.55h-3.73v-.52c.88-1.06 1.52-1.85 1.93-2.39.4-.54.69-1 .85-1.39.16-.39.24-.8.24-1.23 0-.43-.11-.77-.33-1.01-.22-.24-.52-.36-.9-.36-.3 0-.57.07-.8.2-.23.14-.45.34-.67.62l-.42-.31c.26-.35.54-.61.85-.79.31-.17.66-.26 1.05-.26.58.01 1.03.18 1.36.53zM19.99 201.29c0 2.51-.69 3.77-2.08 3.77-.69 0-1.21-.31-1.56-.94-.35-.63-.53-1.57-.53-2.84 0-2.51.7-3.77 2.09-3.77 1.38 0 2.08 1.26 2.08 3.78zm-3.17-2.49c-.24.52-.36 1.34-.36 2.48s.12 1.97.36 2.49c.24.52.6.78 1.09.78.48 0 .84-.26 1.08-.78.24-.52.36-1.34.36-2.48s-.12-1.97-.36-2.49c-.24-.52-.6-.78-1.08-.78-.49 0-.85.26-1.09.78z"/></g><g><path class="st23" d="M14.79 168.09v.52h-.88v1.92h-.59v-1.92h-2.89v-.47l2-5.04.53.2-1.89 4.8h2.26l.07-2.16h.53v2.16h.86zM19.99 166.88c0 2.51-.69 3.77-2.08 3.77-.69 0-1.21-.31-1.56-.94s-.53-1.57-.53-2.84c0-2.51.7-3.77 2.09-3.77 1.38-.01 2.08 1.26 2.08 3.78zm-3.17-2.49c-.24.52-.36 1.34-.36 2.48s.12 1.97.36 2.49c.24.52.6.78 1.09.78.48 0 .84-.26 1.08-.78.24-.52.36-1.34.36-2.48s-.12-1.97-.36-2.49c-.24-.52-.6-.78-1.08-.78-.48 0-.85.26-1.09.78z"/></g><g><path class="st23" d="M14.1 131.94c.33.39.49.96.49 1.71 0 .54-.08 1.01-.25 1.4s-.39.68-.69.88c-.29.2-.63.3-1.01.3-.73 0-1.27-.3-1.61-.91-.34-.61-.51-1.44-.51-2.5 0-.87.1-1.61.29-2.23.19-.62.47-1.1.83-1.42s.78-.49 1.28-.49c.45 0 .86.14 1.24.43l-.27.42c-.3-.22-.63-.33-.98-.33-.54 0-.96.29-1.26.87-.31.58-.48 1.36-.51 2.35.44-.71 1-1.07 1.68-1.07.53.01.95.2 1.28.59zm-.46 3.24c.23-.36.34-.86.34-1.5 0-.62-.11-1.08-.33-1.38-.22-.29-.52-.44-.9-.44-.32 0-.62.11-.9.32-.28.22-.51.52-.7.9.01.87.14 1.53.38 1.97.24.44.61.67 1.12.67.43 0 .76-.18.99-.54zM19.99 132.47c0 2.51-.69 3.77-2.08 3.77-.69 0-1.21-.31-1.56-.94-.35-.63-.53-1.57-.53-2.84 0-2.51.7-3.77 2.09-3.77 1.38-.01 2.08 1.25 2.08 3.78zm-3.17-2.5c-.24.52-.36 1.34-.36 2.48s.12 1.97.36 2.49c.24.52.6.78 1.09.78.48 0 .84-.26 1.08-.78.24-.52.36-1.34.36-2.48s-.12-1.97-.36-2.49c-.24-.52-.6-.78-1.08-.78-.49.01-.85.27-1.09.78z"/></g><g><path class="st23" d="M14.32 97.59c.24.3.36.7.36 1.17 0 .62-.2 1.12-.59 1.48-.4.36-.92.54-1.57.54s-1.17-.18-1.56-.55c-.38-.37-.58-.85-.58-1.45 0-.96.48-1.64 1.45-2.05-.41-.2-.71-.43-.89-.69-.18-.26-.27-.59-.27-1 0-.38.09-.71.26-.99s.4-.49.68-.63.59-.21.93-.21c.33 0 .64.07.92.2.29.14.52.34.69.61s.26.6.26 1c0 .39-.1.72-.29.99s-.5.52-.93.76c.51.25.89.52 1.13.82zm-.68 2.3c.27-.25.41-.62.41-1.12 0-.44-.1-.78-.31-1.01s-.58-.46-1.13-.68l-.34-.14c-.44.2-.76.44-.96.74s-.31.66-.31 1.1c0 .48.14.85.41 1.11.27.25.64.38 1.11.38.47 0 .84-.13 1.12-.38zm-2.12-3.99c.17.2.49.4.94.59l.31.13c.36-.22.62-.45.78-.69s.24-.53.24-.86c0-.44-.11-.78-.34-1.01-.23-.23-.54-.35-.92-.35s-.69.11-.92.34c-.23.23-.35.56-.35 1.01 0 .36.09.63.26.84zM20.06 97.01c0 2.52-.69 3.77-2.08 3.77-.69 0-1.21-.31-1.56-.94-.35-.63-.53-1.58-.53-2.84 0-2.52.7-3.77 2.09-3.77s2.08 1.26 2.08 3.78zm-3.16-2.49c-.24.52-.36 1.34-.36 2.48s.12 1.97.36 2.49c.24.52.61.78 1.09.78.48 0 .84-.26 1.08-.78.24-.52.36-1.34.36-2.48s-.12-1.97-.36-2.49c-.24-.52-.6-.78-1.08-.78-.49.01-.85.26-1.09.78zM24.73 100.52c-.17-.18-.25-.43-.25-.76v-7.19l.62-.08v7.26c0 .34.14.51.42.51.12 0 .23-.03.35-.08l.15.45c-.18.1-.38.15-.6.15-.3.01-.52-.08-.69-.26zM31.05 98.04h-3.47c.03.77.19 1.33.47 1.69s.66.53 1.13.53c.27 0 .51-.04.72-.13s.43-.23.65-.42l.31.38c-.26.23-.52.4-.8.52s-.58.18-.91.18c-.69 0-1.23-.26-1.63-.77-.4-.51-.59-1.24-.59-2.18 0-.95.19-1.7.57-2.24.38-.54.89-.81 1.55-.81.65 0 1.15.24 1.5.73.34.48.52 1.17.52 2.06.01.15 0 .31-.02.46zm-.58-.66c0-.67-.12-1.18-.35-1.54-.23-.36-.59-.53-1.06-.53-.43 0-.77.18-1.03.54-.26.36-.41.93-.44 1.71h2.88v-.18zM35.08 100.42c-.34.24-.7.36-1.1.36-.4 0-.72-.12-.95-.36-.23-.24-.34-.58-.34-1.02v-3.98h-.87v-.51h.87v-1.38l.62-.08v1.45h1.33l-.08.51h-1.25v3.96c0 .59.25.88.74.88.25 0 .51-.08.78-.24l.25.41z"/></g><g><path class="st23" d="M15.22 72.61h-1.2l-2.45-5.91c.08.88.12 1.74.12 2.57v3.34h-.84v-6.88h1.19l2.46 5.92c-.03-.23-.05-.55-.08-.96-.03-.41-.04-.81-.04-1.21v-3.75h.85v6.88zM20.25 71.88c.06.1.15.18.28.23l-.19.61c-.26-.04-.46-.12-.61-.24-.15-.12-.25-.3-.31-.55-.34.53-.82.8-1.43.8-.47 0-.84-.14-1.11-.43s-.41-.68-.41-1.17c0-.56.18-.99.55-1.28.37-.29.89-.44 1.57-.44h.68v-.45c0-.37-.07-.63-.22-.79-.15-.16-.4-.25-.74-.25-.37 0-.79.09-1.28.28l-.22-.63c.59-.24 1.13-.36 1.64-.36 1.14 0 1.71.57 1.71 1.71v2.48c0 .22.03.38.09.48zm-.98-.64V70h-.58c-.87 0-1.3.36-1.3 1.09 0 .31.07.55.21.72.14.17.34.25.6.25.47 0 .82-.28 1.07-.82zM25.52 65.22v7.39h-.8l-.06-.69c-.34.55-.8.82-1.37.82-.57 0-1.02-.24-1.33-.73-.32-.49-.48-1.16-.48-2.01 0-.55.08-1.04.24-1.46.16-.42.38-.75.67-.98.29-.23.62-.34.99-.34.5 0 .92.21 1.25.63v-2.73l.89.1zm-1.4 6.61c.18-.13.34-.33.49-.59V68.6c-.3-.45-.65-.67-1.05-.67-.35 0-.63.17-.84.51-.21.34-.31.85-.3 1.54 0 .7.09 1.22.28 1.55.19.33.45.5.79.5.25 0 .46-.07.63-.2zM30.81 70.29h-3.06c.03.61.15 1.05.37 1.32s.52.41.9.41c.24 0 .46-.04.65-.11s.39-.19.6-.36l.4.53c-.49.44-1.05.66-1.68.66-.69 0-1.22-.24-1.59-.71-.38-.48-.57-1.14-.57-2s.18-1.54.54-2.04c.36-.5.86-.75 1.5-.75.63 0 1.12.22 1.46.67.34.45.51 1.09.51 1.92-.01.13-.02.28-.03.46zm-.8-5.51l.35.4-1.21 1.16h-.56l-1.21-1.16.35-.4 1.14.88 1.14-.88zm-.05 4.77c0-1.1-.36-1.65-1.09-1.65-.33 0-.6.14-.79.42-.19.28-.3.73-.33 1.34h2.21v-.11zM32.98 72.4c0 .45-.06.81-.17 1.09-.12.28-.28.51-.5.69-.22.18-.51.35-.88.53l-.28-.65c.23-.12.41-.24.54-.36.13-.12.22-.28.29-.48s.1-.47.1-.8v-5.07h.9v5.05zm-.03-7.36c.11.11.17.25.17.42 0 .17-.05.3-.16.42a.58.58 0 01-.43.17c-.17 0-.31-.06-.42-.17a.573.573 0 01-.17-.42c0-.17.06-.31.17-.42.11-.11.25-.17.42-.17.17 0 .31.05.42.17zM38.27 70.29h-3.06c.03.61.15 1.05.37 1.32s.52.41.9.41c.24 0 .46-.04.65-.11s.39-.19.6-.36l.4.53c-.49.44-1.05.66-1.68.66-.69 0-1.22-.24-1.59-.71-.38-.48-.57-1.14-.57-2s.18-1.54.54-2.04c.36-.5.86-.75 1.5-.75.63 0 1.12.22 1.46.67.34.45.51 1.09.51 1.92-.01.13-.02.28-.03.46zm-.85-.74c0-1.1-.36-1.65-1.09-1.65-.33 0-.6.14-.79.42-.19.28-.3.73-.33 1.34h2.21v-.11zM14.55 76.22v7.39h-.8l-.06-.69c-.34.55-.8.82-1.37.82-.57 0-1.02-.24-1.33-.73-.32-.49-.48-1.16-.48-2.01 0-.55.08-1.04.24-1.46.16-.42.38-.75.67-.98.29-.23.62-.34.99-.34.5 0 .92.21 1.25.63v-2.73l.89.1zm-1.39 6.61c.18-.13.34-.33.49-.59V79.6c-.3-.45-.65-.67-1.05-.67-.35 0-.63.17-.84.51-.21.34-.31.85-.3 1.54 0 .7.09 1.22.28 1.55.19.33.45.5.79.5.24 0 .45-.07.63-.2zM19.57 78.93c.37.47.56 1.15.56 2.04 0 .85-.19 1.53-.57 2.02-.38.5-.9.75-1.57.75s-1.2-.24-1.57-.73c-.38-.49-.57-1.16-.57-2.03 0-.87.19-1.55.57-2.04s.91-.72 1.58-.72 1.2.23 1.57.71zm-2.47.5c-.21.33-.31.84-.31 1.54 0 1.37.4 2.05 1.2 2.05.8 0 1.2-.69 1.2-2.06 0-.7-.1-1.21-.3-1.54-.2-.33-.5-.49-.89-.49-.39.01-.69.17-.9.5zM24.3 78.35v.67l-2.49 3.85h2.5l-.09.74h-3.4v-.67l2.49-3.85h-2.28v-.74h3.27zm-.53-2.57l.35.4-1.21 1.16h-.56l-1.21-1.16.35-.4 1.14.88 1.14-.88zM26.25 76.04c.11.11.17.25.17.42 0 .17-.05.3-.16.42a.58.58 0 01-.43.17c-.17 0-.31-.06-.43-.17a.573.573 0 01-.17-.42.58.58 0 01.6-.59c.18 0 .31.05.42.17zm.03 2.31v5.26h-.9v-5.26h.9zM30.39 83.38c-.33.24-.7.36-1.11.36-.43 0-.75-.12-.98-.37-.23-.25-.35-.59-.35-1.04v-3.3h-.75v-.68h.75v-1.21l.9-.11v1.32h1.16l-.1.68h-1.06v3.29c0 .45.19.68.57.68.11 0 .22-.02.31-.05.1-.03.21-.08.33-.15l.33.58zM32.28 75.64l.38.72-1.92.87-.26-.46 1.8-1.13zm-.21 2.71v5.26h-.9v-5.26h.9z"/></g><g><path class="st11" d="M61.99 112.92l-2.01 6.17h-.6l-2.02-6.17h.58l1.74 5.61 1.75-5.61h.56zM66.19 116.93h-3.14c.03.61.18 1.07.44 1.36.26.3.6.45 1.03.45.25 0 .46-.04.65-.11s.39-.19.62-.36l.24.33c-.23.19-.47.34-.72.43-.25.1-.52.14-.82.14-.62 0-1.11-.21-1.47-.64-.35-.43-.53-1.02-.53-1.77 0-.5.08-.93.23-1.31.15-.38.37-.67.66-.87s.62-.31.99-.31c.6 0 1.06.2 1.37.61.31.41.47.96.47 1.67-.01.14-.01.26-.02.38zm-.5-.54c0-.53-.11-.94-.33-1.24-.22-.3-.54-.45-.98-.45-.39 0-.71.15-.94.45-.24.3-.37.76-.4 1.37h2.65v-.13zM72.11 113.2c.25.13.44.31.57.54.13.23.2.48.2.76 0 .39-.11.71-.33.95-.22.24-.5.39-.85.45.39.02.71.16.97.42.25.26.38.62.38 1.08 0 .35-.08.66-.23.93-.16.27-.38.48-.67.63-.29.15-.62.23-1 .23-.7 0-1.27-.26-1.72-.77l.33-.3c.2.22.42.38.63.48.22.1.46.15.73.15.43 0 .77-.12 1.02-.37s.37-.57.37-.97c0-.84-.45-1.26-1.35-1.26h-.4l.07-.42h.29c.34 0 .63-.1.87-.31s.36-.5.36-.89c0-.33-.11-.59-.32-.79-.21-.19-.49-.29-.84-.29-.25 0-.48.04-.69.13-.21.09-.42.23-.64.43l-.28-.32c.24-.23.49-.4.76-.51s.56-.17.88-.17c.35-.01.64.06.89.19zM77.5 113.79c.32.52.48 1.29.48 2.31 0 1.01-.16 1.77-.48 2.3-.32.52-.79.79-1.4.79-.62 0-1.09-.26-1.4-.79s-.48-1.29-.48-2.31c0-1.01.16-1.78.48-2.3.32-.52.79-.78 1.4-.78s1.08.25 1.4.78zm-2.75 2.3c0 1.78.45 2.66 1.34 2.66.44 0 .77-.22.99-.65s.34-1.1.34-2.01c0-.91-.11-1.58-.34-2.01s-.56-.65-.99-.65c-.89 0-1.34.89-1.34 2.66zM79.81 118.45c.08.08.12.18.12.3 0 .13-.04.23-.12.31s-.18.12-.31.12c-.12 0-.22-.04-.31-.13-.08-.08-.13-.19-.13-.31s.04-.22.13-.3a.43.43 0 01.31-.12c.12.01.23.05.31.13zM84.07 118.96c-.15-.15-.22-.37-.22-.67v-5.83l.52-.06v5.88c0 .31.13.46.38.46.13 0 .23-.02.32-.06l.14.39c-.17.08-.35.13-.54.13-.25-.02-.45-.09-.6-.24zM89.73 116.93h-3.14c.03.61.18 1.07.44 1.36.26.3.6.45 1.03.45.25 0 .46-.04.65-.11s.39-.19.62-.36l.24.33c-.23.19-.47.34-.72.43-.25.1-.52.14-.82.14-.62 0-1.11-.21-1.47-.64-.35-.43-.53-1.02-.53-1.77 0-.5.08-.93.23-1.31.15-.38.37-.67.66-.87s.62-.31.99-.31c.6 0 1.06.2 1.37.61.31.41.47.96.47 1.67 0 .14-.01.26-.02.38zm-.5-.54c0-.53-.11-.94-.33-1.24-.22-.3-.54-.45-.98-.45-.39 0-.71.15-.95.45-.24.3-.37.76-.4 1.37h2.65v-.13zM93.37 118.89c-.3.2-.63.3-.99.3s-.64-.11-.85-.32c-.2-.21-.31-.52-.31-.92v-3.14h-.79v-.42h.79v-1.12l.52-.06v1.19h1.21l-.06.42h-1.15v3.11c0 .28.06.48.17.62.11.14.29.2.52.2.24 0 .48-.07.72-.21l.22.35zM97.51 116.93h-3.14c.03.61.18 1.07.44 1.36s.6.45 1.03.45c.25 0 .46-.04.65-.11s.39-.19.62-.36l.24.33c-.23.19-.47.34-.72.43-.25.1-.52.14-.82.14-.62 0-1.11-.21-1.47-.64-.35-.43-.53-1.02-.53-1.77 0-.5.08-.93.23-1.31.15-.38.37-.67.66-.87.28-.21.62-.31.99-.31.6 0 1.06.2 1.37.61.31.41.47.96.47 1.67 0 .14 0 .26-.02.38zm-.49-.54c0-.53-.11-.94-.33-1.24-.22-.3-.54-.45-.98-.45-.39 0-.71.15-.95.45-.24.3-.37.76-.4 1.37h2.65v-.13zM101.35 114.39c.21.08.41.2.61.36l-.26.34a1.71 1.71 0 00-.48-.28c-.17-.06-.35-.09-.56-.09-.44 0-.8.17-1.06.52s-.4.85-.4 1.51c0 .65.13 1.15.39 1.48.26.33.61.5 1.06.5.21 0 .4-.03.57-.1s.34-.17.52-.3l.25.35c-.4.34-.85.5-1.35.5-.4 0-.75-.1-1.05-.29s-.53-.47-.7-.83c-.17-.36-.25-.8-.25-1.3s.08-.93.25-1.31.4-.66.7-.87.65-.31 1.04-.31c.27.01.51.05.72.12zM106.29 114.66c.23.25.34.61.34 1.06v3.37h-.52v-3.29c0-.73-.3-1.09-.89-1.09-.3 0-.57.08-.8.25-.23.17-.45.41-.66.72v3.41h-.52v-6.62l.52-.06v2.76c.42-.59.94-.88 1.56-.88.42-.01.74.12.97.37zM112.68 113.1v5.98h-.52v-5.41l-1.48.92-.24-.39 1.79-1.11h.45zM117.43 113.64c.3.42.45 1.02.45 1.78 0 .77-.11 1.41-.33 1.9s-.55.89-.98 1.18c-.43.29-.99.55-1.7.77l-.13-.4c.83-.25 1.46-.6 1.89-1.04s.67-1.04.72-1.8c-.18.26-.4.47-.65.62-.25.15-.53.22-.83.22-.31 0-.59-.08-.84-.23s-.44-.37-.58-.66c-.14-.28-.21-.62-.21-1 0-.4.08-.74.24-1.04.16-.3.38-.52.65-.68.28-.16.58-.24.93-.24.61-.02 1.06.19 1.37.62zm-.71 2.55c.23-.15.43-.38.63-.67.01-.71-.09-1.24-.3-1.58-.2-.34-.53-.51-.97-.51-.4 0-.72.13-.95.4s-.35.65-.35 1.14c0 .46.11.82.32 1.07s.5.38.86.38c.29 0 .54-.08.76-.23zM119.67 118.45c.08.08.12.18.12.3 0 .13-.04.23-.12.31s-.18.12-.31.12c-.12 0-.22-.04-.31-.13-.08-.08-.13-.19-.13-.31s.04-.22.13-.3a.43.43 0 01.31-.12c.12.01.23.05.31.13zM125.71 114.41c.24.09.47.22.7.39l-.24.34c-.22-.15-.42-.26-.61-.33s-.4-.1-.63-.1c-.31 0-.56.07-.76.22-.19.14-.29.34-.29.58 0 .23.08.41.25.53s.46.25.9.36c.53.14.92.31 1.16.52s.36.51.36.9c0 .42-.16.75-.49 1s-.73.37-1.22.37c-.36 0-.67-.05-.94-.16-.27-.1-.52-.25-.74-.45l.29-.33c.21.17.42.29.64.37.22.08.47.12.74.12.35 0 .63-.08.84-.24.21-.16.32-.38.32-.66 0-.19-.04-.35-.11-.47s-.19-.22-.37-.31-.43-.18-.77-.27c-.5-.13-.86-.3-1.08-.49-.22-.2-.33-.46-.33-.79 0-.23.07-.45.21-.63s.33-.34.56-.44.5-.16.8-.16.57.04.81.13zM130.08 118.89c-.3.2-.63.3-.99.3s-.64-.11-.85-.32c-.2-.21-.31-.52-.31-.92v-3.14h-.79v-.42h.79v-1.12l.52-.06v1.19h1.21l-.06.42h-1.15v3.11c0 .28.06.48.17.62.11.14.29.2.52.2.24 0 .48-.07.72-.21l.22.35zM133.98 114.92c.35.43.53 1.03.53 1.8 0 .76-.18 1.36-.54 1.8-.36.44-.84.66-1.46.66s-1.11-.22-1.46-.65c-.35-.43-.53-1.03-.53-1.8 0-.5.08-.93.24-1.3s.39-.66.69-.85c.3-.2.65-.3 1.06-.3.63 0 1.12.21 1.47.64zm-2.53.31c-.25.34-.38.84-.38 1.5 0 .65.12 1.15.37 1.49s.6.51 1.06.51.81-.17 1.07-.51.38-.85.38-1.51c0-.65-.12-1.15-.37-1.49s-.6-.51-1.07-.51c-.45.01-.81.18-1.06.52zM136.21 118.96c-.15-.15-.22-.37-.22-.67v-5.83l.52-.06v5.88c0 .31.13.46.38.46.13 0 .23-.02.32-.06l.14.39c-.17.08-.35.13-.54.13-.25-.02-.45-.09-.6-.24zM138.89 118.45c.08.08.12.18.12.3 0 .13-.04.23-.12.31s-.18.12-.31.12c-.12 0-.22-.04-.31-.13-.08-.08-.13-.19-.13-.31s.04-.22.13-.3a.43.43 0 01.31-.12c.13.01.23.05.31.13zM60.13 126.41c.24.09.47.22.7.39l-.24.34c-.22-.15-.42-.26-.61-.33s-.4-.1-.63-.1c-.31 0-.56.07-.76.22-.19.14-.29.34-.29.58 0 .23.08.41.25.53s.46.25.9.36c.53.14.92.31 1.16.52s.36.51.36.9c0 .42-.16.75-.49 1s-.73.37-1.22.37c-.36 0-.67-.05-.94-.16-.27-.1-.52-.25-.74-.45l.29-.33c.21.17.42.29.64.37.22.08.47.12.74.12.35 0 .63-.08.84-.24.21-.16.32-.38.32-.66 0-.19-.04-.35-.11-.47s-.19-.22-.37-.31-.43-.18-.77-.27c-.5-.13-.86-.3-1.08-.49-.22-.2-.33-.46-.33-.79 0-.23.07-.45.21-.63s.33-.34.56-.44.5-.16.8-.16.57.04.81.13zM65.67 128.93h-3.14c.03.61.18 1.07.44 1.36.26.3.6.45 1.03.45.25 0 .46-.04.65-.11s.39-.19.62-.36l.24.33c-.23.19-.47.34-.72.43-.25.1-.52.14-.82.14-.62 0-1.11-.21-1.47-.64-.35-.43-.53-1.02-.53-1.77 0-.5.08-.93.23-1.31.15-.38.37-.67.66-.87s.62-.31.99-.31c.6 0 1.06.2 1.37.61.31.41.47.96.47 1.67 0 .14-.01.26-.02.38zm-.49-.54c0-.53-.11-.94-.33-1.24-.22-.3-.54-.45-.98-.45-.39 0-.71.15-.95.45-.24.3-.37.76-.4 1.37h2.65v-.13zM69.86 130.96c-.15-.15-.22-.37-.22-.67v-5.83l.52-.06v5.88c0 .31.13.46.38.46.13 0 .23-.02.32-.06l.14.39c-.17.08-.35.13-.54.13-.25-.02-.45-.09-.6-.24zM72.78 124.42c.07.07.11.16.11.27s-.04.2-.11.27a.4.4 0 01-.29.11c-.11 0-.21-.04-.28-.11-.07-.07-.11-.16-.11-.27s.04-.2.11-.27.17-.11.28-.11c.12 0 .22.03.29.11zm-.02 1.96v4.71h-.52v-4.71h.52zM78.03 124.46v6.62h-.45l-.06-.72c-.32.55-.79.82-1.41.82-.55 0-.98-.22-1.29-.65-.32-.43-.47-1.03-.47-1.78 0-.49.07-.92.22-1.29s.36-.66.64-.87c.28-.21.61-.31.99-.31.53 0 .98.21 1.32.64v-2.52l.51.06zm-1.09 6.08c.21-.14.39-.36.56-.66v-2.46c-.34-.47-.75-.71-1.23-.71-.43 0-.76.18-1.01.53s-.37.85-.36 1.5c0 .65.11 1.14.34 1.49.23.35.54.52.94.52.3 0 .56-.07.76-.21zM83.26 128.93h-3.14c.03.61.18 1.07.44 1.36s.6.45 1.03.45c.25 0 .46-.04.65-.11s.39-.19.62-.36l.24.33c-.23.19-.47.34-.72.43-.25.1-.52.14-.82.14-.62 0-1.11-.21-1.47-.64-.35-.43-.53-1.02-.53-1.77 0-.5.08-.93.23-1.31.15-.38.37-.67.66-.87.28-.21.62-.31.99-.31.6 0 1.06.2 1.37.61.31.41.47.96.47 1.67 0 .14-.01.26-.02.38zm-.5-.54c0-.53-.11-.94-.33-1.24-.22-.3-.54-.45-.98-.45-.39 0-.71.15-.95.45-.24.3-.37.76-.4 1.37h2.65v-.13zm-.62-4.34l.23.47-1.76.76-.17-.31 1.7-.92zM90.63 124.46v6.62h-.45l-.06-.72c-.32.55-.8.82-1.41.82-.55 0-.98-.22-1.29-.65-.31-.43-.47-1.03-.47-1.78 0-.49.07-.92.22-1.29s.36-.66.64-.87c.28-.21.61-.31.99-.31.53 0 .98.21 1.32.64v-2.52l.51.06zm-1.09 6.08c.21-.14.39-.36.56-.66v-2.46c-.34-.47-.75-.71-1.23-.71-.43 0-.76.18-1.01.53s-.37.85-.36 1.5c0 .65.11 1.14.34 1.49.23.35.54.52.94.52.3 0 .56-.07.76-.21zM95.62 126.92c.35.43.53 1.03.53 1.8 0 .76-.18 1.36-.54 1.8-.36.44-.84.66-1.46.66s-1.11-.22-1.46-.65c-.35-.43-.53-1.03-.53-1.8 0-.5.08-.93.24-1.3s.39-.66.69-.85c.3-.2.65-.3 1.06-.3.63 0 1.12.21 1.47.64zm-2.53.31c-.25.34-.38.84-.38 1.5 0 .65.12 1.15.37 1.49s.6.51 1.06.51.81-.17 1.07-.51.38-.85.38-1.51c0-.65-.12-1.15-.37-1.49s-.6-.51-1.07-.51c-.45.01-.8.18-1.06.52zM100.16 126.38v.41l-2.63 3.85h2.61l-.05.45h-3.17v-.4l2.63-3.85h-2.41v-.45h3.02zm-.46-2.22l.23.27-1.16.95h-.32l-1.17-.95.23-.27 1.1.76 1.09-.76zM102.36 124.05l.23.47-1.76.76-.17-.31 1.7-.92zm-.42 2.33v4.71h-.52v-4.71h.52zM106.99 126.38l-1.63 4.71h-.65l-1.68-4.71h.58l1.43 4.25 1.4-4.25h.55zM110.98 130.57c.06.11.16.19.3.24l-.12.37c-.22-.04-.38-.12-.5-.24s-.19-.3-.23-.55c-.32.53-.81.79-1.47.79-.45 0-.81-.13-1.07-.38s-.39-.6-.39-1.02c0-.49.17-.86.52-1.12.34-.26.82-.4 1.44-.4h.9v-.46c0-.38-.08-.65-.25-.82s-.45-.26-.84-.26c-.36 0-.79.09-1.28.27l-.14-.4c.53-.21 1.02-.31 1.49-.31 1.03 0 1.54.5 1.54 1.49v2.27c.01.25.04.42.1.53zm-.61-.64v-1.3h-.82c-.48 0-.85.09-1.1.28s-.38.46-.38.84c0 .32.09.57.26.75s.42.26.73.26c.56 0 1-.27 1.31-.83zM112.87 130.96c-.15-.15-.22-.37-.22-.67v-5.83l.52-.06v5.88c0 .31.13.46.38.46.13 0 .23-.02.32-.06l.14.39c-.17.08-.35.13-.54.13-.25-.02-.45-.09-.6-.24zM115.79 124.42c.07.07.11.16.11.27s-.04.2-.11.27a.4.4 0 01-.29.11c-.11 0-.21-.04-.28-.11-.07-.07-.11-.16-.11-.27s.04-.2.11-.27.17-.11.28-.11c.12 0 .22.03.29.11zm-.02 1.96v4.71h-.52v-4.71h.52zM61.4 138.91c.29.42.43 1.02.43 1.8 0 .76-.15 1.36-.46 1.8-.31.45-.75.67-1.33.67-.28 0-.54-.06-.76-.18-.23-.12-.42-.27-.58-.47v2.32l-.52.07v-6.55h.45l.04.68c.17-.25.39-.44.63-.58.25-.14.52-.21.81-.21.58.02 1.01.23 1.29.65zm-.47 3.32c.23-.34.34-.85.34-1.52 0-1.33-.42-2-1.25-2-.28 0-.53.07-.73.22-.21.14-.4.34-.59.59v2.5c.31.48.73.72 1.24.72.43 0 .76-.17.99-.51zM65.7 138.33l-.1.5c-.13-.04-.27-.05-.41-.05-.32 0-.58.12-.77.35-.2.23-.36.59-.49 1.08v2.88h-.53v-4.71h.45l.04 1.05c.13-.39.3-.68.52-.87.22-.19.49-.28.81-.28.2 0 .35.02.48.05zM70.06 143.09h-.45l-.03-.84c-.37.62-.88.94-1.54.94-.43 0-.75-.12-.99-.37s-.35-.6-.35-1.07v-3.37h.52v3.31c0 .37.08.63.23.81.15.17.39.26.7.26.55 0 1-.32 1.38-.96v-3.41h.52v4.7zm-1.04-7.15c.17.16.25.36.25.61s-.08.45-.25.61c-.17.16-.38.24-.63.24-.26 0-.48-.08-.64-.24-.17-.16-.25-.36-.25-.61s.08-.45.25-.61.38-.24.64-.24.47.08.63.24zm-1 .22c-.09.09-.13.22-.13.38 0 .17.04.3.13.39.09.09.21.13.37.13s.28-.04.36-.13c.09-.09.13-.22.13-.39 0-.16-.04-.29-.13-.38a.49.49 0 00-.36-.14c-.16 0-.29.05-.37.14zM77.46 138.67c.22.26.33.61.33 1.05v3.37h-.52v-3.29c0-.37-.07-.65-.21-.82-.14-.18-.34-.27-.59-.27-.26 0-.5.08-.71.25s-.41.41-.61.72v3.41h-.52v-3.29c0-.37-.07-.65-.21-.82-.14-.18-.34-.27-.59-.27-.27 0-.51.08-.72.25-.21.17-.41.41-.6.72v3.41h-.52v-4.71h.45l.04.8c.18-.28.39-.5.64-.66.25-.16.52-.24.81-.24.3 0 .55.08.76.25s.34.39.41.69c.19-.29.4-.52.65-.69s.52-.25.82-.25c.37 0 .67.13.89.39zM82.97 140.93h-3.14c.03.61.18 1.07.44 1.36.26.3.6.45 1.03.45.25 0 .46-.04.65-.11s.39-.19.62-.36l.24.33c-.23.19-.47.34-.72.43-.25.1-.52.14-.82.14-.62 0-1.11-.21-1.47-.64-.35-.43-.53-1.02-.53-1.77 0-.5.08-.93.23-1.31.15-.38.37-.67.66-.87s.62-.31.99-.31c.6 0 1.06.2 1.37.61.31.41.47.96.47 1.67 0 .14-.01.26-.02.38zm-.5-.54c0-.53-.11-.94-.33-1.24-.22-.3-.54-.45-.98-.45-.39 0-.71.15-.95.45-.24.3-.37.76-.4 1.37h2.65v-.13zm-.2-4.23l.23.27-1.16.95h-.32l-1.17-.95.23-.27 1.1.76 1.09-.76zM86.77 138.33l-.1.5c-.13-.04-.27-.05-.41-.05-.32 0-.57.12-.77.35-.2.23-.36.59-.49 1.08v2.88h-.52v-4.71h.45l.04 1.05c.13-.39.3-.68.52-.87.22-.19.49-.28.81-.28.19 0 .34.02.47.05zM90.89 138.66c.23.25.34.61.34 1.06v3.37h-.53v-3.29c0-.38-.07-.65-.23-.83-.15-.17-.37-.26-.67-.26-.3 0-.57.08-.8.25-.23.17-.45.41-.66.72v3.41h-.52v-4.71h.45l.05.8c.19-.28.42-.5.68-.66.26-.16.56-.24.89-.24.44 0 .77.13 1 .38zM96.41 140.93h-3.14c.03.61.18 1.07.44 1.36.26.3.6.45 1.03.45.25 0 .46-.04.65-.11s.39-.19.62-.36l.24.33c-.23.19-.47.34-.72.43-.25.1-.52.14-.82.14-.62 0-1.11-.21-1.47-.64-.35-.43-.53-1.02-.53-1.77 0-.5.08-.93.23-1.31.15-.38.37-.67.66-.87s.62-.31.99-.31c.6 0 1.06.2 1.37.61.31.41.47.96.47 1.67-.01.14-.01.26-.02.38zm-.5-.54c0-.53-.11-.94-.33-1.24-.22-.3-.54-.45-.98-.45-.39 0-.71.15-.94.45-.24.3-.37.76-.4 1.37h2.65v-.13zm-.2-4.23l.23.27-1.16.95h-.32l-1.17-.95.23-.27 1.1.76 1.09-.76zM102.69 137.44c.3.29.45.67.45 1.13 0 .39-.08.76-.24 1.1-.16.34-.42.72-.76 1.12-.34.41-.9 1.02-1.67 1.83h2.83l-.07.46h-3.38v-.44c.82-.88 1.41-1.53 1.77-1.95.36-.42.61-.79.76-1.1s.22-.64.22-.99-.1-.64-.31-.85c-.21-.21-.48-.31-.82-.31-.28 0-.52.06-.73.17-.21.11-.42.29-.61.51l-.36-.27c.24-.29.5-.51.78-.65s.6-.21.95-.21c.5.01.9.16 1.19.45zM107.82 140.57c.21.25.32.57.32.96 0 .33-.08.62-.25.87s-.4.44-.69.58c-.3.14-.64.21-1.02.21s-.72-.07-1.01-.21c-.29-.14-.52-.33-.67-.58s-.24-.54-.24-.86c0-.77.43-1.32 1.29-1.67-.35-.16-.61-.35-.78-.56-.17-.21-.25-.48-.25-.81 0-.31.08-.57.23-.8s.36-.4.62-.52.53-.18.83-.18.57.06.83.17c.26.11.47.28.63.5.16.22.24.49.24.81 0 .31-.09.58-.26.81-.17.23-.45.43-.82.63.45.18.79.4 1 .65zm-.61 1.85c.25-.21.38-.51.38-.9 0-.24-.04-.44-.14-.6-.09-.16-.23-.3-.41-.41-.19-.12-.45-.24-.78-.36l-.31-.12c-.4.16-.69.36-.88.6-.18.24-.27.54-.27.9 0 .38.13.68.38.89.25.21.59.32 1.01.32.43 0 .77-.1 1.02-.32zm-1.92-3.23c.17.17.45.33.86.48l.28.1c.34-.18.58-.37.72-.56.15-.19.22-.43.22-.7 0-.34-.11-.61-.32-.8s-.5-.29-.85-.29c-.34 0-.62.1-.84.29-.22.19-.32.46-.32.8 0 .28.08.51.25.68zM112.26 142.96c-.15-.15-.22-.37-.22-.67v-5.83l.52-.06v5.88c0 .31.13.46.38.46.13 0 .23-.02.32-.06l.14.39c-.17.08-.35.13-.54.13-.25-.02-.45-.09-.6-.24zM117.92 140.93h-3.14c.03.61.18 1.07.44 1.36.26.3.6.45 1.03.45.25 0 .46-.04.65-.11s.39-.19.62-.36l.24.33c-.23.19-.47.34-.72.43-.25.1-.52.14-.82.14-.62 0-1.11-.21-1.47-.64-.35-.43-.53-1.02-.53-1.77 0-.5.08-.93.23-1.31.15-.38.37-.67.66-.87s.62-.31.99-.31c.6 0 1.06.2 1.37.61.31.41.47.96.47 1.67-.01.14-.01.26-.02.38zm-.5-.54c0-.53-.11-.94-.33-1.24-.22-.3-.54-.45-.98-.45-.39 0-.71.15-.94.45-.24.3-.37.76-.4 1.37h2.65v-.13zM121.56 142.89c-.3.2-.63.3-.99.3s-.64-.11-.85-.32c-.2-.21-.31-.52-.31-.92v-3.14h-.79v-.42h.79v-1.12l.52-.06v1.19h1.21l-.06.42h-1.15v3.11c0 .28.06.48.17.62.11.14.29.2.52.2.24 0 .48-.07.72-.21l.22.35z"/></g><g><path d="M525.88 197.66v5.98h-.52v-5.41l-1.48.92-.24-.39 1.79-1.11h.45zM529.35 201.12l1.66 2.52h-.63l-1.36-2.19-1.35 2.19h-.6l1.66-2.5-1.44-2.21h.61l1.15 1.88 1.16-1.88h.59l-1.45 2.19zM527.27 211.21c.23.25.34.61.34 1.06v3.37h-.52v-3.29c0-.38-.07-.65-.22-.83-.15-.17-.37-.26-.67-.26-.3 0-.57.08-.8.25-.23.17-.45.41-.66.72v3.41h-.52v-4.71h.45l.05.8c.19-.28.42-.5.68-.66.26-.16.56-.24.89-.24.43 0 .75.13.98.38zM532.49 215.13c.06.11.16.19.3.24l-.12.37c-.22-.04-.38-.12-.5-.24s-.19-.3-.23-.55c-.32.53-.81.79-1.47.79-.45 0-.81-.13-1.07-.38s-.39-.6-.39-1.02c0-.49.17-.86.52-1.12.34-.26.82-.4 1.44-.4h.9v-.46c0-.38-.08-.65-.25-.82s-.45-.26-.84-.26c-.36 0-.79.09-1.28.27l-.14-.4c.53-.21 1.02-.31 1.49-.31 1.03 0 1.54.5 1.54 1.49v2.27c0 .24.03.42.1.53zm-.62-.64v-1.3h-.82c-.48 0-.85.09-1.1.28s-.38.46-.38.84c0 .32.09.57.26.75s.42.26.73.26c.57 0 1-.28 1.31-.83zM537.65 209.02v6.62h-.45l-.06-.72c-.32.55-.8.82-1.41.82-.55 0-.98-.22-1.29-.65-.31-.43-.47-1.03-.47-1.78 0-.49.07-.92.22-1.29s.36-.66.64-.87c.28-.21.61-.31.99-.31.53 0 .97.21 1.32.64v-2.52l.51.06zm-1.09 6.07c.21-.14.39-.36.56-.66v-2.46c-.34-.47-.75-.71-1.23-.71-.43 0-.76.18-1.01.53s-.37.85-.36 1.5c0 .65.11 1.14.34 1.49.23.35.54.52.95.52.29.01.55-.06.75-.21zM542.88 213.49h-3.14c.03.61.18 1.07.44 1.36s.6.45 1.03.45c.25 0 .46-.04.65-.11s.39-.19.62-.36l.24.33c-.23.19-.47.34-.72.43-.25.1-.52.14-.82.14-.62 0-1.11-.21-1.47-.64-.35-.43-.53-1.02-.53-1.77 0-.5.08-.93.23-1.31s.37-.67.66-.87c.29-.21.62-.31 1-.31.6 0 1.06.2 1.37.61.31.41.47.96.47 1.67-.02.13-.02.26-.03.38zm-.5-.54c0-.53-.11-.94-.33-1.24-.22-.3-.54-.45-.98-.45-.39 0-.71.15-.94.45-.24.3-.37.76-.4 1.37h2.65v-.13zm-.21-4.23l.23.27-1.16.95h-.32l-1.17-.95.23-.27 1.1.76 1.09-.76zM544.9 215.47c0 .41-.04.73-.13.98-.09.24-.22.44-.4.58-.17.15-.42.29-.74.44l-.15-.38c.23-.11.4-.23.53-.34a1 1 0 00.28-.46c.06-.19.09-.46.09-.81v-4.55h.52v4.54zm.02-6.5c.07.07.11.16.11.27s-.04.2-.11.27a.4.4 0 01-.29.11c-.11 0-.21-.04-.28-.11-.07-.07-.11-.16-.11-.27s.04-.2.11-.27.17-.11.28-.11a.4.4 0 01.29.11zM550.13 213.49h-3.14c.03.61.18 1.07.44 1.36.26.3.6.45 1.03.45.25 0 .46-.04.65-.11s.39-.19.62-.36l.24.33c-.23.19-.47.34-.72.43-.25.1-.52.14-.82.14-.62 0-1.11-.21-1.47-.64-.35-.43-.53-1.02-.53-1.77 0-.5.08-.93.23-1.31.15-.38.37-.67.66-.87s.62-.31.99-.31c.6 0 1.06.2 1.37.61.31.41.47.96.47 1.67 0 .13-.01.26-.02.38zm-.5-.54c0-.53-.11-.94-.33-1.24-.22-.3-.54-.45-.98-.45-.39 0-.71.15-.95.45-.24.3-.37.76-.4 1.37h2.65v-.13zM557.5 209.02v6.62h-.45l-.06-.72c-.32.55-.8.82-1.41.82-.55 0-.98-.22-1.29-.65-.31-.43-.47-1.03-.47-1.78 0-.49.07-.92.22-1.29s.36-.66.64-.87c.28-.21.61-.31.99-.31.53 0 .97.21 1.32.64v-2.52l.51.06zm-1.08 6.07c.21-.14.39-.36.56-.66v-2.46c-.34-.47-.75-.71-1.23-.71-.43 0-.76.18-1.01.53s-.37.85-.36 1.5c0 .65.11 1.14.34 1.49.23.35.54.52.95.52.29.01.54-.06.75-.21zM562.49 211.48c.35.43.53 1.03.53 1.8 0 .76-.18 1.36-.54 1.8-.36.44-.84.66-1.46.66s-1.11-.22-1.46-.65c-.35-.43-.53-1.03-.53-1.8 0-.5.08-.93.24-1.3.16-.37.39-.66.69-.85.3-.2.65-.3 1.06-.3.63-.01 1.12.21 1.47.64zm-2.52.31c-.25.34-.38.84-.38 1.5 0 .65.12 1.15.37 1.49.25.34.6.51 1.06.51s.81-.17 1.07-.51c.25-.34.38-.85.38-1.51 0-.65-.12-1.15-.37-1.49s-.6-.51-1.07-.51c-.46.01-.81.18-1.06.52zM567.03 210.93v.41l-2.63 3.85h2.61l-.05.45h-3.17v-.4l2.63-3.85h-2.41v-.45h3.02zm-.46-2.21l.23.27-1.16.95h-.32l-1.17-.95.23-.27 1.1.76 1.09-.76zM568.83 208.97c.07.07.11.16.11.27s-.04.2-.11.27a.4.4 0 01-.29.11c-.11 0-.21-.04-.28-.11-.07-.07-.11-.16-.11-.27s.04-.2.11-.27.17-.11.28-.11a.4.4 0 01.29.11zm-.02 1.96v4.71h-.52v-4.71h.52zM572.86 215.44c-.3.2-.63.3-.99.3s-.64-.11-.85-.32c-.2-.21-.31-.52-.31-.92v-3.14h-.79v-.42h.79v-1.12l.52-.06v1.19h1.21l-.06.42h-1.15v3.11c0 .28.06.48.17.62.11.14.29.2.52.2.24 0 .48-.07.72-.21l.22.35zM574.73 208.6l.23.47-1.76.76-.17-.31 1.7-.92zm-.42 2.33v4.71h-.52v-4.71h.52zM526.75 222.93v.41l-2.63 3.85h2.61l-.05.45h-3.17v-.4l2.63-3.85h-2.41v-.45h3.02zM530.69 227.51c-.15-.15-.22-.37-.22-.67v-5.83l.52-.06v5.88c0 .31.13.46.38.46.13 0 .23-.02.32-.06l.14.39c-.17.08-.35.13-.54.13-.25-.01-.45-.09-.6-.24zM536.35 225.49h-3.14c.03.61.18 1.07.44 1.36s.6.45 1.03.45c.25 0 .46-.04.65-.11s.39-.19.62-.36l.24.33c-.23.19-.47.34-.72.43-.25.1-.52.14-.82.14-.62 0-1.11-.21-1.47-.64-.35-.43-.53-1.02-.53-1.77 0-.5.08-.93.23-1.31.15-.38.37-.67.66-.87.28-.21.62-.31.99-.31.6 0 1.06.2 1.37.61.31.41.47.96.47 1.67 0 .13-.01.26-.02.38zm-.49-.54c0-.53-.11-.94-.33-1.24-.22-.3-.54-.45-.98-.45-.39 0-.71.15-.95.45-.24.3-.37.76-.4 1.37h2.65v-.13zM540 227.44c-.3.2-.63.3-.99.3s-.64-.11-.85-.32c-.2-.21-.31-.52-.31-.92v-3.14h-.79v-.42h.79v-1.12l.52-.06v1.19h1.21l-.06.42h-1.15v3.11c0 .28.06.48.17.62.11.14.29.2.52.2.24 0 .48-.07.72-.21l.22.35zM545.11 221.66v5.98h-.52v-5.41l-1.48.92-.24-.39 1.79-1.11h.45zM550.24 225.12c.21.25.32.57.32.96 0 .33-.08.62-.25.87s-.4.44-.69.58c-.3.14-.64.21-1.02.21s-.72-.07-1.01-.21c-.29-.14-.52-.33-.67-.58-.16-.25-.24-.54-.24-.86 0-.77.43-1.32 1.29-1.67-.35-.16-.61-.35-.78-.56s-.25-.48-.25-.81c0-.31.08-.57.23-.8s.36-.4.62-.52.53-.18.83-.18.57.06.83.17c.26.11.47.28.62.5.16.22.24.49.24.81 0 .31-.09.58-.26.81s-.45.43-.82.63c.46.19.8.41 1.01.65zm-.61 1.86c.25-.21.38-.51.38-.9 0-.24-.04-.44-.13-.6-.09-.16-.23-.3-.41-.41-.19-.12-.45-.24-.78-.36l-.31-.12c-.4.16-.69.36-.88.6-.18.24-.27.54-.27.9 0 .38.13.68.38.89.25.21.59.32 1.01.32.42 0 .76-.11 1.01-.32zm-1.93-3.24c.16.17.45.33.86.48l.28.1c.34-.18.58-.37.72-.56s.22-.43.22-.7c0-.34-.11-.61-.32-.8-.21-.19-.5-.29-.85-.29-.34 0-.62.1-.84.29-.22.19-.32.46-.32.8.01.29.09.52.25.68zM553.91 221.75c.25.13.44.31.57.54.13.23.2.48.2.76 0 .39-.11.71-.33.95-.22.24-.5.39-.85.45.39.02.71.16.97.42.25.26.38.62.38 1.08 0 .35-.08.66-.23.93-.16.27-.38.48-.67.63-.29.15-.62.23-1 .23-.7 0-1.27-.26-1.72-.77l.33-.3c.2.22.42.38.63.48.22.1.46.15.73.15.43 0 .77-.12 1.02-.37s.37-.57.37-.97c0-.84-.45-1.26-1.35-1.26h-.4l.07-.42h.29c.34 0 .63-.1.87-.31s.36-.5.36-.89c0-.33-.11-.59-.32-.79-.21-.19-.49-.29-.84-.29-.25 0-.48.04-.69.13-.21.09-.42.23-.64.43l-.28-.32c.24-.23.49-.4.76-.51s.56-.17.88-.17c.34 0 .64.06.89.19zM559.29 222.34c.32.52.48 1.29.48 2.31 0 1.01-.16 1.77-.48 2.3-.32.52-.79.79-1.4.79-.62 0-1.09-.26-1.4-.79s-.48-1.29-.48-2.31c0-1.01.16-1.78.48-2.3.32-.52.79-.78 1.4-.78s1.08.26 1.4.78zm-2.74 2.3c0 1.78.45 2.66 1.34 2.66.44 0 .77-.22.99-.65s.34-1.1.34-2.01c0-.91-.11-1.58-.34-2.01s-.56-.65-.99-.65c-.9.01-1.34.89-1.34 2.66z"/></g><g><path d="M526.48 160.21c.3.29.45.67.45 1.13 0 .39-.08.76-.24 1.1-.16.34-.42.72-.76 1.12-.34.41-.9 1.02-1.67 1.83h2.83l-.07.46h-3.38v-.44c.82-.88 1.41-1.53 1.77-1.95.36-.42.61-.79.76-1.1.15-.31.22-.64.22-.99s-.1-.64-.31-.85c-.21-.21-.48-.31-.82-.31-.28 0-.52.06-.73.17-.21.11-.42.29-.61.51l-.36-.27c.24-.29.5-.51.78-.65s.6-.21.95-.21c.5.01.9.16 1.19.45zM529.94 163.33l1.66 2.52h-.63l-1.36-2.19-1.35 2.19h-.6l1.66-2.5-1.44-2.21h.61l1.15 1.88 1.16-1.88h.59l-1.45 2.19z"/></g><g><path d="M526.12 111.18c.25.13.44.31.57.54s.2.48.2.76c0 .39-.11.71-.33.95-.22.24-.5.39-.85.45.39.02.71.16.97.42.25.26.38.62.38 1.08 0 .35-.08.66-.23.93-.16.27-.38.48-.67.63-.29.15-.63.23-1 .23-.7 0-1.27-.26-1.72-.77l.33-.3c.2.22.42.38.63.48.22.1.46.15.73.15.43 0 .77-.12 1.02-.37s.37-.57.37-.97c0-.84-.45-1.26-1.35-1.26h-.4l.07-.42h.29c.34 0 .63-.1.87-.31s.36-.5.36-.89c0-.33-.1-.59-.31-.79-.21-.19-.49-.29-.84-.29-.25 0-.48.04-.69.13-.21.09-.42.23-.64.43l-.28-.32c.24-.23.49-.4.76-.51s.56-.17.88-.17c.34-.01.63.06.88.19zM530.01 114.55l1.66 2.52h-.63l-1.36-2.19-1.35 2.19h-.6l1.66-2.5-1.44-2.21h.61l1.15 1.88 1.16-1.88h.59l-1.45 2.19z"/></g><g><path class="st117" d="M54.56 144.88s-13.97 5.61-9.86 21.58M46.34 164.06l-1.54 2.68-2.64-1.51"/></g><g><path class="st24" d="M43.87 173.61c.28.17.49.41.64.7s.22.63.22 1.01c0 .45-.08.87-.24 1.27-.16.4-.41.85-.76 1.34-.35.49-.89 1.19-1.61 2.09h2.76l-.11.81h-3.64v-.77c.78-.98 1.35-1.73 1.71-2.23.36-.51.61-.94.75-1.3.14-.36.21-.75.21-1.15 0-.39-.09-.69-.27-.9a.905.905 0 00-.72-.32c-.26 0-.48.06-.66.19-.19.12-.38.32-.58.59l-.56-.47c.49-.74 1.12-1.11 1.88-1.11.37-.01.7.08.98.25zM49.59 177.72c.21.31.32.7.32 1.17 0 .41-.09.77-.26 1.09-.17.32-.42.56-.75.74-.33.18-.7.26-1.13.26-.42 0-.79-.09-1.11-.26s-.56-.42-.73-.73a2.24 2.24 0 01-.26-1.08c0-.91.43-1.56 1.28-1.96-.36-.21-.62-.45-.78-.73-.16-.27-.24-.6-.24-.98 0-.4.08-.74.25-1.02.17-.29.39-.5.68-.65.28-.15.6-.22.94-.22.54 0 .98.16 1.34.48.36.32.54.78.54 1.36 0 .37-.09.7-.26.97s-.45.52-.83.74c.45.23.78.5 1 .82zm-.91 2.15c.21-.22.32-.55.32-.98 0-.39-.09-.69-.27-.91-.18-.22-.5-.43-.95-.63l-.28-.12c-.32.18-.56.41-.71.67-.15.26-.23.59-.23.99 0 .44.11.77.32.99.21.22.51.33.9.33.39-.01.69-.12.9-.34zm-1.62-5.5c-.18.19-.27.49-.27.88 0 .33.08.59.23.78.15.19.41.36.77.52l.23.11c.28-.21.48-.42.6-.63.12-.22.18-.48.18-.79 0-.39-.09-.68-.26-.87-.17-.19-.42-.29-.74-.29-.31 0-.56.09-.74.29z"/><path class="st25" d="M68.61 171.18c.27.17.49.39.63.67s.22.59.22.93c0 .47-.11.85-.33 1.14-.22.29-.54.49-.95.59.44.04.8.22 1.07.53.27.31.4.74.4 1.29 0 .42-.09.8-.26 1.13-.17.34-.42.61-.73.8-.32.2-.69.3-1.11.3-.39 0-.74-.08-1.04-.25s-.59-.42-.84-.75l.54-.51c.21.25.41.43.62.54.2.11.43.17.69.17.37 0 .66-.13.88-.39.22-.26.33-.62.33-1.07 0-.48-.11-.83-.33-1.05-.22-.22-.53-.32-.94-.32h-.42l.11-.74h.28c.34 0 .61-.11.83-.34.22-.23.33-.55.33-.98 0-.37-.09-.65-.28-.86-.18-.21-.44-.31-.76-.31-.24 0-.45.05-.65.15-.2.1-.4.26-.6.48l-.47-.53c.52-.59 1.13-.88 1.81-.88.37.01.69.09.97.26zM74.29 171.89c.35.64.52 1.59.52 2.85 0 1.28-.17 2.23-.52 2.87-.35.63-.86.95-1.54.95s-1.2-.32-1.55-.96c-.35-.64-.52-1.59-.52-2.86 0-2.54.69-3.81 2.07-3.81.67 0 1.19.32 1.54.96zm-2.4.51c-.18.47-.28 1.25-.28 2.34 0 1.1.09 1.88.28 2.34.18.46.47.69.86.69.38 0 .67-.23.85-.69s.28-1.24.28-2.34-.09-1.88-.27-2.34c-.18-.46-.47-.69-.86-.69-.39-.01-.68.22-.86.69zM93.87 165.47c.27.17.49.39.63.67s.22.59.22.93c0 .47-.11.85-.33 1.14-.22.29-.54.49-.95.59.44.04.8.22 1.07.53.27.31.4.74.4 1.29 0 .42-.09.8-.26 1.13-.17.34-.42.61-.73.8-.32.2-.69.3-1.11.3-.39 0-.74-.08-1.04-.25s-.59-.42-.84-.75l.54-.51c.21.25.41.43.62.54.2.11.43.17.69.17.37 0 .66-.13.88-.39.22-.26.33-.62.33-1.07 0-.48-.11-.83-.33-1.05-.22-.22-.53-.32-.94-.32h-.42l.11-.74h.28c.34 0 .61-.11.83-.34.22-.23.33-.55.33-.98 0-.37-.09-.65-.28-.86-.18-.21-.44-.31-.76-.31-.24 0-.45.05-.65.15-.2.1-.4.26-.6.48l-.47-.53c.52-.59 1.13-.88 1.81-.88.37.02.69.1.97.26zM98.41 165.47c.27.17.49.39.63.67s.22.59.22.93c0 .47-.11.85-.33 1.14-.22.29-.54.49-.95.59.44.04.8.22 1.07.53.27.31.4.74.4 1.29 0 .42-.09.8-.26 1.13-.17.34-.42.61-.73.8-.32.2-.69.3-1.11.3-.39 0-.74-.08-1.04-.25s-.59-.42-.84-.75l.54-.51c.21.25.41.43.62.54.2.11.43.17.69.17.37 0 .66-.13.88-.39.22-.26.33-.62.33-1.07 0-.48-.11-.83-.33-1.05-.22-.22-.53-.32-.94-.32h-.42l.11-.74h.28c.34 0 .61-.11.83-.34.22-.23.33-.55.33-.98 0-.37-.09-.65-.28-.86-.18-.21-.44-.31-.76-.31-.24 0-.45.05-.65.15-.2.1-.4.26-.6.48l-.47-.53c.52-.59 1.13-.88 1.81-.88.37.02.69.1.97.26zM118.77 164.78c.27.17.49.39.63.67s.22.59.22.93c0 .47-.11.85-.33 1.14-.22.29-.54.49-.95.59.44.04.8.22 1.07.53.27.31.4.74.4 1.29 0 .42-.09.8-.26 1.13-.17.34-.42.61-.73.8-.32.2-.69.3-1.11.3-.39 0-.74-.08-1.04-.25s-.59-.42-.84-.75l.54-.51c.21.25.41.43.62.54.2.11.43.17.69.17.37 0 .66-.13.88-.39.22-.26.33-.62.33-1.07 0-.48-.11-.83-.33-1.05-.22-.22-.53-.32-.94-.32h-.42l.11-.74h.28c.34 0 .61-.11.83-.34.22-.23.33-.55.33-.98 0-.37-.09-.65-.28-.86-.18-.21-.44-.31-.76-.31-.24 0-.45.05-.65.15-.2.1-.4.26-.6.48l-.47-.53c.52-.59 1.13-.88 1.81-.88.37.01.7.09.97.26zM123.31 164.78c.27.17.49.39.63.67s.22.59.22.93c0 .47-.11.85-.33 1.14-.22.29-.54.49-.95.59.44.04.8.22 1.07.53.27.31.4.74.4 1.29 0 .42-.09.8-.26 1.13-.17.34-.42.61-.73.8-.32.2-.69.3-1.11.3-.39 0-.74-.08-1.04-.25s-.59-.42-.84-.75l.54-.51c.21.25.41.43.62.54.2.11.43.17.69.17.37 0 .66-.13.88-.39.22-.26.33-.62.33-1.07 0-.48-.11-.83-.33-1.05-.22-.22-.53-.32-.94-.32h-.42l.11-.74h.28c.34 0 .61-.11.83-.34.22-.23.33-.55.33-.98 0-.37-.09-.65-.28-.86-.18-.21-.44-.31-.76-.31-.24 0-.45.05-.65.15-.2.1-.4.26-.6.48l-.47-.53c.52-.59 1.13-.88 1.81-.88.37.01.7.09.97.26zM143.45 159.76c.27.17.49.39.63.67.15.28.22.59.22.93 0 .47-.11.85-.33 1.14-.22.29-.54.49-.95.59.44.04.8.22 1.07.53.27.31.4.74.4 1.29 0 .42-.09.8-.26 1.13-.17.34-.42.61-.73.8-.32.2-.69.3-1.11.3-.39 0-.74-.08-1.04-.25s-.59-.42-.84-.75l.54-.51c.21.25.41.43.62.54.21.11.43.17.69.17.37 0 .66-.13.88-.39.22-.26.33-.62.33-1.07 0-.48-.11-.83-.33-1.05-.22-.22-.53-.32-.94-.32h-.42l.11-.74h.28c.34 0 .61-.11.83-.34.22-.23.33-.55.33-.98 0-.37-.09-.65-.28-.86-.18-.21-.44-.31-.76-.31-.23 0-.45.05-.65.15s-.4.26-.6.48l-.47-.53c.52-.59 1.13-.88 1.81-.88.37.01.69.1.97.26zM148.74 162.42c.25.18.45.44.6.79.15.35.22.78.22 1.29 0 .54-.08 1.01-.25 1.41-.17.4-.39.7-.69.91-.3.21-.63.31-1.02.31-.72 0-1.25-.31-1.59-.93s-.51-1.48-.51-2.59c0-.84.1-1.57.29-2.19.19-.62.47-1.09.83-1.42.36-.33.78-.5 1.26-.5.47 0 .89.15 1.25.45l-.35.63c-.28-.21-.57-.31-.88-.31-.44 0-.78.25-1.04.75s-.4 1.19-.44 2.07c.38-.63.87-.95 1.47-.95.32.01.6.1.85.28zm-.35 3.47c.18-.32.27-.78.27-1.37 0-.56-.09-.98-.26-1.23a.782.782 0 00-.7-.38c-.25 0-.48.09-.7.28-.22.18-.41.44-.57.76.01.84.11 1.46.3 1.85s.47.58.87.58c.34-.01.61-.17.79-.49zM168.54 162.18c.27.17.49.39.63.67s.22.59.22.93c0 .47-.11.85-.33 1.14-.22.29-.54.49-.95.59.44.04.8.22 1.07.53.27.31.4.74.4 1.29 0 .42-.09.8-.26 1.13-.17.34-.42.61-.73.8-.32.2-.69.3-1.11.3-.39 0-.74-.08-1.04-.25s-.59-.42-.84-.75l.54-.51c.21.25.41.43.62.54.2.11.43.17.69.17.37 0 .66-.13.88-.39.22-.26.33-.62.33-1.07 0-.48-.11-.83-.33-1.05-.22-.22-.53-.32-.94-.32h-.42l.11-.74h.28c.34 0 .61-.11.83-.34.22-.23.33-.55.33-.98 0-.37-.09-.65-.28-.86-.18-.21-.44-.31-.76-.31-.24 0-.45.05-.65.15-.2.1-.4.26-.6.48l-.47-.53c.52-.59 1.13-.88 1.81-.88.37.02.69.1.97.26zM173.91 162.83h-2.35v2.2c.31-.21.64-.31.99-.31.52 0 .93.21 1.25.62.32.41.47.98.47 1.71 0 .49-.09.93-.27 1.31-.18.38-.43.68-.75.89s-.7.32-1.13.32c-.38 0-.72-.08-1.01-.24s-.57-.4-.83-.71l.53-.53c.19.23.39.4.59.51.2.11.43.17.69.17.39 0 .69-.15.91-.45.21-.3.32-.72.32-1.28 0-1.05-.36-1.57-1.09-1.57-.16 0-.31.02-.44.07s-.29.12-.45.23h-.65v-3.7h3.34l-.12.76zM193.44 161.49c.28.17.49.39.63.67.15.28.22.59.22.93 0 .47-.11.85-.33 1.14s-.54.49-.95.59c.44.04.8.22 1.07.53.27.31.4.74.4 1.29 0 .42-.09.8-.26 1.13-.17.34-.42.61-.73.8-.32.2-.69.3-1.11.3-.39 0-.74-.08-1.04-.25-.31-.17-.58-.42-.84-.75l.54-.51c.21.25.41.43.62.54.2.11.43.17.69.17.37 0 .66-.13.88-.39.22-.26.33-.62.33-1.07 0-.48-.11-.83-.33-1.05-.22-.22-.53-.32-.94-.32h-.42l.11-.74h.28c.34 0 .61-.11.83-.34s.33-.55.33-.98c0-.37-.09-.65-.28-.86-.18-.21-.44-.31-.76-.31-.23 0-.45.05-.65.15-.2.1-.4.26-.6.48l-.47-.53c.52-.59 1.13-.88 1.81-.88.38.01.7.09.97.26zM198.82 162.13h-2.35v2.2c.32-.21.64-.31.99-.31.52 0 .93.21 1.25.62.32.41.47.98.47 1.71 0 .49-.09.93-.27 1.31-.18.38-.43.68-.75.89-.32.21-.7.32-1.13.32-.38 0-.72-.08-1.01-.24-.29-.16-.57-.4-.83-.71l.53-.53c.19.23.39.4.59.51.2.11.43.17.69.17.39 0 .69-.15.91-.45s.32-.72.32-1.28c0-1.05-.36-1.57-1.09-1.57-.16 0-.31.02-.44.07s-.29.12-.45.23h-.65v-3.7h3.34l-.12.76zM219.45 157.12v.79h-.77v1.81h-.87v-1.81h-2.64v-.71l1.8-4.96.76.32-1.64 4.57h1.72l.09-2h.77v2h.78zM223.88 153.21c.35.64.52 1.59.52 2.85 0 1.28-.17 2.23-.52 2.87-.35.63-.86.95-1.54.95s-1.2-.32-1.55-.96c-.35-.64-.52-1.59-.52-2.86 0-2.54.69-3.81 2.07-3.81.68 0 1.19.32 1.54.96zm-2.4.51c-.18.47-.28 1.25-.28 2.34 0 1.1.09 1.88.28 2.34s.47.69.86.69c.38 0 .67-.23.85-.69s.28-1.24.28-2.34-.09-1.88-.27-2.34-.47-.69-.86-.69-.68.22-.86.69zM244.67 149.86v.79h-.77v1.81h-.87v-1.81h-2.64v-.71l1.8-4.96.77.32-1.64 4.57h1.72l.09-2h.76v2h.78zM248.79 145.87h-2.36v2.2c.32-.21.64-.31.99-.31.52 0 .93.21 1.25.62.32.41.47.98.47 1.71 0 .49-.09.93-.27 1.31-.18.38-.43.68-.75.89-.32.21-.7.32-1.13.32-.38 0-.72-.08-1.01-.24-.29-.16-.57-.4-.83-.71l.53-.53c.19.23.39.4.59.51.2.11.43.17.69.17.39 0 .69-.15.91-.45s.32-.72.32-1.28c0-1.05-.36-1.57-1.09-1.57-.16 0-.31.02-.44.07s-.29.12-.45.23h-.65v-3.7h3.34l-.11.76zM269.44 141.9v.79h-.76v1.81h-.87v-1.81h-2.64v-.71l1.8-4.96.77.32-1.64 4.57h1.72l.09-2h.76v2h.77zM273.61 137.78c.34.51.51 1.22.51 2.14 0 .98-.12 1.77-.36 2.39-.24.62-.6 1.12-1.08 1.49-.48.37-1.12.68-1.91.94l-.2-.73c.82-.28 1.44-.65 1.87-1.12.43-.46.67-1.11.74-1.93-.17.26-.37.47-.6.62a1.4 1.4 0 01-.78.23c-.31 0-.59-.1-.86-.29-.26-.19-.47-.46-.62-.82-.15-.36-.23-.77-.23-1.25 0-.51.09-.95.26-1.32.17-.37.41-.65.71-.84.3-.19.64-.29 1.03-.29.67.02 1.18.28 1.52.78zm-.42 2.35c.01-.84-.08-1.45-.25-1.81-.17-.36-.45-.54-.84-.54a.95.95 0 00-.82.42c-.19.28-.29.71-.29 1.27 0 .52.09.92.27 1.19.18.27.43.41.74.41.47 0 .86-.31 1.19-.94z"/><g><path class="st25" d="M293.67 126.83h-2.35v2.2c.31-.21.64-.31.99-.31.52 0 .93.21 1.25.62.32.41.47.98.47 1.71 0 .49-.09.93-.27 1.31-.18.38-.43.68-.75.89s-.7.32-1.13.32c-.38 0-.72-.08-1.01-.24s-.57-.4-.83-.71l.53-.53c.19.23.39.4.59.51.2.11.43.17.69.17.39 0 .69-.15.91-.45.21-.3.32-.72.32-1.28 0-1.05-.36-1.57-1.09-1.57-.16 0-.31.02-.44.07s-.29.12-.45.23h-.65v-3.7h3.34l-.12.76zM298.21 128.85c.25.18.45.44.6.79.15.35.22.78.22 1.29 0 .54-.08 1.01-.25 1.41-.17.4-.39.7-.69.91-.3.21-.63.31-1.02.31-.72 0-1.25-.31-1.59-.93s-.51-1.48-.51-2.59c0-.84.1-1.57.29-2.19.19-.62.47-1.09.83-1.42.36-.33.78-.5 1.26-.5.47 0 .89.15 1.25.45l-.35.63c-.28-.21-.57-.31-.88-.31-.44 0-.78.25-1.04.75s-.4 1.19-.44 2.07c.38-.63.87-.95 1.47-.95.31.01.59.1.85.28zm-.36 3.47c.18-.32.27-.78.27-1.37 0-.56-.09-.98-.26-1.23a.782.782 0 00-.7-.38c-.25 0-.48.09-.7.28-.22.18-.41.44-.57.76.01.84.11 1.46.3 1.85s.47.58.87.58c.35-.01.61-.17.79-.49z"/></g><g><path class="st11" d="M318.53 116.57c.25.18.45.44.6.79.15.35.22.78.22 1.29 0 .54-.08 1.01-.25 1.41-.17.4-.39.7-.69.91-.3.21-.63.31-1.02.31-.72 0-1.25-.31-1.59-.93s-.51-1.48-.51-2.59c0-.84.1-1.57.29-2.19.19-.62.47-1.09.83-1.42.36-.33.78-.5 1.26-.5.47 0 .89.15 1.25.45l-.35.63c-.28-.21-.57-.31-.88-.31-.44 0-.78.25-1.04.75s-.4 1.19-.44 2.07c.38-.63.87-.95 1.47-.95.32.01.6.1.85.28zm-.35 3.47c.18-.32.27-.78.27-1.37 0-.56-.09-.98-.26-1.23a.782.782 0 00-.7-.38c-.25 0-.48.09-.7.28-.22.18-.41.44-.57.76.01.84.11 1.46.3 1.85s.47.58.87.58c.35-.01.61-.17.79-.49zM322.77 113.91c.28.17.49.39.63.67.15.28.22.59.22.93 0 .47-.11.85-.33 1.14s-.54.49-.95.59c.44.04.8.22 1.07.53.27.31.4.74.4 1.29 0 .42-.09.8-.26 1.13-.17.34-.42.61-.73.8-.32.2-.69.3-1.11.3-.39 0-.74-.08-1.04-.25-.31-.17-.58-.42-.84-.75l.54-.51c.21.25.41.43.62.54.2.11.43.17.69.17.37 0 .66-.13.88-.39.22-.26.33-.62.33-1.07 0-.48-.11-.83-.33-1.05-.22-.22-.53-.32-.94-.32h-.42l.11-.74h.28c.34 0 .61-.11.83-.34s.33-.55.33-.98c0-.37-.09-.65-.28-.86-.18-.21-.44-.31-.76-.31-.23 0-.45.05-.65.15-.2.1-.4.26-.6.48l-.47-.53c.52-.59 1.13-.88 1.81-.88.38.01.7.1.97.26z"/></g><g><path class="st11" d="M343.19 106.79c.25.18.45.44.6.79.15.35.22.78.22 1.29 0 .54-.08 1.01-.25 1.41-.16.4-.39.7-.69.91-.29.21-.63.31-1.02.31-.72 0-1.25-.31-1.58-.93s-.51-1.48-.51-2.59c0-.84.1-1.57.29-2.19.19-.62.47-1.09.83-1.42s.78-.5 1.26-.5c.47 0 .89.15 1.25.45l-.35.63c-.28-.21-.57-.31-.88-.31-.44 0-.78.25-1.04.75s-.4 1.19-.44 2.07c.38-.63.87-.95 1.47-.95.31.02.59.11.84.28zm-.35 3.47c.18-.32.27-.78.27-1.37 0-.56-.09-.98-.26-1.23a.782.782 0 00-.7-.38c-.25 0-.48.09-.7.28-.22.18-.41.44-.57.76.01.84.11 1.46.3 1.85.18.39.47.58.87.58.34-.01.61-.17.79-.49zM348.72 108.26c.21.31.32.7.32 1.17 0 .41-.09.77-.26 1.09-.17.32-.42.56-.75.74-.33.18-.7.26-1.13.26-.42 0-.79-.09-1.11-.26s-.56-.42-.73-.73a2.24 2.24 0 01-.26-1.08c0-.91.43-1.56 1.28-1.96-.36-.21-.62-.45-.78-.73-.16-.27-.24-.6-.24-.98 0-.4.08-.74.25-1.02.17-.29.39-.5.68-.65.28-.15.6-.22.94-.22.54 0 .98.16 1.34.48.36.32.54.78.54 1.36 0 .37-.09.7-.26.97s-.45.52-.83.74c.45.23.78.5 1 .82zm-.91 2.15c.21-.22.32-.55.32-.98 0-.39-.09-.69-.27-.91-.18-.22-.5-.43-.95-.63l-.28-.12c-.32.18-.56.41-.71.67-.15.26-.23.59-.23.99 0 .44.11.77.32.99.21.22.51.33.9.33.39-.01.69-.12.9-.34zm-1.62-5.5c-.18.19-.27.49-.27.88 0 .33.08.59.23.78.15.19.41.36.77.52l.23.11c.28-.21.48-.42.6-.63.12-.22.18-.48.18-.79 0-.39-.09-.68-.26-.87-.17-.19-.42-.29-.74-.29-.31 0-.56.09-.74.29z"/></g><g><path class="st11" d="M368.48 100.55v.73l-2.3 6.74-.82-.29 2.21-6.39h-2.7v-.79h3.61zM372.91 101.39c.35.64.52 1.59.52 2.85 0 1.28-.17 2.23-.52 2.87-.35.63-.86.95-1.54.95s-1.2-.32-1.55-.96c-.35-.64-.52-1.59-.52-2.86 0-2.54.69-3.81 2.07-3.81.68 0 1.19.32 1.54.96zm-2.4.51c-.18.47-.28 1.25-.28 2.34 0 1.1.09 1.88.28 2.34s.47.69.86.69c.38 0 .67-.23.85-.69s.28-1.24.28-2.34-.09-1.88-.27-2.34-.47-.69-.86-.69-.68.22-.86.69z"/></g><g><path class="st11" d="M393.38 100.55v.73l-2.3 6.74-.82-.29 2.21-6.39h-2.7v-.79h3.61zM397.81 101.39c.35.64.52 1.59.52 2.85 0 1.28-.17 2.23-.52 2.87-.35.63-.86.95-1.54.95s-1.2-.32-1.55-.96c-.35-.64-.52-1.59-.52-2.86 0-2.54.69-3.81 2.07-3.81.68 0 1.19.32 1.54.96zm-2.4.51c-.18.47-.28 1.25-.28 2.34 0 1.1.09 1.88.28 2.34s.47.69.86.69c.38 0 .67-.23.85-.69s.28-1.24.28-2.34-.09-1.88-.27-2.34-.47-.69-.86-.69-.67.22-.86.69z"/></g><g><path class="st11" d="M418.95 99.34v.73l-2.3 6.74-.82-.29 2.21-6.39h-2.7v-.79h3.61zM422.17 99.34v7.36h-.9v-6.33l-1.4 1.03-.41-.66 1.91-1.41h.8z"/></g><g><path class="st11" d="M443.55 95.53v.73l-2.3 6.74-.82-.29 2.21-6.39h-2.7v-.79h3.61zM446.84 95.65c.27.17.49.39.63.67s.22.59.22.93c0 .47-.11.85-.33 1.14s-.54.49-.95.59c.44.04.8.22 1.07.53.27.31.4.74.4 1.29 0 .42-.09.8-.26 1.13-.17.34-.42.61-.74.8-.32.2-.69.3-1.11.3-.39 0-.74-.08-1.04-.25-.31-.17-.59-.42-.84-.75l.54-.51c.21.25.41.43.62.54.2.11.43.17.69.17.37 0 .66-.13.88-.39.22-.26.33-.62.33-1.07 0-.48-.11-.83-.33-1.05-.22-.22-.53-.32-.94-.32h-.42l.11-.74h.28c.33 0 .61-.11.83-.34s.33-.55.33-.98c0-.37-.09-.65-.28-.86-.18-.21-.44-.31-.76-.31-.23 0-.45.05-.65.15-.2.1-.4.26-.6.48l-.47-.53c.52-.59 1.13-.88 1.81-.88.38.02.7.1.98.26z"/></g><g><path class="st11" d="M468.22 90.6v.73l-2.3 6.74-.82-.29 2.21-6.39h-2.7v-.79h3.61zM472.26 93.39c.25.18.45.44.6.79.15.35.22.78.22 1.29 0 .54-.08 1.01-.25 1.41s-.39.7-.69.91-.63.31-1.02.31c-.72 0-1.25-.31-1.59-.93s-.51-1.48-.51-2.59c0-.84.1-1.57.29-2.19.19-.62.47-1.09.83-1.42.36-.33.78-.5 1.26-.5.47 0 .89.15 1.25.45l-.35.63c-.28-.21-.57-.31-.88-.31-.44 0-.78.25-1.04.75s-.4 1.19-.44 2.07c.38-.63.87-.95 1.47-.95.32.01.6.1.85.28zm-.35 3.47c.18-.32.27-.78.27-1.37 0-.56-.08-.98-.26-1.23a.782.782 0 00-.7-.38c-.25 0-.48.09-.7.28-.22.18-.41.44-.57.76.01.84.11 1.46.3 1.85.18.39.47.58.87.58.35-.01.61-.17.79-.49z"/></g><g><path class="st11" d="M493.11 86.64v.73l-2.3 6.74-.82-.29 2.21-6.39h-2.7v-.79h3.61zM497.69 90.88c.21.31.32.7.32 1.17 0 .41-.09.77-.26 1.09-.17.32-.42.56-.75.74-.33.18-.7.26-1.13.26-.42 0-.79-.09-1.11-.26s-.56-.42-.73-.73a2.24 2.24 0 01-.26-1.08c0-.91.43-1.56 1.28-1.96-.36-.21-.62-.45-.78-.73-.16-.27-.24-.6-.24-.98 0-.4.08-.74.25-1.02.17-.29.39-.5.68-.65.28-.15.6-.22.94-.22.54 0 .98.16 1.34.48.36.32.54.78.54 1.36 0 .37-.09.7-.26.97s-.45.52-.83.74c.44.23.78.51 1 .82zm-.91 2.15c.21-.22.32-.55.32-.98 0-.39-.09-.69-.27-.91-.18-.22-.5-.43-.95-.63l-.28-.12c-.32.18-.56.41-.71.67-.15.26-.23.59-.23.99 0 .44.11.77.32.99.21.22.51.33.9.33s.69-.11.9-.34zm-1.62-5.5c-.18.19-.27.49-.27.88 0 .33.08.59.23.78.15.19.41.36.77.52l.23.11c.28-.21.48-.42.6-.63.12-.22.18-.48.18-.79 0-.39-.09-.68-.26-.87-.17-.19-.42-.29-.74-.29-.31 0-.56.1-.74.29z"/></g></g><path class="st118" d="M511.07 187.54h5v48.79h-5M511.07 138.76h5v48.78h-5M511.07 89.97h5v48.79h-5"/><g><path class="st11" d="M309.67 127.85h20.03v12.24h-20.03zM334.7 118.01h19.74v22.08H334.7zM359.43 114.53h20.03v25.56h-20.03zM384.46 114.53h20.03v25.56h-20.03zM409.48 113.33h19.73v26.76h-19.73zM434.22 109.61h19.74v30.48h-19.74zM458.95 104.69h20.03v35.4h-20.03zM483.98 100.73h19.73v39.36h-19.73z"/></g><g><path class="st26" d="M60.58 185.09h20.03v2.4H60.58zM85.61 179.33h19.74v8.16H85.61zM110.34 178.73h20.03v8.76h-20.03zM135.37 173.69h20.03v13.8h-20.03zM160.39 176.09h19.73v11.4h-19.73zM185.13 175.37h19.74v12.12h-19.74zM209.86 166.37h20.03v21.12h-20.03zM234.89 159.17h20.03v28.32h-20.03zM259.91 151.13h19.73v36.36h-19.73zM284.65 140.09h20.03v47.4h-20.03zM309.67 140.09h20.03v47.4h-20.03zM334.7 140.09h19.74v47.4H334.7zM359.43 140.09h20.03v47.4h-20.03zM384.46 140.09h20.03v47.4h-20.03zM409.48 140.09h19.73v47.4h-19.73zM434.22 140.09h19.74v47.4h-19.74zM458.95 140.09h20.03v47.4h-20.03zM483.98 140.09h19.73v47.4h-19.73z"/></g><path class="st24" d="M35.55 187.49h20.03v48.84H35.55zM60.58 187.49h20.03v48.84H60.58zM85.61 187.49h19.74v48.84H85.61zM110.34 187.49h20.03v48.84h-20.03zM135.37 187.49h20.03v48.84h-20.03zM160.39 187.49h19.73v48.84h-19.73zM185.13 187.49h19.74v48.84h-19.74zM209.86 187.49h20.03v48.84h-20.03zM234.89 187.49h20.03v48.84h-20.03zM259.91 187.49h19.73v48.84h-19.73zM284.65 187.49h20.03v48.84h-20.03zM309.67 187.49h20.03v48.84h-20.03zM334.7 187.49h19.74v48.84H334.7zM359.43 187.49h20.03v48.84h-20.03zM384.46 187.49h20.03v48.84h-20.03zM409.48 187.49h19.73v48.84h-19.73zM434.22 187.49h19.74v48.84h-19.74zM458.95 187.49h20.03v48.84h-20.03zM483.98 187.49h19.73v48.84h-19.73z"/><g class="st5"><path d="M13.29 23.8c0 1.04-.25 1.82-.73 2.35-.49.53-1.19.94-2.11 1.24l-.49-1.33c.41-.16.72-.34.93-.54.21-.2.35-.44.43-.71.07-.27.11-.63.11-1.07v-8.19h1.86v8.25zM21.05 23.9c.09.14.23.24.43.32l-.38 1.18c-.42-.04-.76-.14-1.03-.31s-.47-.42-.61-.77c-.25.37-.57.65-.94.83-.38.18-.8.27-1.27.27-.74 0-1.32-.21-1.75-.63-.43-.42-.64-.97-.64-1.65 0-.8.29-1.42.88-1.84.58-.42 1.42-.64 2.5-.64h.92v-.42c0-.48-.11-.81-.33-1-.22-.19-.57-.29-1.06-.29-.54 0-1.19.13-1.96.39l-.42-1.22c.92-.35 1.82-.53 2.69-.53 1.89 0 2.84.85 2.84 2.55v3.11c0 .3.04.51.13.65zm-1.89-.68v-1.5h-.74c-1.16 0-1.74.43-1.74 1.29 0 .35.09.63.27.83.18.2.44.29.78.29.6 0 1.08-.31 1.43-.91zM24.88 14.65v10.57h-1.79V14.84l1.79-.19zm4.44 3.16l-2.46 3.26 2.7 4.14H27.5l-2.55-4.05 2.48-3.36h1.89zM38.46 17.71l-.31 1.74c-.22-.06-.44-.08-.66-.08-.44 0-.78.16-1.04.47-.25.31-.45.79-.6 1.43v3.95h-1.79v-7.41h1.55l.17 1.46c.18-.53.43-.94.77-1.22s.72-.43 1.16-.43c.28 0 .53.03.75.09zM44.74 18.65c.61.7.92 1.65.92 2.86 0 .77-.14 1.46-.42 2.05-.28.59-.68 1.05-1.2 1.38-.52.33-1.14.49-1.86.49-1.09 0-1.95-.35-2.56-1.04-.62-.7-.92-1.65-.92-2.88 0-.77.14-1.46.42-2.04.28-.59.68-1.05 1.21-1.37.53-.33 1.15-.49 1.87-.49 1.08-.01 1.93.34 2.54 1.04zm-4.16 2.86c0 .88.13 1.52.4 1.94.27.42.67.62 1.2.62.53 0 .93-.21 1.2-.63.27-.42.4-1.06.4-1.93s-.13-1.51-.4-1.92c-.27-.42-.66-.62-1.18-.62-1.09-.01-1.62.84-1.62 2.54zM52.31 18.48l-.7 1.05c-.64-.4-1.26-.6-1.86-.6-.35 0-.63.07-.83.2-.2.14-.29.31-.29.54 0 .17.04.31.13.42s.24.22.46.31c.22.1.54.21.97.33.8.21 1.4.5 1.79.85.39.35.58.85.58 1.48 0 .74-.3 1.31-.9 1.73-.6.42-1.34.62-2.23.62-.61 0-1.16-.09-1.66-.28-.5-.19-.93-.44-1.29-.77l.9-1.01c.64.49 1.32.73 2.02.73.4 0 .72-.08.96-.24.24-.16.36-.38.36-.66 0-.21-.04-.38-.13-.51s-.25-.24-.48-.34c-.23-.1-.59-.22-1.07-.36-.76-.21-1.31-.49-1.67-.86s-.53-.83-.53-1.38c0-.41.12-.78.36-1.11s.57-.58 1.01-.77c.43-.19.93-.28 1.49-.28.97.03 1.85.33 2.61.91zM58.24 24.87c-.26.19-.55.33-.88.42-.32.09-.65.14-.99.14-.73-.01-1.28-.22-1.66-.62-.38-.41-.57-1.01-.57-1.8V19.1h-1.16v-1.29h1.16v-1.64l1.79-.21v1.85h1.72l-.18 1.29h-1.54v3.86c0 .36.06.63.19.78.13.16.32.24.59.24.27 0 .56-.09.88-.27l.65 1.16zM59.52 24.93c-.32-.33-.48-.8-.48-1.41v-8.68l1.79-.2v8.82c0 .35.14.52.42.52.14 0 .28-.02.42-.07l.38 1.26c-.37.17-.77.25-1.19.25-.57.01-1.01-.16-1.34-.49zM68.78 23.9c.09.14.23.24.43.32l-.38 1.19c-.42-.04-.76-.14-1.03-.31s-.47-.42-.61-.77c-.25.37-.57.65-.94.83-.38.18-.8.27-1.27.27-.74 0-1.32-.21-1.75-.63-.43-.42-.64-.97-.64-1.65 0-.8.29-1.42.88-1.84.58-.42 1.42-.64 2.5-.64h.92v-.42c0-.48-.11-.81-.33-1-.22-.19-.57-.29-1.06-.29-.54 0-1.2.13-1.96.39l-.42-1.22c.92-.35 1.82-.53 2.69-.53 1.89 0 2.84.85 2.84 2.55v3.11c0 .29.04.5.13.64zm-1.9-.68v-1.5h-.74c-1.16 0-1.74.43-1.74 1.29 0 .35.09.63.27.83.18.2.44.29.78.29.61 0 1.09-.31 1.43-.91zM79.81 18.2c.37.4.55.95.55 1.66v5.36h-1.79v-5.08c0-.44-.08-.75-.23-.92-.15-.18-.38-.27-.68-.27-.31 0-.59.1-.83.29-.25.19-.49.47-.72.83v5.15h-1.79v-7.41h1.55l.14.97c.61-.78 1.36-1.18 2.25-1.18.67 0 1.18.2 1.55.6zM88.06 23.9c.09.14.23.24.43.32l-.38 1.19c-.42-.04-.76-.14-1.03-.31s-.47-.42-.61-.77c-.25.37-.57.65-.95.83-.38.18-.8.27-1.27.27-.74 0-1.32-.21-1.75-.63-.43-.42-.64-.97-.64-1.65 0-.8.29-1.42.88-1.84.58-.42 1.42-.64 2.5-.64h.92v-.42c0-.48-.11-.81-.33-1-.22-.19-.57-.29-1.06-.29-.54 0-1.19.13-1.96.39l-.42-1.22c.92-.35 1.82-.53 2.69-.53 1.9 0 2.84.85 2.84 2.55v3.11c0 .29.05.5.14.64zm-1.9-.68v-1.5h-.74c-1.16 0-1.74.43-1.74 1.29 0 .35.09.63.27.83.18.2.44.29.78.29.61 0 1.08-.31 1.43-.91zM96.32 14.84v10.37h-1.58l-.13-.94c-.23.35-.53.63-.89.84-.36.21-.77.31-1.23.31-.91 0-1.6-.35-2.09-1.05-.49-.7-.73-1.65-.73-2.86 0-.76.12-1.43.36-2.02.24-.59.59-1.06 1.04-1.39.45-.34.98-.5 1.57-.5.71 0 1.33.27 1.86.8v-3.75l1.82.19zm-2.47 9c.24-.15.47-.39.69-.72v-3.39c-.21-.26-.43-.46-.65-.59-.22-.13-.47-.2-.76-.2-.48 0-.85.21-1.13.64s-.41 1.07-.41 1.92c0 .91.12 1.57.36 1.97.24.4.6.6 1.06.6.31 0 .59-.08.84-.23zM104.51 22.07h-4.65c.06.72.24 1.23.56 1.54.32.31.74.46 1.26.46.33 0 .63-.05.92-.16.29-.11.6-.27.92-.5l.74 1.02c-.82.66-1.74.99-2.74.99-1.13 0-2-.35-2.61-1.04-.6-.68-.91-1.62-.91-2.82 0-.76.13-1.44.39-2.04.26-.6.64-1.07 1.13-1.41s1.08-.51 1.76-.51c1.04 0 1.84.33 2.41.99.57.66.85 1.57.85 2.75.02.09 0 .34-.03.73zm-1.35-8.05l.69.78-1.95 1.75h-1.12l-1.95-1.75.69-.78 1.82 1.23 1.82-1.23zm-.38 6.8c0-1.3-.48-1.95-1.44-1.95-.44 0-.78.16-1.03.48-.25.32-.39.84-.44 1.55h2.91v-.08zM107.94 24.56c0 .73-.1 1.32-.31 1.79s-.51.83-.89 1.11c-.38.28-.88.55-1.5.8l-.57-1.3c.36-.17.65-.33.85-.5.21-.16.36-.38.47-.66.11-.28.16-.65.16-1.12v-6.86h1.79v6.74zm-.09-10.18c.21.21.31.47.31.78s-.1.56-.31.77-.48.31-.82.31c-.33 0-.59-.1-.8-.31s-.31-.46-.31-.77.1-.57.31-.78c.21-.21.48-.32.8-.32.34 0 .61.11.82.32zM116.13 22.07h-4.65c.06.72.24 1.23.56 1.54.32.31.74.46 1.26.46.33 0 .63-.05.92-.16.29-.11.6-.27.92-.5l.74 1.02c-.82.66-1.74.99-2.74.99-1.13 0-2-.35-2.61-1.04-.61-.69-.92-1.63-.92-2.83 0-.76.13-1.44.39-2.04.26-.6.64-1.07 1.13-1.41.49-.34 1.08-.51 1.76-.51 1.04 0 1.84.33 2.41.99.57.66.85 1.57.85 2.75.03.1.01.35-.02.74zm-1.73-1.25c0-1.3-.48-1.95-1.44-1.95-.44 0-.78.16-1.03.48-.25.32-.39.84-.44 1.55h2.91v-.08zM127.52 14.84v10.37h-1.58l-.13-.94c-.23.35-.53.63-.89.84-.36.21-.77.31-1.23.31-.91 0-1.6-.35-2.09-1.05-.49-.7-.73-1.65-.73-2.86 0-.76.12-1.43.36-2.02.24-.59.59-1.06 1.04-1.39.45-.34.98-.5 1.58-.5.71 0 1.33.27 1.86.8v-3.75l1.81.19zm-2.48 9c.24-.15.47-.39.69-.72v-3.39c-.21-.26-.43-.46-.65-.59-.22-.13-.47-.2-.76-.2-.48 0-.85.21-1.13.64s-.41 1.07-.41 1.92c0 .91.12 1.57.36 1.97.24.4.6.6 1.06.6.31 0 .59-.08.84-.23zM135.25 18.65c.61.7.92 1.65.92 2.86 0 .77-.14 1.46-.42 2.05-.28.59-.68 1.05-1.2 1.38-.52.33-1.14.49-1.86.49-1.09 0-1.95-.35-2.56-1.04-.62-.7-.92-1.65-.92-2.88 0-.77.14-1.46.42-2.04s.68-1.05 1.21-1.37 1.15-.49 1.87-.49c1.08-.01 1.93.34 2.54 1.04zm-4.17 2.86c0 .88.13 1.52.4 1.94.27.42.67.62 1.2.62.53 0 .93-.21 1.2-.63.27-.42.4-1.06.4-1.93s-.13-1.51-.4-1.92c-.27-.42-.66-.62-1.18-.62-1.08-.01-1.62.84-1.62 2.54zM142.55 17.81v1.29l-3.58 4.72h3.65l-.18 1.4h-5.53v-1.29l3.6-4.72h-3.29v-1.4h5.33zm-.91-3.79l.69.78-1.95 1.75h-1.12l-1.95-1.75.69-.78 1.82 1.23 1.82-1.23zM145.72 14.38c.21.21.31.47.31.78s-.1.56-.31.77-.48.31-.82.31c-.33 0-.6-.1-.81-.31s-.31-.46-.31-.77.1-.57.31-.78c.21-.21.48-.32.81-.32.34 0 .61.11.82.32zm.09 3.43v7.41h-1.79v-7.41h1.79zM152.21 24.87c-.26.19-.55.33-.88.42-.32.09-.65.14-.99.14-.73-.01-1.28-.22-1.66-.62-.38-.41-.57-1.01-.57-1.8V19.1h-1.16v-1.29h1.16v-1.64l1.79-.21v1.85h1.72l-.18 1.29h-1.54v3.86c0 .36.06.63.19.78.13.16.32.24.6.24.27 0 .56-.09.88-.27l.64 1.16zM155.18 13.74l.73 1.4-3.16 1.26-.5-.91 2.93-1.75zm-.17 4.07v7.41h-1.79v-7.41h1.79z"/></g><path class="st27" d="M23.49 132.47h2M23.49 166.99h2M23.49 201.71h2M23.49 236.33h2"/><g><path class="st27" d="M506.38 246.33v2M481.47 246.33v2M456.56 246.33v2M431.65 246.33v2M406.74 246.33v2M381.82 246.33v2M356.91 246.33v2M332 246.33v2M307.09 246.33v2M282.18 246.33v2M257.26 246.33v2M232.35 246.33v2M207.44 246.33v2M182.53 246.33v2M157.62 246.33v2M132.7 246.33v2M107.79 246.33v2M82.88 246.33v2M57.97 246.33v2M33.06 246.33v2"/></g><g class="st5"><path d="M15.15 37.76v.54l-4 6.41h3.94l-.09.58h-4.61v-.55l4.04-6.41H10.8v-.57h4.35zM20.33 44.67c.08.13.2.23.37.3l-.14.45c-.26-.05-.47-.15-.61-.3s-.24-.37-.28-.67c-.4.65-.99.97-1.79.97-.55 0-.98-.16-1.3-.47-.32-.31-.48-.73-.48-1.25 0-.59.21-1.05.63-1.38.42-.32 1.01-.48 1.75-.48h1.1v-.56c0-.46-.1-.8-.31-1.01-.21-.21-.55-.31-1.02-.31-.44 0-.96.11-1.56.33l-.17-.48c.65-.26 1.25-.39 1.81-.39 1.25 0 1.88.61 1.88 1.83v2.77c.01.3.05.51.12.65zm-.75-.79V42.3h-1c-.59 0-1.03.11-1.34.34-.31.23-.46.57-.46 1.02 0 .4.11.7.32.91.21.21.51.32.89.32.69.01 1.22-.33 1.59-1.01zM27.66 37.98v7.31h-.64v-6.61l-1.8 1.12-.3-.47 2.19-1.35h.55zM33.73 38.82c.39.64.58 1.58.58 2.82 0 1.23-.2 2.17-.59 2.81-.39.64-.96.96-1.71.96-.76 0-1.33-.32-1.72-.96s-.58-1.58-.58-2.82.19-2.18.58-2.82.96-.96 1.72-.96 1.33.33 1.72.97zm-3.36 2.81c0 2.17.55 3.26 1.64 3.26.54 0 .94-.26 1.22-.79.27-.53.41-1.35.41-2.45s-.14-1.93-.41-2.46-.68-.8-1.22-.8c-1.09-.01-1.64 1.08-1.64 3.24zM39.78 38.82c.39.64.58 1.58.58 2.82 0 1.23-.2 2.17-.59 2.81-.39.64-.96.96-1.71.96-.76 0-1.33-.32-1.72-.96s-.58-1.58-.58-2.82.19-2.18.58-2.82.96-.96 1.72-.96 1.33.33 1.72.97zm-3.36 2.81c0 2.17.55 3.26 1.64 3.26.54 0 .94-.26 1.22-.79.27-.53.41-1.35.41-2.45s-.14-1.93-.41-2.46-.68-.8-1.22-.8c-1.09-.01-1.64 1.08-1.64 3.24zM45.54 45.14c-.18-.18-.27-.45-.27-.81V37.2l.64-.08v7.18c0 .37.15.56.46.56.15 0 .29-.03.4-.08l.18.47c-.21.1-.43.15-.66.15-.33.01-.58-.08-.75-.26zM52.45 42.66h-3.84c.04.75.21 1.3.53 1.67.32.36.74.54 1.26.54.3 0 .57-.05.8-.14.23-.09.48-.24.75-.43l.3.41c-.29.23-.58.41-.88.53s-.63.18-1 .18c-.76 0-1.36-.26-1.79-.78-.43-.52-.65-1.24-.65-2.17 0-.61.09-1.14.28-1.6.19-.46.46-.81.8-1.07s.75-.38 1.22-.38c.73 0 1.29.25 1.67.74.38.49.57 1.18.57 2.04 0 .16-.01.32-.02.46zm-.61-.66c0-.65-.13-1.15-.4-1.51-.27-.36-.67-.54-1.19-.54-.48 0-.86.18-1.16.55-.29.37-.46.92-.48 1.67h3.23V42zM56.9 45.05c-.37.24-.77.36-1.21.36s-.78-.13-1.03-.39-.37-.64-.37-1.13v-3.84h-.97v-.52h.97v-1.38l.64-.08v1.45h1.48l-.08.52h-1.41v3.81c0 .34.07.59.21.75.14.16.35.25.64.25.29 0 .59-.08.88-.25l.25.45zM63.49 39.58c.29.11.58.27.86.48l-.3.42a3.06 3.06 0 00-.75-.4c-.23-.08-.49-.13-.77-.13-.38 0-.69.09-.92.26-.23.18-.35.41-.35.7 0 .28.1.5.3.65s.57.3 1.09.44c.65.17 1.12.38 1.41.64s.43.62.43 1.1c0 .51-.2.92-.59 1.22-.4.3-.89.45-1.48.45-.44 0-.82-.06-1.15-.19a3.17 3.17 0 01-.9-.54l.35-.41c.26.21.52.36.79.46s.57.15.91.15c.43 0 .77-.1 1.03-.29s.39-.46.39-.81c0-.23-.04-.43-.13-.57-.09-.15-.24-.27-.45-.38-.21-.11-.52-.21-.94-.32-.61-.16-1.05-.36-1.31-.6-.27-.24-.4-.56-.4-.97 0-.29.08-.54.25-.78.17-.23.4-.41.69-.54.29-.13.61-.19.97-.19.35-.01.68.04.97.15zM70.27 42.66h-3.84c.04.75.21 1.3.53 1.67.32.36.74.54 1.26.54.3 0 .57-.05.8-.14.23-.09.48-.24.75-.43l.3.41c-.29.23-.58.41-.88.53s-.63.18-1 .18c-.76 0-1.36-.26-1.79-.78-.43-.52-.65-1.24-.65-2.17 0-.61.09-1.14.28-1.6.19-.46.45-.81.8-1.07.35-.25.75-.38 1.22-.38.73 0 1.29.25 1.67.74.38.49.57 1.18.57 2.04 0 .16-.01.32-.02.46zm-.61-.66c0-.65-.13-1.15-.4-1.51-.27-.36-.67-.54-1.19-.54-.48 0-.86.18-1.16.55-.29.37-.45.92-.48 1.67h3.23V42zM78.91 39.88c.27.31.41.74.41 1.3v4.11h-.64v-4.03c0-.46-.09-.8-.28-1.01-.18-.21-.45-.32-.81-.32-.37 0-.69.1-.97.3-.28.2-.55.5-.81.89v4.17h-.64v-5.75h.55l.07.98c.23-.34.51-.61.84-.81.32-.19.69-.29 1.09-.29.52 0 .91.15 1.19.46zM85.29 44.67c.08.13.2.23.37.3l-.14.45c-.26-.05-.47-.15-.61-.3s-.24-.37-.28-.67c-.4.65-.99.97-1.79.97-.55 0-.98-.16-1.3-.47-.32-.31-.48-.73-.48-1.25 0-.59.21-1.05.63-1.38.42-.32 1.01-.48 1.75-.48h1.1v-.56c0-.46-.1-.8-.31-1.01-.21-.21-.55-.31-1.02-.31-.44 0-.96.11-1.56.33l-.16-.48c.65-.26 1.25-.39 1.81-.39 1.25 0 1.88.61 1.88 1.83v2.77c-.01.3.03.51.11.65zm-.75-.79V42.3h-1c-.59 0-1.03.11-1.34.34-.31.23-.46.57-.46 1.02 0 .4.11.7.32.91.21.21.51.32.89.32.68.01 1.21-.33 1.59-1.01zM91.6 37.2v8.1h-.55l-.08-.88c-.4.67-.97 1-1.73 1-.67 0-1.19-.27-1.58-.8-.38-.53-.58-1.26-.58-2.17 0-.59.09-1.12.27-1.57s.44-.81.78-1.07.74-.39 1.2-.39c.65 0 1.19.26 1.62.78v-3.08l.65.08zm-1.33 7.42c.25-.18.48-.44.69-.8v-3c-.41-.58-.91-.87-1.51-.87-.52 0-.93.22-1.24.65-.3.43-.45 1.04-.45 1.84 0 .79.14 1.4.42 1.82.28.42.66.63 1.16.63.37-.01.68-.09.93-.27zM97.99 42.66h-3.84c.04.75.21 1.3.53 1.67.32.36.74.54 1.26.54.3 0 .57-.05.8-.14.23-.09.48-.24.75-.43l.3.41c-.29.23-.58.41-.88.53s-.63.18-1 .18c-.76 0-1.36-.26-1.79-.78-.43-.52-.65-1.24-.65-2.17 0-.61.09-1.14.28-1.6.19-.46.45-.81.8-1.07.35-.25.75-.38 1.22-.38.73 0 1.29.25 1.67.74.38.49.57 1.18.57 2.04 0 .16-.01.32-.02.46zm-.61-.66c0-.65-.13-1.15-.4-1.51-.27-.36-.67-.54-1.19-.54-.48 0-.86.18-1.16.55-.29.37-.45.92-.48 1.67h3.23V42zm-.25-5.17l.29.33L96 38.33h-.4l-1.43-1.17.29-.33 1.34.92 1.33-.92zM100.46 45.08c0 .5-.05.9-.17 1.19-.11.3-.27.54-.48.72-.21.18-.51.36-.9.53l-.19-.46c.28-.14.49-.28.64-.41.15-.14.26-.32.34-.56.08-.24.12-.57.12-.98v-5.57h.64v5.54zm.03-7.94c.09.09.13.2.13.33s-.04.24-.13.33c-.09.09-.21.13-.35.13a.445.445 0 01-.47-.46.445.445 0 01.47-.46c.14 0 .26.04.35.13zM106.85 42.66h-3.84c.04.75.21 1.3.53 1.67.32.36.74.54 1.26.54.3 0 .57-.05.8-.14.23-.09.48-.24.75-.43l.3.41c-.29.23-.58.41-.88.53s-.63.18-1 .18c-.76 0-1.36-.26-1.79-.78-.43-.52-.65-1.24-.65-2.17 0-.61.09-1.14.28-1.6.19-.46.45-.81.8-1.07.35-.25.75-.38 1.22-.38.73 0 1.29.25 1.67.74.38.49.57 1.18.57 2.04.01.16 0 .32-.02.46zm-.6-.66c0-.65-.13-1.15-.4-1.51-.27-.36-.67-.54-1.19-.54-.48 0-.86.18-1.15.55-.29.37-.46.92-.48 1.67h3.23V42zM115.86 37.2v8.1h-.55l-.08-.88c-.4.67-.97 1-1.73 1-.67 0-1.19-.27-1.58-.8-.38-.53-.58-1.26-.58-2.17 0-.59.09-1.12.27-1.57s.44-.81.78-1.07.74-.39 1.2-.39c.65 0 1.19.26 1.62.78v-3.08l.65.08zm-1.32 7.42c.25-.18.48-.44.69-.8v-3c-.41-.58-.91-.87-1.51-.87-.52 0-.93.22-1.24.65-.3.43-.45 1.04-.45 1.84 0 .79.14 1.4.42 1.82.28.42.66.63 1.16.63.36-.01.67-.09.93-.27zM121.96 40.2c.43.52.64 1.26.64 2.19 0 .93-.22 1.67-.65 2.21s-1.03.81-1.79.81-1.36-.27-1.79-.8c-.43-.53-.64-1.26-.64-2.19 0-.61.1-1.14.3-1.59.2-.45.48-.8.85-1.05.37-.24.8-.36 1.3-.36.76 0 1.35.26 1.78.78zm-3.08.38c-.31.42-.46 1.03-.46 1.84 0 .8.15 1.41.46 1.83s.74.63 1.29.63.99-.21 1.3-.63c.31-.42.47-1.03.47-1.85 0-.8-.15-1.41-.46-1.82-.3-.41-.74-.62-1.3-.62s-1 .21-1.3.62zM127.51 39.54v.5l-3.21 4.71h3.19l-.07.55h-3.87v-.5l3.21-4.71h-2.95v-.55h3.7zm-.56-2.71l.29.33-1.42 1.17h-.4l-1.43-1.17.29-.33 1.34.92 1.33-.92zM129.71 37.14c.09.09.13.2.13.33s-.04.24-.13.33c-.09.09-.21.13-.35.13a.445.445 0 01-.47-.46.445.445 0 01.47-.46c.15 0 .26.04.35.13zm-.02 2.4v5.75h-.64v-5.75h.64zM134.64 45.05c-.37.24-.77.36-1.21.36s-.79-.13-1.03-.39-.37-.64-.37-1.13v-3.84h-.97v-.52h.97v-1.38l.64-.08v1.45h1.48l-.08.52h-1.41v3.81c0 .34.07.59.21.75.14.16.35.25.64.25.29 0 .59-.08.88-.25l.25.45zM136.92 36.69l.29.57-2.14.93-.21-.37 2.06-1.13zm-.51 2.85v5.75h-.64v-5.75h.64zM144.91 39.54v.5l-3.21 4.71h3.19l-.07.55h-3.87v-.5l3.21-4.71h-2.95v-.55h3.7zM150.49 37.2v8.1h-.55l-.08-.88c-.4.67-.97 1-1.73 1-.67 0-1.19-.27-1.58-.8-.38-.53-.58-1.26-.58-2.17 0-.59.09-1.12.27-1.57s.44-.81.78-1.07.74-.39 1.2-.39c.65 0 1.19.26 1.62.78v-3.08l.65.08zm-1.33 7.42c.25-.18.48-.44.69-.8v-3c-.41-.58-.91-.87-1.51-.87-.52 0-.93.22-1.24.65-.3.43-.45 1.04-.45 1.84 0 .79.14 1.4.42 1.82.28.42.66.63 1.16.63.37-.01.68-.09.93-.27zM156.66 39.54l-1.99 5.75h-.79l-2.06-5.75h.7l1.75 5.19 1.7-5.19h.69zM161.74 40.2c.43.52.64 1.26.64 2.19 0 .93-.22 1.67-.65 2.21-.44.54-1.03.81-1.79.81s-1.36-.27-1.79-.8c-.43-.53-.64-1.26-.64-2.19 0-.61.1-1.14.3-1.59.2-.45.48-.8.85-1.05.37-.24.8-.36 1.3-.36.75 0 1.35.26 1.78.78zm-3.09.38c-.31.42-.46 1.03-.46 1.84 0 .8.15 1.41.46 1.83.3.42.74.63 1.29.63s.99-.21 1.3-.63c.31-.42.47-1.03.47-1.85 0-.8-.15-1.41-.46-1.82-.3-.41-.74-.62-1.3-.62s-.99.21-1.3.62zM164.89 45.08c0 .5-.05.9-.16 1.19-.11.3-.27.54-.48.72-.21.18-.51.36-.9.53l-.19-.46c.28-.14.49-.28.64-.41s.26-.32.34-.56c.08-.24.12-.57.12-.98v-5.57h.64v5.54zm.02-7.94c.09.09.13.2.13.33s-.04.24-.13.33c-.09.09-.21.13-.35.13a.445.445 0 01-.47-.46.445.445 0 01.47-.46c.15 0 .26.04.35.13zM170.96 39.88c.28.31.41.74.41 1.3v4.11h-.64v-4.03c0-.46-.09-.8-.27-1.01-.18-.21-.46-.32-.81-.32-.37 0-.69.1-.97.3-.28.2-.55.5-.81.89v4.17h-.64v-5.75h.55l.07.98c.23-.34.51-.61.84-.81.32-.19.69-.29 1.09-.29.5 0 .9.15 1.18.46zM177.34 44.67c.08.13.2.23.37.3l-.14.45c-.26-.05-.47-.15-.61-.3s-.24-.37-.28-.67c-.4.65-.99.97-1.79.97-.55 0-.98-.16-1.3-.47-.32-.31-.48-.73-.48-1.25 0-.59.21-1.05.63-1.38.42-.32 1.01-.48 1.75-.48h1.1v-.56c0-.46-.1-.8-.31-1.01-.21-.21-.55-.31-1.02-.31-.44 0-.96.11-1.56.33l-.17-.48c.65-.26 1.25-.39 1.81-.39 1.25 0 1.88.61 1.88 1.83v2.77c0 .3.04.51.12.65zm-.76-.79V42.3h-1c-.59 0-1.03.11-1.34.34-.31.23-.46.57-.46 1.02 0 .4.11.7.32.91.21.21.51.32.89.32.69.01 1.22-.33 1.59-1.01zm-.44-7.19l.29.57-2.15.93-.21-.37 2.07-1.13zM181.82 39.58c.29.11.58.27.86.48l-.3.42a3.06 3.06 0 00-.75-.4c-.23-.08-.49-.13-.77-.13-.38 0-.69.09-.92.26-.23.18-.35.41-.35.7 0 .28.1.5.3.65.2.15.57.3 1.09.44.65.17 1.12.38 1.41.64.29.26.43.62.43 1.1 0 .51-.2.92-.59 1.22-.4.3-.89.45-1.48.45-.44 0-.83-.06-1.16-.19a3.17 3.17 0 01-.9-.54l.35-.41c.26.21.52.36.79.46.27.1.57.15.91.15.43 0 .77-.1 1.03-.29.26-.19.39-.46.39-.81 0-.23-.04-.43-.13-.57-.09-.15-.24-.27-.45-.38-.21-.11-.52-.21-.94-.32-.61-.16-1.05-.36-1.31-.6-.27-.24-.4-.56-.4-.97 0-.29.08-.54.25-.78.17-.23.4-.41.69-.54.29-.13.61-.19.97-.19s.68.04.98.15zM188.3 40.2c.43.52.64 1.26.64 2.19 0 .93-.22 1.67-.65 2.21-.44.54-1.03.81-1.79.81s-1.36-.27-1.79-.8-.64-1.26-.64-2.19c0-.61.1-1.14.3-1.59.2-.45.48-.8.85-1.05.37-.24.8-.36 1.3-.36.76 0 1.35.26 1.78.78zm-3.08.38c-.31.42-.46 1.03-.46 1.84 0 .8.15 1.41.46 1.83.3.42.73.63 1.29.63s.99-.21 1.3-.63c.31-.42.47-1.03.47-1.85 0-.8-.15-1.41-.46-1.82-.3-.41-.74-.62-1.3-.62s-1 .21-1.3.62zM194.73 40.19c.37.51.55 1.25.55 2.2 0 .93-.19 1.67-.58 2.21-.38.54-.92.81-1.61.81-.34 0-.66-.08-.94-.23-.28-.15-.52-.36-.71-.62l-.07.73h-.56v-8.1l.64-.08v3.22c.45-.62 1.03-.92 1.73-.92.67.01 1.19.26 1.55.78zm-.55 4.06c.28-.42.42-1.04.42-1.86 0-1.63-.52-2.44-1.55-2.44-.34 0-.64.09-.89.26s-.48.42-.7.73v3.02c.18.29.4.51.66.68.26.17.54.25.86.25.51-.01.91-.22 1.2-.64zM197.87 37.14c.09.09.13.2.13.33s-.04.24-.13.33c-.09.09-.21.13-.35.13a.445.445 0 01-.47-.46.445.445 0 01.47-.46c.14 0 .26.04.35.13zm-.03 2.4v5.75h-.64v-5.75h.64zM200.39 45.14c-.18-.18-.27-.45-.27-.81V37.2l.64-.08v7.18c0 .37.15.56.46.56.15 0 .29-.03.4-.08l.18.47c-.21.1-.43.15-.66.15-.32.01-.57-.08-.75-.26zM206.94 44.67c.08.13.2.23.37.3l-.14.45c-.26-.05-.47-.15-.61-.3s-.24-.37-.28-.67c-.4.65-.99.97-1.79.97-.55 0-.98-.16-1.3-.47-.32-.31-.48-.73-.48-1.25 0-.59.21-1.05.63-1.38.42-.32 1.01-.48 1.75-.48h1.1v-.56c0-.46-.1-.8-.31-1.01s-.55-.31-1.02-.31c-.44 0-.96.11-1.56.33l-.17-.48c.65-.26 1.25-.39 1.81-.39 1.25 0 1.88.61 1.88 1.83v2.77c0 .3.04.51.12.65zm-.76-.79V42.3h-1c-.59 0-1.03.11-1.34.34-.31.23-.46.57-.46 1.02 0 .4.11.7.32.91.21.21.51.32.89.32.69.01 1.22-.33 1.59-1.01zM209.49 44.52c.1.1.15.22.15.37 0 .16-.06.36-.17.61l-.62 1.46h-.46l.44-1.62a.495.495 0 01-.19-.19.594.594 0 01-.07-.26.514.514 0 01.52-.52c.17 0 .3.05.4.15zM217.59 39.54v.5l-3.21 4.71h3.19l-.07.55h-3.87v-.5l3.21-4.71h-2.95v-.55h3.7zM222.65 44.67c.08.13.2.23.37.3l-.14.45c-.26-.05-.47-.15-.61-.3s-.24-.37-.28-.67c-.4.65-.99.97-1.79.97-.55 0-.98-.16-1.3-.47-.32-.31-.48-.73-.48-1.25 0-.59.21-1.05.63-1.38.42-.32 1.01-.48 1.75-.48h1.1v-.56c0-.46-.1-.8-.31-1.01s-.55-.31-1.02-.31c-.44 0-.96.11-1.56.33l-.17-.48c.65-.26 1.25-.39 1.81-.39 1.25 0 1.88.61 1.88 1.83v2.77c.01.3.05.51.12.65zm-.75-.79V42.3h-1c-.59 0-1.03.11-1.34.34-.31.23-.46.57-.46 1.02 0 .4.11.7.32.91.21.21.51.32.89.32.69.01 1.22-.33 1.59-1.01zM231.66 39.88c.27.31.41.74.41 1.3v4.11h-.64v-4.03c0-.46-.09-.8-.28-1.01-.18-.21-.45-.32-.81-.32-.37 0-.69.1-.97.3-.28.2-.55.5-.81.89v4.17h-.64v-5.75h.55l.07.98c.23-.34.51-.61.84-.81.32-.19.69-.29 1.09-.29.52 0 .92.15 1.19.46zM238.41 42.66h-3.84c.04.75.21 1.3.53 1.67.32.36.74.54 1.26.54.3 0 .57-.05.8-.14.23-.09.48-.24.75-.43l.3.41c-.29.23-.58.41-.88.53s-.63.18-1 .18c-.76 0-1.36-.26-1.79-.78-.43-.52-.65-1.24-.65-2.17 0-.61.09-1.14.28-1.6.19-.46.45-.81.8-1.07.35-.25.75-.38 1.22-.38.73 0 1.29.25 1.67.74.38.49.57 1.18.57 2.04 0 .16 0 .32-.02.46zm-.6-.66c0-.65-.13-1.15-.4-1.51-.27-.36-.67-.54-1.19-.54-.48 0-.86.18-1.15.55s-.45.92-.48 1.67h3.23V42zM243.1 39.56c.26.09.51.24.75.45l-.32.42c-.19-.15-.39-.27-.59-.34s-.43-.11-.69-.11c-.54 0-.98.21-1.3.63s-.48 1.04-.48 1.84.16 1.4.48 1.8.75.6 1.29.6c.26 0 .49-.04.7-.12.21-.08.42-.2.63-.36l.31.43c-.48.41-1.03.62-1.65.62-.49 0-.92-.12-1.29-.35-.37-.23-.65-.57-.85-1.02-.2-.44-.3-.97-.3-1.59 0-.61.1-1.14.3-1.6.2-.46.49-.81.85-1.06.37-.25.79-.37 1.28-.37.33-.01.62.03.88.13zM249.28 42.66h-3.84c.04.75.21 1.3.53 1.67.32.36.74.54 1.26.54.3 0 .57-.05.8-.14.23-.09.48-.24.75-.43l.3.41c-.29.23-.58.41-.88.53s-.63.18-1 .18c-.76 0-1.36-.26-1.79-.78-.43-.52-.65-1.24-.65-2.17 0-.61.09-1.14.28-1.6.19-.46.45-.81.8-1.07.35-.25.75-.38 1.22-.38.73 0 1.29.25 1.67.74.38.49.57 1.18.57 2.04 0 .16-.01.32-.02.46zm-.61-.66c0-.65-.13-1.15-.4-1.51-.27-.36-.67-.54-1.19-.54-.48 0-.86.18-1.16.55-.29.37-.45.92-.48 1.67h3.23V42zM251.33 45.14c-.18-.18-.27-.45-.27-.81V37.2l.64-.08v7.18c0 .37.15.56.46.56.15 0 .29-.03.4-.08l.18.47c-.21.1-.43.15-.66.15-.32.01-.57-.08-.75-.26zM255.97 45.31c-.15.45-.32.81-.51 1.1-.18.29-.42.52-.71.71-.29.19-.67.32-1.13.41l-.07-.5c.38-.1.68-.21.9-.35s.39-.31.52-.52.26-.5.39-.87h-.22l-2-5.75h.69l1.74 5.28 1.71-5.28h.67l-1.98 5.77zm.39-8.62l.29.57-2.15.93-.21-.37 2.07-1.13zM262.11 39.56c.26.09.51.24.75.45l-.32.42c-.19-.15-.39-.27-.59-.34s-.43-.11-.69-.11c-.54 0-.98.21-1.3.63s-.48 1.04-.48 1.84.16 1.4.48 1.8.75.6 1.29.6c.26 0 .49-.04.7-.12.21-.08.42-.2.63-.36l.31.43c-.48.41-1.03.62-1.65.62-.49 0-.92-.12-1.29-.35-.37-.23-.65-.57-.85-1.02-.2-.44-.3-.97-.3-1.59 0-.61.1-1.14.3-1.6.2-.46.49-.81.85-1.06.37-.25.79-.37 1.28-.37.33-.01.62.03.88.13zM268.15 39.89c.28.31.42.74.42 1.29v4.11h-.64v-4.03c0-.89-.36-1.33-1.09-1.33-.37 0-.69.1-.97.3-.28.2-.55.5-.81.89v4.17h-.64v-8.1l.64-.08v3.38c.51-.72 1.15-1.08 1.9-1.08.51.01.91.16 1.19.48zM276.69 38.4c.36.36.54.82.54 1.39 0 .48-.1.92-.3 1.34-.2.42-.51.88-.93 1.38-.42.5-1.1 1.24-2.04 2.23h3.46l-.09.56h-4.12v-.54c1-1.07 1.73-1.86 2.16-2.38.44-.52.74-.96.92-1.34.18-.38.27-.78.27-1.22s-.13-.78-.38-1.03c-.25-.26-.59-.38-1.01-.38-.34 0-.64.07-.9.21s-.51.35-.74.63l-.44-.33c.29-.36.61-.62.95-.79.34-.17.73-.25 1.16-.25.63-.02 1.12.16 1.49.52zM282.75 38.82c.39.64.58 1.58.58 2.82 0 1.23-.2 2.17-.59 2.81-.39.64-.96.96-1.71.96-.76 0-1.33-.32-1.72-.96s-.58-1.58-.58-2.82.19-2.18.58-2.82.96-.96 1.72-.96 1.33.33 1.72.97zm-3.35 2.81c0 2.17.55 3.26 1.64 3.26.54 0 .94-.26 1.22-.79s.41-1.35.41-2.45-.14-1.93-.41-2.46c-.27-.53-.68-.8-1.22-.8-1.1-.01-1.64 1.08-1.64 3.24zM288.8 38.82c.39.64.58 1.58.58 2.82 0 1.23-.2 2.17-.59 2.81-.39.64-.96.96-1.71.96-.76 0-1.33-.32-1.72-.96-.39-.64-.58-1.58-.58-2.82s.19-2.18.58-2.82c.39-.64.96-.96 1.72-.96s1.33.33 1.72.97zm-3.35 2.81c0 2.17.55 3.26 1.64 3.26.54 0 .94-.26 1.22-.79s.41-1.35.41-2.45-.14-1.93-.41-2.46c-.27-.53-.68-.8-1.22-.8-1.1-.01-1.64 1.08-1.64 3.24zM294.56 45.14c-.18-.18-.27-.45-.27-.81V37.2l.64-.08v7.18c0 .37.15.56.46.56.15 0 .29-.03.4-.08l.18.47c-.21.1-.42.15-.66.15-.32.01-.57-.08-.75-.26zM301.47 42.66h-3.84c.04.75.21 1.3.53 1.67.32.36.74.54 1.26.54.3 0 .57-.05.8-.14.23-.09.48-.24.75-.43l.3.41c-.29.23-.58.41-.88.53-.3.12-.63.18-1 .18-.76 0-1.36-.26-1.79-.78-.43-.52-.65-1.24-.65-2.17 0-.61.09-1.14.28-1.6.19-.46.45-.81.8-1.07s.75-.38 1.22-.38c.73 0 1.29.25 1.67.74.38.49.57 1.18.57 2.04.01.16 0 .32-.02.46zm-.6-.66c0-.65-.13-1.15-.4-1.51-.27-.36-.67-.54-1.19-.54-.48 0-.86.18-1.16.55-.29.37-.45.92-.48 1.67h3.23V42zM305.93 45.05c-.37.24-.77.36-1.21.36s-.78-.13-1.03-.39-.37-.64-.37-1.13v-3.84h-.97v-.52h.97v-1.38l.64-.08v1.45h1.48l-.08.52h-1.41v3.81c0 .34.07.59.21.75.14.16.35.25.64.25.29 0 .59-.08.88-.25l.25.45zM312.75 45.05c-.37.24-.77.36-1.21.36s-.78-.13-1.03-.39-.37-.64-.37-1.13v-3.84h-.97v-.52h.97v-1.38l.64-.08v1.45h1.48l-.08.52h-1.41v3.81c0 .34.07.59.21.75.14.16.35.25.64.25.29 0 .59-.08.88-.25l.25.45zM317.81 42.66h-3.84c.04.75.21 1.3.53 1.67.32.36.74.54 1.26.54.3 0 .57-.05.8-.14.23-.09.48-.24.75-.43l.3.41c-.29.23-.58.41-.88.53-.3.12-.63.18-1 .18-.76 0-1.36-.26-1.79-.78-.43-.52-.65-1.24-.65-2.17 0-.61.09-1.14.28-1.6.19-.46.46-.81.8-1.07s.75-.38 1.22-.38c.73 0 1.29.25 1.67.74.38.49.57 1.18.57 2.04 0 .16-.01.32-.02.46zm-.61-.66c0-.65-.13-1.15-.4-1.51-.27-.36-.67-.54-1.19-.54-.48 0-.86.18-1.15.55-.29.37-.46.92-.48 1.67h3.23V42zm-.75-5.31l.29.57-2.15.93-.21-.37 2.07-1.13zM326.35 39.89c.27.32.4.74.4 1.29v4.11h-.64v-4.03c0-.45-.09-.79-.26-1.01-.17-.22-.41-.32-.72-.32-.32 0-.61.1-.87.31s-.51.5-.75.88v4.17h-.64v-4.03c0-.45-.09-.79-.26-1.01-.17-.22-.41-.32-.72-.32-.33 0-.62.1-.88.31s-.5.5-.74.88v4.17h-.64v-5.75h.55l.06.98c.22-.34.48-.61.78-.81.3-.19.63-.29.99-.29.37 0 .67.1.92.3s.42.48.51.84c.23-.36.49-.64.8-.84.3-.2.64-.3 1.01-.3.47 0 .83.16 1.1.47zM333.09 42.66h-3.84c.04.75.21 1.3.53 1.67.32.36.74.54 1.26.54.3 0 .57-.05.8-.14.23-.09.48-.24.75-.43l.3.41c-.29.23-.58.41-.88.53s-.63.18-1 .18c-.76 0-1.36-.26-1.79-.78-.43-.52-.65-1.24-.65-2.17 0-.61.09-1.14.28-1.6.19-.46.45-.81.8-1.07.35-.25.75-.38 1.22-.38.73 0 1.29.25 1.67.74.38.49.57 1.18.57 2.04 0 .16-.01.32-.02.46zm-.61-.66c0-.65-.13-1.15-.4-1.51-.27-.36-.67-.54-1.19-.54-.48 0-.86.18-1.15.55s-.45.92-.48 1.67h3.23V42zm-.25-5.17l.29.33-1.42 1.17h-.4l-1.43-1.17.29-.33 1.34.92 1.33-.92zM337.65 36.83l.29.33-1.42 1.17h-.4l-1.43-1.17.29-.33 1.34.92 1.33-.92zm.08 2.65l-.12.6c-.16-.04-.33-.07-.51-.07-.39 0-.7.14-.94.42-.24.28-.44.72-.6 1.33v3.52h-.64v-5.75h.55l.06 1.29c.15-.48.36-.83.63-1.06s.6-.35 1-.35c.22.01.42.03.57.07zM345.2 39.54v.5l-3.21 4.71h3.19l-.07.55h-3.87v-.5l3.21-4.71h-2.95v-.55h3.7zM349.36 45.05c-.37.24-.77.36-1.21.36s-.78-.13-1.03-.39-.37-.64-.37-1.13v-3.84h-.97v-.52h.97v-1.38l.64-.08v1.45h1.48l-.08.52h-1.41v3.81c0 .34.07.59.21.75.14.16.35.25.64.25.29 0 .59-.08.88-.25l.25.45zM353.29 39.48l-.12.6c-.16-.04-.33-.07-.51-.07-.39 0-.7.14-.94.42-.24.28-.44.72-.6 1.33v3.52h-.64v-5.75h.55l.06 1.29c.15-.48.36-.83.63-1.06.27-.23.6-.35 1-.35.23.01.42.03.57.07zM358.03 40.2c.43.52.64 1.26.64 2.19 0 .93-.22 1.67-.65 2.21s-1.03.81-1.79.81-1.36-.27-1.79-.8c-.43-.53-.64-1.26-.64-2.19 0-.61.1-1.14.3-1.59s.48-.8.85-1.05c.37-.24.8-.36 1.3-.36.75 0 1.35.26 1.78.78zm-3.09.38c-.31.42-.46 1.03-.46 1.84 0 .8.15 1.41.46 1.83.3.42.74.63 1.29.63.56 0 .99-.21 1.3-.63.31-.42.47-1.03.47-1.85 0-.8-.15-1.41-.46-1.82-.3-.41-.74-.62-1.3-.62s-.99.21-1.3.62zM361.18 45.08c0 .5-.06.9-.17 1.19-.11.3-.27.54-.48.72-.21.18-.51.36-.9.53l-.19-.46c.28-.14.49-.28.64-.41.15-.14.26-.32.34-.56s.12-.57.12-.98v-5.57h.64v5.54zm.02-7.94c.09.09.13.2.13.33s-.04.24-.13.33c-.09.09-.21.13-.35.13a.445.445 0 01-.47-.46.445.445 0 01.47-.46c.15 0 .27.04.35.13zM367.25 39.88c.27.31.41.74.41 1.3v4.11h-.64v-4.03c0-.46-.09-.8-.28-1.01-.18-.21-.45-.32-.81-.32-.37 0-.69.1-.97.3-.28.2-.55.5-.81.89v4.17h-.64v-5.75h.55l.07.98c.23-.34.51-.61.84-.81.32-.19.69-.29 1.09-.29.51 0 .91.15 1.19.46zM373.63 44.67c.08.13.2.23.37.3l-.14.45c-.26-.05-.47-.15-.61-.3s-.24-.37-.28-.67c-.4.65-.99.97-1.79.97-.55 0-.98-.16-1.3-.47-.32-.31-.48-.73-.48-1.25 0-.59.21-1.05.63-1.38.42-.32 1.01-.48 1.75-.48h1.1v-.56c0-.46-.1-.8-.31-1.01-.21-.21-.55-.31-1.02-.31-.44 0-.96.11-1.56.33l-.17-.48c.65-.26 1.25-.39 1.81-.39 1.25 0 1.88.61 1.88 1.83v2.77c0 .3.04.51.12.65zm-.76-.79V42.3h-1c-.59 0-1.03.11-1.34.34-.31.23-.46.57-.46 1.02 0 .4.11.7.32.91.21.21.51.32.89.32.69.01 1.22-.33 1.59-1.01zm-.44-7.19l.29.57-2.15.93-.21-.37 2.07-1.13zM378.11 39.58c.29.11.58.27.86.48l-.3.42a3.06 3.06 0 00-.75-.4c-.23-.08-.49-.13-.77-.13-.38 0-.69.09-.92.26-.24.18-.35.41-.35.7 0 .28.1.5.3.65.2.15.57.3 1.09.44.65.17 1.12.38 1.41.64.29.26.43.62.43 1.1 0 .51-.2.92-.59 1.22-.4.3-.89.45-1.49.45-.44 0-.83-.06-1.15-.19a3.17 3.17 0 01-.9-.54l.35-.41c.26.21.52.36.79.46.27.1.57.15.91.15.42 0 .77-.1 1.03-.29s.39-.46.39-.81c0-.23-.04-.43-.13-.57-.09-.15-.24-.27-.45-.38-.21-.11-.52-.21-.94-.32-.61-.16-1.05-.36-1.31-.6-.27-.24-.4-.56-.4-.97 0-.29.08-.54.25-.78.17-.23.4-.41.69-.54.29-.13.61-.19.97-.19s.69.04.98.15zM384.59 40.2c.43.52.64 1.26.64 2.19 0 .93-.22 1.67-.65 2.21-.44.54-1.03.81-1.79.81s-1.36-.27-1.79-.8-.64-1.26-.64-2.19c0-.61.1-1.14.3-1.59.2-.45.48-.8.85-1.05.37-.24.8-.36 1.3-.36.76 0 1.36.26 1.78.78zm-3.08.38c-.31.42-.46 1.03-.46 1.84 0 .8.15 1.41.46 1.83s.73.63 1.29.63.99-.21 1.3-.63c.31-.42.47-1.03.47-1.85 0-.8-.15-1.41-.46-1.82-.3-.41-.74-.62-1.3-.62s-.99.21-1.3.62zM391.02 40.19c.37.51.55 1.25.55 2.2 0 .93-.19 1.67-.58 2.21-.38.54-.92.81-1.61.81-.34 0-.66-.08-.94-.23-.28-.15-.52-.36-.71-.62l-.07.73h-.56v-8.1l.64-.08v3.22c.45-.62 1.03-.92 1.73-.92.67.01 1.19.26 1.55.78zm-.55 4.06c.28-.42.42-1.04.42-1.86 0-1.63-.52-2.44-1.55-2.44-.34 0-.64.09-.89.26s-.48.42-.7.73v3.02c.18.29.4.51.66.68.26.17.54.25.86.25.51-.01.92-.22 1.2-.64zM394.16 37.14c.09.09.13.2.13.33s-.04.24-.13.33c-.09.09-.21.13-.35.13a.445.445 0 01-.47-.46.445.445 0 01.47-.46c.14 0 .26.04.35.13zm-.02 2.4v5.75h-.64v-5.75h.64zM396.68 45.14c-.18-.18-.27-.45-.27-.81V37.2l.64-.08v7.18c0 .37.15.56.46.56.15 0 .29-.03.4-.08l.18.47c-.21.1-.43.15-.66.15-.32.01-.57-.08-.75-.26zM403.23 44.67c.08.13.2.23.37.3l-.14.45c-.26-.05-.47-.15-.61-.3s-.24-.37-.28-.67c-.4.65-.99.97-1.79.97-.55 0-.98-.16-1.3-.47-.32-.31-.48-.73-.48-1.25 0-.59.21-1.05.63-1.38.42-.32 1.01-.48 1.75-.48h1.1v-.56c0-.46-.1-.8-.31-1.01-.21-.21-.55-.31-1.02-.31-.44 0-.96.11-1.56.33l-.17-.48c.65-.26 1.25-.39 1.81-.39 1.25 0 1.88.61 1.88 1.83v2.77c0 .3.04.51.12.65zm-.76-.79V42.3h-1c-.59 0-1.03.11-1.34.34-.31.23-.46.57-.46 1.02 0 .4.11.7.32.91.21.21.51.32.89.32.69.01 1.22-.33 1.59-1.01z"/></g></g></svg>