<svg xmlns="http://www.w3.org/2000/svg" viewBox="0 0 403 218.1"><style>.st11{fill:teal}.st15{fill:#666}.st20{fill:#4d4d4d}.st23{fill:#595959}.st24{fill:#5cadad}.st26{fill:#2e9797}.st27,.st28{fill:none;stroke-width:.5;stroke-miterlimit:10}.st27{stroke:#4d4d4d;stroke-linecap:round}.st28{stroke:teal}.st30{opacity:.9;fill:#fff}</style><g id="_x33_.1_x5F_stredni_x5F_delka_x5F_doziti_x5F_des"><path class="st28" d="M233.41 49.58s14.93-1.92 19.13 14.03M249.95 62.3l2.65 1.59 1.57-2.61"/></g><g id="_x31_.1_x5F_stredni_x5F_delka_x5F_zivota_x5F_des"><path class="st23" d="M12.5 186.64c.38.64.57 1.59.57 2.85 0 1.28-.19 2.23-.57 2.87s-.94.95-1.68.95c-.75 0-1.31-.32-1.69-.96-.38-.64-.57-1.59-.57-2.86 0-2.54.75-3.81 2.27-3.81.73 0 1.29.32 1.67.96zm-2.62.51c-.2.47-.3 1.25-.3 2.34 0 1.1.1 1.88.3 2.34s.52.69.94.69c.42 0 .73-.23.93-.69.2-.46.3-1.24.3-2.34s-.1-1.88-.3-2.34c-.2-.46-.51-.69-.94-.69s-.73.22-.93.69z"/><path class="st20" d="M7.01 204.55v7.4H5.66v-6.02l-1.46.99-.61-.9 2.2-1.47h1.22zM12.91 208.82c.23.32.35.7.35 1.14 0 .42-.1.79-.31 1.12-.21.33-.5.58-.88.76-.38.18-.83.27-1.34.27-.51 0-.94-.09-1.31-.27a2.01 2.01 0 01-.85-.75c-.2-.32-.3-.68-.3-1.1 0-.45.11-.82.34-1.13s.56-.56 1-.75c-.37-.22-.65-.47-.81-.76-.17-.29-.25-.62-.25-.99 0-.4.1-.75.29-1.04.19-.29.46-.52.8-.67.34-.15.71-.23 1.13-.23.65 0 1.19.16 1.61.49s.63.8.63 1.4c0 .35-.09.67-.28.94-.19.28-.48.52-.89.73.48.24.84.52 1.07.84zm-1.31 1.99c.19-.19.29-.47.29-.84 0-.34-.09-.61-.26-.81s-.48-.38-.92-.56l-.29-.12c-.52.31-.78.8-.78 1.47 0 .38.1.67.29.86.19.19.47.29.83.29.37 0 .64-.1.84-.29zm-1.75-4.42c0 .3.07.54.22.7.15.17.39.33.73.47l.19.08c.26-.18.44-.36.54-.56.1-.2.15-.43.15-.71 0-.33-.08-.58-.23-.75-.15-.17-.38-.25-.68-.25-.62.01-.92.35-.92 1.02zM17.06 204.67c.33.17.58.4.75.68.17.29.26.6.26.95 0 .46-.12.83-.36 1.12s-.59.5-1.04.62c.49.06.89.24 1.18.54s.45.72.45 1.26c0 .42-.1.8-.3 1.14-.2.35-.48.62-.85.83-.37.21-.81.31-1.31.31-.46 0-.88-.09-1.24-.27-.36-.18-.69-.45-.98-.8l.78-.69c.23.24.46.42.67.53s.44.17.7.17c.34 0 .62-.11.83-.34.21-.22.31-.53.31-.93 0-.43-.1-.74-.31-.93-.21-.19-.51-.28-.92-.28h-.51l.15-.98h.34c.34 0 .61-.1.81-.3.2-.2.3-.48.3-.85 0-.32-.09-.56-.26-.73-.18-.17-.42-.26-.73-.26-.47 0-.9.21-1.3.62l-.7-.71c.62-.63 1.33-.95 2.16-.95.41 0 .79.09 1.12.25zM23.43 205.39c.41.65.62 1.61.62 2.87 0 1.28-.21 2.25-.62 2.89s-1.02.97-1.81.97-1.41-.32-1.82-.97c-.41-.65-.62-1.61-.62-2.89s.21-2.24.62-2.88c.41-.64 1.02-.96 1.82-.96s1.4.33 1.81.97zm-2.4.33c-.15.17-.26.46-.33.87s-.11.96-.11 1.67c0 .72.04 1.28.11 1.69.07.41.18.7.33.87s.34.26.58.26.44-.08.58-.25c.15-.17.26-.46.33-.87s.11-.98.11-1.69-.04-1.28-.11-1.68c-.07-.4-.18-.69-.33-.86s-.34-.25-.58-.25-.43.07-.58.24zM132.68 204.55v7.4h-1.35v-6.02l-1.46.99-.6-.9 2.2-1.47h1.21zM138.08 205.19c.41.51.62 1.22.62 2.12 0 1-.14 1.82-.42 2.46a3.51 3.51 0 01-1.28 1.52c-.57.38-1.33.7-2.29.95l-.29-.98c.88-.25 1.54-.58 1.99-.98s.72-.96.83-1.68c-.37.49-.84.74-1.41.74-.34 0-.66-.1-.96-.29-.29-.19-.53-.47-.7-.84-.17-.36-.26-.79-.26-1.27 0-.52.1-.97.31-1.35.21-.38.49-.67.86-.86.36-.2.77-.3 1.22-.3.78-.01 1.37.25 1.78.76zm-.79 2.37c.01-.79-.06-1.33-.21-1.65-.15-.31-.41-.47-.78-.47-.32 0-.56.12-.74.36s-.26.61-.26 1.11c0 .49.08.85.25 1.08s.39.35.67.35c.43 0 .79-.26 1.07-.78zM143.86 205.39c.41.65.62 1.61.62 2.87 0 1.28-.21 2.25-.62 2.89s-1.02.97-1.81.97-1.41-.32-1.82-.97c-.41-.65-.62-1.61-.62-2.89s.21-2.24.62-2.88c.41-.64 1.02-.96 1.82-.96s1.4.33 1.81.97zm-2.4.33c-.15.17-.26.46-.33.87s-.11.96-.11 1.67c0 .72.04 1.28.11 1.69.07.41.18.7.33.87.15.17.34.26.58.26s.44-.08.58-.25c.15-.17.26-.46.33-.87s.11-.98.11-1.69-.04-1.28-.11-1.68c-.07-.4-.18-.69-.33-.86-.15-.17-.34-.25-.58-.25s-.43.07-.58.24zM149.72 205.39c.41.65.62 1.61.62 2.87 0 1.28-.21 2.25-.62 2.89s-1.02.97-1.81.97-1.41-.32-1.82-.97c-.41-.65-.62-1.61-.62-2.89s.21-2.24.62-2.88c.41-.64 1.02-.96 1.82-.96s1.4.33 1.81.97zm-2.4.33c-.15.17-.26.46-.33.87s-.11.96-.11 1.67c0 .72.04 1.28.11 1.69.07.41.18.7.33.87s.34.26.58.26.44-.08.58-.25c.15-.17.26-.46.33-.87s.11-.98.11-1.69-.04-1.28-.11-1.68c-.07-.4-.18-.69-.33-.86s-.34-.25-.58-.25-.43.07-.58.24z"/><path class="st15" d="M35.48 209.35v.79h-.84v1.82h-.94v-1.82h-2.88v-.71l1.97-4.96.84.32-1.79 4.56h1.88l.1-2h.84v2h.82zM40.32 205.43c.38.64.57 1.59.57 2.85 0 1.28-.19 2.23-.57 2.87-.38.63-.94.95-1.68.95-.75 0-1.31-.32-1.69-.96s-.57-1.59-.57-2.86c0-2.54.75-3.81 2.27-3.81.73.01 1.29.32 1.67.96zm-2.62.52c-.2.46-.3 1.24-.3 2.34 0 1.1.1 1.88.3 2.34.2.46.52.69.94.69.42 0 .73-.23.93-.69.2-.46.3-1.24.3-2.34 0-1.1-.1-1.88-.3-2.34s-.51-.69-.94-.69-.73.22-.93.69zM69.35 207.38c.27.18.49.44.65.79.16.35.24.78.24 1.29 0 .54-.09 1.01-.27 1.41-.18.4-.43.7-.75.91-.32.21-.69.31-1.11.31-.79 0-1.36-.31-1.73-.93-.37-.62-.56-1.48-.56-2.59 0-.84.1-1.57.31-2.19.21-.62.51-1.09.9-1.42s.85-.5 1.38-.5c.51 0 .97.15 1.36.45l-.39.63c-.31-.21-.63-.31-.96-.31-.48 0-.86.25-1.14.75-.28.5-.44 1.19-.48 2.07.42-.63.95-.95 1.61-.95.36.02.66.11.94.28zm-.39 3.47c.19-.32.29-.78.29-1.37 0-.56-.09-.98-.28-1.23a.882.882 0 00-.76-.38c-.27 0-.53.09-.76.27s-.45.44-.62.76c.01.84.12 1.46.32 1.85s.52.58.95.58c.38 0 .67-.16.86-.48zM75.23 205.43c.38.64.57 1.59.57 2.85 0 1.28-.19 2.23-.57 2.87-.38.63-.94.95-1.68.95-.75 0-1.31-.32-1.69-.96-.38-.64-.57-1.59-.57-2.86 0-2.54.76-3.81 2.27-3.81.72.01 1.28.32 1.67.96zm-2.63.52c-.2.46-.3 1.24-.3 2.34 0 1.1.1 1.88.3 2.34.2.46.51.69.94.69.42 0 .73-.23.93-.69.2-.46.3-1.24.3-2.34 0-1.1-.1-1.88-.3-2.34-.2-.46-.51-.69-.93-.69-.42-.01-.74.22-.94.69zM104.75 208.84c.23.31.35.7.35 1.17 0 .41-.1.77-.29 1.09s-.46.56-.82.74c-.36.18-.77.26-1.24.26-.46 0-.87-.09-1.22-.26s-.62-.42-.8-.73c-.19-.31-.28-.67-.28-1.08 0-.91.47-1.56 1.4-1.96-.4-.21-.68-.46-.86-.73s-.26-.6-.26-.98c0-.4.09-.74.28-1.02.18-.29.43-.5.74-.65.31-.15.65-.22 1.03-.22.59 0 1.08.16 1.47.48.39.32.59.78.59 1.36 0 .38-.1.7-.29.97-.19.27-.5.52-.91.74.5.24.87.51 1.11.82zm-.99 2.15c.23-.22.35-.55.35-.98 0-.39-.1-.69-.29-.91-.19-.22-.54-.43-1.04-.63l-.31-.12c-.35.18-.61.41-.78.67s-.25.59-.25.99c0 .44.12.77.35.99.23.22.56.33.98.33s.75-.11.99-.34zm-1.77-5.5c-.2.19-.3.49-.3.88 0 .33.08.59.25.78s.45.36.84.52l.25.11c.31-.21.53-.42.65-.63s.19-.48.19-.79c0-.39-.1-.68-.29-.88-.19-.19-.46-.29-.8-.29-.33.01-.59.11-.79.3zM110.08 205.43c.38.64.57 1.59.57 2.85 0 1.28-.19 2.23-.57 2.87-.38.63-.94.95-1.68.95-.75 0-1.31-.32-1.69-.96s-.57-1.59-.57-2.86c0-2.54.75-3.81 2.27-3.81.73.01 1.29.32 1.67.96zm-2.62.52c-.2.46-.3 1.24-.3 2.34 0 1.1.1 1.88.3 2.34.2.46.52.69.94.69.42 0 .73-.23.93-.69.2-.46.3-1.24.3-2.34 0-1.1-.1-1.88-.3-2.34s-.51-.69-.94-.69-.73.22-.93.69zM172.71 204.73c.3.17.54.41.7.71s.24.63.24 1.01c0 .45-.09.87-.26 1.27s-.45.85-.83 1.34c-.38.49-.97 1.19-1.76 2.09h3.01l-.12.81h-3.98v-.77c.85-.98 1.47-1.73 1.86-2.23.39-.51.67-.94.82-1.3.15-.36.23-.75.23-1.15 0-.39-.1-.69-.29-.9s-.46-.32-.79-.32c-.28 0-.52.06-.73.19s-.42.32-.64.59l-.62-.47c.54-.74 1.22-1.11 2.06-1.11.44-.01.8.07 1.1.24zM178.8 205.43c.38.64.57 1.59.57 2.85 0 1.28-.19 2.23-.57 2.87-.38.63-.94.95-1.68.95-.75 0-1.31-.32-1.69-.96-.38-.64-.57-1.59-.57-2.86 0-2.54.76-3.81 2.27-3.81.73.01 1.29.32 1.67.96zm-2.62.52c-.2.46-.3 1.24-.3 2.34 0 1.1.1 1.88.3 2.34.2.46.51.69.94.69.42 0 .73-.23.93-.69.2-.46.3-1.24.3-2.34 0-1.1-.1-1.88-.3-2.34-.2-.46-.51-.69-.93-.69-.43-.01-.74.22-.94.69z"/><path class="st20" d="M349.44 204.69c.33.18.59.42.76.73.18.31.26.66.26 1.05 0 .42-.08.82-.24 1.2s-.43.82-.81 1.29c-.38.48-.93 1.11-1.67 1.9h2.86l-.14 1.09h-4.22v-1.01c.81-.92 1.41-1.63 1.79-2.11s.64-.89.79-1.23c.15-.34.23-.69.23-1.06 0-.34-.08-.6-.25-.78s-.39-.27-.68-.27c-.24 0-.46.06-.64.18-.19.12-.39.31-.61.57l-.83-.64c.56-.8 1.3-1.2 2.2-1.2.47.02.87.11 1.2.29zM355.73 205.39c.41.65.62 1.61.62 2.87 0 1.28-.21 2.25-.62 2.89s-1.02.97-1.81.97-1.41-.32-1.82-.97c-.41-.65-.62-1.61-.62-2.89s.21-2.24.62-2.88c.41-.64 1.02-.96 1.82-.96s1.4.33 1.81.97zm-2.4.33c-.15.17-.26.46-.33.87s-.11.96-.11 1.67c0 .72.04 1.28.11 1.69.07.41.18.7.33.87.15.17.34.26.58.26s.44-.08.58-.25c.15-.17.26-.46.33-.87s.11-.98.11-1.69-.04-1.28-.11-1.68c-.07-.4-.18-.69-.33-.86-.15-.17-.34-.25-.58-.25s-.43.07-.58.24zM360.43 204.55v7.4h-1.35v-6.02l-1.46.99-.6-.9 2.2-1.47h1.21zM366.33 208.82c.23.32.35.7.35 1.14 0 .42-.1.79-.31 1.12s-.5.58-.88.76c-.38.18-.83.27-1.34.27-.51 0-.94-.09-1.31-.27a2.01 2.01 0 01-.85-.75c-.2-.32-.3-.68-.3-1.1 0-.45.11-.82.33-1.13s.56-.56 1-.75c-.37-.22-.65-.47-.81-.76s-.25-.62-.25-.99c0-.4.1-.75.29-1.04.19-.29.46-.52.8-.67.34-.15.71-.23 1.13-.23.65 0 1.19.16 1.61.49.42.33.63.8.63 1.4 0 .35-.09.67-.28.94s-.48.52-.89.73c.48.24.85.52 1.08.84zm-1.32 1.99c.19-.19.29-.47.29-.84 0-.34-.09-.61-.26-.81-.17-.19-.48-.38-.92-.56l-.29-.12c-.52.31-.78.8-.78 1.47 0 .38.1.67.29.86.19.19.47.29.83.29.37 0 .65-.1.84-.29zm-1.75-4.42c0 .3.07.54.22.7s.39.33.73.47l.19.08c.26-.18.44-.36.54-.56.1-.2.15-.43.15-.71 0-.33-.08-.58-.23-.75-.15-.17-.38-.25-.68-.25-.61.01-.92.35-.92 1.02z"/><path class="st15" d="M208.73 209.35v.79h-.84v1.82h-.95v-1.82h-2.88v-.71l1.97-4.96.84.32-1.79 4.56h1.88l.1-2h.84v2h.83zM213.57 205.43c.38.64.57 1.59.57 2.85 0 1.28-.19 2.23-.57 2.87-.38.63-.94.95-1.68.95-.75 0-1.31-.32-1.69-.96-.38-.64-.57-1.59-.57-2.86 0-2.54.76-3.81 2.27-3.81.73.01 1.29.32 1.67.96zm-2.62.52c-.2.46-.3 1.24-.3 2.34 0 1.1.1 1.88.3 2.34.2.46.52.69.94.69.42 0 .73-.23.93-.69.2-.46.3-1.24.3-2.34 0-1.1-.1-1.88-.3-2.34s-.51-.69-.93-.69c-.42-.01-.74.22-.94.69z"/><g><path class="st20" d="M230.35 204.55v7.4H229v-6.02l-1.46.99-.6-.9 2.2-1.47h1.21zM235.75 205.19c.41.51.62 1.22.62 2.12 0 1-.14 1.82-.42 2.46a3.51 3.51 0 01-1.28 1.52c-.57.38-1.33.7-2.29.95l-.29-.98c.88-.25 1.54-.58 1.99-.98s.72-.96.83-1.68c-.37.49-.84.74-1.41.74-.34 0-.66-.1-.96-.29-.29-.19-.53-.47-.7-.84-.17-.36-.26-.79-.26-1.27 0-.52.1-.97.31-1.35.21-.38.49-.67.86-.86.36-.2.77-.3 1.22-.3.77-.01 1.37.25 1.78.76zm-.79 2.37c.01-.79-.06-1.33-.21-1.65-.15-.31-.41-.47-.78-.47-.32 0-.56.12-.74.36s-.26.61-.26 1.11c0 .49.08.85.25 1.08s.39.35.67.35c.42 0 .78-.26 1.07-.78zM241.13 207.31c.29.18.51.46.68.82.17.36.25.8.25 1.3 0 .54-.1 1-.29 1.41s-.47.72-.82.94-.76.33-1.22.33c-.84 0-1.45-.31-1.85-.94-.4-.63-.6-1.51-.6-2.65 0-.84.11-1.56.34-2.18.23-.62.55-1.1.97-1.43s.92-.5 1.49-.5c.56 0 1.05.16 1.47.47l-.51.84c-.31-.19-.62-.29-.94-.29-.42 0-.75.21-1 .62-.25.41-.39 1-.43 1.78.38-.54.88-.8 1.5-.8.35.01.67.1.96.28zm-.68 1.03a.737.737 0 00-.64-.33c-.21 0-.41.07-.6.21-.19.14-.37.34-.53.59.01.82.1 1.41.26 1.75s.42.52.79.52c.32 0 .56-.14.72-.43.16-.29.24-.71.24-1.25-.01-.48-.09-.84-.24-1.06zM247.13 205.39c.41.65.62 1.61.62 2.87 0 1.28-.21 2.25-.62 2.89s-1.02.97-1.81.97-1.41-.32-1.82-.97c-.41-.65-.62-1.61-.62-2.89s.21-2.24.62-2.88c.41-.64 1.02-.96 1.82-.96s1.4.33 1.81.97zm-2.39.33c-.15.17-.26.46-.33.87s-.11.96-.11 1.67c0 .72.04 1.28.11 1.69.07.41.18.7.33.87s.34.26.58.26.44-.08.58-.25c.15-.17.26-.46.33-.87s.11-.98.11-1.69-.04-1.28-.11-1.68c-.07-.4-.18-.69-.33-.86s-.34-.25-.58-.25-.44.07-.58.24z"/></g><g><path class="st15" d="M277.4 208.84c.23.31.35.7.35 1.17 0 .41-.1.77-.29 1.09s-.46.56-.82.74c-.36.18-.77.26-1.24.26-.46 0-.87-.09-1.22-.26s-.62-.42-.8-.73c-.19-.31-.28-.67-.28-1.08 0-.91.47-1.56 1.4-1.96-.4-.21-.68-.46-.86-.73s-.26-.6-.26-.98c0-.4.09-.74.27-1.02.18-.29.43-.5.74-.65.31-.15.65-.22 1.03-.22.59 0 1.08.16 1.47.48.39.32.59.78.59 1.36 0 .38-.1.7-.29.97-.19.27-.5.52-.91.74.51.24.88.51 1.12.82zm-.99 2.15c.23-.22.35-.55.35-.98 0-.39-.1-.69-.29-.91-.19-.22-.54-.43-1.04-.63l-.31-.12c-.35.18-.61.41-.78.67s-.25.59-.25.99c0 .44.12.77.35.99.23.22.56.33.98.33s.75-.11.99-.34zm-1.77-5.5c-.2.19-.3.49-.3.88 0 .33.08.59.25.78s.45.36.84.52l.25.11c.31-.21.53-.42.65-.63.13-.22.19-.48.19-.79 0-.39-.1-.68-.29-.88-.19-.19-.46-.29-.8-.29-.33.01-.6.11-.79.3zM282.73 205.43c.38.64.57 1.59.57 2.85 0 1.28-.19 2.23-.57 2.87-.38.63-.94.95-1.68.95-.75 0-1.31-.32-1.69-.96-.38-.64-.57-1.59-.57-2.86 0-2.54.76-3.81 2.27-3.81.73.01 1.29.32 1.67.96zm-2.62.52c-.2.46-.3 1.24-.3 2.34 0 1.1.1 1.88.3 2.34.2.46.52.69.94.69.42 0 .73-.23.93-.69.2-.46.3-1.24.3-2.34 0-1.1-.1-1.88-.3-2.34s-.51-.69-.93-.69c-.43-.01-.74.22-.94.69z"/></g><g><path class="st15" d="M260.15 204.6v.73l-2.52 6.74-.89-.29 2.42-6.39h-2.95v-.79h3.94zM264.99 205.43c.38.64.57 1.59.57 2.85 0 1.28-.19 2.23-.57 2.87-.38.63-.94.95-1.68.95-.75 0-1.31-.32-1.69-.96-.38-.64-.57-1.59-.57-2.86 0-2.54.76-3.81 2.27-3.81.72.01 1.28.32 1.67.96zm-2.63.52c-.2.46-.3 1.24-.3 2.34 0 1.1.1 1.88.3 2.34.2.46.52.69.94.69.42 0 .73-.23.93-.69.2-.46.3-1.24.3-2.34 0-1.1-.1-1.88-.3-2.34s-.51-.69-.93-.69c-.42-.01-.74.22-.94.69z"/></g><g><path class="st23" d="M6.42 155.82c.3.17.54.41.7.7.16.3.24.63.24 1.01 0 .45-.09.87-.26 1.27s-.45.85-.83 1.34c-.38.49-.97 1.19-1.76 2.09h3.01l-.12.81H3.42v-.77c.85-.98 1.47-1.73 1.86-2.23.39-.51.67-.94.82-1.3.15-.36.23-.75.23-1.15 0-.39-.1-.69-.29-.9s-.46-.32-.79-.32c-.28 0-.52.06-.73.19-.21.12-.42.32-.64.59l-.62-.47c.54-.74 1.22-1.11 2.06-1.11.43-.01.79.08 1.1.25zM12.5 156.52c.38.64.57 1.59.57 2.85 0 1.28-.19 2.23-.57 2.87s-.94.95-1.68.95c-.75 0-1.31-.32-1.69-.96-.38-.64-.57-1.59-.57-2.86 0-2.54.75-3.81 2.27-3.81.73 0 1.29.32 1.67.96zm-2.62.51c-.2.47-.3 1.25-.3 2.34 0 1.1.1 1.88.3 2.34s.52.69.94.69c.42 0 .73-.23.93-.69.2-.46.3-1.24.3-2.34 0-1.1-.1-1.88-.3-2.34-.2-.46-.51-.69-.94-.69s-.73.22-.93.69z"/></g><g><path class="st23" d="M7.66 131.34v.79h-.83v1.81h-.95v-1.81H3v-.71l1.97-4.96.84.32-1.79 4.56H5.9l.1-2h.84v2h.82zM12.5 127.42c.38.64.57 1.59.57 2.85 0 1.28-.19 2.23-.57 2.87s-.94.95-1.68.95c-.75 0-1.31-.32-1.69-.96s-.57-1.59-.57-2.86c0-2.54.75-3.81 2.27-3.81.73 0 1.29.32 1.67.96zm-2.62.51c-.2.47-.3 1.25-.3 2.34 0 1.1.1 1.88.3 2.34s.52.69.94.69c.42 0 .73-.23.93-.69.2-.46.3-1.24.3-2.34 0-1.1-.1-1.88-.3-2.34s-.51-.69-.94-.69-.73.23-.93.69z"/></g><g><path class="st23" d="M6.62 99.88c.28.18.49.44.65.79.16.35.24.78.24 1.29 0 .54-.09 1.01-.27 1.41s-.43.7-.75.91-.69.31-1.11.31c-.79 0-1.36-.31-1.73-.93-.37-.62-.56-1.48-.56-2.59 0-.84.1-1.57.31-2.19.21-.62.51-1.09.9-1.42.39-.33.85-.5 1.38-.5.51 0 .97.15 1.36.45l-.38.63c-.31-.21-.63-.31-.96-.31-.48 0-.86.25-1.14.75-.28.5-.44 1.19-.48 2.07.42-.63.95-.95 1.61-.95.35.01.66.1.93.28zm-.38 3.47c.19-.32.29-.78.29-1.37 0-.56-.09-.98-.28-1.23a.882.882 0 00-.76-.38c-.27 0-.53.09-.76.28-.24.18-.45.44-.62.76.01.84.12 1.46.32 1.85.2.39.52.58.95.58.38-.01.66-.17.86-.49zM12.5 97.93c.38.64.57 1.59.57 2.85 0 1.28-.19 2.23-.57 2.87-.38.63-.94.95-1.68.95-.75 0-1.31-.32-1.69-.96-.38-.64-.57-1.59-.57-2.86 0-2.54.75-3.81 2.27-3.81.73 0 1.29.32 1.67.96zm-2.62.51c-.2.47-.3 1.25-.3 2.34 0 1.1.1 1.88.3 2.34s.52.69.94.69c.42 0 .73-.23.93-.69.2-.46.3-1.24.3-2.34s-.1-1.88-.3-2.34-.51-.69-.94-.69-.73.23-.93.69z"/></g><g><path class="st23" d="M7.42 48.72H5.98l-2.94-7.09c.1 1.06.14 2.08.14 3.08v4.01h-1v-8.26H3.6l2.95 7.1c-.03-.28-.07-.66-.1-1.15-.04-.49-.05-.97-.05-1.45v-4.5h1.02v8.26zM13.46 47.85c.07.12.18.22.34.28l-.23.73c-.31-.05-.56-.14-.73-.29-.18-.14-.3-.36-.37-.66-.41.64-.98.96-1.72.96-.56 0-1-.17-1.33-.52-.33-.35-.49-.81-.49-1.4 0-.67.22-1.18.66-1.54s1.07-.53 1.88-.53h.82v-.54c0-.44-.09-.76-.27-.95-.18-.2-.47-.29-.88-.29-.44 0-.95.11-1.54.34l-.26-.76c.7-.29 1.36-.43 1.97-.43 1.37 0 2.05.68 2.05 2.05v2.98c-.01.26.02.45.1.57zm-1.18-.77v-1.49h-.7c-1.04 0-1.56.44-1.56 1.31 0 .38.08.66.25.86.17.2.41.3.72.3.57 0 .99-.33 1.29-.98zM19.78 39.85v8.87h-.96l-.07-.83c-.41.66-.96.98-1.64.98s-1.22-.29-1.6-.88c-.38-.58-.57-1.39-.57-2.41 0-.66.09-1.25.28-1.75.19-.5.45-.89.8-1.17.34-.28.74-.41 1.19-.41.6 0 1.1.25 1.5.76v-3.28l1.07.12zm-1.67 7.93c.21-.16.41-.4.59-.71V43.9c-.36-.54-.78-.8-1.26-.8-.42 0-.76.2-1.01.61s-.37 1.02-.36 1.85c0 .84.11 1.46.34 1.86.22.4.54.6.95.6.28 0 .53-.08.75-.24zM26.13 45.94h-3.67c.03.74.18 1.27.44 1.59.26.32.62.49 1.08.49.29 0 .55-.04.77-.13s.47-.23.71-.43l.48.64c-.59.53-1.26.79-2.02.79-.82 0-1.46-.29-1.91-.86-.45-.57-.68-1.37-.68-2.41 0-1.03.22-1.85.65-2.45.43-.6 1.03-.91 1.8-.91.76 0 1.34.27 1.75.81.41.54.61 1.31.61 2.31.01.16 0 .35-.01.56zm-.96-6.62l.42.48-1.45 1.39h-.67l-1.45-1.39.42-.48 1.37 1.06 1.36-1.06zm-.06 5.73c0-1.32-.44-1.98-1.31-1.98-.4 0-.72.17-.95.5-.23.33-.36.87-.4 1.61h2.65v-.13zM28.73 48.47c0 .54-.07.97-.21 1.31-.14.34-.34.62-.6.83-.26.21-.61.42-1.05.63l-.34-.78c.28-.14.5-.29.65-.43s.27-.34.35-.58c.08-.24.12-.56.12-.96v-6.08h1.08v6.06zm-.03-8.83c.13.14.2.3.2.5s-.06.37-.19.5-.3.2-.52.2c-.21 0-.38-.07-.51-.2s-.2-.3-.2-.5.07-.37.2-.5c.13-.14.3-.2.51-.2s.38.06.51.2zM35.08 45.94h-3.67c.03.74.18 1.27.44 1.59.26.32.62.49 1.08.49.29 0 .55-.04.77-.13s.47-.23.71-.43l.48.64c-.59.53-1.26.79-2.02.79-.82 0-1.46-.29-1.91-.86-.45-.57-.68-1.37-.68-2.41 0-1.03.22-1.85.65-2.45.43-.6 1.03-.91 1.8-.91.76 0 1.34.27 1.75.81s.61 1.31.61 2.31c.01.16 0 .35-.01.56zm-1.02-.89c0-1.32-.44-1.98-1.31-1.98-.4 0-.72.17-.95.5s-.36.87-.4 1.61h2.65v-.13zM6.62 50.85v8.87h-.96l-.07-.83c-.41.66-.96.98-1.64.98-.69 0-1.22-.29-1.6-.88-.38-.58-.57-1.39-.57-2.41 0-.66.09-1.25.28-1.75.19-.5.45-.89.8-1.17.34-.28.74-.41 1.19-.41.6 0 1.1.25 1.5.76v-3.28l1.07.12zm-1.68 7.93c.21-.16.41-.4.59-.71V54.9c-.36-.54-.78-.8-1.26-.8-.42 0-.76.2-1.01.61s-.37 1.02-.36 1.85c0 .84.11 1.46.34 1.86s.54.6.95.6c.29 0 .54-.08.75-.24zM12.64 54.1c.45.57.67 1.38.67 2.45 0 1.02-.23 1.83-.68 2.43-.46.6-1.08.89-1.88.89-.81 0-1.44-.29-1.89-.88-.45-.58-.68-1.4-.68-2.44 0-1.05.23-1.86.68-2.44.46-.58 1.09-.87 1.9-.87.8.01 1.43.3 1.88.86zm-2.96.61c-.25.4-.37 1.01-.37 1.85 0 1.64.48 2.46 1.44 2.46s1.44-.82 1.44-2.47c0-.84-.12-1.46-.36-1.85-.24-.39-.6-.59-1.07-.59-.48.01-.84.2-1.08.6zM18.32 53.41v.8l-2.99 4.62h3l-.11.89h-4.08v-.8l2.99-4.62h-2.74v-.89h3.93zm-.64-3.09l.42.48-1.45 1.39h-.67l-1.45-1.39.42-.48 1.37 1.06 1.36-1.06zM20.66 50.64c.13.14.2.3.2.5s-.06.37-.19.5-.3.2-.52.2c-.21 0-.38-.07-.51-.2s-.2-.3-.2-.5.07-.37.2-.5c.13-.14.3-.2.51-.2s.38.06.51.2zm.03 2.77v6.31h-1.08v-6.31h1.08zM25.62 59.44c-.4.29-.84.43-1.33.43-.51 0-.91-.15-1.18-.44-.28-.3-.41-.71-.41-1.25v-3.96h-.9v-.82h.9v-1.45l1.08-.13v1.58h1.39l-.12.82h-1.27v3.95c0 .54.23.82.68.82.14 0 .26-.02.38-.06s.25-.1.39-.18l.39.69z"/><path class="st23" d="M27.89 50.16l.46.86-2.3 1.04-.31-.55 2.15-1.35zm-.25 3.25v6.31h-1.08v-6.31h1.08z"/></g><g><path class="st11" d="M26.09 135.34c.28.16.49.37.63.64.15.27.22.58.22.92 0 .41-.08.79-.24 1.16-.16.36-.41.77-.75 1.21s-.88 1.08-1.6 1.9h2.74l-.11.74h-3.62v-.7c.77-.89 1.34-1.57 1.69-2.03.36-.46.6-.86.74-1.19.14-.33.21-.68.21-1.04 0-.35-.09-.63-.26-.82s-.42-.29-.71-.29c-.25 0-.47.06-.66.17s-.38.29-.58.54l-.56-.43c.49-.67 1.11-1.01 1.87-1.01.38 0 .71.08.99.23zM31.77 139.08c.21.29.32.64.32 1.06 0 .37-.09.7-.26.99-.17.29-.42.51-.75.67-.32.16-.7.24-1.12.24-.42 0-.79-.08-1.1-.23-.32-.16-.56-.38-.73-.67-.17-.29-.25-.61-.25-.98 0-.83.42-1.42 1.27-1.78-.36-.19-.62-.41-.78-.66a1.6 1.6 0 01-.24-.89c0-.36.08-.67.25-.93.17-.26.39-.46.67-.59.28-.13.59-.2.94-.2.53 0 .98.15 1.33.44.36.29.54.71.54 1.24 0 .34-.09.63-.26.88s-.45.47-.83.67c.45.21.79.45 1 .74zm-.89 1.95c.21-.2.32-.5.32-.89 0-.35-.09-.63-.27-.83s-.49-.39-.94-.58l-.28-.11c-.32.17-.56.37-.71.61-.15.24-.23.54-.23.9 0 .4.11.7.32.9.21.2.51.3.89.3s.68-.09.9-.3zm-1.62-5c-.18.18-.27.45-.27.81 0 .3.07.53.22.7.15.17.41.33.77.48l.23.1c.28-.19.48-.38.59-.58.12-.2.18-.43.18-.71 0-.35-.09-.62-.26-.79-.17-.18-.42-.26-.73-.26-.3-.01-.55.08-.73.25zM43.2 133.29c.27.15.48.35.63.61s.22.54.22.84c0 .43-.11.77-.33 1.04-.22.26-.53.44-.94.54.44.04.79.2 1.06.48.27.28.4.67.4 1.17 0 .38-.08.72-.26 1.03-.17.31-.41.55-.73.73-.32.18-.69.27-1.11.27-.39 0-.73-.07-1.03-.22s-.58-.38-.83-.68l.54-.46c.21.23.41.39.62.5.2.1.43.16.69.16.37 0 .66-.12.88-.35.22-.24.32-.56.32-.98 0-.44-.11-.76-.32-.96-.22-.2-.53-.29-.94-.29h-.42l.11-.67h.28c.33 0 .61-.1.82-.31.22-.21.33-.5.33-.89 0-.33-.09-.59-.27-.78-.18-.19-.44-.28-.76-.28-.23 0-.45.05-.64.14-.2.09-.4.24-.6.44l-.47-.48c.52-.53 1.12-.8 1.8-.8.36-.02.68.05.95.2zM48.84 133.94c.35.58.52 1.44.52 2.59 0 1.16-.17 2.03-.52 2.61-.35.58-.86.86-1.53.86-.68 0-1.19-.29-1.54-.87-.35-.58-.52-1.45-.52-2.6 0-2.31.69-3.46 2.06-3.46.67 0 1.19.29 1.53.87zm-2.38.46c-.18.42-.27 1.13-.27 2.12 0 1 .09 1.71.27 2.13s.47.63.85.63.66-.21.85-.63c.18-.42.27-1.13.27-2.13s-.09-1.71-.27-2.13-.46-.63-.85-.63-.67.22-.85.64zM60.82 128.48c.27.15.48.35.63.61.15.26.22.54.22.84 0 .43-.11.77-.33 1.04-.22.26-.53.44-.94.54.44.04.79.2 1.06.48s.4.67.4 1.17c0 .38-.08.72-.26 1.03-.17.31-.41.55-.73.73-.32.18-.69.27-1.1.27-.39 0-.73-.08-1.03-.23-.3-.15-.58-.38-.83-.68l.54-.46c.21.23.41.39.62.5.2.1.43.16.69.16.37 0 .66-.12.88-.36.22-.24.32-.56.32-.97 0-.44-.11-.76-.32-.96-.22-.2-.53-.29-.94-.29h-.42l.11-.67h.28c.33 0 .61-.1.82-.31.22-.21.32-.5.32-.89 0-.33-.09-.59-.27-.78-.18-.19-.44-.28-.76-.28-.23 0-.45.05-.65.14-.2.09-.4.24-.59.44l-.47-.48c.52-.53 1.12-.8 1.8-.8.36-.01.68.06.95.21zM65.33 128.48c.27.15.48.35.63.61.15.26.22.54.22.84 0 .43-.11.77-.33 1.04-.22.26-.53.44-.94.54.44.04.79.2 1.06.48s.4.67.4 1.17c0 .38-.08.72-.26 1.03-.17.31-.41.55-.73.73-.32.18-.69.27-1.1.27-.39 0-.73-.08-1.03-.23-.3-.15-.58-.38-.83-.68l.54-.46c.21.23.41.39.62.5.2.1.43.16.69.16.37 0 .66-.12.88-.36.22-.24.32-.56.32-.97 0-.44-.11-.76-.32-.96-.22-.2-.53-.29-.94-.29h-.42l.11-.67h.28c.33 0 .61-.1.82-.31.22-.21.32-.5.32-.89 0-.33-.09-.59-.27-.78-.18-.19-.44-.28-.76-.28-.23 0-.45.05-.65.14-.2.09-.4.24-.59.44l-.47-.48c.52-.53 1.12-.8 1.8-.8.36-.01.68.06.95.21zM78.09 127.89c.27.15.48.35.63.61.15.26.22.54.22.84 0 .43-.11.77-.33 1.04-.22.26-.53.44-.94.54.44.04.79.2 1.06.48s.4.67.4 1.17c0 .38-.08.72-.26 1.03-.17.31-.41.55-.73.73-.32.18-.69.27-1.1.27-.39 0-.73-.08-1.03-.23-.3-.15-.58-.38-.83-.68l.54-.46c.21.23.41.39.62.5.2.1.43.16.69.16.37 0 .66-.12.88-.36.22-.24.32-.56.32-.97 0-.44-.11-.76-.32-.96-.22-.2-.53-.29-.94-.29h-.42l.11-.67h.28c.33 0 .61-.1.82-.31.22-.21.32-.5.32-.89 0-.33-.09-.59-.27-.78-.18-.19-.44-.28-.76-.28-.23 0-.45.05-.65.14-.2.09-.4.24-.59.44l-.47-.48c.52-.53 1.12-.8 1.8-.8.36-.01.68.06.95.21zM82.6 127.89c.27.15.48.35.63.61.15.26.22.54.22.84 0 .43-.11.77-.33 1.04-.22.26-.53.44-.94.54.44.04.79.2 1.06.48s.4.67.4 1.17c0 .38-.08.72-.26 1.03-.17.31-.41.55-.73.73-.32.18-.69.27-1.1.27-.39 0-.73-.08-1.03-.23-.3-.15-.58-.38-.83-.68l.54-.46c.21.23.41.39.62.5.2.1.43.16.69.16.37 0 .66-.12.88-.36.22-.24.32-.56.32-.97 0-.44-.11-.76-.32-.96-.22-.2-.53-.29-.94-.29h-.42l.11-.67h.28c.33 0 .61-.1.82-.31.22-.21.32-.5.32-.89 0-.33-.09-.59-.27-.78-.18-.19-.44-.28-.76-.28-.23 0-.45.05-.65.14-.2.09-.4.24-.59.44l-.47-.48c.52-.53 1.12-.8 1.8-.8.36-.01.68.06.95.21zM95.14 123.66c.27.15.48.35.63.61s.22.54.22.84c0 .43-.11.77-.33 1.04-.22.26-.53.44-.94.54.44.04.79.2 1.06.48.27.28.4.67.4 1.17 0 .38-.08.72-.26 1.03-.17.31-.41.55-.73.73-.32.18-.69.27-1.11.27-.39 0-.73-.07-1.03-.22s-.58-.38-.83-.68l.54-.46c.21.23.41.39.62.5.2.1.43.16.69.16.37 0 .66-.12.88-.35.22-.24.32-.56.32-.98 0-.44-.11-.76-.32-.96-.22-.2-.53-.29-.94-.29h-.42l.11-.67h.28c.33 0 .61-.1.82-.31.22-.21.33-.5.33-.89 0-.33-.09-.59-.27-.78-.18-.19-.44-.28-.76-.28-.23 0-.45.05-.64.14-.2.09-.4.24-.6.44l-.47-.48c.52-.53 1.12-.8 1.8-.8.36-.02.68.05.95.2zM100.4 126.08c.25.16.45.4.6.72.15.32.22.71.22 1.17 0 .49-.08.92-.25 1.29-.16.36-.39.64-.68.83-.29.19-.63.28-1.01.28-.71 0-1.24-.28-1.57-.84-.34-.56-.5-1.35-.5-2.35 0-.77.09-1.43.28-1.99.19-.56.46-.99.82-1.29s.78-.45 1.25-.45.88.14 1.24.41l-.35.57c-.28-.19-.57-.28-.87-.28-.43 0-.78.23-1.04.68s-.4 1.08-.44 1.88c.38-.57.87-.86 1.46-.86.31-.01.59.07.84.23zm-.35 3.15c.18-.29.27-.71.27-1.25 0-.51-.08-.89-.25-1.12s-.4-.35-.69-.35c-.25 0-.48.08-.7.25s-.4.4-.56.69c.01.77.11 1.33.29 1.68s.47.53.87.53c.33.01.59-.14.77-.43zM112.6 125.71c.27.15.48.35.63.61.15.26.22.54.22.84 0 .43-.11.77-.33 1.04-.22.26-.53.44-.94.54.44.04.79.2 1.06.48s.4.67.4 1.17c0 .38-.08.72-.25 1.03s-.41.55-.73.73c-.32.18-.68.27-1.1.27-.39 0-.73-.08-1.04-.23-.3-.15-.58-.38-.83-.68l.54-.46c.21.23.41.39.62.5.2.1.43.16.68.16.37 0 .66-.12.88-.36s.33-.56.33-.97c0-.44-.11-.76-.33-.96-.22-.2-.53-.29-.93-.29h-.42l.11-.67h.28c.33 0 .61-.1.83-.31.22-.21.32-.5.32-.89 0-.33-.09-.59-.27-.78-.18-.19-.44-.28-.75-.28-.23 0-.45.05-.65.14-.2.09-.39.24-.59.44l-.47-.48c.52-.53 1.12-.8 1.8-.8.33-.02.65.06.93.21zM117.94 126.29h-2.34v2c.31-.19.64-.28.98-.28.51 0 .93.19 1.24.56.31.37.47.89.47 1.55 0 .45-.09.84-.27 1.19-.18.35-.42.62-.75.81-.32.19-.69.29-1.12.29-.38 0-.72-.07-1.01-.22s-.56-.36-.82-.65l.53-.48c.19.21.39.36.59.47.2.1.43.15.69.15.39 0 .69-.13.9-.4.21-.27.32-.66.32-1.17 0-.95-.36-1.43-1.08-1.43-.16 0-.31.02-.44.07-.13.04-.28.11-.45.21h-.65v-3.36h3.32l-.11.69zM129.87 125.12c.27.15.48.35.63.61.15.26.22.54.22.84 0 .43-.11.77-.33 1.04-.22.26-.53.44-.94.54.44.04.79.2 1.06.48s.4.67.4 1.17c0 .38-.08.72-.25 1.03s-.41.55-.73.73c-.32.18-.69.27-1.1.27-.39 0-.73-.08-1.04-.23-.3-.15-.58-.38-.83-.68l.54-.46c.21.23.41.39.62.5.2.1.43.16.68.16.37 0 .66-.12.88-.36.22-.24.33-.56.33-.97 0-.44-.11-.76-.33-.96-.22-.2-.53-.29-.93-.29h-.42l.11-.67h.28c.33 0 .61-.1.83-.31.22-.21.33-.5.33-.89 0-.33-.09-.59-.28-.78s-.43-.28-.75-.28c-.23 0-.45.05-.65.14-.2.09-.4.24-.6.44l-.47-.48c.52-.53 1.12-.8 1.8-.8.35-.02.67.06.94.21zM135.21 125.7h-2.34v2c.31-.19.64-.28.98-.28.51 0 .93.19 1.24.56.31.37.47.89.47 1.55 0 .45-.09.84-.27 1.19-.18.35-.42.62-.75.81-.32.19-.69.29-1.12.29-.38 0-.72-.07-1.01-.22s-.56-.36-.82-.65l.53-.48c.19.21.39.36.59.47.2.1.43.15.69.15.39 0 .69-.13.9-.4.21-.27.32-.66.32-1.17 0-.95-.36-1.43-1.08-1.43-.16 0-.31.02-.44.07-.13.04-.28.11-.45.21H132V125h3.32l-.11.7zM148.24 121.74v.72h-.76v1.65h-.86v-1.65H144v-.65l1.79-4.51.76.29-1.63 4.15h1.71l.09-1.82h.76v1.82h.76zM152.64 118.18c.35.58.52 1.44.52 2.59 0 1.16-.17 2.03-.52 2.61-.35.58-.86.86-1.53.86-.68 0-1.19-.29-1.54-.87-.35-.58-.52-1.45-.52-2.6 0-2.31.69-3.46 2.06-3.46.67 0 1.18.29 1.53.87zm-2.39.46c-.18.42-.27 1.13-.27 2.12 0 1 .09 1.71.27 2.13s.47.63.86.63c.38 0 .66-.21.84-.63.18-.42.27-1.13.27-2.13s-.09-1.71-.27-2.13-.46-.63-.85-.63c-.38.01-.67.22-.85.64zM165.82 115.61v.72h-.76v1.65h-.86v-1.65h-2.62v-.65l1.79-4.51.76.29-1.63 4.15h1.71l.09-1.82h.76v1.82h.76zM169.92 111.99h-2.34v2c.31-.19.64-.28.98-.28.51 0 .93.19 1.24.56.31.37.47.89.47 1.55 0 .45-.09.84-.27 1.19-.18.35-.43.62-.75.81s-.69.29-1.12.29c-.38 0-.72-.07-1.01-.22s-.56-.36-.82-.65l.53-.48c.19.21.39.36.59.46.2.1.43.16.69.16.39 0 .69-.13.9-.41.21-.27.32-.66.32-1.17 0-.95-.36-1.43-1.08-1.43-.16 0-.31.02-.44.06-.13.04-.28.11-.45.21h-.65v-3.36h3.32l-.11.71zM182.95 108.89v.72h-.76v1.65h-.86v-1.65h-2.62v-.65l1.79-4.51.76.29-1.63 4.15h1.71l.09-1.82h.76v1.82h.76zM187.1 105.15c.34.46.5 1.11.5 1.95 0 .89-.12 1.61-.36 2.17-.24.56-.6 1.01-1.08 1.35-.48.34-1.11.62-1.9.85l-.2-.66c.81-.25 1.43-.59 1.85-1.01.42-.42.67-1.01.74-1.75-.17.24-.37.43-.6.56s-.49.21-.77.21c-.31 0-.59-.09-.85-.26a1.64 1.64 0 01-.61-.75c-.15-.32-.23-.7-.23-1.13 0-.47.09-.87.26-1.2s.41-.59.71-.76c.3-.17.64-.26 1.02-.26.68 0 1.18.23 1.52.69zm-.42 2.14c.01-.77-.07-1.31-.24-1.64-.17-.33-.45-.5-.84-.5-.35 0-.62.13-.81.38-.19.26-.29.64-.29 1.16 0 .47.09.83.27 1.08.18.25.43.37.74.37.46 0 .85-.28 1.17-.85z"/><g><path class="st11" d="M199.56 95.93h-2.34v2c.31-.19.64-.28.98-.28.51 0 .93.19 1.24.56.31.37.47.89.47 1.55 0 .45-.09.84-.27 1.19-.18.35-.43.62-.75.81s-.69.29-1.12.29c-.38 0-.72-.07-1.01-.22s-.56-.36-.82-.65l.53-.48c.19.21.39.36.59.46.2.1.43.16.69.16.39 0 .69-.13.9-.41.21-.27.32-.66.32-1.17 0-.95-.36-1.43-1.08-1.43-.16 0-.31.02-.44.06-.13.04-.28.11-.45.21h-.65v-3.36h3.32l-.11.71zM204.07 97.76c.25.16.45.4.6.72.15.32.22.71.22 1.17 0 .49-.08.92-.25 1.29-.16.36-.39.64-.68.83-.29.19-.63.28-1.01.28-.71 0-1.24-.28-1.57-.84-.34-.56-.5-1.35-.5-2.35 0-.77.09-1.43.28-1.99.19-.56.46-.99.82-1.29s.78-.45 1.25-.45.88.14 1.24.41l-.35.57c-.28-.19-.57-.28-.87-.28-.43 0-.78.23-1.04.68s-.4 1.08-.44 1.88c.38-.57.87-.86 1.46-.86.31-.01.59.07.84.23zm-.35 3.15c.18-.29.27-.71.27-1.25 0-.51-.08-.89-.25-1.12s-.4-.35-.69-.35c-.25 0-.48.08-.7.25s-.4.4-.56.69c.01.77.11 1.33.29 1.68s.47.53.87.53c.33.01.59-.14.77-.43z"/></g><g><path class="st11" d="M216.79 87.4c.25.16.45.4.6.72.15.32.22.71.22 1.17 0 .49-.08.92-.25 1.29-.16.36-.39.64-.69.83-.29.19-.63.29-1.01.29-.71 0-1.24-.28-1.58-.84-.34-.56-.5-1.35-.5-2.36 0-.77.1-1.43.29-1.99.19-.56.46-.99.82-1.29.36-.3.77-.45 1.25-.45.47 0 .88.14 1.24.41l-.35.57c-.28-.19-.57-.28-.87-.28-.43 0-.78.23-1.03.68-.26.45-.4 1.08-.44 1.88.38-.57.87-.86 1.46-.86.31-.01.59.07.84.23zm-.35 3.15c.18-.29.26-.71.26-1.25 0-.51-.08-.89-.25-1.12s-.4-.35-.7-.35c-.25 0-.48.08-.69.25-.22.17-.4.4-.56.69.01.77.11 1.33.29 1.68.18.35.47.53.87.53.34.01.6-.14.78-.43zM221 84.98c.27.15.48.35.63.61.15.26.22.54.22.84 0 .43-.11.77-.33 1.04-.22.26-.53.44-.94.54.44.04.79.2 1.06.48s.4.67.4 1.17c0 .38-.08.72-.25 1.03s-.41.55-.73.73c-.32.18-.69.27-1.1.27-.39 0-.73-.08-1.04-.23-.3-.15-.58-.38-.83-.68l.54-.46c.21.23.41.39.62.5.2.1.43.16.68.16.37 0 .66-.12.88-.36.22-.24.33-.56.33-.97 0-.44-.11-.76-.33-.96-.22-.2-.53-.29-.93-.29h-.42l.11-.67h.28c.33 0 .61-.1.83-.31.22-.21.33-.5.33-.89 0-.33-.09-.59-.28-.78s-.43-.28-.75-.28c-.23 0-.45.05-.65.14-.2.09-.4.24-.6.44l-.47-.48c.52-.53 1.12-.8 1.8-.8.35-.01.67.06.94.21z"/></g><g><path class="st11" d="M233.81 79.15c.25.16.45.4.6.72.15.32.22.71.22 1.17 0 .49-.08.92-.25 1.29s-.39.64-.69.83c-.29.19-.63.28-1.01.28-.71 0-1.24-.28-1.57-.84s-.5-1.35-.5-2.35c0-.77.1-1.43.28-1.99.19-.56.46-.99.82-1.29s.77-.45 1.25-.45c.47 0 .88.14 1.24.41l-.35.57c-.28-.19-.57-.28-.87-.28-.43 0-.78.23-1.03.68-.26.45-.4 1.08-.44 1.88.38-.57.87-.86 1.46-.86.32-.01.59.07.84.23zm-.35 3.16c.18-.29.26-.71.26-1.25 0-.51-.08-.89-.25-1.12s-.4-.35-.69-.35c-.25 0-.48.08-.69.25-.22.17-.41.4-.57.69.01.77.11 1.33.29 1.68.18.35.47.53.87.53.35 0 .61-.14.78-.43zM239.31 80.48c.21.29.32.64.32 1.06 0 .37-.09.7-.26.99-.17.29-.42.51-.75.67-.32.16-.7.24-1.12.24-.42 0-.79-.08-1.11-.23-.32-.16-.56-.38-.73-.67-.17-.29-.26-.61-.26-.98 0-.83.42-1.42 1.27-1.78-.36-.19-.62-.41-.78-.66a1.6 1.6 0 01-.24-.89c0-.36.08-.67.25-.93s.39-.46.68-.59c.28-.13.59-.2.93-.2.53 0 .98.15 1.33.44.36.29.54.71.54 1.24 0 .34-.09.63-.26.88s-.45.47-.83.67c.47.21.81.46 1.02.74zm-.9 1.96c.21-.2.32-.5.32-.89 0-.35-.09-.63-.26-.83s-.49-.39-.95-.58l-.28-.11c-.32.17-.56.37-.71.61s-.23.54-.23.9c0 .4.11.7.32.9.21.2.51.3.89.3s.69-.1.9-.3zm-1.61-5c-.18.18-.27.45-.27.81 0 .3.07.53.23.7.15.17.4.33.76.48l.23.1c.28-.19.48-.38.59-.58.12-.2.17-.43.17-.71 0-.35-.09-.62-.26-.79s-.42-.26-.73-.26c-.3-.02-.54.07-.72.25z"/></g><g><path class="st11" d="M251.47 73.7v.66l-2.29 6.13-.81-.26 2.2-5.81h-2.68v-.72h3.58zM255.87 74.46c.35.58.52 1.44.52 2.59 0 1.16-.17 2.03-.52 2.61-.35.58-.86.86-1.53.86-.68 0-1.19-.29-1.54-.87-.35-.58-.52-1.45-.52-2.6 0-2.31.69-3.46 2.06-3.46.67 0 1.18.29 1.53.87zm-2.38.47c-.18.42-.27 1.13-.27 2.12 0 1 .09 1.71.27 2.13s.47.63.86.63c.38 0 .66-.21.84-.63.18-.42.27-1.13.27-2.13s-.09-1.71-.27-2.13-.46-.63-.85-.63c-.39 0-.67.21-.85.64z"/></g><g><path class="st11" d="M268.74 73.7v.66l-2.29 6.13-.81-.26 2.2-5.81h-2.68v-.72h3.58zM273.14 74.46c.35.58.52 1.44.52 2.59 0 1.16-.17 2.03-.52 2.61-.35.58-.86.86-1.53.86-.68 0-1.19-.29-1.54-.87-.35-.58-.52-1.45-.52-2.6 0-2.31.69-3.46 2.06-3.46.68 0 1.18.29 1.53.87zm-2.38.47c-.18.42-.27 1.13-.27 2.12 0 1 .09 1.71.27 2.13s.47.63.86.63c.38 0 .66-.21.84-.63.18-.42.27-1.13.27-2.13s-.09-1.71-.27-2.13-.46-.63-.85-.63c-.38 0-.67.21-.85.64z"/></g><g><path class="st11" d="M286.67 72.68v.66l-2.29 6.13-.81-.26 2.2-5.81h-2.68v-.72h3.58zM289.87 72.68v6.69h-.89v-5.75l-1.39.94-.41-.6 1.9-1.28h.79z"/></g><g><path class="st11" d="M303.63 69.46v.66l-2.29 6.13-.8-.25 2.2-5.81h-2.68v-.72h3.57zM306.91 69.58c.27.15.48.35.63.61.15.26.22.54.22.84 0 .43-.11.77-.33 1.04-.22.26-.53.44-.94.54.44.04.79.2 1.06.48s.4.67.4 1.17c0 .38-.08.72-.26 1.03-.17.31-.41.55-.73.73-.32.18-.69.27-1.1.27-.39 0-.73-.08-1.03-.23-.3-.15-.58-.38-.83-.68l.54-.46c.21.23.41.39.62.5.2.1.43.16.69.16.37 0 .66-.12.88-.36.22-.24.32-.56.32-.97 0-.44-.11-.76-.32-.96-.22-.2-.53-.29-.94-.29h-.42l.11-.67h.28c.33 0 .61-.1.82-.31.22-.21.32-.5.32-.89 0-.33-.09-.59-.27-.78-.18-.19-.44-.28-.76-.28-.23 0-.45.05-.65.14-.2.09-.4.24-.59.44l-.47-.48c.52-.53 1.12-.8 1.8-.8.35-.01.67.06.95.21z"/></g><g><path class="st11" d="M320.68 65.31v.66l-2.29 6.13-.81-.26 2.2-5.81h-2.68v-.72h3.58zM324.7 67.84c.25.16.45.4.6.72.15.32.22.71.22 1.17 0 .49-.08.92-.25 1.29-.16.36-.39.64-.68.83-.29.19-.63.28-1.01.28-.71 0-1.24-.28-1.57-.84-.34-.56-.5-1.35-.5-2.35 0-.77.09-1.43.28-1.99.19-.56.46-.99.82-1.29s.78-.45 1.25-.45.88.14 1.24.41l-.35.57c-.28-.19-.57-.28-.87-.28-.43 0-.78.23-1.04.68s-.4 1.08-.44 1.88c.38-.57.87-.86 1.46-.86.31-.01.59.07.84.23zm-.35 3.16c.18-.29.27-.71.27-1.25 0-.51-.08-.89-.25-1.12s-.4-.35-.69-.35c-.25 0-.48.08-.7.25s-.4.4-.56.69c.01.77.11 1.33.29 1.68s.47.53.87.53c.33 0 .59-.14.77-.43z"/></g><g><path class="st11" d="M337.93 61.97v.66l-2.29 6.13-.81-.26 2.2-5.81h-2.68v-.72h3.58zM342.48 65.83c.21.29.32.64.32 1.06 0 .37-.09.7-.26.99-.17.29-.42.51-.75.67-.32.16-.7.24-1.12.24-.42 0-.79-.08-1.1-.23-.32-.16-.56-.38-.73-.67-.17-.29-.25-.61-.25-.98 0-.83.42-1.42 1.27-1.78-.36-.19-.62-.41-.78-.66a1.6 1.6 0 01-.24-.89c0-.36.08-.67.25-.93.17-.26.39-.46.67-.59.28-.13.6-.2.94-.2.53 0 .98.15 1.33.44.36.29.54.71.54 1.24 0 .34-.09.63-.26.88s-.45.47-.83.67c.45.2.79.45 1 .74zm-.9 1.95c.21-.2.32-.5.32-.89 0-.35-.09-.63-.27-.83-.18-.2-.49-.39-.94-.58l-.28-.11c-.32.17-.55.37-.71.61-.15.24-.22.54-.22.9 0 .4.11.7.32.9.21.2.51.3.89.3s.68-.1.89-.3zm-1.61-5c-.18.18-.27.45-.27.81 0 .3.08.53.23.7.15.17.4.33.77.48l.23.1c.28-.19.48-.38.6-.58.12-.2.18-.43.18-.71 0-.35-.09-.62-.26-.79s-.42-.26-.73-.26c-.32-.01-.57.07-.75.25z"/></g></g><g><path class="st11" d="M210.94 97.22h13.89v10.33h-13.89zM228.3 88.91h13.69v18.63H228.3zM245.45 85.98h13.89v21.56h-13.89zM262.8 85.98h13.89v21.56H262.8zM280.16 84.97h13.69v22.57h-13.69zM297.31 81.83H311v25.71h-13.69zM314.47 77.68h13.89v29.86h-13.89zM331.82 74.34h13.69v33.2h-13.69z"/></g><g><path class="st26" d="M38.19 145.5h13.89v2.02H38.19zM55.55 140.64h13.69v6.88H55.55zM72.7 140.14h13.89v7.39H72.7zM90.06 135.89h13.89v11.64H90.06zM107.41 137.91h13.69v9.62h-13.69zM124.57 137.3h13.69v10.22h-13.69zM141.72 129.71h13.89v17.82h-13.89zM159.07 123.64h13.89v23.89h-13.89zM176.43 116.85h13.69v30.67h-13.69zM193.58 107.54h13.89v39.99h-13.89zM210.94 107.54h13.89v39.99h-13.89zM228.3 107.54h13.69v39.99H228.3zM245.45 107.54h13.89v39.99h-13.89zM262.81 107.54h13.89v39.99h-13.89zM280.16 107.54h13.69v39.99h-13.69zM297.31 107.54H311v39.99h-13.69zM314.47 107.54h13.89v39.99h-13.89zM331.82 107.54h13.69v39.99h-13.69z"/></g><g><path class="st24" d="M20.84 147.53h13.89v41.2H20.84zM38.19 147.53h13.89v41.2H38.19zM55.55 147.53h13.69v41.2H55.55zM72.7 147.53h13.89v41.2H72.7zM90.06 147.53h13.89v41.2H90.06zM107.41 147.53h13.69v41.2h-13.69zM124.57 147.53h13.69v41.2h-13.69zM141.72 147.53h13.89v41.2h-13.89zM159.07 147.53h13.89v41.2h-13.89zM176.43 147.53h13.69v41.2h-13.69zM193.58 147.53h13.89v41.2h-13.89zM210.94 147.53h13.89v41.2h-13.89zM228.3 147.53h13.69v41.2H228.3zM245.45 147.53h13.89v41.2h-13.89zM262.81 147.53h13.89v41.2h-13.89zM280.16 147.53h13.69v41.2h-13.69zM297.31 147.53H311v41.2h-13.69zM314.47 147.53h13.89v41.2h-13.89zM331.82 147.53h13.69v41.2h-13.69z"/></g><g><path d="M8.98 3.47V5.1l-5.1 7.7h5.15l-.22 1.73H1.42v-1.62l5.2-7.76H1.94V3.47h7.04zM17.02 13.02c.1.15.26.27.49.36l-.43 1.36c-.48-.04-.87-.16-1.18-.35-.3-.19-.54-.49-.7-.88-.29.43-.65.74-1.08.95-.43.21-.91.31-1.45.31-.84 0-1.51-.24-2-.72s-.74-1.11-.74-1.89c0-.92.33-1.62 1-2.1.67-.48 1.62-.73 2.86-.73h1.06v-.48c0-.54-.13-.93-.38-1.14-.25-.22-.65-.33-1.21-.33-.62 0-1.37.15-2.24.45l-.48-1.39c1.06-.41 2.08-.61 3.07-.61 2.17 0 3.25.97 3.25 2.91v3.55c.01.33.06.57.16.73zm-2.16-.78v-1.71h-.85c-1.32 0-1.98.49-1.98 1.47 0 .41.1.72.3.94.2.22.5.34.9.34.69 0 1.23-.35 1.63-1.04zM29.63 6.5c.42.45.63 1.09.63 1.9v6.13h-2.05V8.72c0-.5-.09-.85-.26-1.06-.18-.2-.44-.3-.78-.3-.35 0-.67.11-.95.33-.28.22-.56.54-.82.95v5.89h-2.05V6.06h1.78l.16 1.1c.69-.9 1.55-1.34 2.58-1.34.75 0 1.34.23 1.76.68zM39.02 7.02c.7.79 1.05 1.89 1.05 3.27 0 .89-.16 1.67-.48 2.34-.32.68-.78 1.2-1.38 1.58-.6.37-1.31.56-2.13.56-1.25 0-2.22-.4-2.93-1.19-.7-.79-1.06-1.89-1.06-3.29 0-.89.16-1.66.48-2.34a3.7 3.7 0 011.38-1.57c.6-.37 1.31-.56 2.14-.56 1.26 0 2.24.4 2.93 1.2zm-4.76 3.27c0 1 .15 1.74.46 2.22.3.47.76.71 1.37.71.61 0 1.06-.24 1.37-.72.3-.48.46-1.22.46-2.21s-.15-1.73-.46-2.2c-.3-.47-.75-.71-1.35-.71-1.23 0-1.85.97-1.85 2.91zM47.02 5.95l-.35 1.98c-.26-.06-.51-.1-.75-.1-.5 0-.9.18-1.18.54-.29.36-.52.9-.69 1.64v4.51H42V6.06h1.78l.19 1.66c.2-.61.5-1.07.88-1.4.38-.33.83-.49 1.33-.49.3.01.58.05.84.12zM58.9 6.52c.41.46.61 1.09.61 1.88v6.13h-2.05V8.72c0-.91-.31-1.36-.93-1.36-.33 0-.62.1-.86.31s-.49.53-.74.97v5.89h-2.05V8.72c0-.91-.31-1.36-.93-1.36-.34 0-.63.1-.87.31s-.49.53-.74.97v5.89H48.3V6.06h1.78l.16 1.1c.64-.9 1.46-1.34 2.45-1.34.49 0 .91.13 1.27.38s.62.6.78 1.05c.34-.46.72-.81 1.13-1.06.41-.25.88-.37 1.42-.37.66 0 1.21.24 1.61.7zM68.3 13.02c.1.15.26.27.49.36l-.43 1.36c-.48-.04-.87-.16-1.18-.35-.3-.19-.54-.49-.7-.88-.29.43-.65.74-1.08.95s-.92.31-1.45.31c-.84 0-1.51-.24-2-.72s-.74-1.11-.74-1.89c0-.92.33-1.62 1-2.1.67-.48 1.62-.73 2.86-.73h1.06v-.48c0-.54-.13-.93-.38-1.14-.25-.22-.65-.33-1.21-.33-.62 0-1.37.15-2.24.45l-.48-1.39c1.06-.41 2.08-.61 3.07-.61 2.17 0 3.25.97 3.25 2.91v3.55c.01.33.06.57.16.73zm-2.16-.78v-1.71h-.85c-1.32 0-1.98.49-1.98 1.47 0 .41.1.72.3.94s.5.34.9.34c.69 0 1.23-.35 1.63-1.04zM70.94 14.2c-.37-.38-.55-.91-.55-1.61V2.67l2.05-.22v10.08c0 .39.16.59.48.59.16 0 .32-.03.48-.08l.43 1.44c-.43.19-.88.29-1.36.29-.65 0-1.16-.19-1.53-.57zM77.14 2.14c.24.24.36.54.36.89s-.12.65-.36.88c-.24.23-.55.35-.94.35-.37 0-.68-.12-.92-.35-.24-.23-.36-.53-.36-.88s.12-.65.36-.89.55-.36.92-.36c.38 0 .7.12.94.36zm.1 3.92v8.46h-2.05V6.06h2.05zM85.21 6.06v1.47l-4.1 5.39h4.18l-.21 1.6h-6.32v-1.47l4.11-5.39h-3.76v-1.6h6.1zM93.06 13.02c.1.15.26.27.49.36l-.43 1.36c-.48-.04-.87-.16-1.18-.35-.3-.19-.54-.49-.7-.88-.29.43-.65.74-1.08.95-.43.21-.91.31-1.45.31-.84 0-1.51-.24-2-.72s-.74-1.11-.74-1.89c0-.92.33-1.62 1-2.1.67-.48 1.62-.73 2.86-.73h1.06v-.48c0-.54-.13-.93-.38-1.14-.25-.22-.65-.33-1.21-.33-.62 0-1.37.15-2.24.45l-.48-1.39c1.06-.41 2.08-.61 3.07-.61 2.17 0 3.25.97 3.25 2.91v3.55c0 .33.05.57.16.73zm-2.17-.78v-1.71h-.85c-1.32 0-1.98.49-1.98 1.47 0 .41.1.72.3.94.2.22.5.34.9.34.69 0 1.23-.35 1.63-1.04zM100.29 6.06c.44.16.86.41 1.26.75l-.91 1.23c-.29-.21-.57-.37-.83-.46a2.5 2.5 0 00-.88-.14c-1.27 0-1.9.97-1.9 2.9 0 .98.17 1.69.5 2.12.33.43.8.65 1.41.65.3 0 .57-.05.82-.14.25-.1.55-.25.89-.46l.91 1.3c-.8.65-1.71.98-2.74.98-.81 0-1.51-.18-2.11-.54-.6-.36-1.06-.87-1.38-1.53-.32-.66-.48-1.44-.48-2.34s.15-1.7.47-2.39c.32-.69.78-1.22 1.38-1.6.6-.38 1.3-.57 2.1-.57.55 0 1.04.08 1.49.24zM109.61 10.93h-5.31c.06.82.28 1.41.64 1.76.36.35.84.53 1.44.53.37 0 .73-.06 1.06-.18.33-.12.68-.31 1.06-.57l.85 1.17c-.94.76-1.98 1.14-3.14 1.14-1.29 0-2.29-.39-2.98-1.18-.7-.79-1.05-1.87-1.05-3.23 0-.86.15-1.64.45-2.33.3-.69.73-1.23 1.3-1.62.57-.39 1.24-.58 2.02-.58 1.18 0 2.1.38 2.75 1.13.65.75.98 1.8.98 3.14-.02.09-.04.37-.07.82zm-1.99-1.43c0-1.48-.55-2.22-1.65-2.22-.5 0-.89.18-1.18.55-.28.37-.45.96-.5 1.77h3.33v-.1zM122.62 2.67v11.86h-1.81l-.14-1.07c-.27.41-.61.73-1.02.96-.41.23-.88.35-1.4.35-1.03 0-1.83-.4-2.38-1.2s-.83-1.89-.83-3.26c0-.86.14-1.63.42-2.31.28-.68.67-1.21 1.19-1.59.52-.38 1.12-.58 1.8-.58.81 0 1.52.3 2.13.91V2.45l2.04.22zm-2.84 10.28c.28-.18.54-.45.78-.82V8.26c-.25-.3-.49-.52-.74-.67-.25-.15-.54-.22-.87-.22-.54 0-.97.24-1.29.73s-.47 1.22-.47 2.2c0 1.05.14 1.79.42 2.25.28.45.68.68 1.22.68.36-.01.68-.1.95-.28zM131.98 10.93h-5.31c.06.82.28 1.41.64 1.76.36.35.84.53 1.44.53.37 0 .73-.06 1.06-.18.33-.12.68-.31 1.06-.57l.85 1.17c-.94.76-1.98 1.14-3.14 1.14-1.29 0-2.29-.39-2.98-1.18s-1.05-1.87-1.05-3.23c0-.86.15-1.64.45-2.33.3-.69.73-1.23 1.3-1.62.56-.39 1.24-.58 2.02-.58 1.18 0 2.1.38 2.75 1.13.65.75.98 1.8.98 3.14-.03.09-.04.37-.07.82zm-2.42-9.52l.83 1.6-3.62 1.44-.58-1.04 3.37-2zm.43 8.09c0-1.48-.55-2.22-1.65-2.22-.5 0-.89.18-1.18.55-.28.37-.45.96-.5 1.77h3.33v-.1zM134.33 14.2c-.37-.38-.55-.91-.55-1.61V2.67l2.05-.22v10.08c0 .39.16.59.48.59.16 0 .32-.03.48-.08l.43 1.44c-.43.19-.88.29-1.36.29-.65 0-1.16-.19-1.53-.57zM140.63 2.45v12.08h-2.05V2.67l2.05-.22zm5.07 3.61l-2.82 3.73 3.09 4.74h-2.35l-2.91-4.62 2.83-3.84h2.16zM153.29 13.02c.1.15.26.27.49.36l-.43 1.36c-.48-.04-.87-.16-1.18-.35-.3-.19-.54-.49-.7-.88-.29.43-.65.74-1.08.95s-.91.31-1.45.31c-.84 0-1.51-.24-2-.72s-.74-1.11-.74-1.89c0-.92.33-1.62 1-2.1.67-.48 1.62-.73 2.86-.73h1.06v-.48c0-.54-.13-.93-.38-1.14-.25-.22-.65-.33-1.21-.33-.62 0-1.37.15-2.24.45l-.48-1.39c1.06-.41 2.08-.61 3.07-.61 2.17 0 3.25.97 3.25 2.91v3.55c.01.33.06.57.16.73zm-2.16-.78v-1.71h-.85c-1.32 0-1.98.49-1.98 1.47 0 .41.1.72.3.94s.5.34.9.34c.69 0 1.23-.35 1.63-1.04zM165.13 6.06v1.47l-4.1 5.39h4.18l-.21 1.6h-6.32v-1.47l4.11-5.39h-3.76v-1.6h6.1zm-1.04-4.33l.78.9-2.22 2h-1.28l-2.22-2 .78-.9 2.08 1.41 2.08-1.41zM168.75 2.14c.24.24.36.54.36.89s-.12.65-.36.88c-.24.23-.55.35-.94.35-.37 0-.68-.12-.92-.35-.24-.23-.36-.53-.36-.88s.12-.65.36-.89.55-.36.92-.36c.39 0 .7.12.94.36zm.1 3.92v8.46h-2.05V6.06h2.05zM178.12 6.06l-2.75 8.46h-2.45l-2.8-8.46h2.22l1.81 6.82 1.86-6.82h2.11zM185.66 7.02c.7.79 1.05 1.89 1.05 3.27 0 .89-.16 1.67-.48 2.34-.32.68-.78 1.2-1.38 1.58-.6.37-1.31.56-2.13.56-1.25 0-2.22-.4-2.93-1.19-.7-.79-1.06-1.89-1.06-3.29 0-.89.16-1.66.48-2.34a3.7 3.7 0 011.38-1.57c.6-.37 1.31-.56 2.14-.56 1.26 0 2.23.4 2.93 1.2zm-4.76 3.27c0 1 .15 1.74.46 2.22.3.47.76.71 1.37.71.61 0 1.06-.24 1.37-.72.3-.48.46-1.22.46-2.21s-.15-1.73-.46-2.2c-.3-.47-.75-.71-1.35-.71-1.23 0-1.85.97-1.85 2.91zM193.48 14.13c-.3.21-.63.37-1 .48-.37.11-.74.16-1.13.16-.83-.01-1.46-.25-1.9-.71-.43-.46-.65-1.15-.65-2.06V7.54h-1.33V6.06h1.33V4.19l2.05-.24v2.11h1.97l-.21 1.47h-1.76v4.42c0 .42.07.71.22.9.14.18.37.27.68.27.31 0 .65-.1 1.01-.3l.72 1.31zM200.88 13.02c.1.15.26.27.49.36l-.43 1.36c-.48-.04-.87-.16-1.18-.35-.3-.19-.54-.49-.7-.88-.29.43-.65.74-1.08.95s-.92.31-1.45.31c-.84 0-1.51-.24-2-.72s-.74-1.11-.74-1.89c0-.92.33-1.62 1-2.1.67-.48 1.62-.73 2.86-.73h1.06v-.48c0-.54-.13-.93-.38-1.14-.25-.22-.65-.33-1.21-.33-.62 0-1.37.15-2.24.45l-.48-1.39c1.06-.41 2.08-.61 3.07-.61 2.17 0 3.25.97 3.25 2.91v3.55c.01.33.06.57.16.73zm-2.17-.78v-1.71h-.85c-1.32 0-1.98.49-1.98 1.47 0 .41.1.72.3.94s.5.34.9.34c.69 0 1.24-.35 1.63-1.04zM212.89 6.83l-.8 1.2c-.73-.46-1.44-.69-2.13-.69-.41 0-.72.08-.94.23-.22.15-.34.36-.34.62 0 .19.05.35.14.48.1.13.27.25.52.36.25.11.62.24 1.11.38.92.25 1.6.57 2.04.98.44.41.66.97.66 1.7 0 .84-.34 1.5-1.02 1.98-.68.47-1.53.71-2.54.71-.69 0-1.33-.11-1.9-.32-.57-.21-1.06-.51-1.48-.88l1.02-1.15c.74.55 1.5.83 2.3.83.46 0 .82-.09 1.1-.27.27-.18.41-.43.41-.75 0-.25-.05-.44-.15-.58s-.28-.27-.54-.38c-.26-.11-.67-.25-1.22-.41-.86-.23-1.5-.56-1.9-.98s-.61-.95-.61-1.58c0-.47.14-.89.41-1.26s.66-.67 1.15-.88 1.06-.32 1.7-.32c1.14-.03 2.14.31 3.01.98zM219.67 14.13c-.3.21-.63.37-1 .48-.37.11-.74.16-1.13.16-.83-.01-1.46-.25-1.9-.71-.43-.47-.64-1.15-.64-2.06V7.54h-1.33V6.06H215V4.19l2.05-.24v2.11h1.97l-.21 1.47h-1.76v4.42c0 .42.07.71.22.9.14.18.37.27.68.27s.65-.1 1.01-.3l.71 1.31zM227.07 13.02c.1.15.26.27.49.36l-.43 1.36c-.48-.04-.87-.16-1.18-.35s-.54-.49-.7-.88c-.29.43-.65.74-1.08.95-.43.21-.92.31-1.45.31-.84 0-1.51-.24-2-.72s-.74-1.11-.74-1.89c0-.92.33-1.62 1-2.1.67-.48 1.62-.73 2.86-.73h1.06v-.48c0-.54-.13-.93-.38-1.14-.25-.22-.65-.33-1.21-.33-.62 0-1.37.15-2.24.45l-.48-1.39c1.06-.41 2.08-.61 3.07-.61 2.17 0 3.25.97 3.25 2.91v3.55c.01.33.06.57.16.73zm-2.17-.78v-1.71h-.85c-1.32 0-1.98.49-1.98 1.47 0 .41.1.72.3.94s.5.34.9.34c.69 0 1.24-.35 1.63-1.04zM236.6 6.51c-.54.19-1.36.29-2.45.29.52.23.91.53 1.16.87.25.35.38.78.38 1.3 0 .55-.14 1.05-.41 1.47-.27.43-.67.76-1.18 1.01-.52.25-1.12.37-1.82.37-.38 0-.72-.04-1.01-.13-.23.16-.35.37-.35.62 0 .39.34.59 1.02.59h1.3c.62 0 1.16.1 1.62.3.46.2.82.49 1.08.86.26.37.38.78.38 1.24 0 .85-.36 1.52-1.09 1.99-.73.47-1.77.71-3.14.71-.98 0-1.75-.1-2.31-.3s-.96-.5-1.19-.88c-.23-.38-.35-.87-.35-1.47h1.84c0 .3.06.53.17.7.11.17.31.3.61.38.29.09.72.13 1.27.13.78 0 1.33-.1 1.65-.29.32-.19.48-.47.48-.83 0-.32-.12-.57-.37-.74-.25-.18-.6-.26-1.07-.26h-1.28c-.8 0-1.4-.15-1.81-.46-.41-.31-.61-.7-.61-1.17 0-.3.09-.59.26-.86.18-.28.42-.51.73-.7-.51-.27-.89-.59-1.13-.98-.24-.39-.36-.86-.36-1.4 0-.61.15-1.14.45-1.6.3-.46.71-.81 1.24-1.06s1.13-.38 1.82-.38c.9.02 1.62-.04 2.17-.2.55-.15 1.14-.4 1.78-.74l.52 1.62zm-5.51 1.15c-.26.29-.39.69-.39 1.18 0 .51.13.92.4 1.22.27.3.63.45 1.1.45.49 0 .86-.15 1.12-.44.26-.29.38-.71.38-1.24 0-1.07-.51-1.6-1.54-1.6-.45-.01-.81.13-1.07.43zM244.11 6.5c.42.45.63 1.09.63 1.9v6.13h-2.05V8.72c0-.5-.09-.85-.26-1.06-.18-.2-.44-.3-.78-.3-.35 0-.67.11-.95.33-.28.22-.56.54-.82.95v5.89h-2.05V6.06h1.78l.16 1.1c.69-.9 1.55-1.34 2.58-1.34.75 0 1.34.23 1.76.68zM253.5 7.02c.7.79 1.05 1.89 1.05 3.27 0 .89-.16 1.67-.48 2.34-.32.68-.78 1.2-1.38 1.58-.6.37-1.31.56-2.13.56-1.25 0-2.22-.4-2.93-1.19-.7-.79-1.06-1.89-1.06-3.29 0-.89.16-1.66.48-2.34a3.7 3.7 0 011.38-1.57c.6-.37 1.31-.56 2.14-.56 1.26 0 2.23.4 2.93 1.2zm-4.76 3.27c0 1 .15 1.74.46 2.22.3.47.76.71 1.37.71.61 0 1.06-.24 1.37-.72.3-.48.46-1.22.46-2.21s-.15-1.73-.46-2.2c-.3-.47-.75-.71-1.35-.71-1.23 0-1.85.97-1.85 2.91zM263.17 6.06l-2.75 8.46h-2.45l-2.8-8.46h2.22l1.81 6.82 1.86-6.82h2.11zM270.54 13.02c.1.15.26.27.49.36l-.43 1.36c-.48-.04-.87-.16-1.18-.35s-.54-.49-.7-.88c-.29.43-.65.74-1.08.95-.43.21-.92.31-1.45.31-.84 0-1.51-.24-2-.72s-.74-1.11-.74-1.89c0-.92.33-1.62 1-2.1.67-.48 1.62-.73 2.86-.73h1.06v-.48c0-.54-.13-.93-.38-1.14-.25-.22-.65-.33-1.21-.33-.62 0-1.37.15-2.24.45l-.48-1.39c1.06-.41 2.08-.61 3.07-.61 2.17 0 3.25.97 3.25 2.91v3.55c.01.33.06.57.16.73zm-2.17-.78v-1.71h-.85c-1.32 0-1.98.49-1.98 1.47 0 .41.1.72.3.94s.5.34.9.34c.7 0 1.24-.35 1.63-1.04zM273.18 14.2c-.37-.38-.55-.91-.55-1.61V2.67l2.05-.22v10.08c0 .39.16.59.48.59.16 0 .32-.03.48-.08l.43 1.44c-.43.19-.88.29-1.36.29-.65 0-1.16-.19-1.53-.57zM283.76 13.02c.1.15.26.27.49.36l-.43 1.36c-.48-.04-.87-.16-1.18-.35-.3-.19-.54-.49-.7-.88-.29.43-.65.74-1.08.95-.43.21-.91.31-1.45.31-.84 0-1.51-.24-2-.72s-.74-1.11-.74-1.89c0-.92.33-1.62 1-2.1.67-.48 1.62-.73 2.86-.73h1.06v-.48c0-.54-.13-.93-.38-1.14-.25-.22-.65-.33-1.21-.33-.62 0-1.37.15-2.24.45l-.48-1.39c1.06-.41 2.08-.61 3.07-.61 2.17 0 3.25.97 3.25 2.91v3.55c.01.33.06.57.16.73zm-2.17-.78v-1.71h-.85c-1.32 0-1.98.49-1.98 1.47 0 .41.1.72.3.94.2.22.5.34.9.34.69 0 1.24-.35 1.63-1.04z"/></g><g><path class="st27" d="M15.65 101.11h1.4M15.65 130.24h1.4M15.65 159.52h1.4M15.65 188.73h1.4"/></g><g><path class="st27" d="M347.47 197.16v1.69M295.63 197.16v1.69M261.07 197.16v1.69M278.35 197.16v1.69M243.79 197.16v1.69M209.23 197.16v1.69M174.67 197.16v1.69M140.11 197.16v1.69M105.55 197.16v1.69M70.99 197.16v1.69M36.43 197.16v1.69M19.15 197.16v1.69"/></g><path opacity=".8" fill="#fff" d="M20.1 74.34h223.69V191.4H20.1z"/><path class="st30" d="M3 195.61h218.52v19.2H3zM321.87 195.61h78.97v19.2h-78.97z"/><path class="st30" d="M296.28 59.88h51.19v137.09h-51.19z"/><path opacity=".7" fill="#fff" d="M296.28 59.88h51.19v137.09h-51.19z"/><g><path d="M305.51 83.96v1.12L302 90.37h3.54l-.15 1.19h-5.08v-1.11l3.58-5.33h-3.21v-1.16h4.83zM311.04 90.52c.07.11.18.19.34.25l-.3.93c-.33-.03-.6-.11-.81-.24-.21-.13-.37-.33-.48-.61-.2.29-.45.51-.74.65-.3.14-.63.21-1 .21-.58 0-1.04-.17-1.38-.5-.34-.33-.51-.76-.51-1.3 0-.63.23-1.11.69-1.45.46-.33 1.11-.5 1.96-.5h.73v-.33c0-.37-.09-.64-.26-.79s-.45-.23-.83-.23c-.43 0-.94.1-1.54.31l-.33-.96c.73-.28 1.43-.42 2.11-.42 1.49 0 2.23.67 2.23 2v2.44c.01.26.05.43.12.54zm-1.49-.54V88.8h-.58c-.91 0-1.36.34-1.36 1.01 0 .28.07.5.21.65s.34.23.62.23c.46.01.84-.23 1.11-.71zM318.72 91.28c-.21.15-.43.26-.69.33-.25.07-.51.11-.78.11-.57-.01-1.01-.17-1.3-.49-.3-.32-.45-.79-.45-1.41v-3.07h-.91v-1.01h.91v-1.29l1.41-.17v1.45h1.35l-.14 1.01h-1.21v3.04c0 .29.05.49.15.62.1.12.25.19.47.19.21 0 .44-.07.69-.21l.5.9zM322.69 82.76l.54.62-1.53 1.38h-.88l-1.53-1.38.54-.62 1.43.97 1.43-.97zm.28 2.9l-.24 1.36c-.18-.04-.35-.07-.52-.07-.34 0-.62.12-.81.37-.2.25-.36.62-.47 1.13v3.1h-1.41v-5.82h1.22l.13 1.14c.14-.42.34-.74.6-.96.26-.22.57-.34.91-.34.22.01.41.04.59.09zM325.18 83.04c.17.17.25.37.25.61s-.08.44-.25.6c-.17.16-.38.24-.64.24s-.47-.08-.63-.24a.785.785 0 01-.25-.6c0-.24.08-.45.25-.61.16-.17.38-.25.63-.25.26 0 .48.08.64.25zm.07 2.7v5.82h-1.41v-5.82h1.41zM330.32 85.74c.3.11.59.28.86.52l-.63.85c-.2-.15-.39-.25-.57-.32-.18-.07-.38-.1-.6-.1-.87 0-1.31.66-1.31 1.99 0 .67.11 1.16.34 1.46.23.3.55.45.97.45.21 0 .39-.03.57-.1.17-.07.38-.17.61-.32l.63.89c-.55.45-1.18.67-1.88.67-.56 0-1.04-.12-1.45-.37-.41-.25-.73-.6-.95-1.05-.22-.46-.33-.99-.33-1.61 0-.62.11-1.16.33-1.63.22-.47.54-.84.95-1.1.41-.26.89-.39 1.44-.39.37-.01.72.05 1.02.16zM336.73 89.08h-3.65c.04.56.19.97.44 1.21s.58.36.99.36c.26 0 .5-.04.73-.13.23-.08.47-.21.73-.39l.58.8c-.65.52-1.36.78-2.16.78-.89 0-1.57-.27-2.05-.81-.48-.54-.72-1.28-.72-2.22 0-.59.1-1.13.31-1.6.21-.47.5-.84.89-1.11.39-.27.85-.4 1.39-.4.81 0 1.44.26 1.89.78.45.52.67 1.24.67 2.16-.01.07-.02.26-.04.57zm-1.37-.98c0-1.02-.38-1.53-1.13-1.53-.34 0-.61.13-.81.38-.19.25-.31.66-.35 1.22h2.29v-.07zM341.36 91.28c-.21.15-.43.26-.69.33-.25.07-.51.11-.78.11-.57-.01-1.01-.17-1.3-.49-.3-.32-.45-.79-.45-1.41v-3.07h-.91v-1.01h.91v-1.29l1.41-.17v1.45h1.35l-.14 1.01h-1.21v3.04c0 .29.05.49.15.62.1.12.25.19.47.19.21 0 .44-.07.69-.21l.5.9zM345.23 91.33c-.25-.26-.38-.63-.38-1.11V83.4l1.41-.15v6.93c0 .27.11.41.33.41.11 0 .22-.02.33-.06l.3.99c-.29.13-.61.2-.94.2-.45 0-.8-.13-1.05-.39zM352.83 89.08h-3.65c.04.56.19.97.44 1.21s.58.36.99.36c.26 0 .5-.04.73-.13.23-.08.47-.21.73-.39l.58.8c-.65.52-1.36.78-2.16.78-.89 0-1.57-.27-2.05-.81-.48-.54-.72-1.28-.72-2.22 0-.59.1-1.13.31-1.6.21-.47.5-.84.89-1.11.39-.27.85-.4 1.39-.4.81 0 1.44.26 1.89.78.45.52.67 1.24.67 2.16-.01.07-.02.26-.04.57zm-1.36-.98c0-1.02-.38-1.53-1.13-1.53-.34 0-.61.13-.81.38-.19.25-.31.66-.35 1.22h2.29v-.07zM357.46 91.28c-.21.15-.43.26-.69.33-.25.07-.51.11-.78.11-.57-.01-1.01-.17-1.3-.49-.3-.32-.45-.79-.45-1.41v-3.07h-.91v-1.01h.91v-1.29l1.41-.17v1.45H357l-.14 1.01h-1.21v3.04c0 .29.05.49.15.62.1.12.25.19.47.19.21 0 .44-.07.69-.21l.5.9zM364.91 86.27l-.55.83c-.5-.32-.99-.47-1.46-.47-.28 0-.49.05-.65.16-.15.11-.23.25-.23.42 0 .13.03.24.1.33s.19.17.36.25.43.16.76.26c.63.17 1.1.39 1.4.67.3.28.46.67.46 1.17 0 .58-.23 1.03-.7 1.36s-1.05.49-1.75.49c-.48 0-.91-.07-1.3-.22s-.73-.35-1.02-.61l.7-.79c.51.38 1.03.57 1.58.57.31 0 .57-.06.75-.19.19-.12.28-.3.28-.52 0-.17-.03-.3-.1-.4-.07-.1-.19-.19-.37-.26-.18-.08-.46-.17-.84-.28-.59-.16-1.03-.39-1.31-.68-.28-.29-.42-.65-.42-1.08 0-.32.09-.61.28-.87.19-.26.45-.46.79-.6.34-.15.73-.22 1.17-.22.79-.02 1.48.21 2.07.68zM370.98 89.08h-3.65c.04.56.19.97.44 1.21s.58.36.99.36c.26 0 .5-.04.73-.13.23-.08.47-.21.73-.39l.58.8c-.65.52-1.36.78-2.16.78-.89 0-1.57-.27-2.05-.81-.48-.54-.72-1.28-.72-2.22 0-.59.1-1.13.31-1.6.21-.47.5-.84.89-1.11.39-.27.85-.4 1.39-.4.81 0 1.44.26 1.89.78.45.52.67 1.24.67 2.16-.01.07-.02.26-.04.57zm-1.36-.98c0-1.02-.38-1.53-1.13-1.53-.34 0-.61.13-.81.38-.19.25-.31.66-.35 1.22h2.29v-.07zM305.54 98.38c.35.54.53 1.29.53 2.25 0 .6-.09 1.13-.27 1.6s-.44.83-.79 1.09c-.35.26-.76.4-1.24.4-.62 0-1.1-.21-1.46-.64v2.72l-1.41.15v-8.22h1.23l.08.72c.23-.29.49-.51.78-.66.29-.15.6-.22.92-.22.74 0 1.28.27 1.63.81zm-.94 2.26c0-.71-.09-1.22-.27-1.54-.18-.32-.46-.47-.83-.47-.23 0-.45.07-.66.21-.21.14-.38.34-.53.58v2.62c.27.4.63.6 1.07.6.81 0 1.22-.66 1.22-2zM310.91 97.66l-.24 1.36c-.18-.04-.35-.07-.52-.07-.34 0-.62.12-.81.37-.2.25-.36.62-.47 1.13v3.1h-1.41v-5.82h1.22l.13 1.14c.14-.42.34-.74.6-.96.26-.22.57-.33.91-.33.22 0 .41.03.59.08zM315.84 98.39c.48.55.72 1.3.72 2.25 0 .61-.11 1.15-.33 1.61-.22.47-.54.83-.95 1.08-.41.26-.9.38-1.46.38-.86 0-1.53-.27-2.01-.82-.48-.55-.73-1.3-.73-2.26 0-.61.11-1.14.33-1.61.22-.46.54-.82.95-1.08.41-.26.9-.39 1.47-.39.86.02 1.53.3 2.01.84zm-3.27 2.25c0 .69.1 1.2.31 1.52s.52.49.94.49.73-.17.94-.5c.21-.33.31-.84.31-1.52s-.1-1.19-.31-1.51-.52-.49-.93-.49c-.84.01-1.26.68-1.26 2.01zM322.78 95.41v8.15h-1.24l-.1-.74c-.18.28-.42.5-.7.66-.28.16-.6.24-.96.24-.71 0-1.26-.28-1.64-.83s-.57-1.3-.57-2.24c0-.59.1-1.12.29-1.59.19-.47.46-.83.82-1.09.36-.26.77-.4 1.24-.4.56 0 1.04.21 1.46.63v-2.95l1.4.16zm-1.95 7.06c.19-.12.37-.31.54-.57v-2.66c-.17-.21-.34-.36-.51-.46-.17-.1-.37-.15-.6-.15-.37 0-.67.17-.89.5-.22.33-.32.84-.32 1.51 0 .72.1 1.23.29 1.55.19.31.47.47.84.47.24-.01.46-.07.65-.19zM324.8 103.33c-.25-.26-.38-.63-.38-1.11V95.4l1.41-.15v6.93c0 .27.11.41.33.41.11 0 .22-.02.33-.06l.3.99c-.29.13-.61.2-.94.2-.45 0-.8-.13-1.05-.39zM332.05 98.39c.48.55.72 1.3.72 2.25 0 .61-.11 1.15-.33 1.61-.22.47-.54.83-.95 1.08-.41.26-.9.38-1.46.38-.86 0-1.53-.27-2.01-.82-.48-.55-.73-1.3-.73-2.26 0-.61.11-1.14.33-1.61.22-.46.54-.82.95-1.08.41-.26.9-.39 1.47-.39.86.02 1.53.3 2.01.84zm-3.28 2.25c0 .69.1 1.2.31 1.52s.52.49.94.49.73-.17.94-.5c.21-.33.31-.84.31-1.52s-.1-1.19-.31-1.51-.52-.49-.93-.49c-.83.01-1.26.68-1.26 2.01zM338.74 103.56h-1.22l-.08-.81c-.21.33-.46.58-.75.74-.29.16-.63.24-1.03.24-.52 0-.92-.16-1.2-.48s-.42-.76-.42-1.33v-4.18h1.41v4c0 .33.06.57.17.7.11.14.29.21.54.21.45 0 .84-.27 1.18-.82v-4.09h1.41v5.82zM344.22 97.74v1.01l-2.82 3.71h2.87l-.14 1.1h-4.34v-1.01l2.83-3.71h-2.58v-1.1h4.18zm-.72-2.98l.54.62-1.53 1.38h-.88l-1.53-1.38.54-.62 1.43.97 1.43-.97zM346.71 95.04c.17.17.25.37.25.61s-.08.44-.25.61-.38.24-.64.24-.47-.08-.63-.24c-.17-.16-.25-.36-.25-.61s.08-.45.25-.61c.16-.17.38-.25.63-.25.26 0 .47.08.64.25zm.07 2.7v5.82h-1.41v-5.82h1.41zM348.8 103.33c-.25-.26-.38-.63-.38-1.11V95.4l1.41-.15v6.93c0 .27.11.41.33.41.11 0 .22-.02.33-.06l.3.99c-.29.13-.61.2-.94.2-.45 0-.8-.13-1.05-.39zM358.25 97.74v1.01l-2.82 3.71h2.87l-.14 1.1h-4.34v-1.01l2.83-3.71h-2.58v-1.1h4.18zm-.71-2.98l.54.62-1.53 1.38h-.88l-1.53-1.38.54-.62 1.43.97 1.43-.97zM360.75 95.04c.17.17.25.37.25.61s-.08.44-.25.61-.38.24-.64.24-.47-.08-.63-.24c-.17-.16-.25-.36-.25-.61s.08-.45.25-.61c.16-.17.38-.25.63-.25.26 0 .47.08.64.25zm.07 2.7v5.82h-1.41v-5.82h1.41zM367.19 97.74l-1.89 5.82h-1.68l-1.92-5.82h1.53l1.24 4.69 1.28-4.69h1.44zM372.37 98.39c.48.55.72 1.3.72 2.25 0 .61-.11 1.15-.33 1.61-.22.47-.54.83-.95 1.08-.41.26-.9.38-1.46.38-.86 0-1.53-.27-2.01-.82-.48-.55-.73-1.3-.73-2.26 0-.61.11-1.14.33-1.61.22-.46.54-.82.95-1.08.41-.26.9-.39 1.47-.39.86.02 1.53.3 2.01.84zm-3.27 2.25c0 .69.1 1.2.31 1.52s.52.49.94.49.73-.17.94-.5c.21-.33.31-.84.31-1.52s-.1-1.19-.31-1.51-.52-.49-.93-.49c-.84.01-1.26.68-1.26 2.01zM377.75 103.28c-.21.15-.43.26-.69.33-.25.07-.51.11-.78.11-.57-.01-1.01-.17-1.3-.49-.3-.32-.45-.79-.45-1.41v-3.07h-.91v-1.01h.91v-1.29l1.41-.17v1.45h1.35l-.14 1.01h-1.21v3.04c0 .29.05.49.15.62.1.12.25.19.47.19.21 0 .44-.07.69-.21l.5.9zM308.19 110.05c.28.32.42.75.42 1.29v4.21h-1.41v-3.99c0-.62-.21-.93-.64-.93-.23 0-.42.07-.59.21-.17.14-.34.37-.51.67v4.05h-1.41v-3.99c0-.62-.21-.93-.64-.93-.23 0-.43.07-.6.21-.17.14-.34.37-.51.67v4.05h-1.41v-5.82h1.22l.11.76c.44-.62 1-.92 1.68-.92.34 0 .63.09.87.26.25.17.42.41.53.72.23-.32.49-.56.78-.73.28-.17.61-.25.97-.25.49-.02.87.14 1.14.46zM314.9 115.56h-1.22l-.08-.81c-.21.33-.46.58-.75.74-.29.16-.63.24-1.03.24-.52 0-.92-.16-1.2-.48s-.42-.76-.42-1.33v-4.18h1.41v4c0 .33.06.57.17.7.11.14.29.21.54.21.45 0 .84-.27 1.18-.82v-4.09h1.41v5.82zM320.38 109.74v1.01l-2.82 3.71h2.87l-.14 1.1h-4.34v-1.01l2.83-3.71h-2.58v-1.1h4.18zm-.71-2.98l.54.62-1.53 1.38h-.88l-1.53-1.38.54-.62 1.43.97 1.43-.97zM326.08 115.56h-1.22l-.08-.81c-.21.33-.46.58-.75.74-.29.16-.63.24-1.03.24-.52 0-.92-.16-1.2-.48s-.42-.76-.42-1.33v-4.18h1.41v4c0 .33.06.57.17.7.11.14.29.21.54.21.45 0 .84-.27 1.18-.82v-4.09h1.41v5.82zm-1.34-9.01c.26.25.38.57.38.94s-.13.68-.39.94-.6.38-1.01.38c-.42 0-.76-.13-1.02-.38s-.39-.57-.39-.94.13-.69.39-.94.6-.38 1.02-.38.76.13 1.02.38zm-1.41.51c-.1.1-.14.25-.14.43s.05.33.14.42c.1.1.23.15.4.15.16 0 .29-.05.38-.15.1-.1.14-.24.14-.42s-.05-.33-.14-.43-.22-.15-.38-.15c-.17 0-.31.05-.4.15zM334.91 110.39c.48.55.72 1.3.72 2.25 0 .61-.11 1.15-.33 1.61-.22.47-.54.83-.95 1.08-.41.26-.9.38-1.46.38-.86 0-1.53-.27-2.01-.82-.48-.55-.73-1.3-.73-2.26 0-.61.11-1.14.33-1.61.22-.46.54-.82.95-1.08.41-.26.9-.39 1.47-.39.86.02 1.53.3 2.01.84zm-3.28 2.25c0 .69.1 1.2.31 1.52s.52.49.94.49.73-.17.94-.5c.21-.33.31-.84.31-1.52s-.1-1.19-.31-1.51-.52-.49-.93-.49c-.83.01-1.26.68-1.26 2.01zM343.97 109.01c.45.66.68 1.61.68 2.85 0 1.25-.23 2.2-.68 2.87-.45.66-1.11 1-1.97 1s-1.52-.33-1.97-1c-.45-.66-.68-1.62-.68-2.87 0-1.24.23-2.19.68-2.85.45-.66 1.11-.99 1.97-.99s1.52.33 1.97.99zm-2.89.71c-.19.42-.29 1.14-.29 2.14 0 1.01.1 1.73.29 2.16.19.43.5.64.91.64s.72-.21.91-.63c.19-.42.29-1.14.29-2.16 0-1.01-.1-1.73-.29-2.14-.19-.42-.5-.63-.91-.63s-.72.2-.91.62zM347.11 114.19c.17.17.26.38.26.64 0 .14-.02.28-.07.43s-.12.33-.22.56l-.71 1.63h-.86l.45-1.89c-.25-.17-.37-.41-.37-.74a.852.852 0 01.88-.88c.25 0 .46.08.64.25zM351.76 108.27c.36.17.62.4.8.68.18.29.27.6.27.95 0 .45-.13.82-.39 1.12-.26.3-.61.5-1.06.62.49.04.89.22 1.21.53.31.31.47.73.47 1.28 0 .43-.11.81-.32 1.16s-.53.62-.93.82c-.4.2-.88.3-1.43.3-1.01 0-1.81-.36-2.4-1.07l.78-.75c.25.25.5.43.74.54.24.11.51.17.8.17.4 0 .71-.11.95-.34.24-.22.36-.53.36-.91 0-.43-.11-.73-.34-.91-.22-.18-.56-.28-1-.28h-.58l.17-1h.4c.36 0 .65-.1.86-.3s.32-.47.32-.83c0-.3-.1-.54-.3-.71-.2-.17-.46-.26-.79-.26-.29 0-.55.05-.78.16-.23.11-.47.27-.7.49l-.71-.78c.67-.63 1.44-.95 2.32-.95.5.02.92.11 1.28.27zM360.6 109.66l-.24 1.36c-.18-.04-.35-.07-.52-.07-.34 0-.62.12-.81.37-.2.25-.36.62-.47 1.13v3.1h-1.41v-5.82h1.22l.13 1.14c.14-.42.34-.74.6-.96.26-.22.57-.33.91-.33.22 0 .41.03.59.08zM365.53 110.39c.48.55.72 1.3.72 2.25 0 .61-.11 1.15-.33 1.61-.22.47-.54.83-.95 1.08-.41.26-.9.38-1.46.38-.86 0-1.53-.27-2.01-.82-.48-.55-.73-1.3-.73-2.26 0-.61.11-1.14.33-1.61.22-.46.54-.82.95-1.08.41-.26.9-.39 1.47-.39.86.02 1.53.3 2.01.84zm-3.27 2.25c0 .69.1 1.2.31 1.52s.52.49.94.49.73-.17.94-.5c.21-.33.31-.84.31-1.52s-.1-1.19-.31-1.51-.52-.49-.93-.49c-.84.01-1.26.68-1.26 2.01zM368.98 107.25v8.3h-1.41v-8.15l1.41-.15zm3.49 2.49l-1.94 2.56 2.12 3.26h-1.62l-2-3.18 1.95-2.64h1.49zM378.01 115.56h-1.22l-.08-.81c-.21.33-.46.58-.75.74-.29.16-.63.24-1.03.24-.52 0-.92-.16-1.2-.48s-.42-.76-.42-1.33v-4.18h1.41v4c0 .33.06.57.17.7.11.14.29.21.54.21.45 0 .84-.27 1.18-.82v-4.09h1.41v5.82zM380.81 114.19c.17.17.26.38.26.64 0 .14-.02.28-.07.43s-.12.33-.22.56l-.71 1.63h-.86l.45-1.89c-.25-.17-.37-.41-.37-.74a.852.852 0 01.88-.88c.25 0 .47.08.64.25zM305.55 127.56h-1.22l-.08-.81c-.21.33-.46.58-.75.74-.29.16-.63.24-1.03.24-.52 0-.92-.16-1.2-.48s-.42-.76-.42-1.33v-4.18h1.41v4c0 .33.06.57.17.7.11.14.29.21.54.21.45 0 .84-.27 1.18-.82v-4.09h1.41v5.82zM313.78 121.74v1.01l-2.82 3.71h2.87l-.14 1.1h-4.34v-1.01l2.83-3.71h-2.58v-1.1h4.18zm-.71-2.98l.54.62-1.53 1.38h-.88l-1.53-1.38.54-.62 1.43.97 1.43-.97zM319.59 125.08h-3.65c.04.56.19.97.44 1.21s.58.36.99.36c.26 0 .5-.04.73-.13.23-.08.47-.21.73-.39l.58.8c-.65.52-1.36.78-2.16.78-.89 0-1.57-.27-2.05-.81-.48-.54-.72-1.28-.72-2.22 0-.59.1-1.13.31-1.6.21-.47.5-.84.89-1.11.39-.27.85-.4 1.39-.4.81 0 1.44.26 1.89.78.45.52.67 1.24.67 2.16-.01.07-.02.26-.04.57zm-1.36-.98c0-1.02-.38-1.53-1.13-1.53-.34 0-.61.13-.81.38-.19.25-.31.66-.35 1.22h2.29v-.07zM325.21 122.04c.29.31.43.75.43 1.3v4.21h-1.41v-3.99c0-.34-.06-.59-.18-.73s-.3-.21-.53-.21c-.24 0-.46.08-.65.23s-.38.37-.57.65v4.05h-1.41v-5.82h1.22l.11.76c.48-.62 1.07-.92 1.77-.92.52 0 .93.16 1.22.47zM334.41 122.39c.48.55.72 1.3.72 2.25 0 .61-.11 1.15-.33 1.61-.22.47-.54.83-.95 1.08-.41.26-.9.38-1.46.38-.86 0-1.53-.27-2.01-.82-.48-.55-.73-1.3-.73-2.26 0-.61.11-1.14.33-1.61.22-.46.54-.82.95-1.08.41-.26.9-.39 1.47-.39.86.02 1.53.3 2.01.84zm-3.27 2.25c0 .69.1 1.2.31 1.52s.52.49.94.49.73-.17.94-.5c.21-.33.31-.84.31-1.52s-.1-1.19-.31-1.51-.52-.49-.93-.49c-.84.01-1.26.68-1.26 2.01zM342.26 120.15v7.4h-1.39v-5.98l-1.65 1-.62-.95 2.41-1.47h1.25zM345.26 126.19c.17.17.26.38.26.64 0 .14-.02.28-.07.43s-.12.33-.22.56l-.71 1.63h-.86l.45-1.89c-.25-.17-.37-.41-.37-.74a.852.852 0 01.88-.88c.25 0 .47.08.64.25zM350.5 122.91c.32.19.57.46.75.83.18.36.28.8.28 1.3 0 .51-.11.97-.32 1.38s-.51.73-.9.96c-.38.23-.82.35-1.31.35-.91 0-1.58-.32-2.02-.96s-.65-1.51-.65-2.63c0-.82.12-1.54.37-2.16.25-.62.6-1.1 1.06-1.44s1-.51 1.61-.51c.61 0 1.15.16 1.62.47l-.53.87c-.34-.2-.69-.3-1.07-.3-.47 0-.85.21-1.13.63s-.44 1-.48 1.74c.45-.54 1-.81 1.66-.81a2 2 0 011.06.28zm-.67 3.33c.19-.29.28-.68.28-1.18 0-.51-.09-.87-.26-1.08-.17-.22-.42-.33-.75-.33-.25 0-.49.07-.71.2-.22.14-.42.32-.6.55.01.8.12 1.38.3 1.73.19.36.49.53.91.53.37.02.65-.13.83-.42zM358.94 121.66l-.24 1.36c-.18-.04-.35-.07-.52-.07-.34 0-.62.12-.81.37-.2.25-.36.62-.47 1.13v3.1h-1.41v-5.82h1.22l.13 1.14c.14-.42.34-.74.6-.96.26-.22.57-.33.91-.33.22 0 .41.03.59.08zM363.87 122.39c.48.55.72 1.3.72 2.25 0 .61-.11 1.15-.33 1.61-.22.47-.54.83-.95 1.08-.41.26-.9.38-1.46.38-.86 0-1.53-.27-2.01-.82-.48-.55-.73-1.3-.73-2.26 0-.61.11-1.14.33-1.61.22-.46.54-.82.95-1.08.41-.26.9-.39 1.47-.39.86.02 1.53.3 2.01.84zm-3.27 2.25c0 .69.1 1.2.31 1.52s.52.49.94.49.73-.17.94-.5c.21-.33.31-.84.31-1.52s-.1-1.19-.31-1.51-.52-.49-.93-.49c-.84.01-1.26.68-1.26 2.01zM367.32 119.25v8.3h-1.41v-8.15l1.41-.15zm3.49 2.49l-1.94 2.56 2.12 3.26h-1.62l-2-3.18 1.95-2.64h1.49zM376.35 127.56h-1.22l-.08-.81c-.21.33-.46.58-.75.74-.29.16-.63.24-1.03.24-.52 0-.92-.16-1.2-.48s-.42-.76-.42-1.33v-4.18h1.41v4c0 .33.06.57.17.7.11.14.29.21.54.21.45 0 .84-.27 1.18-.82v-4.09h1.41v5.82zM379.14 126.2c.18.17.26.38.26.63 0 .24-.09.45-.26.63a.86.86 0 01-.64.26c-.24 0-.45-.09-.62-.26a.894.894 0 01-.26-.63c0-.25.08-.46.25-.63a.86.86 0 01.63-.26c.25 0 .47.09.64.26zM305.32 144.57c.51.39.77.98.77 1.75 0 .83-.27 1.45-.8 1.85s-1.25.6-2.13.6h-.96v2.78h-1.04v-7.58h1.99c.93.01 1.66.2 2.17.6zm-.82 3.03c.32-.23.48-.66.48-1.26 0-.54-.16-.94-.48-1.18-.32-.24-.78-.36-1.37-.36h-.94v3.16h.91c.62-.01 1.08-.13 1.4-.36zM310.36 145.69l-.19.99c-.18-.04-.35-.07-.51-.07-.36 0-.65.13-.87.4-.22.26-.39.67-.52 1.23v3.31h-1.01v-5.8h.87l.1 1.18c.15-.43.36-.76.63-.98.26-.22.57-.33.92-.33.21.01.4.03.58.07zM315.26 146.44c.45.54.68 1.28.68 2.21 0 .6-.1 1.13-.31 1.59-.21.46-.5.81-.89 1.07-.39.25-.85.38-1.39.38-.81 0-1.45-.27-1.9-.81-.46-.54-.68-1.28-.68-2.21 0-.6.1-1.13.31-1.59.21-.46.5-.81.89-1.07.39-.25.85-.38 1.4-.38.81 0 1.44.27 1.89.81zm-3.4 2.23c0 1.47.5 2.21 1.5 2.21s1.5-.74 1.5-2.22c0-1.47-.5-2.21-1.48-2.21-1.02-.01-1.52.73-1.52 2.22zM323.16 145.79c.31.11.62.27.9.5l-.43.64c-.26-.17-.52-.29-.75-.37s-.49-.12-.75-.12c-.33 0-.59.07-.78.2-.19.14-.29.32-.29.56 0 .24.09.42.27.55.18.13.5.26.97.39.65.16 1.13.38 1.45.66.32.28.48.66.48 1.14 0 .57-.22 1.01-.67 1.31-.44.3-.98.45-1.62.45-.88 0-1.61-.25-2.19-.76l.54-.62c.49.37 1.03.56 1.63.56.38 0 .68-.08.91-.24.22-.16.34-.37.34-.64 0-.2-.04-.36-.12-.48-.08-.12-.22-.23-.42-.32a5.8 5.8 0 00-.87-.29c-.62-.16-1.06-.38-1.34-.65s-.41-.62-.41-1.03c0-.3.09-.57.27-.82.18-.25.43-.44.75-.57s.68-.2 1.07-.2.75.04 1.06.15zM328.75 145.69l-.19.99c-.18-.04-.35-.07-.51-.07-.36 0-.65.13-.87.4-.22.26-.39.67-.52 1.23v3.31h-1.01v-5.8h.87l.1 1.18c.15-.43.36-.76.63-.98.26-.22.57-.33.92-.33.22.01.41.03.58.07zM333.65 146.44c.45.54.68 1.28.68 2.21 0 .6-.1 1.13-.31 1.59-.21.46-.5.81-.89 1.07-.39.25-.85.38-1.39.38-.81 0-1.45-.27-1.9-.81-.46-.54-.68-1.28-.68-2.21 0-.6.1-1.13.31-1.59.21-.46.5-.81.89-1.07.39-.25.85-.38 1.4-.38.81 0 1.44.27 1.89.81zm-3.4 2.23c0 1.47.5 2.21 1.5 2.21s1.5-.74 1.5-2.22c0-1.47-.5-2.21-1.48-2.21-1.02-.01-1.52.73-1.52 2.22zM340.21 145.76l-1.97 5.8h-1.22l-2-5.8h1.1l1.52 4.89 1.51-4.89h1.06zM345.33 146.1c.3.32.45.75.45 1.3v4.16h-1.01v-4.01c0-.41-.08-.7-.23-.87-.15-.17-.38-.25-.68-.25-.31 0-.58.09-.81.26-.23.18-.45.43-.66.76v4.11h-1.01v-5.8h.87l.09.86c.21-.31.46-.55.76-.73.3-.18.64-.26 1.01-.26.51 0 .93.16 1.22.47zM351.84 150.73c.08.11.2.2.36.26l-.23.7c-.3-.04-.54-.12-.73-.25-.18-.13-.32-.34-.41-.62-.39.58-.96.87-1.73.87-.57 0-1.02-.16-1.35-.48-.33-.32-.5-.75-.5-1.27 0-.62.22-1.09.67-1.42.44-.33 1.07-.5 1.89-.5h.89v-.43c0-.41-.1-.7-.3-.88-.2-.18-.5-.26-.91-.26-.43 0-.95.1-1.56.31l-.25-.74c.72-.26 1.39-.4 2-.4.68 0 1.19.17 1.53.5.34.33.51.81.51 1.42v2.65c0 .25.04.42.12.54zm-1.33-7.98l.45.85-2.33.95-.31-.54 2.19-1.26zm.2 7.28v-1.33h-.76c-1.07 0-1.61.4-1.61 1.19 0 .34.08.6.25.78.17.18.42.26.75.26.58 0 1.04-.3 1.37-.9zM357.77 146.1c.3.32.45.75.45 1.3v4.16h-1.01v-4.01c0-.41-.08-.7-.23-.87-.15-.17-.38-.25-.68-.25-.31 0-.58.09-.81.26-.23.18-.45.43-.66.76v4.11h-1.01v-5.8h.87l.09.86c.21-.31.46-.55.76-.73.3-.18.64-.26 1.01-.26.51 0 .92.16 1.22.47zM361.62 142.75l.45.85-2.33.95-.31-.54 2.19-1.26zm-.36 3.01v5.8h-1.01v-5.8h1.01zM364.16 150.38c.15.15.22.33.22.54 0 .23-.07.49-.2.78l-.74 1.68h-.73l.44-1.83a.788.788 0 01-.31-.64c0-.21.07-.39.22-.54.15-.15.33-.22.54-.22.23.01.41.08.56.23zM375.86 146.11c.29.32.43.75.43 1.29v4.16h-1.01v-4.01c0-.75-.27-1.12-.81-1.12-.29 0-.53.08-.73.25-.2.17-.41.42-.64.78v4.11h-1.01v-4.01c0-.75-.27-1.12-.81-1.12-.29 0-.54.08-.74.25-.2.17-.41.42-.63.77v4.11h-1.01v-5.8h.87l.09.85c.43-.65.99-.98 1.67-.98.36 0 .67.09.92.27.25.18.43.44.54.77.23-.34.48-.6.75-.78s.6-.27.97-.27c.49 0 .87.16 1.15.48zM382.69 149.01h-3.7c.04.64.21 1.11.48 1.41s.64.45 1.08.45c.28 0 .54-.04.77-.12.23-.08.48-.21.74-.38l.44.61c-.62.48-1.29.73-2.02.73-.81 0-1.44-.26-1.89-.79-.45-.53-.68-1.25-.68-2.18 0-.6.1-1.13.29-1.6s.47-.83.84-1.09c.36-.26.79-.4 1.28-.4.77 0 1.36.25 1.77.76.41.51.62 1.21.62 2.1 0 .15-.01.32-.02.5zm-.98-.82c0-.57-.11-1.01-.34-1.31-.23-.3-.57-.45-1.02-.45-.83 0-1.28.61-1.35 1.83h2.72v-.07zM387.65 145.76v.77l-3.02 4.18h3.06l-.12.85h-4.08v-.76l3.01-4.18h-2.76v-.86h3.91zM390.07 143.18c.13.13.2.3.2.5s-.07.36-.2.49-.3.19-.52.19c-.21 0-.37-.06-.51-.19a.663.663 0 01-.2-.49c0-.2.07-.36.2-.5.13-.13.3-.2.51-.2.21 0 .38.06.52.2zm0 2.58v5.8h-1.01v-5.8h1.01zM304.19 157.69l-.19.99c-.18-.04-.35-.07-.51-.07-.36 0-.65.13-.87.4-.22.26-.39.67-.52 1.23v3.31h-1.01v-5.8h.87l.1 1.18c.15-.43.36-.76.63-.98.26-.22.57-.33.92-.33.21.01.4.03.58.07zM309.09 158.44c.45.54.68 1.28.68 2.21 0 .6-.1 1.13-.31 1.59-.21.46-.5.81-.89 1.07-.39.25-.85.38-1.39.38-.81 0-1.45-.27-1.9-.81-.46-.54-.68-1.28-.68-2.21 0-.6.1-1.13.31-1.59.21-.46.5-.81.89-1.07.39-.25.85-.38 1.4-.38.81 0 1.44.27 1.89.81zm-3.4 2.23c0 1.47.5 2.21 1.5 2.21s1.5-.74 1.5-2.22c0-1.47-.5-2.21-1.48-2.21-1.02-.01-1.52.73-1.52 2.22zM312.45 155.31v8.25h-1.01v-8.13l1.01-.12zm3.33 2.45l-2.13 2.56 2.38 3.23h-1.21l-2.3-3.17 2.13-2.63h1.13zM319.39 163.59c-.23.67-.54 1.21-.95 1.6-.41.39-.99.63-1.74.71l-.11-.79c.38-.07.69-.16.91-.29.23-.12.41-.28.54-.48s.26-.46.38-.79h-.34l-1.95-5.8h1.08l1.55 5.06 1.52-5.06h1.04l-1.93 5.84zM327.91 156.2v7.36h-1.01v-6.28l-1.72 1.04-.44-.71 2.28-1.41h.89zM333.74 156.85c.4.51.6 1.21.6 2.09 0 1-.14 1.81-.41 2.43s-.69 1.1-1.24 1.46c-.56.36-1.31.68-2.27.96l-.23-.76c.98-.28 1.74-.66 2.26-1.13.52-.48.8-1.11.84-1.9-.17.26-.4.48-.68.64s-.61.24-.97.24c-.38 0-.73-.1-1.03-.29s-.55-.47-.73-.82c-.18-.36-.27-.77-.27-1.25 0-.5.11-.93.32-1.3.21-.37.5-.65.85-.84.36-.19.75-.29 1.18-.29.78 0 1.37.25 1.78.76zm-.42 2.33c.01-.81-.09-1.4-.3-1.75-.22-.36-.56-.53-1.03-.53-.43 0-.77.14-1 .43-.23.29-.35.69-.35 1.22 0 .51.11.9.33 1.16.22.26.52.39.89.39.57-.01 1.06-.31 1.46-.92zM338.32 156.35c.33.18.59.42.78.72.18.3.28.65.28 1.03 0 .45-.1.88-.3 1.29s-.51.85-.93 1.33-1.05 1.14-1.9 1.99h3.31l-.12.85h-4.34v-.8c.98-1.02 1.68-1.77 2.09-2.24.41-.47.7-.89.88-1.24.18-.35.26-.73.26-1.13 0-.38-.11-.68-.33-.9-.22-.22-.51-.32-.88-.32-.3 0-.56.06-.79.19-.23.12-.47.33-.73.62l-.66-.53c.3-.37.63-.65 1-.84.37-.18.78-.27 1.23-.27.43-.01.81.08 1.15.25zM343.37 156.2v7.36h-1.01v-6.28l-1.72 1.04-.44-.71 2.28-1.41h.89zM352.57 162.73c.08.11.2.2.36.26l-.23.7c-.3-.04-.54-.12-.73-.25-.18-.13-.32-.34-.41-.62-.39.58-.96.87-1.73.87-.57 0-1.02-.16-1.35-.48-.33-.32-.5-.75-.5-1.27 0-.62.22-1.09.67-1.42.44-.33 1.07-.5 1.89-.5h.89v-.43c0-.41-.1-.7-.3-.88-.2-.18-.5-.26-.91-.26-.43 0-.95.1-1.56.31l-.25-.74c.72-.26 1.39-.4 2-.4.68 0 1.19.17 1.53.5.34.33.51.81.51 1.42v2.65c0 .25.04.42.12.54zm-1.14-.7v-1.33h-.76c-1.07 0-1.61.4-1.61 1.19 0 .34.08.6.25.78.17.18.42.26.75.26.59 0 1.04-.3 1.37-.9zM357.92 157.76v.77l-3.02 4.18h3.06l-.12.85h-4.08v-.76l3.01-4.18h-2.76v-.86h3.91zm-.63-2.84l.43.5-1.48 1.24h-.67l-1.5-1.24.44-.5 1.39.92 1.39-.92zM364.76 156.2v7.36h-1.01v-6.28l-1.72 1.04-.44-.71 2.28-1.41h.89zM370.59 156.85c.4.51.6 1.21.6 2.09 0 1-.14 1.81-.41 2.43s-.69 1.1-1.24 1.46c-.56.36-1.31.68-2.27.96l-.23-.76c.98-.28 1.74-.66 2.26-1.13.52-.48.8-1.11.84-1.9-.17.26-.4.48-.68.64s-.61.24-.97.24c-.38 0-.73-.1-1.03-.29s-.55-.47-.73-.82c-.18-.36-.27-.77-.27-1.25 0-.5.11-.93.32-1.3.21-.37.5-.65.85-.84.36-.19.75-.29 1.18-.29.78 0 1.37.25 1.78.76zm-.42 2.33c.01-.81-.09-1.4-.3-1.75-.22-.36-.56-.53-1.03-.53-.43 0-.77.14-1 .43-.23.29-.35.69-.35 1.22 0 .51.11.9.33 1.16.22.26.52.39.89.39.57-.01 1.06-.31 1.46-.92zM377.15 160.94v.8h-.96v1.82h-.98v-1.82h-3.15v-.73l2.21-4.93.85.35-1.99 4.5h2.09l.09-1.98h.88v1.98h.96zM381.88 156.85c.4.51.6 1.21.6 2.09 0 1-.14 1.81-.41 2.43s-.69 1.1-1.24 1.46c-.56.36-1.31.68-2.27.96l-.23-.76c.98-.28 1.74-.66 2.26-1.13.52-.48.8-1.11.84-1.9-.17.26-.4.48-.68.64s-.61.24-.97.24c-.38 0-.73-.1-1.03-.29s-.55-.47-.73-.82c-.18-.36-.27-.77-.27-1.25 0-.5.11-.93.32-1.3.21-.37.5-.65.85-.84.36-.19.75-.29 1.18-.29.79 0 1.38.25 1.78.76zm-.42 2.33c.01-.81-.09-1.4-.3-1.75-.22-.36-.56-.53-1.03-.53-.43 0-.77.14-1 .43-.23.29-.35.69-.35 1.22 0 .51.11.9.33 1.16.22.26.52.39.89.39.58-.01 1.07-.31 1.46-.92zM304.02 175.29c-.38.26-.81.4-1.3.4s-.87-.14-1.15-.42-.41-.69-.41-1.23v-3.5h-1.01v-.78h1.01v-1.31l1.01-.12v1.43h1.38l-.11.78h-1.27V174c0 .3.05.52.16.65.11.14.28.2.53.2.23 0 .48-.08.77-.23l.39.67zM308.98 170.44c.45.54.68 1.28.68 2.21 0 .6-.1 1.13-.31 1.59-.21.46-.5.81-.89 1.07-.39.25-.85.38-1.39.38-.81 0-1.45-.27-1.9-.81-.46-.54-.68-1.28-.68-2.21 0-.6.1-1.13.31-1.59.21-.46.5-.81.89-1.07.39-.25.85-.38 1.4-.38.81 0 1.44.27 1.89.81zm-3.4 2.23c0 1.47.5 2.21 1.5 2.21s1.5-.74 1.5-2.22c0-1.47-.5-2.21-1.48-2.21-1.02-.01-1.52.73-1.52 2.22zM318.47 170.43c.39.53.58 1.27.58 2.23 0 .6-.09 1.13-.27 1.59-.18.46-.45.81-.79 1.07-.34.25-.75.38-1.21.38-.61 0-1.12-.26-1.54-.77l-.1.64h-.89v-8.13l1.01-.12v3.18c.42-.57.96-.86 1.64-.86.65-.01 1.18.25 1.57.79zm-.89 3.91c.25-.36.38-.93.38-1.69 0-.78-.12-1.35-.35-1.7-.23-.35-.57-.52-1-.52-.51 0-.96.3-1.35.9v2.77c.15.24.34.43.57.57s.46.21.71.21c.44.01.79-.17 1.04-.54zM323.05 175.59c-.23.67-.54 1.21-.95 1.6-.41.39-.99.63-1.74.71l-.11-.79c.38-.07.69-.16.91-.29.23-.12.41-.28.54-.48s.26-.46.38-.79h-.34l-1.95-5.8h1.08l1.55 5.06 1.52-5.06h1.04l-1.93 5.84zM326.42 175.35c-.22-.22-.32-.54-.32-.94v-6.99l1.01-.12v7.08c0 .16.03.28.08.35.06.07.15.11.28.11.14 0 .26-.02.37-.07l.26.7c-.24.13-.51.2-.8.2-.37.02-.67-.09-.88-.32zM333.39 170.44c.45.54.68 1.28.68 2.21 0 .6-.1 1.13-.31 1.59-.21.46-.5.81-.89 1.07-.39.25-.85.38-1.39.38-.81 0-1.45-.27-1.9-.81-.46-.54-.68-1.28-.68-2.21 0-.6.1-1.13.31-1.59.21-.46.5-.81.89-1.07.39-.25.85-.38 1.4-.38.81 0 1.44.27 1.89.81zm-3.41 2.23c0 1.47.5 2.21 1.5 2.21s1.5-.74 1.5-2.22c0-1.47-.5-2.21-1.48-2.21-1.01-.01-1.52.73-1.52 2.22zM341.16 168.2v7.36h-1.01v-6.28l-1.72 1.04-.44-.71 2.28-1.41h.89zM347.89 172.94v.8h-.96v1.82h-.98v-1.82h-3.15v-.73l2.21-4.93.85.35-1.99 4.5h2.09l.09-1.98h.88v1.98h.96zM356.21 174.73c.08.11.2.2.36.26l-.23.7c-.3-.04-.54-.12-.73-.25-.18-.13-.32-.34-.41-.62-.39.58-.96.87-1.73.87-.57 0-1.02-.16-1.35-.48-.33-.32-.5-.75-.5-1.27 0-.62.22-1.09.67-1.42.44-.33 1.07-.5 1.89-.5h.89v-.43c0-.41-.1-.7-.3-.88-.2-.18-.5-.26-.91-.26-.43 0-.95.1-1.56.31l-.25-.74c.72-.26 1.39-.4 2-.4.68 0 1.19.17 1.53.5.34.33.51.81.51 1.42v2.65c0 .25.04.42.12.54zm-1.13-.7v-1.33h-.76c-1.07 0-1.61.4-1.61 1.19 0 .34.08.6.25.78.17.18.42.26.75.26.58 0 1.04-.3 1.37-.9zM363.59 168.2v7.36h-1.01v-6.28l-1.72 1.04-.44-.71 2.28-1.41h.89zM369.21 170.98c.31.18.55.44.74.79.18.35.27.78.27 1.29 0 .52-.1.98-.31 1.38a2.23 2.23 0 01-2.03 1.24c-.86 0-1.48-.32-1.88-.95-.4-.63-.59-1.51-.59-2.63 0-.8.11-1.5.34-2.11.22-.6.54-1.07.96-1.41.42-.33.91-.5 1.49-.5.56 0 1.06.15 1.52.45l-.4.67a2.12 2.12 0 00-1.13-.32c-.53 0-.95.25-1.25.76s-.48 1.18-.51 2.04c.45-.65 1.04-.97 1.77-.97.36.01.7.1 1.01.27zm-.35 3.42c.23-.32.34-.76.34-1.31 0-1.05-.4-1.57-1.19-1.57-.32 0-.62.09-.89.27-.27.18-.5.43-.69.74.02.81.15 1.4.38 1.78.23.38.59.57 1.07.57.42.01.75-.15.98-.48zM374.89 175.35c-.22-.22-.32-.54-.32-.94v-6.99l1.01-.12v7.08c0 .16.03.28.08.35.06.07.15.11.28.11.14 0 .26-.02.37-.07l.26.7c-.24.13-.51.2-.8.2-.37.02-.66-.09-.88-.32zM382.15 173.01h-3.7c.04.64.21 1.11.48 1.41s.64.45 1.08.45c.28 0 .54-.04.77-.12.23-.08.48-.21.74-.38l.44.61c-.62.48-1.29.73-2.02.73-.81 0-1.44-.26-1.89-.79-.45-.53-.68-1.25-.68-2.18 0-.6.1-1.13.29-1.6s.47-.83.84-1.09c.36-.26.79-.4 1.28-.4.77 0 1.36.25 1.77.76.41.51.62 1.21.62 2.1 0 .15-.01.32-.02.5zm-.98-.82c0-.57-.11-1.01-.34-1.31-.23-.3-.57-.45-1.02-.45-.83 0-1.28.61-1.35 1.83h2.72v-.07zM386.71 175.29c-.38.26-.81.4-1.3.4s-.87-.14-1.15-.42-.41-.69-.41-1.23v-3.5h-1.01v-.78h1.01v-1.31l1.01-.12v1.43h1.38l-.11.78h-1.27V174c0 .3.05.52.16.65.11.14.28.2.53.2.23 0 .48-.08.77-.23l.39.67zM388.61 174.38c.15.15.22.33.22.54s-.07.39-.22.54-.33.23-.55.23c-.21 0-.39-.08-.54-.23-.15-.15-.22-.33-.22-.54s.07-.39.22-.54c.15-.15.33-.22.54-.22.22 0 .41.07.55.22z"/></g><g><path class="st11" d="M132.66 34.36l-2.42 7.58h-1.12l-2.44-7.58h1.12l1.9 6.45 1.9-6.45h1.06zM140.05 37.37c.31.18.55.44.74.79.18.35.28.78.28 1.29 0 .52-.1.98-.31 1.38a2.23 2.23 0 01-2.03 1.24c-.86 0-1.49-.32-1.88-.95-.4-.63-.59-1.51-.59-2.63 0-.8.11-1.5.34-2.11.22-.6.54-1.07.96-1.41.42-.33.91-.5 1.48-.5.56 0 1.06.15 1.52.45l-.4.67a2.12 2.12 0 00-1.13-.32c-.53 0-.95.25-1.25.76-.31.51-.48 1.18-.51 2.04.45-.64 1.05-.97 1.77-.97.36 0 .71.09 1.01.27zm-.35 3.42c.23-.32.34-.76.34-1.31 0-1.05-.4-1.57-1.19-1.57-.32 0-.62.09-.89.27-.27.18-.5.43-.69.74.02.81.15 1.4.38 1.78.23.38.59.57 1.07.57.43 0 .75-.16.98-.48zM146.42 35.45c.41.65.62 1.59.62 2.82 0 1.23-.21 2.17-.62 2.83-.42.65-1.03.98-1.84.98s-1.43-.33-1.84-.98-.62-1.59-.62-2.83c0-1.23.21-2.17.62-2.82.41-.65 1.03-.97 1.84-.97.81-.01 1.42.32 1.84.97zm-2.91.53c-.23.47-.35 1.23-.35 2.29s.12 1.82.35 2.29c.23.47.58.71 1.06.71.47 0 .82-.24 1.06-.71.23-.47.35-1.24.35-2.29s-.12-1.81-.35-2.28c-.23-.47-.59-.71-1.06-.71-.47 0-.83.23-1.06.7zM149.5 40.76c.15.15.22.33.22.54s-.07.39-.22.54c-.15.15-.33.22-.55.22-.21 0-.39-.08-.54-.22-.15-.15-.22-.33-.22-.54s.07-.39.22-.54.33-.22.54-.22c.22 0 .41.08.55.22zM158.27 41.11c.08.11.2.2.36.26l-.23.7c-.3-.04-.54-.12-.73-.25-.18-.13-.32-.34-.41-.62-.39.58-.96.87-1.73.87-.57 0-1.02-.16-1.35-.48-.33-.32-.49-.74-.49-1.27 0-.62.22-1.09.67-1.42s1.07-.49 1.89-.49h.89v-.43c0-.41-.1-.7-.3-.88-.2-.18-.5-.26-.91-.26-.43 0-.95.1-1.56.31l-.25-.74c.72-.26 1.39-.4 2-.4.68 0 1.19.17 1.53.5.34.33.51.81.51 1.42v2.65c-.01.24.03.42.11.53zm-1.13-.7v-1.33h-.76c-1.07 0-1.61.4-1.61 1.19 0 .34.08.61.25.78s.42.26.75.26c.58 0 1.04-.3 1.37-.9zM166.65 34.58v.76l-2.75 6.71-.92-.31 2.65-6.34h-3.26v-.82h4.28zM171.76 35.45c.41.65.62 1.59.62 2.82 0 1.23-.21 2.17-.62 2.83-.42.65-1.03.98-1.84.98s-1.43-.33-1.84-.98-.62-1.59-.62-2.83c0-1.23.21-2.17.62-2.82.41-.65 1.03-.97 1.84-.97.81-.01 1.43.32 1.84.97zm-2.9.53c-.23.47-.35 1.23-.35 2.29s.12 1.82.35 2.29c.23.47.58.71 1.06.71.47 0 .82-.24 1.06-.71.23-.47.35-1.24.35-2.29s-.12-1.81-.35-2.28c-.23-.47-.59-.71-1.06-.71-.48 0-.83.23-1.06.7zM174.85 40.76c.15.15.22.33.22.54s-.07.39-.22.54c-.15.15-.33.22-.55.22-.21 0-.39-.08-.54-.22-.15-.15-.22-.33-.22-.54s.07-.39.22-.54.33-.22.54-.22c.22 0 .4.08.55.22zM179.86 41.74c-.22-.22-.32-.54-.32-.94v-6.99l1.01-.12v7.08c0 .16.03.28.08.35.06.07.15.11.28.11.14 0 .26-.02.37-.07l.26.7c-.24.13-.51.2-.8.2-.37.01-.67-.1-.88-.32zM187.11 39.39h-3.7c.04.64.21 1.11.48 1.41s.64.45 1.08.45c.28 0 .54-.04.77-.12.23-.08.48-.21.74-.39l.44.61c-.62.48-1.29.73-2.02.73-.81 0-1.44-.26-1.89-.79-.45-.53-.68-1.25-.68-2.18 0-.6.1-1.13.29-1.6s.47-.83.84-1.09c.36-.26.79-.4 1.28-.4.77 0 1.36.25 1.77.76.41.51.62 1.21.62 2.1 0 .16 0 .33-.02.51zm-.98-.81c0-.57-.11-1.01-.34-1.31-.23-.3-.57-.45-1.02-.45-.83 0-1.28.61-1.35 1.83h2.72v-.07zM191.68 41.68c-.38.26-.81.4-1.3.4s-.87-.14-1.15-.42c-.28-.28-.41-.69-.41-1.23v-3.5h-1.01v-.78h1.01v-1.31l1.01-.12v1.43h1.38l-.11.78h-1.26v3.45c0 .3.05.52.16.65s.28.2.53.2c.23 0 .48-.08.77-.23l.38.68zM196.91 39.39h-3.7c.04.64.21 1.11.48 1.41s.64.45 1.08.45c.28 0 .54-.04.77-.12.23-.08.48-.21.74-.39l.44.61c-.62.48-1.29.73-2.02.73-.81 0-1.44-.26-1.89-.79-.45-.53-.68-1.25-.68-2.18 0-.6.1-1.13.29-1.6s.47-.83.84-1.09c.36-.26.79-.4 1.28-.4.77 0 1.36.25 1.77.76.41.51.62 1.21.62 2.1 0 .16 0 .33-.02.51zm-.98-.81c0-.57-.11-1.01-.34-1.31-.23-.3-.57-.45-1.02-.45-.83 0-1.28.61-1.35 1.83h2.72v-.07zM201.61 36.16c.29.1.56.26.82.48l-.48.64c-.21-.15-.41-.25-.6-.32s-.41-.1-.64-.1c-.47 0-.83.19-1.09.56-.26.37-.39.93-.39 1.66 0 .73.13 1.27.39 1.62.26.35.62.52 1.1.52.23 0 .44-.04.63-.1.19-.07.4-.18.64-.34l.46.66c-.53.43-1.12.64-1.77.64-.79 0-1.4-.26-1.85-.79-.45-.53-.68-1.26-.68-2.19 0-.62.1-1.16.31-1.62.21-.46.5-.82.87-1.08.38-.26.83-.38 1.35-.38.33-.01.64.04.93.14zM207.77 36.49c.3.32.45.75.45 1.3v4.16h-1.01v-4.01c0-.41-.08-.7-.24-.87s-.39-.25-.69-.25c-.3 0-.57.09-.8.26a3.1 3.1 0 00-.66.75v4.12h-1.01v-8.12l1.01-.11v3.23c.46-.62 1.03-.93 1.72-.93.52-.01.94.15 1.23.47zM214.16 41.59c0 .54-.07.96-.2 1.29-.13.32-.32.58-.58.79s-.61.41-1.06.61l-.3-.74c.29-.13.51-.26.66-.39.15-.13.27-.31.35-.54.08-.23.12-.55.12-.95v-5.51h1.01v5.44zm.01-8.03c.13.13.2.3.2.5s-.07.36-.2.49-.3.19-.52.19c-.21 0-.37-.06-.51-.19-.13-.13-.2-.29-.2-.49s.07-.36.2-.5c.13-.13.3-.2.51-.2a.7.7 0 01.52.2zM220.61 39.39h-3.7c.04.64.21 1.11.48 1.41.28.3.64.45 1.08.45.28 0 .54-.04.77-.12.23-.08.48-.21.74-.39l.44.61c-.62.48-1.29.73-2.02.73-.81 0-1.44-.26-1.89-.79-.45-.53-.68-1.25-.68-2.18 0-.6.1-1.13.29-1.6s.47-.83.84-1.09c.36-.26.79-.4 1.28-.4.77 0 1.36.25 1.77.76.41.51.62 1.21.62 2.1 0 .16-.01.33-.02.51zm-.98-.81c0-.57-.11-1.01-.34-1.31-.23-.3-.57-.45-1.02-.45-.83 0-1.28.61-1.35 1.83h2.72v-.07zM131.2 48.42c.29.31.43.75.43 1.3v4.21h-1.41v-3.99c0-.34-.06-.59-.18-.73s-.3-.21-.53-.21c-.24 0-.46.08-.65.23-.19.15-.38.37-.57.65v4.05h-1.41v-5.82h1.22l.11.76c.48-.62 1.07-.92 1.77-.92.53.01.93.16 1.22.47zM137.68 52.9c.07.11.18.19.34.25l-.3.94c-.33-.03-.6-.11-.81-.24s-.37-.33-.48-.61c-.2.29-.45.51-.74.66-.3.14-.63.21-1 .21-.58 0-1.04-.17-1.38-.5-.34-.33-.51-.76-.51-1.3 0-.63.23-1.11.69-1.45.46-.33 1.11-.5 1.96-.5h.73v-.33c0-.37-.09-.64-.26-.79s-.45-.23-.83-.23c-.43 0-.94.1-1.54.31l-.33-.96c.73-.28 1.43-.42 2.11-.42 1.49 0 2.23.67 2.23 2v2.44c.02.25.05.42.12.52zm-1.49-.53v-1.18h-.58c-.91 0-1.36.34-1.36 1.01 0 .28.07.49.21.65s.34.23.62.23c.47 0 .84-.23 1.11-.71zM144.18 45.79v8.15h-1.24l-.1-.74c-.18.28-.42.5-.7.66s-.6.24-.96.24c-.71 0-1.26-.27-1.64-.83-.38-.55-.57-1.3-.57-2.24 0-.59.1-1.12.29-1.59s.46-.83.82-1.09.77-.4 1.24-.4c.56 0 1.04.21 1.46.63v-2.95l1.4.16zm-1.95 7.07c.19-.12.37-.31.54-.57v-2.66c-.17-.21-.34-.36-.51-.46-.17-.1-.37-.15-.6-.15-.37 0-.67.17-.89.5-.22.33-.32.84-.32 1.51 0 .72.09 1.23.29 1.55.19.31.47.47.84.47.24-.01.46-.07.65-.19zM150.61 51.47h-3.65c.04.56.19.97.44 1.21s.58.36.99.36c.26 0 .5-.04.73-.13s.47-.21.73-.39l.58.8c-.65.52-1.36.78-2.16.78-.89 0-1.57-.27-2.05-.81-.48-.54-.72-1.28-.72-2.22 0-.59.1-1.13.31-1.6.21-.47.5-.84.89-1.11s.85-.4 1.39-.4c.81 0 1.44.26 1.89.78.45.52.67 1.24.67 2.16 0 .07-.01.26-.04.57zm-1.06-6.33l.54.62-1.53 1.38h-.88l-1.53-1.38.54-.62 1.43.97 1.43-.97zm-.3 5.35c0-1.02-.38-1.53-1.13-1.53-.34 0-.61.13-.81.38s-.31.66-.35 1.21h2.29v-.06zM153.31 53.42c0 .57-.08 1.04-.25 1.4s-.4.65-.7.87c-.3.22-.69.43-1.18.63l-.45-1.02c.29-.13.51-.26.67-.39.16-.13.28-.3.37-.52.08-.22.13-.51.13-.88v-5.39h1.41v5.3zm-.07-8c.17.17.25.37.25.61s-.08.44-.25.61-.38.24-.64.24-.47-.08-.63-.24-.25-.36-.25-.61c0-.24.08-.45.25-.61s.38-.25.63-.25a.9.9 0 01.64.25zM159.74 51.47h-3.65c.04.56.19.97.44 1.21s.58.36.99.36c.26 0 .5-.04.73-.13s.47-.21.73-.39l.58.8c-.65.52-1.36.78-2.16.78-.89 0-1.57-.27-2.05-.81-.48-.54-.72-1.28-.72-2.22 0-.59.1-1.13.31-1.6.21-.47.5-.84.89-1.11s.85-.4 1.39-.4c.81 0 1.44.26 1.89.78.45.52.67 1.24.67 2.16 0 .07-.01.26-.04.57zm-1.36-.98c0-1.02-.38-1.53-1.13-1.53-.34 0-.61.13-.81.38s-.31.66-.35 1.22h2.29v-.07zM168.69 45.79v8.15h-1.24l-.1-.74c-.18.28-.42.5-.7.66s-.6.24-.96.24c-.71 0-1.26-.27-1.64-.83-.38-.55-.57-1.3-.57-2.24 0-.59.1-1.12.29-1.59s.46-.83.82-1.09.77-.4 1.24-.4c.56 0 1.04.21 1.46.63v-2.95l1.4.16zm-1.95 7.07c.19-.12.37-.31.54-.57v-2.66c-.17-.21-.34-.36-.51-.46-.17-.1-.37-.15-.6-.15-.37 0-.67.17-.89.5-.22.33-.32.84-.32 1.51 0 .72.09 1.23.29 1.55.19.31.47.47.84.47.24-.01.46-.07.65-.19zM174.76 48.78c.48.55.72 1.3.72 2.25 0 .61-.11 1.15-.33 1.61-.22.47-.54.83-.95 1.08-.41.26-.9.38-1.46.38-.86 0-1.53-.27-2.01-.82-.48-.55-.73-1.3-.73-2.26 0-.61.11-1.14.33-1.61s.54-.82.95-1.08c.41-.26.9-.38 1.47-.38.86.01 1.53.28 2.01.83zm-3.27 2.25c0 .69.1 1.2.31 1.52.21.33.52.49.94.49s.73-.17.94-.5.31-.84.31-1.52-.1-1.19-.31-1.51c-.21-.33-.52-.49-.93-.49-.84 0-1.26.67-1.26 2.01zM180.5 48.12v1.01l-2.82 3.71h2.87l-.14 1.1h-4.35v-1.01l2.83-3.71h-2.58v-1.1h4.19zm-.71-2.98l.54.62-1.53 1.38h-.88l-1.53-1.38.54-.62 1.43.97 1.43-.97zM182.99 45.42c.17.17.25.37.25.61s-.08.44-.25.61-.38.24-.64.24-.47-.08-.63-.24-.25-.36-.25-.61c0-.24.08-.45.25-.61s.38-.25.63-.25c.26 0 .48.09.64.25zm.07 2.7v5.82h-1.41v-5.82h1.41zM188.09 53.67c-.21.15-.43.26-.69.33s-.51.11-.78.11c-.57-.01-1.01-.17-1.3-.49s-.45-.79-.45-1.41v-3.07h-.91v-1.01h.91v-1.29l1.41-.17v1.45h1.35l-.14 1.01h-1.21v3.04c0 .29.05.49.15.62.1.12.25.19.47.19s.44-.07.69-.21l.5.9zM190.42 44.92l.57 1.1-2.49.99-.4-.71 2.32-1.38zm-.13 3.2v5.82h-1.41v-5.82h1.41zM198.66 46.54v.99l-2.74 6.56-1.29-.42 2.57-6.04h-3.12v-1.09h4.58zM203.91 47.4c.45.66.68 1.61.68 2.85 0 1.25-.23 2.2-.68 2.87s-1.11 1-1.97 1-1.52-.33-1.97-1c-.45-.66-.68-1.62-.68-2.87 0-1.24.23-2.19.68-2.85.45-.66 1.11-.99 1.97-.99s1.52.33 1.97.99zm-2.88.71c-.19.42-.29 1.13-.29 2.14 0 1.01.1 1.73.29 2.16.19.43.5.64.91.64s.72-.21.91-.63.29-1.14.29-2.16c0-1.01-.1-1.73-.29-2.15s-.5-.63-.91-.63-.72.2-.91.63zM209.02 53.72c-.25-.26-.38-.63-.38-1.11v-6.82l1.41-.15v6.93c0 .27.11.41.33.41.11 0 .22-.02.33-.05l.3.99c-.29.13-.61.2-.94.2-.45-.01-.8-.14-1.05-.4zM216.62 51.47h-3.65c.04.56.19.97.44 1.21s.58.36.99.36c.26 0 .5-.04.73-.13s.47-.21.73-.39l.58.8c-.65.52-1.36.78-2.16.78-.89 0-1.57-.27-2.05-.81-.48-.54-.72-1.28-.72-2.22 0-.59.1-1.13.31-1.6.21-.47.5-.84.89-1.11s.85-.4 1.39-.4c.81 0 1.44.26 1.89.78.45.52.67 1.24.67 2.16 0 .07-.01.26-.04.57zm-1.36-.98c0-1.02-.38-1.53-1.13-1.53-.34 0-.61.13-.81.38s-.31.66-.35 1.22h2.29v-.07zM221.25 53.67c-.21.15-.43.26-.69.33s-.51.11-.78.11c-.57-.01-1.01-.17-1.3-.49s-.45-.79-.45-1.41v-3.07h-.91v-1.01h.91v-1.29l1.41-.17v1.45h1.35l-.14 1.01h-1.21v3.04c0 .29.05.49.15.62.1.12.25.19.47.19.21 0 .44-.07.69-.21l.5.9z"/></g><g><path class="st23" d="M6.82 73.43c.23.31.35.7.35 1.17 0 .41-.1.77-.29 1.09s-.46.56-.82.74c-.36.18-.77.26-1.24.26-.46 0-.87-.09-1.22-.26s-.6-.41-.79-.73c-.19-.32-.28-.67-.28-1.08 0-.91.47-1.56 1.4-1.96-.4-.21-.68-.45-.86-.73s-.26-.6-.26-.98c0-.4.09-.74.28-1.02.18-.29.43-.5.74-.65s.65-.22 1.03-.22c.59 0 1.08.16 1.47.48.39.32.59.78.59 1.36 0 .37-.1.7-.29.97-.19.27-.5.52-.91.74.49.24.86.51 1.1.82zm-.99 2.15c.23-.22.35-.55.35-.98 0-.39-.1-.69-.29-.91-.19-.22-.54-.43-1.04-.63l-.31-.12c-.35.18-.61.41-.78.67-.16.26-.24.59-.24.99 0 .44.12.77.35.99.23.22.56.33.98.33s.74-.11.98-.34zm-1.77-5.5c-.2.19-.3.49-.3.88 0 .33.08.59.25.78.17.19.45.36.84.52l.25.11c.31-.21.53-.42.65-.63.13-.22.19-.48.19-.79 0-.39-.1-.68-.29-.87-.19-.19-.46-.29-.8-.29-.33 0-.59.1-.79.29zM12.15 70.02c.38.64.57 1.59.57 2.85 0 1.28-.19 2.23-.57 2.87-.38.63-.94.95-1.68.95-.75 0-1.31-.32-1.69-.96-.38-.64-.57-1.59-.57-2.86 0-2.54.75-3.81 2.27-3.81.73.01 1.29.33 1.67.96zm-2.62.52c-.2.47-.3 1.25-.3 2.34 0 1.1.1 1.88.3 2.34s.52.69.94.69c.42 0 .73-.23.93-.69.2-.46.3-1.24.3-2.34s-.1-1.88-.3-2.34-.51-.69-.94-.69-.73.22-.93.69zM17.06 76.37c-.21-.21-.31-.51-.31-.89v-7.06l.99-.11v7.14c0 .29.12.43.35.43.09 0 .2-.02.32-.07l.22.69c-.24.12-.48.19-.74.19-.35 0-.63-.11-.83-.32zM23.75 74h-3.37c.03.67.17 1.16.41 1.46.24.3.57.45.99.45.26 0 .5-.04.71-.12.21-.08.43-.21.65-.4l.44.58c-.54.48-1.16.73-1.85.73-.76 0-1.34-.26-1.75-.79-.41-.52-.62-1.26-.62-2.21s.2-1.7.59-2.25c.4-.55.95-.83 1.65-.83s1.23.25 1.61.74.56 1.2.56 2.12c0 .15-.01.32-.02.52zm-.94-.82c0-1.21-.4-1.81-1.2-1.81a.99.99 0 00-.87.46c-.21.3-.33.8-.36 1.48h2.43v-.13zM27.88 76.29c-.37.26-.77.4-1.22.4-.47 0-.83-.14-1.08-.41-.25-.27-.38-.65-.38-1.14v-3.63h-.83v-.75h.83v-1.33l.99-.12v1.45h1.28l-.11.75h-1.17v3.62c0 .5.21.75.63.75.12 0 .24-.02.35-.05.11-.04.23-.09.36-.17l.35.63z"/></g><g><path class="st20" d="M294.78 204.55v7.4h-1.35v-6.02l-1.46.99-.61-.9 2.2-1.47h1.22zM300.18 205.19c.41.51.62 1.22.62 2.12 0 1-.14 1.82-.42 2.46a3.51 3.51 0 01-1.28 1.52c-.57.38-1.33.7-2.29.95l-.29-.98c.88-.25 1.54-.58 1.99-.98s.72-.96.83-1.68c-.37.49-.84.74-1.41.74-.34 0-.66-.1-.96-.29-.29-.19-.53-.47-.7-.84-.17-.36-.26-.79-.26-1.27 0-.52.1-.97.31-1.35.21-.38.5-.67.86-.86.36-.2.77-.3 1.22-.3.78-.01 1.37.25 1.78.76zm-.79 2.37c.01-.79-.06-1.33-.21-1.65-.15-.31-.41-.47-.78-.47-.32 0-.56.12-.74.36s-.26.61-.26 1.11c0 .49.08.85.25 1.08.17.23.39.35.67.35.42 0 .78-.26 1.07-.78zM305.69 205.19c.41.51.62 1.22.62 2.12 0 1-.14 1.82-.42 2.46a3.51 3.51 0 01-1.28 1.52c-.57.38-1.33.7-2.29.95l-.29-.98c.88-.25 1.54-.58 1.99-.98s.72-.96.83-1.68c-.37.49-.84.74-1.41.74-.34 0-.66-.1-.96-.29-.29-.19-.53-.47-.7-.84-.17-.36-.26-.79-.26-1.27 0-.52.1-.97.31-1.35.21-.38.5-.67.86-.86.36-.2.77-.3 1.22-.3.78-.01 1.37.25 1.78.76zm-.79 2.37c.01-.79-.06-1.33-.21-1.65-.15-.31-.41-.47-.78-.47-.32 0-.56.12-.74.36-.18.24-.26.61-.26 1.11 0 .49.08.85.25 1.08s.39.35.67.35c.42 0 .78-.26 1.07-.78zM311.47 205.39c.41.65.62 1.61.62 2.87 0 1.28-.21 2.25-.62 2.89-.41.65-1.02.97-1.82.97s-1.41-.32-1.82-.97c-.41-.65-.62-1.61-.62-2.89s.21-2.24.62-2.88c.41-.64 1.02-.96 1.82-.96s1.41.33 1.82.97zm-2.4.33c-.15.17-.26.46-.33.87s-.11.96-.11 1.67c0 .72.04 1.28.11 1.69.07.41.18.7.33.87s.34.26.58.26c.24 0 .44-.08.58-.25.15-.17.26-.46.33-.87s.11-.98.11-1.69-.04-1.28-.11-1.68c-.07-.4-.18-.69-.33-.86s-.34-.25-.58-.25c-.24-.01-.44.07-.58.24z"/></g></g></svg>