<svg xmlns="http://www.w3.org/2000/svg" viewBox="0 0 620 264.77"><style>.st11{fill:teal}.st15{fill:#666}.st20{fill:#4d4d4d}.st23{fill:#595959}.st24{fill:#5cadad}.st25{fill:#399}.st26{fill:#2e9797}.st27,.st28{fill:none;stroke-width:.5;stroke-miterlimit:10}.st27{stroke:#4d4d4d;stroke-linecap:round}.st28{stroke:teal}.st30{opacity:.9;fill:#fff}</style><g id="_x33_.1_x5F_stredni_x5F_delka_x5F_doziti_x5F_des"><path class="st11" d="M268.44 42.81l-2.01 6.17h-.6l-2.02-6.17h.58l1.74 5.61 1.75-5.61h.56zM274.9 45.56c.3.32.45.79.45 1.4 0 .43-.08.8-.23 1.12-.15.32-.36.57-.63.74-.27.17-.57.26-.9.26-.66 0-1.14-.25-1.44-.76-.3-.51-.45-1.19-.45-2.04 0-.69.09-1.29.26-1.8s.42-.9.75-1.17c.32-.27.71-.41 1.15-.41.4 0 .77.12 1.12.35l-.23.36c-.29-.19-.59-.28-.9-.28-.49 0-.87.24-1.16.73-.29.49-.44 1.12-.46 1.91.4-.59.91-.88 1.54-.88.45-.01.83.15 1.13.47zm-.4 2.63c.21-.3.32-.71.32-1.21s-.1-.87-.31-1.11c-.21-.24-.48-.36-.82-.36-.3 0-.57.09-.82.27-.25.18-.46.42-.64.72.02.7.13 1.23.35 1.59.22.37.56.55 1.02.55.38 0 .69-.15.9-.45zM279.69 43.68c.32.52.48 1.29.48 2.31 0 1.01-.16 1.77-.48 2.3-.32.52-.79.79-1.4.79-.62 0-1.09-.26-1.4-.79s-.48-1.29-.48-2.31c0-1.01.16-1.78.48-2.3.32-.52.79-.78 1.4-.78s1.08.25 1.4.78zm-2.74 2.3c0 1.78.45 2.66 1.34 2.66.44 0 .77-.22.99-.65s.34-1.1.34-2.01c0-.91-.11-1.58-.34-2.01s-.56-.65-.99-.65c-.9 0-1.34.89-1.34 2.66zM282 48.34c.08.08.12.18.12.3 0 .13-.04.23-.12.31s-.18.12-.31.12c-.12 0-.22-.04-.31-.13-.08-.08-.13-.19-.13-.31s.04-.22.13-.3a.43.43 0 01.31-.12c.12.01.23.05.31.13zM289.11 48.46c.06.11.16.19.3.24l-.12.37c-.22-.04-.38-.12-.5-.24s-.19-.3-.23-.55c-.32.53-.81.79-1.47.79-.45 0-.81-.13-1.07-.38s-.39-.6-.39-1.02c0-.49.17-.86.52-1.12.35-.26.82-.4 1.44-.4h.9v-.46c0-.38-.08-.65-.25-.82s-.45-.26-.84-.26c-.36 0-.79.09-1.28.27l-.13-.4c.53-.21 1.02-.31 1.48-.31 1.03 0 1.54.5 1.54 1.49v2.27c0 .25.04.42.1.53zm-.62-.64v-1.3h-.82c-.48 0-.85.09-1.1.28s-.38.46-.38.84c0 .32.09.57.26.75s.42.26.73.26c.57 0 1.01-.27 1.31-.83zM296.08 42.99v.4l-2.36 5.65-.49-.16 2.3-5.45h-2.8v-.44h3.35zM300.16 43.68c.32.52.48 1.29.48 2.31 0 1.01-.16 1.77-.48 2.3-.32.52-.79.79-1.4.79-.62 0-1.09-.26-1.4-.79-.32-.52-.48-1.29-.48-2.31 0-1.01.16-1.78.48-2.3.32-.52.79-.78 1.4-.78s1.08.25 1.4.78zm-2.75 2.3c0 1.78.45 2.66 1.34 2.66.44 0 .77-.22.99-.65.23-.43.34-1.1.34-2.01 0-.91-.11-1.58-.34-2.01-.22-.44-.56-.65-.99-.65-.89 0-1.34.89-1.34 2.66zM302.46 48.34c.08.08.12.18.12.3 0 .13-.04.23-.12.31s-.18.12-.31.12c-.12 0-.22-.04-.31-.13s-.13-.19-.13-.31.04-.22.13-.3a.43.43 0 01.31-.12c.13.01.23.05.31.13zM306.73 48.85c-.15-.15-.22-.37-.22-.67v-5.83l.52-.06v5.88c0 .31.13.46.38.46.13 0 .23-.02.32-.06l.14.39c-.17.08-.35.13-.54.13-.25-.01-.45-.09-.6-.24zM312.39 46.83h-3.14c.03.61.18 1.07.44 1.36.26.3.6.45 1.03.45.25 0 .46-.04.65-.11s.39-.19.62-.36l.24.33c-.23.19-.47.34-.72.43-.25.1-.52.14-.82.14-.62 0-1.11-.21-1.47-.64-.35-.43-.53-1.02-.53-1.77 0-.5.08-.93.23-1.31.15-.38.37-.67.66-.87s.62-.31.99-.31c.6 0 1.06.2 1.37.61.31.41.47.96.47 1.67-.01.13-.01.26-.02.38zm-.5-.54c0-.53-.11-.94-.33-1.24-.22-.3-.54-.45-.98-.45-.39 0-.71.15-.95.45-.24.3-.37.76-.4 1.37h2.65v-.13zM316.03 48.78c-.3.2-.63.3-.99.3s-.64-.11-.85-.32c-.2-.21-.31-.52-.31-.92V44.7h-.79v-.42h.79v-1.12l.52-.06v1.19h1.21l-.06.42h-1.15v3.11c0 .28.06.48.17.62.11.14.29.2.52.2.24 0 .48-.07.72-.21l.22.35zM320.17 46.83h-3.14c.03.61.18 1.07.44 1.36s.6.45 1.03.45c.25 0 .46-.04.65-.11s.39-.19.62-.36l.24.33c-.23.19-.47.34-.72.43-.25.1-.52.14-.82.14-.62 0-1.11-.21-1.47-.64-.35-.43-.53-1.02-.53-1.77 0-.5.08-.93.23-1.31.15-.38.37-.67.66-.87.28-.21.62-.31.99-.31.6 0 1.06.2 1.37.61.31.41.47.96.47 1.67 0 .13-.01.26-.02.38zm-.49-.54c0-.53-.11-.94-.33-1.24-.22-.3-.54-.45-.98-.45-.39 0-.71.15-.95.45-.24.3-.37.76-.4 1.37h2.65v-.13zM324.01 44.28c.21.08.41.2.61.36l-.26.34a1.71 1.71 0 00-.48-.28c-.17-.06-.35-.09-.56-.09-.44 0-.8.17-1.06.52s-.4.85-.4 1.51c0 .65.13 1.15.39 1.48.26.33.61.5 1.06.5.21 0 .4-.03.57-.1s.34-.17.52-.3l.25.35c-.4.34-.85.5-1.35.5-.4 0-.75-.1-1.05-.29s-.53-.47-.7-.83c-.17-.36-.25-.8-.25-1.3s.08-.93.25-1.31.4-.66.7-.87.65-.31 1.04-.31c.27.01.51.05.72.12zM328.95 44.55c.23.25.34.61.34 1.06v3.37h-.52v-3.29c0-.73-.3-1.09-.89-1.09-.3 0-.57.08-.8.25-.23.17-.45.41-.66.72v3.41h-.52v-6.62l.52-.06v2.76c.42-.59.94-.88 1.56-.88.41-.01.74.12.97.37zM334.18 48.81c0 .41-.04.73-.13.98-.09.24-.22.44-.4.58-.17.15-.42.29-.74.44l-.15-.38c.23-.11.4-.23.53-.34a1 1 0 00.28-.46c.06-.19.09-.46.09-.81v-4.55h.52v4.54zm.02-6.5c.07.07.11.16.11.27s-.04.2-.11.27a.4.4 0 01-.29.11c-.11 0-.21-.04-.28-.11-.07-.07-.11-.16-.11-.27s.04-.2.11-.27.17-.11.28-.11c.12 0 .22.03.29.11zM339.41 46.83h-3.14c.03.61.18 1.07.44 1.36s.6.45 1.03.45c.25 0 .46-.04.65-.11s.39-.19.62-.36l.24.33c-.23.19-.47.34-.72.43-.25.1-.52.14-.82.14-.62 0-1.11-.21-1.47-.64-.35-.43-.53-1.02-.53-1.77 0-.5.08-.93.23-1.31s.37-.67.66-.87c.29-.21.62-.31 1-.31.6 0 1.06.2 1.37.61.31.41.47.96.47 1.67-.01.13-.01.26-.03.38zm-.49-.54c0-.53-.11-.94-.33-1.24-.22-.3-.54-.45-.98-.45-.39 0-.71.15-.94.45-.24.3-.37.76-.4 1.37h2.65v-.13zM266.33 56.46c.24.26.36.61.36 1.07v3.45h-1.15v-3.27c0-.28-.05-.48-.15-.59-.1-.11-.24-.17-.44-.17s-.38.06-.54.18c-.16.12-.31.3-.46.54v3.31h-1.15v-4.76h1l.09.62c.39-.5.87-.76 1.45-.76.42 0 .75.13.99.38zM271.63 60.13c.06.09.15.15.27.2l-.24.77c-.27-.02-.49-.09-.66-.2s-.3-.27-.39-.5c-.16.24-.36.42-.61.54-.24.12-.51.18-.81.18-.47 0-.85-.13-1.12-.4-.28-.27-.41-.62-.41-1.06 0-.52.19-.91.56-1.18.38-.27.91-.41 1.61-.41h.59v-.27c0-.31-.07-.52-.21-.64-.14-.12-.37-.18-.68-.18-.35 0-.77.08-1.26.25l-.27-.78c.59-.23 1.17-.34 1.73-.34 1.22 0 1.83.55 1.83 1.64v2c-.02.15.01.29.07.38zm-1.22-.44v-.96h-.48c-.74 0-1.12.28-1.12.83 0 .23.06.4.17.53s.28.19.5.19c.4-.01.71-.2.93-.59zM276.94 54.31v6.67h-1.02l-.08-.6c-.15.23-.34.41-.57.54-.23.13-.49.2-.79.2-.58 0-1.03-.22-1.34-.67s-.47-1.06-.47-1.84c0-.49.08-.92.23-1.3.16-.38.38-.68.67-.9.29-.22.63-.32 1.01-.32.46 0 .85.17 1.2.51v-2.41l1.16.12zm-1.59 5.78c.16-.1.3-.25.44-.46v-2.18c-.14-.17-.28-.29-.42-.38s-.3-.13-.49-.13c-.31 0-.55.14-.72.41-.18.27-.27.69-.27 1.24 0 .59.08 1.01.23 1.26.16.26.38.38.68.38.22.01.4-.04.55-.14zM282.21 58.95h-2.99c.04.46.16.79.36.99.2.2.47.3.81.3.21 0 .41-.03.59-.1.19-.07.38-.18.59-.32l.48.66c-.53.43-1.12.64-1.76.64-.73 0-1.29-.22-1.68-.67-.39-.44-.59-1.05-.59-1.82 0-.49.08-.92.25-1.31.17-.39.41-.69.73-.91.32-.22.7-.33 1.13-.33.67 0 1.18.21 1.55.63.37.42.55 1.01.55 1.77.01.06 0 .22-.02.47zm-.87-5.17l.44.5-1.25 1.12h-.72l-1.25-1.12.44-.5 1.17.79 1.17-.79zm-.25 4.37c0-.83-.31-1.25-.93-1.25-.28 0-.5.1-.66.31-.16.21-.25.54-.28.99h1.87v-.05zM284.41 60.55c0 .47-.07.85-.2 1.15-.13.3-.33.54-.57.72s-.57.35-.96.51l-.37-.84c.23-.11.42-.21.55-.32s.23-.25.3-.43c.07-.18.1-.42.1-.72v-4.41h1.15v4.34zm-.05-6.54c.13.14.2.3.2.5s-.07.36-.2.5a.74.74 0 01-.53.2c-.21 0-.38-.07-.52-.2s-.2-.3-.2-.5.07-.36.2-.5c.14-.13.31-.2.52-.2.22-.01.39.06.53.2zM289.68 58.95h-2.99c.04.46.16.79.36.99.2.2.47.3.81.3.21 0 .41-.03.59-.1.19-.07.38-.18.59-.32l.48.66c-.53.43-1.12.64-1.76.64-.73 0-1.29-.22-1.68-.67-.39-.44-.59-1.05-.59-1.82 0-.49.08-.92.25-1.31.17-.39.41-.69.73-.91.32-.22.7-.33 1.13-.33.67 0 1.18.21 1.55.63.37.42.55 1.01.55 1.77.01.06 0 .22-.02.47zm-1.12-.8c0-.83-.31-1.25-.93-1.25-.28 0-.5.1-.66.31-.16.21-.25.54-.28.99h1.87v-.05zM297 54.31v6.67h-1.02l-.08-.6c-.15.23-.34.41-.57.54-.23.13-.49.2-.79.2-.58 0-1.03-.22-1.34-.67s-.47-1.06-.47-1.84c0-.49.08-.92.23-1.3.16-.38.38-.68.67-.9.29-.22.63-.32 1.01-.32.46 0 .85.17 1.2.51v-2.41l1.16.12zm-1.6 5.78c.16-.1.3-.25.44-.46v-2.18c-.14-.17-.28-.29-.42-.38s-.3-.13-.49-.13c-.31 0-.55.14-.72.41-.18.27-.27.69-.27 1.24 0 .59.08 1.01.23 1.26.16.26.38.38.68.38.22.01.4-.04.55-.14zM301.97 56.75c.39.45.59 1.06.59 1.84 0 .5-.09.94-.27 1.32s-.44.68-.77.89-.74.31-1.2.31c-.7 0-1.25-.22-1.65-.67-.4-.45-.59-1.06-.59-1.85 0-.5.09-.94.27-1.31.18-.38.44-.67.78-.88s.74-.31 1.2-.31c.7-.01 1.25.21 1.64.66zm-2.68 1.84c0 .56.09.98.26 1.25s.43.4.77.4.6-.14.77-.41.26-.68.26-1.24c0-.56-.09-.97-.26-1.24s-.42-.4-.76-.4c-.69 0-1.04.55-1.04 1.64zM306.66 56.21v.83l-2.3 3.03h2.35l-.12.9h-3.56v-.83l2.31-3.03h-2.12v-.9h3.44zm-.58-2.43l.44.5-1.25 1.12h-.72l-1.25-1.12.44-.5 1.17.79 1.17-.79zM308.7 54.01c.13.14.2.3.2.5s-.07.36-.2.5a.74.74 0 01-.53.2c-.21 0-.38-.07-.52-.2s-.2-.3-.2-.5.07-.36.2-.5c.14-.13.31-.2.52-.2.22-.01.4.06.53.2zm.06 2.2v4.76h-1.15v-4.76h1.15zM312.87 60.75c-.17.12-.36.21-.56.27s-.42.09-.63.09c-.47-.01-.82-.14-1.07-.4-.24-.26-.36-.65-.36-1.16v-2.51h-.75v-.83h.75v-1.05l1.15-.14v1.19h1.11l-.12.83h-.99v2.48c0 .23.04.4.12.5.08.1.21.15.38.15s.36-.06.57-.17l.4.75zM314.78 53.6l.47.9-2.03.81-.32-.58 1.88-1.13zm-.11 2.61v4.76h-1.15v-4.76h1.15zM321.52 54.92v.81l-2.24 5.36-1.05-.34 2.11-4.94h-2.56v-.89h3.74zM325.82 55.62c.37.54.55 1.32.55 2.33 0 1.02-.18 1.8-.55 2.34-.37.54-.91.81-1.62.81s-1.25-.27-1.62-.81c-.37-.54-.55-1.32-.55-2.34 0-1.01.18-1.79.55-2.33s.91-.81 1.62-.81 1.25.27 1.62.81zm-2.36.58c-.16.35-.23.93-.23 1.75 0 .83.08 1.42.23 1.76.16.35.41.52.75.52s.59-.17.75-.52c.16-.35.23-.93.23-1.77 0-.83-.08-1.41-.23-1.75-.16-.34-.4-.51-.75-.51s-.6.18-.75.52zM330 60.79c-.21-.21-.31-.51-.31-.9v-5.58l1.15-.13v5.67c0 .22.09.33.27.33.09 0 .18-.02.27-.04l.24.81c-.24.11-.5.16-.76.16-.37 0-.66-.11-.86-.32zM336.22 58.95h-2.99c.04.46.16.79.36.99.2.2.47.3.81.3.21 0 .41-.03.59-.1.19-.07.38-.18.59-.32l.48.66c-.53.43-1.12.64-1.76.64-.73 0-1.29-.22-1.68-.67-.39-.44-.59-1.05-.59-1.82 0-.49.08-.92.25-1.31.17-.39.41-.69.73-.91.32-.22.7-.33 1.13-.33.67 0 1.18.21 1.55.63.37.42.55 1.01.55 1.77.01.06 0 .22-.02.47zm-1.12-.8c0-.83-.31-1.25-.93-1.25-.28 0-.5.1-.66.31-.16.21-.25.54-.28.99h1.87v-.05zM340.01 60.75c-.17.12-.36.21-.56.27s-.42.09-.63.09c-.47-.01-.82-.14-1.07-.4-.24-.26-.36-.65-.36-1.16v-2.51h-.75v-.83h.75v-1.05l1.15-.14v1.19h1.11l-.12.83h-.99v2.48c0 .23.04.4.12.5.08.1.21.15.38.15s.36-.06.57-.17l.4.75z"/><path class="st28" d="M346.54 56.95s14.93-1.92 19.13 14.03M363.07 69.67l2.66 1.59 1.56-2.61"/><path class="st23" d="M19.99 216.17c0 2.51-.69 3.77-2.08 3.77-.69 0-1.21-.31-1.56-.94s-.53-1.57-.53-2.84c0-2.51.7-3.77 2.09-3.77 1.38-.01 2.08 1.25 2.08 3.78zm-3.17-2.5c-.24.52-.36 1.34-.36 2.48s.12 1.97.36 2.49c.24.52.6.78 1.09.78.48 0 .84-.26 1.08-.78.24-.52.36-1.34.36-2.48s-.12-1.97-.36-2.49c-.24-.52-.6-.78-1.08-.78s-.85.27-1.09.78z"/><path class="st20" d="M26.08 232.93v7.4h-1.35v-6.02l-1.46.99-.61-.9 2.2-1.47h1.22zM31.98 237.2c.23.32.35.7.35 1.14 0 .42-.1.79-.31 1.12-.21.33-.5.58-.88.76-.38.18-.83.27-1.34.27-.51 0-.94-.09-1.31-.27-.37-.18-.65-.43-.85-.75s-.3-.68-.3-1.09c0-.45.11-.82.34-1.13.22-.3.56-.56 1-.75-.37-.22-.65-.47-.81-.76-.17-.29-.25-.62-.25-.99 0-.4.1-.75.29-1.04s.46-.52.8-.67c.34-.15.71-.23 1.13-.23.65 0 1.19.17 1.61.5s.63.8.63 1.4c0 .35-.09.67-.28.94-.19.27-.48.52-.89.73.48.22.84.5 1.07.82zm-1.31 1.99c.19-.19.29-.47.29-.84 0-.34-.09-.61-.26-.81s-.48-.38-.92-.56l-.29-.12c-.52.31-.78.8-.78 1.47 0 .38.1.67.29.86s.47.29.83.29c.37 0 .65-.1.84-.29zm-1.75-4.42c0 .3.07.54.22.7.15.17.39.33.73.47l.19.08c.26-.18.44-.36.54-.56.1-.2.15-.43.15-.7 0-.33-.08-.58-.23-.75-.15-.17-.38-.25-.68-.25-.62 0-.92.34-.92 1.01zM36.13 233.05c.33.17.58.4.75.68.17.29.26.6.26.95 0 .45-.12.83-.36 1.12s-.59.5-1.04.62c.49.06.89.24 1.18.54s.45.72.45 1.27c0 .42-.1.8-.3 1.14-.2.34-.48.62-.85.83-.37.21-.81.31-1.31.31-.46 0-.88-.09-1.24-.27-.36-.18-.69-.45-.98-.8l.78-.69c.23.24.46.42.67.53.21.11.44.17.7.17.34 0 .62-.11.83-.34.21-.22.31-.53.31-.93 0-.43-.1-.74-.31-.93-.21-.19-.51-.28-.92-.28h-.51l.15-.98h.34c.34 0 .61-.1.81-.3.2-.2.3-.48.3-.85 0-.32-.09-.56-.26-.73-.18-.17-.42-.26-.73-.26-.47 0-.9.21-1.3.62l-.7-.71c.62-.63 1.33-.95 2.16-.95.41-.01.79.08 1.12.24zM42.5 233.78c.41.65.62 1.6.62 2.87 0 1.28-.21 2.25-.62 2.89s-1.02.97-1.81.97-1.41-.32-1.82-.97c-.41-.65-.62-1.61-.62-2.89s.21-2.24.62-2.88c.41-.64 1.02-.96 1.82-.96s1.4.32 1.81.97zm-2.39.33c-.15.17-.26.46-.33.87s-.11.96-.11 1.67c0 .72.04 1.28.11 1.69.07.41.18.7.33.87.15.17.34.26.58.26s.44-.08.58-.25.26-.46.33-.87.11-.97.11-1.69-.04-1.28-.11-1.68-.18-.69-.33-.86c-.15-.17-.34-.25-.58-.25s-.44.06-.58.24zM199.48 232.93v7.4h-1.35v-6.02l-1.46.99-.61-.9 2.2-1.47h1.22zM204.88 233.57c.41.51.62 1.22.62 2.12 0 1-.14 1.82-.42 2.46a3.51 3.51 0 01-1.28 1.52c-.57.38-1.33.7-2.29.95l-.29-.98c.88-.25 1.54-.58 1.99-.98s.72-.96.83-1.68c-.37.49-.84.74-1.41.74-.34 0-.66-.1-.96-.29-.29-.19-.53-.47-.7-.84-.17-.36-.26-.79-.26-1.27 0-.52.1-.97.31-1.35s.5-.67.86-.86c.36-.2.77-.3 1.22-.3.78-.01 1.37.25 1.78.76zm-.79 2.37c.01-.79-.06-1.33-.21-1.65s-.41-.47-.78-.47c-.32 0-.56.12-.74.36-.18.24-.26.61-.26 1.11 0 .49.08.85.25 1.08.17.23.39.35.67.35.43 0 .79-.26 1.07-.78zM210.66 233.78c.41.65.62 1.6.62 2.87 0 1.28-.21 2.25-.62 2.89s-1.02.97-1.81.97-1.41-.32-1.82-.97c-.41-.65-.62-1.61-.62-2.89s.21-2.24.62-2.88c.41-.64 1.02-.96 1.82-.96s1.4.32 1.81.97zm-2.4.33c-.15.17-.26.46-.33.87s-.11.96-.11 1.67c0 .72.04 1.28.11 1.69.07.41.18.7.33.87.15.17.34.26.58.26s.44-.08.58-.25.26-.46.33-.87.11-.97.11-1.69-.04-1.28-.11-1.68-.18-.69-.33-.86c-.15-.17-.34-.25-.58-.25s-.43.06-.58.24zM216.52 233.78c.41.65.62 1.6.62 2.87 0 1.28-.21 2.25-.62 2.89s-1.02.97-1.81.97-1.41-.32-1.82-.97c-.41-.65-.62-1.61-.62-2.89s.21-2.24.62-2.88c.41-.64 1.02-.96 1.82-.96s1.4.32 1.81.97zm-2.4.33c-.15.17-.26.46-.33.87s-.11.96-.11 1.67c0 .72.04 1.28.11 1.69.07.41.18.7.33.87.15.17.34.26.58.26s.44-.08.58-.25c.15-.17.26-.46.33-.87s.11-.97.11-1.69-.04-1.28-.11-1.68c-.07-.4-.18-.69-.33-.86-.15-.17-.34-.25-.58-.25s-.43.06-.58.24z"/><path class="st15" d="M230.41 233.02v7.31h-.62v-6.63l-1.61 1.11-.29-.44 1.98-1.35h.54zM236.48 236.69c0 2.51-.69 3.77-2.08 3.77-.69 0-1.21-.31-1.56-.94-.35-.63-.53-1.57-.53-2.84 0-2.51.7-3.77 2.09-3.77 1.39-.01 2.08 1.25 2.08 3.78zm-3.17-2.5c-.24.52-.36 1.34-.36 2.48s.12 1.97.36 2.49c.24.52.6.78 1.09.78.48 0 .84-.26 1.08-.78.24-.52.36-1.34.36-2.48s-.12-1.97-.36-2.49c-.24-.52-.6-.78-1.08-.78-.48.01-.85.27-1.09.78zM57.38 237.9v.52h-.88v1.92h-.59v-1.92h-2.89v-.47l2-5.04.53.2-1.89 4.8h2.26l.07-2.16h.53v2.16h.86zM62.58 236.69c0 2.51-.69 3.77-2.08 3.77-.69 0-1.21-.31-1.56-.94s-.53-1.57-.53-2.84c0-2.51.7-3.77 2.09-3.77 1.39-.01 2.08 1.25 2.08 3.78zm-3.17-2.5c-.24.52-.36 1.34-.36 2.48s.12 1.97.36 2.49c.24.52.6.78 1.09.78.48 0 .84-.26 1.08-.78.24-.52.36-1.34.36-2.48s-.12-1.97-.36-2.49c-.24-.52-.6-.78-1.08-.78-.48.01-.84.27-1.09.78zM81.69 233.54h-2.66v2.52c.34-.24.72-.35 1.12-.35.56 0 1.02.2 1.35.61.34.4.51.96.51 1.67 0 .48-.09.91-.26 1.29s-.43.67-.75.87c-.32.21-.7.31-1.13.31-.39 0-.73-.08-1.03-.23s-.58-.37-.85-.65l.4-.35c.21.24.44.42.67.53.23.11.51.17.81.17.46 0 .83-.17 1.1-.52.27-.35.41-.83.41-1.44 0-.6-.12-1.04-.37-1.33-.25-.29-.58-.43-1-.43-.21 0-.4.03-.56.08-.16.05-.34.14-.54.27h-.47v-3.54h3.35l-.1.52zM87.37 236.69c0 2.51-.69 3.77-2.08 3.77-.69 0-1.21-.31-1.56-.94-.35-.63-.53-1.57-.53-2.84 0-2.51.7-3.77 2.09-3.77 1.39-.01 2.08 1.25 2.08 3.78zm-3.17-2.5c-.24.52-.36 1.34-.36 2.48s.12 1.97.36 2.49c.24.52.6.78 1.09.78.48 0 .84-.26 1.08-.78.24-.52.36-1.34.36-2.48s-.12-1.97-.36-2.49c-.24-.52-.6-.78-1.08-.78-.48.01-.85.27-1.09.78zM106.64 236.16c.33.39.49.96.49 1.71 0 .54-.08 1.01-.25 1.4s-.39.68-.69.88c-.29.2-.63.3-1.01.3-.73 0-1.27-.3-1.61-.91-.34-.61-.51-1.44-.51-2.5 0-.87.1-1.61.29-2.23.19-.62.47-1.1.83-1.42s.78-.49 1.28-.49c.45 0 .86.14 1.24.43l-.27.42c-.3-.22-.63-.33-.98-.33-.54 0-.96.29-1.27.87-.31.58-.48 1.36-.51 2.35.44-.71 1-1.07 1.68-1.07.53 0 .96.2 1.29.59zm-.47 3.24c.23-.36.34-.86.34-1.5 0-.62-.11-1.08-.33-1.38-.22-.29-.52-.44-.9-.44-.32 0-.62.11-.9.32-.27.22-.51.52-.7.9.01.87.14 1.53.38 1.97.24.44.61.67 1.12.67.44 0 .77-.18.99-.54zM112.52 236.69c0 2.51-.69 3.77-2.08 3.77-.69 0-1.21-.31-1.56-.94s-.53-1.57-.53-2.84c0-2.51.7-3.77 2.09-3.77 1.39-.01 2.08 1.25 2.08 3.78zm-3.17-2.5c-.24.52-.36 1.34-.36 2.48s.12 1.97.36 2.49c.24.52.6.78 1.09.78.48 0 .84-.26 1.08-.78.24-.52.36-1.34.36-2.48s-.12-1.97-.36-2.49c-.24-.52-.6-.78-1.08-.78-.48.01-.84.27-1.09.78zM131.78 233.02v.48l-2.58 6.92-.56-.19 2.52-6.69h-3.07v-.53h3.69zM136.99 236.69c0 2.51-.69 3.77-2.08 3.77-.69 0-1.21-.31-1.56-.94-.35-.63-.53-1.57-.53-2.84 0-2.51.7-3.77 2.09-3.77 1.39-.01 2.08 1.25 2.08 3.78zm-3.17-2.5c-.24.52-.36 1.34-.36 2.48s.12 1.97.36 2.49c.24.52.61.78 1.09.78.48 0 .84-.26 1.08-.78.24-.52.36-1.34.36-2.48s-.12-1.97-.36-2.49c-.24-.52-.6-.78-1.08-.78-.48.01-.85.27-1.09.78zM156.69 237.26c.24.3.36.7.36 1.17 0 .62-.2 1.12-.59 1.48-.4.36-.92.54-1.57.54s-1.17-.18-1.56-.55c-.39-.37-.58-.85-.58-1.45 0-.96.48-1.64 1.45-2.05-.41-.2-.71-.43-.89-.69-.18-.26-.28-.59-.28-1 0-.38.09-.71.26-.99s.4-.49.68-.63.59-.21.93-.21c.33 0 .64.07.92.2s.52.34.69.61c.17.27.26.61.26 1s-.1.72-.29.99-.5.52-.93.76c.52.25.9.52 1.14.82zm-.69 2.3c.27-.25.41-.62.41-1.12 0-.44-.1-.78-.31-1.01-.21-.24-.58-.46-1.13-.68l-.34-.14c-.44.2-.76.44-.96.74-.2.29-.3.66-.3 1.11 0 .48.14.85.41 1.11s.64.38 1.11.38c.47-.01.84-.14 1.11-.39zm-2.11-3.99c.17.2.49.4.94.59l.31.13c.36-.22.62-.45.78-.69.16-.24.24-.53.24-.86 0-.44-.11-.78-.34-1.01-.23-.23-.54-.35-.92-.35s-.69.11-.92.34c-.23.23-.35.56-.35 1.01 0 .36.09.64.26.84zM162.43 236.69c0 2.51-.69 3.77-2.08 3.77-.69 0-1.21-.31-1.56-.94-.35-.63-.53-1.57-.53-2.84 0-2.51.7-3.77 2.09-3.77 1.39-.01 2.08 1.25 2.08 3.78zm-3.16-2.5c-.24.52-.36 1.34-.36 2.48s.12 1.97.36 2.49c.24.52.6.78 1.09.78.48 0 .84-.26 1.08-.78.24-.52.36-1.34.36-2.48s-.12-1.97-.36-2.49c-.24-.52-.6-.78-1.08-.78-.49.01-.85.27-1.09.78z"/><g><path class="st15" d="M181.3 233.66c.33.51.5 1.24.5 2.2 0 .94-.12 1.71-.37 2.31-.25.6-.61 1.08-1.08 1.44-.48.36-1.11.67-1.89.93l-.15-.47c.91-.31 1.6-.73 2.07-1.25.47-.53.73-1.26.79-2.19-.4.65-.93.97-1.58.97-.34 0-.65-.09-.93-.28s-.49-.45-.65-.8c-.16-.35-.24-.76-.24-1.23 0-.51.09-.94.26-1.3a1.866 1.866 0 011.76-1.1c.67.01 1.17.26 1.51.77zm-.79 3.15c.25-.19.47-.47.68-.84-.01-.89-.12-1.54-.34-1.95-.22-.41-.57-.61-1.05-.61-.45 0-.79.16-1.04.48-.25.32-.37.79-.37 1.42 0 .57.12 1.01.35 1.32.23.31.54.46.94.46.3 0 .58-.09.83-.28zM187.28 236.69c0 2.51-.69 3.77-2.08 3.77-.69 0-1.21-.31-1.56-.94s-.53-1.57-.53-2.84c0-2.51.7-3.77 2.09-3.77 1.38-.01 2.08 1.25 2.08 3.78zm-3.17-2.5c-.24.52-.36 1.34-.36 2.48s.12 1.97.36 2.49c.24.52.6.78 1.09.78.48 0 .84-.26 1.08-.78.24-.52.36-1.34.36-2.48s-.12-1.97-.36-2.49c-.24-.52-.6-.78-1.08-.78-.49.01-.85.27-1.09.78z"/></g><g><path class="st15" d="M280.51 233.42c.33.34.49.78.49 1.31 0 .48-.12.86-.37 1.15-.25.29-.58.48-1 .57.46.04.84.22 1.12.53.29.31.43.74.43 1.3 0 .42-.09.8-.26 1.13s-.42.59-.74.78c-.32.19-.69.28-1.11.28-.4 0-.76-.08-1.07-.23-.31-.15-.59-.39-.86-.72l.4-.32c.23.27.47.46.7.58.23.11.51.17.81.17.46 0 .82-.15 1.09-.45s.4-.71.4-1.22c0-1.03-.51-1.54-1.54-1.54h-.43l.07-.5h.33c.39 0 .72-.13 1-.38s.42-.62.42-1.09c0-.42-.12-.75-.35-.99-.23-.24-.54-.36-.93-.36-.28 0-.53.05-.76.16s-.45.28-.68.51l-.34-.35c.26-.28.54-.49.84-.62.3-.14.62-.2.97-.2.59-.02 1.04.15 1.37.5zM286.67 236.69c0 2.51-.69 3.77-2.08 3.77-.69 0-1.21-.31-1.56-.94s-.53-1.57-.53-2.84c0-2.51.7-3.77 2.09-3.77 1.39-.01 2.08 1.25 2.08 3.78zm-3.17-2.5c-.24.52-.36 1.34-.36 2.48s.12 1.97.36 2.49c.24.52.6.78 1.09.78.48 0 .84-.26 1.08-.78.24-.52.36-1.34.36-2.48s-.12-1.97-.36-2.49c-.24-.52-.6-.78-1.08-.78s-.85.27-1.09.78z"/></g><g><path class="st15" d="M255.64 233.42c.33.35.49.8.49 1.36 0 .47-.09.92-.27 1.34-.18.43-.46.89-.85 1.41s-1 1.26-1.83 2.25h3.12l-.09.55h-3.73v-.52c.88-1.06 1.52-1.85 1.92-2.39s.69-1 .85-1.39c.16-.39.24-.8.24-1.23 0-.43-.11-.77-.33-1.01s-.52-.36-.9-.36c-.3 0-.57.07-.8.2-.23.14-.45.34-.67.62l-.42-.31c.26-.35.54-.61.85-.79.31-.17.66-.26 1.05-.26.59.01 1.04.19 1.37.53zM261.69 236.69c0 2.51-.69 3.77-2.08 3.77-.69 0-1.21-.31-1.56-.94s-.53-1.57-.53-2.84c0-2.51.7-3.77 2.09-3.77 1.39-.01 2.08 1.25 2.08 3.78zm-3.17-2.5c-.24.52-.36 1.34-.36 2.48s.12 1.97.36 2.49c.24.52.6.78 1.09.78.48 0 .84-.26 1.08-.78.24-.52.36-1.34.36-2.48s-.12-1.97-.36-2.49c-.24-.52-.6-.78-1.08-.78s-.85.27-1.09.78z"/></g><g><path class="st20" d="M448.79 233.07c.33.18.59.42.76.73.18.31.26.66.26 1.05 0 .42-.08.82-.24 1.2s-.43.82-.81 1.29c-.38.48-.93 1.11-1.67 1.9h2.86l-.14 1.09h-4.22v-1.01c.81-.92 1.41-1.63 1.79-2.11s.64-.89.79-1.23.23-.69.23-1.06c0-.34-.08-.6-.25-.78s-.39-.27-.68-.27c-.24 0-.46.06-.64.18-.19.12-.39.31-.61.57l-.82-.62c.56-.8 1.3-1.2 2.2-1.2.46 0 .86.09 1.19.27zM455.08 233.78c.41.65.62 1.6.62 2.87 0 1.28-.21 2.25-.62 2.89s-1.02.97-1.81.97-1.41-.32-1.82-.97c-.41-.65-.62-1.61-.62-2.89s.21-2.24.62-2.88c.41-.64 1.02-.96 1.82-.96s1.4.32 1.81.97zm-2.4.33c-.15.17-.26.46-.33.87s-.11.96-.11 1.67c0 .72.04 1.28.11 1.69.07.41.18.7.33.87.15.17.34.26.58.26s.44-.08.58-.25c.15-.17.26-.46.33-.87s.11-.97.11-1.69-.04-1.28-.11-1.68c-.07-.4-.18-.69-.33-.86-.15-.17-.34-.25-.58-.25s-.43.06-.58.24zM460.94 233.78c.41.65.62 1.6.62 2.87 0 1.28-.21 2.25-.62 2.89s-1.02.97-1.81.97-1.41-.32-1.82-.97c-.41-.65-.62-1.61-.62-2.89s.21-2.24.62-2.88c.41-.64 1.02-.96 1.82-.96s1.4.32 1.81.97zm-2.4.33c-.15.17-.26.46-.33.87s-.11.96-.11 1.67c0 .72.04 1.28.11 1.69.07.41.18.7.33.87.15.17.34.26.58.26s.44-.08.58-.25.26-.46.33-.87.11-.97.11-1.69-.04-1.28-.11-1.68-.18-.69-.33-.86c-.15-.17-.34-.25-.58-.25s-.43.06-.58.24zM466.81 233.78c.41.65.62 1.6.62 2.87 0 1.28-.21 2.25-.62 2.89s-1.02.97-1.81.97-1.41-.32-1.82-.97c-.41-.65-.62-1.61-.62-2.89s.21-2.24.62-2.88c.41-.64 1.02-.96 1.82-.96s1.4.32 1.81.97zm-2.4.33c-.15.17-.26.46-.33.87s-.11.96-.11 1.67c0 .72.04 1.28.11 1.69.07.41.18.7.33.87.15.17.34.26.58.26s.44-.08.58-.25c.15-.17.26-.46.33-.87s.11-.97.11-1.69-.04-1.28-.11-1.68c-.07-.4-.18-.69-.33-.86-.15-.17-.34-.25-.58-.25s-.44.06-.58.24z"/></g><g><path class="st15" d="M479.56 233.02v7.31h-.62v-6.63l-1.61 1.11-.29-.44 1.98-1.35h.54zM485.63 236.69c0 2.51-.69 3.77-2.08 3.77-.69 0-1.21-.31-1.56-.94-.35-.63-.53-1.57-.53-2.84 0-2.51.7-3.77 2.09-3.77 1.39-.01 2.08 1.25 2.08 3.78zm-3.17-2.5c-.24.52-.36 1.34-.36 2.48s.12 1.97.36 2.49c.24.52.6.78 1.09.78.48 0 .84-.26 1.08-.78.24-.52.36-1.34.36-2.48s-.12-1.97-.36-2.49c-.24-.52-.6-.78-1.08-.78-.48.01-.85.27-1.09.78z"/></g><g><path class="st20" d="M499.39 233.07c.33.18.59.42.76.73.18.31.26.66.26 1.05 0 .42-.08.82-.24 1.2-.16.38-.43.82-.81 1.29-.38.48-.93 1.11-1.67 1.9h2.86l-.14 1.09h-4.22v-1.01c.81-.92 1.41-1.63 1.79-2.11s.64-.89.79-1.23c.15-.34.23-.69.23-1.06 0-.34-.08-.6-.25-.78s-.39-.27-.68-.27c-.24 0-.46.06-.64.18-.19.12-.39.31-.61.57L496 234c.56-.8 1.3-1.2 2.2-1.2.46 0 .86.09 1.19.27zM505.68 233.78c.41.65.62 1.6.62 2.87 0 1.28-.21 2.25-.62 2.89s-1.02.97-1.81.97-1.41-.32-1.82-.97c-.41-.65-.62-1.61-.62-2.89s.21-2.24.62-2.88c.41-.64 1.02-.96 1.82-.96s1.4.32 1.81.97zm-2.4.33c-.15.17-.26.46-.33.87s-.11.96-.11 1.67c0 .72.04 1.28.11 1.69.07.41.18.7.33.87.15.17.34.26.58.26s.44-.08.58-.25.26-.46.33-.87.11-.97.11-1.69-.04-1.28-.11-1.68-.18-.69-.33-.86c-.15-.17-.34-.25-.58-.25s-.43.06-.58.24zM510.38 232.93v7.4h-1.35v-6.02l-1.46.99-.6-.9 2.2-1.47h1.21zM516.28 237.2c.23.32.35.7.35 1.14 0 .42-.1.79-.31 1.12-.21.33-.5.58-.88.76-.38.18-.83.27-1.34.27-.51 0-.94-.09-1.31-.27a2.01 2.01 0 01-.85-.75c-.2-.32-.3-.68-.3-1.09 0-.45.11-.82.34-1.13.22-.3.56-.56 1-.75-.37-.22-.65-.47-.81-.76s-.25-.62-.25-.99c0-.4.1-.75.29-1.04s.46-.52.8-.67c.34-.15.71-.23 1.13-.23.65 0 1.19.17 1.61.5s.63.8.63 1.4c0 .35-.09.67-.28.94-.19.27-.48.52-.89.73.48.22.84.5 1.07.82zm-1.32 1.99c.19-.19.29-.47.29-.84 0-.34-.09-.61-.26-.81-.17-.19-.48-.38-.92-.56l-.29-.12c-.52.31-.78.8-.78 1.47 0 .38.1.67.29.86.19.19.47.29.83.29.37 0 .65-.1.84-.29zm-1.75-4.42c0 .3.07.54.22.7.15.17.39.33.73.47l.19.08c.26-.18.44-.36.54-.56.1-.2.15-.43.15-.7 0-.33-.08-.58-.23-.75-.15-.17-.38-.25-.68-.25-.61 0-.92.34-.92 1.01z"/></g><g><path class="st15" d="M306.54 237.9v.52h-.88v1.92h-.59v-1.92h-2.89v-.47l2-5.04.53.2-1.89 4.8h2.25l.07-2.16h.53v2.16h.87zM311.74 236.69c0 2.51-.69 3.77-2.08 3.77-.69 0-1.21-.31-1.56-.94s-.53-1.57-.53-2.84c0-2.51.7-3.77 2.09-3.77 1.39-.01 2.08 1.25 2.08 3.78zm-3.16-2.5c-.24.52-.36 1.34-.36 2.48s.12 1.97.36 2.49c.24.52.6.78 1.09.78.48 0 .84-.26 1.08-.78.24-.52.36-1.34.36-2.48s-.12-1.97-.36-2.49c-.24-.52-.6-.78-1.08-.78s-.85.27-1.09.78z"/></g><g><path class="st15" d="M330.83 233.54h-2.66v2.52c.34-.24.72-.35 1.12-.35.56 0 1.02.2 1.35.61s.51.96.51 1.67c0 .48-.09.91-.26 1.29-.18.37-.43.67-.75.87-.32.21-.7.31-1.13.31-.39 0-.73-.08-1.03-.23s-.58-.37-.85-.65l.4-.35c.21.24.44.42.67.53s.51.17.81.17c.46 0 .83-.17 1.1-.52.27-.35.41-.83.41-1.44 0-.6-.12-1.04-.37-1.33-.25-.29-.58-.43-1-.43-.21 0-.4.03-.56.08-.16.05-.34.14-.54.27h-.47v-3.54h3.35l-.1.52zM336.51 236.69c0 2.51-.69 3.77-2.08 3.77-.69 0-1.21-.31-1.56-.94s-.53-1.57-.53-2.84c0-2.51.7-3.77 2.09-3.77 1.39-.01 2.08 1.25 2.08 3.78zm-3.17-2.5c-.24.52-.36 1.34-.36 2.48s.12 1.97.36 2.49c.24.52.6.78 1.09.78.48 0 .84-.26 1.08-.78.24-.52.36-1.34.36-2.48s-.12-1.97-.36-2.49c-.24-.52-.6-.78-1.08-.78-.48.01-.85.27-1.09.78z"/></g><g><path class="st20" d="M349.76 232.93v7.4h-1.35v-6.02l-1.46.99-.61-.9 2.2-1.47h1.22zM355.16 233.57c.41.51.62 1.22.62 2.12 0 1-.14 1.82-.42 2.46a3.51 3.51 0 01-1.28 1.52c-.57.38-1.33.7-2.29.95l-.29-.98c.88-.25 1.54-.58 1.99-.98s.72-.96.83-1.68c-.37.49-.84.74-1.41.74-.34 0-.66-.1-.96-.29-.29-.19-.53-.47-.7-.84-.17-.36-.26-.79-.26-1.27 0-.52.1-.97.31-1.35s.5-.67.86-.86c.36-.2.77-.3 1.22-.3.77-.01 1.37.25 1.78.76zm-.79 2.37c.01-.79-.06-1.33-.21-1.65s-.41-.47-.78-.47c-.32 0-.56.12-.74.36-.18.24-.26.61-.26 1.11 0 .49.08.85.25 1.08.17.23.39.35.67.35.42 0 .78-.26 1.07-.78zM360.54 235.7c.29.18.51.46.68.82s.25.8.25 1.3c0 .54-.1 1-.29 1.41-.19.4-.47.72-.82.94s-.76.33-1.22.33c-.84 0-1.45-.31-1.85-.94-.4-.63-.6-1.51-.6-2.65 0-.84.11-1.56.34-2.18.23-.62.55-1.1.97-1.43.42-.33.92-.5 1.49-.5.56 0 1.05.16 1.47.47l-.51.84c-.31-.19-.62-.29-.94-.29-.42 0-.75.21-1 .62-.25.41-.39 1-.43 1.78.38-.54.88-.8 1.5-.8.35 0 .67.09.96.28zm-.68 1.02c-.15-.22-.36-.32-.64-.32-.21 0-.41.07-.6.21-.19.14-.37.34-.53.59.01.82.1 1.41.26 1.75.16.35.42.52.79.52.32 0 .56-.14.72-.43s.24-.7.24-1.25c-.01-.49-.09-.85-.24-1.07zM366.54 233.78c.41.65.62 1.6.62 2.87 0 1.28-.21 2.25-.62 2.89s-1.02.97-1.81.97-1.41-.32-1.82-.97c-.41-.65-.62-1.61-.62-2.89s.21-2.24.62-2.88c.41-.64 1.02-.96 1.82-.96s1.4.32 1.81.97zm-2.39.33c-.15.17-.26.46-.33.87s-.11.96-.11 1.67c0 .72.04 1.28.11 1.69.07.41.18.7.33.87.15.17.34.26.58.26s.44-.08.58-.25c.15-.17.26-.46.33-.87s.11-.97.11-1.69-.04-1.28-.11-1.68c-.07-.4-.18-.69-.33-.86-.15-.17-.34-.25-.58-.25s-.44.06-.58.24z"/></g><g><path class="st15" d="M380.87 233.02v.48l-2.58 6.92-.56-.19 2.52-6.69h-3.07v-.53h3.69zM386.08 236.69c0 2.51-.69 3.77-2.08 3.77-.69 0-1.21-.31-1.56-.94s-.53-1.57-.53-2.84c0-2.51.7-3.77 2.09-3.77 1.39-.01 2.08 1.25 2.08 3.78zm-3.16-2.5c-.24.52-.36 1.34-.36 2.48s.12 1.97.36 2.49c.24.52.6.78 1.09.78.48 0 .84-.26 1.08-.78.24-.52.36-1.34.36-2.48s-.12-1.97-.36-2.49c-.24-.52-.6-.78-1.08-.78-.49.01-.85.27-1.09.78z"/></g><g><path class="st15" d="M405.75 237.26c.24.3.36.7.36 1.17 0 .62-.2 1.12-.59 1.48-.4.36-.92.54-1.57.54s-1.17-.18-1.56-.55c-.39-.37-.58-.85-.58-1.45 0-.96.48-1.64 1.45-2.05-.41-.2-.71-.43-.89-.69-.18-.26-.28-.59-.28-1 0-.38.09-.71.26-.99s.4-.49.68-.63.59-.21.93-.21c.33 0 .64.07.92.2s.52.34.69.61c.17.27.26.61.26 1s-.1.72-.29.99-.5.52-.93.76c.53.25.91.52 1.14.82zm-.68 2.3c.27-.25.41-.62.41-1.12 0-.44-.1-.78-.31-1.01-.21-.24-.58-.46-1.13-.68l-.34-.14c-.44.2-.76.44-.96.74-.2.29-.3.66-.3 1.11 0 .48.14.85.41 1.11s.64.38 1.11.38c.47-.01.84-.14 1.11-.39zm-2.11-3.99c.17.2.49.4.94.59l.31.13c.36-.22.62-.45.78-.69.16-.24.24-.53.24-.86 0-.44-.11-.78-.34-1.01-.23-.23-.54-.35-.92-.35s-.69.11-.92.34c-.23.23-.35.56-.35 1.01 0 .36.09.64.26.84zM411.5 236.69c0 2.51-.69 3.77-2.08 3.77-.69 0-1.21-.31-1.56-.94-.35-.63-.53-1.57-.53-2.84 0-2.51.7-3.77 2.09-3.77 1.39-.01 2.08 1.25 2.08 3.78zm-3.17-2.5c-.24.52-.36 1.34-.36 2.48s.12 1.97.36 2.49c.24.52.6.78 1.09.78.48 0 .84-.26 1.08-.78.24-.52.36-1.34.36-2.48s-.12-1.97-.36-2.49c-.24-.52-.6-.78-1.08-.78-.48.01-.84.27-1.09.78z"/></g><g><path class="st20" d="M424.55 232.93v7.4h-1.35v-6.02l-1.46.99-.6-.9 2.2-1.47h1.21zM429.95 233.57c.41.51.62 1.22.62 2.12 0 1-.14 1.82-.42 2.46a3.51 3.51 0 01-1.28 1.52c-.57.38-1.33.7-2.29.95l-.29-.98c.88-.25 1.54-.58 1.99-.98s.72-.96.83-1.68c-.37.49-.84.74-1.41.74-.34 0-.66-.1-.96-.29-.29-.19-.53-.47-.7-.84-.17-.36-.26-.79-.26-1.27 0-.52.1-.97.31-1.35s.5-.67.86-.86c.36-.2.77-.3 1.22-.3.77-.01 1.37.25 1.78.76zm-.79 2.37c.01-.79-.06-1.33-.21-1.65s-.41-.47-.78-.47c-.32 0-.56.12-.74.36-.18.24-.26.61-.26 1.11 0 .49.08.85.25 1.08.17.23.39.35.67.35.42 0 .78-.26 1.07-.78zM435.46 233.57c.41.51.62 1.22.62 2.12 0 1-.14 1.82-.42 2.46a3.51 3.51 0 01-1.28 1.52c-.57.38-1.33.7-2.29.95l-.29-.98c.88-.25 1.54-.58 1.99-.98s.72-.96.83-1.68c-.37.49-.84.74-1.41.74-.34 0-.66-.1-.96-.29-.29-.19-.53-.47-.7-.84-.17-.36-.26-.79-.26-1.27 0-.52.1-.97.31-1.35s.49-.67.86-.86c.36-.2.77-.3 1.22-.3.77-.01 1.37.25 1.78.76zm-.79 2.37c.01-.79-.06-1.33-.21-1.65s-.41-.47-.78-.47c-.32 0-.56.12-.74.36-.18.24-.26.61-.26 1.11 0 .49.08.85.25 1.08.17.23.39.35.67.35.42 0 .78-.26 1.07-.78zM441.23 233.78c.41.65.62 1.6.62 2.87 0 1.28-.21 2.25-.62 2.89s-1.02.97-1.81.97-1.41-.32-1.82-.97c-.41-.65-.62-1.61-.62-2.89s.21-2.24.62-2.88c.41-.64 1.02-.96 1.82-.96s1.4.32 1.81.97zm-2.39.33c-.15.17-.26.46-.33.87s-.11.96-.11 1.67c0 .72.04 1.28.11 1.69.07.41.18.7.33.87.15.17.34.26.58.26s.44-.08.58-.25c.15-.17.26-.46.33-.87s.11-.97.11-1.69-.04-1.28-.11-1.68c-.07-.4-.18-.69-.33-.86-.15-.17-.34-.25-.58-.25s-.44.06-.58.24z"/></g><g><path class="st23" d="M13.94 178.49c.33.35.49.8.49 1.36 0 .47-.09.92-.27 1.34-.18.43-.46.89-.85 1.41s-1 1.26-1.83 2.25h3.12l-.09.55h-3.73v-.52c.88-1.06 1.52-1.85 1.92-2.39s.69-1 .85-1.39c.16-.39.24-.8.24-1.23 0-.43-.11-.77-.33-1.01s-.52-.36-.9-.36c-.3 0-.57.07-.8.2-.23.14-.45.34-.67.62l-.42-.31c.26-.35.54-.61.85-.79.31-.17.66-.26 1.05-.26.59.01 1.04.18 1.37.53zM19.99 181.75c0 2.51-.69 3.77-2.08 3.77-.69 0-1.21-.31-1.56-.94s-.53-1.57-.53-2.84c0-2.51.7-3.77 2.09-3.77 1.38 0 2.08 1.26 2.08 3.78zm-3.17-2.49c-.24.52-.36 1.34-.36 2.48s.12 1.97.36 2.49c.24.52.6.78 1.09.78.48 0 .84-.26 1.08-.78.24-.52.36-1.34.36-2.48s-.12-1.97-.36-2.49c-.24-.52-.6-.78-1.08-.78s-.85.26-1.09.78z"/></g><g><path class="st23" d="M14.79 148.55v.52h-.88v1.92h-.59v-1.92h-2.89v-.47l2-5.04.53.2-1.89 4.8h2.26l.07-2.16h.53v2.16h.86zM19.99 147.34c0 2.51-.69 3.77-2.08 3.77-.69 0-1.21-.31-1.56-.94-.35-.63-.53-1.57-.53-2.84 0-2.51.7-3.77 2.09-3.77 1.38 0 2.08 1.26 2.08 3.78zm-3.17-2.49c-.24.52-.36 1.34-.36 2.48s.12 1.97.36 2.49c.24.52.6.78 1.09.78.48 0 .84-.26 1.08-.78.24-.52.36-1.34.36-2.48s-.12-1.97-.36-2.49c-.24-.52-.6-.78-1.08-.78-.49 0-.85.26-1.09.78z"/></g><g><path class="st23" d="M14.1 112.41c.33.39.5.96.5 1.71 0 .54-.08 1.01-.25 1.4-.16.39-.39.68-.69.88-.29.2-.63.3-1.01.3-.73 0-1.27-.3-1.61-.91-.34-.61-.51-1.44-.51-2.5 0-.87.1-1.61.29-2.23s.47-1.1.83-1.42.78-.49 1.28-.49c.45 0 .86.14 1.24.43l-.27.42c-.3-.22-.63-.33-.98-.33-.54 0-.96.29-1.27.87s-.48 1.36-.51 2.35c.44-.71 1-1.07 1.68-1.07.53 0 .95.19 1.28.59zm-.46 3.23c.23-.36.34-.86.34-1.5 0-.62-.11-1.08-.33-1.38-.22-.29-.52-.44-.9-.44-.32 0-.62.11-.9.32-.28.22-.51.52-.7.9.01.87.14 1.53.38 1.97.24.44.61.67 1.12.67.43 0 .76-.18.99-.54zM19.99 112.93c0 2.51-.69 3.77-2.08 3.77-.69 0-1.21-.31-1.56-.94s-.53-1.57-.53-2.84c0-2.51.7-3.77 2.09-3.77 1.38-.01 2.08 1.26 2.08 3.78zm-3.17-2.49c-.24.52-.36 1.34-.36 2.48s.12 1.97.36 2.49c.24.52.6.78 1.09.78.48 0 .84-.26 1.08-.78.24-.52.36-1.34.36-2.48s-.12-1.97-.36-2.49c-.24-.52-.6-.78-1.08-.78s-.85.26-1.09.78z"/></g><g><path class="st23" d="M14.32 78.05c.24.3.36.7.36 1.17 0 .62-.2 1.12-.59 1.48s-.92.54-1.57.54-1.17-.18-1.56-.55c-.38-.37-.58-.85-.58-1.45 0-.96.48-1.64 1.45-2.05-.41-.2-.71-.43-.89-.69-.18-.26-.27-.59-.27-1 0-.38.09-.71.26-.99s.4-.49.68-.63.59-.21.93-.21c.33 0 .64.07.92.2s.51.34.69.61c.17.27.26.6.26 1 0 .39-.1.72-.29.99s-.5.52-.93.76c.51.25.89.52 1.13.82zm-.68 2.3c.27-.25.41-.62.41-1.12 0-.44-.1-.78-.31-1.01s-.58-.46-1.13-.68l-.34-.14c-.44.2-.76.44-.96.74-.2.29-.3.66-.3 1.11 0 .48.14.85.41 1.11.27.25.64.38 1.11.38s.83-.14 1.11-.39zm-2.12-3.99c.17.2.49.4.94.59l.31.13c.36-.22.62-.45.78-.69s.24-.53.24-.86c0-.44-.11-.78-.34-1.01-.23-.23-.54-.35-.92-.35s-.69.11-.92.34c-.23.23-.35.56-.35 1.01 0 .36.09.64.26.84zM20.06 77.47c0 2.52-.69 3.77-2.08 3.77-.69 0-1.21-.31-1.56-.94s-.53-1.58-.53-2.84c0-2.52.7-3.77 2.09-3.77s2.08 1.26 2.08 3.78zm-3.16-2.49c-.24.52-.36 1.34-.36 2.48s.12 1.97.36 2.49c.24.52.6.78 1.09.78.48 0 .84-.26 1.08-.78.24-.52.36-1.34.36-2.48s-.12-1.97-.36-2.49c-.24-.52-.6-.78-1.08-.78s-.85.26-1.09.78zM24.73 80.98c-.17-.18-.25-.43-.25-.76v-7.19l.62-.08v7.26c0 .34.14.51.42.51.12 0 .23-.03.35-.08l.15.45c-.18.1-.38.15-.6.15-.3.01-.52-.08-.69-.26zM31.05 78.5h-3.46c.03.77.19 1.33.47 1.69s.66.53 1.13.53c.27 0 .51-.04.72-.13s.43-.23.65-.42l.31.38c-.26.23-.52.4-.8.52-.27.12-.58.18-.91.18-.69 0-1.23-.26-1.63-.77-.4-.51-.59-1.24-.59-2.18 0-.95.19-1.7.57-2.24.38-.54.89-.81 1.54-.81s1.15.24 1.5.73c.34.48.52 1.17.52 2.06.01.16 0 .31-.02.46zm-.58-.66c0-.67-.12-1.18-.35-1.54-.23-.36-.59-.53-1.06-.53-.42 0-.77.18-1.03.54s-.41.93-.44 1.71h2.88v-.18zM35.08 80.88c-.34.24-.7.36-1.1.36-.4 0-.72-.12-.95-.36s-.34-.58-.34-1.02v-3.98h-.87v-.51h.87V74l.62-.08v1.45h1.33l-.08.51h-1.25v3.96c0 .59.25.88.74.88.25 0 .51-.08.78-.24l.25.4z"/></g><g><path class="st23" d="M15.22 53.07h-1.2l-2.45-5.91c.08.88.12 1.74.12 2.57v3.34h-.84v-6.88h1.19l2.46 5.92c-.03-.23-.05-.55-.08-.96s-.04-.81-.04-1.21v-3.75h.85v6.88zM20.25 52.34c.06.1.15.18.28.23l-.19.61c-.26-.04-.46-.12-.61-.24-.15-.12-.25-.3-.31-.55-.34.53-.82.8-1.43.8-.47 0-.84-.15-1.11-.44s-.41-.68-.41-1.17c0-.56.18-.99.55-1.28.37-.29.89-.44 1.57-.44h.68v-.45c0-.37-.07-.63-.22-.79-.15-.16-.4-.25-.74-.25-.37 0-.79.09-1.28.28l-.22-.63c.59-.24 1.13-.36 1.64-.36 1.14 0 1.71.57 1.71 1.71v2.48c0 .23.03.39.09.49zm-.98-.64v-1.24h-.58c-.87 0-1.3.36-1.3 1.09 0 .31.07.55.21.72.14.17.34.25.6.25.47 0 .82-.27 1.07-.82zM25.52 45.68v7.39h-.8l-.06-.69c-.34.55-.8.82-1.37.82-.57 0-1.02-.24-1.33-.73-.32-.49-.48-1.16-.48-2.01 0-.55.08-1.04.24-1.46.16-.42.38-.75.67-.98.29-.23.62-.35.99-.35.5 0 .92.21 1.25.63v-2.73l.89.11zm-1.4 6.61c.18-.13.34-.33.49-.59v-2.64c-.3-.45-.65-.67-1.05-.67-.35 0-.63.17-.84.51-.21.34-.31.85-.3 1.54 0 .7.09 1.22.28 1.55.19.33.45.5.79.5.25 0 .46-.07.63-.2zM30.81 50.75h-3.06c.03.61.15 1.05.37 1.32s.52.41.9.41c.24 0 .46-.04.65-.11s.39-.19.6-.36l.4.53c-.49.44-1.05.66-1.68.66-.69 0-1.22-.24-1.59-.71-.38-.48-.57-1.15-.57-2 0-.86.18-1.54.54-2.04.36-.5.86-.76 1.5-.76.63 0 1.12.23 1.46.68.34.45.51 1.09.51 1.92-.01.13-.02.29-.03.46zm-.8-5.51l.35.4-1.21 1.16h-.56l-1.21-1.16.35-.4 1.14.88 1.14-.88zm-.05 4.77c0-1.1-.36-1.65-1.09-1.65-.33 0-.6.14-.79.42s-.3.73-.33 1.34h2.21v-.11zM32.98 52.86c0 .45-.06.81-.17 1.09-.12.28-.28.51-.5.69-.22.18-.51.35-.88.52l-.28-.65c.23-.12.41-.24.54-.36.13-.12.22-.28.29-.48.07-.2.1-.47.1-.8V47.8h.9v5.06zm-.03-7.36c.11.11.17.25.17.42s-.05.3-.16.42a.58.58 0 01-.43.17c-.17 0-.31-.06-.42-.17-.11-.11-.17-.25-.17-.42s.06-.31.17-.42c.11-.11.25-.17.42-.17.17 0 .31.06.42.17zM38.27 50.75h-3.06c.03.61.15 1.05.37 1.32s.52.41.9.41c.24 0 .46-.04.65-.11s.39-.19.6-.36l.4.53c-.49.44-1.05.66-1.68.66-.69 0-1.22-.24-1.59-.71-.38-.48-.57-1.15-.57-2 0-.86.18-1.54.54-2.04.36-.5.86-.76 1.5-.76.63 0 1.12.23 1.46.68.34.45.51 1.09.51 1.92-.01.13-.02.29-.03.46zm-.85-.74c0-1.1-.36-1.65-1.09-1.65-.33 0-.6.14-.79.42s-.3.73-.33 1.34h2.21v-.11zM14.55 56.68v7.39h-.8l-.06-.69c-.34.55-.8.82-1.37.82-.57 0-1.02-.24-1.33-.73-.32-.49-.48-1.16-.48-2.01 0-.55.08-1.04.24-1.46.16-.42.38-.75.67-.98.29-.23.62-.35.99-.35.5 0 .92.21 1.25.63v-2.73l.89.11zm-1.39 6.61c.18-.13.34-.33.49-.59v-2.64c-.3-.45-.65-.67-1.05-.67-.35 0-.63.17-.84.51-.21.34-.31.85-.3 1.54 0 .7.09 1.22.28 1.55.19.33.45.5.79.5.24 0 .45-.07.63-.2zM19.57 59.39c.37.47.56 1.15.56 2.04 0 .85-.19 1.53-.57 2.02-.38.5-.9.75-1.57.75s-1.2-.24-1.57-.73c-.38-.49-.57-1.16-.57-2.03 0-.87.19-1.55.57-2.04s.91-.73 1.58-.73c.67.01 1.2.25 1.57.72zm-2.47.5c-.21.33-.31.84-.31 1.54 0 1.37.4 2.05 1.2 2.05.8 0 1.2-.69 1.2-2.06 0-.7-.1-1.21-.3-1.54-.2-.33-.5-.49-.89-.49-.39.01-.69.17-.9.5zM24.3 58.81v.67l-2.49 3.85h2.5l-.09.74h-3.4v-.67l2.49-3.85h-2.28v-.74h3.27zm-.53-2.57l.35.4-1.21 1.16h-.56l-1.21-1.16.35-.4 1.14.88 1.14-.88zM26.25 56.5c.11.11.17.25.17.42s-.05.3-.16.42a.58.58 0 01-.43.17c-.17 0-.31-.06-.43-.17-.11-.11-.17-.25-.17-.42s.06-.31.17-.42c.11-.11.25-.17.43-.17s.31.06.42.17zm.03 2.31v5.26h-.9v-5.26h.9zM30.39 63.84c-.33.24-.7.36-1.11.36-.43 0-.75-.12-.98-.37-.23-.25-.35-.59-.35-1.04v-3.3h-.75v-.68h.75V57.6l.9-.11v1.32h1.16l-.1.68h-1.06v3.29c0 .45.19.68.57.68.11 0 .22-.02.31-.05.1-.03.21-.08.33-.15l.33.58zM32.28 56.1l.38.72-1.92.87-.26-.46 1.8-1.13zm-.21 2.71v5.26h-.9v-5.26h.9z"/></g><g><path d="M16.94 15.54v1.43l-4.47 6.73h4.51l-.2 1.51h-6.47V23.8l4.55-6.79h-4.09v-1.47h6.17zM23.98 23.9c.09.14.23.24.43.32l-.38 1.19c-.42-.04-.76-.14-1.03-.31-.27-.17-.47-.42-.61-.77-.25.37-.57.65-.94.83s-.8.27-1.27.27c-.74 0-1.32-.21-1.75-.63s-.64-.97-.64-1.65c0-.8.29-1.42.88-1.84.58-.42 1.42-.64 2.5-.64h.92v-.42c0-.48-.11-.81-.33-1-.22-.19-.57-.29-1.06-.29-.54 0-1.19.13-1.96.39l-.42-1.22c.92-.35 1.82-.53 2.69-.53 1.9 0 2.84.85 2.84 2.55v3.11c0 .29.04.5.13.64zm-1.9-.68v-1.5h-.74c-1.16 0-1.74.43-1.74 1.29 0 .35.09.63.27.83.18.2.44.29.78.29.61 0 1.09-.31 1.43-.91zM35.01 18.2c.37.4.55.95.55 1.66v5.36h-1.79v-5.08c0-.44-.08-.75-.23-.92-.15-.18-.38-.27-.68-.27-.31 0-.59.1-.83.29-.25.19-.49.47-.72.83v5.15h-1.79v-7.41h1.55l.14.97c.61-.78 1.36-1.18 2.25-1.18.67 0 1.18.2 1.55.6zM43.23 18.65c.61.7.92 1.65.92 2.86 0 .77-.14 1.46-.42 2.05-.28.59-.68 1.05-1.2 1.38-.52.33-1.14.49-1.86.49-1.09 0-1.95-.35-2.56-1.04-.62-.7-.92-1.65-.92-2.88 0-.77.14-1.46.42-2.04.28-.59.68-1.05 1.21-1.37s1.15-.49 1.87-.49c1.08-.01 1.93.34 2.54 1.04zm-4.17 2.86c0 .88.13 1.52.4 1.94.27.42.67.62 1.2.62.53 0 .93-.21 1.2-.63.27-.42.4-1.06.4-1.93s-.13-1.51-.4-1.92c-.27-.42-.66-.62-1.18-.62-1.08-.01-1.62.84-1.62 2.54zM50.22 17.71l-.31 1.74c-.22-.06-.44-.08-.66-.08-.44 0-.78.16-1.04.47-.25.31-.45.79-.6 1.43v3.95h-1.79v-7.41h1.55l.17 1.46c.18-.53.43-.94.77-1.22s.72-.43 1.16-.43c.28 0 .53.03.75.09zM60.62 18.21c.35.41.53.95.53 1.65v5.36h-1.79v-5.08c0-.79-.27-1.19-.81-1.19-.29 0-.54.09-.75.27s-.43.46-.65.85v5.15h-1.79v-5.08c0-.79-.27-1.19-.81-1.19-.3 0-.55.09-.76.27s-.43.46-.65.85v5.15h-1.79v-7.41h1.55l.14.97c.56-.78 1.27-1.18 2.14-1.18.43 0 .8.11 1.11.33.31.22.54.52.68.92.3-.4.63-.71.99-.92s.77-.32 1.24-.32c.59-.01 1.07.2 1.42.6zM68.85 23.9c.09.14.23.24.43.32l-.38 1.18c-.42-.04-.76-.14-1.03-.31s-.47-.42-.61-.77c-.25.37-.57.65-.94.83-.38.18-.8.27-1.27.27-.74 0-1.32-.21-1.75-.63-.43-.42-.64-.97-.64-1.65 0-.8.29-1.42.88-1.84.58-.42 1.42-.64 2.5-.64h.92v-.42c0-.48-.11-.81-.33-1-.22-.19-.57-.29-1.06-.29-.54 0-1.19.13-1.96.39l-.42-1.22c.92-.35 1.82-.53 2.69-.53 1.89 0 2.84.85 2.84 2.55v3.11c0 .3.04.51.13.65zm-1.9-.68v-1.5h-.74c-1.16 0-1.74.43-1.74 1.29 0 .35.09.63.27.83.18.2.44.29.78.29.61 0 1.09-.31 1.43-.91zM71.16 24.93c-.32-.33-.48-.8-.48-1.41v-8.68l1.79-.2v8.82c0 .35.14.52.42.52.14 0 .28-.02.42-.07l.38 1.26c-.37.17-.77.25-1.19.25-.57.01-1.02-.16-1.34-.49zM76.58 14.38c.21.21.31.47.31.78s-.1.56-.31.77-.48.31-.82.31c-.33 0-.6-.1-.81-.31s-.31-.46-.31-.77.1-.57.31-.78c.21-.21.48-.32.81-.32.33 0 .61.11.82.32zm.09 3.43v7.41h-1.79v-7.41h1.79zM83.64 17.81v1.29l-3.58 4.72h3.65l-.18 1.4H78v-1.29l3.6-4.72h-3.29v-1.4h5.33zM90.51 23.9c.09.14.23.24.43.32l-.38 1.19c-.42-.04-.76-.14-1.03-.31-.27-.17-.47-.42-.61-.77-.25.37-.57.65-.94.83s-.8.27-1.27.27c-.74 0-1.32-.21-1.75-.63s-.64-.97-.64-1.65c0-.8.29-1.42.88-1.84.58-.42 1.42-.64 2.5-.64h.92v-.42c0-.48-.11-.81-.33-1-.22-.19-.57-.29-1.06-.29-.54 0-1.19.13-1.96.39l-.42-1.22c.92-.35 1.82-.53 2.69-.53 1.9 0 2.84.85 2.84 2.55v3.11c-.01.29.04.5.13.64zm-1.9-.68v-1.5h-.74c-1.16 0-1.74.43-1.74 1.29 0 .35.09.63.27.83.18.2.44.29.78.29.61 0 1.08-.31 1.43-.91zM96.83 17.81c.39.14.75.36 1.1.66l-.8 1.08c-.25-.19-.49-.32-.73-.41s-.49-.13-.77-.13c-1.11 0-1.67.84-1.67 2.53 0 .86.15 1.48.43 1.85s.7.57 1.23.57c.26 0 .5-.04.72-.13.22-.08.48-.22.78-.41l.8 1.13c-.7.57-1.5.85-2.39.85-.71 0-1.33-.16-1.85-.47-.52-.31-.92-.76-1.2-1.34-.28-.58-.42-1.26-.42-2.04s.14-1.48.42-2.08c.28-.6.68-1.07 1.2-1.4.52-.33 1.13-.5 1.83-.5.5.03.94.1 1.32.24zM104.99 22.07h-4.65c.06.72.24 1.23.56 1.54s.74.46 1.26.46c.33 0 .63-.05.92-.16.29-.11.6-.27.92-.5l.74 1.02c-.82.66-1.74.99-2.74.99-1.13 0-2-.35-2.61-1.04-.61-.69-.92-1.63-.92-2.83 0-.76.13-1.44.39-2.04.26-.6.64-1.07 1.13-1.41s1.08-.51 1.76-.51c1.04 0 1.84.33 2.41.99.57.66.85 1.57.85 2.75.02.1.01.35-.02.74zm-1.74-1.25c0-1.3-.48-1.95-1.44-1.95-.44 0-.78.16-1.03.48-.25.32-.39.84-.44 1.55h2.91v-.08zM116.37 14.84v10.37h-1.58l-.13-.94c-.23.35-.53.63-.89.84-.36.21-.77.31-1.23.31-.91 0-1.6-.35-2.09-1.05-.49-.7-.73-1.65-.73-2.86 0-.76.12-1.43.36-2.02.24-.59.59-1.06 1.04-1.39.45-.34.98-.5 1.58-.5.71 0 1.33.27 1.86.8v-3.75l1.81.19zm-2.48 9c.24-.15.47-.39.69-.72v-3.39c-.21-.26-.43-.46-.65-.59-.22-.13-.47-.2-.76-.2-.48 0-.85.21-1.13.64-.28.42-.41 1.07-.41 1.92 0 .91.12 1.57.36 1.97.24.4.6.6 1.06.6.32 0 .6-.08.84-.23zM124.56 22.07h-4.65c.06.72.24 1.23.56 1.54.32.31.74.46 1.26.46.33 0 .63-.05.92-.16.29-.11.6-.27.92-.5l.74 1.02c-.82.66-1.74.99-2.74.99-1.13 0-2-.35-2.61-1.04-.61-.69-.92-1.63-.92-2.83 0-.76.13-1.44.39-2.04s.64-1.07 1.13-1.41c.49-.34 1.08-.51 1.76-.51 1.04 0 1.84.33 2.41.99.57.66.85 1.57.85 2.75.02.1.01.35-.02.74zm-2.11-8.33l.73 1.4-3.16 1.26-.5-.91 2.93-1.75zm.38 7.08c0-1.3-.48-1.95-1.44-1.95-.44 0-.78.16-1.03.48-.25.32-.39.84-.44 1.55h2.91v-.08zM126.63 24.93c-.32-.33-.48-.8-.48-1.41v-8.68l1.79-.2v8.82c0 .35.14.52.42.52.14 0 .28-.02.42-.07l.38 1.26c-.37.17-.77.25-1.19.25-.58.01-1.02-.16-1.34-.49zM132.14 14.65v10.57h-1.79V14.84l1.79-.19zm4.43 3.16l-2.46 3.26 2.7 4.14h-2.06l-2.55-4.05 2.48-3.36h1.89zM143.22 23.9c.09.14.23.24.43.32l-.38 1.19c-.42-.04-.76-.14-1.03-.31-.27-.17-.47-.42-.61-.77-.25.37-.57.65-.94.83-.38.18-.8.27-1.27.27-.74 0-1.32-.21-1.75-.63-.43-.42-.64-.97-.64-1.65 0-.8.29-1.42.88-1.84.58-.42 1.42-.64 2.5-.64h.92v-.42c0-.48-.11-.81-.33-1-.22-.19-.57-.29-1.06-.29-.54 0-1.19.13-1.96.39l-.42-1.22c.92-.35 1.82-.53 2.69-.53 1.89 0 2.84.85 2.84 2.55v3.11c-.01.29.04.5.13.64zm-1.9-.68v-1.5h-.74c-1.16 0-1.74.43-1.74 1.29 0 .35.09.63.27.83.18.2.44.29.78.29.61 0 1.08-.31 1.43-.91zM153.57 17.81v1.29l-3.58 4.72h3.65l-.18 1.4h-5.53v-1.29l3.6-4.72h-3.29v-1.4h5.33zm-.91-3.79l.69.78-1.95 1.75h-1.12l-1.95-1.75.69-.78 1.82 1.23 1.82-1.23zM156.74 14.38c.21.21.31.47.31.78s-.1.56-.31.77c-.21.21-.48.31-.82.31-.33 0-.59-.1-.8-.31-.21-.21-.32-.46-.32-.77s.1-.57.32-.78c.21-.21.48-.32.8-.32.34 0 .61.11.82.32zm.09 3.43v7.41h-1.79v-7.41h1.79zM164.94 17.81l-2.41 7.41h-2.14l-2.45-7.41h1.95l1.58 5.96 1.62-5.96h1.85zM171.54 18.65c.61.7.92 1.65.92 2.86 0 .77-.14 1.46-.42 2.05-.28.59-.68 1.05-1.2 1.38-.52.33-1.14.49-1.86.49-1.09 0-1.95-.35-2.56-1.04-.62-.7-.92-1.65-.92-2.88 0-.77.14-1.46.42-2.04.28-.59.68-1.05 1.21-1.37.53-.33 1.15-.49 1.87-.49 1.08-.01 1.93.34 2.54 1.04zm-4.17 2.86c0 .88.13 1.52.4 1.94.27.42.67.62 1.2.62.53 0 .93-.21 1.2-.63.27-.42.4-1.06.4-1.93s-.13-1.51-.4-1.92c-.27-.42-.66-.62-1.18-.62-1.08-.01-1.62.84-1.62 2.54zM178.38 24.87c-.26.19-.55.33-.88.42-.32.09-.65.14-.99.14-.73-.01-1.28-.22-1.66-.62-.38-.41-.57-1.01-.57-1.8V19.1h-1.16v-1.29h1.16v-1.64l1.79-.21v1.85h1.72l-.18 1.29h-1.54v3.86c0 .36.06.63.19.78.13.16.32.24.6.24.27 0 .56-.09.88-.27l.64 1.16zM184.85 23.9c.09.14.23.24.43.32l-.38 1.19c-.42-.04-.76-.14-1.03-.31-.27-.17-.47-.42-.61-.77-.25.37-.57.65-.94.83-.38.18-.8.27-1.27.27-.74 0-1.32-.21-1.75-.63-.43-.42-.64-.97-.64-1.65 0-.8.29-1.42.88-1.84.58-.42 1.42-.64 2.5-.64h.92v-.42c0-.48-.11-.81-.33-1-.22-.19-.57-.29-1.06-.29-.54 0-1.19.13-1.96.39l-.42-1.22c.92-.35 1.82-.53 2.69-.53 1.89 0 2.84.85 2.84 2.55v3.11c0 .29.04.5.13.64zm-1.89-.68v-1.5h-.74c-1.16 0-1.74.43-1.74 1.29 0 .35.09.63.27.83.18.2.44.29.78.29.6 0 1.08-.31 1.43-.91zM195.36 18.48l-.7 1.05c-.64-.4-1.26-.6-1.86-.6-.35 0-.63.07-.83.2-.2.14-.29.31-.29.54 0 .17.04.31.13.42s.24.22.46.31.54.21.97.33c.8.21 1.4.5 1.78.85.39.35.58.85.58 1.48 0 .74-.3 1.31-.9 1.73-.6.42-1.34.62-2.23.62-.61 0-1.16-.09-1.66-.28-.5-.19-.93-.44-1.29-.77l.9-1.01c.64.49 1.32.73 2.02.73.4 0 .72-.08.96-.24.24-.16.36-.38.36-.66 0-.21-.04-.38-.13-.51s-.25-.24-.48-.34c-.23-.1-.59-.22-1.07-.36-.76-.21-1.31-.49-1.67-.86-.35-.37-.53-.83-.53-1.38 0-.41.12-.78.36-1.11.24-.33.57-.58 1.01-.77s.93-.28 1.49-.28c.99.03 1.86.33 2.62.91zM201.29 24.87c-.26.19-.55.33-.88.42-.32.09-.65.14-.99.14-.73-.01-1.28-.22-1.66-.62-.38-.41-.57-1.01-.57-1.8V19.1h-1.16v-1.29h1.16v-1.64l1.79-.21v1.85h1.72l-.18 1.29H199v3.86c0 .36.06.63.19.78.13.16.32.24.59.24.27 0 .56-.09.88-.27l.63 1.16zM207.77 23.9c.09.14.23.24.43.32l-.38 1.19c-.42-.04-.76-.14-1.03-.31-.27-.17-.47-.42-.61-.77-.25.37-.57.65-.94.83-.38.18-.8.27-1.27.27-.74 0-1.32-.21-1.75-.63-.43-.42-.64-.97-.64-1.65 0-.8.29-1.42.88-1.84.58-.42 1.42-.64 2.5-.64h.92v-.42c0-.48-.11-.81-.33-1-.22-.19-.57-.29-1.06-.29-.54 0-1.19.13-1.96.39l-.42-1.22c.92-.35 1.82-.53 2.69-.53 1.89 0 2.84.85 2.84 2.55v3.11c0 .29.04.5.13.64zm-1.9-.68v-1.5h-.74c-1.16 0-1.74.43-1.74 1.29 0 .35.09.63.27.83.18.2.44.29.78.29.61 0 1.09-.31 1.43-.91zM216.11 18.2c-.48.17-1.19.25-2.14.25.46.21.8.46 1.02.76s.33.68.33 1.14c0 .49-.12.91-.36 1.29-.24.37-.58.67-1.04.88-.45.21-.98.32-1.59.32-.34 0-.63-.04-.88-.11-.21.14-.31.32-.31.55 0 .35.3.52.9.52h1.13c.54 0 1.01.09 1.42.27s.72.43.94.75c.22.32.34.68.34 1.08 0 .75-.32 1.33-.95 1.74-.63.42-1.55.62-2.74.62-.86 0-1.53-.09-2.02-.27-.49-.18-.84-.43-1.04-.77-.21-.34-.31-.77-.31-1.29h1.61c0 .26.05.47.15.62.1.15.28.26.53.34.26.07.63.11 1.11.11.68 0 1.16-.08 1.44-.25.28-.17.42-.41.42-.73 0-.28-.11-.5-.32-.65-.21-.15-.53-.23-.94-.23h-1.12c-.7 0-1.23-.14-1.58-.41-.35-.27-.53-.61-.53-1.02 0-.26.08-.51.23-.76.15-.24.37-.45.64-.62-.45-.23-.78-.52-.99-.86-.21-.34-.31-.75-.31-1.23 0-.53.13-1 .39-1.4s.62-.71 1.08-.93c.46-.22.99-.33 1.59-.33.78.02 1.42-.04 1.9-.17.48-.14 1-.35 1.56-.65l.44 1.44zm-4.83 1.01c-.23.26-.34.6-.34 1.03 0 .45.12.8.35 1.06.23.26.56.39.97.39.43 0 .76-.13.98-.39.22-.26.34-.62.34-1.08 0-.93-.45-1.4-1.34-1.4-.41 0-.73.13-.96.39zM222.68 18.2c.37.4.55.95.55 1.66v5.36h-1.79v-5.08c0-.44-.08-.75-.23-.92-.15-.18-.38-.27-.68-.27-.31 0-.59.1-.83.29-.25.19-.49.47-.72.83v5.15h-1.79v-7.41h1.55l.14.97c.61-.78 1.36-1.18 2.25-1.18.67 0 1.18.2 1.55.6zM230.9 18.65c.61.7.92 1.65.92 2.86 0 .77-.14 1.46-.42 2.05-.28.59-.68 1.05-1.2 1.38-.52.33-1.14.49-1.86.49-1.09 0-1.95-.35-2.56-1.04s-.92-1.65-.92-2.88c0-.77.14-1.46.42-2.04.28-.59.68-1.05 1.21-1.37s1.15-.49 1.87-.49c1.07-.01 1.93.34 2.54 1.04zm-4.17 2.86c0 .88.13 1.52.4 1.94.27.42.67.62 1.2.62s.93-.21 1.2-.63c.27-.42.4-1.06.4-1.93s-.13-1.51-.4-1.92c-.27-.42-.66-.62-1.18-.62-1.08-.01-1.62.84-1.62 2.54zM239.36 17.81l-2.41 7.41h-2.14l-2.45-7.41h1.95l1.58 5.96 1.62-5.96h1.85zM245.81 23.9c.09.14.23.24.43.32l-.38 1.19c-.42-.04-.76-.14-1.03-.31s-.47-.42-.61-.77c-.25.37-.57.65-.95.83-.38.18-.8.27-1.27.27-.74 0-1.32-.21-1.75-.63-.43-.42-.64-.97-.64-1.65 0-.8.29-1.42.88-1.84.58-.42 1.42-.64 2.5-.64h.92v-.42c0-.48-.11-.81-.33-1-.22-.19-.57-.29-1.06-.29-.54 0-1.19.13-1.96.39l-.42-1.22c.92-.35 1.82-.53 2.69-.53 1.9 0 2.84.85 2.84 2.55v3.11c0 .29.05.5.14.64zm-1.9-.68v-1.5h-.74c-1.16 0-1.74.43-1.74 1.29 0 .35.09.63.27.83.18.2.44.29.78.29.61 0 1.09-.31 1.43-.91zM248.12 24.93c-.32-.33-.48-.8-.48-1.41v-8.68l1.79-.2v8.82c0 .35.14.52.42.52.14 0 .28-.02.42-.07l.38 1.26c-.37.17-.77.25-1.19.25-.57.01-1.02-.16-1.34-.49zM257.37 23.9c.09.14.23.24.43.32l-.38 1.19c-.42-.04-.76-.14-1.03-.31-.27-.17-.47-.42-.61-.77-.25.37-.57.65-.94.83s-.8.27-1.27.27c-.74 0-1.32-.21-1.75-.63s-.64-.97-.64-1.65c0-.8.29-1.42.88-1.84.58-.42 1.42-.64 2.5-.64h.92v-.42c0-.48-.11-.81-.33-1-.22-.19-.57-.29-1.06-.29-.54 0-1.19.13-1.96.39l-.42-1.22c.92-.35 1.82-.53 2.69-.53 1.9 0 2.84.85 2.84 2.55v3.11c0 .29.04.5.13.64zm-1.9-.68v-1.5h-.74c-1.16 0-1.74.43-1.74 1.29 0 .35.09.63.27.83.18.2.44.29.78.29.61 0 1.09-.31 1.43-.91z"/></g><g><path class="st24" d="M43.87 154.07c.28.17.49.41.64.7.15.3.22.63.22 1.01 0 .45-.08.87-.24 1.27s-.41.85-.76 1.34c-.35.49-.89 1.19-1.61 2.09h2.76l-.11.81h-3.64v-.77c.78-.98 1.35-1.73 1.71-2.23s.61-.94.75-1.3c.14-.36.21-.75.21-1.15 0-.39-.09-.69-.27-.9a.905.905 0 00-.72-.32c-.26 0-.48.06-.66.19-.19.12-.38.32-.58.59l-.56-.47c.49-.74 1.12-1.11 1.88-1.11.37-.01.7.08.98.25zM49.59 158.18c.21.31.32.7.32 1.17 0 .41-.09.77-.26 1.09-.17.32-.42.56-.75.74-.33.18-.7.26-1.13.26-.42 0-.79-.09-1.11-.26-.32-.17-.56-.42-.73-.73s-.26-.67-.26-1.08c0-.91.43-1.56 1.28-1.96-.36-.21-.62-.45-.78-.73-.16-.27-.24-.6-.24-.98 0-.4.08-.74.25-1.02.17-.29.39-.5.68-.65.28-.15.6-.22.94-.22.54 0 .98.16 1.34.48.36.32.54.78.54 1.36 0 .37-.09.7-.26.97s-.45.52-.84.74c.46.23.79.5 1.01.82zm-.91 2.15c.21-.22.32-.55.32-.98 0-.39-.09-.69-.27-.91-.18-.22-.49-.43-.95-.63l-.28-.12c-.32.18-.56.41-.71.67-.15.26-.23.59-.23.99 0 .44.11.77.32.99.21.22.51.33.9.33s.69-.12.9-.34zm-1.62-5.5c-.18.19-.27.49-.27.88 0 .33.08.59.23.78.15.19.41.36.77.52l.23.11c.28-.21.48-.42.6-.63.12-.22.18-.48.18-.79 0-.39-.09-.68-.26-.87-.17-.19-.42-.29-.73-.29-.32 0-.57.1-.75.29z"/><path class="st25" d="M68.61 151.64c.28.17.49.39.63.67.15.28.22.59.22.93 0 .47-.11.85-.33 1.14s-.54.49-.95.59c.44.04.8.22 1.07.53.27.31.4.74.4 1.29 0 .42-.09.8-.26 1.13-.17.34-.42.61-.73.8-.32.2-.69.3-1.11.3-.39 0-.74-.08-1.04-.25-.31-.17-.58-.42-.84-.75l.54-.51c.21.25.41.43.62.54.2.11.43.17.69.17.37 0 .66-.13.88-.39.22-.26.33-.62.33-1.07 0-.48-.11-.83-.33-1.05-.22-.22-.53-.32-.94-.32h-.42l.11-.74h.28c.34 0 .61-.11.83-.34s.33-.55.33-.98c0-.37-.09-.65-.28-.86-.18-.21-.44-.31-.76-.31-.23 0-.45.05-.65.15-.2.1-.4.26-.6.48l-.47-.53c.52-.59 1.13-.88 1.81-.88.37.01.69.09.97.26zM74.29 152.35c.35.64.52 1.59.52 2.85 0 1.28-.17 2.23-.52 2.87-.35.63-.86.95-1.54.95s-1.2-.32-1.55-.96c-.35-.64-.52-1.59-.52-2.86 0-2.54.69-3.81 2.07-3.81.67 0 1.19.32 1.54.96zm-2.4.51c-.18.47-.28 1.25-.28 2.34 0 1.1.09 1.88.28 2.34.18.46.47.69.86.69.38 0 .67-.23.85-.69s.28-1.24.28-2.34-.09-1.88-.27-2.34-.47-.69-.86-.69c-.39-.01-.68.22-.86.69zM93.87 145.93c.27.17.49.39.63.67s.22.59.22.93c0 .47-.11.85-.33 1.14-.22.29-.54.49-.95.59.44.04.8.22 1.07.53.27.31.4.74.4 1.29 0 .42-.09.8-.26 1.13-.17.34-.42.61-.73.8-.32.2-.69.3-1.11.3-.39 0-.74-.08-1.04-.25s-.59-.42-.84-.75l.54-.51c.21.25.41.43.62.54.2.11.43.17.69.17.37 0 .66-.13.88-.39.22-.26.33-.62.33-1.07 0-.48-.11-.83-.33-1.05-.22-.22-.53-.32-.94-.32h-.42l.11-.74h.28c.34 0 .61-.11.83-.34.22-.23.33-.55.33-.98 0-.37-.09-.65-.28-.86-.18-.21-.44-.31-.76-.31-.24 0-.45.05-.65.15-.2.1-.4.26-.6.48l-.47-.53c.52-.59 1.13-.88 1.81-.88.37.02.69.1.97.26zM98.41 145.93c.27.17.49.39.63.67s.22.59.22.93c0 .47-.11.85-.33 1.14-.22.29-.54.49-.95.59.44.04.8.22 1.07.53.27.31.4.74.4 1.29 0 .42-.09.8-.26 1.13-.17.34-.42.61-.73.8-.32.2-.69.3-1.11.3-.39 0-.74-.08-1.04-.25s-.59-.42-.84-.75l.54-.51c.21.25.41.43.62.54.2.11.43.17.69.17.37 0 .66-.13.88-.39.22-.26.33-.62.33-1.07 0-.48-.11-.83-.33-1.05-.22-.22-.53-.32-.94-.32h-.42l.11-.74h.28c.34 0 .61-.11.83-.34.22-.23.33-.55.33-.98 0-.37-.09-.65-.28-.86-.18-.21-.44-.31-.76-.31-.24 0-.45.05-.65.15-.2.1-.4.26-.6.48l-.47-.53c.52-.59 1.13-.88 1.81-.88.37.02.69.1.97.26zM118.77 145.24c.27.17.49.39.63.67s.22.59.22.93c0 .47-.11.85-.33 1.14-.22.29-.54.49-.95.59.44.04.8.22 1.07.53.27.31.4.74.4 1.29 0 .42-.09.8-.26 1.13-.17.34-.42.61-.73.8-.32.2-.69.3-1.11.3-.39 0-.74-.08-1.04-.25s-.59-.42-.84-.75l.54-.51c.21.25.41.43.62.54.2.11.43.17.69.17.37 0 .66-.13.88-.39.22-.26.33-.62.33-1.07 0-.48-.11-.83-.33-1.05-.22-.22-.53-.32-.94-.32h-.42l.11-.74h.28c.34 0 .61-.11.83-.34.22-.23.33-.55.33-.98 0-.37-.09-.65-.28-.86-.18-.21-.44-.31-.76-.31-.24 0-.45.05-.65.15-.2.1-.4.26-.6.48l-.47-.53c.52-.59 1.13-.88 1.81-.88.37.01.7.09.97.26zM123.31 145.24c.27.17.49.39.63.67s.22.59.22.93c0 .47-.11.85-.33 1.14-.22.29-.54.49-.95.59.44.04.8.22 1.07.53.27.31.4.74.4 1.29 0 .42-.09.8-.26 1.13-.17.34-.42.61-.73.8-.32.2-.69.3-1.11.3-.39 0-.74-.08-1.04-.25s-.59-.42-.84-.75l.54-.51c.21.25.41.43.62.54.2.11.43.17.69.17.37 0 .66-.13.88-.39.22-.26.33-.62.33-1.07 0-.48-.11-.83-.33-1.05-.22-.22-.53-.32-.94-.32h-.42l.11-.74h.28c.34 0 .61-.11.83-.34.22-.23.33-.55.33-.98 0-.37-.09-.65-.28-.86-.18-.21-.44-.31-.76-.31-.24 0-.45.05-.65.15-.2.1-.4.26-.6.48l-.47-.53c.52-.59 1.13-.88 1.81-.88.37.01.7.09.97.26zM143.45 140.22c.27.17.49.39.63.67s.22.59.22.93c0 .47-.11.85-.33 1.14s-.54.49-.95.59c.44.04.8.22 1.07.53.27.31.4.74.4 1.29 0 .42-.09.8-.26 1.13-.17.34-.42.61-.74.8-.32.2-.69.3-1.11.3-.39 0-.74-.08-1.04-.25-.31-.17-.59-.42-.84-.75l.54-.51c.21.25.41.43.62.54.2.11.43.17.69.17.37 0 .66-.13.88-.39.22-.26.33-.62.33-1.07 0-.48-.11-.83-.33-1.05-.22-.22-.53-.32-.94-.32h-.42l.11-.74h.28c.33 0 .61-.11.83-.34s.33-.55.33-.98c0-.37-.09-.65-.28-.86-.18-.21-.44-.31-.76-.31-.23 0-.45.05-.65.15-.2.1-.4.26-.6.48l-.47-.53c.52-.59 1.13-.88 1.81-.88.38.02.7.1.98.26zM148.74 142.88c.25.18.45.44.6.79.15.35.22.78.22 1.29 0 .54-.08 1.01-.25 1.41-.16.4-.39.7-.69.91-.3.21-.63.31-1.02.31-.72 0-1.25-.31-1.58-.93s-.51-1.48-.51-2.59c0-.84.1-1.57.29-2.19.19-.62.47-1.09.83-1.42.36-.33.78-.5 1.26-.5.47 0 .89.15 1.25.45l-.35.63c-.28-.21-.57-.31-.88-.31-.44 0-.78.25-1.04.75s-.4 1.19-.44 2.07c.38-.63.87-.95 1.47-.95.31.02.59.1.84.28zm-.35 3.47c.18-.32.27-.78.27-1.37 0-.56-.09-.98-.26-1.23a.782.782 0 00-.7-.38c-.25 0-.48.09-.7.28-.22.18-.41.44-.57.76.01.84.11 1.46.3 1.85s.47.58.87.58c.35-.01.61-.17.79-.49zM168.54 142.65c.28.17.49.39.63.67.15.28.22.59.22.93 0 .47-.11.85-.33 1.14s-.54.49-.95.59c.44.04.8.22 1.07.53.27.31.4.74.4 1.29 0 .42-.09.8-.26 1.13-.17.34-.42.61-.73.8-.32.2-.69.3-1.11.3-.39 0-.74-.08-1.04-.25-.31-.17-.58-.42-.84-.75l.54-.51c.21.25.41.43.62.54.2.11.43.17.69.17.37 0 .66-.13.88-.39.22-.26.33-.62.33-1.07 0-.48-.11-.83-.33-1.05-.22-.22-.53-.32-.94-.32h-.42l.11-.74h.28c.34 0 .61-.11.83-.34s.33-.55.33-.98c0-.37-.09-.65-.28-.86-.18-.21-.44-.31-.76-.31-.23 0-.45.05-.65.15-.2.1-.4.26-.6.48l-.47-.53c.52-.59 1.13-.88 1.81-.88.37.01.69.09.97.26zM173.91 143.29h-2.35v2.2c.32-.21.64-.31.99-.31.52 0 .93.21 1.25.62.32.41.47.98.47 1.71 0 .49-.09.93-.27 1.31-.18.38-.43.68-.75.89-.32.21-.7.32-1.13.32-.38 0-.72-.08-1.01-.24-.29-.16-.57-.4-.83-.71l.53-.53c.19.23.39.4.59.51.2.11.43.17.69.17.39 0 .69-.15.91-.45s.32-.72.32-1.28c0-1.05-.36-1.57-1.09-1.57-.16 0-.31.02-.44.07s-.29.12-.45.23h-.65v-3.7h3.34l-.12.76zM193.44 141.95c.28.17.49.39.63.67.15.28.22.59.22.93 0 .47-.11.85-.33 1.14s-.54.49-.95.59c.44.04.8.22 1.07.53.27.31.4.74.4 1.29 0 .42-.09.8-.26 1.13-.17.34-.42.61-.73.8-.32.2-.69.3-1.11.3-.39 0-.74-.08-1.04-.25-.31-.17-.58-.42-.84-.75l.54-.51c.21.25.41.43.62.54.2.11.43.17.69.17.37 0 .66-.13.88-.39.22-.26.33-.62.33-1.07 0-.48-.11-.83-.33-1.05-.22-.22-.53-.32-.94-.32h-.42l.11-.74h.28c.34 0 .61-.11.83-.34s.33-.55.33-.98c0-.37-.09-.65-.28-.86-.18-.21-.44-.31-.76-.31-.23 0-.45.05-.65.15-.2.1-.4.26-.6.48l-.47-.53c.52-.59 1.13-.88 1.81-.88.38.01.7.1.97.26zM198.82 142.59h-2.35v2.2c.32-.21.64-.31.99-.31.52 0 .93.21 1.25.62.32.41.47.98.47 1.71 0 .49-.09.93-.27 1.31-.18.38-.43.68-.75.89-.32.21-.7.32-1.13.32-.38 0-.72-.08-1.01-.24-.29-.16-.57-.4-.83-.71l.53-.53c.19.23.39.4.59.51.2.11.43.17.69.17.39 0 .69-.15.91-.45s.32-.72.32-1.28c0-1.05-.36-1.57-1.09-1.57-.16 0-.31.02-.44.07s-.29.12-.45.23h-.65v-3.7h3.34l-.12.76zM219.45 137.58v.79h-.77v1.81h-.87v-1.81h-2.64v-.71l1.8-4.96.76.32-1.64 4.57h1.72l.09-2h.77v2h.78zM223.88 133.67c.35.64.52 1.59.52 2.85 0 1.28-.17 2.23-.52 2.87-.35.63-.86.95-1.54.95s-1.2-.32-1.55-.96c-.35-.64-.52-1.59-.52-2.86 0-2.54.69-3.81 2.07-3.81.68 0 1.19.32 1.54.96zm-2.4.51c-.18.47-.28 1.25-.28 2.34 0 1.1.09 1.88.28 2.34s.47.69.86.69c.38 0 .67-.23.85-.69s.28-1.24.28-2.34-.09-1.88-.27-2.34-.47-.69-.86-.69-.68.22-.86.69zM244.67 130.32v.79h-.77v1.81h-.87v-1.81h-2.64v-.71l1.8-4.96.76.32-1.64 4.57h1.72l.09-2h.77v2h.78zM248.79 126.34h-2.35v2.2c.31-.21.64-.31.99-.31.52 0 .93.21 1.25.62.32.41.47.98.47 1.71 0 .49-.09.93-.27 1.31-.18.38-.43.68-.75.89s-.7.32-1.13.32c-.38 0-.72-.08-1.01-.24s-.57-.4-.83-.71l.53-.53c.19.23.39.4.59.51.2.11.43.17.69.17.39 0 .69-.15.91-.45.21-.3.32-.72.32-1.28 0-1.05-.36-1.57-1.09-1.57-.16 0-.31.02-.44.07s-.29.12-.45.23h-.65v-3.7h3.34l-.12.76zM269.44 122.36v.79h-.77v1.81h-.87v-1.81h-2.64v-.71l1.8-4.96.77.32-1.64 4.57h1.72l.09-2h.76v2h.78zM273.61 118.24c.34.51.51 1.22.51 2.14 0 .98-.12 1.77-.36 2.39-.24.62-.6 1.12-1.08 1.49-.48.37-1.12.68-1.91.94l-.2-.73c.82-.28 1.44-.65 1.87-1.12.43-.46.67-1.11.74-1.93-.17.26-.37.47-.6.62a1.4 1.4 0 01-.78.23c-.31 0-.59-.1-.86-.29s-.47-.46-.62-.82c-.15-.36-.23-.77-.23-1.25 0-.51.09-.95.26-1.32.17-.37.41-.65.71-.84.3-.19.64-.29 1.03-.29.67.02 1.18.28 1.52.78zm-.42 2.36c.01-.84-.08-1.45-.25-1.81-.17-.36-.45-.54-.84-.54-.35 0-.62.14-.82.42s-.29.71-.29 1.27c0 .52.09.92.27 1.19s.43.41.75.41c.46-.01.85-.32 1.18-.94z"/><g><path class="st25" d="M293.67 107.3h-2.35v2.2c.32-.21.64-.31.99-.31.52 0 .93.21 1.25.62.32.41.47.98.47 1.71 0 .49-.09.93-.27 1.31-.18.38-.43.68-.75.89-.32.21-.7.32-1.13.32-.38 0-.72-.08-1.01-.24-.29-.16-.57-.4-.83-.71l.53-.53c.19.23.39.4.59.51.2.11.43.17.69.17.39 0 .69-.15.91-.45s.32-.72.32-1.28c0-1.05-.36-1.57-1.09-1.57-.16 0-.31.02-.44.07s-.29.12-.45.23h-.65v-3.7h3.34l-.12.76zM298.21 109.31c.25.18.45.44.6.79.15.35.22.78.22 1.29 0 .54-.08 1.01-.25 1.41-.16.4-.39.7-.69.91-.3.21-.63.31-1.02.31-.72 0-1.25-.31-1.58-.93s-.51-1.48-.51-2.59c0-.84.1-1.57.29-2.19.19-.62.47-1.09.83-1.42.36-.33.78-.5 1.26-.5.47 0 .89.15 1.25.45l-.35.63c-.28-.21-.57-.31-.88-.31-.44 0-.78.25-1.04.75s-.4 1.19-.44 2.07c.38-.63.87-.95 1.47-.95.3.02.58.1.84.28zm-.36 3.47c.18-.32.27-.78.27-1.37 0-.56-.09-.98-.26-1.23a.782.782 0 00-.7-.38c-.25 0-.48.09-.7.28-.22.18-.41.44-.57.76.01.84.11 1.46.3 1.85s.47.58.87.58c.35-.01.62-.17.79-.49z"/></g><g><path class="st11" d="M318.53 97.03c.25.18.45.44.6.79.15.35.22.78.22 1.29 0 .54-.08 1.01-.25 1.41-.17.4-.39.7-.69.91-.3.21-.63.31-1.02.31-.72 0-1.25-.31-1.59-.93s-.51-1.48-.51-2.59c0-.84.1-1.57.29-2.19.19-.62.47-1.09.83-1.42.36-.33.78-.5 1.26-.5.47 0 .89.15 1.25.45l-.35.63c-.28-.21-.57-.31-.88-.31-.44 0-.78.25-1.04.75s-.4 1.19-.44 2.07c.38-.63.87-.95 1.47-.95.32.01.6.1.85.28zm-.35 3.47c.18-.32.27-.78.27-1.37 0-.56-.09-.98-.26-1.23a.782.782 0 00-.7-.38c-.25 0-.48.09-.7.28-.22.18-.41.44-.57.76.01.84.11 1.46.3 1.85s.47.58.87.58c.35-.01.61-.17.79-.49zM322.77 94.37c.28.17.49.39.63.67.15.28.22.59.22.93 0 .47-.11.85-.33 1.14s-.54.49-.95.59c.44.04.8.22 1.07.53.27.31.4.74.4 1.29 0 .42-.09.8-.26 1.13-.17.34-.42.61-.73.8-.32.2-.69.3-1.11.3-.39 0-.74-.08-1.04-.25-.31-.17-.58-.42-.84-.75l.54-.51c.21.25.41.43.62.54.2.11.43.17.69.17.37 0 .66-.13.88-.39.22-.26.33-.62.33-1.07 0-.48-.11-.83-.33-1.05-.22-.22-.53-.32-.94-.32h-.42l.11-.74h.28c.34 0 .61-.11.83-.34s.33-.55.33-.98c0-.37-.09-.65-.28-.86-.18-.21-.44-.31-.76-.31-.23 0-.45.05-.65.15-.2.1-.4.26-.6.48L320 95c.52-.59 1.13-.88 1.81-.88.37 0 .69.09.96.25z"/></g><g><path class="st11" d="M343.19 87.25c.25.18.45.44.6.79.15.35.22.78.22 1.29 0 .54-.08 1.01-.25 1.41-.16.4-.39.7-.69.91-.29.21-.63.31-1.02.31-.72 0-1.25-.31-1.58-.93s-.51-1.48-.51-2.59c0-.84.1-1.57.29-2.19.19-.62.47-1.09.83-1.42s.78-.5 1.26-.5c.47 0 .89.15 1.25.45l-.35.63c-.28-.21-.57-.31-.88-.31-.44 0-.78.25-1.04.75s-.4 1.19-.44 2.07c.38-.63.87-.95 1.47-.95.31.02.59.11.84.28zm-.35 3.48c.18-.32.27-.78.27-1.37 0-.56-.09-.98-.26-1.23a.782.782 0 00-.7-.38c-.25 0-.48.09-.7.28-.22.18-.41.44-.57.76.01.84.11 1.46.3 1.85.18.39.47.58.87.58.34-.02.61-.18.79-.49zM348.72 88.72c.21.31.32.7.32 1.17 0 .41-.09.77-.26 1.09-.17.32-.42.56-.75.74-.33.18-.7.26-1.13.26-.42 0-.79-.09-1.11-.26s-.56-.42-.73-.73a2.24 2.24 0 01-.26-1.08c0-.91.43-1.56 1.28-1.96-.36-.21-.62-.45-.78-.73-.16-.27-.24-.6-.24-.98 0-.4.08-.74.25-1.02.17-.29.39-.5.68-.65.28-.15.6-.22.94-.22.54 0 .98.16 1.34.48.36.32.54.78.54 1.36 0 .37-.09.7-.26.97s-.45.52-.83.74c.45.23.78.5 1 .82zm-.91 2.15c.21-.22.32-.55.32-.98 0-.39-.09-.69-.27-.91-.18-.22-.5-.43-.95-.63l-.28-.12c-.32.18-.56.41-.71.67-.15.26-.23.59-.23.99 0 .44.11.77.32.99.21.22.51.33.9.33.39-.01.69-.12.9-.34zm-1.62-5.5c-.18.19-.27.49-.27.88 0 .33.08.59.23.78.15.19.41.36.77.52l.23.11c.28-.21.48-.42.6-.63.12-.22.18-.48.18-.79 0-.39-.09-.68-.26-.87-.17-.19-.42-.29-.74-.29-.31 0-.56.09-.74.29z"/></g><g><path class="st11" d="M368.48 81.01v.73l-2.3 6.74-.82-.29 2.21-6.39h-2.7v-.79h3.61zM372.91 81.85c.35.64.52 1.59.52 2.85 0 1.28-.17 2.23-.52 2.87-.35.63-.86.95-1.54.95s-1.2-.32-1.55-.96c-.35-.64-.52-1.59-.52-2.86 0-2.54.69-3.81 2.07-3.81.68 0 1.19.32 1.54.96zm-2.4.51c-.18.47-.28 1.25-.28 2.34 0 1.1.09 1.88.28 2.34s.47.69.86.69c.38 0 .67-.23.85-.69s.28-1.24.28-2.34-.09-1.88-.27-2.34-.47-.69-.86-.69-.68.22-.86.69z"/></g><g><path class="st11" d="M393.38 81.01v.73l-2.3 6.74-.82-.29 2.21-6.39h-2.7v-.79h3.61zM397.81 81.85c.35.64.52 1.59.52 2.85 0 1.28-.17 2.23-.52 2.87-.35.63-.86.95-1.54.95s-1.2-.32-1.55-.96c-.35-.64-.52-1.59-.52-2.86 0-2.54.69-3.81 2.07-3.81.68 0 1.19.32 1.54.96zm-2.4.51c-.18.47-.28 1.25-.28 2.34 0 1.1.09 1.88.28 2.34s.47.69.86.69c.38 0 .67-.23.85-.69s.28-1.24.28-2.34-.09-1.88-.27-2.34-.47-.69-.86-.69-.67.22-.86.69z"/></g><g><path class="st11" d="M418.95 79.8v.73l-2.3 6.74-.82-.29 2.21-6.39h-2.7v-.79h3.61zM422.17 79.8v7.36h-.9v-6.33l-1.4 1.03-.41-.66 1.91-1.41h.8z"/></g><g><path class="st11" d="M443.55 75.99v.73l-2.3 6.74-.82-.29 2.21-6.39h-2.7v-.79h3.61zM446.84 76.11c.27.17.49.39.63.67s.22.59.22.93c0 .47-.11.85-.33 1.14-.22.29-.54.49-.95.59.44.04.8.22 1.07.53.27.31.4.74.4 1.29 0 .42-.09.8-.26 1.13-.17.34-.42.61-.73.8-.32.2-.69.3-1.11.3-.39 0-.74-.08-1.04-.25s-.59-.42-.84-.75l.54-.51c.21.25.41.43.62.54.2.11.43.17.69.17.37 0 .66-.13.88-.39.22-.26.33-.62.33-1.07 0-.48-.11-.83-.33-1.05-.22-.22-.53-.32-.94-.32h-.42l.11-.74h.28c.34 0 .61-.11.83-.34.22-.23.33-.55.33-.98 0-.37-.09-.65-.28-.86-.18-.21-.44-.31-.76-.31-.24 0-.45.05-.65.15-.2.1-.4.26-.6.48l-.47-.53c.52-.59 1.13-.88 1.81-.88.37.02.69.1.97.26z"/></g><g><path class="st11" d="M468.22 71.07v.73l-2.3 6.74-.82-.29 2.21-6.39h-2.7v-.79h3.61zM472.26 73.85c.25.18.45.44.6.79.15.35.22.78.22 1.29 0 .54-.08 1.01-.25 1.41-.17.4-.39.7-.69.91-.3.21-.63.31-1.02.31-.72 0-1.25-.31-1.59-.93s-.51-1.48-.51-2.59c0-.84.1-1.57.29-2.19.19-.62.47-1.09.83-1.42.36-.33.78-.5 1.26-.5.47 0 .89.15 1.25.45l-.35.63c-.28-.21-.57-.31-.88-.31-.44 0-.78.25-1.04.75s-.4 1.19-.44 2.07c.38-.63.87-.95 1.47-.95.32.01.6.1.85.28zm-.35 3.47c.18-.32.27-.78.27-1.37 0-.56-.09-.98-.26-1.23a.782.782 0 00-.7-.38c-.25 0-.48.09-.7.28-.22.18-.41.44-.57.76.01.84.11 1.46.3 1.85s.47.58.87.58c.35-.01.61-.17.79-.49z"/></g><g><path class="st11" d="M493.11 67.1v.73l-2.3 6.74-.82-.29 2.21-6.39h-2.7v-.79h3.61zM497.69 71.34c.21.31.32.7.32 1.17 0 .41-.09.77-.26 1.09-.17.32-.42.56-.75.74-.33.18-.7.26-1.13.26-.42 0-.79-.09-1.11-.26s-.56-.42-.73-.73a2.24 2.24 0 01-.26-1.08c0-.91.43-1.56 1.28-1.96-.36-.21-.62-.45-.78-.73-.16-.27-.24-.6-.24-.98 0-.4.08-.74.25-1.02.17-.29.39-.5.68-.65.28-.15.6-.22.94-.22.54 0 .98.16 1.34.48.36.32.54.78.54 1.36 0 .37-.09.7-.26.97s-.45.52-.83.74c.44.24.78.51 1 .82zm-.91 2.15c.21-.22.32-.55.32-.98 0-.39-.09-.69-.27-.91-.18-.22-.5-.43-.95-.63l-.28-.12c-.32.18-.56.41-.71.67-.15.26-.23.59-.23.99 0 .44.11.77.32.99.21.22.51.33.9.33s.69-.11.9-.34zm-1.62-5.5c-.18.19-.27.49-.27.88 0 .33.08.59.23.78.15.19.41.36.77.52l.23.11c.28-.21.48-.42.6-.63.12-.22.18-.48.18-.79 0-.39-.09-.68-.26-.87-.17-.19-.42-.29-.74-.29-.31 0-.56.1-.74.29z"/></g></g><g><path class="st11" d="M309.67 108.31h20.03v12.24h-20.03zM334.7 98.47h19.74v22.08H334.7zM359.43 94.99h20.03v25.56h-20.03zM384.46 94.99h20.03v25.56h-20.03zM409.48 93.79h19.73v26.76h-19.73zM434.22 90.07h19.74v30.48h-19.74zM458.95 85.15h20.03v35.4h-20.03zM483.98 81.19h19.73v39.36h-19.73z"/></g><g><path class="st26" d="M60.58 165.55h20.03v2.4H60.58zM85.61 159.79h19.74v8.16H85.61zM110.34 159.19h20.03v8.76h-20.03zM135.37 154.15h20.03v13.8h-20.03zM160.39 156.55h19.73v11.4h-19.73zM185.13 155.83h19.74v12.12h-19.74zM209.86 146.83h20.03v21.12h-20.03zM234.89 139.63h20.03v28.32h-20.03zM259.91 131.59h19.73v36.36h-19.73zM284.65 120.55h20.03v47.4h-20.03zM309.67 120.55h20.03v47.4h-20.03zM334.7 120.55h19.74v47.4H334.7zM359.43 120.55h20.03v47.4h-20.03zM384.46 120.55h20.03v47.4h-20.03zM409.48 120.55h19.73v47.4h-19.73zM434.22 120.55h19.74v47.4h-19.74zM458.95 120.55h20.03v47.4h-20.03zM483.98 120.55h19.73v47.4h-19.73z"/></g><path class="st24" d="M35.55 167.95h20.03v48.84H35.55zM60.58 167.95h20.03v48.84H60.58zM85.61 167.95h19.74v48.84H85.61zM110.34 167.95h20.03v48.84h-20.03zM135.37 167.95h20.03v48.84h-20.03zM160.39 167.95h19.73v48.84h-19.73zM185.13 167.95h19.74v48.84h-19.74zM209.86 167.95h20.03v48.84h-20.03zM234.89 167.95h20.03v48.84h-20.03zM259.91 167.95h19.73v48.84h-19.73zM284.65 167.95h20.03v48.84h-20.03zM309.67 167.95h20.03v48.84h-20.03zM334.7 167.95h19.74v48.84H334.7zM359.43 167.95h20.03v48.84h-20.03zM384.46 167.95h20.03v48.84h-20.03zM409.48 167.95h19.73v48.84h-19.73zM434.22 167.95h19.74v48.84h-19.74zM458.95 167.95h20.03v48.84h-20.03zM483.98 167.95h19.73v48.84h-19.73z"/><path class="st27" d="M23.49 112.93h2M23.49 147.46h2M23.49 182.17h2M23.49 216.79h2"/><g><path class="st27" d="M506.38 226.79v2M481.47 226.79v2M456.56 226.79v2M431.65 226.79v2M406.74 226.79v2M381.82 226.79v2M356.91 226.79v2M332 226.79v2M307.09 226.79v2M282.18 226.79v2M257.26 226.79v2M232.35 226.79v2M207.44 226.79v2M182.53 226.79v2M157.62 226.79v2M132.7 226.79v2M107.79 226.79v2M82.88 226.79v2M57.97 226.79v2M33.06 226.79v2"/></g><path opacity=".8" fill="#fff" d="M32.36 83.91h324.56v137.42H32.36z"/><path class="st30" d="M15.48 223.07h324.56v27.96H15.48zM442.29 223.07h86.67v27.96h-86.67zM431.65 63.11h79.44v158.22h-79.44z"/><path opacity=".7" fill="#fff" d="M431.65 64.21H528v157.11h-96.35z"/><g><path d="M444.41 103.29v.92l-2.87 4.33h2.9l-.13.97h-4.16v-.91l2.92-4.37h-2.63v-.94h3.97zM448.93 108.66c.06.09.15.15.27.2l-.24.77c-.27-.02-.49-.09-.66-.2s-.3-.27-.39-.5c-.16.24-.36.42-.61.54-.24.12-.51.17-.81.17-.47 0-.85-.13-1.12-.4-.28-.27-.41-.62-.41-1.06 0-.52.19-.91.56-1.18.38-.27.91-.41 1.61-.41h.59v-.27c0-.31-.07-.52-.21-.64-.14-.12-.37-.18-.68-.18-.35 0-.77.08-1.26.25l-.27-.78c.59-.23 1.17-.34 1.73-.34 1.22 0 1.83.55 1.83 1.64v2c-.02.17.01.31.07.39zm-1.22-.43v-.96h-.48c-.74 0-1.12.28-1.12.83 0 .23.06.41.17.53.11.13.28.19.5.19.4-.01.71-.2.93-.59zM455.22 109.29c-.17.12-.36.21-.56.27s-.42.09-.63.09c-.47-.01-.82-.14-1.07-.4-.24-.26-.36-.65-.36-1.16v-2.51h-.75v-.83h.75v-1.05l1.15-.14v1.19h1.11l-.12.83h-.99v2.48c0 .23.04.4.12.5.08.1.21.15.38.15s.36-.06.57-.17l.4.75zM458.46 102.31l.44.5-1.25 1.12h-.72l-1.25-1.12.44-.5 1.17.79 1.17-.79zm.23 2.38l-.2 1.12c-.14-.04-.28-.05-.42-.05-.28 0-.5.1-.67.3-.16.2-.29.51-.39.92v2.54h-1.15v-4.76h1l.11.94c.11-.34.28-.6.5-.79.22-.18.46-.27.75-.27.17-.01.33.01.47.05zM460.5 102.54c.13.14.2.3.2.5s-.07.36-.2.5a.74.74 0 01-.53.2c-.21 0-.38-.07-.52-.2s-.2-.3-.2-.5.07-.36.2-.5c.13-.13.31-.2.52-.2.22 0 .4.07.53.2zm.06 2.21v4.76h-1.15v-4.76h1.15zM464.71 104.75c.25.09.48.23.71.42l-.51.69a1.71 1.71 0 00-.47-.26c-.15-.05-.31-.08-.49-.08-.71 0-1.07.54-1.07 1.63 0 .55.09.95.28 1.19.19.24.45.36.79.36.17 0 .32-.03.46-.08s.31-.14.5-.26l.51.73c-.45.37-.96.55-1.54.55-.46 0-.85-.1-1.19-.3-.34-.2-.59-.49-.77-.86-.18-.37-.27-.81-.27-1.31s.09-.95.27-1.34c.18-.39.44-.69.77-.9.34-.21.73-.32 1.18-.32.31.01.59.05.84.14zM469.95 107.49h-2.99c.04.46.16.79.36.99s.47.3.81.3c.21 0 .41-.03.59-.1.19-.07.38-.17.59-.32l.48.66c-.53.43-1.12.64-1.76.64-.73 0-1.29-.22-1.68-.67-.39-.44-.59-1.05-.59-1.82 0-.49.08-.92.25-1.31.17-.39.41-.69.73-.91.32-.22.7-.33 1.13-.33.67 0 1.18.21 1.55.63.37.42.55 1.01.55 1.77.01.06 0 .22-.02.47zm-1.12-.8c0-.83-.31-1.25-.93-1.25-.28 0-.5.1-.66.31-.16.21-.25.54-.28.99h1.87v-.05zM473.74 109.29c-.17.12-.36.21-.56.27s-.42.09-.63.09c-.47-.01-.82-.14-1.07-.4-.24-.26-.36-.65-.36-1.16v-2.51h-.75v-.83h.75v-1.05l1.15-.14v1.19h1.11l-.12.83h-.99v2.48c0 .23.04.4.12.5.08.1.21.15.38.15s.36-.06.57-.17l.4.75zM476.9 109.33c-.21-.21-.31-.51-.31-.9v-5.58l1.15-.13v5.67c0 .22.09.33.27.33.09 0 .18-.01.27-.04l.24.81c-.24.11-.5.16-.77.16-.36 0-.64-.11-.85-.32zM483.12 107.49h-2.99c.04.46.16.79.36.99s.47.3.81.3c.21 0 .41-.03.59-.1.19-.07.38-.17.59-.32l.48.66c-.53.43-1.12.64-1.76.64-.73 0-1.29-.22-1.68-.67-.39-.44-.59-1.05-.59-1.82 0-.49.08-.92.25-1.31.17-.39.41-.69.73-.91.32-.22.7-.33 1.13-.33.67 0 1.18.21 1.55.63.37.42.55 1.01.55 1.77.01.06 0 .22-.02.47zm-1.11-.8c0-.83-.31-1.25-.93-1.25-.28 0-.5.1-.66.31-.16.21-.25.54-.28.99h1.87v-.05zM486.91 109.29c-.17.12-.36.21-.56.27s-.42.09-.63.09c-.47-.01-.82-.14-1.07-.4-.24-.26-.36-.65-.36-1.16v-2.51h-.75v-.83h.75v-1.05l1.15-.14v1.19h1.11l-.12.83h-.99v2.48c0 .23.04.4.12.5.08.1.21.15.38.15s.36-.06.57-.17l.4.75zM493.01 105.18l-.45.67c-.41-.26-.81-.39-1.2-.39-.23 0-.41.04-.53.13s-.19.2-.19.35c0 .11.03.2.08.27s.15.14.29.2c.14.06.35.13.63.21.52.14.9.32 1.15.55.25.23.37.55.37.95 0 .47-.19.84-.58 1.11-.38.27-.86.4-1.43.4-.39 0-.75-.06-1.07-.18-.32-.12-.6-.29-.83-.5l.58-.65c.41.31.85.47 1.3.47.26 0 .46-.05.62-.15.15-.1.23-.24.23-.42 0-.14-.03-.25-.09-.33-.06-.08-.16-.15-.31-.22a7.75 7.75 0 00-.69-.23c-.49-.13-.84-.32-1.07-.55-.23-.24-.34-.53-.34-.89 0-.26.08-.5.23-.71.15-.21.37-.38.65-.5s.6-.18.96-.18c.64.03 1.2.22 1.69.59zM497.97 107.49h-2.99c.04.46.16.79.36.99s.47.3.81.3c.21 0 .41-.03.59-.1.19-.07.38-.17.59-.32l.48.66c-.53.43-1.12.64-1.76.64-.73 0-1.29-.22-1.68-.67-.39-.44-.59-1.05-.59-1.82 0-.49.08-.92.25-1.31.17-.39.41-.69.73-.91.32-.22.7-.33 1.13-.33.67 0 1.18.21 1.55.63.37.42.55 1.01.55 1.77.01.06 0 .22-.02.47zm-1.11-.8c0-.83-.31-1.25-.93-1.25-.28 0-.5.1-.66.31-.16.21-.25.54-.28.99h1.87v-.05zM444.43 117.27c.29.44.43 1.05.43 1.85 0 .49-.07.93-.22 1.31s-.36.68-.65.9c-.29.22-.62.32-1.01.32-.5 0-.9-.17-1.2-.52v2.22l-1.15.13v-6.72h1.01l.06.58c.19-.24.4-.42.64-.54.24-.12.49-.18.76-.18.6 0 1.05.22 1.33.65zm-.77 1.86c0-.58-.07-1-.22-1.26a.739.739 0 00-.68-.39c-.19 0-.37.06-.54.18s-.31.27-.43.47v2.14c.22.33.51.5.87.5.67 0 1-.55 1-1.64zM448.83 116.69l-.2 1.12c-.14-.04-.28-.05-.42-.05-.28 0-.5.1-.67.3-.16.2-.29.51-.39.92v2.54H446v-4.76h1l.11.94c.11-.34.28-.6.5-.79.22-.18.46-.27.75-.27.16-.01.32.01.47.05zM452.86 117.29c.39.45.59 1.06.59 1.84 0 .5-.09.94-.27 1.32-.18.38-.44.68-.77.89-.34.21-.74.31-1.2.31-.7 0-1.25-.22-1.65-.67-.4-.45-.59-1.06-.59-1.85 0-.5.09-.94.27-1.31.18-.38.44-.67.78-.88s.74-.32 1.2-.32c.7 0 1.25.22 1.64.67zm-2.68 1.84c0 .56.09.98.26 1.25s.43.4.77.4.6-.13.77-.4c.17-.27.26-.68.26-1.24 0-.56-.09-.97-.26-1.24s-.42-.4-.76-.4c-.69-.01-1.04.54-1.04 1.63zM458.54 114.84v6.67h-1.02l-.08-.6c-.15.23-.34.41-.57.54-.23.13-.49.2-.79.2-.58 0-1.03-.22-1.34-.67s-.47-1.06-.47-1.84c0-.49.08-.92.23-1.3.16-.38.38-.68.67-.9s.63-.32 1.01-.32c.46 0 .85.17 1.2.51v-2.41l1.16.12zm-1.6 5.79c.16-.1.3-.25.44-.46v-2.18c-.14-.17-.28-.29-.42-.38s-.3-.13-.49-.13c-.31 0-.55.14-.72.41-.18.27-.27.69-.27 1.24 0 .59.08 1.01.23 1.26.16.25.38.38.68.38.22 0 .4-.04.55-.14zM460.19 121.33c-.21-.21-.31-.51-.31-.9v-5.58l1.15-.13v5.67c0 .22.09.33.27.33.09 0 .18-.01.27-.04l.24.81c-.24.11-.5.16-.77.16-.36 0-.64-.11-.85-.32zM466.12 117.29c.39.45.59 1.06.59 1.84 0 .5-.09.94-.27 1.32-.18.38-.44.68-.77.89-.34.21-.74.31-1.2.31-.7 0-1.25-.22-1.65-.67-.4-.45-.59-1.06-.59-1.85 0-.5.09-.94.27-1.31.18-.38.44-.67.78-.88s.74-.32 1.2-.32c.7 0 1.25.22 1.64.67zm-2.68 1.84c0 .56.09.98.26 1.25s.43.4.77.4.6-.13.77-.4c.17-.27.26-.68.26-1.24 0-.56-.09-.97-.26-1.24s-.42-.4-.76-.4c-.69-.01-1.04.54-1.04 1.63zM471.6 121.51h-1l-.06-.67c-.17.27-.38.47-.62.6s-.52.2-.84.2c-.43 0-.75-.13-.99-.39-.23-.26-.35-.62-.35-1.08v-3.42h1.15v3.28c0 .27.05.46.14.58.09.11.24.17.45.17.37 0 .69-.22.96-.67v-3.35h1.15v4.75zM476.08 116.75v.83l-2.3 3.03h2.35l-.12.9h-3.55v-.83l2.31-3.03h-2.12v-.9h3.43zm-.59-2.44l.44.5-1.25 1.12h-.72l-1.25-1.12.44-.5 1.17.79 1.17-.79zM478.12 114.54c.13.13.2.3.2.5s-.07.36-.2.5a.74.74 0 01-.53.2c-.21 0-.38-.07-.52-.2s-.2-.3-.2-.5.07-.37.2-.5.31-.2.52-.2c.22 0 .39.07.53.2zm.05 2.21v4.76h-1.15v-4.76h1.15zM479.83 121.33c-.21-.21-.31-.51-.31-.9v-5.58l1.15-.13v5.67c0 .22.09.33.27.33.09 0 .18-.01.27-.04l.24.81c-.24.11-.5.16-.77.16-.36 0-.65-.11-.85-.32zM487.56 116.75v.83l-2.3 3.03h2.35l-.12.9h-3.55v-.83l2.31-3.03h-2.12v-.9h3.43zm-.58-2.44l.44.5-1.25 1.12h-.72l-1.25-1.12.44-.5 1.17.79 1.17-.79zM489.6 114.54c.13.13.2.3.2.5s-.07.36-.2.5a.74.74 0 01-.53.2c-.21 0-.38-.07-.52-.2s-.2-.3-.2-.5.07-.37.2-.5.31-.2.52-.2c.22 0 .39.07.53.2zm.06 2.21v4.76h-1.15v-4.76h1.15zM494.87 116.75l-1.55 4.76h-1.38l-1.57-4.76h1.25l1.02 3.83 1.04-3.83h1.19zM499.11 117.29c.39.45.59 1.06.59 1.84 0 .5-.09.94-.27 1.32-.18.38-.44.68-.77.89-.34.21-.74.31-1.2.31-.7 0-1.25-.22-1.65-.67-.4-.45-.59-1.06-.59-1.85 0-.5.09-.94.27-1.31.18-.38.44-.67.78-.88s.74-.32 1.2-.32c.7 0 1.25.22 1.64.67zm-2.67 1.84c0 .56.09.98.26 1.25s.43.4.77.4.6-.13.77-.4c.17-.27.26-.68.26-1.24 0-.56-.09-.97-.26-1.24s-.42-.4-.76-.4c-.7-.01-1.04.54-1.04 1.63zM503.51 121.29c-.17.12-.36.21-.56.27s-.42.09-.63.09c-.47-.01-.82-.14-1.07-.4-.24-.26-.36-.65-.36-1.16v-2.51h-.75v-.83h.75v-1.05l1.15-.13v1.19h1.11l-.12.83h-.99v2.48c0 .23.04.4.12.5.08.1.21.15.38.15s.36-.06.57-.17l.4.74zM446.6 129.01c.23.26.34.61.34 1.06v3.45h-1.15v-3.27c0-.51-.17-.77-.52-.77-.19 0-.35.06-.48.18-.14.12-.27.3-.42.54v3.31h-1.15v-3.27c0-.51-.17-.77-.52-.77-.19 0-.36.06-.49.18-.14.12-.27.3-.42.54v3.31h-1.15v-4.76h1l.09.62c.36-.5.82-.76 1.38-.76.28 0 .51.07.72.21.2.14.35.34.44.59.19-.26.4-.46.63-.59.23-.14.5-.21.8-.21.37.02.67.15.9.41zM452.09 133.51h-1l-.06-.67c-.17.27-.38.47-.62.6s-.52.2-.84.2c-.43 0-.75-.13-.99-.39-.23-.26-.35-.62-.35-1.08v-3.42h1.15v3.28c0 .27.05.46.14.58.09.11.24.17.45.17.37 0 .69-.22.96-.67v-3.35h1.15v4.75zM456.57 128.75v.83l-2.3 3.03h2.35l-.12.9h-3.55v-.83l2.31-3.03h-2.12v-.9h3.43zm-.58-2.44l.44.5-1.25 1.12h-.72l-1.25-1.12.44-.5 1.17.79 1.17-.79zM461.24 133.51h-1l-.06-.67c-.17.27-.38.47-.62.6s-.52.2-.84.2c-.43 0-.75-.13-.99-.39-.23-.26-.35-.62-.35-1.08v-3.42h1.15v3.28c0 .27.05.46.14.58.09.11.24.17.45.17.37 0 .69-.22.96-.67v-3.35h1.15v4.75zm-1.1-7.36c.21.21.31.46.31.77 0 .3-.11.55-.32.76s-.49.32-.82.32c-.34 0-.62-.11-.83-.32-.21-.21-.32-.46-.32-.76 0-.31.11-.56.32-.77.21-.21.49-.31.83-.31.34 0 .62.1.83.31zm-1.15.41c-.08.08-.12.2-.12.35 0 .15.04.27.12.35.08.08.19.12.32.12s.24-.04.31-.12c.08-.08.12-.2.12-.35 0-.15-.04-.27-.12-.35a.422.422 0 00-.31-.13c-.14.01-.25.05-.32.13zM468.46 129.29c.39.45.59 1.06.59 1.84 0 .5-.09.94-.27 1.32-.18.38-.44.68-.77.89-.34.21-.74.31-1.2.31-.7 0-1.25-.22-1.65-.67-.4-.45-.59-1.06-.59-1.85 0-.5.09-.94.27-1.31.18-.38.44-.67.78-.88s.74-.32 1.2-.32c.7 0 1.25.22 1.64.67zm-2.68 1.84c0 .56.09.98.26 1.25s.43.4.77.4.6-.13.77-.4c.17-.27.26-.68.26-1.24 0-.56-.09-.97-.26-1.24s-.42-.4-.76-.4c-.69-.01-1.04.54-1.04 1.63zM475.87 128.16c.37.54.55 1.32.55 2.33 0 1.02-.18 1.8-.55 2.34s-.91.81-1.62.81c-.71 0-1.25-.27-1.62-.81s-.55-1.32-.55-2.34c0-1.01.18-1.79.55-2.33.37-.54.91-.81 1.62-.81.72 0 1.26.27 1.62.81zm-2.36.58c-.16.34-.23.93-.23 1.75 0 .83.08 1.42.23 1.76.16.35.4.52.75.52.34 0 .59-.17.75-.52.16-.34.23-.93.23-1.77 0-.83-.08-1.41-.23-1.75-.16-.34-.4-.51-.75-.51-.34 0-.59.17-.75.52zM478.44 132.4c.14.14.21.31.21.52 0 .11-.02.23-.05.35-.04.12-.1.27-.18.46l-.58 1.33h-.7l.37-1.55a.697.697 0 01-.31-.6c0-.2.07-.38.21-.51.14-.14.31-.21.51-.21s.38.07.52.21zM482.25 127.55c.29.14.51.32.66.56.15.23.22.49.22.77 0 .37-.1.67-.31.91s-.5.41-.86.51c.4.04.73.18.99.43s.39.6.39 1.04c0 .35-.09.66-.27.94-.18.28-.43.51-.76.67-.33.17-.72.25-1.17.25-.83 0-1.48-.29-1.96-.87l.64-.61c.2.2.4.35.6.45.2.09.42.14.66.14.32 0 .58-.09.78-.27.19-.18.29-.43.29-.74 0-.35-.09-.6-.27-.75-.18-.15-.45-.22-.81-.22h-.48l.13-.82h.32c.29 0 .53-.08.71-.24.18-.16.27-.39.27-.67 0-.25-.08-.44-.24-.58-.16-.14-.38-.21-.65-.21-.23 0-.45.04-.64.13s-.38.22-.58.4l-.58-.64c.55-.52 1.18-.77 1.9-.77.38-.01.73.06 1.02.19zM489.48 128.69l-.2 1.12c-.14-.04-.28-.05-.42-.05-.28 0-.5.1-.67.3-.16.2-.29.51-.39.92v2.54h-1.15v-4.76h1l.11.94c.11-.34.28-.6.5-.79.22-.18.46-.27.75-.27.16-.01.32.01.47.05zM493.51 129.29c.39.45.59 1.06.59 1.84 0 .5-.09.94-.27 1.32-.18.38-.44.68-.77.89-.34.21-.74.31-1.2.31-.7 0-1.25-.22-1.65-.67-.4-.45-.59-1.06-.59-1.85 0-.5.09-.94.27-1.31.18-.38.44-.67.78-.88s.74-.32 1.2-.32c.7 0 1.25.22 1.64.67zm-2.67 1.84c0 .56.09.98.26 1.25s.43.4.77.4.6-.13.77-.4c.17-.27.26-.68.26-1.24 0-.56-.09-.97-.26-1.24s-.42-.4-.76-.4c-.7-.01-1.04.54-1.04 1.63zM496.34 126.72v6.79h-1.15v-6.67l1.15-.12zm2.85 2.03l-1.58 2.1 1.74 2.66h-1.32l-1.64-2.6 1.59-2.16h1.21zM503.73 133.51h-1l-.06-.67c-.17.27-.38.47-.62.6s-.52.2-.84.2c-.43 0-.75-.13-.99-.39-.23-.26-.35-.62-.35-1.08v-3.42h1.15v3.28c0 .27.05.46.14.58.09.11.24.17.45.17.37 0 .69-.22.96-.67v-3.35h1.15v4.75zM506.02 132.4c.14.14.21.31.21.52 0 .11-.02.23-.05.35-.04.12-.1.27-.18.46l-.58 1.33h-.7l.37-1.55a.697.697 0 01-.31-.6c0-.2.07-.38.21-.51.14-.14.31-.21.51-.21s.37.07.52.21zM444.44 145.51h-1l-.06-.67c-.17.27-.38.47-.62.6s-.52.2-.84.2c-.43 0-.75-.13-.99-.39-.23-.26-.35-.62-.35-1.08v-3.42h1.15v3.28c0 .27.05.46.14.58.09.11.24.17.45.17.37 0 .69-.22.96-.67v-3.35h1.15v4.75zM451.17 140.75v.83l-2.3 3.03h2.35l-.12.9h-3.55v-.83l2.31-3.03h-2.12v-.9h3.43zm-.58-2.44l.44.5-1.25 1.12h-.72l-1.25-1.12.44-.5 1.17.79 1.17-.79zM455.93 143.49h-2.99c.04.46.16.79.36.99s.47.3.81.3c.21 0 .41-.03.59-.1.19-.07.38-.17.59-.32l.48.66c-.53.43-1.12.64-1.76.64-.73 0-1.29-.22-1.68-.67-.39-.44-.59-1.05-.59-1.82 0-.49.08-.92.25-1.31.17-.39.41-.69.73-.91.32-.22.7-.33 1.13-.33.67 0 1.18.21 1.55.63.37.42.55 1.01.55 1.77 0 .06-.01.22-.02.47zm-1.12-.8c0-.83-.31-1.25-.93-1.25-.28 0-.5.1-.66.31-.16.21-.25.54-.28.99h1.87v-.05zM460.52 141c.24.25.36.61.36 1.07v3.45h-1.15v-3.27c0-.28-.05-.48-.15-.59-.1-.11-.24-.17-.44-.17s-.38.06-.54.18c-.16.12-.31.3-.46.54v3.31h-1.15v-4.76h1l.09.62c.39-.5.87-.76 1.45-.76.42 0 .75.12.99.38zM468.05 141.29c.39.45.59 1.06.59 1.84 0 .5-.09.94-.27 1.32-.18.38-.44.68-.77.89-.34.21-.74.31-1.2.31-.7 0-1.25-.22-1.65-.67-.4-.45-.59-1.06-.59-1.85 0-.5.09-.94.27-1.31.18-.38.44-.67.78-.88s.74-.32 1.2-.32c.7 0 1.25.22 1.64.67zm-2.67 1.84c0 .56.09.98.26 1.25s.43.4.77.4.6-.13.77-.4c.17-.27.26-.68.26-1.24 0-.56-.09-.97-.26-1.24s-.42-.4-.76-.4c-.7-.01-1.04.54-1.04 1.63zM474.48 139.46v6.06h-1.13v-4.9l-1.35.82-.5-.77 1.97-1.21h1.01zM476.93 144.4c.14.14.21.31.21.52 0 .11-.02.23-.05.35-.04.12-.1.27-.18.46l-.58 1.33h-.7l.37-1.55a.697.697 0 01-.31-.6c0-.2.07-.38.21-.51.14-.14.31-.21.51-.21s.38.07.52.21zM481.22 141.71c.26.15.47.38.62.67.15.3.23.65.23 1.07 0 .42-.09.8-.26 1.13-.17.33-.42.59-.73.78-.31.19-.67.28-1.08.28-.74 0-1.29-.26-1.65-.78-.36-.52-.54-1.24-.54-2.15 0-.67.1-1.26.3-1.77.2-.51.49-.9.86-1.18.38-.28.81-.42 1.32-.42.5 0 .94.13 1.32.39l-.43.71a1.73 1.73 0 00-.87-.24c-.38 0-.69.17-.92.52-.23.35-.36.82-.39 1.43.37-.44.82-.67 1.36-.67.31 0 .6.08.86.23zm-.55 2.73c.15-.24.23-.56.23-.97 0-.41-.07-.71-.21-.89-.14-.18-.35-.27-.62-.27-.2 0-.4.06-.58.17s-.35.26-.49.45c.01.65.09 1.13.25 1.42.15.29.4.44.74.44.3 0 .53-.12.68-.35zM488.12 140.69l-.2 1.12c-.14-.04-.28-.05-.42-.05-.28 0-.5.1-.67.3-.16.2-.29.51-.39.92v2.54h-1.15v-4.76h1l.11.94c.11-.34.28-.6.5-.79.22-.18.46-.27.75-.27.17-.01.33.01.47.05zM492.16 141.29c.39.45.59 1.06.59 1.84 0 .5-.09.94-.27 1.32-.18.38-.44.68-.77.89-.34.21-.74.31-1.2.31-.7 0-1.25-.22-1.65-.67-.4-.45-.59-1.06-.59-1.85 0-.5.09-.94.27-1.31.18-.38.44-.67.78-.88s.74-.32 1.2-.32c.69 0 1.24.22 1.64.67zm-2.68 1.84c0 .56.09.98.26 1.25s.43.4.77.4.6-.13.77-.4c.17-.27.26-.68.26-1.24 0-.56-.09-.97-.26-1.24s-.42-.4-.76-.4c-.7-.01-1.04.54-1.04 1.63zM494.98 138.72v6.79h-1.15v-6.67l1.15-.12zm2.85 2.03l-1.58 2.1 1.74 2.66h-1.32l-1.64-2.6 1.59-2.16h1.21zM502.37 145.51h-1l-.06-.67c-.17.27-.38.47-.62.6s-.52.2-.84.2c-.43 0-.75-.13-.99-.39-.23-.26-.35-.62-.35-1.08v-3.42h1.15v3.28c0 .27.05.46.14.58.09.11.24.17.45.17.37 0 .69-.22.96-.67v-3.35h1.15v4.75zM504.65 144.4c.14.14.22.31.22.52 0 .2-.07.37-.22.51-.14.14-.32.22-.52.22s-.37-.07-.51-.22a.71.71 0 01-.21-.51.717.717 0 01.72-.73c.2 0 .38.07.52.21zM444.25 163.79c.42.32.63.8.63 1.44 0 .68-.22 1.18-.66 1.51-.44.33-1.02.5-1.75.5h-.78v2.28h-.85v-6.2h1.63c.77-.01 1.36.15 1.78.47zm-.67 2.48c.26-.19.39-.54.39-1.04 0-.44-.13-.76-.39-.96-.26-.2-.63-.3-1.12-.3h-.77v2.58h.75c.5.01.88-.09 1.14-.28zM448.38 164.72l-.15.81c-.14-.04-.28-.05-.41-.05-.29 0-.53.11-.71.32s-.32.55-.42 1.01v2.71h-.83v-4.74h.71l.08.96c.13-.35.3-.62.51-.8.22-.18.47-.27.76-.27.16-.01.31.01.46.05zM452.38 165.33c.37.44.55 1.05.55 1.81 0 .49-.08.93-.25 1.3-.17.38-.41.67-.73.87-.32.21-.7.31-1.13.31-.67 0-1.19-.22-1.56-.67-.37-.44-.56-1.05-.56-1.81 0-.49.08-.92.25-1.3.17-.37.41-.67.73-.87.32-.21.7-.31 1.14-.31.68 0 1.2.22 1.56.67zm-2.78 1.82c0 1.21.41 1.81 1.22 1.81s1.22-.61 1.22-1.82-.41-1.81-1.21-1.81c-.82 0-1.23.6-1.23 1.82zM458.85 164.8c.26.09.5.22.74.41l-.35.52c-.22-.14-.42-.24-.62-.31s-.4-.1-.62-.1c-.27 0-.48.06-.64.17a.51.51 0 00-.23.45c0 .19.07.34.22.45s.41.21.8.32c.53.13.92.31 1.18.54.26.23.39.54.39.94 0 .47-.18.83-.54 1.07-.36.25-.81.37-1.33.37-.72 0-1.32-.21-1.79-.62l.44-.5c.4.31.85.46 1.33.46.31 0 .56-.06.74-.19.18-.13.27-.3.27-.53 0-.16-.03-.29-.1-.39a.786.786 0 00-.34-.26c-.16-.08-.4-.15-.71-.24-.5-.13-.87-.31-1.09-.53-.23-.22-.34-.5-.34-.85 0-.25.07-.47.22-.67.15-.2.35-.36.61-.47.26-.11.55-.17.88-.17.33-.01.62.04.88.13zM463.42 164.72l-.15.81c-.14-.04-.28-.05-.41-.05-.29 0-.53.11-.71.32s-.32.55-.42 1.01v2.71h-.83v-4.74h.71l.08.96c.13-.35.3-.62.51-.8.22-.18.47-.27.76-.27.16-.01.32.01.46.05zM467.43 165.33c.37.44.55 1.05.55 1.81 0 .49-.08.93-.25 1.3-.17.38-.41.67-.73.87-.32.21-.7.31-1.13.31-.67 0-1.19-.22-1.56-.67-.37-.44-.56-1.05-.56-1.81 0-.49.08-.92.25-1.3.17-.37.41-.67.73-.87.32-.21.7-.31 1.14-.31.68 0 1.19.22 1.56.67zm-2.78 1.82c0 1.21.41 1.81 1.22 1.81s1.22-.61 1.22-1.82-.41-1.81-1.21-1.81c-.82 0-1.23.6-1.23 1.82zM472.8 164.77l-1.61 4.74h-1l-1.64-4.74h.9l1.24 4 1.23-4h.88zM476.99 165.05c.24.26.36.61.36 1.06v3.4h-.83v-3.29c0-.34-.06-.57-.19-.71s-.31-.21-.56-.21c-.25 0-.47.07-.67.22-.19.14-.37.35-.54.62v3.37h-.83v-4.74h.71l.07.7c.17-.25.38-.45.63-.59.25-.14.52-.22.82-.22.45 0 .79.13 1.03.39zM482.31 168.83c.07.09.17.16.3.21l-.19.58c-.25-.03-.44-.1-.59-.21-.15-.11-.26-.28-.33-.5-.32.47-.79.71-1.41.71-.47 0-.84-.13-1.11-.4-.27-.26-.41-.61-.41-1.04 0-.5.18-.89.54-1.16.36-.27.88-.4 1.54-.4h.73v-.35c0-.34-.08-.58-.24-.72s-.41-.22-.75-.22c-.35 0-.77.08-1.28.25l-.21-.6c.59-.22 1.13-.32 1.64-.32.56 0 .98.14 1.25.41.28.27.41.66.41 1.17v2.17c.01.19.05.33.11.42zm-1.08-6.53l.37.69-1.91.77-.25-.44 1.79-1.02zm.16 5.96v-1.09h-.62c-.88 0-1.31.32-1.31.97 0 .28.07.5.21.64.14.14.34.22.61.22.47 0 .84-.25 1.11-.74zM487.16 165.05c.24.26.36.61.36 1.06v3.4h-.83v-3.29c0-.34-.06-.57-.19-.71s-.31-.21-.56-.21c-.25 0-.47.07-.67.22-.19.14-.37.35-.54.62v3.37h-.83v-4.74h.71l.07.7c.17-.25.38-.45.63-.59.25-.14.52-.22.82-.22.45 0 .79.13 1.03.39zM490.31 162.3l.37.69-1.91.77-.25-.44 1.79-1.02zm-.29 2.47v4.74h-.83v-4.74h.83zM492.39 168.55c.12.12.18.27.18.44 0 .19-.05.4-.16.64l-.6 1.38h-.59l.36-1.49a.548.548 0 01-.18-.22.735.735 0 01-.07-.3c0-.17.06-.32.18-.44s.27-.18.44-.18c.17-.01.32.05.44.17zM446.49 177.05c.23.26.35.61.35 1.06v3.4h-.83v-3.29c0-.61-.22-.92-.67-.92-.23 0-.43.07-.59.2-.16.14-.34.35-.52.63v3.37h-.83v-3.29c0-.61-.22-.92-.67-.92-.24 0-.44.07-.6.21-.16.14-.33.35-.51.63v3.37h-.83v-4.74h.71l.07.69c.35-.53.81-.8 1.37-.8.29 0 .54.07.75.22s.36.36.45.63c.19-.28.39-.49.62-.63.23-.15.49-.22.8-.22.39.01.7.14.93.4zM452.07 179.42h-3.02c.04.52.17.91.4 1.15s.52.37.88.37c.23 0 .44-.03.63-.1s.39-.17.6-.32l.36.5c-.5.4-1.06.59-1.66.59-.66 0-1.17-.22-1.54-.65s-.55-1.03-.55-1.78c0-.49.08-.93.24-1.31.16-.38.39-.68.68-.9.3-.22.65-.32 1.05-.32.63 0 1.11.21 1.45.62.34.41.5.99.5 1.72 0 .15 0 .29-.02.43zm-.8-.66c0-.47-.09-.83-.28-1.07s-.46-.37-.84-.37c-.68 0-1.05.5-1.11 1.49h2.22v-.05zM456.13 176.77v.63l-2.48 3.42h2.5l-.1.69h-3.34v-.62l2.47-3.42h-2.26v-.7h3.21zM458.11 174.65c.11.11.16.24.16.41s-.05.3-.16.4c-.11.11-.25.16-.42.16-.17 0-.31-.05-.41-.16-.11-.1-.16-.24-.16-.4s.05-.3.16-.41c.11-.11.25-.16.41-.16.17 0 .32.06.42.16zm0 2.12v4.74h-.83v-4.74h.83zM464.74 176.72l-.15.81c-.14-.04-.28-.05-.41-.05-.29 0-.53.11-.71.32s-.32.55-.42 1.01v2.71h-.83v-4.74h.71l.08.96c.13-.35.3-.62.51-.8.22-.18.47-.27.76-.27.16-.01.31.01.46.05zM468.75 177.33c.37.44.55 1.05.55 1.81 0 .49-.08.93-.25 1.3-.17.38-.41.67-.73.87-.32.21-.7.31-1.13.31-.67 0-1.19-.22-1.56-.67-.37-.44-.56-1.05-.56-1.81 0-.49.08-.92.25-1.3.17-.37.41-.67.73-.87.32-.21.7-.31 1.14-.31.67 0 1.19.22 1.56.67zm-2.79 1.82c0 1.21.41 1.81 1.22 1.81s1.22-.61 1.22-1.82-.41-1.81-1.21-1.81c-.82 0-1.23.6-1.23 1.82zM471.5 174.76v6.75h-.83v-6.65l.83-.1zm2.72 2.01l-1.75 2.1 1.94 2.65h-.99l-1.88-2.59 1.75-2.15h.93zM477.18 181.54c-.19.55-.45.99-.78 1.31-.33.32-.81.51-1.43.58l-.09-.65c.31-.05.56-.13.75-.23.19-.1.33-.23.45-.39.11-.16.21-.37.31-.64h-.28l-1.59-4.74h.88l1.27 4.14 1.24-4.14h.85l-1.58 4.76zM484.14 175.49v6.02h-.83v-5.14l-1.4.85-.36-.58 1.86-1.15h.73zM488.91 176.03c.33.42.5.99.5 1.71 0 .82-.11 1.48-.33 1.99s-.56.9-1.02 1.2-1.07.56-1.85.79l-.19-.62c.8-.23 1.42-.54 1.85-.93.43-.39.66-.91.69-1.56-.14.22-.32.39-.56.52-.23.13-.5.2-.79.2-.31 0-.59-.08-.85-.24-.25-.16-.45-.38-.6-.67s-.22-.63-.22-1.02c0-.41.09-.76.26-1.06.17-.3.41-.53.7-.69.29-.16.61-.24.97-.24.63-.01 1.11.2 1.44.62zm-.34 1.9c.01-.67-.07-1.14-.25-1.44s-.46-.44-.84-.44c-.35 0-.63.12-.82.35-.19.23-.29.57-.29 1 0 .42.09.74.27.95.18.21.42.32.73.32.48.01.87-.24 1.2-.74zM492.66 175.62a1.56 1.56 0 01.85 1.43c0 .37-.08.72-.25 1.05s-.42.7-.76 1.09c-.34.39-.86.93-1.56 1.63h2.71l-.1.69H490v-.66c.8-.83 1.37-1.44 1.71-1.83.34-.39.58-.72.72-1.01.14-.29.22-.6.22-.93 0-.31-.09-.56-.27-.73-.18-.18-.42-.27-.72-.27-.25 0-.46.05-.65.15-.19.1-.38.27-.59.5l-.54-.43c.25-.31.52-.53.82-.68.3-.15.64-.23 1.01-.23.36.01.68.08.95.23zM496.8 175.49v6.02h-.83v-5.14l-1.4.85-.36-.58 1.86-1.15h.73zM504.32 180.83c.07.09.17.16.3.21l-.19.58c-.25-.03-.44-.1-.59-.21-.15-.11-.26-.28-.33-.5-.32.47-.79.71-1.41.71-.47 0-.84-.13-1.11-.4-.27-.26-.41-.61-.41-1.04 0-.5.18-.89.54-1.16.36-.27.88-.4 1.54-.4h.73v-.35c0-.34-.08-.58-.24-.72s-.41-.22-.75-.22c-.35 0-.77.08-1.28.25l-.21-.6c.59-.22 1.13-.32 1.64-.32.56 0 .98.14 1.25.41.28.27.41.66.41 1.17v2.17c.01.19.04.33.11.42zm-.93-.57v-1.09h-.62c-.88 0-1.31.32-1.31.97 0 .28.07.5.21.64.14.14.34.22.61.22.47 0 .84-.25 1.11-.74zM508.7 176.77v.63l-2.48 3.42h2.5l-.1.69h-3.34v-.62l2.47-3.42h-2.26v-.7h3.21zm-.52-2.32l.35.41-1.21 1.02h-.55l-1.22-1.02.36-.41 1.13.76 1.14-.76zM514.29 175.49v6.02h-.83v-5.14l-1.4.85-.36-.58 1.86-1.15h.73zM519.06 176.03c.33.42.5.99.5 1.71 0 .82-.11 1.48-.33 1.99s-.56.9-1.02 1.2-1.07.56-1.85.79l-.19-.62c.8-.23 1.42-.54 1.85-.93.43-.39.66-.91.69-1.56-.14.22-.32.39-.56.52-.23.13-.5.2-.79.2-.31 0-.59-.08-.85-.24-.25-.16-.45-.38-.6-.67s-.22-.63-.22-1.02c0-.41.09-.76.26-1.06.17-.3.41-.53.7-.69.29-.16.61-.24.97-.24.63-.01 1.11.2 1.44.62zm-.34 1.9c.01-.67-.07-1.14-.25-1.44s-.46-.44-.84-.44c-.35 0-.63.12-.82.35-.19.23-.29.57-.29 1 0 .42.09.74.27.95.18.21.42.32.73.32.48.01.87-.24 1.2-.74zM524.43 179.37v.66h-.78v1.49h-.8v-1.49h-2.57v-.59l1.81-4.03.69.29-1.63 3.68h1.71l.07-1.62h.72v1.62h.78zM528.3 176.03c.33.42.5.99.5 1.71 0 .82-.11 1.48-.33 1.99s-.56.9-1.02 1.2-1.07.56-1.85.79l-.19-.62c.8-.23 1.42-.54 1.85-.93.43-.39.66-.91.69-1.56-.14.22-.32.39-.56.52-.23.13-.5.2-.79.2-.31 0-.59-.08-.85-.24-.25-.16-.45-.38-.6-.67s-.22-.63-.22-1.02c0-.41.09-.76.26-1.06.17-.3.41-.53.7-.69.29-.16.61-.24.97-.24.63-.01 1.11.2 1.44.62zm-.34 1.9c.01-.67-.07-1.14-.25-1.44s-.46-.44-.84-.44c-.35 0-.63.12-.82.35-.19.23-.29.57-.29 1 0 .42.09.74.27.95.18.21.42.32.73.32.48.01.88-.24 1.2-.74zM443.19 193.3c-.31.22-.67.32-1.06.32-.4 0-.72-.12-.94-.35-.23-.23-.34-.57-.34-1v-2.86h-.83v-.64h.83v-1.07l.83-.1v1.17h1.12l-.09.64h-1.04v2.83c0 .25.04.42.13.54.09.11.23.17.44.17.19 0 .4-.06.63-.19l.32.54zM447.25 189.33c.37.44.55 1.05.55 1.81 0 .49-.08.93-.25 1.3-.17.38-.41.67-.73.87-.32.21-.7.31-1.13.31-.67 0-1.19-.22-1.56-.67-.37-.44-.56-1.05-.56-1.81 0-.49.08-.92.25-1.3.17-.37.41-.67.73-.87.32-.21.7-.31 1.14-.31.67 0 1.19.22 1.56.67zm-2.79 1.82c0 1.21.41 1.81 1.22 1.81s1.22-.61 1.22-1.82-.41-1.81-1.21-1.81c-.82 0-1.23.6-1.23 1.82zM455.01 189.31c.32.43.48 1.04.48 1.82 0 .49-.08.93-.23 1.3s-.37.67-.65.87a1.6 1.6 0 01-.99.31c-.5 0-.92-.21-1.26-.63l-.08.52h-.73v-6.65l.83-.1v2.6c.34-.47.79-.7 1.34-.7.54.01.97.23 1.29.66zm-.73 3.21c.21-.3.31-.76.31-1.38 0-.64-.1-1.11-.29-1.39s-.46-.43-.82-.43c-.42 0-.79.25-1.11.74v2.27c.13.2.28.35.46.47s.38.17.58.17c.38-.01.67-.15.87-.45zM458.76 193.54c-.19.55-.45.99-.78 1.31-.33.32-.81.51-1.43.58l-.09-.65c.31-.05.56-.13.75-.23.19-.1.33-.23.45-.39.11-.16.21-.37.31-.64h-.28l-1.59-4.74h.88l1.27 4.14 1.24-4.14h.85l-1.58 4.76zM461.51 193.35c-.18-.18-.27-.44-.27-.77v-5.72l.83-.1v5.8c0 .13.02.23.07.29.04.06.12.09.23.09.11 0 .22-.02.31-.05l.22.58c-.2.11-.42.16-.66.16-.31-.01-.55-.1-.73-.28zM467.22 189.33c.37.44.55 1.05.55 1.81 0 .49-.08.93-.25 1.3-.17.38-.41.67-.73.87-.32.21-.7.31-1.13.31-.67 0-1.19-.22-1.56-.67-.37-.44-.56-1.05-.56-1.81 0-.49.08-.92.25-1.3.17-.37.41-.67.73-.87.32-.21.7-.31 1.14-.31.67 0 1.19.22 1.56.67zm-2.79 1.82c0 1.21.41 1.81 1.22 1.81s1.22-.61 1.22-1.82-.41-1.81-1.21-1.81c-.82 0-1.23.6-1.23 1.82zM473.58 187.49v6.02h-.83v-5.14l-1.4.85-.36-.58 1.86-1.15h.73zM479.08 191.37v.66h-.78v1.49h-.8v-1.49h-2.57v-.59l1.81-4.03.69.29-1.63 3.68h1.71l.07-1.62h.72v1.62h.78zM485.89 192.83c.07.09.17.16.3.21l-.19.58c-.25-.03-.44-.1-.59-.21-.15-.11-.26-.28-.33-.5-.32.47-.79.71-1.41.71-.47 0-.84-.13-1.11-.4-.27-.26-.41-.61-.41-1.04 0-.5.18-.89.54-1.16.36-.27.88-.4 1.54-.4h.73v-.35c0-.34-.08-.58-.24-.72s-.41-.22-.75-.22c-.35 0-.77.08-1.28.25l-.21-.6c.59-.22 1.13-.32 1.64-.32.56 0 .98.14 1.25.41.28.27.41.66.41 1.17v2.17c.01.19.04.33.11.42zm-.93-.57v-1.09h-.62c-.88 0-1.31.32-1.31.97 0 .28.07.5.21.64.14.14.34.22.61.22.47 0 .84-.25 1.11-.74zM491.93 187.49v6.02h-.83v-5.14l-1.4.85-.36-.58 1.86-1.15h.73zM496.52 189.77c.25.14.45.36.6.65s.23.64.23 1.05c0 .43-.09.8-.26 1.13-.17.33-.4.58-.69.76s-.61.27-.97.27c-.7 0-1.21-.26-1.54-.78-.32-.52-.49-1.24-.49-2.16 0-.65.09-1.23.27-1.72s.45-.88.79-1.15c.34-.27.75-.41 1.21-.41.46 0 .87.12 1.24.37l-.32.55c-.28-.17-.59-.26-.93-.26-.43 0-.77.21-1.03.62s-.39.97-.41 1.67c.37-.53.85-.79 1.45-.79.32-.02.6.05.85.2zm-.28 2.8c.19-.26.28-.62.28-1.07 0-.86-.32-1.29-.97-1.29-.26 0-.51.07-.73.22-.22.15-.41.35-.57.61.02.66.12 1.15.31 1.46.19.31.48.47.88.47.34-.01.61-.14.8-.4zM501.17 193.35c-.18-.18-.27-.44-.27-.77v-5.72l.83-.1v5.8c0 .13.02.23.07.29.04.06.12.09.23.09.11 0 .22-.02.31-.05l.22.58c-.2.11-.42.16-.66.16-.31-.01-.55-.1-.73-.28zM507.11 191.42h-3.02c.04.52.17.91.4 1.15s.52.37.88.37c.23 0 .44-.03.63-.1s.39-.17.6-.32l.36.5c-.5.4-1.06.59-1.66.59-.66 0-1.17-.22-1.54-.65s-.55-1.03-.55-1.78c0-.49.08-.93.24-1.31.16-.38.39-.68.68-.9.3-.22.65-.32 1.05-.32.63 0 1.11.21 1.45.62.34.41.5.99.5 1.72 0 .15-.01.29-.02.43zm-.8-.66c0-.47-.09-.83-.28-1.07s-.46-.37-.84-.37c-.68 0-1.05.5-1.11 1.49h2.22v-.05zM510.84 193.3c-.31.22-.67.32-1.06.32-.4 0-.72-.12-.94-.35-.23-.23-.34-.57-.34-1v-2.86h-.83v-.64h.83v-1.07l.83-.1v1.17h1.12l-.09.64h-1.04v2.83c0 .25.04.42.13.54.09.11.23.17.44.17.19 0 .4-.06.63-.19l.32.54zM512.4 192.55a.644.644 0 010 .89c-.12.13-.27.18-.45.18-.17 0-.32-.06-.44-.18s-.18-.27-.18-.45c0-.17.06-.32.18-.44s.27-.18.44-.18c.18 0 .33.06.45.18z"/></g></g></svg>