<svg xmlns="http://www.w3.org/2000/svg" viewBox="0 0 620 294.79"><style>.st5{enable-background:new}.st15{fill:#666}.st20{fill:#4d4d4d}.st23{fill:#595959}.st27{fill:none;stroke:#4d4d4d;stroke-width:.5;stroke-linecap:round;stroke-miterlimit:10}.st31{fill:#4363d8}.st32{fill:#c86092}.st34,.st36,.st37{fill:none;stroke-linecap:round;stroke-miterlimit:10}.st34{stroke:#4d4d4d;stroke-width:.5439}.st36,.st37{stroke-linejoin:round}.st36{stroke:#d9d9d9;stroke-width:2.1757;stroke-dasharray:1.0878,3.2635,1.0878,0}.st37{opacity:.3;stroke:#666;stroke-width:.272}.st40{fill:#b3b3b3}.st119{fill:none;stroke:gray;stroke-width:.5439;stroke-miterlimit:10}</style><g id="_x33_.2_x5F_zlom_x5F_umrtnosti_x5F_des"><g class="st5"><path d="M17.71 45.29h-.64l-.34-3.61c-.14-1.4-.23-2.49-.29-3.28l-1.89 6h-.63l-1.96-6c-.04.71-.11 1.65-.22 2.83l-.03.43-.33 3.63h-.63l.71-7.54h.91l1.87 5.86 1.8-5.86h.92l.75 7.54zM23.4 40.2c.43.52.64 1.26.64 2.19 0 .93-.22 1.67-.65 2.21-.44.54-1.03.81-1.79.81s-1.36-.27-1.79-.8-.64-1.26-.64-2.19c0-.61.1-1.14.3-1.59.2-.45.48-.8.85-1.05.37-.24.8-.36 1.3-.36.76 0 1.35.26 1.78.78zm-3.08.38c-.31.42-.46 1.03-.46 1.84 0 .8.15 1.41.46 1.83.3.42.73.63 1.29.63s.99-.21 1.3-.63c.31-.42.47-1.03.47-1.85 0-.8-.15-1.41-.46-1.82-.3-.41-.74-.62-1.3-.62s-.99.21-1.3.62zM28.95 39.54v.5l-3.21 4.71h3.19l-.07.55h-3.87v-.5l3.21-4.71h-2.95v-.55h3.7zM31.13 37.12v8.17h-.64v-8.1l.64-.07zm3.22 2.42l-2.42 2.57 2.67 3.18h-.77l-2.64-3.15 2.42-2.61h.74zM39.55 40.2c.43.52.64 1.26.64 2.19 0 .93-.22 1.67-.65 2.21-.44.54-1.03.81-1.79.81s-1.36-.27-1.79-.8c-.43-.53-.64-1.26-.64-2.19 0-.61.1-1.14.3-1.59.2-.45.48-.8.85-1.05.37-.24.8-.36 1.3-.36.76 0 1.35.26 1.78.78zm-3.08.38c-.31.42-.47 1.03-.47 1.84 0 .8.15 1.41.46 1.83.3.42.74.63 1.29.63s.99-.21 1.3-.63c.31-.42.47-1.03.47-1.85 0-.8-.15-1.41-.46-1.82-.3-.41-.74-.62-1.3-.62-.55 0-.99.21-1.29.62zM45.88 39.54l-1.99 5.75h-.79l-2.06-5.75h.7l1.75 5.19 1.7-5.19h.69zM50.76 44.67c.08.13.2.23.37.3l-.14.45c-.26-.05-.47-.15-.61-.3s-.24-.37-.28-.67c-.4.65-.99.97-1.79.97-.55 0-.98-.16-1.3-.47-.32-.31-.48-.73-.48-1.25 0-.59.21-1.05.63-1.38.42-.32 1.01-.48 1.75-.48h1.1v-.56c0-.46-.1-.8-.31-1.01s-.55-.31-1.02-.31c-.44 0-.96.11-1.56.33l-.17-.48c.65-.26 1.25-.39 1.82-.39 1.25 0 1.88.61 1.88 1.83v2.77c0 .3.03.51.11.65zm-.75-.79V42.3h-1c-.59 0-1.03.11-1.34.34-.31.23-.46.57-.46 1.02 0 .4.11.7.32.91.21.21.51.32.89.32.68.01 1.21-.33 1.59-1.01zm-.44-7.19l.29.57-2.15.93-.21-.37 2.07-1.13zM62.74 39.89c.27.32.4.74.4 1.29v4.11h-.64v-4.03c0-.45-.09-.79-.26-1.01-.17-.22-.41-.32-.72-.32-.32 0-.61.1-.87.31s-.51.5-.75.88v4.17h-.64v-4.03c0-.45-.09-.79-.26-1.01-.17-.22-.41-.32-.72-.32-.33 0-.62.1-.88.31s-.5.5-.74.88v4.17h-.64v-5.75h.55l.06.98c.22-.34.48-.61.78-.81s.63-.29.99-.29c.37 0 .67.1.92.3s.42.48.51.84c.23-.36.49-.64.8-.84s.64-.3 1.01-.3c.47 0 .83.16 1.1.47zM68.22 39.48l-.12.6c-.16-.04-.33-.07-.51-.07-.39 0-.7.14-.94.42-.24.28-.44.72-.6 1.33v3.52h-.64v-5.75h.55l.06 1.29c.15-.48.36-.83.63-1.06.27-.23.6-.35 1-.35.23.01.42.03.57.07zM72.14 45.05c-.37.24-.77.36-1.21.36-.44 0-.78-.13-1.03-.39s-.37-.64-.37-1.13v-3.84h-.97v-.52h.97v-1.38l.64-.08v1.45h1.49l-.08.52h-1.41v3.81c0 .34.07.59.21.75.14.16.35.25.64.25.29 0 .59-.08.88-.25l.24.45zM77.06 39.54l-1.99 5.75h-.79l-2.06-5.75h.7l1.75 5.19 1.71-5.19h.68zM79.05 37.14c.09.09.13.2.13.33s-.04.24-.13.33c-.09.09-.21.13-.35.13a.445.445 0 01-.47-.46.445.445 0 01.47-.46c.14 0 .26.04.35.13zm-.02 2.4v5.75h-.64v-5.75h.64zM84.21 39.56c.26.09.51.24.75.45l-.32.42c-.19-.15-.39-.27-.59-.34-.2-.07-.43-.11-.69-.11-.54 0-.97.21-1.3.63-.32.42-.48 1.04-.48 1.84s.16 1.4.48 1.8c.32.4.75.6 1.29.6.26 0 .49-.04.7-.12.21-.08.42-.2.63-.36l.31.43c-.48.41-1.03.62-1.65.62-.49 0-.92-.12-1.29-.35-.37-.23-.65-.57-.85-1.02-.2-.44-.3-.97-.3-1.59 0-.61.1-1.14.3-1.6.2-.46.49-.81.85-1.06.37-.25.79-.37 1.28-.37.33-.01.62.03.88.13zM90.39 42.66h-3.84c.04.75.21 1.3.53 1.67.32.36.74.54 1.26.54.3 0 .57-.05.8-.14.23-.09.48-.24.75-.43l.3.41c-.29.23-.58.41-.88.53s-.63.18-1 .18c-.76 0-1.36-.26-1.79-.78-.43-.52-.65-1.24-.65-2.17 0-.61.09-1.14.28-1.6.19-.46.45-.81.8-1.07s.75-.38 1.22-.38c.73 0 1.29.25 1.67.74.38.49.57 1.18.57 2.04 0 .16-.01.32-.02.46zm-.61-.66c0-.65-.13-1.15-.4-1.51-.27-.36-.67-.54-1.19-.54-.48 0-.86.18-1.15.55-.29.37-.46.92-.48 1.67h3.23V42zM97.68 39.58c.29.11.58.27.86.48l-.3.42a3.06 3.06 0 00-.75-.4c-.23-.08-.49-.13-.77-.13-.38 0-.69.09-.92.26-.24.18-.35.41-.35.7 0 .28.1.5.3.65s.57.3 1.09.44c.65.17 1.12.38 1.41.64.29.26.43.62.43 1.1 0 .51-.2.92-.59 1.22-.4.3-.89.45-1.49.45-.44 0-.82-.06-1.15-.19a3.17 3.17 0 01-.9-.54l.35-.41c.26.21.52.36.79.46s.57.15.91.15c.42 0 .77-.1 1.03-.29.26-.19.39-.46.39-.81 0-.23-.04-.43-.13-.57-.09-.15-.24-.27-.45-.38-.21-.11-.52-.21-.93-.32-.61-.16-1.05-.36-1.31-.6-.27-.24-.4-.56-.4-.97 0-.29.08-.54.25-.78.17-.23.4-.41.69-.54.29-.13.61-.19.97-.19s.68.04.97.15zM104.46 42.66h-3.84c.04.75.21 1.3.53 1.67.32.36.74.54 1.26.54.3 0 .57-.05.8-.14.23-.09.48-.24.75-.43l.3.41c-.29.23-.58.41-.88.53-.3.12-.63.18-1 .18-.76 0-1.36-.26-1.79-.78-.43-.52-.65-1.24-.65-2.17 0-.61.09-1.14.28-1.6.19-.46.46-.81.8-1.07.35-.25.75-.38 1.22-.38.73 0 1.29.25 1.67.74.38.49.57 1.18.57 2.04 0 .16-.01.32-.02.46zm-.61-.66c0-.65-.13-1.15-.4-1.51-.27-.36-.67-.54-1.19-.54-.48 0-.86.18-1.16.55s-.46.92-.48 1.67h3.23V42zM113.2 39.54l-1.99 5.75h-.79l-2.06-5.75h.7l1.75 5.19 1.71-5.19h.68zM120.41 39.48l-.12.6c-.16-.04-.33-.07-.51-.07-.39 0-.7.14-.94.42-.24.28-.44.72-.6 1.33v3.52h-.64v-5.75h.55l.05 1.29c.15-.48.36-.83.63-1.06.27-.23.6-.35 1-.35.23.01.42.03.58.07zM125.14 40.2c.43.52.64 1.26.64 2.19 0 .93-.22 1.67-.65 2.21-.44.54-1.03.81-1.79.81s-1.36-.27-1.79-.8-.64-1.26-.64-2.19c0-.61.1-1.14.3-1.59s.48-.8.85-1.05c.37-.24.8-.36 1.3-.36.76 0 1.35.26 1.78.78zm-3.08.38c-.31.42-.46 1.03-.46 1.84 0 .8.15 1.41.46 1.83.3.42.73.63 1.29.63s.99-.21 1.3-.63.47-1.03.47-1.85c0-.8-.15-1.41-.46-1.82-.3-.41-.74-.62-1.3-.62s-1 .21-1.3.62zM130.5 39.56c.26.09.51.24.75.45l-.32.42c-.19-.15-.39-.27-.59-.34-.2-.07-.43-.11-.69-.11-.54 0-.98.21-1.3.63-.32.42-.48 1.04-.48 1.84s.16 1.4.48 1.8c.32.4.75.6 1.29.6.26 0 .49-.04.7-.12.21-.08.42-.2.63-.36l.31.43c-.48.41-1.03.62-1.65.62-.49 0-.92-.12-1.29-.35-.37-.23-.65-.57-.85-1.02-.2-.44-.3-.97-.3-1.59 0-.61.1-1.14.3-1.6.2-.46.49-.81.85-1.06.37-.25.79-.37 1.28-.37.33-.01.63.03.88.13zM136.69 42.66h-3.84c.04.75.21 1.3.53 1.67.32.36.74.54 1.26.54.3 0 .57-.05.8-.14.23-.09.48-.24.75-.43l.3.41c-.29.23-.58.41-.88.53s-.63.18-1 .18c-.76 0-1.36-.26-1.79-.78-.43-.52-.65-1.24-.65-2.17 0-.61.09-1.14.28-1.6.19-.46.46-.81.8-1.07.35-.25.75-.38 1.22-.38.73 0 1.29.25 1.67.74.38.49.57 1.18.57 2.04 0 .16-.01.32-.02.46zm-.61-.66c0-.65-.13-1.15-.4-1.51-.27-.36-.67-.54-1.19-.54-.48 0-.86.18-1.16.55-.29.37-.46.92-.48 1.67h3.23V42zM143.64 37.98v7.31H143v-6.61l-1.8 1.12-.3-.47 2.19-1.35h.55zM149.44 38.63c.37.52.56 1.24.56 2.17 0 .95-.14 1.72-.41 2.32-.27.6-.67 1.08-1.19 1.44s-1.22.67-2.07.94l-.17-.5c1.01-.31 1.78-.73 2.32-1.26.53-.54.82-1.27.87-2.2-.22.32-.48.57-.79.75-.31.18-.65.27-1.01.27a1.862 1.862 0 01-1.73-1.08c-.17-.35-.26-.76-.26-1.23 0-.48.1-.91.29-1.27.19-.36.46-.64.8-.84.34-.19.71-.29 1.13-.29.73.01 1.29.26 1.66.78zm-.86 3.13c.28-.19.53-.46.76-.82.01-.87-.11-1.52-.36-1.93-.25-.41-.65-.62-1.19-.62-.49 0-.88.16-1.16.49-.28.33-.42.79-.42 1.39 0 .56.13 1 .39 1.31.26.31.61.46 1.05.46.35 0 .66-.1.93-.28zM155.32 41.12c.37.39.55.96.55 1.71 0 .52-.09.98-.28 1.37-.19.39-.44.69-.77.9-.33.21-.7.31-1.11.31-.81 0-1.4-.31-1.77-.93-.37-.62-.56-1.45-.56-2.49 0-.84.11-1.58.32-2.2.21-.62.52-1.1.91-1.44.4-.33.87-.5 1.41-.5.49 0 .95.14 1.36.43l-.28.44c-.35-.23-.72-.34-1.1-.34-.59 0-1.07.3-1.42.89-.35.59-.54 1.37-.56 2.33.49-.72 1.12-1.08 1.88-1.08.59.01 1.05.21 1.42.6zm-.49 3.21c.26-.37.39-.86.39-1.48 0-.61-.13-1.06-.38-1.35s-.59-.44-1.01-.44c-.37 0-.7.11-1.01.32s-.57.51-.79.89c.02.85.17 1.5.43 1.95.26.45.68.67 1.24.67.5-.01.87-.19 1.13-.56zM161.38 42.22c.26.3.39.7.39 1.17 0 .4-.1.76-.3 1.06-.2.3-.48.54-.85.71-.36.17-.78.25-1.25.25s-.88-.08-1.24-.25c-.36-.17-.63-.41-.83-.71s-.29-.65-.29-1.05c0-.94.52-1.62 1.57-2.03-.43-.2-.75-.43-.95-.69-.2-.26-.3-.59-.3-1 0-.37.1-.7.29-.98s.44-.49.76-.63.65-.21 1.01-.21.7.07 1.01.21c.32.14.57.34.76.62.19.27.29.6.29.99 0 .38-.11.71-.32.98-.21.28-.55.53-1 .76.57.23.98.49 1.25.8zm-.75 2.26c.31-.26.47-.62.47-1.09 0-.29-.06-.54-.17-.73-.11-.19-.28-.36-.51-.51-.23-.14-.55-.29-.96-.45l-.37-.14c-.49.19-.85.43-1.07.73s-.33.67-.33 1.11c0 .47.15.83.46 1.09.31.26.72.39 1.23.39.52-.01.94-.14 1.25-.4zm-2.36-3.95c.2.21.55.4 1.05.58l.34.12c.41-.22.71-.45.89-.68.18-.23.27-.52.27-.86 0-.42-.13-.74-.39-.98-.26-.23-.61-.35-1.04-.35-.42 0-.76.12-1.02.35-.26.23-.4.56-.4.98 0 .35.1.63.3.84zM170.53 40.19c.35.52.52 1.25.52 2.19 0 .92-.19 1.66-.57 2.21-.38.55-.92.82-1.62.82-.34 0-.66-.07-.93-.21-.28-.14-.51-.34-.71-.58v2.84l-.64.09v-8.01h.55l.06.84c.21-.3.47-.54.78-.7.3-.17.64-.25 1-.25.69-.01 1.21.25 1.56.76zm-.58 4.06c.28-.42.42-1.04.42-1.86 0-1.63-.51-2.44-1.53-2.44-.34 0-.64.09-.9.26-.25.18-.49.42-.72.73V44c.38.59.89.88 1.52.88.53-.01.93-.21 1.21-.63zM175.7 36.83l.29.33-1.42 1.17h-.4l-1.43-1.17.29-.33 1.34.92 1.33-.92zm.08 2.65l-.12.6c-.16-.04-.33-.07-.51-.07-.39 0-.7.14-.94.42-.24.28-.44.72-.6 1.33v3.52h-.64v-5.75h.55l.05 1.29c.15-.48.37-.83.63-1.06s.6-.35 1-.35c.23.01.42.03.58.07zM180.81 42.66h-3.84c.04.75.21 1.3.53 1.67.32.36.74.54 1.26.54.3 0 .57-.05.8-.14.23-.09.48-.24.75-.43l.3.41c-.29.23-.58.41-.88.53-.3.12-.63.18-1 .18-.76 0-1.36-.26-1.79-.78-.43-.52-.65-1.24-.65-2.17 0-.61.09-1.14.28-1.6.19-.46.46-.81.8-1.07.35-.25.75-.38 1.22-.38.73 0 1.29.25 1.67.74.38.49.57 1.18.57 2.04 0 .16-.01.32-.02.46zm-.61-.66c0-.65-.13-1.15-.4-1.51-.27-.36-.67-.54-1.19-.54-.48 0-.86.18-1.16.55s-.46.92-.48 1.67h3.23V42zM185.03 39.58c.29.11.58.27.86.48l-.3.42a3.06 3.06 0 00-.75-.4c-.23-.08-.49-.13-.77-.13-.38 0-.69.09-.92.26-.24.18-.35.41-.35.7 0 .28.1.5.3.65.2.15.57.3 1.09.44.65.17 1.12.38 1.41.64s.43.62.43 1.1c0 .51-.2.92-.59 1.22-.4.3-.89.45-1.49.45-.44 0-.83-.06-1.15-.19a3.17 3.17 0 01-.9-.54l.35-.41c.26.21.52.36.79.46.27.1.57.15.91.15.42 0 .77-.1 1.03-.29s.39-.46.39-.81c0-.23-.04-.43-.13-.57-.09-.15-.24-.27-.45-.38-.21-.11-.52-.21-.93-.32-.61-.16-1.05-.36-1.31-.6-.27-.24-.4-.56-.4-.97 0-.29.08-.54.25-.78.17-.23.4-.41.69-.54.29-.13.61-.19.97-.19s.68.04.97.15zM191.78 45.29h-.55l-.03-1.02c-.46.76-1.08 1.14-1.88 1.14-.52 0-.92-.15-1.21-.46s-.42-.74-.42-1.3v-4.11h.64v4.05c0 .45.09.78.28.98.19.21.47.31.85.31.67 0 1.23-.39 1.68-1.18v-4.17h.64v5.76zM197.85 39.88c.27.31.41.74.41 1.3v4.11h-.64v-4.03c0-.46-.09-.8-.28-1.01-.18-.21-.46-.32-.81-.32-.37 0-.69.1-.97.3-.28.2-.55.5-.81.89v4.17h-.64v-5.75h.55l.07.98c.24-.34.51-.61.84-.81.32-.19.69-.29 1.09-.29.52 0 .92.15 1.19.46zM204.58 45.29h-.55l-.03-1.02c-.46.76-1.08 1.14-1.88 1.14-.52 0-.92-.15-1.21-.46s-.42-.74-.42-1.3v-4.11h.64v4.05c0 .45.09.78.28.98s.47.31.85.31c.67 0 1.23-.39 1.68-1.18v-4.17h.64v5.76zM207.12 45.14c-.18-.18-.27-.45-.27-.81V37.2l.64-.08v7.18c0 .37.15.56.46.56.15 0 .29-.03.4-.08l.18.47c-.21.1-.42.15-.66.15-.32.01-.57-.08-.75-.26zM213.67 44.67c.08.13.2.23.37.3l-.14.45c-.26-.05-.47-.15-.61-.3s-.24-.37-.28-.67c-.4.65-.99.97-1.79.97-.55 0-.98-.16-1.3-.47-.32-.31-.48-.73-.48-1.25 0-.59.21-1.05.63-1.38.42-.32 1.01-.48 1.75-.48h1.1v-.56c0-.46-.1-.8-.31-1.01-.21-.21-.55-.31-1.02-.31-.44 0-.96.11-1.56.33l-.16-.48c.64-.26 1.25-.39 1.81-.39 1.25 0 1.88.61 1.88 1.83v2.77c-.01.3.03.51.11.65zm-.75-.79V42.3h-1c-.59 0-1.03.11-1.34.34-.31.23-.46.57-.46 1.02 0 .4.11.7.32.91.21.21.51.32.89.32.68.01 1.21-.33 1.59-1.01zM222.04 39.54v.5l-3.21 4.71h3.19l-.07.55h-3.87v-.5l3.21-4.71h-2.95v-.55h3.7zM230.39 39.88c.28.31.41.74.41 1.3v4.11h-.64v-4.03c0-.46-.09-.8-.27-1.01-.18-.21-.46-.32-.81-.32-.37 0-.69.1-.97.3-.28.2-.55.5-.81.89v4.17h-.64v-5.75h.55l.07.98c.23-.34.51-.61.84-.81s.69-.29 1.09-.29c.5 0 .9.15 1.18.46zM237.14 42.66h-3.84c.04.75.21 1.3.53 1.67.32.36.74.54 1.26.54.3 0 .57-.05.8-.14.23-.09.48-.24.75-.43l.3.41c-.29.23-.58.41-.88.53s-.63.18-1 .18c-.76 0-1.36-.26-1.79-.78-.43-.52-.65-1.24-.65-2.17 0-.61.09-1.14.28-1.6.19-.46.45-.81.8-1.07.35-.25.75-.38 1.22-.38.73 0 1.29.25 1.67.74.38.49.57 1.18.57 2.04 0 .16-.01.32-.02.46zm-.61-.66c0-.65-.13-1.15-.4-1.51-.27-.36-.67-.54-1.19-.54-.48 0-.86.18-1.16.55-.29.37-.45.92-.48 1.67h3.23V42zM245.68 39.89c.27.32.4.74.4 1.29v4.11h-.64v-4.03c0-.45-.09-.79-.26-1.01-.17-.22-.41-.32-.72-.32-.32 0-.61.1-.87.31s-.51.5-.75.88v4.17h-.64v-4.03c0-.45-.09-.79-.26-1.01-.17-.22-.41-.32-.72-.32-.33 0-.62.1-.88.31s-.5.5-.74.88v4.17h-.64v-5.75h.55l.05.98c.22-.34.48-.61.78-.81s.63-.29.99-.29c.37 0 .67.1.92.3s.42.48.51.84c.23-.36.49-.64.8-.84.3-.2.64-.3 1.01-.3.48 0 .84.16 1.11.47zM252.12 40.2c.43.52.64 1.26.64 2.19 0 .93-.22 1.67-.65 2.21-.44.54-1.03.81-1.79.81s-1.36-.27-1.79-.8-.64-1.26-.64-2.19c0-.61.1-1.14.3-1.59s.48-.8.85-1.05c.37-.24.8-.36 1.3-.36.76 0 1.36.26 1.78.78zm-3.08.38c-.31.42-.46 1.03-.46 1.84 0 .8.15 1.41.46 1.83.3.42.74.63 1.29.63.56 0 .99-.21 1.3-.63s.47-1.03.47-1.85c0-.8-.15-1.41-.46-1.82-.3-.41-.74-.62-1.3-.62s-.99.21-1.3.62zM257.49 39.56c.26.09.51.24.75.45l-.32.42c-.19-.15-.39-.27-.59-.34-.2-.07-.43-.11-.69-.11-.54 0-.98.21-1.3.63-.32.42-.48 1.04-.48 1.84s.16 1.4.48 1.8.75.6 1.29.6c.26 0 .49-.04.7-.12.21-.08.42-.2.63-.36l.31.43c-.48.41-1.03.62-1.65.62-.49 0-.92-.12-1.29-.35-.37-.23-.65-.57-.85-1.02-.2-.44-.3-.97-.3-1.59 0-.61.1-1.14.3-1.6.2-.46.49-.81.85-1.06.37-.25.79-.37 1.28-.37.33-.01.62.03.88.13zM260.94 36.69l.29.57-2.15.93-.21-.37 2.07-1.13zm-.51 2.85v5.75h-.64v-5.75h.64zM269.57 39.88c.28.31.41.74.41 1.3v4.11h-.64v-4.03c0-.46-.09-.8-.27-1.01-.18-.21-.46-.32-.81-.32-.37 0-.69.1-.97.3-.28.2-.55.5-.81.89v4.17h-.64v-5.75h.55l.07.98c.23-.34.51-.61.84-.81s.69-.29 1.09-.29c.51 0 .9.15 1.18.46zM276.32 42.66h-3.84c.04.75.21 1.3.53 1.67.32.36.74.54 1.26.54.3 0 .57-.05.8-.14.23-.09.48-.24.75-.43l.3.41c-.29.23-.58.41-.88.53s-.63.18-1 .18c-.76 0-1.36-.26-1.79-.78-.43-.52-.65-1.24-.65-2.17 0-.61.09-1.14.28-1.6.19-.46.45-.81.8-1.07.35-.25.75-.38 1.22-.38.73 0 1.29.25 1.67.74.38.49.57 1.18.57 2.04 0 .16-.01.32-.02.46zm-.61-.66c0-.65-.13-1.15-.4-1.51-.27-.36-.67-.54-1.19-.54-.48 0-.86.18-1.16.55-.29.37-.45.92-.48 1.67h3.23V42zM280.96 39.48l-.12.6c-.16-.04-.33-.07-.51-.07-.39 0-.7.14-.94.42-.24.28-.44.72-.6 1.33v3.52h-.64v-5.75h.55l.05 1.29c.15-.48.37-.83.63-1.06s.6-.35 1-.35c.24.01.43.03.58.07zM286.1 39.54l-1.99 5.75h-.79l-2.06-5.75h.7l1.75 5.19 1.71-5.19h.68zM291.17 40.2c.43.52.64 1.26.64 2.19 0 .93-.22 1.67-.65 2.21s-1.03.81-1.79.81-1.36-.27-1.79-.8c-.43-.53-.64-1.26-.64-2.19 0-.61.1-1.14.3-1.59.2-.45.48-.8.85-1.05.37-.24.8-.36 1.3-.36.76 0 1.35.26 1.78.78zm-3.08.38c-.31.42-.46 1.03-.46 1.84 0 .8.15 1.41.46 1.83.3.42.74.63 1.29.63.56 0 .99-.21 1.3-.63.31-.42.47-1.03.47-1.85 0-.8-.15-1.41-.46-1.82-.3-.41-.74-.62-1.3-.62s-.99.21-1.3.62zM297.5 39.54l-1.99 5.75h-.79l-2.06-5.75h.7l1.75 5.19 1.71-5.19h.68zM302.87 42.66h-3.84c.04.75.21 1.3.53 1.67.32.36.74.54 1.26.54.3 0 .57-.05.8-.14.23-.09.48-.24.75-.43l.3.41c-.29.23-.58.41-.88.53s-.63.18-1 .18c-.76 0-1.36-.26-1.79-.78-.43-.52-.65-1.24-.65-2.17 0-.61.09-1.14.28-1.6.19-.46.46-.81.8-1.07.35-.25.75-.38 1.21-.38.73 0 1.29.25 1.67.74.38.49.57 1.18.57 2.04.01.16.01.32-.01.46zm-.6-.66c0-.65-.13-1.15-.4-1.51-.27-.36-.67-.54-1.19-.54-.48 0-.86.18-1.16.55s-.46.92-.48 1.67h3.23V42zm-.76-5.31l.29.57-2.15.93-.21-.37 2.07-1.13zM310.16 39.58c.29.11.58.27.86.48l-.3.42a3.06 3.06 0 00-.75-.4c-.23-.08-.49-.13-.77-.13-.38 0-.69.09-.92.26-.23.18-.35.41-.35.7 0 .28.1.5.3.65.2.15.57.3 1.09.44.65.17 1.12.38 1.41.64.29.26.43.62.43 1.1 0 .51-.2.92-.59 1.22-.4.3-.89.45-1.48.45-.44 0-.83-.06-1.16-.19a3.17 3.17 0 01-.9-.54l.35-.41c.26.21.52.36.79.46s.57.15.91.15c.42 0 .77-.1 1.03-.29.26-.19.39-.46.39-.81 0-.23-.04-.43-.13-.57-.09-.15-.24-.27-.45-.38-.21-.11-.52-.21-.94-.32-.61-.16-1.05-.36-1.31-.6-.27-.24-.4-.56-.4-.97 0-.29.08-.54.25-.78s.4-.41.69-.54c.29-.13.61-.19.97-.19s.69.04.98.15zM316.65 40.2c.43.52.64 1.26.64 2.19 0 .93-.22 1.67-.65 2.21-.44.54-1.03.81-1.79.81s-1.36-.27-1.79-.8c-.43-.53-.64-1.26-.64-2.19 0-.61.1-1.14.3-1.59.2-.45.48-.8.85-1.05.37-.24.8-.36 1.3-.36.75 0 1.35.26 1.78.78zm-3.09.38c-.31.42-.46 1.03-.46 1.84 0 .8.15 1.41.46 1.83.3.42.73.63 1.29.63s.99-.21 1.3-.63c.31-.42.47-1.03.47-1.85 0-.8-.15-1.41-.46-1.82-.3-.41-.74-.62-1.3-.62s-.99.21-1.3.62zM323.2 45.29h-.55l-.03-1.02c-.46.76-1.08 1.14-1.88 1.14-.52 0-.92-.15-1.2-.46s-.42-.74-.42-1.3v-4.11h.64v4.05c0 .45.09.78.28.98.19.21.47.31.85.31.67 0 1.23-.39 1.68-1.18v-4.17h.64v5.76zM327.92 39.58c.29.11.58.27.86.48l-.3.42a3.06 3.06 0 00-.75-.4 2.39 2.39 0 00-.77-.13c-.38 0-.69.09-.92.26-.23.18-.35.41-.35.7 0 .28.1.5.3.65.2.15.57.3 1.09.44.65.17 1.12.38 1.41.64.29.26.43.62.43 1.1 0 .51-.2.92-.59 1.22-.4.3-.89.45-1.48.45-.44 0-.83-.06-1.16-.19a3.17 3.17 0 01-.9-.54l.35-.41c.26.21.52.36.79.46.27.1.57.15.91.15.42 0 .77-.1 1.03-.29.26-.19.39-.46.39-.81 0-.23-.04-.43-.13-.57-.09-.15-.24-.27-.45-.38-.21-.11-.52-.21-.94-.32-.61-.16-1.05-.36-1.31-.6-.27-.24-.4-.56-.4-.97 0-.29.08-.54.25-.78s.4-.41.69-.54c.29-.13.61-.19.97-.19s.68.04.98.15zM333.25 45.05c-.37.24-.77.36-1.21.36-.44 0-.78-.13-1.03-.39s-.38-.64-.38-1.13v-3.84h-.97v-.52h.97v-1.38l.64-.08v1.45h1.48l-.08.52h-1.41v3.81c0 .34.07.59.21.75.14.16.35.25.64.25.29 0 .59-.08.88-.25l.26.45zM338.01 44.67c.08.13.2.23.37.3l-.14.45c-.26-.05-.47-.15-.61-.3s-.24-.37-.28-.67c-.4.65-.99.97-1.79.97-.55 0-.98-.16-1.3-.47-.32-.31-.48-.73-.48-1.25 0-.59.21-1.05.63-1.38.42-.32 1.01-.48 1.75-.48h1.1v-.56c0-.46-.1-.8-.31-1.01s-.55-.31-1.02-.31c-.44 0-.96.11-1.56.33l-.17-.48c.65-.26 1.25-.39 1.82-.39 1.25 0 1.88.61 1.88 1.83v2.77c0 .3.03.51.11.65zm-.75-.79V42.3h-1c-.59 0-1.03.11-1.34.34-.31.23-.46.57-.46 1.02 0 .4.11.7.32.91.21.21.51.32.89.32.68.01 1.21-.33 1.59-1.01zM343.89 39.54l-1.99 5.75h-.79l-2.06-5.75h.7l1.75 5.19 1.71-5.19h.68zM347.06 45.31c-.15.45-.32.81-.51 1.1-.18.29-.42.52-.72.71-.29.19-.67.32-1.13.41l-.07-.5c.38-.1.68-.21.9-.35.22-.14.39-.31.52-.52s.26-.5.39-.87h-.22l-2-5.75h.69l1.74 5.28 1.71-5.28h.67l-1.97 5.77zM360.14 39.89c.27.32.4.74.4 1.29v4.11h-.64v-4.03c0-.45-.09-.79-.26-1.01-.17-.22-.41-.32-.72-.32-.32 0-.61.1-.87.31s-.51.5-.75.88v4.17h-.64v-4.03c0-.45-.09-.79-.26-1.01-.17-.22-.41-.32-.72-.32-.33 0-.62.1-.88.31s-.5.5-.74.88v4.17h-.64v-5.75h.55l.05.98c.22-.34.48-.61.78-.81.3-.19.63-.29.99-.29.37 0 .67.1.92.3.25.2.42.48.51.84.23-.36.49-.64.8-.84s.64-.3 1.01-.3c.48 0 .85.16 1.11.47zM366.88 42.66h-3.84c.04.75.21 1.3.53 1.67.32.36.74.54 1.26.54.3 0 .57-.05.8-.14.23-.09.48-.24.75-.43l.3.41c-.29.23-.58.41-.88.53s-.63.18-1 .18c-.76 0-1.36-.26-1.79-.78-.43-.52-.65-1.24-.65-2.17 0-.61.09-1.14.28-1.6.19-.46.45-.81.8-1.07s.75-.38 1.22-.38c.73 0 1.29.25 1.67.74.38.49.57 1.18.57 2.04 0 .16-.01.32-.02.46zm-.6-.66c0-.65-.13-1.15-.4-1.51-.27-.36-.67-.54-1.19-.54-.48 0-.86.18-1.15.55-.29.37-.46.92-.48 1.67h3.23V42zM371.75 39.54v.5l-3.21 4.71h3.19l-.07.55h-3.87v-.5l3.21-4.71h-2.95v-.55h3.7zM373.95 37.14c.09.09.13.2.13.33s-.04.24-.13.33c-.09.09-.21.13-.35.13a.445.445 0 01-.47-.46.445.445 0 01.47-.46c.15 0 .27.04.35.13zm-.02 2.4v5.75h-.64v-5.75h.64zM383.1 40.2c.43.52.64 1.26.64 2.19 0 .93-.22 1.67-.65 2.21s-1.03.81-1.79.81-1.36-.27-1.79-.8c-.43-.53-.64-1.26-.64-2.19 0-.61.1-1.14.3-1.59.2-.45.48-.8.85-1.05.37-.24.8-.36 1.3-.36.75 0 1.35.26 1.78.78zm-3.09.38c-.31.42-.46 1.03-.46 1.84 0 .8.15 1.41.46 1.83s.74.63 1.29.63c.56 0 .99-.21 1.3-.63.31-.42.47-1.03.47-1.85 0-.8-.15-1.41-.46-1.82-.3-.41-.74-.62-1.3-.62s-.99.21-1.3.62zM389.53 40.19c.37.51.55 1.25.55 2.2 0 .93-.19 1.67-.58 2.21-.38.54-.92.81-1.61.81-.34 0-.66-.08-.94-.23-.28-.15-.52-.36-.71-.62l-.07.73h-.56v-8.1l.64-.08v3.22c.46-.62 1.03-.92 1.73-.92.66.01 1.18.26 1.55.78zm-.56 4.06c.28-.42.42-1.04.42-1.86 0-1.63-.52-2.44-1.55-2.44-.34 0-.64.09-.89.26s-.48.42-.71.73v3.02c.18.29.4.51.66.68.26.17.54.25.86.25.53-.01.93-.22 1.21-.64zM396.06 42.66h-3.84c.04.75.21 1.3.53 1.67.32.36.74.54 1.26.54.3 0 .57-.05.8-.14.23-.09.48-.24.75-.43l.3.41c-.29.23-.58.41-.88.53s-.63.18-1 .18c-.76 0-1.36-.26-1.79-.78-.43-.52-.65-1.24-.65-2.17 0-.61.09-1.14.28-1.6.19-.46.45-.81.8-1.07.35-.25.75-.38 1.21-.38.73 0 1.29.25 1.67.74.38.49.57 1.18.57 2.04.01.16.01.32-.01.46zm-.6-.66c0-.65-.13-1.15-.4-1.51-.27-.36-.67-.54-1.19-.54-.48 0-.86.18-1.16.55-.29.37-.45.92-.48 1.67h3.23V42zm-.26-5.17l.29.33-1.42 1.17h-.4l-1.43-1.17.29-.33 1.34.92 1.33-.92zM401.63 39.89c.28.31.42.74.42 1.29v4.11h-.64v-4.03c0-.89-.36-1.33-1.09-1.33-.37 0-.69.1-.97.3-.28.2-.55.5-.81.89v4.17h-.64v-8.1l.64-.08v3.38c.51-.72 1.15-1.08 1.9-1.08.51.01.91.16 1.19.48zM408.09 40.2c.43.52.64 1.26.64 2.19 0 .93-.22 1.67-.65 2.21-.44.54-1.03.81-1.79.81s-1.36-.27-1.79-.8-.64-1.26-.64-2.19c0-.61.1-1.14.3-1.59s.48-.8.85-1.05c.37-.24.8-.36 1.3-.36.76 0 1.35.26 1.78.78zm-3.09.38c-.31.42-.46 1.03-.46 1.84 0 .8.15 1.41.46 1.83.3.42.73.63 1.29.63s.99-.21 1.3-.63.47-1.03.47-1.85c0-.8-.15-1.41-.46-1.82-.3-.41-.74-.62-1.3-.62-.55 0-.99.21-1.3.62zM414.42 39.54l-1.99 5.75h-.79l-2.06-5.75h.7l1.75 5.19 1.71-5.19h.68zM419.79 42.66h-3.84c.04.75.21 1.3.53 1.67.32.36.74.54 1.26.54.3 0 .57-.05.8-.14.23-.09.48-.24.75-.43l.3.41c-.29.23-.58.41-.88.53s-.63.18-1 .18c-.76 0-1.36-.26-1.79-.78-.43-.52-.65-1.24-.65-2.17 0-.61.09-1.14.28-1.6.19-.46.46-.81.8-1.07.35-.25.75-.38 1.22-.38.73 0 1.29.25 1.67.74.38.49.57 1.18.57 2.04 0 .16-.01.32-.02.46zm-.61-.66c0-.65-.13-1.15-.4-1.51-.27-.36-.67-.54-1.19-.54-.48 0-.86.18-1.15.55-.29.37-.46.92-.48 1.67h3.23V42zm-.75-5.31l.29.57-2.14.93-.21-.37 2.06-1.13zM428.43 39.88c.28.31.41.74.41 1.3v4.11h-.64v-4.03c0-.46-.09-.8-.28-1.01-.18-.21-.45-.32-.81-.32-.37 0-.69.1-.97.3-.28.2-.55.5-.81.89v4.17h-.64v-5.75h.55l.07.98c.24-.34.51-.61.84-.81.32-.19.69-.29 1.09-.29.52 0 .91.15 1.19.46zM435.18 42.66h-3.84c.04.75.21 1.3.53 1.67.32.36.74.54 1.26.54.3 0 .57-.05.8-.14.23-.09.48-.24.75-.43l.3.41c-.29.23-.58.41-.88.53s-.63.18-1 .18c-.76 0-1.36-.26-1.79-.78-.43-.52-.65-1.24-.65-2.17 0-.61.09-1.14.28-1.6.19-.46.46-.81.8-1.07.35-.25.75-.38 1.22-.38.73 0 1.29.25 1.67.74.38.49.57 1.18.57 2.04 0 .16-.01.32-.02.46zm-.61-.66c0-.65-.13-1.15-.4-1.51-.27-.36-.67-.54-1.19-.54-.48 0-.86.18-1.16.55-.29.37-.46.92-.48 1.67h3.23V42zM443.72 39.89c.27.32.4.74.4 1.29v4.11h-.64v-4.03c0-.45-.09-.79-.26-1.01-.17-.22-.41-.32-.72-.32-.32 0-.61.1-.87.31s-.51.5-.75.88v4.17h-.64v-4.03c0-.45-.09-.79-.26-1.01-.17-.22-.41-.32-.72-.32-.33 0-.62.1-.88.31s-.5.5-.74.88v4.17H437v-5.75h.55l.05.98c.22-.34.48-.61.78-.81.3-.19.63-.29.99-.29.37 0 .67.1.92.3.25.2.42.48.51.84.23-.36.49-.64.8-.84.3-.2.64-.3 1.01-.3.48 0 .84.16 1.11.47zM450.17 40.2c.43.52.64 1.26.64 2.19 0 .93-.22 1.67-.65 2.21s-1.03.81-1.79.81-1.36-.27-1.79-.8c-.43-.53-.64-1.26-.64-2.19 0-.61.1-1.14.3-1.59.2-.45.48-.8.85-1.05.37-.24.8-.36 1.3-.36.75 0 1.35.26 1.78.78zm-3.09.38c-.31.42-.46 1.03-.46 1.84 0 .8.15 1.41.46 1.83s.74.63 1.29.63c.56 0 .99-.21 1.3-.63.31-.42.47-1.03.47-1.85 0-.8-.15-1.41-.46-1.82-.3-.41-.74-.62-1.3-.62s-.99.21-1.3.62zM455.53 39.56c.26.09.51.24.75.45l-.32.42c-.19-.15-.39-.27-.59-.34-.2-.07-.43-.11-.69-.11-.54 0-.98.21-1.3.63s-.48 1.04-.48 1.84.16 1.4.48 1.8c.32.4.75.6 1.29.6.26 0 .49-.04.7-.12.21-.08.42-.2.63-.36l.31.43c-.48.41-1.03.62-1.65.62-.49 0-.92-.12-1.29-.35-.37-.23-.65-.57-.85-1.02-.2-.44-.3-.97-.3-1.59 0-.61.1-1.14.3-1.6.2-.46.49-.81.85-1.06.37-.25.79-.37 1.28-.37.33-.01.62.03.88.13zM458.5 37.14c.09.09.13.2.13.33s-.04.24-.13.33c-.09.09-.21.13-.35.13a.445.445 0 01-.47-.46.445.445 0 01.47-.46c.14 0 .26.04.35.13zm-.02 2.4v5.75h-.64v-5.75h.64zM461.15 44.52c.1.1.15.22.15.37s-.05.28-.15.38c-.1.1-.23.15-.38.15s-.27-.05-.38-.15c-.1-.1-.15-.23-.15-.37 0-.15.05-.27.15-.37.1-.1.23-.15.38-.15.16-.01.29.04.38.14z"/></g><g class="st5"><path d="M16.94 15.54v1.43l-4.47 6.73h4.51l-.2 1.51h-6.47V23.8l4.55-6.79h-4.09v-1.47h6.17zM18.76 24.93c-.32-.33-.48-.8-.48-1.41v-8.68l1.79-.2v8.82c0 .35.14.52.42.52.14 0 .28-.02.42-.07l.38 1.26c-.37.17-.77.25-1.19.25-.58.01-1.02-.16-1.34-.49zM27.98 18.65c.61.7.92 1.65.92 2.86 0 .77-.14 1.46-.42 2.05-.28.59-.68 1.05-1.2 1.38-.52.33-1.14.49-1.86.49-1.09 0-1.95-.35-2.56-1.04s-.92-1.65-.92-2.88c0-.77.14-1.46.42-2.04.28-.59.68-1.05 1.21-1.37s1.15-.49 1.87-.49c1.08-.01 1.93.34 2.54 1.04zm-4.16 2.86c0 .88.13 1.52.4 1.94.27.42.67.62 1.2.62s.93-.21 1.2-.63c.27-.42.4-1.06.4-1.93s-.13-1.51-.4-1.92c-.27-.42-.66-.62-1.18-.62-1.09-.01-1.62.84-1.62 2.54zM39.86 18.21c.35.41.53.95.53 1.65v5.36H38.6v-5.08c0-.79-.27-1.19-.81-1.19-.29 0-.54.09-.75.27s-.43.46-.65.85v5.15H34.6v-5.08c0-.79-.27-1.19-.81-1.19-.3 0-.55.09-.76.27s-.43.46-.65.85v5.15h-1.79v-7.41h1.55l.14.97c.56-.78 1.27-1.18 2.14-1.18.43 0 .8.11 1.11.33.31.22.54.52.68.92.3-.4.63-.71.99-.92s.77-.32 1.24-.32c.59-.01 1.07.2 1.42.6zM51.93 17.81l-2.41 7.41h-2.14l-2.45-7.41h1.95l1.58 5.96 1.62-5.96h1.85zM62.57 22.07h-4.65c.06.72.24 1.23.56 1.54s.74.46 1.26.46c.33 0 .63-.05.92-.16.29-.11.6-.27.92-.5l.74 1.02c-.82.66-1.74.99-2.74.99-1.13 0-2-.35-2.61-1.04-.61-.69-.92-1.63-.92-2.83 0-.76.13-1.44.39-2.04.26-.6.64-1.07 1.13-1.41.5-.34 1.08-.51 1.76-.51 1.04 0 1.84.33 2.41.99.57.66.85 1.57.85 2.75.02.1.01.35-.02.74zm-1.74-1.25c0-1.3-.48-1.95-1.44-1.95-.44 0-.78.16-1.03.48-.25.32-.39.84-.44 1.55h2.91v-.08zM70.09 17.81l-2.41 7.41h-2.14l-2.45-7.41h1.95l1.58 5.96 1.62-5.96h1.85zM72.9 14.38c.21.21.31.47.31.78s-.1.56-.31.77-.48.31-.82.31c-.33 0-.59-.1-.8-.31s-.32-.46-.32-.77.11-.57.32-.78c.21-.21.48-.32.8-.32.33 0 .61.11.82.32zm.09 3.43v7.41H71.2v-7.41h1.79zM81.37 14.84v10.37h-1.58l-.13-.94c-.23.35-.53.63-.89.84-.36.21-.77.31-1.22.31-.91 0-1.6-.35-2.09-1.05-.49-.7-.73-1.65-.73-2.86 0-.76.12-1.43.36-2.02.24-.59.59-1.06 1.04-1.39.45-.34.98-.5 1.58-.5.71 0 1.33.27 1.86.8v-3.75l1.8.19zm-2.48 9c.24-.15.47-.39.69-.72v-3.39c-.21-.26-.43-.46-.65-.59-.22-.13-.47-.2-.76-.2-.48 0-.85.21-1.13.64s-.41 1.07-.41 1.92c0 .91.12 1.57.36 1.97.24.4.6.6 1.06.6.32 0 .6-.08.84-.23zM89.56 22.07h-4.65c.06.72.24 1.23.56 1.54.32.31.74.46 1.26.46.33 0 .63-.05.92-.16.29-.11.6-.27.92-.5l.74 1.02c-.82.66-1.74.99-2.74.99-1.13 0-2-.35-2.61-1.04-.61-.69-.92-1.63-.92-2.83 0-.76.13-1.44.39-2.04.26-.6.64-1.07 1.13-1.41.5-.34 1.08-.51 1.76-.51 1.04 0 1.84.33 2.41.99.57.66.85 1.57.85 2.75.02.1.01.35-.02.74zm-1.73-1.25c0-1.3-.48-1.95-1.44-1.95-.44 0-.78.16-1.03.48-.25.32-.39.84-.44 1.55h2.91v-.08zM96.71 18.2c.37.4.55.95.55 1.66v5.36h-1.79v-5.08c0-.44-.08-.75-.23-.92s-.38-.27-.68-.27c-.31 0-.59.1-.83.29-.25.19-.49.47-.72.83v5.15h-1.79v-7.41h1.55l.14.97c.61-.78 1.36-1.18 2.25-1.18.67 0 1.18.2 1.55.6zM103.64 17.81c.39.14.75.36 1.1.66l-.8 1.08c-.25-.19-.5-.32-.73-.41s-.49-.13-.77-.13c-1.11 0-1.67.84-1.67 2.53 0 .86.14 1.48.43 1.85s.7.57 1.23.57c.26 0 .5-.04.72-.13s.48-.22.78-.41l.8 1.13c-.7.57-1.5.85-2.39.85-.71 0-1.33-.16-1.85-.47-.52-.31-.92-.76-1.2-1.34-.28-.58-.42-1.26-.42-2.04s.14-1.48.42-2.08c.28-.6.68-1.07 1.2-1.4.52-.33 1.13-.5 1.83-.5.5.03.93.1 1.32.24zM107.74 14.38c.21.21.32.47.32.78s-.11.56-.32.77-.48.31-.82.31c-.33 0-.59-.1-.8-.31s-.32-.46-.32-.77.11-.57.32-.78c.21-.21.48-.32.8-.32.34 0 .61.11.82.32zm.09 3.43v7.41h-1.79v-7.41h1.79zM119.41 25.22h-1.55l-.1-1.04c-.27.42-.59.73-.96.94-.37.21-.8.31-1.31.31-.66 0-1.17-.2-1.53-.61-.36-.41-.54-.97-.54-1.69v-5.32h1.79v5.1c0 .42.07.72.22.9.15.18.38.27.69.27.57 0 1.07-.35 1.5-1.05v-5.21h1.79v7.4zm-1.93-11.48l.73 1.4-3.16 1.26-.5-.91 2.93-1.75zM130.85 18.21c.36.41.53.95.53 1.65v5.36h-1.79v-5.08c0-.79-.27-1.19-.81-1.19-.29 0-.54.09-.75.27s-.43.46-.65.85v5.15h-1.79v-5.08c0-.79-.27-1.19-.81-1.19-.3 0-.55.09-.76.27s-.43.46-.65.85v5.15h-1.79v-7.41h1.55l.14.97c.56-.78 1.27-1.18 2.14-1.18.43 0 .8.11 1.11.33.31.22.54.52.68.92.3-.4.63-.71.99-.92s.77-.32 1.24-.32c.59-.01 1.06.2 1.42.6zM137.86 17.71l-.31 1.74c-.22-.06-.44-.08-.66-.08-.44 0-.78.16-1.04.47-.25.31-.45.79-.6 1.43v3.95h-1.79v-7.41h1.55l.17 1.46c.18-.53.43-.94.77-1.22s.72-.43 1.16-.43c.28 0 .53.03.75.09zM143.22 24.87c-.26.19-.55.33-.88.42-.32.09-.65.14-.99.14-.73-.01-1.28-.22-1.66-.62-.38-.41-.57-1.01-.57-1.8V19.1h-1.16v-1.29h1.16v-1.64l1.79-.21v1.85h1.72l-.18 1.29h-1.54v3.86c0 .36.06.63.19.78.13.16.32.24.59.24s.56-.09.88-.27l.65 1.16zM149.73 18.2c.37.4.55.95.55 1.66v5.36h-1.79v-5.08c0-.44-.08-.75-.23-.92s-.38-.27-.68-.27c-.31 0-.59.1-.83.29-.25.19-.49.47-.72.83v5.15h-1.79v-7.41h1.55l.14.97c.61-.78 1.36-1.18 2.25-1.18.66 0 1.18.2 1.55.6zM157.95 18.65c.61.7.92 1.65.92 2.86 0 .77-.14 1.46-.42 2.05-.28.59-.68 1.05-1.2 1.38-.52.33-1.14.49-1.86.49-1.09 0-1.95-.35-2.56-1.04-.62-.7-.92-1.65-.92-2.88 0-.77.14-1.46.42-2.04s.68-1.05 1.21-1.37 1.15-.49 1.87-.49c1.07-.01 1.92.34 2.54 1.04zm-4.17 2.86c0 .88.13 1.52.4 1.94.27.42.67.62 1.2.62s.93-.21 1.2-.63c.27-.42.4-1.06.4-1.93s-.13-1.51-.4-1.92c-.27-.42-.66-.62-1.18-.62-1.08-.01-1.62.84-1.62 2.54zM165.51 18.48l-.7 1.05c-.63-.4-1.25-.6-1.86-.6-.35 0-.63.07-.83.2-.2.14-.29.31-.29.54 0 .17.04.31.13.42s.24.22.46.31c.22.1.54.21.97.33.8.21 1.4.5 1.79.85.39.35.58.85.58 1.48 0 .74-.3 1.31-.9 1.73s-1.34.62-2.23.62c-.61 0-1.16-.09-1.66-.28-.5-.19-.93-.44-1.29-.77l.9-1.01c.64.49 1.32.73 2.02.73.4 0 .72-.08.96-.24s.36-.38.36-.66c0-.21-.04-.38-.13-.51s-.25-.24-.48-.34c-.23-.1-.59-.22-1.07-.36-.76-.21-1.31-.49-1.67-.86s-.53-.83-.53-1.38c0-.41.12-.78.36-1.11s.57-.58 1.01-.77.93-.28 1.49-.28c.98.03 1.86.33 2.61.91zM171.45 24.87c-.26.19-.55.33-.88.42-.32.09-.65.14-.99.14-.73-.01-1.28-.22-1.66-.62-.38-.41-.57-1.01-.57-1.8V19.1h-1.16v-1.29h1.16v-1.64l1.79-.21v1.85h1.72l-.18 1.29h-1.54v3.86c0 .36.06.63.19.78.13.16.32.24.59.24s.56-.09.88-.27l.65 1.16zM174.16 14.38c.21.21.32.47.32.78s-.1.56-.32.77c-.21.21-.48.31-.82.31-.33 0-.6-.1-.8-.31-.21-.21-.32-.46-.32-.77s.1-.57.32-.78c.21-.21.48-.32.8-.32.33 0 .61.11.82.32zm.09 3.43v7.41h-1.79v-7.41h1.79z"/></g><path class="st23" d="M35.23 250.46c0 2.52-.69 3.77-2.08 3.77-.69 0-1.21-.31-1.56-.94s-.53-1.57-.53-2.84c0-2.52.7-3.77 2.09-3.77s2.08 1.26 2.08 3.78zm-3.17-2.49c-.24.52-.36 1.34-.36 2.48s.12 1.97.36 2.49c.24.52.6.78 1.09.78.48 0 .84-.26 1.08-.78.24-.52.36-1.34.36-2.48s-.12-1.97-.36-2.49-.6-.78-1.08-.78-.84.26-1.09.78z"/><path class="st20" d="M223.29 267.23v7.4h-1.35v-6.02l-1.46.99-.6-.9 2.2-1.47h1.21zM228.69 267.86c.41.51.62 1.22.62 2.12 0 1-.14 1.82-.42 2.46a3.51 3.51 0 01-1.28 1.52c-.57.38-1.33.7-2.29.95l-.29-.98c.88-.25 1.54-.58 1.99-.98s.72-.96.83-1.68c-.37.49-.84.74-1.41.74-.34 0-.66-.1-.96-.29-.29-.19-.53-.47-.7-.84-.17-.36-.26-.79-.26-1.27 0-.52.1-.97.31-1.35s.5-.67.86-.86c.36-.2.77-.3 1.22-.3.78 0 1.37.25 1.78.76zm-.79 2.37c.01-.79-.06-1.33-.21-1.65s-.41-.47-.78-.47c-.32 0-.56.12-.74.36-.18.24-.26.61-.26 1.11 0 .49.08.85.25 1.08.17.23.39.35.67.35.43 0 .79-.26 1.07-.78zM234.07 269.99c.29.18.51.46.68.82s.25.8.25 1.3c0 .54-.1 1-.29 1.41s-.47.72-.82.94c-.35.22-.76.33-1.22.33-.84 0-1.45-.31-1.85-.94-.4-.63-.6-1.51-.6-2.65 0-.84.11-1.56.34-2.18.23-.62.55-1.1.97-1.43.42-.33.92-.5 1.49-.5.56 0 1.05.16 1.47.47l-.51.84c-.31-.19-.62-.29-.93-.29-.42 0-.75.21-1 .62-.25.41-.39 1-.43 1.78.38-.54.88-.8 1.5-.8.35.01.67.1.95.28zm-.67 1.03c-.15-.22-.37-.32-.64-.32-.21 0-.41.07-.6.21-.19.14-.37.34-.53.59.01.82.1 1.41.26 1.75.16.35.42.52.79.52.32 0 .56-.14.72-.43.16-.29.24-.7.24-1.25-.02-.5-.09-.85-.24-1.07zM239.68 267.23v.97l-2.46 6.58-1.23-.41 2.3-6.07h-2.79v-1.07h4.18zM268.32 267.23v7.4h-1.35v-6.02l-1.46.99-.6-.9 2.2-1.47h1.21zM273.72 267.86c.41.51.62 1.22.62 2.12 0 1-.14 1.82-.42 2.46a3.51 3.51 0 01-1.28 1.52c-.57.38-1.33.7-2.29.95l-.29-.98c.88-.25 1.54-.58 1.99-.98s.72-.96.83-1.68c-.37.49-.84.74-1.41.74-.34 0-.66-.1-.96-.29-.29-.19-.53-.47-.7-.84-.17-.36-.26-.79-.26-1.27 0-.52.1-.97.31-1.35s.5-.67.86-.86c.36-.2.77-.3 1.22-.3.78 0 1.37.25 1.78.76zm-.79 2.37c.01-.79-.06-1.33-.21-1.65s-.41-.47-.78-.47c-.32 0-.56.12-.74.36-.18.24-.26.61-.26 1.11 0 .49.08.85.25 1.08.17.23.39.35.67.35.42 0 .78-.26 1.07-.78zM279.1 269.99c.29.18.51.46.68.82s.25.8.25 1.3c0 .54-.1 1-.29 1.41s-.47.72-.82.94c-.35.22-.76.33-1.22.33-.84 0-1.45-.31-1.85-.94-.4-.63-.6-1.51-.6-2.65 0-.84.11-1.56.34-2.18.23-.62.55-1.1.97-1.43.42-.33.92-.5 1.49-.5.56 0 1.05.16 1.47.47l-.51.84c-.31-.19-.62-.29-.93-.29-.42 0-.75.21-1 .62-.25.41-.39 1-.43 1.78.38-.54.88-.8 1.5-.8.35.01.66.1.95.28zm-.68 1.03c-.15-.22-.37-.32-.64-.32-.21 0-.41.07-.6.21-.19.14-.37.34-.53.59.01.82.1 1.41.26 1.75.16.35.42.52.79.52.32 0 .56-.14.72-.43.16-.29.24-.7.24-1.25-.01-.5-.09-.85-.24-1.07zM285.34 271.5c.23.32.35.7.35 1.14 0 .42-.1.79-.31 1.12s-.5.58-.88.76c-.38.18-.83.27-1.34.27-.51 0-.94-.09-1.31-.27-.37-.18-.66-.43-.85-.75-.2-.32-.3-.68-.3-1.09 0-.45.11-.82.34-1.13.22-.3.56-.56 1-.75-.37-.22-.65-.47-.81-.76-.17-.29-.25-.62-.25-.99 0-.4.1-.75.29-1.04s.46-.52.8-.67c.34-.15.71-.23 1.13-.23.65 0 1.19.17 1.61.5s.63.8.63 1.4c0 .35-.09.67-.28.94-.19.27-.48.52-.89.73.48.22.84.5 1.07.82zm-1.31 1.98c.19-.19.29-.47.29-.84 0-.34-.09-.61-.26-.81-.17-.19-.48-.38-.92-.56l-.29-.12c-.52.31-.78.8-.78 1.47 0 .38.1.67.29.86s.47.29.83.29c.37.01.65-.09.84-.29zm-1.75-4.41c0 .3.07.54.22.7.15.17.39.33.73.47l.19.08c.26-.18.44-.36.54-.56.1-.2.15-.43.15-.7 0-.33-.08-.58-.23-.75-.15-.17-.38-.25-.68-.25-.62-.01-.92.33-.92 1.01z"/><path class="st15" d="M43.28 267.32v7.31h-.62V268l-1.61 1.11-.29-.44 1.98-1.35h.54zM48.54 267.96c.33.51.5 1.24.5 2.2 0 .94-.12 1.71-.37 2.31-.25.6-.61 1.08-1.08 1.44-.48.36-1.11.67-1.89.93l-.15-.47c.91-.31 1.6-.73 2.07-1.25.47-.53.74-1.26.79-2.19-.4.65-.93.97-1.58.97-.34 0-.65-.09-.93-.28-.27-.18-.49-.45-.65-.8-.16-.35-.24-.76-.24-1.23 0-.51.09-.94.26-1.3a1.866 1.866 0 011.76-1.1c.67.01 1.18.26 1.51.77zm-.79 3.14c.25-.19.47-.47.68-.84-.01-.89-.12-1.54-.34-1.95-.22-.41-.57-.61-1.05-.61-.45 0-.79.16-1.04.48-.25.32-.37.79-.37 1.42 0 .57.12 1.01.35 1.32.23.31.54.46.94.46.31.01.58-.09.83-.28zM53.92 270.46c.33.39.5.96.5 1.71 0 .54-.08 1.01-.25 1.4s-.39.68-.69.88c-.29.2-.63.3-1.01.3-.73 0-1.27-.3-1.61-.91-.34-.61-.51-1.44-.51-2.5 0-.87.1-1.61.29-2.23s.47-1.1.83-1.42.78-.49 1.28-.49c.45 0 .86.14 1.24.43l-.27.42c-.3-.22-.63-.33-.98-.33-.54 0-.96.29-1.26.87-.31.58-.48 1.36-.51 2.35.44-.71 1-1.07 1.68-1.07.51 0 .93.2 1.27.59zm-.47 3.23c.23-.36.34-.86.34-1.5 0-.62-.11-1.08-.33-1.38-.22-.29-.52-.44-.9-.44-.32 0-.62.11-.9.32-.28.22-.51.52-.7.9.01.87.14 1.53.38 1.97.24.44.61.67 1.12.67.44.01.77-.17.99-.54zM58.47 267.71c.33.34.5.78.5 1.31 0 .48-.12.86-.37 1.15-.25.29-.58.48-1 .57.46.04.84.22 1.12.53.29.31.43.74.43 1.3 0 .42-.09.8-.26 1.13-.17.33-.42.59-.74.78-.32.19-.69.28-1.11.28-.4 0-.76-.08-1.07-.23-.31-.15-.59-.39-.86-.72l.4-.32c.23.27.47.46.7.58.23.11.51.17.81.17.46 0 .83-.15 1.09-.45.26-.3.4-.71.4-1.22 0-1.03-.51-1.54-1.54-1.54h-.43l.07-.5h.33c.39 0 .72-.13 1-.38s.42-.62.42-1.09c0-.42-.12-.75-.35-.99-.23-.24-.54-.36-.93-.36-.28 0-.53.05-.76.16s-.45.28-.68.51l-.34-.35c.26-.28.54-.49.84-.62.3-.14.62-.2.97-.2.58-.01 1.03.16 1.36.5zM87.96 267.32v7.31h-.62V268l-1.61 1.11-.29-.44 1.98-1.35h.54zM93.22 267.96c.33.51.5 1.24.5 2.2 0 .94-.12 1.71-.37 2.31-.25.6-.61 1.08-1.08 1.44-.48.36-1.11.67-1.89.93l-.15-.47c.91-.31 1.6-.73 2.07-1.25.47-.53.74-1.26.79-2.19-.4.65-.93.97-1.58.97-.34 0-.65-.09-.93-.28-.27-.18-.49-.45-.65-.8-.16-.35-.24-.76-.24-1.23 0-.51.09-.94.26-1.3a1.866 1.866 0 011.76-1.1c.67.01 1.18.26 1.51.77zm-.79 3.14c.25-.19.47-.47.68-.84-.01-.89-.12-1.54-.34-1.95-.22-.41-.57-.61-1.05-.61-.45 0-.79.16-1.04.48-.25.32-.37.79-.37 1.42 0 .57.12 1.01.35 1.32.23.31.54.46.94.46.31.01.58-.09.83-.28zM98.59 270.46c.33.39.5.96.5 1.71 0 .54-.08 1.01-.25 1.4s-.39.68-.69.88c-.29.2-.63.3-1.01.3-.73 0-1.27-.3-1.61-.91-.34-.61-.51-1.44-.51-2.5 0-.87.1-1.61.29-2.23s.47-1.1.83-1.42.78-.49 1.28-.49c.45 0 .86.14 1.24.43l-.27.42c-.3-.22-.63-.33-.98-.33-.54 0-.96.29-1.26.87-.31.58-.48 1.36-.51 2.35.44-.71 1-1.07 1.68-1.07.52 0 .94.2 1.27.59zm-.46 3.23c.23-.36.34-.86.34-1.5 0-.62-.11-1.08-.33-1.38-.22-.29-.52-.44-.9-.44-.32 0-.62.11-.9.32-.28.22-.51.52-.7.9.01.87.14 1.53.38 1.97.24.44.61.67 1.12.67.44.01.77-.17.99-.54zM104.42 272.19v.52h-.88v1.92h-.59v-1.92h-2.89v-.47l2-5.04.53.2-1.89 4.8h2.25l.07-2.16h.53v2.16h.87zM132.95 267.32v7.31h-.62V268l-1.61 1.11-.29-.44 1.98-1.35h.54zM138.21 267.96c.33.51.5 1.24.5 2.2 0 .94-.12 1.71-.37 2.31-.25.6-.61 1.08-1.08 1.44-.48.36-1.11.67-1.89.93l-.15-.47c.91-.31 1.6-.73 2.07-1.25.47-.53.74-1.26.79-2.19-.4.65-.93.97-1.58.97-.34 0-.65-.09-.93-.28-.27-.18-.49-.45-.65-.8-.16-.35-.24-.76-.24-1.23 0-.51.09-.94.26-1.3a1.866 1.866 0 011.76-1.1c.67.01 1.18.26 1.51.77zm-.79 3.14c.25-.19.47-.47.68-.84-.01-.89-.12-1.54-.34-1.95-.22-.41-.57-.61-1.05-.61-.45 0-.79.16-1.04.48-.25.32-.37.79-.37 1.42 0 .57.12 1.01.35 1.32.23.31.54.46.94.46.3.01.58-.09.83-.28zM143.58 270.46c.33.39.5.96.5 1.71 0 .54-.08 1.01-.25 1.4s-.39.68-.69.88c-.29.2-.63.3-1.01.3-.73 0-1.27-.3-1.61-.91-.34-.61-.51-1.44-.51-2.5 0-.87.1-1.61.29-2.23s.47-1.1.83-1.42.78-.49 1.28-.49c.45 0 .86.14 1.24.43l-.27.42c-.3-.22-.63-.33-.98-.33-.54 0-.96.29-1.26.87-.31.58-.48 1.36-.51 2.35.44-.71 1-1.07 1.68-1.07.52 0 .94.2 1.27.59zm-.46 3.23c.23-.36.34-.86.34-1.5 0-.62-.11-1.08-.33-1.38-.22-.29-.52-.44-.9-.44-.32 0-.62.11-.9.32-.28.22-.51.52-.7.9.01.87.14 1.53.38 1.97.24.44.61.67 1.12.67.43.01.76-.17.99-.54zM148.64 267.83h-2.66v2.52c.34-.24.72-.35 1.12-.35.56 0 1.02.2 1.35.61s.51.96.51 1.67c0 .48-.09.91-.26 1.29s-.43.67-.75.87c-.32.21-.7.31-1.13.31-.39 0-.73-.08-1.03-.23s-.58-.37-.85-.65l.4-.35c.21.24.44.42.67.53.24.11.51.17.81.17.46 0 .83-.17 1.1-.52.27-.35.41-.83.41-1.44 0-.6-.12-1.04-.37-1.33-.25-.29-.58-.43-1-.43-.21 0-.4.03-.56.08-.16.05-.34.14-.54.27h-.47v-3.54h3.36l-.11.52z"/><g><path class="st15" d="M177.57 267.32v7.31h-.62V268l-1.61 1.11-.29-.44 1.98-1.35h.54zM182.83 267.96c.33.51.5 1.24.5 2.2 0 .94-.12 1.71-.37 2.31-.25.6-.61 1.08-1.08 1.44-.48.36-1.11.67-1.89.93l-.15-.47c.91-.31 1.6-.73 2.07-1.25.47-.53.74-1.26.79-2.19-.4.65-.93.97-1.58.97-.34 0-.65-.09-.93-.28-.27-.18-.49-.45-.65-.8-.16-.35-.24-.76-.24-1.23 0-.51.09-.94.26-1.3a1.866 1.866 0 011.76-1.1c.67.01 1.18.26 1.51.77zm-.79 3.14c.25-.19.47-.47.68-.84-.01-.89-.12-1.54-.34-1.95-.22-.41-.57-.61-1.05-.61-.45 0-.79.16-1.04.48-.25.32-.37.79-.37 1.42 0 .57.12 1.01.35 1.32.23.31.54.46.94.46.31.01.58-.09.83-.28zM188.21 270.46c.33.39.5.96.5 1.71 0 .54-.08 1.01-.25 1.4s-.39.68-.69.88c-.29.2-.63.3-1.01.3-.73 0-1.27-.3-1.61-.91-.34-.61-.51-1.44-.51-2.5 0-.87.1-1.61.29-2.23s.47-1.1.83-1.42.78-.49 1.28-.49c.45 0 .86.14 1.24.43l-.27.42c-.3-.22-.63-.33-.98-.33-.54 0-.96.29-1.26.87-.31.58-.48 1.36-.51 2.35.44-.71 1-1.07 1.68-1.07.52 0 .94.2 1.27.59zm-.47 3.23c.23-.36.34-.86.34-1.5 0-.62-.11-1.08-.33-1.38-.22-.29-.52-.44-.9-.44-.32 0-.62.11-.9.32-.28.22-.51.52-.7.9.01.87.14 1.53.38 1.97.24.44.61.67 1.12.67.44.01.77-.17.99-.54zM193.49 270.46c.33.39.5.96.5 1.71 0 .54-.08 1.01-.25 1.4s-.39.68-.69.88c-.29.2-.63.3-1.01.3-.73 0-1.27-.3-1.61-.91-.34-.61-.51-1.44-.51-2.5 0-.87.1-1.61.29-2.23s.47-1.1.83-1.42.79-.49 1.28-.49c.45 0 .86.14 1.24.43l-.28.42c-.3-.22-.63-.33-.98-.33-.54 0-.96.29-1.27.87-.31.58-.48 1.36-.51 2.35.44-.71 1-1.07 1.68-1.07.53 0 .96.2 1.29.59zm-.47 3.23c.23-.36.34-.86.34-1.5 0-.62-.11-1.08-.33-1.38-.22-.29-.52-.44-.9-.44-.32 0-.62.11-.9.32-.27.22-.51.52-.7.9.01.87.14 1.53.38 1.97.24.44.61.67 1.12.67.44.01.77-.17.99-.54z"/></g><g><path class="st15" d="M358.73 267.32v7.31h-.62V268l-1.61 1.11-.29-.44 1.98-1.35h.54zM363.99 267.96c.33.51.5 1.24.5 2.2 0 .94-.12 1.71-.37 2.31-.25.6-.61 1.08-1.08 1.44-.48.36-1.11.67-1.89.93l-.15-.47c.91-.31 1.6-.73 2.07-1.25.47-.53.74-1.26.79-2.19-.4.65-.93.97-1.58.97-.34 0-.65-.09-.93-.28-.27-.18-.49-.45-.65-.8-.16-.35-.24-.76-.24-1.23 0-.51.09-.94.26-1.3a1.866 1.866 0 011.76-1.1c.67.01 1.18.26 1.51.77zm-.79 3.14c.25-.19.47-.47.68-.84-.01-.89-.12-1.54-.34-1.95-.22-.41-.57-.61-1.05-.61-.45 0-.79.16-1.04.48-.25.32-.37.79-.37 1.42 0 .57.12 1.01.35 1.32.23.31.54.46.94.46.31.01.59-.09.83-.28zM369.1 267.32v.48l-2.58 6.92-.56-.19 2.52-6.69h-3.07v-.53h3.69zM374.32 270.98c0 2.51-.69 3.77-2.08 3.77-.69 0-1.21-.31-1.56-.94-.35-.63-.53-1.57-.53-2.84 0-2.51.7-3.77 2.09-3.77 1.38 0 2.08 1.26 2.08 3.78zm-3.17-2.49c-.24.52-.36 1.34-.36 2.48s.12 1.97.36 2.49c.24.52.6.78 1.09.78.48 0 .84-.26 1.08-.78.24-.52.36-1.34.36-2.48s-.12-1.97-.36-2.49c-.24-.52-.6-.78-1.08-.78s-.85.26-1.09.78z"/></g><g><path class="st15" d="M313.62 267.32v7.31H313V268l-1.61 1.11-.29-.44 1.98-1.35h.54zM318.88 267.96c.33.51.5 1.24.5 2.2 0 .94-.12 1.71-.37 2.31-.25.6-.61 1.08-1.08 1.44-.48.36-1.11.67-1.89.93l-.15-.47c.91-.31 1.6-.73 2.07-1.25.47-.53.74-1.26.79-2.19-.4.65-.93.97-1.58.97-.34 0-.65-.09-.93-.28-.27-.18-.49-.45-.65-.8-.16-.35-.24-.76-.24-1.23 0-.51.09-.94.26-1.3a1.866 1.866 0 011.76-1.1c.67.01 1.18.26 1.51.77zm-.79 3.14c.25-.19.47-.47.68-.84-.01-.89-.12-1.54-.34-1.95-.22-.41-.57-.61-1.05-.61-.45 0-.79.16-1.04.48-.25.32-.37.79-.37 1.42 0 .57.12 1.01.35 1.32.23.31.54.46.94.46.31.01.58-.09.83-.28zM324.25 270.46c.33.39.5.96.5 1.71 0 .54-.08 1.01-.25 1.4s-.39.68-.69.88c-.29.2-.63.3-1.01.3-.73 0-1.27-.3-1.61-.91-.34-.61-.51-1.44-.51-2.5 0-.87.1-1.61.29-2.23s.47-1.1.83-1.42.78-.49 1.28-.49c.45 0 .86.14 1.24.43l-.27.42c-.3-.22-.63-.33-.98-.33-.54 0-.96.29-1.26.87-.31.58-.48 1.36-.51 2.35.44-.71 1-1.07 1.68-1.07.52 0 .94.2 1.27.59zm-.46 3.23c.23-.36.34-.86.34-1.5 0-.62-.11-1.08-.33-1.38-.22-.29-.52-.44-.9-.44-.32 0-.62.11-.9.32-.28.22-.51.52-.7.9.01.87.14 1.53.38 1.97.24.44.61.67 1.12.67.43.01.76-.17.99-.54zM329.33 267.96c.33.51.5 1.24.5 2.2 0 .94-.12 1.71-.37 2.31-.25.6-.61 1.08-1.08 1.44s-1.11.67-1.89.93l-.15-.47c.91-.31 1.6-.73 2.07-1.25.47-.53.74-1.26.79-2.19-.4.65-.93.97-1.58.97-.34 0-.65-.09-.93-.28s-.49-.45-.65-.8c-.16-.35-.24-.76-.24-1.23 0-.51.09-.94.26-1.3.17-.36.41-.63.71-.82.3-.19.65-.28 1.04-.28.68.01 1.19.26 1.52.77zm-.79 3.14c.25-.19.47-.47.68-.84-.01-.89-.12-1.54-.33-1.95-.22-.41-.57-.61-1.05-.61-.45 0-.79.16-1.04.48-.25.32-.37.79-.37 1.42 0 .57.12 1.01.35 1.32.23.31.54.46.94.46.29.01.57-.09.82-.28z"/></g><g><path class="st15" d="M404.29 267.32v7.31h-.62V268l-1.61 1.11-.29-.44 1.98-1.35h.54zM409.56 267.96c.33.51.5 1.24.5 2.2 0 .94-.12 1.71-.37 2.31-.25.6-.61 1.08-1.08 1.44-.48.36-1.11.67-1.89.93l-.15-.47c.91-.31 1.6-.73 2.07-1.25.47-.53.74-1.26.79-2.19-.4.65-.93.97-1.58.97-.34 0-.65-.09-.93-.28-.27-.18-.49-.45-.65-.8-.16-.35-.24-.76-.24-1.23 0-.51.09-.94.26-1.3a1.866 1.866 0 011.76-1.1c.67.01 1.17.26 1.51.77zm-.79 3.14c.25-.19.47-.47.68-.84-.01-.89-.12-1.54-.34-1.95-.22-.41-.57-.61-1.05-.61-.45 0-.79.16-1.04.48-.25.32-.37.79-.37 1.42 0 .57.12 1.01.35 1.32.23.31.54.46.94.46.3.01.58-.09.83-.28zM414.67 267.32v.48l-2.58 6.92-.56-.19 2.52-6.69h-3.07v-.53h3.69zM417.91 267.32v7.31h-.62V268l-1.61 1.11-.29-.44 1.98-1.35h.54z"/></g><g><path class="st15" d="M448.84 267.32v7.31h-.62V268l-1.61 1.11-.29-.44 1.98-1.35h.54zM454.1 267.96c.33.51.5 1.24.5 2.2 0 .94-.12 1.71-.37 2.31-.25.6-.61 1.08-1.08 1.44-.48.36-1.11.67-1.89.93l-.15-.47c.91-.31 1.6-.73 2.07-1.25.47-.53.74-1.26.79-2.19-.4.65-.93.97-1.58.97-.34 0-.65-.09-.93-.28-.27-.18-.49-.45-.65-.8-.16-.35-.24-.76-.24-1.23 0-.51.09-.94.26-1.3a1.866 1.866 0 011.76-1.1c.67.01 1.18.26 1.51.77zm-.79 3.14c.25-.19.47-.47.68-.84-.01-.89-.12-1.54-.34-1.95-.22-.41-.57-.61-1.05-.61-.45 0-.79.16-1.04.48-.25.32-.37.79-.37 1.42 0 .57.12 1.01.35 1.32.23.31.54.46.94.46.31.01.58-.09.83-.28zM459.21 267.32v.48l-2.58 6.92-.56-.19 2.52-6.69h-3.07v-.53h3.69zM463.07 267.72c.33.35.5.8.5 1.36 0 .47-.09.92-.27 1.34-.18.43-.46.89-.85 1.41s-1 1.26-1.83 2.25h3.12l-.09.55h-3.73v-.52c.88-1.06 1.52-1.85 1.92-2.39s.69-1 .85-1.39c.16-.39.24-.8.24-1.23 0-.43-.11-.77-.33-1.01-.22-.24-.52-.36-.9-.36-.3 0-.57.07-.8.2-.23.14-.45.34-.67.62l-.42-.31c.26-.35.54-.61.85-.79.31-.17.66-.26 1.05-.26.58.01 1.03.18 1.36.53z"/></g><g><path class="st23" d="M13.59 197.69c.33.35.5.8.5 1.36 0 .47-.09.92-.27 1.34-.18.42-.46.89-.85 1.41-.39.51-1 1.27-1.83 2.26h3.12l-.09.55h-3.73v-.52c.88-1.06 1.52-1.85 1.93-2.39.4-.54.69-1 .85-1.39s.24-.8.24-1.23-.11-.77-.33-1.01c-.22-.24-.52-.36-.9-.36-.3 0-.57.07-.8.2s-.45.34-.67.62l-.42-.31c.26-.35.54-.61.85-.79.31-.17.66-.26 1.05-.26.57 0 1.02.18 1.35.52zM19.64 200.96c0 2.52-.69 3.77-2.08 3.77-.69 0-1.21-.31-1.56-.94s-.53-1.58-.53-2.84c0-2.52.7-3.77 2.09-3.77 1.38-.01 2.08 1.25 2.08 3.78zm-3.17-2.5c-.24.52-.36 1.34-.36 2.48s.12 1.97.36 2.49c.24.52.6.78 1.09.78.48 0 .84-.26 1.08-.78.24-.52.36-1.34.36-2.48s-.12-1.97-.36-2.49c-.24-.52-.6-.78-1.08-.78-.49.01-.85.27-1.09.78zM26.5 204.37c-.34.24-.7.36-1.1.36-.4 0-.72-.12-.95-.36s-.34-.58-.34-1.02v-3.98h-.87v-.51h.87v-1.38l.62-.08v1.45h1.33l-.08.51h-1.25v3.96c0 .59.25.88.74.88.25 0 .51-.08.78-.24l.25.41zM28.14 196.47c.08.09.13.19.13.32s-.04.24-.13.32c-.08.08-.19.13-.32.13s-.24-.04-.32-.13a.445.445 0 01-.13-.32c0-.12.04-.23.13-.32.08-.09.19-.13.32-.13s.24.04.32.13zm-.01 2.39v5.75h-.62v-5.75h.62zM32.38 198.89c.26.11.52.27.77.48l-.29.4c-.23-.18-.46-.32-.67-.4-.21-.08-.44-.13-.69-.13-.34 0-.62.09-.83.26s-.31.42-.31.73c0 .27.09.49.28.64.18.16.51.31.99.47.59.19 1.02.41 1.28.67s.39.61.39 1.06c0 .51-.18.91-.54 1.21s-.81.45-1.35.45c-.39 0-.73-.06-1.03-.19-.3-.13-.58-.31-.84-.54l.34-.37c.23.2.47.35.71.45.24.1.51.15.82.15.37 0 .68-.1.91-.3s.35-.47.35-.83c0-.23-.04-.42-.12-.57-.08-.14-.21-.27-.41-.38-.19-.11-.47-.22-.84-.34-.56-.18-.96-.38-1.19-.63-.24-.24-.36-.55-.36-.93 0-.29.08-.54.23-.77.15-.23.36-.41.63-.54.27-.13.56-.2.89-.2.32-.01.62.05.88.15zM35.21 203.87c.1.1.14.22.14.36 0 .14-.05.26-.14.36-.09.1-.22.15-.36.15s-.27-.05-.36-.15a.524.524 0 01-.14-.36c0-.14.05-.26.14-.36.09-.1.21-.15.36-.15s.27.05.36.15z"/></g><g><path class="st31" d="M258.57 206.1v-.92h2.72v.92h-2.72zM264.31 202.4v6.06h-1.13v-4.9l-1.35.82-.5-.77 1.97-1.21h1.01zM268.29 202.5c.29.14.51.32.66.56.15.23.22.49.22.77 0 .37-.11.67-.32.91s-.5.41-.86.51c.4.04.73.18.99.43s.39.6.39 1.04c0 .35-.09.66-.27.95-.18.28-.43.51-.76.67-.33.16-.72.25-1.17.25-.83 0-1.48-.29-1.96-.87l.64-.61c.2.2.41.35.6.45.2.09.42.14.66.14.32 0 .58-.09.78-.27.19-.18.29-.43.29-.74 0-.35-.09-.6-.27-.75-.18-.15-.45-.22-.81-.22h-.48l.13-.82h.32c.29 0 .53-.08.71-.24s.27-.39.27-.67c0-.25-.08-.44-.24-.58-.16-.14-.38-.21-.65-.21-.23 0-.45.04-.64.13s-.38.22-.58.4l-.58-.64c.55-.52 1.18-.77 1.9-.77.4-.03.74.04 1.03.18zM275.13 202.5c.29.14.51.32.66.56.15.23.22.49.22.77 0 .37-.11.67-.32.91s-.5.41-.86.51c.4.04.73.18.99.43s.39.6.39 1.04c0 .35-.09.66-.27.95-.18.28-.43.51-.76.67-.33.16-.72.25-1.17.25-.83 0-1.48-.29-1.96-.87l.64-.61c.2.2.41.35.6.45.2.09.42.14.66.14.32 0 .58-.09.78-.27.19-.18.29-.43.29-.74 0-.35-.09-.6-.27-.75-.18-.15-.45-.22-.81-.22h-.48l.13-.82h.32c.29 0 .53-.08.71-.24s.27-.39.27-.67c0-.25-.08-.44-.24-.58-.16-.14-.38-.21-.65-.21-.23 0-.45.04-.64.13s-.38.22-.58.4l-.58-.64c.55-.52 1.18-.77 1.9-.77.4-.03.74.04 1.03.18zM281.38 206.83c0 .33-.09.63-.28.9-.19.27-.45.48-.79.63-.34.16-.73.23-1.18.23-.44 0-.83-.08-1.16-.23s-.58-.36-.76-.63c-.18-.26-.27-.56-.27-.89 0-.7.38-1.21 1.15-1.53-.61-.33-.91-.81-.91-1.43 0-.32.09-.6.27-.84s.42-.43.72-.56.63-.19 1-.19.7.06 1 .18c.3.12.54.3.71.53.18.23.27.51.27.84 0 .57-.33 1.03-1 1.37.81.37 1.23.91 1.23 1.62zm-1.45.66a.84.84 0 00.28-.66c0-.28-.08-.49-.24-.65-.16-.16-.45-.31-.86-.46l-.28-.1c-.49.26-.73.66-.73 1.2 0 .29.1.51.29.68s.45.25.77.25c.32-.01.58-.09.77-.26zm-1.41-4.18c-.15.14-.23.34-.23.59 0 .24.07.43.22.57.14.14.38.27.69.38l.17.06c.23-.14.4-.3.5-.46.1-.16.15-.35.15-.57 0-.25-.08-.44-.22-.58-.15-.14-.36-.21-.64-.21-.28.01-.49.08-.64.22zM285.52 204.66c.26.15.47.38.62.67.15.3.22.65.22 1.07 0 .42-.09.8-.26 1.13s-.42.59-.73.78c-.32.19-.67.28-1.08.28-.74 0-1.29-.26-1.65-.78-.36-.52-.54-1.24-.54-2.15 0-.67.1-1.26.3-1.77.2-.51.49-.9.86-1.18.38-.28.81-.42 1.32-.42.5 0 .94.13 1.32.39l-.43.71a1.73 1.73 0 00-.87-.24c-.38 0-.69.17-.92.52-.23.35-.36.82-.39 1.43.37-.44.82-.67 1.36-.67.32 0 .61.07.87.23zm-.55 2.72c.15-.24.23-.56.23-.97 0-.41-.07-.71-.21-.89-.14-.18-.35-.27-.62-.27-.2 0-.4.06-.58.17-.18.11-.35.26-.49.45.01.65.09 1.13.25 1.42.15.29.4.44.74.44.3.01.53-.11.68-.35zM267.4 217.31h-3.14c.03.61.18 1.07.44 1.36s.6.45 1.03.45c.25 0 .46-.04.65-.11s.39-.19.62-.36l.24.33c-.23.19-.47.34-.72.43-.25.1-.52.14-.82.14-.62 0-1.11-.21-1.47-.64-.35-.43-.53-1.02-.53-1.77 0-.5.08-.93.23-1.31.15-.38.37-.67.66-.87s.62-.31 1-.31c.6 0 1.06.2 1.37.61.31.41.47.96.47 1.67l-.03.38zm-.5-.54c0-.53-.11-.94-.33-1.24s-.54-.45-.98-.45c-.39 0-.71.15-.95.45-.24.3-.37.76-.4 1.37h2.65v-.13zM272.03 214.75l-1.63 4.71h-.65l-1.68-4.71h.58l1.43 4.25 1.4-4.25h.55zM273.65 212.79c.07.07.11.16.11.27 0 .11-.04.2-.11.27a.4.4 0 01-.29.11c-.11 0-.21-.04-.28-.11a.37.37 0 01-.11-.27c0-.11.04-.2.11-.27s.17-.11.28-.11c.13 0 .22.04.29.11zm-.01 1.96v4.71h-.52v-4.71h.52zM278.9 212.83v6.62h-.45l-.06-.72c-.32.55-.79.82-1.41.82-.55 0-.98-.22-1.29-.65-.31-.43-.47-1.03-.47-1.78 0-.49.07-.92.22-1.29s.36-.66.64-.87c.28-.21.61-.32.99-.32.53 0 .97.21 1.32.64v-2.52l.51.07zm-1.08 6.08c.21-.14.39-.36.56-.66v-2.46c-.34-.47-.75-.71-1.23-.71-.43 0-.76.18-1.01.53-.25.35-.37.85-.36 1.5 0 .65.11 1.14.34 1.49.23.34.54.52.95.52.29.01.54-.07.75-.21zM283.89 215.3c.35.43.53 1.03.53 1.8 0 .76-.18 1.36-.54 1.8-.36.44-.84.66-1.46.66s-1.11-.22-1.46-.65c-.35-.43-.53-1.03-.53-1.8 0-.5.08-.93.24-1.3.16-.37.39-.66.69-.85.3-.2.65-.3 1.06-.3.63-.01 1.12.21 1.47.64zm-2.52.31c-.25.34-.38.84-.38 1.5 0 .65.12 1.15.37 1.49s.6.51 1.06.51.81-.17 1.07-.51.38-.85.38-1.51c0-.65-.12-1.15-.37-1.49s-.6-.51-1.07-.51c-.46 0-.81.17-1.06.52zM289.07 214.75l-1.63 4.71h-.65l-1.68-4.71h.58l1.43 4.25 1.4-4.25h.55zM293.06 218.95c.06.11.16.19.3.24l-.12.37a.905.905 0 01-.5-.24c-.12-.12-.19-.3-.23-.55-.32.53-.81.79-1.47.79-.45 0-.8-.13-1.07-.38-.26-.25-.39-.59-.39-1.02 0-.49.17-.86.52-1.12.34-.26.82-.4 1.44-.4h.9v-.46c0-.38-.08-.65-.25-.82s-.45-.26-.84-.26c-.36 0-.79.09-1.28.27l-.13-.4c.53-.21 1.02-.32 1.48-.32 1.03 0 1.54.5 1.54 1.49v2.27c.01.25.04.43.1.54zm-.61-.64v-1.3h-.82c-.48 0-.85.09-1.1.28-.25.19-.38.46-.38.84 0 .32.09.57.26.75s.42.26.73.26c.57-.01 1-.28 1.31-.83zM297.92 215.03c.22.25.34.61.34 1.06v3.37h-.52v-3.29c0-.38-.08-.65-.22-.83-.15-.17-.37-.26-.67-.26-.3 0-.57.08-.8.25-.23.17-.45.41-.66.72v3.41h-.52v-4.71h.45l.05.8c.19-.28.42-.5.68-.66.26-.16.56-.24.89-.24.43 0 .76.13.98.38zM301.54 219.48c-.13.37-.26.67-.41.9-.15.23-.34.43-.58.58-.24.15-.55.27-.93.34l-.05-.41c.31-.08.56-.17.73-.29s.32-.26.42-.43c.1-.17.21-.41.32-.71h-.18l-1.64-4.71h.57l1.42 4.32 1.4-4.32h.55l-1.62 4.73zm.33-7.06l.23.47-1.76.76-.17-.31 1.7-.92zM306.57 214.77c.21.08.41.2.61.36l-.26.34a1.71 1.71 0 00-.48-.28c-.17-.06-.35-.09-.56-.09-.44 0-.8.17-1.06.52s-.4.85-.4 1.51c0 .65.13 1.15.39 1.48.26.33.61.5 1.06.5.21 0 .4-.03.57-.1.17-.07.34-.17.52-.3l.25.35c-.4.34-.85.5-1.35.5-.4 0-.75-.1-1.05-.29-.3-.19-.53-.47-.7-.83-.17-.36-.25-.8-.25-1.3s.08-.93.25-1.31c.16-.38.4-.66.7-.87.3-.2.65-.31 1.04-.31.27 0 .51.04.72.12zM311.51 215.04c.23.25.34.61.34 1.06v3.37h-.52v-3.29c0-.73-.3-1.09-.89-1.09-.3 0-.57.08-.8.25-.23.17-.45.41-.66.72v3.41h-.52v-6.62l.52-.06v2.76c.42-.59.94-.88 1.56-.88.42-.02.74.11.97.37zM319.53 219.46h-.45l-.03-.84c-.37.62-.88.94-1.54.94-.43 0-.75-.12-.99-.37-.23-.25-.35-.6-.35-1.07v-3.37h.52v3.31c0 .37.08.63.23.81s.39.26.7.26c.55 0 1-.32 1.38-.96v-3.41h.52v4.7zm-1-7.04l.23.47-1.76.76-.17-.31 1.7-.92zM326.92 215.04c.22.26.33.61.33 1.05v3.37h-.52v-3.29c0-.37-.07-.65-.21-.82-.14-.18-.34-.26-.59-.26-.26 0-.5.08-.71.25s-.41.41-.61.72v3.41h-.52v-3.29c0-.37-.07-.65-.21-.82-.14-.18-.34-.26-.59-.26-.27 0-.51.08-.72.25s-.41.41-.6.72v3.41h-.52v-4.71h.45l.05.8c.18-.28.39-.5.64-.66.25-.16.52-.24.81-.24.3 0 .55.08.76.25.2.17.34.39.41.69.19-.29.4-.52.65-.69.25-.17.52-.25.82-.25.36-.02.66.11.88.37zM331.41 214.71l-.1.5c-.13-.04-.27-.05-.41-.05-.32 0-.57.12-.77.35-.19.23-.36.59-.49 1.08v2.88h-.52v-4.71h.45l.05 1.05c.13-.39.3-.68.52-.87.22-.19.49-.28.81-.28.17-.01.33.01.46.05zM334.61 219.26c-.3.2-.63.3-.99.3s-.64-.11-.85-.32c-.2-.21-.31-.52-.31-.92v-3.14h-.79v-.42h.79v-1.12l.52-.06v1.19h1.21l-.06.42h-1.15v3.11c0 .28.06.48.17.62.11.13.29.2.52.2.24 0 .48-.07.72-.21l.22.35zM336.47 212.42l.23.47-1.75.76-.17-.31 1.69-.92zm-.41 2.33v4.71h-.52v-4.71h.52z"/></g><g><path class="st23" d="M14.43 152.08v.52h-.88v1.92h-.59v-1.92h-2.89v-.47l2-5.04.53.2-1.89 4.8h2.25l.07-2.16h.53v2.16h.87zM19.64 150.87c0 2.52-.69 3.77-2.08 3.77-.69 0-1.21-.31-1.56-.94-.35-.63-.53-1.57-.53-2.84 0-2.52.7-3.77 2.09-3.77 1.38 0 2.08 1.26 2.08 3.78zm-3.17-2.49c-.24.52-.36 1.34-.36 2.48s.12 1.97.36 2.49.61.78 1.09.78c.48 0 .84-.26 1.08-.78s.36-1.34.36-2.48-.12-1.97-.36-2.49-.6-.78-1.08-.78c-.49.01-.85.26-1.09.78zM26.5 154.28c-.34.24-.7.36-1.1.36-.4 0-.72-.12-.95-.36-.23-.24-.34-.58-.34-1.02v-3.98h-.87v-.51h.87v-1.38l.62-.08v1.45h1.33l-.08.51h-1.25v3.96c0 .59.25.88.74.88.25 0 .51-.08.78-.24l.25.41zM28.14 146.38c.08.09.13.19.13.32s-.04.24-.13.32c-.08.08-.19.13-.32.13s-.24-.04-.32-.13a.445.445 0 01-.13-.32c0-.12.04-.23.13-.32.08-.09.19-.13.32-.13s.24.05.32.13zm-.01 2.39v5.75h-.62v-5.75h.62zM32.38 148.81c.26.11.52.27.77.48l-.29.4c-.23-.18-.46-.32-.67-.4-.21-.08-.44-.13-.69-.13-.34 0-.62.09-.83.26s-.31.42-.31.73c0 .27.09.49.27.64s.51.31.99.47c.59.19 1.02.41 1.28.67.26.25.39.61.39 1.06 0 .51-.18.91-.54 1.21-.36.3-.81.45-1.35.45-.39 0-.73-.06-1.03-.19-.3-.13-.58-.31-.84-.54l.34-.37c.23.2.47.35.71.45s.51.15.82.15c.37 0 .68-.1.91-.3.23-.2.35-.47.35-.83 0-.23-.04-.42-.12-.57s-.21-.27-.41-.38c-.19-.11-.48-.22-.84-.34-.56-.18-.96-.38-1.19-.63-.24-.24-.36-.55-.36-.94 0-.29.08-.54.23-.77.15-.23.36-.41.63-.54.27-.13.56-.2.89-.2.33 0 .63.05.89.16zM35.21 153.78c.1.1.14.22.14.36 0 .14-.05.26-.14.36-.1.1-.22.15-.36.15a.46.46 0 01-.36-.15.524.524 0 01-.14-.36c0-.14.05-.26.14-.36.09-.1.21-.15.36-.15s.27.05.36.15z"/></g><g><path class="st23" d="M14.23 73.7l-1.48-2.93h-.97v2.93h-.93v-6.88h1.61c1.64 0 2.46.65 2.46 1.94 0 .45-.11.84-.33 1.15-.22.31-.54.54-.97.69l1.64 3.1h-1.03zm-.63-3.96c.23-.21.35-.54.35-.98 0-.42-.12-.73-.35-.93-.24-.2-.62-.3-1.16-.3h-.66v2.53h.75c.48 0 .84-.11 1.07-.32zM19.66 69.02c.37.47.56 1.15.56 2.04 0 .85-.19 1.53-.57 2.02-.38.5-.9.75-1.57.75s-1.2-.24-1.57-.73c-.38-.49-.56-1.16-.56-2.03 0-.87.19-1.55.57-2.04.38-.48.91-.73 1.58-.73s1.19.24 1.56.72zm-2.47.5c-.21.33-.31.84-.31 1.54 0 1.37.4 2.05 1.2 2.05.8 0 1.2-.69 1.2-2.06 0-.7-.1-1.21-.3-1.54-.2-.33-.5-.49-.89-.49s-.69.17-.9.5zM24.12 68.45c.23.09.46.24.67.43l-.4.54c-.16-.13-.32-.22-.48-.29s-.33-.1-.52-.1c-.39 0-.7.17-.92.5-.22.33-.32.85-.32 1.56 0 1.32.41 1.98 1.24 1.98.19 0 .36-.03.51-.09s.32-.16.49-.29l.42.55c-.43.39-.91.58-1.45.58-.67 0-1.2-.23-1.58-.7-.38-.47-.58-1.14-.58-2.02 0-.57.09-1.07.26-1.49.18-.42.43-.74.75-.97.32-.23.7-.34 1.14-.34.28.01.54.05.77.15zm.36-2.58l.35.4-1.21 1.16h-.56l-1.21-1.16.35-.4 1.14.88 1.14-.88zM29.14 68.72c.24.28.35.66.35 1.15v3.83h-.9v-3.72c0-.34-.06-.58-.17-.73s-.29-.23-.52-.23c-.44 0-.84.31-1.2.94v3.74h-.9v-5.26h.78l.07.78c.41-.61.91-.91 1.5-.91.42 0 .75.13.99.41zM32.18 65.73l.38.72-1.92.87-.26-.46 1.8-1.13zm-.21 2.71v5.26h-.9v-5.26h.9zM14.38 80.02c.29.47.44 1.15.44 2.03 0 .85-.16 1.53-.49 2.03s-.77.75-1.35.75c-.52 0-.94-.21-1.26-.63v2.5l-.9.11v-7.37h.79l.05.71c.36-.56.84-.84 1.43-.84.56 0 1 .23 1.29.71zm-.51 2.04c0-.71-.09-1.23-.26-1.55s-.43-.49-.77-.49c-.23 0-.44.07-.62.21-.18.14-.35.33-.51.57v2.66c.27.43.62.65 1.05.65.74 0 1.11-.69 1.11-2.05zM19.53 80.02c.37.47.56 1.15.56 2.04 0 .85-.19 1.53-.57 2.02-.38.5-.9.75-1.57.75s-1.2-.24-1.57-.73c-.38-.49-.56-1.16-.56-2.03 0-.87.19-1.55.57-2.04.38-.48.91-.73 1.58-.73s1.19.24 1.56.72zm-2.47.5c-.21.33-.31.84-.31 1.54 0 1.37.4 2.05 1.2 2.05.8 0 1.2-.69 1.2-2.06 0-.7-.1-1.21-.3-1.54-.2-.33-.5-.49-.89-.49s-.69.17-.9.5zM23.99 79.45c.23.09.46.24.67.43l-.4.54c-.16-.13-.32-.22-.48-.29s-.33-.1-.52-.1c-.39 0-.7.17-.92.5-.22.33-.32.85-.32 1.56 0 1.32.41 1.98 1.24 1.98.19 0 .36-.03.51-.09s.32-.16.49-.29l.42.55c-.43.39-.91.58-1.45.58-.67 0-1.2-.23-1.58-.7-.38-.47-.58-1.14-.58-2.02 0-.57.09-1.07.26-1.49.18-.42.43-.74.75-.97.32-.23.7-.34 1.14-.34.28.01.54.05.77.15zm.36-2.58l.35.4-1.21 1.16h-.56l-1.21-1.16.35-.4 1.14.88 1.14-.88zM28.16 84.47c-.33.24-.7.36-1.11.36-.43 0-.75-.12-.98-.37-.23-.25-.34-.59-.34-1.04v-3.3h-.75v-.68h.75v-1.21l.9-.11v1.32h1.16l-.1.68h-1.06v3.29c0 .45.19.68.57.68.11 0 .22-.02.31-.05.1-.03.21-.08.32-.15l.33.58zM30.92 84.72c-.19.62-.45 1.1-.79 1.44s-.82.56-1.45.65l-.1-.67c.31-.07.56-.16.75-.27s.34-.26.45-.44.22-.43.33-.73h-.33l-1.56-5.26h.93l1.22 4.63 1.22-4.63h.92l-1.59 5.28zM39.36 84.7h-.78l-.05-.79c-.37.61-.86.92-1.47.92-.42 0-.75-.14-.99-.41s-.36-.64-.36-1.11v-3.87h.9v3.79c0 .31.06.53.17.68s.29.21.53.21c.45 0 .83-.29 1.15-.88v-3.8h.9v5.26zm-1.16-7.97l.38.72-1.92.87-.26-.46 1.8-1.13zM46.75 79.73c.23.28.34.66.34 1.13v3.83h-.89v-3.73c0-.64-.21-.96-.62-.96-.4 0-.77.31-1.1.92v3.77h-.89v-3.73c0-.64-.21-.96-.62-.96-.41 0-.77.31-1.1.92v3.77h-.89v-5.26h.78l.07.77c.39-.6.85-.9 1.4-.9.29 0 .53.08.73.25.2.17.34.4.43.71.41-.64.89-.96 1.45-.96.38.01.68.15.91.43zM51.28 79.38l-.15.87c-.13-.04-.26-.06-.41-.06a.9.9 0 00-.72.35c-.18.23-.33.59-.43 1.07v3.09h-.9v-5.26h.78l.07 1.04c.26-.77.7-1.16 1.31-1.16.17 0 .32.02.45.06zM54.65 84.47c-.33.24-.7.36-1.11.36-.43 0-.75-.12-.99-.37-.23-.25-.34-.59-.34-1.04v-3.3h-.75v-.68h.75v-1.21l.9-.11v1.32h1.16l-.1.68h-1.06v3.29c0 .45.19.68.57.68.11 0 .22-.02.32-.05.1-.03.21-.08.33-.15l.32.58zM56.54 76.73l.38.72-1.92.87-.26-.46 1.8-1.13zm-.21 2.71v5.26h-.9v-5.26h.9z"/></g><g><path class="st32" d="M470.6 105.39h-1.4l-3.08-6.44c.04.51.08.97.1 1.4.03.43.04.95.04 1.56v3.48h-.98v-7.58h1.36l3.11 6.45c-.02-.19-.05-.52-.09-1-.04-.48-.05-.91-.05-1.31v-4.14h.98v7.58zM477.1 102.83h-3.7c.04.64.21 1.11.48 1.41s.64.45 1.08.45c.28 0 .54-.04.77-.12.23-.08.48-.21.74-.39l.44.6c-.62.48-1.29.73-2.02.73-.81 0-1.44-.26-1.89-.79-.45-.53-.68-1.25-.68-2.18 0-.6.1-1.13.29-1.6s.47-.83.84-1.09c.36-.26.79-.4 1.28-.4.77 0 1.36.25 1.77.76s.62 1.21.62 2.1c0 .18-.01.35-.02.52zm-.98-.81c0-.57-.11-1.01-.34-1.31-.23-.3-.57-.45-1.02-.45-.83 0-1.28.61-1.35 1.83h2.72v-.07zM485.7 99.94c.29.32.43.75.43 1.29v4.16h-1.01v-4.02c0-.75-.27-1.12-.81-1.12-.29 0-.53.08-.73.25s-.41.42-.64.78v4.11h-1.01v-4.02c0-.75-.27-1.12-.81-1.12-.29 0-.54.08-.74.25-.2.17-.41.43-.63.77v4.11h-1.01v-5.8h.87l.09.85c.43-.65.99-.98 1.67-.98.36 0 .67.09.92.28.25.18.43.44.54.77.23-.34.48-.6.75-.78.28-.18.6-.27.97-.27.48.01.87.17 1.15.49zM492.24 100.27c.45.54.68 1.28.68 2.21 0 .6-.1 1.13-.31 1.59-.21.46-.5.81-.89 1.07s-.85.38-1.39.38c-.81 0-1.45-.27-1.9-.81-.46-.54-.68-1.28-.68-2.21 0-.6.1-1.13.31-1.59s.5-.81.89-1.07c.39-.25.85-.38 1.4-.38.81 0 1.44.27 1.89.81zm-3.4 2.22c0 1.47.5 2.21 1.5 2.21s1.5-.74 1.5-2.22c0-1.47-.5-2.21-1.49-2.21-1.01 0-1.51.74-1.51 2.22zM497.65 99.61c.29.1.56.26.82.48l-.48.64c-.21-.15-.41-.25-.6-.32s-.41-.1-.64-.1c-.47 0-.83.19-1.09.56-.26.37-.39.93-.39 1.66 0 .73.13 1.27.39 1.62.26.35.62.52 1.1.52.23 0 .44-.03.63-.1s.4-.18.64-.34l.46.66c-.53.43-1.12.64-1.77.64-.79 0-1.4-.26-1.85-.79-.45-.53-.68-1.26-.68-2.19 0-.62.1-1.15.31-1.62.21-.46.5-.82.87-1.08s.83-.39 1.35-.39c.33 0 .64.05.93.15zM500.86 97c.13.13.2.3.2.49 0 .2-.07.36-.2.49s-.3.19-.52.19c-.21 0-.37-.06-.51-.19s-.2-.29-.2-.49.07-.36.2-.49.3-.2.51-.2c.22.01.39.07.52.2zm0 2.59v5.8h-1.01v-5.8h1.01zM509.94 100.27c.45.54.68 1.28.68 2.21 0 .6-.1 1.13-.31 1.59-.21.46-.5.81-.89 1.07s-.85.38-1.39.38c-.81 0-1.45-.27-1.9-.81-.46-.54-.68-1.28-.68-2.21 0-.6.1-1.13.31-1.59s.5-.81.89-1.07c.39-.25.85-.38 1.4-.38.81 0 1.44.27 1.89.81zm-3.4 2.22c0 1.47.5 2.21 1.5 2.21s1.5-.74 1.5-2.22c0-1.47-.5-2.21-1.49-2.21-1.01 0-1.51.74-1.51 2.22zM516.51 100.26c.39.53.58 1.27.58 2.23 0 .6-.09 1.13-.27 1.59-.18.46-.45.81-.79 1.07s-.75.38-1.21.38c-.61 0-1.12-.26-1.54-.77l-.1.64h-.89v-8.13l1.01-.12v3.18c.42-.57.96-.86 1.64-.86.66-.01 1.18.25 1.57.79zm-.88 3.91c.25-.36.38-.93.38-1.69 0-.78-.12-1.35-.35-1.7-.24-.35-.57-.52-1-.52-.51 0-.96.3-1.35.9v2.77c.15.24.34.43.57.57.22.14.46.21.71.21.43.01.79-.18 1.04-.54zM523.18 102.83h-3.7c.04.64.21 1.11.48 1.41.28.3.64.45 1.08.45.28 0 .54-.04.77-.12.23-.08.48-.21.74-.39l.44.6c-.62.48-1.29.73-2.02.73-.81 0-1.44-.26-1.89-.79-.45-.53-.68-1.25-.68-2.18 0-.6.1-1.13.29-1.6s.47-.83.84-1.09c.36-.26.79-.4 1.28-.4.77 0 1.36.25 1.77.76s.62 1.21.62 2.1c0 .18-.01.35-.02.52zm-.94-6.08l.43.49-1.49 1.24h-.67l-1.5-1.24.44-.49 1.39.92 1.4-.92zm-.04 5.27c0-.57-.11-1.01-.34-1.31-.23-.3-.57-.45-1.02-.45-.83 0-1.28.61-1.35 1.83h2.72v-.07zM528.78 99.93c.3.32.45.75.45 1.3v4.16h-1.01v-4.02c0-.41-.08-.7-.24-.87-.16-.17-.39-.25-.69-.25s-.57.09-.8.26c-.24.18-.46.43-.66.75v4.12h-1.01v-8.12l1.01-.11v3.23c.46-.62 1.03-.94 1.72-.94.52.02.94.18 1.23.49zM535.34 100.27c.45.54.68 1.28.68 2.21 0 .6-.1 1.13-.31 1.59s-.5.81-.89 1.07-.85.38-1.39.38c-.81 0-1.45-.27-1.9-.81-.46-.54-.68-1.28-.68-2.21 0-.6.1-1.13.31-1.59.21-.46.5-.81.89-1.07.39-.25.85-.38 1.4-.38.81 0 1.44.27 1.89.81zm-3.4 2.22c0 1.47.5 2.21 1.5 2.21s1.5-.74 1.5-2.22c0-1.47-.5-2.21-1.49-2.21-1.01 0-1.51.74-1.51 2.22zM541.95 99.59l-1.97 5.8h-1.22l-2-5.8h1.1l1.52 4.9 1.51-4.9h1.06zM547.46 102.83h-3.7c.04.64.21 1.11.48 1.41.28.3.64.45 1.08.45.28 0 .54-.04.77-.12s.48-.21.74-.39l.44.6c-.62.48-1.29.73-2.02.73-.81 0-1.44-.26-1.89-.79-.45-.53-.68-1.25-.68-2.18 0-.6.1-1.13.29-1.6s.47-.83.84-1.09c.36-.26.79-.4 1.28-.4.77 0 1.36.25 1.77.76.41.51.62 1.21.62 2.1 0 .18-.01.35-.02.52zm-.98-.81c0-.57-.11-1.01-.34-1.31s-.57-.45-1.02-.45c-.83 0-1.28.61-1.35 1.83h2.72v-.07zm-.49-5.44l.45.85-2.33.95-.31-.54 2.19-1.26zM554.65 99.62c.31.11.62.28.9.5l-.43.64c-.26-.17-.52-.29-.75-.37s-.49-.12-.75-.12c-.33 0-.59.07-.78.2s-.29.32-.29.56c0 .23.09.42.27.55.18.13.5.26.97.38.65.16 1.13.38 1.45.66.32.28.48.66.48 1.14 0 .57-.22 1.01-.67 1.31-.44.3-.98.45-1.62.45-.88 0-1.61-.25-2.19-.76l.54-.62c.49.37 1.03.56 1.63.56.38 0 .68-.08.91-.24s.34-.37.34-.64c0-.2-.04-.36-.12-.48-.08-.12-.22-.23-.42-.32a5.8 5.8 0 00-.87-.29c-.62-.16-1.06-.38-1.34-.65a1.41 1.41 0 01-.41-1.03c0-.3.09-.57.27-.82.18-.25.43-.44.75-.57.32-.14.68-.2 1.07-.2s.74.05 1.06.16zM561.22 100.27c.45.54.68 1.28.68 2.21 0 .6-.1 1.13-.31 1.59s-.5.81-.89 1.07-.85.38-1.39.38c-.81 0-1.45-.27-1.9-.81-.46-.54-.68-1.28-.68-2.21 0-.6.1-1.13.31-1.59.21-.46.5-.81.89-1.07.39-.25.85-.38 1.4-.38.81 0 1.44.27 1.89.81zm-3.4 2.22c0 1.47.5 2.21 1.5 2.21s1.5-.74 1.5-2.22c0-1.47-.5-2.21-1.49-2.21-1.01 0-1.51.74-1.51 2.22zM567.88 105.39h-.87l-.08-.9c-.22.36-.47.62-.76.79-.29.17-.63.25-1.04.25-.51 0-.9-.15-1.19-.46-.29-.31-.43-.74-.43-1.31V99.6h1.01v4.05c0 .4.07.68.21.84.14.17.37.25.68.25.56 0 1.05-.33 1.45-1V99.6h1.01v5.79zM572.61 99.62c.31.11.62.28.9.5l-.43.64c-.26-.17-.52-.29-.75-.37s-.49-.12-.75-.12c-.33 0-.59.07-.78.2s-.29.32-.29.56c0 .23.09.42.27.55.18.13.5.26.97.38.65.16 1.13.38 1.45.66.32.28.48.66.48 1.14 0 .57-.22 1.01-.67 1.31-.44.3-.98.45-1.62.45-.88 0-1.61-.25-2.19-.76l.54-.62c.49.37 1.03.56 1.63.56.38 0 .68-.08.91-.24s.34-.37.34-.64c0-.2-.04-.36-.12-.48-.08-.12-.22-.23-.42-.32a5.8 5.8 0 00-.87-.29c-.62-.16-1.06-.38-1.34-.65a1.41 1.41 0 01-.41-1.03c0-.3.09-.57.27-.82.18-.25.43-.44.75-.57.32-.14.68-.2 1.07-.2s.75.05 1.06.16zM578.04 105.12c-.38.26-.81.4-1.3.4s-.88-.14-1.15-.42c-.27-.28-.41-.69-.41-1.23v-3.5h-1.01v-.78h1.01v-1.31l1.01-.12v1.43h1.38l-.11.78h-1.27v3.45c0 .3.05.52.16.65.11.14.28.2.53.2.23 0 .48-.08.77-.23l.39.68zM583.11 104.56c.08.11.2.2.36.26l-.23.7c-.3-.04-.54-.12-.73-.25-.18-.13-.32-.34-.41-.62-.39.58-.96.87-1.73.87-.57 0-1.02-.16-1.35-.48s-.49-.74-.49-1.27c0-.62.22-1.09.67-1.42.44-.33 1.07-.49 1.89-.49h.89v-.43c0-.41-.1-.7-.3-.88-.2-.18-.5-.26-.91-.26-.43 0-.95.1-1.56.31l-.25-.74c.72-.26 1.39-.4 2-.4.68 0 1.19.17 1.53.5.34.33.51.81.51 1.42v2.65c-.01.24.03.41.11.53zm-1.14-.7v-1.33h-.76c-1.07 0-1.61.4-1.61 1.19 0 .34.08.6.25.78.17.18.42.26.75.26.59 0 1.04-.3 1.37-.9zM589.32 99.59l-1.97 5.8h-1.22l-2-5.8h1.1l1.52 4.9 1.51-4.9h1.06zM592.8 105.42c-.23.67-.54 1.21-.95 1.6-.41.39-.99.63-1.74.71l-.11-.79c.38-.07.69-.16.91-.29.23-.12.41-.28.54-.48s.26-.46.38-.79h-.34l-1.95-5.8h1.08l1.55 5.06 1.52-5.06h1.04l-1.93 5.84z"/></g><g><path class="st31" d="M470.6 248.71h-1.4l-3.08-6.44c.04.51.08.97.1 1.4.03.43.04.95.04 1.56v3.48h-.98v-7.58h1.36l3.11 6.45c-.02-.19-.05-.52-.09-1-.04-.48-.05-.91-.05-1.31v-4.14h.98v7.58zM477.1 246.16h-3.7c.04.64.21 1.11.48 1.41s.64.45 1.08.45c.28 0 .54-.04.77-.12.23-.08.48-.21.74-.38l.44.6c-.62.48-1.29.73-2.02.73-.81 0-1.44-.26-1.89-.79-.45-.53-.68-1.25-.68-2.18 0-.6.1-1.13.29-1.6s.47-.83.84-1.09c.36-.26.79-.4 1.28-.4.77 0 1.36.25 1.77.76s.62 1.21.62 2.1c0 .16-.01.33-.02.51zm-.98-.82c0-.57-.11-1.01-.34-1.31-.23-.3-.57-.45-1.02-.45-.83 0-1.28.61-1.35 1.83h2.72v-.07zM485.7 243.26c.29.32.43.75.43 1.29v4.16h-1.01v-4.02c0-.75-.27-1.12-.81-1.12-.29 0-.53.08-.73.25s-.41.42-.64.78v4.11h-1.01v-4.02c0-.75-.27-1.12-.81-1.12-.29 0-.54.08-.74.25-.2.17-.41.42-.63.77v4.11h-1.01v-5.8h.87l.09.85c.43-.65.99-.98 1.67-.98.36 0 .67.09.92.28s.43.44.54.77c.23-.34.48-.6.75-.78.28-.18.6-.27.97-.27.48.01.87.17 1.15.49zM492.24 243.59c.45.54.68 1.28.68 2.21 0 .6-.1 1.13-.31 1.59-.21.46-.5.81-.89 1.07s-.85.38-1.39.38c-.81 0-1.45-.27-1.9-.81-.46-.54-.68-1.28-.68-2.21 0-.6.1-1.13.31-1.59.21-.46.5-.81.89-1.07s.85-.38 1.4-.38c.81 0 1.44.27 1.89.81zm-3.4 2.22c0 1.47.5 2.21 1.5 2.21s1.5-.74 1.5-2.22c0-1.47-.5-2.21-1.49-2.21-1.01 0-1.51.74-1.51 2.22zM497.65 242.93c.29.1.56.26.82.48l-.48.64c-.21-.15-.41-.25-.6-.32s-.41-.1-.64-.1c-.47 0-.83.19-1.09.56s-.39.93-.39 1.66.13 1.27.39 1.62c.26.35.62.52 1.1.52.23 0 .44-.03.63-.1s.4-.18.64-.33l.46.66c-.53.42-1.12.64-1.77.64-.79 0-1.4-.26-1.85-.79-.45-.53-.68-1.26-.68-2.19 0-.62.1-1.15.31-1.62.21-.46.5-.82.87-1.08s.83-.39 1.35-.39c.33-.01.64.04.93.14zM500.86 240.33c.13.13.2.3.2.49 0 .2-.07.36-.2.49s-.3.19-.52.19c-.21 0-.37-.06-.51-.19a.663.663 0 01-.2-.49c0-.2.07-.36.2-.49s.3-.2.51-.2c.22 0 .39.06.52.2zm0 2.58v5.8h-1.01v-5.8h1.01zM509.83 243.25c.3.32.45.75.45 1.3v4.16h-1.01v-4.02c0-.41-.08-.7-.23-.87-.15-.17-.38-.25-.68-.25-.31 0-.58.09-.81.26s-.46.43-.66.76v4.11h-1.01v-5.8h.87l.09.86c.21-.31.46-.55.76-.73.3-.18.64-.26 1.01-.26.51.01.92.17 1.22.48zM516.67 246.16h-3.7c.04.64.21 1.11.48 1.41.28.3.64.45 1.08.45.28 0 .54-.04.77-.12.24-.08.48-.21.74-.38l.44.6c-.62.48-1.29.73-2.02.73-.81 0-1.44-.26-1.89-.79-.45-.53-.68-1.25-.68-2.18 0-.6.1-1.13.29-1.6s.47-.83.84-1.09c.36-.26.79-.4 1.28-.4.77 0 1.36.25 1.77.76.41.51.62 1.21.62 2.1 0 .16-.01.33-.02.51zm-.98-.82c0-.57-.11-1.01-.34-1.31-.23-.3-.57-.45-1.02-.45-.83 0-1.28.61-1.35 1.83h2.72v-.07zM521.4 242.84l-.19.99c-.18-.04-.34-.07-.51-.07-.36 0-.65.13-.87.4-.22.26-.39.67-.52 1.23v3.31h-1.01v-5.8h.87l.1 1.18c.15-.43.36-.76.63-.98.26-.22.57-.33.92-.33.21.01.4.03.58.07zM526.81 242.91l-1.97 5.8h-1.22l-2-5.8h1.1l1.52 4.89 1.51-4.89h1.06zM532.04 243.59c.45.54.68 1.28.68 2.21 0 .6-.1 1.13-.31 1.59-.21.46-.5.81-.89 1.07s-.85.38-1.39.38c-.81 0-1.45-.27-1.9-.81-.45-.54-.68-1.28-.68-2.21 0-.6.1-1.13.31-1.59.21-.46.5-.81.89-1.07s.85-.38 1.4-.38c.81 0 1.44.27 1.89.81zm-3.41 2.22c0 1.47.5 2.21 1.5 2.21s1.5-.74 1.5-2.22c0-1.47-.5-2.21-1.49-2.21-1 0-1.51.74-1.51 2.22zM538.64 242.91l-1.97 5.8h-1.22l-2-5.8h1.1l1.52 4.89 1.51-4.89h1.06zM544.16 246.16h-3.7c.04.64.21 1.11.48 1.41.28.3.64.45 1.08.45.28 0 .54-.04.77-.12.23-.08.48-.21.74-.38l.44.6c-.62.48-1.29.73-2.02.73-.81 0-1.44-.26-1.89-.79-.45-.53-.68-1.25-.68-2.18 0-.6.1-1.13.29-1.6s.47-.83.84-1.09c.36-.26.79-.4 1.28-.4.77 0 1.36.25 1.77.76s.62 1.21.62 2.1c0 .16-.01.33-.02.51zm-.98-.82c0-.57-.11-1.01-.34-1.31-.23-.3-.57-.45-1.02-.45-.83 0-1.28.61-1.35 1.83h2.72v-.07zm-.49-5.44l.45.85-2.33.95-.31-.54 2.19-1.26zM551.35 242.94c.32.11.62.28.9.5l-.43.64c-.26-.17-.51-.29-.75-.37-.24-.08-.49-.12-.75-.12-.33 0-.59.07-.78.2-.19.14-.29.32-.29.56s.09.42.27.55.5.26.97.38c.65.16 1.13.38 1.45.66.32.28.48.66.48 1.14 0 .57-.22 1.01-.67 1.31s-.98.45-1.62.45c-.88 0-1.61-.25-2.19-.76l.54-.62c.49.37 1.03.56 1.63.56.38 0 .68-.08.91-.24.22-.16.34-.37.34-.64 0-.2-.04-.36-.12-.48-.08-.12-.22-.23-.42-.32s-.49-.19-.87-.29c-.62-.16-1.06-.38-1.34-.65s-.41-.62-.41-1.03c0-.3.09-.57.27-.82.18-.25.43-.44.75-.57s.68-.2 1.07-.2.74.05 1.06.16zM557.92 243.59c.45.54.68 1.28.68 2.21 0 .6-.1 1.13-.31 1.59-.21.46-.5.81-.89 1.07s-.85.38-1.39.38c-.81 0-1.45-.27-1.9-.81-.45-.54-.68-1.28-.68-2.21 0-.6.1-1.13.31-1.59.21-.46.5-.81.89-1.07s.85-.38 1.4-.38c.81 0 1.44.27 1.89.81zm-3.4 2.22c0 1.47.5 2.21 1.5 2.21s1.5-.74 1.5-2.22c0-1.47-.5-2.21-1.49-2.21-1.01 0-1.51.74-1.51 2.22zM564.58 248.71h-.87l-.08-.9c-.22.36-.47.62-.76.79-.29.17-.63.25-1.05.25-.51 0-.9-.15-1.19-.46-.29-.31-.43-.74-.43-1.31v-4.16h1.01v4.05c0 .4.07.68.21.84.14.17.37.25.68.25.56 0 1.05-.33 1.45-1v-4.14h1.01v5.79zM569.31 242.94c.32.11.62.28.9.5l-.43.64c-.26-.17-.51-.29-.75-.37-.24-.08-.49-.12-.75-.12-.33 0-.59.07-.78.2-.19.14-.29.32-.29.56s.09.42.27.55.5.26.97.38c.65.16 1.13.38 1.45.66.32.28.48.66.48 1.14 0 .57-.22 1.01-.67 1.31s-.98.45-1.62.45c-.88 0-1.61-.25-2.19-.76l.54-.62c.49.37 1.03.56 1.63.56.38 0 .68-.08.91-.24.22-.16.34-.37.34-.64 0-.2-.04-.36-.12-.48-.08-.12-.22-.23-.42-.32s-.49-.19-.87-.29c-.62-.16-1.06-.38-1.34-.65s-.41-.62-.41-1.03c0-.3.09-.57.27-.82.18-.25.43-.44.75-.57s.68-.2 1.07-.2.75.05 1.06.16zM574.74 248.44c-.38.26-.81.4-1.3.4s-.88-.14-1.15-.42c-.28-.28-.41-.69-.41-1.23v-3.5h-1.01v-.78h1.01v-1.31l1.01-.12v1.43h1.38l-.11.78h-1.26v3.45c0 .3.05.52.16.65.11.14.28.2.53.2.23 0 .48-.08.77-.23l.38.68zM579.81 247.88c.08.11.2.2.36.26l-.23.7c-.3-.04-.54-.12-.73-.25-.18-.13-.32-.34-.41-.62-.39.58-.96.87-1.73.87-.57 0-1.02-.16-1.35-.48-.33-.32-.5-.74-.5-1.26 0-.62.22-1.09.67-1.42.44-.33 1.07-.5 1.89-.5h.89v-.43c0-.41-.1-.7-.3-.88-.2-.18-.5-.26-.91-.26-.42 0-.95.1-1.56.31l-.25-.74c.72-.26 1.39-.4 2-.4.68 0 1.19.17 1.53.5.34.33.51.81.51 1.42v2.65c0 .24.04.41.12.53zm-1.14-.7v-1.33h-.76c-1.07 0-1.61.4-1.61 1.19 0 .34.08.6.25.78.17.18.42.26.75.26.59 0 1.04-.3 1.37-.9zM586.02 242.91l-1.97 5.8h-1.22l-2-5.8h1.1l1.52 4.89 1.51-4.89h1.06zM589.5 248.74c-.23.67-.54 1.21-.95 1.6-.41.39-.99.63-1.74.71l-.11-.79c.38-.07.69-.16.91-.29.23-.12.41-.28.54-.48s.26-.46.38-.79h-.34l-1.95-5.8h1.08l1.55 5.06 1.52-5.06h1.04l-1.93 5.84z"/></g><g><path class="st40" d="M469.6 182.52c.46.3.82.74 1.08 1.33.26.59.38 1.29.38 2.12 0 .81-.13 1.51-.38 2.1s-.61 1.03-1.07 1.33c-.46.3-1 .46-1.63.46-.61 0-1.14-.15-1.61-.45s-.82-.74-1.08-1.32-.38-1.28-.38-2.1c0-.81.13-1.51.38-2.1.26-.59.62-1.03 1.08-1.34.46-.31 1-.46 1.6-.46.63-.02 1.17.13 1.63.43zm-3.36.96c-.43.56-.64 1.4-.64 2.5 0 1.09.21 1.92.64 2.47.43.56 1.01.84 1.73.84.76 0 1.34-.28 1.76-.83s.63-1.38.63-2.49c0-1.11-.21-1.95-.63-2.5s-1.01-.83-1.75-.83c-.73-.01-1.31.28-1.74.84zM475.34 184.02c.29.11.58.27.86.48l-.3.42a3.06 3.06 0 00-.75-.4c-.23-.08-.49-.13-.77-.13-.38 0-.69.09-.92.26s-.35.41-.35.7c0 .28.1.5.3.65.2.15.57.3 1.09.44.65.17 1.12.38 1.41.64.29.26.43.62.43 1.1 0 .51-.2.92-.59 1.22s-.89.45-1.48.45c-.44 0-.83-.06-1.16-.19a3.17 3.17 0 01-.9-.54l.35-.41c.26.21.52.36.79.46.27.1.57.15.91.15.43 0 .77-.1 1.03-.29.26-.19.39-.46.39-.81 0-.23-.04-.42-.13-.57-.09-.15-.24-.27-.45-.38s-.52-.21-.93-.32c-.61-.16-1.05-.36-1.31-.61-.27-.24-.4-.56-.4-.97 0-.29.08-.54.25-.78.17-.23.4-.41.69-.54.29-.13.61-.19.97-.19.35 0 .68.05.97.16zM480.67 189.49c-.37.24-.77.36-1.21.36-.44 0-.79-.13-1.03-.39-.25-.26-.37-.64-.37-1.13v-3.84h-.97v-.52h.97v-1.38l.64-.08v1.45h1.49l-.08.52h-1.41v3.81c0 .34.07.59.21.75s.35.25.64.25c.29 0 .59-.08.88-.25l.24.45zM485.5 189.1c.08.13.2.23.37.3l-.14.45c-.26-.05-.47-.15-.61-.3s-.24-.37-.28-.67c-.4.65-.99.97-1.79.97-.55 0-.98-.16-1.3-.47-.32-.31-.48-.73-.48-1.25 0-.59.21-1.05.63-1.38.42-.32 1.01-.48 1.75-.48h1.1v-.56c0-.46-.1-.8-.31-1.01s-.55-.31-1.02-.31c-.44 0-.96.11-1.56.33l-.17-.48c.65-.26 1.25-.38 1.82-.38 1.25 0 1.88.61 1.88 1.83v2.77c-.01.29.03.51.11.64zm-.76-.78v-1.58h-1c-.59 0-1.03.11-1.34.34-.31.23-.46.57-.46 1.02 0 .4.11.7.32.91.21.21.51.32.89.32.69 0 1.22-.33 1.59-1.01zM490.32 189.49c-.37.24-.77.36-1.21.36-.44 0-.78-.13-1.03-.39s-.38-.64-.38-1.13v-3.84h-.97v-.52h.97v-1.38l.64-.08v1.45h1.48l-.08.52h-1.41v3.81c0 .34.07.59.21.75.14.17.35.25.64.25.29 0 .59-.08.88-.25l.26.45zM495.19 184.32c.27.31.41.74.41 1.3v4.11h-.64v-4.03c0-.46-.09-.8-.28-1.01s-.45-.32-.81-.32c-.37 0-.69.1-.97.3s-.55.5-.81.89v4.17h-.64v-5.75h.55l.07.98c.23-.34.51-.61.84-.81.32-.19.69-.29 1.09-.29.52 0 .91.15 1.19.46zM499.02 181.13l.29.57-2.14.93-.21-.37 2.06-1.13zm-.5 2.85v5.75h-.64v-5.75h.64zM506.3 184.02c.29.11.58.27.86.48l-.3.42c-.26-.18-.51-.32-.75-.4s-.49-.13-.77-.13c-.38 0-.69.09-.92.26-.24.18-.35.41-.35.7 0 .28.1.5.3.65.2.15.57.3 1.09.44.65.17 1.12.38 1.41.64s.43.62.43 1.1c0 .51-.2.92-.59 1.22-.4.3-.89.45-1.49.45-.44 0-.83-.06-1.16-.19a3.17 3.17 0 01-.9-.54l.35-.41c.26.21.52.36.79.46.27.1.57.15.91.15.42 0 .77-.1 1.03-.29s.39-.46.39-.81c0-.23-.04-.42-.13-.57-.09-.15-.24-.27-.45-.38s-.52-.21-.94-.32c-.61-.16-1.05-.36-1.31-.61s-.4-.56-.4-.97c0-.29.08-.54.25-.78.17-.23.4-.41.69-.54.29-.13.61-.19.97-.19s.7.05.99.16zM509.66 181.56v8.17h-.64v-8.1l.64-.07zm3.22 2.42l-2.42 2.57 2.67 3.18h-.77l-2.64-3.15 2.42-2.61h.74zM518.43 189.73h-.55l-.03-1.02c-.46.76-1.08 1.14-1.88 1.14-.52 0-.92-.15-1.21-.46-.28-.3-.42-.74-.42-1.3v-4.11h.64v4.05c0 .45.09.78.28.98s.47.31.85.31c.67 0 1.23-.39 1.68-1.18v-4.17h.64v5.76zM524.7 184.63c.35.52.52 1.25.52 2.19 0 .92-.19 1.66-.57 2.21-.38.55-.92.82-1.62.82-.34 0-.66-.07-.93-.21-.28-.14-.51-.34-.7-.58v2.84l-.64.09v-8.01h.55l.05.84a2.148 2.148 0 011.78-.95c.69-.01 1.21.24 1.56.76zm-.58 4.06c.28-.42.42-1.04.42-1.86 0-1.63-.51-2.44-1.53-2.44-.35 0-.64.09-.9.26-.25.18-.49.42-.72.73v3.06c.38.59.89.88 1.52.88.53-.01.94-.22 1.21-.63zM527.81 181.58c.09.09.13.2.13.33s-.04.24-.13.33c-.09.09-.21.13-.35.13a.445.445 0 01-.47-.46.445.445 0 01.47-.46c.14 0 .26.04.35.13zm-.02 2.4v5.75h-.64v-5.75h.64zM533.85 184.32c.28.31.41.74.41 1.3v4.11h-.64v-4.03c0-.46-.09-.8-.27-1.01-.18-.21-.46-.32-.81-.32-.37 0-.69.1-.97.3s-.55.5-.81.89v4.17h-.64v-5.75h.55l.07.98c.23-.34.51-.61.84-.81.32-.19.69-.29 1.09-.29.51 0 .91.15 1.18.46zM538.38 189.75c-.15.45-.32.81-.51 1.1-.18.29-.42.52-.71.71-.29.19-.67.32-1.13.41l-.07-.5c.38-.1.68-.21.9-.35.22-.14.39-.31.52-.52.13-.21.26-.5.39-.87h-.22l-2-5.75h.69l1.74 5.28 1.71-5.28h.67l-1.98 5.77zM548.7 184.63c.35.52.52 1.25.52 2.19 0 .92-.19 1.66-.57 2.21-.38.55-.92.82-1.62.82-.34 0-.66-.07-.94-.21-.28-.14-.51-.34-.7-.58v2.84l-.64.09v-8.01h.55l.05.84a2.148 2.148 0 011.78-.95c.7-.01 1.23.24 1.57.76zm-.57 4.06c.28-.42.42-1.04.42-1.86 0-1.63-.51-2.44-1.53-2.44-.34 0-.64.09-.9.26s-.49.42-.72.73v3.06c.38.59.89.88 1.52.88.52-.01.93-.22 1.21-.63zM553.88 181.27l.29.33-1.42 1.17h-.4l-1.43-1.17.29-.33 1.34.92 1.33-.92zm.08 2.65l-.12.61c-.16-.04-.33-.07-.51-.07-.39 0-.7.14-.94.42s-.44.72-.6 1.33v3.52h-.64v-5.75h.55l.05 1.29c.15-.48.37-.83.63-1.06.27-.23.6-.35 1-.35.23 0 .42.02.58.06zM556.4 181.13l.29.57-2.14.93-.21-.37 2.06-1.13zm-.51 2.85v5.75h-.64v-5.75h.64zM561.07 183.99c.26.09.51.24.75.45l-.32.42c-.19-.15-.39-.27-.59-.34s-.43-.11-.69-.11c-.54 0-.98.21-1.3.63-.32.42-.48 1.04-.48 1.84s.16 1.4.48 1.8c.32.4.75.6 1.29.6.26 0 .49-.04.7-.12.21-.08.42-.2.63-.36l.31.43c-.48.41-1.03.62-1.65.62-.49 0-.92-.12-1.29-.35-.37-.23-.65-.57-.85-1.02-.2-.44-.3-.97-.3-1.59 0-.61.1-1.14.3-1.6.2-.46.49-.81.85-1.06.37-.25.79-.37 1.28-.37.33 0 .63.04.88.13zm.47-2.72l.29.33-1.42 1.17h-.4l-1.43-1.17.29-.33 1.34.92 1.33-.92zM564.04 181.58c.09.09.13.2.13.33s-.04.24-.13.33-.21.13-.35.13a.445.445 0 01-.47-.46.445.445 0 01.47-.46c.15 0 .27.04.35.13zm-.02 2.4v5.75h-.64v-5.75h.64zM570.09 184.32c.28.31.41.74.41 1.3v4.11h-.64v-4.03c0-.46-.09-.8-.28-1.01-.18-.21-.45-.32-.81-.32-.37 0-.69.1-.97.3s-.55.5-.81.89v4.17h-.64v-5.75h.55l.07.98c.23-.34.51-.61.84-.81.32-.19.69-.29 1.09-.29.51 0 .91.15 1.19.46zM579.88 189.73h-.55l-.03-1.02c-.46.76-1.08 1.14-1.88 1.14-.52 0-.92-.15-1.2-.46-.28-.3-.42-.74-.42-1.3v-4.11h.64v4.05c0 .45.09.78.28.98s.47.31.85.31c.67 0 1.23-.39 1.68-1.18v-4.17h.64v5.76zm-1.22-8.6l.29.57-2.14.93-.21-.37 2.06-1.13zM588.92 184.33c.27.32.4.74.4 1.29v4.11h-.64v-4.03c0-.45-.09-.79-.26-1.01-.17-.22-.41-.32-.72-.32-.32 0-.61.1-.87.31s-.51.5-.75.88v4.17h-.64v-4.03c0-.45-.09-.79-.26-1.01-.17-.22-.41-.32-.72-.32-.33 0-.62.1-.88.31s-.5.5-.74.88v4.17h-.64v-5.75h.55l.05.98c.22-.34.48-.61.78-.81.3-.19.63-.29.99-.29.37 0 .67.1.92.3.25.2.42.48.51.84.23-.36.49-.64.8-.84.3-.2.64-.3 1.01-.3.48 0 .84.15 1.11.47zM594.4 183.92l-.12.61c-.16-.04-.33-.07-.51-.07-.39 0-.7.14-.94.42s-.44.72-.6 1.33v3.52h-.64v-5.75h.55l.05 1.29c.15-.48.37-.83.63-1.06.27-.23.6-.35 1-.35.24 0 .43.02.58.06zM598.32 189.49c-.37.24-.77.36-1.21.36-.44 0-.79-.13-1.03-.39-.25-.26-.37-.64-.37-1.13v-3.84h-.97v-.52h.97v-1.38l.64-.08v1.45h1.49l-.08.52h-1.41v3.81c0 .34.07.59.21.75.14.17.35.25.64.25.29 0 .59-.08.88-.25l.24.45zM600.6 181.13l.29.57-2.14.93-.21-.37 2.06-1.13zm-.51 2.85v5.75h-.64v-5.75h.64z"/></g><path class="st27" d="M38.74 150.88h2"/><g><path class="st23" d="M13.75 100.22c.33.39.49.96.49 1.71 0 .54-.08 1.01-.25 1.4s-.39.68-.69.88c-.29.2-.63.3-1.01.3-.73 0-1.27-.3-1.61-.91-.34-.61-.51-1.44-.51-2.5 0-.87.1-1.61.29-2.23.19-.62.47-1.1.83-1.42s.78-.49 1.28-.49c.45 0 .86.14 1.24.43l-.27.42c-.3-.22-.63-.33-.98-.33-.54 0-.96.29-1.27.87-.31.58-.48 1.36-.51 2.35.44-.71 1-1.07 1.68-1.07.54 0 .96.19 1.29.59zm-.46 3.23c.23-.36.34-.86.34-1.5 0-.62-.11-1.08-.33-1.38-.22-.29-.52-.44-.9-.44-.32 0-.62.11-.9.32-.27.22-.51.52-.7.9.01.87.14 1.53.38 1.97.24.44.61.67 1.12.67.43.01.76-.18.99-.54zM19.64 100.74c0 2.51-.69 3.77-2.08 3.77-.69 0-1.21-.31-1.56-.94s-.53-1.57-.53-2.84c0-2.51.7-3.77 2.09-3.77 1.38 0 2.08 1.26 2.08 3.78zm-3.17-2.49c-.24.52-.36 1.34-.36 2.48s.12 1.97.36 2.49c.24.52.6.78 1.09.78.48 0 .84-.26 1.08-.78.24-.52.36-1.34.36-2.48s-.12-1.97-.36-2.49c-.24-.52-.6-.78-1.08-.78-.49 0-.85.26-1.09.78zM26.5 104.15c-.34.24-.7.36-1.1.36-.4 0-.72-.12-.95-.36-.23-.24-.34-.58-.34-1.02v-3.98h-.87v-.51h.87v-1.38l.62-.08v1.45h1.33l-.08.51h-1.25v3.96c0 .59.25.88.74.88.25 0 .51-.08.78-.24l.25.41zM28.14 96.25c.08.09.13.19.13.32s-.04.24-.13.32-.19.13-.32.13-.24-.04-.32-.13a.445.445 0 01-.13-.32c0-.12.04-.23.13-.32.08-.09.19-.13.32-.13s.24.04.32.13zm-.01 2.39v5.75h-.62v-5.75h.62zM32.38 98.68c.26.11.52.27.77.48l-.29.4c-.23-.18-.46-.32-.67-.4s-.44-.13-.69-.13c-.34 0-.62.09-.83.26s-.31.42-.31.73c0 .27.09.49.28.64.18.16.51.31.99.47.59.19 1.02.41 1.28.67s.39.61.39 1.06c0 .51-.18.91-.54 1.21-.36.3-.81.45-1.35.45-.39 0-.73-.06-1.03-.19s-.58-.31-.84-.54l.34-.37c.23.2.47.35.71.45.24.1.51.15.82.15.37 0 .68-.1.91-.3.23-.2.35-.47.35-.83 0-.23-.04-.42-.12-.57-.08-.14-.21-.27-.41-.38s-.47-.22-.84-.34c-.56-.18-.96-.38-1.19-.63s-.36-.55-.36-.94c0-.29.08-.54.23-.77.15-.23.36-.41.63-.54.27-.13.56-.2.89-.2.32 0 .62.05.88.16zM35.21 103.65c.1.1.14.22.14.36s-.05.26-.14.36c-.09.1-.22.15-.36.15s-.27-.05-.36-.15c-.09-.1-.14-.22-.14-.36s.05-.26.14-.36c.09-.1.21-.15.36-.15s.27.05.36.15z"/></g><path class="st27" d="M38.74 100.74h2M38.74 201.07h2M38.74 251.09h2"/><g><path class="st34" d="M455.08 261.09v2M410.08 261.09v2M365.08 261.09v2M320.08 261.09v2M275.08 261.09v2M230.08 261.09v2M185.08 261.09v2M140.08 261.09v2M95.08 261.09v2M50.08 261.09v2"/></g><g><path class="st32" d="M275.21 137.33v1.38h1.34v.91h-1.34V141h-.99v-1.38h-1.33v-.91h1.33v-1.38h.99zM279.6 136.09v6.06h-1.13v-4.9l-1.35.82-.5-.77 1.97-1.21h1.01zM285.24 140.52c0 .33-.09.63-.28.9-.19.27-.45.48-.79.63-.34.16-.73.23-1.18.23-.44 0-.83-.08-1.16-.23a1.85 1.85 0 01-.77-.63c-.18-.26-.27-.56-.27-.89 0-.7.38-1.21 1.15-1.53-.61-.33-.91-.81-.91-1.43 0-.32.09-.6.26-.84.18-.24.42-.43.72-.56.3-.13.63-.19.99-.19.37 0 .7.06 1 .18s.54.3.72.53c.18.23.27.51.27.84 0 .57-.33 1.03-1 1.37.83.37 1.25.91 1.25 1.62zm-1.45.65a.84.84 0 00.28-.66c0-.28-.08-.49-.24-.65-.16-.16-.45-.31-.86-.46l-.28-.1c-.49.26-.73.66-.73 1.2 0 .29.1.51.29.68.19.17.45.25.77.25s.58-.09.77-.26zm-1.41-4.17c-.15.14-.23.34-.23.59 0 .24.07.43.22.57.14.14.37.27.69.38l.17.06c.23-.14.4-.3.5-.46.1-.16.15-.35.15-.57 0-.25-.08-.44-.23-.58-.15-.14-.36-.21-.64-.21-.27.01-.48.08-.63.22zM291.01 136.09v6.06h-1.13v-4.9l-1.35.82-.5-.77 1.97-1.21h1.01zM295.68 138.34c.26.15.47.38.62.67.15.3.22.65.22 1.07 0 .42-.09.8-.26 1.13s-.42.59-.73.78c-.32.19-.67.28-1.08.28-.74 0-1.29-.26-1.65-.78-.36-.52-.54-1.24-.54-2.15 0-.67.1-1.26.3-1.77.2-.51.49-.9.86-1.18.38-.28.81-.42 1.32-.42.5 0 .94.13 1.32.39l-.43.71a1.73 1.73 0 00-.87-.24c-.38 0-.69.17-.92.52-.23.35-.36.82-.39 1.43.37-.44.82-.67 1.36-.67.32 0 .61.08.87.23zm-.55 2.73c.15-.24.23-.56.23-.97 0-.41-.07-.71-.21-.89-.14-.18-.35-.27-.62-.27-.2 0-.4.06-.58.17-.18.11-.35.26-.49.45.01.65.09 1.13.25 1.42.15.29.4.44.74.44.3.01.53-.11.68-.35zM300.63 138.34c.26.15.47.38.62.67.15.3.23.65.23 1.07 0 .42-.09.8-.26 1.13-.17.33-.42.59-.73.78-.31.19-.67.28-1.08.28-.74 0-1.29-.26-1.65-.78-.36-.52-.54-1.24-.54-2.15 0-.67.1-1.26.3-1.77s.49-.9.86-1.18c.38-.28.81-.42 1.32-.42.5 0 .94.13 1.32.39l-.43.71a1.73 1.73 0 00-.87-.24c-.38 0-.69.17-.92.52-.23.35-.36.82-.39 1.43.37-.44.82-.67 1.36-.67.31 0 .6.08.86.23zm-.55 2.73c.15-.24.23-.56.23-.97 0-.41-.07-.71-.21-.89s-.35-.27-.62-.27c-.2 0-.4.06-.58.17-.18.11-.35.26-.49.45.01.65.09 1.13.25 1.42.15.29.4.44.74.44.3.01.53-.11.68-.35zM281.69 151h-3.14c.03.61.18 1.07.44 1.36s.6.45 1.03.45c.25 0 .46-.04.65-.11s.39-.19.62-.36l.24.33c-.23.19-.47.34-.72.43-.25.1-.52.14-.82.14-.62 0-1.11-.21-1.47-.64-.35-.43-.53-1.02-.53-1.77 0-.5.08-.93.23-1.31.15-.38.37-.67.66-.87s.62-.31 1-.31c.6 0 1.06.2 1.37.61.31.41.47.96.47 1.67l-.03.38zm-.49-.54c0-.53-.11-.94-.33-1.24s-.54-.45-.98-.45c-.39 0-.71.15-.95.45-.24.3-.37.76-.4 1.37h2.65v-.13zM286.32 148.44l-1.63 4.71h-.65l-1.68-4.71h.58l1.43 4.25 1.4-4.25h.55zM287.95 146.48c.07.07.11.16.11.27 0 .11-.04.2-.11.27a.4.4 0 01-.29.11c-.11 0-.21-.04-.28-.11a.37.37 0 01-.11-.27c0-.11.04-.2.11-.27s.17-.11.28-.11c.12 0 .21.04.29.11zm-.02 1.96v4.71h-.52v-4.71h.52zM293.19 146.52v6.62h-.45l-.06-.72c-.32.55-.79.82-1.41.82-.55 0-.98-.22-1.29-.65-.31-.43-.47-1.03-.47-1.78 0-.49.07-.92.22-1.29s.36-.66.64-.87c.28-.21.61-.32.99-.32.53 0 .97.21 1.32.64v-2.52l.51.07zm-1.08 6.08c.21-.14.39-.36.56-.66v-2.46c-.34-.47-.75-.71-1.23-.71-.43 0-.76.18-1.01.53-.25.35-.37.85-.36 1.5 0 .65.11 1.14.34 1.49.23.34.54.52.95.52.29 0 .54-.07.75-.21zM298.18 148.98c.35.43.53 1.03.53 1.8 0 .76-.18 1.36-.54 1.8-.36.44-.84.66-1.46.66s-1.11-.22-1.46-.65c-.35-.43-.53-1.03-.53-1.8 0-.5.08-.93.24-1.3.16-.37.39-.66.69-.85.3-.2.65-.3 1.06-.3.63 0 1.12.21 1.47.64zm-2.52.31c-.25.34-.38.84-.38 1.5 0 .65.12 1.15.37 1.49s.6.51 1.06.51.81-.17 1.07-.51.38-.85.38-1.51c0-.65-.12-1.15-.37-1.49s-.6-.51-1.07-.51c-.46.01-.81.18-1.06.52zM303.36 148.44l-1.63 4.71h-.65l-1.68-4.71h.58l1.43 4.25 1.4-4.25h.55zM307.35 152.63c.06.11.16.19.3.24l-.12.37a.905.905 0 01-.5-.24c-.12-.12-.19-.3-.23-.55-.32.53-.81.79-1.47.79-.45 0-.8-.13-1.07-.38-.26-.25-.39-.59-.39-1.02 0-.49.17-.86.52-1.12.34-.26.82-.4 1.44-.4h.9v-.46c0-.38-.08-.65-.25-.82s-.45-.26-.84-.26c-.36 0-.79.09-1.28.27l-.13-.4c.53-.21 1.02-.32 1.48-.32 1.03 0 1.54.5 1.54 1.49v2.27c.01.26.04.44.1.54zm-.61-.64v-1.3h-.82c-.48 0-.85.09-1.1.28-.25.19-.38.46-.38.84 0 .32.09.57.26.75s.42.26.73.26c.57 0 1-.27 1.31-.83zM312.21 148.72c.22.25.34.61.34 1.06v3.37h-.52v-3.29c0-.38-.08-.65-.22-.83-.15-.17-.37-.26-.67-.26-.3 0-.57.08-.8.25-.23.17-.45.41-.66.72v3.41h-.52v-4.71h.45l.05.8c.19-.28.42-.5.68-.66.26-.16.56-.24.89-.24.43 0 .76.13.98.38zM315.84 153.16c-.13.37-.26.67-.41.9-.15.23-.34.43-.58.58-.24.15-.55.27-.93.34l-.05-.41c.31-.08.56-.17.73-.29s.32-.26.42-.43c.1-.17.21-.41.32-.71h-.18l-1.64-4.71h.57l1.42 4.32 1.4-4.32h.55l-1.62 4.73zm.32-7.05l.23.47-1.76.76-.17-.31 1.7-.92zM320.86 148.45c.21.08.41.2.61.36l-.26.34a1.71 1.71 0 00-.48-.28c-.17-.06-.35-.09-.56-.09-.44 0-.8.17-1.06.52s-.4.85-.4 1.51c0 .65.13 1.15.39 1.48.26.33.61.5 1.06.5.21 0 .4-.03.57-.1.17-.07.34-.17.52-.3l.25.35c-.4.34-.85.5-1.35.5-.4 0-.75-.1-1.05-.29-.3-.19-.53-.47-.7-.83-.17-.36-.25-.8-.25-1.3s.08-.93.25-1.31c.16-.38.4-.66.7-.87.3-.2.65-.31 1.04-.31.27.01.51.05.72.12zM325.8 148.72c.23.25.34.61.34 1.06v3.37h-.52v-3.29c0-.73-.3-1.09-.89-1.09-.3 0-.57.08-.8.25-.23.17-.45.41-.66.72v3.41h-.52v-6.62l.52-.06v2.76c.42-.59.94-.88 1.56-.88.42-.01.74.12.97.37zM333.82 153.15h-.45l-.03-.84c-.37.62-.88.94-1.54.94-.43 0-.75-.12-.99-.37-.23-.25-.35-.6-.35-1.07v-3.37h.52v3.31c0 .37.08.63.23.81s.39.26.7.26c.55 0 1-.32 1.38-.96v-3.41h.52v4.7zm-1-7.04l.23.47-1.76.76-.17-.31 1.7-.92zM341.21 148.73c.22.26.33.61.33 1.05v3.37h-.52v-3.29c0-.37-.07-.65-.21-.82-.14-.18-.34-.26-.59-.26-.26 0-.5.08-.71.25s-.41.41-.61.72v3.41h-.52v-3.29c0-.37-.07-.65-.21-.82-.14-.18-.34-.26-.59-.26-.27 0-.51.08-.72.25s-.41.41-.6.72v3.41h-.52v-4.71h.45l.05.8c.18-.28.39-.5.64-.66.25-.16.52-.24.81-.24.3 0 .55.08.76.25.2.17.34.39.41.69.19-.29.4-.52.65-.69.25-.17.52-.25.82-.25.36-.02.66.11.88.37zM345.7 148.39l-.1.5c-.13-.04-.27-.05-.41-.05-.32 0-.57.12-.77.35-.19.23-.36.59-.49 1.08v2.88h-.52v-4.71h.45l.05 1.05c.13-.39.3-.68.52-.87.22-.19.49-.28.81-.28.18 0 .33.02.46.05zM348.9 152.95c-.3.2-.63.3-.99.3s-.64-.11-.85-.32c-.2-.21-.31-.52-.31-.92v-3.14h-.79v-.42h.79v-1.12l.52-.06v1.19h1.21l-.06.42h-1.15v3.11c0 .28.06.48.17.62.11.13.29.2.52.2.24 0 .48-.07.72-.21l.22.35zM350.76 146.11l.23.47-1.75.76-.17-.31 1.69-.92zm-.41 2.33v4.71h-.52v-4.71h.52z"/></g><g><path class="st37" d="M49.8 246.3l45.09-.08H455.1"/><path class="st37" d="M49.8 245.63l45.09.74 44.92.52 45.09.51 45.09.45 44.92.14H320l44.91.45 45.1.07h45.09M49.8 196.38l45.09-2.36 44.92-.88 45.09-1.18 45.09-1.55 44.92-.89 45.09-.14 44.91-.23 45.1-1.76 45.09-.37M49.8 250.57l45.09-.07 44.92.07 45.09.08 45.09-.08 44.92.15h90l45.1.07 45.09-.07M49.8 244.38l45.09-.37 44.92.15 45.09.29 45.09-.37 44.92 1.77 45.09-.29 44.91-.44 45.1-.74 45.09.88"/><path class="st37" d="M49.8 250.5l45.09.22h90.01l45.09.07h44.92l45.09.15 44.91-.07 45.1-.15 45.09.15M49.8 251.24h315.11l45.1-.08 45.09.08M49.8 251.02l45.09.07 44.92-.07 45.09.07h45.09l44.92-.07h90l45.1.07h45.09M49.8 230.74l45.09-1.03 44.92-.45 45.09-.14 45.09.29 44.92-4.13 45.09-.14 44.91-2.81 45.1 4.8 45.09 3.39M49.8 241.8l45.09-.81 44.92-.89 45.09-.22 45.09-.29 44.92.66 45.09-.52 44.91-.66 45.1.07 45.09-.29M49.8 251.02l45.09-.08h44.92l45.09.08H455.1"/><path class="st37" d="M49.8 250.72l45.09.07 44.92-.07 45.09-.07h45.09l44.92.07 45.09.07h44.91l45.1.08 45.09-.08M49.8 246.22l45.09-.59 44.92-.73 45.09-.08 45.09-.15 44.92-.36 45.09-.45 44.91-.51 45.1.07 45.09.08M49.8 247.48l45.09-.15 44.92-1.4 45.09.66h45.09l44.92.37 45.09-.37 44.91.3 45.1-.45 45.09-.14M49.8 249.17l45.09-.07 44.92-.15 45.09.3 45.09.07 44.92.15 45.09-.08 44.91-.14 45.1-.08h45.09"/><path class="st37" d="M49.8 247.26l45.09.36 44.92-.07 45.09.07 45.09.15 44.92.37 45.09-.29 44.91-.23 45.1.37 45.09-.29M49.8 245.04l45.09.08 44.92-.22 45.09-.23 45.09-.36 44.92-.23 45.09.3 44.91-.3 45.1.3 45.09-.15"/><path class="st37" d="M49.8 246.67l45.09-.3 44.92.07 45.09-.14 45.09-.37 44.92-1.18 45.09-.59 44.91 1.03 45.1-.22 45.09.44M49.8 251.16H320l44.91-.07 45.1.07 45.09-.07M49.8 242.83l45.09-.15 44.92.15 45.09.37 45.09-.29 44.92-.45 45.09-.96 44.91.08 45.1.81 45.09-.15"/></g><path fill="none" stroke="#c86092" stroke-width="1.5" stroke-miterlimit="10" d="M49.8 164.82l45.09-.51 44.92-1.26 45.09-1.4 45.09-4.86 44.92-45.57L320 100.9l44.91-2.95 45.1-.96 45.09 4.35"/><path fill="none" stroke="#4363d8" stroke-width="1.5" stroke-linecap="round" stroke-linejoin="round" stroke-miterlimit="10" d="M49.8 219.02l45.09.29 44.92-2.73 45.09-.37 45.09-.81 44.92 33.55 45.09-.07 44.91-.3 45.1.15 45.09.29"/></g><g id="_x31_.1_x5F_stredni_x5F_delka_x5F_zivota_x5F_des"><path class="st119" d="M235.25 158.59s29.96-10.01 40.36-41.79M272.35 118.17l3.28-1.37 1.6 2.72"/><g><path class="st119" d="M235.25 213.56s29.96-.14 40.36 31.65M272.35 243.84l3.28 1.37 1.6-2.72"/></g></g></svg>