<svg xmlns="http://www.w3.org/2000/svg" viewBox="0 0 403 280.63"><style>.st5{enable-background:new}.st15{fill:#666}.st20{fill:#4d4d4d}.st23{fill:#595959}.st27{fill:none;stroke:#4d4d4d;stroke-width:.5;stroke-linecap:round;stroke-miterlimit:10}.st31{fill:#4363d8}.st32{fill:#c86092}.st33{fill:#a6a6a6}.st34,.st36{stroke-linecap:round}.st34{fill:none;stroke:#4d4d4d;stroke-width:.5439;stroke-miterlimit:10}.st36{stroke:#d9d9d9;stroke-width:2.1757;stroke-linejoin:round;stroke-dasharray:1.0878,3.2635,1.0878,0}.st119,.st36,.st37{fill:none;stroke-miterlimit:10}.st37{opacity:.3;stroke:#666;stroke-width:.272;stroke-linecap:round;stroke-linejoin:round}.st119{stroke:gray;stroke-width:.5439}</style><g id="_x33_.2_x5F_zlom_x5F_umrtnosti_x5F_des"><g class="st5"><path d="M9.59 35.13h-1.1L8.2 31.4c-.12-1.46-.19-2.59-.2-3.37L6.21 34.2H5.14l-1.88-6.18c0 1-.05 2.16-.16 3.47l-.28 3.65H1.74l.68-8.27h1.54l1.74 6.01 1.66-6.01h1.55l.68 8.26zM15.92 29.55c.49.59.74 1.4.74 2.41 0 .66-.11 1.23-.34 1.73-.22.5-.55.89-.97 1.16-.42.28-.93.41-1.51.41-.89 0-1.58-.3-2.08-.89s-.74-1.4-.74-2.41c0-.66.11-1.23.34-1.73.22-.5.55-.89.97-1.16.42-.28.93-.41 1.52-.41.89.01 1.58.3 2.07.89zm-3.71 2.43c0 1.61.54 2.41 1.63 2.41s1.63-.81 1.63-2.42c0-1.61-.54-2.41-1.62-2.41-1.09-.01-1.64.8-1.64 2.42zM22.11 28.81v.84l-3.3 4.56h3.34l-.13.92h-4.45v-.83l3.29-4.56h-3.01v-.94h4.26zM24.75 26.13v9h-1.1v-8.87l1.1-.13zm3.63 2.68l-2.33 2.8 2.59 3.53h-1.32l-2.51-3.46 2.33-2.87h1.24zM34.13 29.55c.49.59.74 1.4.74 2.41 0 .66-.11 1.23-.34 1.73-.22.5-.55.89-.97 1.16-.42.28-.93.41-1.51.41-.89 0-1.58-.3-2.08-.89-.5-.59-.74-1.4-.74-2.41 0-.66.11-1.23.34-1.73.22-.5.55-.89.97-1.16.42-.28.93-.41 1.52-.41.88.01 1.57.3 2.07.89zm-3.72 2.43c0 1.61.54 2.41 1.63 2.41s1.63-.81 1.63-2.42c0-1.61-.54-2.41-1.62-2.41-1.09-.01-1.64.8-1.64 2.42zM41.28 28.81l-2.15 6.32H37.8l-2.18-6.32h1.2l1.66 5.34 1.64-5.34h1.16zM46.74 34.23c.09.12.22.22.4.28l-.25.77c-.33-.04-.59-.13-.79-.28-.2-.14-.35-.37-.44-.67-.42.63-1.05.95-1.88.95-.62 0-1.12-.18-1.48-.53-.36-.35-.54-.81-.54-1.38 0-.67.24-1.19.73-1.55.48-.36 1.17-.54 2.06-.54h.97v-.47c0-.45-.11-.77-.32-.96-.22-.19-.55-.29-1-.29-.46 0-1.03.11-1.7.34l-.28-.8c.78-.29 1.51-.43 2.18-.43.74 0 1.3.18 1.67.55.37.36.55.88.55 1.55v2.89c-.01.25.04.44.12.57zm-1.45-8.71l.49.92-2.54 1.03-.34-.59 2.39-1.36zm.22 7.95v-1.45h-.83c-1.17 0-1.75.43-1.75 1.3 0 .38.09.66.28.85.18.19.46.29.82.29.62-.01 1.12-.34 1.48-.99zM59.66 29.19c.31.35.47.82.47 1.41v4.54h-1.1v-4.38c0-.82-.3-1.22-.89-1.22-.31 0-.58.09-.79.27-.22.18-.45.46-.7.85v4.49h-1.1v-4.38c0-.82-.3-1.22-.89-1.22-.32 0-.59.09-.8.28-.22.18-.44.46-.68.84v4.49h-1.1v-6.32h.95l.1.92c.47-.71 1.08-1.07 1.82-1.07.39 0 .73.1 1 .3.28.2.47.48.59.84.25-.37.52-.65.82-.85.3-.2.65-.29 1.06-.29.51-.02.92.15 1.24.5zM65.72 28.74l-.2 1.08c-.19-.05-.38-.07-.55-.07-.39 0-.71.14-.95.43s-.43.74-.56 1.34v3.61h-1.1v-6.32h.95l.11 1.28c.17-.47.4-.83.68-1.07s.62-.36 1.01-.36c.21.01.41.03.61.08zM70.17 34.85c-.42.29-.89.43-1.42.43-.54 0-.95-.15-1.25-.46-.3-.31-.45-.75-.45-1.34v-3.82h-1.1v-.85h1.1v-1.43l1.1-.13v1.56h1.5l-.12.85h-1.38v3.77c0 .33.06.57.17.71.12.15.31.22.58.22.25 0 .53-.08.84-.25l.43.74zM75.89 28.81l-2.15 6.32h-1.33l-2.18-6.32h1.2l1.66 5.34 1.64-5.34h1.16zM78.26 25.99c.14.14.22.32.22.54s-.07.39-.22.53c-.14.14-.33.21-.56.21a.732.732 0 01-.77-.74c0-.21.07-.4.22-.54.14-.14.33-.22.55-.22.22 0 .41.08.56.22zm0 2.82v6.32h-1.1v-6.32h1.1zM83.87 28.83c.31.11.61.28.9.52l-.53.7c-.22-.16-.44-.28-.65-.35s-.45-.11-.7-.11c-.51 0-.91.2-1.19.61-.28.41-.43 1.01-.43 1.81s.14 1.39.42 1.77.68.57 1.2.57c.25 0 .48-.04.68-.11.21-.08.44-.2.7-.37l.5.72c-.58.46-1.22.7-1.93.7-.86 0-1.53-.29-2.02-.86-.49-.58-.74-1.37-.74-2.39 0-.67.11-1.26.34-1.76.22-.5.54-.9.95-1.18.41-.28.9-.42 1.47-.42.38-.01.72.04 1.03.15zM90.78 32.35h-4.03c.05.7.22 1.21.53 1.54.3.33.7.49 1.18.49.3 0 .58-.04.84-.13s.52-.23.8-.42l.48.66c-.67.53-1.41.79-2.21.79-.88 0-1.57-.29-2.06-.86-.49-.58-.74-1.37-.74-2.38 0-.66.11-1.24.32-1.75.21-.51.52-.91.91-1.19.4-.29.86-.43 1.4-.43.84 0 1.48.28 1.93.83.45.55.67 1.32.67 2.29.01.18 0 .37-.02.56zm-1.06-.89c0-.62-.12-1.1-.37-1.43-.25-.33-.62-.49-1.12-.49-.9 0-1.4.66-1.48 1.99h2.96v-.07zM98.63 28.85c.34.12.67.3.98.54l-.47.7c-.29-.18-.56-.32-.82-.41-.26-.09-.53-.13-.82-.13-.36 0-.64.07-.85.22-.21.15-.31.35-.31.61s.1.46.29.6c.2.14.55.28 1.06.42.7.18 1.23.42 1.58.72.35.3.52.72.52 1.25 0 .62-.24 1.1-.73 1.43-.48.33-1.07.49-1.77.49-.96 0-1.76-.28-2.39-.83l.59-.67c.54.41 1.13.61 1.78.61.42 0 .75-.09.99-.26s.37-.41.37-.7c0-.22-.04-.39-.13-.52s-.24-.25-.46-.35c-.22-.1-.53-.21-.95-.32-.67-.18-1.16-.41-1.46-.71-.3-.3-.45-.67-.45-1.13 0-.33.1-.63.29-.89.2-.27.47-.48.82-.62s.74-.22 1.17-.22.83.05 1.17.17zM106.11 32.35h-4.03c.05.7.22 1.21.53 1.54s.7.49 1.18.49c.3 0 .58-.04.84-.13s.52-.23.8-.42l.48.66c-.67.53-1.41.79-2.21.79-.88 0-1.57-.29-2.06-.86-.49-.58-.74-1.37-.74-2.38 0-.66.11-1.24.32-1.75.21-.51.52-.91.91-1.19.4-.29.86-.43 1.4-.43.84 0 1.48.28 1.93.83.45.55.67 1.32.67 2.29 0 .18-.01.37-.02.56zm-1.07-.89c0-.62-.12-1.1-.37-1.43-.25-.33-.62-.49-1.12-.49-.9 0-1.4.66-1.48 1.99h2.96v-.07zM115.72 28.81l-2.15 6.32h-1.33l-2.18-6.32h1.2l1.66 5.34 1.64-5.34h1.16zM123.53 28.74l-.2 1.08c-.19-.05-.38-.07-.55-.07-.39 0-.71.14-.95.43s-.43.74-.56 1.34v3.61h-1.1v-6.32h.95l.11 1.28c.17-.47.4-.83.68-1.07s.62-.36 1.01-.36c.21.01.42.03.61.08zM128.88 29.55c.49.59.74 1.4.74 2.41 0 .66-.11 1.23-.34 1.73s-.55.89-.97 1.16c-.42.28-.93.41-1.51.41-.89 0-1.58-.3-2.08-.89-.5-.59-.74-1.4-.74-2.41 0-.66.11-1.23.34-1.73.22-.5.55-.89.97-1.16.42-.28.93-.41 1.52-.41.89.01 1.58.3 2.07.89zm-3.72 2.43c0 1.61.54 2.41 1.63 2.41s1.63-.81 1.63-2.42c0-1.61-.54-2.41-1.62-2.41-1.09-.01-1.64.8-1.64 2.42zM134.78 28.83c.31.11.61.28.9.52l-.53.7c-.22-.16-.44-.28-.65-.35s-.45-.11-.7-.11c-.51 0-.91.2-1.19.61-.28.41-.43 1.01-.43 1.81s.14 1.39.42 1.77c.28.38.68.57 1.2.57.25 0 .48-.04.68-.11s.44-.2.7-.37l.5.72c-.58.46-1.22.7-1.93.7-.86 0-1.53-.29-2.02-.86-.49-.58-.74-1.37-.74-2.39 0-.67.11-1.26.34-1.76s.54-.9.95-1.18c.41-.28.9-.42 1.47-.42.37-.01.71.04 1.03.15zM141.69 32.35h-4.03c.05.7.22 1.21.53 1.54.3.33.7.49 1.18.49.3 0 .58-.04.84-.13s.52-.23.8-.42l.48.66c-.67.53-1.41.79-2.21.79-.88 0-1.57-.29-2.06-.86-.49-.58-.74-1.37-.74-2.38 0-.66.11-1.24.32-1.75.21-.51.52-.91.91-1.19.4-.29.86-.43 1.4-.43.84 0 1.48.28 1.93.83.45.55.67 1.32.67 2.29 0 .18-.01.37-.02.56zm-1.07-.89c0-.62-.12-1.1-.37-1.43-.25-.33-.62-.49-1.12-.49-.9 0-1.4.66-1.48 1.99h2.96v-.07zM149.39 27.11v8.03h-1.1v-6.85l-1.87 1.14-.48-.78 2.48-1.54h.97zM155.75 27.82c.44.56.66 1.32.66 2.29 0 1.1-.15 1.98-.44 2.65s-.75 1.2-1.36 1.6c-.61.4-1.43.75-2.47 1.05l-.25-.83c1.07-.3 1.89-.72 2.47-1.24.57-.52.88-1.21.92-2.08-.18.29-.43.52-.74.7-.31.18-.66.26-1.06.26-.42 0-.79-.11-1.13-.32-.34-.21-.6-.51-.8-.9-.2-.39-.29-.84-.29-1.36 0-.54.12-1.02.35-1.42.23-.4.54-.71.93-.92s.82-.32 1.29-.32c.84.01 1.48.28 1.92.84zm-.46 2.54c.02-.89-.09-1.53-.33-1.91-.24-.39-.61-.58-1.12-.58-.47 0-.84.16-1.09.47-.26.31-.38.76-.38 1.33 0 .56.12.98.36 1.27s.56.43.97.43c.63-.02 1.16-.35 1.59-1.01zM161.82 30.14c.34.19.6.48.8.86.2.38.3.85.3 1.4 0 .57-.11 1.07-.34 1.51-.23.44-.54.77-.92 1.01-.39.24-.82.35-1.29.35-.94 0-1.62-.35-2.05-1.04-.43-.69-.65-1.65-.65-2.87 0-.87.12-1.64.37-2.3s.59-1.17 1.05-1.54c.46-.36 1-.55 1.62-.55.61 0 1.16.16 1.66.49l-.43.73c-.38-.23-.79-.35-1.24-.35-.58 0-1.03.28-1.37.83s-.52 1.29-.55 2.22c.5-.7 1.14-1.06 1.93-1.06.41.02.78.12 1.11.31zm-.38 3.73c.25-.35.37-.83.37-1.43 0-1.14-.43-1.72-1.3-1.72-.35 0-.68.1-.97.29s-.55.47-.76.81c.02.88.16 1.53.41 1.94s.64.62 1.17.62c.47.02.83-.15 1.08-.51zM169.48 32.99c0 .44-.12.83-.35 1.18-.24.35-.57.62-.99.82-.42.2-.9.29-1.44.29-.54 0-1.02-.1-1.44-.29a2.27 2.27 0 01-.97-.8c-.23-.34-.34-.74-.34-1.18 0-.5.13-.91.4-1.25.27-.34.66-.62 1.18-.84-.42-.22-.74-.48-.94-.79s-.31-.67-.31-1.09c0-.43.11-.8.34-1.12.23-.31.53-.55.9-.71s.77-.24 1.19-.24c.42 0 .81.08 1.18.23.37.15.67.38.91.69.23.31.35.68.35 1.11 0 .4-.11.74-.34 1.03s-.57.55-1.03.78c1.14.47 1.7 1.19 1.7 2.18zm-1.59 1.03c.29-.26.44-.6.44-1.02 0-.29-.06-.53-.17-.73s-.29-.37-.54-.52c-.25-.15-.6-.3-1.04-.45l-.3-.11c-.4.19-.7.43-.89.73-.19.29-.29.65-.29 1.09 0 .44.14.78.43 1.03.29.24.68.37 1.18.37s.89-.14 1.18-.39zm-2.16-5.88c-.24.22-.37.52-.37.92 0 .38.12.68.35.88.24.2.61.38 1.13.55l.2.07c.36-.21.62-.43.78-.66.16-.23.24-.52.24-.85 0-.38-.12-.68-.35-.9-.24-.22-.57-.34-1-.34-.41 0-.74.11-.98.33zM179.02 29.53c.38.58.56 1.39.56 2.44 0 .99-.22 1.79-.65 2.4-.43.61-1.04.91-1.84.91-.7 0-1.26-.24-1.66-.72v3l-1.1.13v-8.88h.95l.08.85c.23-.32.51-.57.84-.74s.67-.26 1.03-.26c.82.01 1.41.29 1.79.87zm-.62 2.44c0-1.62-.48-2.42-1.43-2.42-.31 0-.6.09-.85.28-.26.18-.48.42-.67.71v3.08a1.626 1.626 0 001.39.77c1.04-.01 1.56-.82 1.56-2.42zM184.71 25.71l.47.54-1.62 1.36h-.73l-1.63-1.36.48-.54 1.51 1.01 1.52-1.01zm.13 3.03l-.2 1.08c-.19-.05-.38-.07-.55-.07-.39 0-.71.14-.95.43s-.43.74-.56 1.34v3.61h-1.1v-6.32h.95l.11 1.28c.17-.47.4-.83.68-1.07s.62-.36 1.01-.36c.21.01.42.03.61.08zM190.49 32.35h-4.03c.05.7.22 1.21.53 1.54.3.33.7.49 1.18.49.3 0 .58-.04.84-.13s.52-.23.8-.42l.48.66c-.67.53-1.41.79-2.21.79-.88 0-1.57-.29-2.06-.86-.49-.58-.74-1.37-.74-2.38 0-.66.11-1.24.32-1.75.21-.51.52-.91.91-1.19.4-.29.86-.43 1.4-.43.84 0 1.48.28 1.93.83.45.55.67 1.32.67 2.29 0 .18 0 .37-.02.56zm-1.07-.89c0-.62-.12-1.1-.37-1.43-.25-.33-.62-.49-1.12-.49-.9 0-1.4.66-1.48 1.99h2.96v-.07zM195.16 28.85c.34.12.67.3.98.54l-.47.7c-.29-.18-.56-.32-.82-.41-.26-.09-.53-.13-.82-.13-.36 0-.64.07-.85.22s-.31.35-.31.61.1.46.29.6c.2.14.55.28 1.06.42.7.18 1.23.42 1.58.72.35.3.52.72.52 1.25 0 .62-.24 1.1-.73 1.43-.48.33-1.07.49-1.77.49-.96 0-1.76-.28-2.39-.83l.59-.67c.54.41 1.13.61 1.78.61.42 0 .75-.09.99-.26s.37-.41.37-.7c0-.22-.04-.39-.13-.52s-.24-.25-.46-.35c-.22-.1-.53-.21-.95-.32-.67-.18-1.16-.41-1.46-.71-.3-.3-.45-.67-.45-1.13 0-.33.1-.63.29-.89.2-.27.47-.48.82-.62.35-.15.74-.22 1.17-.22.44-.01.82.05 1.17.17zM202.59 35.13h-.95l-.08-.98c-.24.39-.52.68-.83.86-.31.18-.69.27-1.14.27-.55 0-.98-.17-1.3-.5-.31-.34-.47-.81-.47-1.43v-4.54h1.1v4.42c0 .43.08.74.23.92.15.18.4.27.74.27.62 0 1.14-.36 1.58-1.09v-4.51h1.1v6.31zM209.19 29.18c.32.34.49.82.49 1.42v4.54h-1.1v-4.38c0-.45-.08-.76-.25-.95s-.42-.28-.74-.28c-.34 0-.63.1-.89.29-.26.19-.5.47-.72.83v4.49h-1.1v-6.32h.95l.1.94c.22-.34.5-.6.83-.79.33-.19.7-.29 1.1-.29.56-.01 1.01.16 1.33.5zM216.6 35.13h-.95l-.08-.98c-.24.39-.52.68-.83.86-.31.18-.69.27-1.14.27-.55 0-.98-.17-1.3-.5s-.47-.81-.47-1.43v-4.54h1.1v4.42c0 .43.08.74.23.92.15.18.4.27.74.27.62 0 1.14-.36 1.58-1.09v-4.51h1.1v6.31zM219.18 34.91c-.24-.24-.35-.59-.35-1.03v-7.62l1.1-.13v7.73c0 .18.03.3.09.38.06.08.16.12.31.12s.29-.02.41-.07l.29.77c-.26.14-.56.22-.88.22-.42 0-.74-.12-.97-.37zM226.73 34.23c.09.12.22.22.4.28l-.25.77c-.33-.04-.59-.13-.79-.28-.2-.14-.35-.37-.44-.67-.42.63-1.05.95-1.88.95-.62 0-1.12-.18-1.48-.53-.36-.35-.54-.81-.54-1.38 0-.67.24-1.19.73-1.55.48-.36 1.17-.54 2.06-.54h.97v-.47c0-.45-.11-.77-.32-.96s-.55-.29-1-.29c-.46 0-1.03.11-1.7.34l-.28-.8c.78-.29 1.51-.43 2.18-.43.74 0 1.3.18 1.67.55.37.36.55.88.55 1.55v2.89c-.01.25.03.44.12.57zm-1.24-.76v-1.45h-.83c-1.17 0-1.75.43-1.75 1.3 0 .38.09.66.28.85.18.19.46.29.82.29.63-.01 1.12-.34 1.48-.99zM235.75 28.81v.84l-3.3 4.56h3.34l-.13.92h-4.45v-.83l3.29-4.56h-3.01v-.94h4.26zM244.8 29.18c.32.34.49.82.49 1.42v4.54h-1.1v-4.38c0-.45-.08-.76-.25-.95s-.42-.28-.74-.28c-.34 0-.63.1-.89.29-.26.19-.5.47-.72.83v4.49h-1.1v-6.32h.95l.1.94c.22-.34.5-.6.83-.79.33-.19.7-.29 1.1-.29.55-.01 1 .16 1.33.5zM252.25 32.35h-4.03c.05.7.22 1.21.53 1.54.3.33.7.49 1.18.49.3 0 .58-.04.84-.13s.52-.23.8-.42l.48.66c-.67.53-1.41.79-2.21.79-.88 0-1.57-.29-2.06-.86-.49-.58-.74-1.37-.74-2.38 0-.66.11-1.24.32-1.75.21-.51.52-.91.91-1.19.4-.29.86-.43 1.4-.43.84 0 1.48.28 1.93.83.45.55.67 1.32.67 2.29.01.18 0 .37-.02.56zm-1.06-.89c0-.62-.12-1.1-.37-1.43-.25-.33-.62-.49-1.12-.49-.9 0-1.4.66-1.48 1.99h2.96v-.07zM261.64 29.19c.31.35.47.82.47 1.41v4.54H261v-4.38c0-.82-.3-1.22-.89-1.22-.31 0-.58.09-.79.27-.22.18-.45.46-.7.85v4.49h-1.1v-4.38c0-.82-.3-1.22-.89-1.22-.32 0-.59.09-.8.28-.22.18-.44.46-.68.84v4.49h-1.1v-6.32h.95l.1.92c.47-.71 1.08-1.07 1.82-1.07.39 0 .73.1 1 .3.28.2.47.48.59.84.25-.37.52-.65.82-.85.3-.2.65-.29 1.06-.29.52-.02.94.15 1.25.5zM268.77 29.55c.49.59.74 1.4.74 2.41 0 .66-.11 1.23-.34 1.73-.22.5-.55.89-.97 1.16-.42.28-.93.41-1.51.41-.89 0-1.58-.3-2.08-.89s-.74-1.4-.74-2.41c0-.66.11-1.23.34-1.73.22-.5.55-.89.97-1.16.42-.28.93-.41 1.52-.41.89.01 1.58.3 2.07.89zm-3.71 2.43c0 1.61.54 2.41 1.63 2.41s1.63-.81 1.63-2.42c0-1.61-.54-2.41-1.62-2.41-1.09-.01-1.64.8-1.64 2.42zM274.67 28.83c.31.11.61.28.9.52l-.53.7c-.22-.16-.44-.28-.65-.35-.21-.08-.45-.11-.7-.11-.51 0-.91.2-1.19.61s-.43 1.01-.43 1.81.14 1.39.42 1.77.68.57 1.2.57c.25 0 .48-.04.68-.11s.44-.2.7-.37l.5.72c-.58.46-1.22.7-1.93.7-.86 0-1.53-.29-2.02-.86-.49-.58-.74-1.37-.74-2.39 0-.67.11-1.26.34-1.76.22-.5.54-.9.95-1.18.41-.28.9-.42 1.47-.42.37-.01.72.04 1.03.15zM278.57 25.52l.49.92-2.54 1.03-.34-.59 2.39-1.36zm-.4 3.29v6.32h-1.1v-6.32h1.1zM287.96 29.18c.32.34.49.82.49 1.42v4.54h-1.1v-4.38c0-.45-.08-.76-.25-.95s-.42-.28-.74-.28c-.34 0-.63.1-.89.29-.26.19-.5.47-.72.83v4.49h-1.1v-6.32h.95l.1.94c.22-.34.5-.6.83-.79.33-.19.7-.29 1.1-.29.56-.01 1.01.16 1.33.5zM295.42 32.35h-4.03c.05.7.22 1.21.53 1.54s.7.49 1.18.49c.3 0 .58-.04.84-.13s.52-.23.8-.42l.48.66c-.67.53-1.41.79-2.21.79-.88 0-1.57-.29-2.06-.86-.49-.58-.74-1.37-.74-2.38 0-.66.11-1.24.32-1.75.21-.51.52-.91.91-1.19.4-.29.86-.43 1.4-.43.84 0 1.48.28 1.93.83.45.55.67 1.32.67 2.29 0 .18-.01.37-.02.56zm-1.07-.89c0-.62-.12-1.1-.37-1.43-.25-.33-.62-.49-1.12-.49-.9 0-1.4.66-1.48 1.99h2.96v-.07zM300.58 28.74l-.2 1.08c-.19-.05-.38-.07-.55-.07-.39 0-.71.14-.95.43s-.43.74-.56 1.34v3.61h-1.1v-6.32h.95l.11 1.28c.17-.47.4-.83.68-1.07s.62-.36 1.01-.36c.21.01.42.03.61.08zM306.48 28.81l-2.15 6.32H303l-2.18-6.32h1.2l1.66 5.34 1.64-5.34h1.16zM312.14 29.55c.49.59.74 1.4.74 2.41 0 .66-.11 1.23-.34 1.73s-.55.89-.97 1.16c-.42.28-.93.41-1.51.41-.89 0-1.58-.3-2.08-.89-.5-.59-.74-1.4-.74-2.41 0-.66.11-1.23.34-1.73.22-.5.55-.89.97-1.16.42-.28.93-.41 1.52-.41.89.01 1.58.3 2.07.89zm-3.71 2.43c0 1.61.54 2.41 1.63 2.41s1.63-.81 1.63-2.42c0-1.61-.54-2.41-1.62-2.41-1.1-.01-1.64.8-1.64 2.42zM319.3 28.81l-2.15 6.32h-1.33l-2.18-6.32h1.2l1.66 5.34 1.64-5.34h1.16zM325.26 32.35h-4.03c.05.7.22 1.21.53 1.54s.7.49 1.18.49c.3 0 .58-.04.84-.13s.52-.23.8-.42l.48.66c-.67.53-1.41.79-2.21.79-.88 0-1.57-.29-2.06-.86-.49-.58-.74-1.37-.74-2.38 0-.66.11-1.24.32-1.75.21-.51.52-.91.91-1.19.4-.29.86-.43 1.4-.43.84 0 1.48.28 1.93.83.45.55.67 1.32.67 2.29.01.18 0 .37-.02.56zm-1.07-.89c0-.62-.12-1.1-.37-1.43-.25-.33-.62-.49-1.12-.49-.9 0-1.4.66-1.48 1.99h2.96v-.07zm-.52-5.94l.49.92-2.54 1.03-.34-.59 2.39-1.36zM333.11 28.85c.34.12.67.3.98.54l-.47.7c-.29-.18-.56-.32-.82-.41s-.53-.13-.82-.13c-.36 0-.64.07-.85.22s-.31.35-.31.61.1.46.29.6c.2.14.55.28 1.06.42.7.18 1.23.42 1.58.72.35.3.52.72.52 1.25 0 .62-.24 1.1-.73 1.43-.48.33-1.07.49-1.77.49-.96 0-1.76-.28-2.39-.83l.59-.67c.54.41 1.13.61 1.78.61.42 0 .75-.09.99-.26s.37-.41.37-.7c0-.22-.04-.39-.13-.52s-.24-.25-.46-.35c-.22-.1-.53-.21-.95-.32-.67-.18-1.16-.41-1.46-.71-.3-.3-.45-.67-.45-1.13 0-.33.1-.63.29-.89.2-.27.47-.48.82-.62.35-.15.74-.22 1.17-.22.44-.01.83.05 1.17.17zM340.28 29.55c.49.59.74 1.4.74 2.41 0 .66-.11 1.23-.34 1.73-.22.5-.55.89-.97 1.16-.42.28-.93.41-1.51.41-.89 0-1.58-.3-2.08-.89-.5-.59-.74-1.4-.74-2.41 0-.66.11-1.23.34-1.73.22-.5.55-.89.97-1.16.42-.28.93-.41 1.52-.41.89.01 1.58.3 2.07.89zm-3.71 2.43c0 1.61.54 2.41 1.63 2.41s1.63-.81 1.63-2.42c0-1.61-.54-2.41-1.62-2.41-1.1-.01-1.64.8-1.64 2.42zM347.55 35.13h-.95l-.08-.98c-.24.39-.52.68-.83.86-.31.18-.69.27-1.14.27-.55 0-.98-.17-1.3-.5-.31-.34-.47-.81-.47-1.43v-4.54h1.1v4.42c0 .43.08.74.23.92.15.18.4.27.74.27.62 0 1.14-.36 1.58-1.09v-4.51h1.1v6.31zM352.71 28.85c.34.12.67.3.98.54l-.47.7c-.29-.18-.56-.32-.82-.41s-.53-.13-.82-.13c-.36 0-.64.07-.85.22s-.31.35-.31.61.1.46.29.6c.2.14.55.28 1.06.42.7.18 1.23.42 1.58.72.35.3.52.72.52 1.25 0 .62-.24 1.1-.73 1.43-.48.33-1.07.49-1.77.49-.96 0-1.76-.28-2.39-.83l.59-.67c.54.41 1.13.61 1.78.61.42 0 .75-.09.99-.26s.37-.41.37-.7c0-.22-.04-.39-.13-.52s-.24-.25-.46-.35c-.22-.1-.53-.21-.95-.32-.67-.18-1.16-.41-1.46-.71-.3-.3-.45-.67-.45-1.13 0-.33.1-.63.29-.89.2-.27.47-.48.82-.62.35-.15.74-.22 1.17-.22.43-.01.82.05 1.17.17zM358.62 34.85c-.42.29-.89.43-1.42.43-.54 0-.95-.15-1.25-.46-.3-.31-.45-.75-.45-1.34v-3.82h-1.1v-.85h1.1v-1.43l1.1-.13v1.56h1.5l-.12.85h-1.38v3.77c0 .33.06.57.17.71.12.15.31.22.58.22.25 0 .53-.08.84-.25l.43.74zM364.07 34.23c.09.12.22.22.4.28l-.25.77c-.33-.04-.59-.13-.79-.28-.2-.14-.35-.37-.44-.67-.42.63-1.05.95-1.88.95-.62 0-1.12-.18-1.48-.53-.36-.35-.54-.81-.54-1.38 0-.67.24-1.19.73-1.55.48-.36 1.17-.54 2.06-.54h.97v-.47c0-.45-.11-.77-.32-.96s-.55-.29-1-.29c-.46 0-1.03.11-1.7.34l-.28-.8c.78-.29 1.51-.43 2.18-.43.74 0 1.3.18 1.67.55.37.36.55.88.55 1.55v2.89c-.01.25.03.44.12.57zm-1.24-.76v-1.45H362c-1.17 0-1.75.43-1.75 1.3 0 .38.09.66.28.85.18.19.46.29.82.29.63-.01 1.12-.34 1.48-.99zM370.67 28.81l-2.15 6.32h-1.33l-2.18-6.32h1.2l1.66 5.34 1.64-5.34h1.16zM374.46 35.17c-.25.74-.59 1.32-1.04 1.75-.44.43-1.08.69-1.9.77l-.12-.86c.42-.07.75-.18 1-.31.25-.14.45-.31.59-.52s.29-.5.41-.86h-.37l-2.12-6.32h1.18l1.69 5.52 1.66-5.52h1.14l-2.12 6.35zM9.74 43.59c.31.35.47.82.47 1.41v4.54H9.1v-4.38c0-.82-.3-1.22-.89-1.22-.31 0-.58.09-.79.27-.22.18-.45.46-.7.85v4.49h-1.1v-4.38c0-.82-.3-1.22-.89-1.22-.32 0-.59.09-.8.28-.22.18-.44.46-.68.84v4.49h-1.1v-6.32h.95l.1.92c.47-.71 1.08-1.07 1.82-1.07.39 0 .73.1 1 .3.28.2.47.48.59.84.25-.37.52-.65.82-.85.3-.2.65-.29 1.06-.29.52-.02.93.15 1.25.5zM17.18 46.75h-4.03c.05.7.22 1.21.53 1.54.3.33.7.49 1.18.49.3 0 .58-.04.84-.13s.52-.23.8-.42l.48.66c-.67.53-1.41.79-2.21.79-.88 0-1.57-.29-2.06-.86-.49-.58-.74-1.37-.74-2.38 0-.66.11-1.24.32-1.75.21-.51.52-.91.91-1.19s.86-.43 1.4-.43c.84 0 1.48.28 1.93.83s.67 1.32.67 2.29c0 .18-.01.37-.02.56zm-1.07-.89c0-.62-.12-1.1-.37-1.43s-.62-.49-1.12-.49c-.9 0-1.4.66-1.48 1.99h2.96v-.07zM22.59 43.21v.84l-3.3 4.56h3.34l-.13.92h-4.45v-.83l3.29-4.56h-3.01v-.94h4.26zM25.23 40.39c.14.14.22.32.22.54s-.07.39-.22.53c-.14.14-.33.21-.56.21a.732.732 0 01-.77-.74c0-.21.07-.4.22-.54.14-.14.33-.22.55-.22.23 0 .41.08.56.22zm0 2.82v6.32h-1.1v-6.32h1.1zM35.13 43.95c.49.59.74 1.4.74 2.41 0 .66-.11 1.23-.34 1.73-.22.5-.55.89-.97 1.16-.42.28-.93.41-1.51.41-.89 0-1.58-.3-2.08-.89-.5-.59-.74-1.4-.74-2.41 0-.66.11-1.23.34-1.73s.55-.89.97-1.16c.42-.28.93-.41 1.52-.41.89.01 1.58.3 2.07.89zm-3.71 2.43c0 1.61.54 2.41 1.63 2.41s1.63-.81 1.63-2.42c0-1.61-.54-2.41-1.62-2.41-1.09-.01-1.64.8-1.64 2.42zM42.3 43.94c.42.58.64 1.39.64 2.43 0 .66-.1 1.23-.3 1.73-.2.5-.49.89-.86 1.16-.38.28-.82.41-1.32.41-.66 0-1.22-.28-1.68-.84l-.11.7h-.97v-8.87l1.1-.13V44c.46-.62 1.05-.94 1.79-.94.72.01 1.29.3 1.71.88zm-.96 4.27c.28-.4.41-1.01.41-1.84 0-.86-.13-1.47-.38-1.85-.26-.38-.62-.57-1.09-.57-.56 0-1.05.33-1.48.98v3.02c.17.26.37.47.62.62.24.15.5.23.77.23.49 0 .87-.2 1.15-.59zM49.58 46.75h-4.03c.05.7.22 1.21.53 1.54.3.33.7.49 1.18.49.3 0 .58-.04.84-.13s.52-.23.8-.42l.48.66c-.67.53-1.41.79-2.21.79-.88 0-1.57-.29-2.06-.86-.49-.58-.74-1.37-.74-2.38 0-.66.11-1.24.32-1.75s.52-.91.91-1.19c.4-.29.86-.43 1.4-.43.84 0 1.48.28 1.93.83s.67 1.32.67 2.29c0 .18-.01.37-.02.56zm-1.02-6.64l.47.54-1.62 1.36h-.73l-1.63-1.36.48-.54 1.51 1.01 1.52-1.01zm-.05 5.75c0-.62-.12-1.1-.37-1.43s-.62-.49-1.12-.49c-.9 0-1.4.66-1.48 1.99h2.96v-.07zM55.69 43.58c.32.34.49.82.49 1.42v4.54h-1.1v-4.38c0-.45-.09-.76-.26-.95-.17-.18-.42-.28-.75-.28s-.62.1-.88.29c-.26.19-.5.46-.72.82v4.5h-1.1v-8.86l1.1-.12v3.53c.5-.68 1.12-1.02 1.87-1.02.58 0 1.03.17 1.35.51zM62.84 43.95c.49.59.74 1.4.74 2.41 0 .66-.11 1.23-.34 1.73-.22.5-.55.89-.97 1.16-.42.28-.93.41-1.51.41-.89 0-1.58-.3-2.08-.89-.5-.59-.74-1.4-.74-2.41 0-.66.11-1.23.34-1.73.22-.5.55-.89.97-1.16s.93-.41 1.52-.41c.89.01 1.58.3 2.07.89zm-3.71 2.43c0 1.61.54 2.41 1.63 2.41s1.63-.81 1.63-2.42c0-1.61-.54-2.41-1.62-2.41-1.09-.01-1.64.8-1.64 2.42zM70 43.21l-2.15 6.32h-1.33l-2.18-6.32h1.2l1.66 5.34 1.64-5.34H70zM75.96 46.75h-4.03c.05.7.22 1.21.53 1.54.3.33.7.49 1.18.49.3 0 .58-.04.84-.13s.52-.23.8-.42l.48.66c-.67.53-1.41.79-2.21.79-.88 0-1.57-.29-2.06-.86-.49-.58-.74-1.37-.74-2.38 0-.66.11-1.24.32-1.75.21-.51.52-.91.91-1.19.4-.29.86-.43 1.4-.43.84 0 1.48.28 1.93.83s.67 1.32.67 2.29c.01.18 0 .37-.02.56zm-1.06-.89c0-.62-.12-1.1-.37-1.43s-.62-.49-1.12-.49c-.9 0-1.4.66-1.48 1.99h2.96v-.07zm-.53-5.94l.49.92-2.54 1.03-.34-.59 2.39-1.36zM85.26 43.58c.32.34.49.82.49 1.42v4.54h-1.1v-4.38c0-.45-.08-.76-.25-.95-.17-.18-.42-.28-.74-.28-.34 0-.63.1-.89.29-.26.19-.5.47-.72.83v4.49h-1.1v-6.32h.95l.1.94c.22-.34.5-.6.83-.79s.7-.29 1.1-.29c.55-.01 1 .16 1.33.5zM92.72 46.75h-4.03c.05.7.22 1.21.53 1.54.3.33.7.49 1.18.49.3 0 .58-.04.84-.13s.52-.23.8-.42l.48.66c-.67.53-1.41.79-2.21.79-.88 0-1.57-.29-2.06-.86-.49-.58-.74-1.37-.74-2.38 0-.66.11-1.24.32-1.75.21-.51.52-.91.91-1.19.4-.29.86-.43 1.4-.43.84 0 1.48.28 1.93.83s.67 1.32.67 2.29c0 .18-.01.37-.02.56zm-1.07-.89c0-.62-.12-1.1-.37-1.43s-.62-.49-1.12-.49c-.9 0-1.4.66-1.48 1.99h2.96v-.07zM102.1 43.59c.31.35.47.82.47 1.41v4.54h-1.1v-4.38c0-.82-.3-1.22-.89-1.22-.31 0-.58.09-.79.27-.22.18-.45.46-.7.85v4.49h-1.1v-4.38c0-.82-.3-1.22-.89-1.22-.32 0-.59.09-.8.28-.22.18-.44.46-.68.84v4.49h-1.1v-6.32h.95l.1.92c.47-.71 1.08-1.07 1.82-1.07.39 0 .73.1 1 .3.28.2.47.48.59.84.25-.37.52-.65.82-.85s.65-.29 1.06-.29c.51-.02.93.15 1.24.5zM109.23 43.95c.49.59.74 1.4.74 2.41 0 .66-.11 1.23-.34 1.73s-.55.89-.97 1.16c-.42.28-.93.41-1.51.41-.89 0-1.58-.3-2.08-.89-.5-.59-.74-1.4-.74-2.41 0-.66.11-1.23.34-1.73.22-.5.55-.89.97-1.16s.93-.41 1.52-.41c.89.01 1.58.3 2.07.89zm-3.71 2.43c0 1.61.54 2.41 1.63 2.41s1.63-.81 1.63-2.42c0-1.61-.54-2.41-1.62-2.41-1.09-.01-1.64.8-1.64 2.42zM115.13 43.23c.31.11.61.28.9.52l-.53.7c-.22-.16-.44-.28-.65-.35s-.45-.11-.7-.11c-.51 0-.91.2-1.19.61-.28.41-.43 1.01-.43 1.81s.14 1.39.42 1.77c.28.38.68.57 1.2.57.25 0 .48-.04.68-.11.21-.08.44-.2.7-.37l.5.72c-.58.46-1.22.7-1.93.7-.86 0-1.53-.29-2.02-.86-.49-.58-.74-1.37-.74-2.39 0-.67.11-1.26.34-1.76.22-.5.54-.9.95-1.18s.9-.42 1.47-.42c.38-.01.72.04 1.03.15zM118.64 40.39c.14.14.22.32.22.54s-.07.39-.22.53c-.14.14-.33.21-.56.21a.732.732 0 01-.77-.74c0-.21.07-.4.22-.54.14-.14.33-.22.55-.22.22 0 .41.08.56.22zm0 2.82v6.32h-1.1v-6.32h1.1zM121.8 48.25c.16.16.24.36.24.59 0 .23-.08.43-.24.59s-.36.25-.6.25c-.23 0-.43-.08-.59-.25s-.24-.36-.24-.59c0-.23.08-.43.24-.59.16-.16.36-.24.59-.24.24 0 .44.08.6.24z"/></g><g class="st5"><path d="M8.94 3.47V5.1l-5.1 7.7h5.15l-.22 1.73h-7.4v-1.62l5.2-7.76H1.9V3.47h7.04zM11.01 14.2c-.37-.38-.55-.91-.55-1.61V2.67l2.05-.22v10.08c0 .39.16.59.48.59.16 0 .32-.03.48-.08l.43 1.44c-.43.19-.88.29-1.36.29-.66 0-1.16-.19-1.53-.57zM21.55 7.02c.7.79 1.05 1.89 1.05 3.27 0 .89-.16 1.67-.48 2.34-.32.68-.78 1.2-1.38 1.58-.6.37-1.31.56-2.13.56-1.25 0-2.22-.4-2.93-1.19-.7-.79-1.06-1.89-1.06-3.29 0-.89.16-1.66.48-2.34a3.7 3.7 0 011.38-1.57c.6-.37 1.31-.56 2.14-.56 1.26 0 2.23.4 2.93 1.2zm-4.76 3.27c0 1 .15 1.74.46 2.22s.76.71 1.37.71 1.06-.24 1.37-.72c.3-.48.46-1.22.46-2.21s-.15-1.73-.46-2.2c-.3-.47-.75-.71-1.35-.71-1.24 0-1.85.97-1.85 2.91zM35.13 6.52c.41.46.61 1.09.61 1.88v6.13h-2.05V8.72c0-.91-.31-1.36-.93-1.36-.33 0-.62.1-.86.31s-.49.53-.74.97v5.89h-2.05V8.72c0-.91-.31-1.36-.93-1.36-.34 0-.63.1-.87.31s-.49.53-.74.97v5.89h-2.05V6.06h1.78l.16 1.1c.64-.9 1.46-1.34 2.45-1.34.49 0 .92.13 1.27.38.36.25.62.6.78 1.05.34-.46.72-.81 1.13-1.06.41-.25.88-.37 1.42-.37.67 0 1.21.24 1.62.7zM48.92 6.06l-2.75 8.46h-2.45l-2.8-8.46h2.22l1.81 6.82 1.86-6.82h2.11zM61.08 10.93h-5.31c.06.82.28 1.41.64 1.76s.84.53 1.44.53c.37 0 .72-.06 1.06-.18.33-.12.68-.31 1.06-.57l.85 1.17c-.94.76-1.98 1.14-3.14 1.14-1.29 0-2.29-.39-2.98-1.18-.7-.79-1.05-1.87-1.05-3.23 0-.86.15-1.64.45-2.33.3-.69.73-1.23 1.3-1.62.56-.39 1.24-.58 2.02-.58 1.18 0 2.1.38 2.75 1.13s.98 1.8.98 3.14c-.02.09-.04.37-.07.82zM59.1 9.5c0-1.48-.55-2.22-1.65-2.22-.5 0-.89.18-1.18.55-.28.37-.45.96-.5 1.77h3.33v-.1zM69.67 6.06l-2.75 8.46h-2.45l-2.8-8.46h2.22l1.81 6.82 1.86-6.82h2.11zM72.88 2.14c.24.24.36.54.36.89s-.12.65-.36.88c-.24.23-.55.35-.94.35-.37 0-.68-.12-.92-.35-.24-.23-.36-.53-.36-.88s.12-.65.36-.89.55-.36.92-.36c.39 0 .7.12.94.36zm.1 3.92v8.46h-2.05V6.06h2.05zM82.57 2.67v11.86h-1.81l-.14-1.07c-.27.41-.61.73-1.02.96-.41.23-.88.35-1.4.35-1.04 0-1.83-.4-2.38-1.2s-.83-1.89-.83-3.26c0-.86.14-1.63.42-2.31.28-.68.67-1.21 1.19-1.59.52-.38 1.12-.58 1.8-.58.81 0 1.52.3 2.13.91V2.45l2.04.22zm-2.83 10.28c.28-.18.54-.45.78-.82V8.26c-.25-.3-.49-.52-.74-.67-.25-.15-.54-.22-.87-.22-.54 0-.97.24-1.29.73s-.47 1.22-.47 2.2c0 1.05.14 1.79.42 2.25.28.45.68.68 1.22.68.35-.01.67-.1.95-.28zM91.93 10.93h-5.31c.06.82.28 1.41.64 1.76.36.35.84.53 1.44.53.37 0 .73-.06 1.06-.18.33-.12.68-.31 1.06-.57l.85 1.17c-.94.76-1.98 1.14-3.14 1.14-1.29 0-2.29-.39-2.98-1.18s-1.05-1.87-1.05-3.23c0-.86.15-1.64.45-2.33.3-.69.73-1.23 1.3-1.62.57-.39 1.24-.58 2.02-.58 1.18 0 2.1.38 2.75 1.13s.98 1.8.98 3.14c-.02.09-.04.37-.07.82zM89.94 9.5c0-1.48-.55-2.22-1.65-2.22-.5 0-.89.18-1.18.55-.28.37-.45.96-.5 1.77h3.33v-.1zM100.1 6.5c.42.45.63 1.09.63 1.9v6.13h-2.05V8.72c0-.5-.09-.85-.26-1.06-.18-.2-.43-.3-.78-.3-.35 0-.67.11-.95.33-.28.22-.56.54-.82.95v5.89h-2.05V6.06h1.78l.16 1.1c.69-.9 1.55-1.34 2.58-1.34.74 0 1.33.23 1.76.68zM108.02 6.06c.44.16.86.41 1.26.75l-.91 1.23c-.29-.21-.57-.37-.83-.46a2.5 2.5 0 00-.88-.14c-1.27 0-1.9.97-1.9 2.9 0 .98.17 1.69.5 2.12.33.43.8.65 1.41.65.3 0 .57-.05.82-.14.25-.1.55-.25.89-.46l.91 1.3c-.8.65-1.71.98-2.74.98-.81 0-1.51-.18-2.11-.54-.6-.36-1.06-.87-1.38-1.53-.32-.66-.48-1.44-.48-2.34s.16-1.69.48-2.38c.32-.69.78-1.22 1.38-1.6.6-.38 1.3-.57 2.1-.57.53-.01 1.03.07 1.48.23zM112.7 2.14c.24.24.36.54.36.89s-.12.65-.36.88c-.24.23-.55.35-.94.35-.37 0-.68-.12-.92-.35-.24-.23-.36-.53-.36-.88s.12-.65.36-.89.55-.36.92-.36c.39 0 .7.12.94.36zm.11 3.92v8.46h-2.05V6.06h2.05zM126.04 14.53h-1.78l-.11-1.18c-.31.48-.67.84-1.1 1.07-.42.23-.92.35-1.5.35-.76 0-1.34-.23-1.75-.7-.41-.46-.62-1.11-.62-1.93V6.06h2.05v5.82c0 .48.08.82.25 1.02.17.2.43.3.79.3.65 0 1.22-.4 1.71-1.2V6.06h2.05v8.47zm-2.21-13.12l.83 1.6-3.62 1.44-.58-1.04 3.37-2zM139.11 6.52c.41.46.61 1.09.61 1.88v6.13h-2.05V8.72c0-.91-.31-1.36-.93-1.36-.33 0-.62.1-.86.31s-.49.53-.74.97v5.89h-2.05V8.72c0-.91-.31-1.36-.93-1.36-.34 0-.63.1-.87.31s-.49.53-.74.97v5.89h-2.05V6.06h1.78l.16 1.1c.64-.9 1.46-1.34 2.45-1.34.49 0 .92.13 1.27.38.36.25.62.6.78 1.05.34-.46.72-.81 1.13-1.06.41-.25.88-.37 1.42-.37.67 0 1.22.24 1.62.7zM147.13 5.95l-.35 1.98c-.26-.06-.51-.1-.75-.1-.5 0-.9.18-1.18.54s-.52.9-.69 1.64v4.51h-2.05V6.06h1.78l.19 1.66c.2-.61.5-1.07.88-1.4.38-.33.83-.49 1.33-.49.3.01.58.05.84.12zM153.25 14.13c-.3.21-.63.37-1 .48s-.74.16-1.13.16c-.83-.01-1.46-.25-1.9-.71-.43-.46-.65-1.15-.65-2.06V7.54h-1.33V6.06h1.33V4.19l2.05-.24v2.11h1.97l-.21 1.47h-1.76v4.42c0 .42.07.71.22.9.14.18.37.27.68.27.31 0 .64-.1 1.01-.3l.72 1.31zM160.69 6.5c.42.45.63 1.09.63 1.9v6.13h-2.05V8.72c0-.5-.09-.85-.26-1.06s-.43-.3-.78-.3c-.35 0-.67.11-.95.33-.28.22-.56.54-.82.95v5.89h-2.05V6.06h1.78l.16 1.1c.69-.9 1.55-1.34 2.58-1.34.75 0 1.34.23 1.76.68zM170.08 7.02c.7.79 1.05 1.89 1.05 3.27 0 .89-.16 1.67-.48 2.34-.32.68-.78 1.2-1.38 1.58-.6.37-1.31.56-2.13.56-1.25 0-2.22-.4-2.93-1.19-.7-.79-1.06-1.89-1.06-3.29 0-.89.16-1.66.48-2.34a3.7 3.7 0 011.38-1.57c.6-.37 1.31-.56 2.14-.56 1.26 0 2.23.4 2.93 1.2zm-4.76 3.27c0 1 .15 1.74.46 2.22.3.47.76.71 1.37.71.61 0 1.06-.24 1.37-.72.3-.48.46-1.22.46-2.21s-.15-1.73-.46-2.2c-.3-.47-.75-.71-1.35-.71-1.24 0-1.85.97-1.85 2.91zM178.73 6.83l-.8 1.2c-.73-.46-1.43-.69-2.13-.69-.41 0-.72.08-.94.23-.22.15-.34.36-.34.62 0 .19.05.35.14.48.1.13.27.25.52.36.25.11.62.24 1.11.38.92.25 1.6.57 2.04.98.44.41.66.97.66 1.7 0 .84-.34 1.5-1.02 1.98-.68.47-1.53.71-2.54.71-.69 0-1.33-.11-1.9-.32-.57-.21-1.06-.51-1.48-.88l1.02-1.15c.74.55 1.5.83 2.3.83.46 0 .82-.09 1.1-.27.27-.18.41-.43.41-.75 0-.25-.05-.44-.15-.58s-.28-.27-.54-.38c-.26-.11-.67-.25-1.22-.41-.86-.23-1.5-.56-1.9-.98s-.61-.95-.61-1.58c0-.47.14-.89.41-1.26.27-.37.66-.67 1.15-.88s1.06-.32 1.7-.32c1.14-.03 2.14.31 3.01.98zM185.51 14.13c-.3.21-.63.37-1 .48s-.74.16-1.13.16c-.83-.01-1.46-.25-1.9-.71-.43-.46-.65-1.15-.65-2.06V7.54h-1.33V6.06h1.33V4.19l2.05-.24v2.11h1.97l-.21 1.47h-1.76v4.42c0 .42.07.71.22.9.14.18.37.27.68.27.31 0 .64-.1 1.01-.3l.72 1.31zM188.61 2.14c.24.24.36.54.36.89s-.12.65-.36.88c-.24.23-.55.35-.94.35-.37 0-.68-.12-.92-.35-.24-.23-.36-.53-.36-.88s.12-.65.36-.89.55-.36.92-.36c.38 0 .7.12.94.36zm.1 3.92v8.46h-2.05V6.06h2.05z"/></g><path class="st23" d="M26.99 247.59c.38.64.57 1.59.57 2.85 0 1.28-.19 2.23-.57 2.87-.38.63-.94.95-1.68.95-.75 0-1.31-.32-1.69-.96-.38-.64-.57-1.59-.57-2.86 0-2.54.76-3.81 2.27-3.81.73 0 1.29.32 1.67.96zm-2.62.51c-.2.47-.3 1.25-.3 2.34 0 1.1.1 1.88.3 2.34.2.46.51.69.94.69.42 0 .73-.23.93-.69.2-.46.3-1.24.3-2.34s-.1-1.88-.3-2.34c-.2-.46-.51-.69-.93-.69-.43-.01-.74.23-.94.69z"/><path class="st20" d="M162.64 267.23v7.4h-1.35v-6.02l-1.46.99-.6-.9 2.2-1.47h1.21zM168.04 267.86c.41.51.62 1.21.62 2.12 0 1-.14 1.82-.42 2.46a3.51 3.51 0 01-1.28 1.52c-.57.38-1.33.7-2.29.95l-.29-.98c.88-.25 1.54-.58 1.99-.98.45-.4.72-.96.83-1.68-.37.49-.84.74-1.41.74-.34 0-.66-.1-.96-.29-.29-.19-.53-.47-.7-.84s-.26-.79-.26-1.27c0-.52.1-.97.31-1.35.21-.38.5-.67.86-.86.36-.2.77-.3 1.22-.3.78 0 1.37.25 1.78.76zm-.79 2.37c.01-.79-.06-1.33-.21-1.65s-.41-.47-.78-.47c-.32 0-.56.12-.74.36-.18.24-.26.61-.26 1.11 0 .49.08.85.25 1.08.17.23.39.35.67.35.43 0 .79-.26 1.07-.78zM173.42 269.99c.29.18.51.46.68.82.17.36.25.8.25 1.3 0 .54-.1 1-.29 1.41-.19.4-.47.72-.82.94-.35.22-.76.34-1.22.34-.84 0-1.45-.31-1.85-.94-.4-.63-.6-1.51-.6-2.65 0-.84.11-1.56.34-2.18.23-.62.55-1.1.97-1.43.42-.33.92-.5 1.49-.5.56 0 1.05.16 1.47.47l-.51.84c-.31-.19-.62-.29-.93-.29-.42 0-.75.21-1 .62-.25.41-.39 1-.43 1.78.38-.54.88-.8 1.5-.8.35 0 .67.09.95.27zm-.67 1.03a.737.737 0 00-.64-.33c-.21 0-.41.07-.6.21s-.37.34-.53.59c.01.82.1 1.41.26 1.75.16.35.42.52.79.52.32 0 .56-.14.72-.43.16-.29.24-.7.24-1.25-.02-.49-.09-.84-.24-1.06zM179.03 267.23v.97l-2.46 6.58-1.23-.41 2.3-6.07h-2.79v-1.07h4.18zM194.94 267.23v7.4h-1.35v-6.02l-1.46.99-.6-.9 2.2-1.47h1.21zM200.34 267.86c.41.51.62 1.21.62 2.12 0 1-.14 1.82-.42 2.46a3.51 3.51 0 01-1.28 1.52c-.57.38-1.33.7-2.29.95l-.29-.98c.88-.25 1.54-.58 1.99-.98.45-.4.72-.96.83-1.68-.37.49-.84.74-1.41.74-.34 0-.66-.1-.96-.29-.29-.19-.53-.47-.7-.84s-.26-.79-.26-1.27c0-.52.1-.97.31-1.35.21-.38.5-.67.86-.86.36-.2.77-.3 1.22-.3.78 0 1.37.25 1.78.76zm-.79 2.37c.01-.79-.06-1.33-.21-1.65s-.41-.47-.78-.47c-.32 0-.56.12-.74.36-.18.24-.26.61-.26 1.11 0 .49.08.85.25 1.08.17.23.39.35.67.35.43 0 .79-.26 1.07-.78zM205.72 269.99c.29.18.51.46.68.82.17.36.25.8.25 1.3 0 .54-.1 1-.29 1.41-.19.4-.47.72-.82.94-.35.22-.76.34-1.22.34-.84 0-1.45-.31-1.85-.94-.4-.63-.6-1.51-.6-2.65 0-.84.11-1.56.34-2.18.23-.62.55-1.1.97-1.43.42-.33.92-.5 1.49-.5.56 0 1.05.16 1.47.47l-.51.84c-.31-.19-.62-.29-.93-.29-.42 0-.75.21-1 .62-.25.41-.39 1-.43 1.78.38-.54.88-.8 1.5-.8.35 0 .67.09.95.27zm-.67 1.03a.737.737 0 00-.64-.33c-.21 0-.41.07-.6.21s-.37.34-.53.59c.01.82.1 1.41.26 1.75.16.35.42.52.79.52.32 0 .56-.14.72-.43.16-.29.24-.7.24-1.25-.02-.49-.09-.84-.24-1.06zM211.96 271.5c.23.32.35.7.35 1.14 0 .42-.1.79-.31 1.12s-.5.58-.88.76c-.38.18-.83.28-1.34.28-.51 0-.94-.09-1.31-.28-.37-.18-.66-.43-.85-.75-.2-.32-.3-.68-.3-1.09 0-.45.11-.82.34-1.13.22-.3.56-.56 1-.75-.37-.22-.65-.47-.81-.76-.17-.29-.25-.62-.25-.99 0-.4.1-.75.29-1.04.19-.29.46-.52.8-.67.34-.15.71-.23 1.13-.23.65 0 1.19.17 1.61.5s.63.8.63 1.4c0 .35-.09.67-.28.94-.19.27-.48.52-.89.73.48.22.84.5 1.07.82zm-1.31 1.98c.19-.19.29-.47.29-.84 0-.34-.09-.61-.26-.81-.17-.19-.48-.38-.92-.55l-.29-.12c-.52.31-.78.8-.78 1.47 0 .38.1.67.29.86.19.19.47.29.83.29.37-.01.65-.1.84-.3zm-1.75-4.41c0 .3.07.54.22.7.15.17.39.33.73.47l.19.08c.26-.18.44-.36.54-.56.1-.2.15-.43.15-.7 0-.33-.08-.58-.23-.75-.15-.17-.38-.25-.68-.25-.61-.01-.92.33-.92 1.01z"/><path class="st15" d="M32.82 267.27v7.36h-.98v-6.33l-1.53 1.03-.45-.66 2.09-1.41h.87zM38.15 267.91c.37.51.56 1.22.56 2.15 0 .98-.13 1.77-.4 2.39-.26.62-.66 1.11-1.18 1.49-.52.37-1.22.68-2.08.94l-.22-.73c.9-.28 1.57-.65 2.04-1.12.47-.46.74-1.11.81-1.93-.18.26-.4.47-.65.62s-.54.22-.85.22c-.34 0-.65-.09-.94-.29-.29-.19-.51-.46-.68-.82-.16-.36-.25-.77-.25-1.25 0-.51.1-.95.29-1.32.19-.37.45-.64.78-.84.33-.19.7-.29 1.12-.29.73.02 1.28.28 1.65.78zm-.46 2.36c.01-.84-.08-1.45-.27-1.81s-.49-.54-.92-.54c-.38 0-.68.14-.89.42-.21.28-.32.71-.32 1.27 0 .52.1.92.3 1.19.2.27.47.41.81.41.51-.01.93-.32 1.29-.94zM43.35 270.06c.27.18.49.44.66.79.16.35.24.78.24 1.29 0 .54-.09 1.01-.27 1.41-.18.4-.43.7-.75.91s-.69.31-1.11.31c-.78 0-1.36-.31-1.73-.93-.37-.62-.56-1.48-.56-2.59 0-.84.1-1.57.31-2.19.21-.62.51-1.09.9-1.42.39-.33.85-.49 1.38-.49.51 0 .97.15 1.36.45l-.38.63c-.31-.21-.63-.31-.96-.31-.48 0-.86.25-1.14.75s-.44 1.19-.48 2.07c.42-.63.95-.95 1.61-.95.34 0 .65.09.92.27zm-.38 3.47c.19-.32.29-.78.29-1.37 0-.56-.09-.97-.28-1.23s-.44-.38-.76-.38c-.27 0-.53.09-.76.27-.24.18-.45.44-.62.76.01.84.12 1.46.32 1.85.2.39.52.58.95.58.38 0 .66-.16.86-.48zM47.99 267.4c.3.17.53.39.69.67s.24.59.24.93c0 .47-.12.85-.36 1.14-.24.29-.59.49-1.03.59.48.04.87.22 1.17.53s.44.74.44 1.29c0 .42-.09.8-.28 1.13-.19.34-.45.6-.8.8-.35.2-.75.3-1.22.3-.42 0-.8-.08-1.14-.25-.33-.17-.64-.42-.92-.75l.59-.51c.23.25.45.43.68.54s.47.17.75.17c.4 0 .72-.13.96-.39s.36-.62.36-1.07c0-.48-.12-.83-.36-1.05-.24-.22-.58-.32-1.03-.32h-.46l.12-.74h.31c.37 0 .67-.11.91-.34.24-.23.36-.55.36-.98 0-.37-.1-.65-.3-.86-.2-.21-.48-.31-.83-.31-.26 0-.49.05-.71.15-.22.1-.43.26-.65.48l-.52-.53c.57-.59 1.23-.88 1.98-.88.4.01.75.1 1.05.26zM64.96 267.27v7.36h-.98v-6.33l-1.53 1.03-.45-.65 2.09-1.41h.87zM70.29 267.91c.37.51.56 1.22.56 2.15 0 .98-.13 1.77-.4 2.39-.26.62-.66 1.11-1.18 1.49-.52.37-1.22.68-2.08.94l-.22-.73c.89-.28 1.57-.65 2.04-1.12.47-.46.74-1.11.81-1.93-.18.26-.4.47-.65.62s-.54.22-.85.22c-.34 0-.65-.09-.93-.29-.29-.19-.51-.46-.68-.82-.17-.36-.25-.77-.25-1.25 0-.51.09-.95.29-1.32.19-.37.45-.64.78-.84.33-.19.7-.29 1.12-.29.72.02 1.27.28 1.64.78zm-.46 2.36c.01-.84-.08-1.45-.27-1.81-.19-.36-.49-.54-.92-.54-.38 0-.68.14-.89.42-.21.28-.32.71-.32 1.27 0 .52.1.92.3 1.19.2.27.47.41.81.41.5-.01.93-.32 1.29-.94zM75.49 270.06c.27.18.49.44.65.79s.24.78.24 1.29c0 .54-.09 1.01-.27 1.41-.18.4-.43.7-.75.91-.32.21-.69.31-1.11.31-.79 0-1.36-.31-1.73-.93-.37-.62-.56-1.48-.56-2.59 0-.84.1-1.57.31-2.19.21-.62.51-1.09.9-1.42.39-.33.85-.49 1.38-.49.51 0 .97.15 1.36.45l-.38.63c-.31-.21-.63-.31-.96-.31-.48 0-.86.25-1.14.75s-.44 1.19-.48 2.07c.42-.63.95-.95 1.61-.95.35 0 .66.09.93.27zm-.38 3.47c.19-.32.29-.78.29-1.37 0-.56-.09-.97-.28-1.23a.882.882 0 00-.76-.38c-.27 0-.53.09-.76.27-.24.18-.45.44-.62.76.01.84.12 1.46.32 1.85s.52.58.95.58c.37 0 .66-.16.86-.48zM81.85 272.03v.79h-.84v1.82h-.95v-1.82h-2.88v-.71l1.97-4.96.84.32-1.79 4.57h1.88l.1-2h.84v2h.83zM97.41 267.27v7.36h-.98v-6.33l-1.53 1.03-.45-.66 2.09-1.41h.87zM102.74 267.91c.37.51.56 1.22.56 2.15 0 .98-.13 1.77-.4 2.39-.26.62-.66 1.11-1.18 1.49-.52.37-1.22.68-2.08.94l-.22-.73c.89-.28 1.57-.65 2.04-1.12.47-.46.74-1.11.81-1.93-.18.26-.4.47-.65.62s-.54.22-.85.22c-.34 0-.65-.09-.93-.29-.29-.19-.51-.46-.68-.82-.17-.36-.25-.77-.25-1.25 0-.51.09-.95.29-1.32.19-.37.45-.64.78-.84.33-.19.7-.29 1.12-.29.72.02 1.27.28 1.64.78zm-.45 2.36c.01-.84-.08-1.45-.27-1.81-.19-.36-.49-.54-.92-.54-.38 0-.68.14-.89.42-.21.28-.32.71-.32 1.27 0 .52.1.92.3 1.19.2.27.47.41.81.41.5-.01.93-.32 1.29-.94zM107.95 270.06c.27.18.49.44.65.79s.24.78.24 1.29c0 .54-.09 1.01-.27 1.41-.18.4-.43.7-.75.91-.32.21-.69.31-1.11.31-.79 0-1.36-.31-1.73-.93-.37-.62-.56-1.48-.56-2.59 0-.84.1-1.57.31-2.19.21-.62.51-1.09.9-1.42.39-.33.85-.49 1.38-.49.51 0 .97.15 1.36.45l-.38.63c-.31-.21-.63-.31-.96-.31-.48 0-.86.25-1.14.75s-.44 1.19-.48 2.07c.42-.63.95-.95 1.61-.95.35 0 .65.09.93.27zm-.39 3.47c.19-.32.29-.78.29-1.37 0-.56-.09-.97-.28-1.23a.882.882 0 00-.76-.38c-.27 0-.53.09-.76.27-.24.18-.45.44-.62.76.01.84.12 1.46.32 1.85s.52.58.95.58c.38 0 .67-.16.86-.48zM113.5 268.04h-2.57v2.2c.34-.21.7-.31 1.08-.31.56 0 1.02.21 1.36.62s.52.98.52 1.71c0 .49-.1.93-.29 1.31-.19.38-.47.68-.82.89-.35.21-.76.32-1.23.32-.42 0-.79-.08-1.11-.24-.32-.16-.62-.4-.91-.71l.58-.53c.21.23.43.4.65.51.22.11.47.17.76.17.43 0 .75-.15.99-.45.23-.3.35-.72.35-1.28 0-1.05-.4-1.57-1.19-1.57-.18 0-.34.02-.48.07s-.31.12-.5.23h-.71v-3.7h3.65l-.13.76z"/><g><path class="st15" d="M129.53 267.27v7.36h-.98v-6.33l-1.53 1.03-.45-.66 2.09-1.41h.87zM134.86 267.91c.37.51.56 1.22.56 2.15 0 .98-.13 1.77-.4 2.39s-.66 1.11-1.18 1.49c-.52.37-1.22.68-2.08.94l-.22-.73c.9-.28 1.58-.65 2.04-1.12.47-.46.74-1.11.81-1.93-.18.26-.4.47-.65.62s-.54.22-.85.22c-.34 0-.65-.09-.94-.29-.29-.19-.51-.46-.68-.82-.16-.36-.25-.77-.25-1.25 0-.51.1-.95.29-1.32.19-.37.45-.64.78-.84.33-.19.7-.29 1.12-.29.72.02 1.28.28 1.65.78zm-.46 2.36c.01-.84-.08-1.45-.27-1.81-.19-.36-.49-.54-.92-.54-.38 0-.68.14-.89.42-.21.28-.32.71-.32 1.27 0 .52.1.92.3 1.19s.47.41.81.41c.5-.01.93-.32 1.29-.94zM140.06 270.06c.28.18.49.44.66.79.16.35.24.78.24 1.29 0 .54-.09 1.01-.27 1.41-.18.4-.43.7-.75.91-.32.21-.69.31-1.11.31-.78 0-1.36-.31-1.73-.93-.37-.62-.56-1.48-.56-2.59 0-.84.1-1.57.31-2.19.21-.62.51-1.09.9-1.42s.85-.49 1.38-.49c.51 0 .97.15 1.36.45l-.38.63c-.31-.21-.63-.31-.96-.31-.48 0-.86.25-1.14.75s-.44 1.19-.48 2.07c.42-.63.95-.95 1.61-.95.34 0 .65.09.92.27zm-.39 3.47c.19-.32.29-.78.29-1.37 0-.56-.09-.97-.28-1.23a.882.882 0 00-.76-.38c-.27 0-.53.09-.76.27-.24.18-.45.44-.62.76.01.84.12 1.46.33 1.85.2.39.52.58.95.58.37 0 .66-.16.85-.48zM145.52 270.06c.28.18.49.44.66.79.16.35.24.78.24 1.29 0 .54-.09 1.01-.27 1.41-.18.4-.43.7-.75.91-.32.21-.69.31-1.11.31-.78 0-1.36-.31-1.73-.93-.37-.62-.56-1.48-.56-2.59 0-.84.1-1.57.31-2.19.21-.62.51-1.09.9-1.42s.85-.49 1.38-.49c.51 0 .97.15 1.36.45l-.38.63c-.31-.21-.63-.31-.96-.31-.48 0-.86.25-1.14.75s-.44 1.19-.48 2.07c.42-.63.95-.95 1.61-.95.33 0 .64.09.92.27zm-.39 3.47c.19-.32.29-.78.29-1.37 0-.56-.09-.97-.28-1.23a.882.882 0 00-.76-.38c-.27 0-.53.09-.76.27-.24.18-.45.44-.62.76.01.84.12 1.46.33 1.85.2.39.52.58.95.58.37 0 .66-.16.85-.48z"/></g><g><path class="st15" d="M260.22 267.27v7.36h-.98v-6.33l-1.53 1.03-.45-.66 2.09-1.41h.87zM265.55 267.91c.37.51.56 1.22.56 2.15 0 .98-.13 1.77-.4 2.39s-.66 1.11-1.18 1.49c-.52.37-1.22.68-2.08.94l-.22-.73c.9-.28 1.58-.65 2.04-1.12.47-.46.74-1.11.81-1.93-.18.26-.4.47-.65.62s-.54.22-.85.22c-.34 0-.65-.09-.94-.29-.29-.19-.51-.46-.68-.82-.16-.36-.25-.77-.25-1.25 0-.51.1-.95.29-1.32.19-.37.45-.64.78-.84.33-.19.7-.29 1.12-.29.73.02 1.28.28 1.65.78zm-.45 2.36c.01-.84-.08-1.45-.27-1.81-.19-.36-.49-.54-.92-.54-.38 0-.68.14-.89.42-.21.28-.32.71-.32 1.27 0 .52.1.92.3 1.19s.47.41.81.41c.5-.01.93-.32 1.29-.94zM270.79 267.27v.73l-2.52 6.74-.89-.29 2.42-6.39h-2.95v-.79h3.94zM275.63 268.11c.38.64.57 1.59.57 2.85 0 1.28-.19 2.23-.57 2.87s-.94.95-1.68.95c-.75 0-1.31-.32-1.69-.96-.38-.64-.57-1.59-.57-2.86 0-2.54.76-3.81 2.27-3.81.73 0 1.29.32 1.67.96zm-2.62.51c-.2.47-.3 1.25-.3 2.34 0 1.1.1 1.88.3 2.34.2.46.51.69.94.69.42 0 .73-.23.93-.69.2-.46.3-1.24.3-2.34 0-1.1-.1-1.88-.3-2.34-.2-.46-.51-.69-.93-.69-.42-.01-.74.23-.94.69z"/></g><g><path class="st15" d="M227.6 267.27v7.36h-.98v-6.33l-1.53 1.03-.45-.66 2.09-1.41h.87zM232.93 267.91c.37.51.56 1.22.56 2.15 0 .98-.13 1.77-.4 2.39s-.66 1.11-1.18 1.49c-.52.37-1.22.68-2.08.94l-.22-.73c.9-.28 1.58-.65 2.04-1.12.47-.46.74-1.11.81-1.93-.18.26-.4.47-.65.62s-.54.22-.85.22c-.34 0-.65-.09-.94-.29-.29-.19-.51-.46-.68-.82-.16-.36-.25-.77-.25-1.25 0-.51.1-.95.29-1.32.19-.37.45-.64.78-.84.33-.19.7-.29 1.12-.29.72.02 1.28.28 1.65.78zm-.46 2.36c.01-.84-.08-1.45-.27-1.81-.19-.36-.49-.54-.92-.54-.38 0-.68.14-.89.42-.21.28-.32.71-.32 1.27 0 .52.1.92.3 1.19s.47.41.81.41c.5-.01.93-.32 1.29-.94zM238.13 270.06c.28.18.49.44.66.79.16.35.24.78.24 1.29 0 .54-.09 1.01-.27 1.41-.18.4-.43.7-.75.91-.32.21-.69.31-1.11.31-.78 0-1.36-.31-1.73-.93-.37-.62-.56-1.48-.56-2.59 0-.84.1-1.57.31-2.19.21-.62.51-1.09.9-1.42s.85-.49 1.38-.49c.51 0 .97.15 1.36.45l-.38.63c-.31-.21-.63-.31-.96-.31-.48 0-.86.25-1.14.75s-.44 1.19-.48 2.07c.42-.63.95-.95 1.61-.95.34 0 .65.09.92.27zm-.38 3.47c.19-.32.29-.78.29-1.37 0-.56-.09-.97-.28-1.23a.882.882 0 00-.76-.38c-.27 0-.53.09-.76.27-.24.18-.45.44-.62.76.01.84.12 1.46.33 1.85.2.39.52.58.95.58.36 0 .65-.16.85-.48zM243.73 267.91c.37.51.56 1.22.56 2.15 0 .98-.13 1.77-.4 2.39s-.66 1.11-1.18 1.49c-.52.37-1.22.68-2.08.94l-.22-.73c.9-.28 1.58-.65 2.04-1.12.47-.46.74-1.11.81-1.93-.18.26-.4.47-.65.62s-.54.22-.85.22c-.34 0-.65-.09-.94-.29-.29-.19-.51-.46-.68-.82-.16-.36-.25-.77-.25-1.25 0-.51.1-.95.29-1.32.19-.37.45-.64.78-.84.33-.19.7-.29 1.12-.29.73.02 1.28.28 1.65.78zm-.46 2.36c.01-.84-.08-1.45-.27-1.81-.19-.36-.49-.54-.92-.54-.38 0-.68.14-.89.42-.21.28-.32.71-.32 1.27 0 .52.1.92.3 1.19s.47.41.81.41c.5-.01.93-.32 1.29-.94z"/></g><g><path class="st15" d="M293.26 267.27v7.36h-.98v-6.33l-1.53 1.03-.45-.66 2.09-1.41h.87zM298.59 267.91c.37.51.56 1.22.56 2.15 0 .98-.13 1.77-.4 2.39-.26.62-.66 1.11-1.18 1.49-.52.37-1.22.68-2.08.94l-.22-.73c.89-.28 1.57-.65 2.04-1.12.47-.46.74-1.11.81-1.93-.18.26-.4.47-.65.62s-.54.22-.85.22c-.34 0-.65-.09-.93-.29-.29-.19-.51-.46-.68-.82-.17-.36-.25-.77-.25-1.25 0-.51.09-.95.29-1.32.19-.37.45-.64.78-.84.33-.19.7-.29 1.12-.29.72.02 1.27.28 1.64.78zm-.46 2.36c.01-.84-.08-1.45-.27-1.81-.19-.36-.49-.54-.92-.54-.38 0-.68.14-.89.42-.21.28-.32.71-.32 1.27 0 .52.1.92.3 1.19.2.27.47.41.81.41.51-.01.94-.32 1.29-.94zM303.83 267.27v.73l-2.52 6.74-.89-.29 2.42-6.39h-2.95v-.79h3.94zM307.35 267.27v7.36h-.98v-6.33l-1.53 1.03-.45-.66 2.09-1.41h.87z"/></g><g><path class="st15" d="M325.3 267.27v7.36h-.98v-6.33l-1.53 1.03-.45-.66 2.09-1.41h.87zM330.63 267.91c.37.51.56 1.22.56 2.15 0 .98-.13 1.77-.4 2.39-.26.62-.66 1.11-1.18 1.49-.52.37-1.22.68-2.08.94l-.22-.73c.89-.28 1.57-.65 2.04-1.12.47-.46.74-1.11.81-1.93-.18.26-.4.47-.65.62s-.54.22-.85.22c-.34 0-.65-.09-.93-.29-.29-.19-.51-.46-.68-.82-.17-.36-.25-.77-.25-1.25 0-.51.09-.95.29-1.32.19-.37.45-.64.78-.84.33-.19.7-.29 1.12-.29.72.02 1.27.28 1.64.78zm-.46 2.36c.01-.84-.08-1.45-.27-1.81-.19-.36-.49-.54-.92-.54-.38 0-.68.14-.89.42-.21.28-.32.71-.32 1.27 0 .52.1.92.3 1.19.2.27.47.41.81.41.5-.01.93-.32 1.29-.94zM335.87 267.27v.73l-2.52 6.74-.89-.29 2.42-6.39h-2.95v-.79h3.94zM339.47 267.41c.3.17.54.41.7.7.16.3.24.63.24 1.01 0 .45-.09.87-.26 1.27s-.45.85-.83 1.34c-.38.49-.97 1.19-1.76 2.09h3.01l-.12.81h-3.98v-.77c.85-.98 1.47-1.73 1.86-2.23s.67-.94.82-1.3c.15-.36.23-.75.23-1.15 0-.39-.1-.69-.29-.9s-.46-.32-.79-.32c-.28 0-.52.06-.73.19-.21.12-.42.32-.64.59l-.62-.47c.54-.74 1.22-1.11 2.06-1.11.44-.01.8.08 1.1.25z"/></g><g><path class="st23" d="M4.92 197.39c.3.17.54.41.7.71.16.3.24.63.24 1.01 0 .45-.09.87-.26 1.27s-.45.85-.83 1.34-.97 1.19-1.76 2.09h3.01l-.12.81H1.92v-.77c.85-.98 1.47-1.73 1.86-2.23.39-.51.67-.94.82-1.3.15-.36.23-.75.23-1.15 0-.39-.1-.69-.29-.9s-.46-.32-.79-.32c-.28 0-.52.06-.73.19-.21.12-.42.32-.64.59l-.62-.47c.54-.74 1.22-1.11 2.06-1.11.44-.02.8.06 1.1.24zM11.01 198.09c.38.64.57 1.59.57 2.85 0 1.28-.19 2.23-.57 2.87-.38.63-.94.95-1.68.95-.75 0-1.31-.32-1.69-.96s-.57-1.59-.57-2.86c0-2.54.75-3.81 2.27-3.81.73 0 1.29.32 1.67.96zm-2.62.51c-.2.46-.3 1.24-.3 2.34 0 1.1.1 1.88.3 2.34.2.46.52.69.94.69.42 0 .73-.23.93-.69.2-.46.3-1.24.3-2.34 0-1.1-.1-1.88-.3-2.34s-.51-.69-.94-.69-.73.22-.93.69zM18.4 204.35c-.37.26-.77.4-1.22.4-.47 0-.83-.14-1.08-.41-.25-.27-.38-.65-.38-1.14v-3.63h-.82v-.75h.82v-1.33l.99-.12v1.45h1.28l-.11.75h-1.17v3.62c0 .5.21.75.63.75.12 0 .24-.02.35-.05.11-.04.23-.09.36-.17l.35.63zM20.22 196.28c.12.12.18.28.18.46s-.06.34-.18.46-.27.18-.47.18a.64.64 0 01-.47-.18c-.12-.12-.18-.27-.18-.46s.06-.34.18-.46.28-.19.47-.19.35.07.47.19zm.03 2.54v5.79h-.99v-5.79h.99zM25.31 199.34l-.42.58c-.23-.16-.45-.28-.66-.36-.21-.08-.42-.12-.65-.12-.3 0-.54.07-.71.21a.73.73 0 00-.26.59c0 .24.08.43.25.57.17.14.48.28.94.43.58.18 1 .41 1.27.67s.4.63.4 1.09c0 .54-.2.97-.59 1.28-.4.31-.89.47-1.49.47-.78 0-1.45-.26-1.99-.78l.51-.55c.46.37.95.56 1.46.56.32 0 .58-.08.78-.24.2-.16.3-.38.3-.67 0-.21-.03-.37-.1-.49s-.19-.24-.37-.34c-.18-.1-.44-.2-.79-.31-.55-.18-.95-.4-1.19-.66s-.36-.58-.36-.98c0-.31.08-.58.24-.82.16-.24.38-.43.67-.57.29-.14.62-.21.99-.21.66-.01 1.25.21 1.77.65zM27.49 203.56c.13.14.19.3.19.49s-.06.36-.19.5-.3.21-.5.21-.36-.07-.49-.21c-.13-.14-.19-.3-.19-.5s.06-.35.19-.49.29-.2.49-.2c.21-.01.37.06.5.2z"/></g><g><path class="st31" d="M190.12 205.58v-1.12h3.32v1.12h-3.32zM197.14 201.06v7.4h-1.39v-5.98l-1.65 1-.62-.95 2.41-1.47h1.25zM202.01 201.18c.36.17.62.4.8.68s.27.6.27.95c0 .45-.13.82-.39 1.12-.26.3-.61.5-1.06.62.49.04.89.22 1.21.53s.47.73.47 1.28c0 .43-.11.81-.33 1.15-.22.35-.53.62-.93.82s-.88.3-1.43.3c-1.01 0-1.81-.36-2.4-1.07l.78-.75c.25.25.5.43.74.54.24.11.51.17.8.17.4 0 .71-.11.95-.33.24-.22.36-.53.36-.91 0-.42-.11-.73-.34-.91-.22-.18-.56-.28-1-.28h-.58l.17-1h.4c.36 0 .65-.1.86-.3.22-.2.33-.47.33-.82 0-.3-.1-.54-.3-.71-.2-.17-.46-.26-.79-.26-.29 0-.55.05-.78.16-.24.11-.47.27-.7.49l-.71-.78c.67-.63 1.44-.95 2.32-.95.5 0 .92.09 1.28.26zM210.37 201.18c.36.17.62.4.8.68s.27.6.27.95c0 .45-.13.82-.38 1.12s-.61.5-1.06.62c.49.04.89.22 1.21.53.31.31.47.73.47 1.28 0 .43-.11.81-.32 1.15-.22.35-.53.62-.93.82s-.88.3-1.43.3c-1.01 0-1.81-.36-2.4-1.07l.78-.75c.25.25.5.43.74.54.24.11.51.17.8.17.4 0 .71-.11.95-.33.24-.22.36-.53.36-.91 0-.42-.11-.73-.33-.91-.22-.18-.56-.28-1-.28h-.58l.17-1h.4c.36 0 .65-.1.86-.3.22-.2.32-.47.32-.82 0-.3-.1-.54-.3-.71-.2-.17-.46-.26-.79-.26-.29 0-.55.05-.78.16-.23.11-.47.27-.7.49l-.71-.78c.67-.63 1.44-.95 2.32-.95.48 0 .9.09 1.26.26zM218 206.47c0 .4-.11.77-.34 1.09s-.55.59-.96.78c-.42.19-.9.29-1.45.29-.54 0-1.02-.09-1.42-.28s-.71-.44-.93-.76c-.22-.32-.33-.69-.33-1.09 0-.85.47-1.47 1.41-1.87-.74-.4-1.11-.99-1.11-1.75 0-.39.11-.73.32-1.03.22-.3.51-.52.88-.68.37-.16.78-.24 1.21-.24.45 0 .85.07 1.22.22s.66.36.87.65c.22.29.32.63.32 1.02 0 .7-.41 1.25-1.22 1.67 1.02.45 1.53 1.11 1.53 1.98zm-1.78.8c.23-.21.34-.47.34-.8 0-.34-.1-.6-.3-.8s-.55-.38-1.06-.57l-.34-.12c-.59.32-.89.8-.89 1.46 0 .35.12.63.35.83.23.2.55.3.95.3.41.01.73-.09.95-.3zm-1.72-5.1c-.19.17-.28.41-.28.73 0 .29.09.53.26.7s.46.33.85.47l.21.08c.29-.18.49-.36.61-.56s.18-.43.18-.7c0-.3-.09-.54-.28-.71-.18-.17-.44-.26-.78-.26-.32-.01-.58.08-.77.25zM223.06 203.81c.32.19.57.46.75.82s.28.8.28 1.3c0 .51-.11.97-.32 1.38-.21.41-.51.73-.9.96-.38.23-.82.35-1.31.35-.91 0-1.58-.32-2.02-.96-.44-.64-.65-1.51-.65-2.63 0-.82.12-1.54.37-2.16.25-.62.6-1.1 1.06-1.44.46-.34 1-.51 1.61-.51.61 0 1.15.16 1.62.47l-.53.87c-.34-.2-.69-.3-1.07-.3-.47 0-.85.21-1.13.63s-.44 1-.48 1.74c.45-.54 1-.81 1.66-.81.39.01.74.1 1.06.29zm-.67 3.33c.19-.29.28-.68.28-1.18 0-.51-.09-.87-.26-1.08-.17-.22-.42-.32-.75-.32-.25 0-.49.07-.71.2-.22.14-.42.32-.6.56.01.8.12 1.38.3 1.73.19.36.49.53.91.53.37 0 .64-.15.83-.44zM200.78 217.91h-3.7c.04.64.21 1.11.48 1.41.28.3.64.45 1.08.45.28 0 .54-.04.77-.12.23-.08.48-.21.74-.39l.44.61c-.62.48-1.29.73-2.02.73-.81 0-1.44-.26-1.89-.79-.45-.53-.68-1.25-.68-2.18 0-.6.1-1.13.29-1.6.19-.47.47-.83.84-1.1.36-.26.79-.4 1.28-.4.77 0 1.36.25 1.77.76s.62 1.21.62 2.1c0 .17-.01.34-.02.52zm-.98-.82c0-.57-.11-1.01-.34-1.31-.23-.3-.57-.45-1.02-.45-.83 0-1.28.61-1.35 1.83h2.72v-.07zM206.63 214.66l-1.97 5.8h-1.22l-2-5.8h1.1l1.52 4.9 1.51-4.9h1.06zM208.8 212.08c.13.13.2.3.2.49 0 .2-.07.36-.2.49s-.3.19-.52.19c-.21 0-.37-.06-.51-.19a.663.663 0 01-.2-.49c0-.2.07-.36.2-.49s.3-.2.51-.2c.22 0 .39.06.52.2zm0 2.58v5.8h-1.01v-5.8h1.01zM215.38 212.33v8.13h-.89l-.1-.8c-.19.29-.43.52-.71.69-.29.17-.61.25-.96.25-.69 0-1.23-.27-1.61-.81-.38-.54-.58-1.27-.58-2.19 0-.59.09-1.12.28-1.58.18-.46.45-.82.79-1.08s.75-.39 1.21-.39c.59 0 1.11.24 1.56.72v-3.04l1.01.1zm-1.65 7.24c.22-.14.43-.36.64-.64v-2.84c-.19-.25-.39-.44-.61-.57-.22-.13-.46-.19-.73-.19-.45 0-.79.19-1.04.56-.25.37-.37.93-.37 1.67 0 .75.11 1.31.34 1.67.23.37.55.55.98.55.3.01.57-.06.79-.21zM221.54 215.34c.45.54.68 1.28.68 2.21 0 .6-.1 1.13-.31 1.59-.21.46-.5.81-.89 1.07-.39.25-.85.38-1.39.38-.81 0-1.45-.27-1.9-.81-.46-.54-.68-1.28-.68-2.21 0-.6.1-1.13.31-1.59.21-.46.5-.81.89-1.07.39-.25.85-.38 1.4-.38.81 0 1.44.27 1.89.81zm-3.4 2.23c0 1.47.5 2.21 1.5 2.21s1.5-.74 1.5-2.22c0-1.47-.5-2.21-1.48-2.21-1.02-.01-1.52.74-1.52 2.22zM228.1 214.66l-1.97 5.8h-1.22l-2-5.8h1.1l1.52 4.9 1.51-4.9h1.06zM233.11 219.63c.08.11.2.2.36.26l-.23.7c-.3-.04-.54-.12-.73-.25-.18-.13-.32-.34-.41-.62-.39.58-.96.87-1.73.87-.57 0-1.02-.16-1.35-.48s-.5-.74-.5-1.27c0-.62.22-1.09.67-1.42.44-.33 1.07-.5 1.89-.5h.89v-.43c0-.41-.1-.71-.3-.88-.2-.18-.5-.26-.91-.26-.43 0-.95.1-1.56.31l-.25-.74c.72-.26 1.39-.4 2-.4.68 0 1.19.17 1.53.5.34.33.51.81.51 1.42v2.65c0 .25.04.42.12.54zm-1.13-.7v-1.33h-.76c-1.07 0-1.61.4-1.61 1.19 0 .35.08.61.25.78s.42.26.75.26c.58 0 1.04-.3 1.37-.9zM239.03 215c.3.31.45.75.45 1.3v4.16h-1.01v-4.01c0-.41-.08-.7-.23-.87-.15-.17-.38-.25-.68-.25-.31 0-.58.09-.81.26a2.8 2.8 0 00-.66.76v4.11h-1.01v-5.8h.87l.09.86c.21-.31.46-.55.76-.73.3-.18.64-.26 1.01-.26.51 0 .93.16 1.22.47zM243.76 220.49c-.23.67-.54 1.21-.95 1.6-.41.39-.99.63-1.74.71l-.11-.79c.38-.07.69-.16.91-.29s.41-.28.54-.48.26-.46.38-.79h-.34l-1.95-5.8h1.08l1.55 5.06 1.52-5.06h1.04l-1.93 5.84zm.21-8.84l.45.85-2.33.95-.31-.54 2.19-1.26zM249.86 214.68c.29.1.56.26.83.48l-.48.64c-.21-.15-.41-.25-.6-.32s-.41-.1-.64-.1c-.47 0-.83.19-1.09.56-.26.37-.39.93-.39 1.66 0 .73.13 1.28.39 1.62.26.35.62.52 1.1.52.23 0 .44-.03.63-.1s.4-.18.64-.34l.46.66c-.53.43-1.12.64-1.77.64-.79 0-1.4-.26-1.85-.79-.45-.53-.68-1.26-.68-2.19 0-.62.1-1.16.31-1.62.21-.46.5-.82.87-1.08.38-.26.83-.39 1.35-.39.32 0 .64.05.92.15zM256.03 215c.3.31.45.75.45 1.3v4.16h-1.01v-4.01c0-.41-.08-.7-.24-.87-.16-.17-.39-.25-.69-.25s-.57.09-.8.26c-.23.18-.46.43-.66.75v4.12h-1.01v-8.12l1.01-.11v3.23c.46-.62 1.03-.93 1.72-.93.52 0 .93.16 1.23.47zM265.74 220.46h-.87l-.08-.9c-.22.36-.47.62-.76.79-.29.17-.63.25-1.04.25-.51 0-.9-.15-1.19-.46-.29-.31-.43-.74-.43-1.31v-4.16h1.01v4.05c0 .4.07.68.21.84.14.17.37.25.68.25.56 0 1.05-.33 1.45-1v-4.14h1.01v5.79zm-1.31-8.81l.45.85-2.33.95-.31-.54 2.19-1.26zM274.79 215.01c.29.32.43.75.43 1.29v4.16h-1.01v-4.01c0-.75-.27-1.12-.81-1.12-.29 0-.53.08-.73.25-.2.16-.41.42-.64.78v4.11h-1.01v-4.01c0-.75-.27-1.12-.81-1.12-.29 0-.54.08-.74.25-.2.17-.41.42-.63.77v4.11h-1.01v-5.8h.87l.09.85c.43-.65.99-.98 1.67-.98.36 0 .67.09.92.28.25.18.43.44.54.77.23-.34.48-.6.75-.78.27-.18.6-.27.97-.27.48-.01.86.15 1.15.47zM280.34 214.6l-.19.99c-.18-.04-.35-.07-.51-.07-.36 0-.65.13-.87.4-.22.26-.39.68-.52 1.23v3.31h-1.01v-5.8h.87l.1 1.18c.15-.43.36-.76.63-.98s.57-.33.92-.33c.22 0 .41.02.58.07zM284.42 220.19c-.38.26-.81.4-1.3.4s-.88-.14-1.15-.42c-.28-.28-.41-.69-.41-1.23v-3.5h-1.01v-.78h1.01v-1.31l1.01-.12v1.43h1.38l-.11.78h-1.26v3.45c0 .3.05.52.16.65s.28.2.53.2c.23 0 .48-.08.77-.23l.38.68zM286.84 211.65l.45.85-2.33.95-.31-.54 2.19-1.26zm-.36 3.01v5.8h-1.01v-5.8h1.01z"/></g><g><path class="st23" d="M6.17 151.92v.79h-.84v1.82h-.94v-1.82H1.51V152l1.97-4.96.84.32-1.79 4.56H4.4l.1-2h.84v2h.83zM11.01 148c.38.64.57 1.59.57 2.85 0 1.28-.19 2.23-.57 2.87-.38.63-.94.95-1.68.95-.75 0-1.31-.32-1.69-.96-.38-.64-.57-1.59-.57-2.86 0-2.54.75-3.81 2.27-3.81.73 0 1.29.32 1.67.96zm-2.62.51c-.2.46-.3 1.24-.3 2.34 0 1.1.1 1.88.3 2.34.2.46.52.69.94.69.42 0 .73-.23.93-.69.2-.46.3-1.24.3-2.34 0-1.1-.1-1.88-.3-2.34-.2-.46-.51-.69-.94-.69s-.73.23-.93.69zM18.4 154.27c-.37.26-.77.4-1.22.4-.47 0-.83-.14-1.08-.41-.25-.27-.38-.65-.38-1.14v-3.63h-.83v-.75h.83v-1.33l.99-.12v1.45h1.28l-.11.75h-1.17v3.62c0 .5.21.75.63.75.12 0 .24-.02.35-.05.11-.04.23-.09.36-.17l.35.63zM20.22 146.2c.12.12.18.28.18.46s-.06.34-.18.46a.64.64 0 01-.47.18.64.64 0 01-.47-.18c-.12-.12-.18-.27-.18-.46s.06-.34.18-.46.28-.19.47-.19.35.06.47.19zm.03 2.54v5.79h-.99v-5.79h.99zM25.31 149.26l-.42.58c-.24-.16-.46-.28-.66-.36-.21-.08-.42-.12-.65-.12-.3 0-.54.07-.71.21a.73.73 0 00-.26.59c0 .24.08.43.25.57.17.14.48.28.94.43.58.18 1 .41 1.26.67s.4.63.4 1.09c0 .54-.2.97-.59 1.28-.4.31-.89.47-1.48.47-.78 0-1.45-.26-1.99-.78l.51-.55c.46.37.95.56 1.46.56.32 0 .58-.08.78-.24.2-.16.3-.38.3-.67 0-.21-.04-.37-.1-.49-.07-.12-.19-.24-.37-.34s-.44-.2-.79-.31c-.55-.18-.95-.4-1.19-.66s-.36-.58-.36-.98c0-.31.08-.58.24-.82s.39-.43.67-.57c.29-.14.62-.21.99-.21.66-.01 1.25.21 1.77.65zM27.49 153.47c.13.14.19.3.19.49s-.06.36-.19.5-.3.21-.5.21-.36-.07-.49-.21c-.13-.14-.19-.3-.19-.5s.06-.35.19-.49.29-.2.49-.2c.21 0 .38.07.5.2z"/></g><g><path class="st23" d="M6.08 73.7L4.3 70.18H3.14v3.52H2.02v-8.26h1.93c1.97 0 2.95.78 2.95 2.33 0 .54-.13 1-.4 1.38-.26.38-.65.65-1.16.83l1.97 3.72H6.08zm-.76-4.75c.28-.25.42-.65.42-1.18 0-.5-.14-.88-.43-1.12-.28-.24-.75-.36-1.39-.36h-.78v3.04h.9c.57 0 1-.13 1.28-.38zM12.59 68.08c.45.57.67 1.38.67 2.45 0 1.02-.23 1.83-.68 2.43-.46.6-1.08.89-1.88.89-.81 0-1.44-.29-1.89-.88-.45-.58-.68-1.4-.68-2.44 0-1.05.23-1.86.68-2.44.46-.58 1.09-.87 1.9-.87s1.43.29 1.88.86zm-2.96.61c-.25.4-.37 1.01-.37 1.85 0 1.64.48 2.46 1.44 2.46s1.44-.82 1.44-2.47c0-.84-.12-1.46-.36-1.85-.24-.39-.6-.59-1.07-.59s-.83.2-1.08.6zM17.94 67.4c.28.11.55.28.8.52l-.48.65c-.19-.15-.38-.27-.58-.34-.19-.08-.4-.11-.62-.11-.47 0-.84.2-1.1.6-.26.4-.39 1.02-.39 1.87 0 1.58.5 2.38 1.49 2.38.22 0 .43-.04.61-.11s.38-.19.59-.34l.5.66c-.51.46-1.09.7-1.74.7-.81 0-1.44-.28-1.9-.84-.46-.56-.69-1.37-.69-2.42 0-.69.11-1.28.32-1.79.21-.5.51-.89.9-1.16s.84-.41 1.36-.41c.35-.03.65.02.93.14zm.44-3.1l.42.48-1.45 1.39h-.67l-1.45-1.39.42-.48 1.37 1.06 1.36-1.06zM23.96 67.73c.28.33.43.79.43 1.37v4.6h-1.08v-4.46c0-.41-.07-.7-.2-.88-.14-.18-.34-.27-.62-.27-.53 0-1.01.38-1.44 1.13v4.49h-1.08V67.4h.94l.08.94c.49-.73 1.09-1.09 1.8-1.09.49-.02.89.14 1.17.48zM27.62 64.13l.45.87-2.3 1.04-.31-.55 2.16-1.36zm-.26 3.25v6.31h-1.08v-6.31h1.08zM6.25 79.08c.35.57.52 1.38.52 2.44 0 1.02-.19 1.84-.58 2.44-.39.6-.93.9-1.63.9-.62 0-1.13-.25-1.51-.76v3l-1.08.13v-8.84h.95l.06.85c.43-.67 1-1.01 1.72-1.01.68 0 1.2.28 1.55.85zm-.61 2.45c0-.86-.1-1.48-.31-1.87-.2-.39-.51-.58-.93-.58-.28 0-.53.08-.74.25-.22.17-.42.4-.61.68v3.19c.33.52.75.78 1.26.78.89.01 1.33-.81 1.33-2.45zM12.44 79.08c.45.57.67 1.38.67 2.45 0 1.02-.23 1.83-.68 2.43-.46.6-1.08.89-1.88.89-.81 0-1.44-.29-1.89-.88-.45-.58-.68-1.4-.68-2.44 0-1.05.23-1.86.68-2.44.46-.58 1.09-.87 1.9-.87.8.01 1.43.29 1.88.86zm-2.97.61c-.25.4-.37 1.01-.37 1.85 0 1.64.48 2.46 1.44 2.46s1.44-.82 1.44-2.47c0-.84-.12-1.46-.36-1.85-.24-.39-.6-.59-1.07-.59-.47 0-.83.2-1.08.6zM17.79 78.4c.28.11.55.28.8.52l-.48.65c-.19-.15-.38-.27-.58-.34-.19-.08-.4-.11-.62-.11-.47 0-.84.2-1.1.6-.26.4-.39 1.02-.39 1.87 0 1.58.5 2.38 1.49 2.38.22 0 .43-.04.61-.11.18-.08.38-.19.59-.34l.5.66c-.51.46-1.09.7-1.74.7-.81 0-1.44-.28-1.9-.84-.46-.56-.69-1.37-.69-2.42 0-.69.11-1.28.32-1.79.21-.5.51-.89.9-1.16.39-.27.84-.41 1.36-.41.34-.03.65.02.93.14zm.43-3.1l.42.48-1.45 1.39h-.67l-1.45-1.39.42-.48 1.37 1.06 1.36-1.06zM22.79 84.42c-.4.29-.84.43-1.33.43-.51 0-.91-.15-1.18-.44-.28-.3-.41-.71-.41-1.25V79.2h-.9v-.82h.9v-1.45l1.08-.13v1.58h1.39l-.12.82h-1.27v3.95c0 .54.23.82.68.82.14 0 .26-.02.38-.06.12-.04.25-.1.39-.18l.39.69zM26.1 84.72c-.22.74-.54 1.32-.95 1.73-.41.41-.99.67-1.74.78l-.12-.8c.38-.08.68-.19.9-.32.22-.14.4-.31.54-.53s.27-.51.4-.88h-.4l-1.87-6.31h1.12l1.46 5.56 1.46-5.56H28l-1.9 6.33zM36.23 84.7h-.93l-.06-.95c-.44.74-1.03 1.1-1.76 1.1-.5 0-.9-.16-1.19-.49s-.43-.77-.43-1.33v-4.64h1.08v4.55c0 .37.07.64.21.81.14.17.35.26.63.26.54 0 1-.35 1.38-1.06v-4.56h1.08v6.31zm-1.39-9.57l.46.87-2.3 1.04-.31-.55 2.15-1.36zM45.1 78.74c.27.34.41.79.41 1.36v4.6h-1.07v-4.48c0-.77-.25-1.15-.74-1.15-.48 0-.92.37-1.32 1.1v4.52h-1.07v-4.48c0-.77-.25-1.15-.74-1.15s-.93.37-1.32 1.1v4.52h-1.07v-6.31h.94l.08.92c.46-.72 1.02-1.08 1.68-1.08.34 0 .64.1.88.3.24.2.41.48.52.85.49-.77 1.07-1.15 1.74-1.15.44.02.81.19 1.08.53zM50.54 78.31l-.18 1.04a1.57 1.57 0 00-.49-.07c-.35 0-.64.14-.86.42-.22.28-.39.71-.52 1.28v3.71H47.4v-6.31h.94l.08 1.25c.31-.93.84-1.39 1.57-1.39.21 0 .39.02.55.07zM54.58 84.42c-.4.29-.84.43-1.33.43-.51 0-.91-.15-1.18-.44-.28-.3-.41-.71-.41-1.25V79.2h-.9v-.82h.9v-1.45l1.08-.13v1.58h1.39l-.13.82h-1.27v3.95c0 .54.23.82.68.82.14 0 .26-.02.38-.06s.25-.1.39-.18l.4.69zM56.85 75.13l.45.87-2.3 1.04-.31-.55 2.16-1.36zm-.25 3.25v6.31h-1.08v-6.31h1.08z"/></g><g><path class="st32" d="M343.38 103.21h-1.52l-3.36-7.02c.05.55.09 1.06.11 1.53.03.47.04 1.03.04 1.7v3.79h-1.07v-8.27h1.49l3.4 7.03c-.02-.21-.06-.57-.1-1.09s-.06-1-.06-1.43v-4.51h1.07v8.27zM350.48 100.42h-4.03c.05.7.22 1.21.53 1.54s.7.49 1.18.49c.3 0 .58-.04.84-.13s.52-.23.8-.42l.48.66c-.67.53-1.41.79-2.21.79-.88 0-1.57-.29-2.06-.86-.49-.58-.74-1.37-.74-2.38 0-.66.11-1.24.32-1.75.21-.51.52-.91.91-1.19.4-.29.86-.43 1.4-.43.84 0 1.48.28 1.93.83.45.55.67 1.32.67 2.29 0 .18-.01.37-.02.56zm-1.07-.89c0-.62-.12-1.1-.37-1.43-.25-.33-.62-.49-1.12-.49-.9 0-1.4.66-1.48 1.99h2.96v-.07zM359.86 97.26c.31.35.47.82.47 1.41v4.54h-1.1v-4.38c0-.82-.3-1.22-.89-1.22-.31 0-.58.09-.79.27s-.45.46-.7.85v4.49h-1.1v-4.38c0-.82-.3-1.22-.89-1.22-.32 0-.59.09-.8.28-.22.18-.44.46-.68.84v4.49h-1.1v-6.32h.95l.1.92c.47-.71 1.08-1.07 1.82-1.07.39 0 .73.1 1 .3.28.2.47.48.59.84.25-.37.52-.65.82-.85.3-.2.65-.29 1.06-.29.51-.02.93.15 1.24.5zM366.99 97.63c.49.59.74 1.4.74 2.41 0 .66-.11 1.23-.34 1.73s-.55.89-.97 1.16c-.42.28-.93.41-1.51.41-.89 0-1.58-.3-2.08-.89-.5-.59-.74-1.4-.74-2.41 0-.66.11-1.23.34-1.73.22-.5.55-.89.97-1.16.42-.28.93-.41 1.52-.41.89 0 1.58.29 2.07.89zm-3.71 2.42c0 1.61.54 2.41 1.63 2.41s1.63-.81 1.63-2.42c0-1.61-.54-2.41-1.62-2.41-1.09 0-1.64.8-1.64 2.42zM372.89 96.9c.31.11.61.28.9.52l-.53.7c-.22-.16-.44-.28-.65-.35s-.45-.11-.7-.11c-.51 0-.91.2-1.19.61-.28.41-.43 1.01-.43 1.81s.14 1.39.42 1.77.68.57 1.2.57c.25 0 .48-.04.68-.11.21-.08.44-.2.7-.37l.5.72c-.58.46-1.22.7-1.93.7-.86 0-1.53-.29-2.02-.86-.49-.58-.74-1.37-.74-2.39 0-.67.11-1.26.34-1.76.22-.5.54-.9.95-1.18.41-.28.9-.42 1.47-.42.38-.01.72.04 1.03.15zM376.4 94.06c.14.14.22.32.22.54s-.07.39-.22.53c-.14.14-.33.21-.56.21a.732.732 0 01-.77-.74c0-.21.07-.4.22-.54.14-.14.33-.22.55-.22.22.01.41.08.56.22zm0 2.82v6.32h-1.1v-6.32h1.1zM341.97 108.63c.49.59.74 1.4.74 2.41 0 .66-.11 1.23-.34 1.73s-.55.89-.97 1.16c-.42.28-.93.41-1.51.41-.89 0-1.58-.3-2.08-.89-.5-.59-.74-1.4-.74-2.41 0-.66.11-1.23.34-1.73.22-.5.55-.89.97-1.16.42-.28.93-.41 1.52-.41.89 0 1.58.29 2.07.89zm-3.71 2.42c0 1.61.54 2.41 1.63 2.41s1.63-.81 1.63-2.42c0-1.61-.54-2.41-1.62-2.41-1.09 0-1.64.8-1.64 2.42zM349.14 108.61c.42.58.64 1.39.64 2.43 0 .66-.1 1.23-.3 1.73s-.49.89-.86 1.16c-.38.28-.82.41-1.32.41-.66 0-1.22-.28-1.68-.84l-.11.7h-.97v-8.87l1.1-.13v3.47c.46-.62 1.05-.94 1.79-.94.72.01 1.29.3 1.71.88zm-.96 4.27c.28-.4.41-1.01.41-1.84 0-.86-.13-1.47-.38-1.85-.26-.38-.62-.57-1.09-.57-.56 0-1.05.33-1.48.98v3.02c.17.26.37.47.62.62.24.15.5.23.77.23.49 0 .87-.19 1.15-.59zM356.42 111.42h-4.03c.05.7.22 1.21.53 1.54.3.33.7.49 1.18.49.3 0 .58-.04.84-.13s.52-.23.8-.42l.48.66c-.67.53-1.41.79-2.21.79-.88 0-1.57-.29-2.06-.86-.49-.58-.74-1.37-.74-2.38 0-.66.11-1.24.32-1.75.21-.51.52-.91.91-1.19.4-.29.86-.43 1.4-.43.84 0 1.48.28 1.93.83.45.55.67 1.32.67 2.29 0 .18-.01.37-.02.56zm-1.02-6.63l.47.54-1.62 1.36h-.73l-1.63-1.36.48-.54 1.51 1.01 1.52-1.01zm-.05 5.74c0-.62-.12-1.1-.37-1.43-.25-.33-.62-.49-1.12-.49-.9 0-1.4.66-1.48 1.99h2.96v-.07zM362.53 108.25c.32.34.49.82.49 1.42v4.54h-1.1v-4.38c0-.45-.09-.76-.26-.95-.17-.18-.42-.28-.75-.28s-.62.1-.88.29-.5.46-.72.82v4.5h-1.1v-8.86l1.1-.12v3.53c.5-.68 1.12-1.02 1.87-1.02.58 0 1.03.17 1.35.51zM369.68 108.63c.49.59.74 1.4.74 2.41 0 .66-.11 1.23-.34 1.73s-.55.89-.97 1.16c-.42.28-.93.41-1.51.41-.89 0-1.58-.3-2.08-.89-.5-.59-.74-1.4-.74-2.41 0-.66.11-1.23.34-1.73.22-.5.55-.89.97-1.16.42-.28.93-.41 1.52-.41.89 0 1.58.29 2.07.89zm-3.71 2.42c0 1.61.54 2.41 1.63 2.41s1.63-.81 1.63-2.42c0-1.61-.54-2.41-1.62-2.41-1.09 0-1.64.8-1.64 2.42zM376.89 107.88l-2.15 6.32h-1.33l-2.18-6.32h1.2l1.66 5.34 1.64-5.34h1.16zM382.9 111.42h-4.03c.05.7.22 1.21.53 1.54s.7.49 1.18.49c.3 0 .58-.04.84-.13s.52-.23.8-.42l.48.66c-.67.53-1.41.79-2.21.79-.88 0-1.57-.29-2.06-.86-.49-.58-.74-1.37-.74-2.38 0-.66.11-1.24.32-1.75.21-.51.52-.91.91-1.19.4-.29.86-.43 1.4-.43.84 0 1.48.28 1.93.83.45.55.67 1.32.67 2.29 0 .18 0 .37-.02.56zm-1.07-.89c0-.62-.12-1.1-.37-1.43-.25-.33-.62-.49-1.12-.49-.9 0-1.4.66-1.48 1.99h2.96v-.07zm-.53-5.93l.49.92-2.54 1.03-.34-.59 2.39-1.36zM340.41 118.92c.34.12.67.3.98.54l-.47.7c-.29-.18-.56-.32-.82-.41s-.53-.13-.82-.13c-.36 0-.64.07-.85.22s-.31.35-.31.61.1.46.29.6c.2.14.55.29 1.06.42.7.18 1.23.42 1.58.72s.52.72.52 1.25c0 .62-.24 1.1-.73 1.43s-1.07.49-1.77.49c-.96 0-1.76-.28-2.39-.83l.59-.67c.54.41 1.13.61 1.78.61.42 0 .75-.09.99-.26s.37-.41.37-.7c0-.22-.04-.39-.13-.52s-.24-.25-.46-.35c-.22-.1-.53-.21-.95-.32-.67-.18-1.16-.41-1.46-.71-.3-.3-.45-.67-.45-1.13 0-.33.1-.63.29-.89.2-.27.47-.48.82-.62.35-.15.74-.22 1.17-.22.44-.01.82.05 1.17.17zM347.58 119.63c.49.59.74 1.4.74 2.41 0 .66-.11 1.23-.34 1.73-.22.5-.55.89-.97 1.16s-.93.41-1.51.41c-.89 0-1.58-.3-2.08-.89-.5-.59-.74-1.4-.74-2.41 0-.66.11-1.23.34-1.73.22-.5.55-.89.97-1.16.42-.28.93-.41 1.52-.41.89 0 1.58.29 2.07.89zm-3.71 2.42c0 1.61.54 2.41 1.63 2.41s1.63-.81 1.63-2.42c0-1.61-.54-2.41-1.62-2.41-1.1 0-1.64.8-1.64 2.42zM354.84 125.21h-.95l-.08-.98c-.24.39-.52.68-.83.86-.31.18-.69.27-1.14.27-.55 0-.98-.17-1.3-.5-.31-.34-.47-.81-.47-1.43v-4.54h1.1v4.42c0 .43.08.74.23.92.15.18.4.27.74.27.62 0 1.14-.36 1.58-1.09v-4.51h1.1v6.31zM360 118.92c.34.12.67.3.98.54l-.47.7c-.29-.18-.56-.32-.82-.41s-.53-.13-.82-.13c-.36 0-.64.07-.85.22s-.31.35-.31.61.1.46.29.6c.2.14.55.29 1.06.42.7.18 1.23.42 1.58.72s.52.72.52 1.25c0 .62-.24 1.1-.73 1.43s-1.07.49-1.77.49c-.96 0-1.76-.28-2.39-.83l.59-.67c.54.41 1.13.61 1.78.61.42 0 .75-.09.99-.26s.37-.41.37-.7c0-.22-.04-.39-.13-.52s-.24-.25-.46-.35c-.22-.1-.53-.21-.95-.32-.67-.18-1.16-.41-1.46-.71-.3-.3-.45-.67-.45-1.13 0-.33.1-.63.29-.89.2-.27.47-.48.82-.62.35-.15.74-.22 1.17-.22.44-.01.83.05 1.17.17zM365.92 124.92c-.42.29-.89.43-1.42.43-.54 0-.95-.15-1.25-.46-.3-.31-.45-.75-.45-1.34v-3.82h-1.1v-.85h1.1v-1.43l1.1-.13v1.56h1.5l-.12.85h-1.38v3.77c0 .33.06.57.17.71.12.15.31.22.58.22.25 0 .53-.08.84-.25l.43.74zM371.45 124.3c.09.12.22.22.4.28l-.25.77c-.33-.04-.59-.13-.79-.28-.2-.14-.35-.37-.44-.67-.42.63-1.05.95-1.88.95-.62 0-1.12-.18-1.48-.53-.36-.35-.54-.81-.54-1.38 0-.67.24-1.19.73-1.55s1.17-.54 2.06-.54h.97v-.47c0-.45-.11-.77-.32-.96-.22-.19-.55-.29-1-.29-.46 0-1.03.11-1.7.34l-.28-.8c.78-.29 1.51-.43 2.18-.43.74 0 1.3.18 1.67.54.37.36.55.88.55 1.55v2.89c-.01.27.03.46.12.58zm-1.23-.76v-1.45h-.83c-1.17 0-1.75.43-1.75 1.29 0 .38.09.66.28.85.18.19.46.29.82.29.62 0 1.12-.33 1.48-.98zM378.23 118.88l-2.15 6.32h-1.33l-2.18-6.32h1.2l1.66 5.34 1.64-5.34h1.16zM382.02 125.24c-.25.74-.59 1.32-1.04 1.75-.44.43-1.08.69-1.9.77l-.12-.86c.42-.07.75-.18 1-.31.25-.14.45-.31.59-.52.15-.21.29-.5.41-.86h-.37l-2.12-6.32h1.18l1.69 5.52 1.66-5.52h1.14l-2.12 6.35z"/></g><g><path class="st31" d="M343.38 233.64h-1.52l-3.36-7.02c.05.55.09 1.06.11 1.53.03.47.04 1.03.04 1.7v3.79h-1.07v-8.27h1.49l3.4 7.03c-.02-.21-.06-.57-.1-1.09s-.06-1-.06-1.43v-4.51h1.07v8.27zM350.48 230.86h-4.03c.05.7.22 1.21.53 1.54s.7.49 1.18.49c.3 0 .58-.04.84-.13s.52-.23.8-.42l.48.66c-.67.53-1.41.79-2.21.79-.88 0-1.57-.29-2.06-.87-.49-.58-.74-1.37-.74-2.38 0-.66.11-1.24.32-1.75s.52-.91.91-1.19c.4-.29.86-.43 1.4-.43.84 0 1.48.28 1.93.83.45.55.67 1.32.67 2.29 0 .19-.01.38-.02.57zm-1.07-.89c0-.62-.12-1.1-.37-1.43-.25-.33-.62-.49-1.12-.49-.9 0-1.4.66-1.48 1.99h2.96v-.07zM359.86 227.7c.31.35.47.82.47 1.41v4.54h-1.1v-4.38c0-.82-.3-1.22-.89-1.22-.31 0-.58.09-.79.27s-.45.46-.7.85v4.49h-1.1v-4.38c0-.82-.3-1.22-.89-1.22-.32 0-.59.09-.8.28s-.44.46-.68.84v4.49h-1.1v-6.32h.95l.1.92c.47-.71 1.08-1.07 1.82-1.07.39 0 .73.1 1 .3.28.2.47.48.59.84.25-.37.52-.65.82-.85.3-.2.65-.29 1.06-.29.51-.02.93.15 1.24.5zM366.99 228.06c.49.59.74 1.4.74 2.41 0 .66-.11 1.23-.34 1.73s-.55.89-.97 1.16c-.42.28-.93.41-1.51.41-.89 0-1.58-.3-2.08-.89-.5-.59-.74-1.4-.74-2.41 0-.66.11-1.23.34-1.73.22-.5.55-.89.97-1.16.42-.28.93-.41 1.52-.41.89.01 1.58.3 2.07.89zm-3.71 2.43c0 1.61.54 2.41 1.63 2.41s1.63-.81 1.63-2.42c0-1.61-.54-2.41-1.62-2.41-1.09-.01-1.64.8-1.64 2.42zM372.89 227.34c.31.11.61.28.9.52l-.53.7a2.232 2.232 0 00-1.35-.47c-.51 0-.91.21-1.19.61-.28.41-.43 1.01-.43 1.81s.14 1.39.42 1.77c.28.38.68.57 1.2.57.25 0 .48-.04.68-.11s.44-.2.7-.37l.5.72c-.58.46-1.22.7-1.93.7-.86 0-1.53-.29-2.02-.87-.49-.58-.74-1.37-.74-2.39 0-.67.11-1.26.34-1.76.22-.5.54-.9.95-1.18.41-.28.9-.42 1.47-.42.38.01.72.06 1.03.17zM376.4 224.5c.14.14.22.32.22.54 0 .21-.07.39-.22.53-.14.14-.33.21-.56.21a.732.732 0 01-.77-.74c0-.22.07-.4.22-.54.14-.14.33-.21.55-.21.22-.01.41.07.56.21zm0 2.82v6.32h-1.1v-6.32h1.1zM341.85 238.69c.32.34.49.82.49 1.42v4.54h-1.1v-4.38c0-.45-.08-.76-.25-.95s-.42-.28-.74-.28c-.34 0-.63.1-.89.29-.26.19-.5.47-.72.83v4.49h-1.1v-6.32h.95l.1.94c.22-.34.5-.6.83-.79.33-.19.7-.29 1.1-.29.56-.01 1.01.16 1.33.5zM349.31 241.86h-4.03c.05.7.22 1.21.53 1.54.3.33.7.49 1.18.49.3 0 .58-.04.84-.13s.52-.23.8-.42l.48.66c-.67.53-1.41.79-2.21.79-.88 0-1.57-.29-2.06-.87-.49-.58-.74-1.37-.74-2.38 0-.66.11-1.24.32-1.75s.52-.91.91-1.19c.4-.29.86-.43 1.4-.43.84 0 1.48.28 1.93.83.45.55.67 1.32.67 2.29.01.19 0 .38-.02.57zm-1.06-.89c0-.62-.12-1.1-.37-1.43s-.62-.49-1.12-.49c-.9 0-1.4.66-1.48 1.99h2.96v-.07zM354.47 238.25l-.2 1.08c-.19-.05-.38-.07-.55-.07-.39 0-.71.14-.95.43s-.43.74-.56 1.34v3.61h-1.1v-6.32h.95l.11 1.28c.17-.47.4-.83.68-1.07.29-.24.62-.36 1.01-.36.21.01.42.03.61.08zM360.38 238.32l-2.15 6.32h-1.33l-2.18-6.32h1.2l1.66 5.34 1.64-5.34h1.16zM366.08 239.06c.49.59.74 1.4.74 2.41 0 .66-.11 1.23-.34 1.73-.22.5-.55.89-.97 1.16-.42.28-.93.41-1.51.41-.89 0-1.58-.3-2.08-.89s-.74-1.4-.74-2.41c0-.66.11-1.23.34-1.73.22-.5.55-.89.97-1.16.42-.28.93-.41 1.52-.41.89.01 1.58.3 2.07.89zm-3.71 2.43c0 1.61.54 2.41 1.63 2.41s1.63-.81 1.63-2.42c0-1.61-.54-2.41-1.62-2.41-1.09-.01-1.64.8-1.64 2.42zM373.29 238.32l-2.15 6.32h-1.33l-2.18-6.32h1.2l1.66 5.34 1.64-5.34h1.16zM379.3 241.86h-4.03c.05.7.22 1.21.53 1.54.3.33.7.49 1.18.49.3 0 .58-.04.84-.13s.52-.23.8-.42l.48.66c-.67.53-1.41.79-2.21.79-.88 0-1.57-.29-2.06-.87-.49-.58-.74-1.37-.74-2.38 0-.66.11-1.24.32-1.75s.52-.91.91-1.19c.4-.29.86-.43 1.4-.43.84 0 1.48.28 1.93.83.45.55.67 1.32.67 2.29 0 .19 0 .38-.02.57zm-1.07-.89c0-.62-.12-1.1-.37-1.43s-.62-.49-1.12-.49c-.9 0-1.4.66-1.48 1.99h2.96v-.07zm-.53-5.94l.49.92-2.54 1.03-.34-.59 2.39-1.36zM340.41 249.36c.34.12.67.3.98.54l-.47.7c-.29-.18-.56-.32-.82-.41s-.53-.13-.82-.13c-.36 0-.64.07-.85.22-.21.15-.31.35-.31.61s.1.46.29.6c.2.14.55.28 1.06.42.7.18 1.23.42 1.58.72.35.3.52.72.52 1.25 0 .62-.24 1.1-.73 1.43s-1.07.49-1.77.49c-.96 0-1.76-.28-2.39-.83l.59-.67c.54.41 1.13.61 1.78.61.42 0 .75-.09.99-.26s.37-.41.37-.7c0-.22-.04-.39-.13-.52s-.24-.25-.46-.35c-.22-.1-.53-.21-.95-.32-.67-.18-1.16-.41-1.46-.71-.3-.3-.45-.67-.45-1.13 0-.33.1-.62.29-.89s.47-.48.82-.62c.35-.15.74-.22 1.17-.22.44-.01.82.05 1.17.17zM347.58 250.06c.49.59.74 1.4.74 2.41 0 .66-.11 1.23-.34 1.73-.22.5-.55.89-.97 1.16-.42.28-.93.41-1.51.41-.89 0-1.58-.3-2.08-.89s-.74-1.4-.74-2.41c0-.66.11-1.23.34-1.73.22-.5.55-.89.97-1.16.42-.28.93-.41 1.52-.41.89.01 1.58.3 2.07.89zm-3.71 2.43c0 1.61.54 2.41 1.63 2.41s1.63-.81 1.63-2.42c0-1.61-.54-2.41-1.62-2.41-1.1-.01-1.64.8-1.64 2.42zM354.84 255.64h-.95l-.08-.98c-.24.39-.52.68-.83.86-.31.18-.69.27-1.14.27-.55 0-.98-.17-1.3-.5-.31-.34-.47-.81-.47-1.43v-4.54h1.1v4.42c0 .43.08.74.23.92.15.18.4.27.74.27.62 0 1.14-.36 1.58-1.09v-4.51h1.1v6.31zM360 249.36c.34.12.67.3.98.54l-.47.7c-.29-.18-.56-.32-.82-.41s-.53-.13-.82-.13c-.36 0-.64.07-.85.22-.21.15-.31.35-.31.61s.1.46.29.6c.2.14.55.28 1.06.42.7.18 1.23.42 1.58.72.35.3.52.72.52 1.25 0 .62-.24 1.1-.73 1.43s-1.07.49-1.77.49c-.96 0-1.76-.28-2.39-.83l.59-.67c.54.41 1.13.61 1.78.61.42 0 .75-.09.99-.26s.37-.41.37-.7c0-.22-.04-.39-.13-.52s-.24-.25-.46-.35c-.22-.1-.53-.21-.95-.32-.67-.18-1.16-.41-1.46-.71-.3-.3-.45-.67-.45-1.13 0-.33.1-.62.29-.89s.47-.48.82-.62c.35-.15.74-.22 1.17-.22.44-.01.83.05 1.17.17zM365.92 255.36c-.42.29-.89.43-1.42.43-.54 0-.95-.15-1.25-.46-.3-.31-.45-.75-.45-1.34v-3.82h-1.1v-.85h1.1v-1.43l1.1-.13v1.56h1.5l-.12.85h-1.38v3.77c0 .33.06.57.17.71.12.15.31.22.58.22.25 0 .53-.08.84-.25l.43.74zM371.45 254.74c.09.12.22.22.4.28l-.25.77c-.33-.04-.59-.13-.79-.28s-.35-.37-.44-.67c-.42.63-1.05.95-1.88.95-.62 0-1.12-.18-1.48-.53-.36-.35-.54-.81-.54-1.38 0-.67.24-1.19.73-1.55.48-.36 1.17-.54 2.06-.54h.97v-.47c0-.45-.11-.77-.32-.96-.22-.19-.55-.29-1-.29-.46 0-1.03.11-1.7.34l-.28-.8c.78-.29 1.51-.43 2.18-.43.74 0 1.3.18 1.67.55.37.36.55.88.55 1.55v2.89c-.01.25.03.44.12.57zm-1.23-.76v-1.45h-.83c-1.17 0-1.75.43-1.75 1.3 0 .38.09.66.28.85.18.19.46.29.82.29.62-.01 1.12-.34 1.48-.99zM378.23 249.32l-2.15 6.32h-1.33l-2.18-6.32h1.2l1.66 5.34 1.64-5.34h1.16zM382.02 255.68c-.25.74-.59 1.32-1.04 1.75-.44.43-1.08.69-1.9.77l-.12-.87c.42-.07.75-.18 1-.31s.45-.31.59-.52c.15-.21.29-.5.41-.86h-.37l-2.12-6.32h1.18l1.69 5.52 1.66-5.52h1.14l-2.12 6.36z"/></g><g><path class="st33" d="M342.29 170.43c.5.32.9.81 1.18 1.45.28.64.42 1.41.42 2.32 0 .89-.14 1.65-.41 2.29-.28.64-.67 1.12-1.17 1.45s-1.1.5-1.78.5c-.66 0-1.25-.16-1.75-.49-.5-.33-.9-.81-1.18-1.44s-.42-1.4-.42-2.29c0-.89.14-1.65.42-2.29.28-.64.67-1.13 1.18-1.46.51-.34 1.09-.5 1.75-.5.67-.02 1.26.14 1.76.46zm-3.66 1.05c-.46.61-.7 1.52-.7 2.73 0 1.19.23 2.09.7 2.7.47.61 1.1.91 1.89.91.82 0 1.46-.3 1.92-.91.46-.6.68-1.51.68-2.72 0-1.22-.23-2.13-.69-2.73-.46-.6-1.1-.91-1.91-.91-.79.01-1.42.31-1.89.93zM348.56 172.06c.32.12.63.29.94.52l-.32.46c-.29-.2-.56-.35-.82-.44s-.54-.14-.84-.14c-.42 0-.75.1-1.01.29a.9.9 0 00-.38.77c0 .3.11.54.33.71.22.17.62.33 1.19.48.71.18 1.23.42 1.54.7.32.28.47.68.47 1.2 0 .56-.22 1-.65 1.33-.43.33-.97.49-1.62.49-.48 0-.9-.07-1.26-.21s-.69-.34-.98-.59l.38-.44c.28.22.57.39.86.5s.62.16.99.16c.46 0 .84-.11 1.12-.32s.43-.51.43-.88c0-.26-.05-.46-.14-.62-.1-.16-.26-.3-.49-.41-.23-.12-.57-.23-1.02-.35-.66-.18-1.14-.4-1.43-.66-.29-.26-.44-.62-.44-1.06 0-.31.09-.59.28-.85.18-.25.43-.45.75-.59s.67-.21 1.06-.21c.38-.01.74.05 1.06.16zM354.38 178.03c-.4.26-.84.4-1.32.4-.48 0-.86-.14-1.13-.43-.27-.28-.41-.69-.41-1.23v-4.19h-1.06v-.56h1.06v-1.5l.7-.08v1.58h1.62l-.08.56h-1.54v4.15c0 .37.08.64.23.82.15.18.38.27.7.27.32 0 .64-.09.96-.28l.27.49zM359.64 177.61c.08.14.22.25.4.32l-.16.49c-.29-.06-.51-.16-.67-.32s-.26-.4-.31-.73c-.43.7-1.08 1.06-1.96 1.06-.6 0-1.07-.17-1.42-.51-.35-.34-.52-.79-.52-1.36 0-.65.23-1.15.69-1.5.46-.35 1.1-.53 1.91-.53h1.2v-.61c0-.5-.11-.87-.34-1.1-.22-.23-.6-.34-1.12-.34-.48 0-1.05.12-1.7.36l-.18-.53c.7-.28 1.36-.42 1.98-.42 1.37 0 2.05.66 2.05 1.99v3.02c.02.33.06.57.15.71zm-.82-.85v-1.73h-1.09c-.64 0-1.13.12-1.46.37-.34.25-.5.62-.5 1.12 0 .43.12.76.35 1 .23.23.56.35.97.35.74 0 1.32-.37 1.73-1.11zM364.9 178.03c-.4.26-.84.4-1.32.4-.48 0-.86-.14-1.13-.43-.27-.28-.41-.69-.41-1.23v-4.19h-1.06v-.56h1.06v-1.5l.7-.08v1.58h1.62l-.08.56h-1.54v4.15c0 .37.08.64.23.82.15.18.38.27.7.27.32 0 .64-.09.96-.28l.27.49zM370.21 172.39c.3.34.45.81.45 1.42v4.49h-.7v-4.39c0-.5-.1-.87-.3-1.1-.2-.23-.5-.35-.89-.35-.4 0-.75.11-1.06.33-.31.22-.6.54-.88.97v4.55h-.7v-6.28h.6l.07 1.07c.26-.38.56-.67.91-.88.35-.21.75-.32 1.19-.32.58-.01 1.01.16 1.31.49zM374.39 168.91l.31.62-2.34 1.02-.23-.41 2.26-1.23zm-.55 3.11v6.28h-.7v-6.28h.7zM340.26 183.06c.32.12.63.29.94.52l-.32.46c-.29-.2-.56-.35-.82-.44s-.54-.14-.84-.14c-.42 0-.75.1-1.01.29a.9.9 0 00-.38.77c0 .3.11.54.33.71.22.17.62.33 1.19.48.71.18 1.23.42 1.54.7.32.28.47.68.47 1.2 0 .56-.22 1-.65 1.33-.43.33-.97.49-1.62.49-.48 0-.9-.07-1.26-.21s-.69-.34-.98-.59l.38-.44c.28.22.57.39.86.5s.62.16.99.16c.46 0 .84-.11 1.12-.32s.43-.51.43-.88c0-.26-.05-.46-.14-.62-.1-.16-.26-.3-.49-.41-.23-.12-.57-.23-1.02-.35-.66-.18-1.14-.4-1.43-.66-.29-.26-.44-.62-.44-1.06 0-.31.09-.59.28-.85.18-.25.43-.45.75-.59s.67-.21 1.06-.21c.39-.01.75.05 1.06.16zM343.92 180.38v8.92h-.7v-8.83l.7-.09zm3.52 2.64l-2.64 2.81 2.92 3.47h-.84l-2.88-3.43 2.64-2.84h.8zM353.49 189.3h-.6l-.04-1.12c-.5.83-1.18 1.25-2.05 1.25-.57 0-1.01-.17-1.31-.5-.31-.33-.46-.81-.46-1.42v-4.49h.7v4.42c0 .49.1.85.31 1.07.2.23.51.34.93.34.73 0 1.34-.43 1.84-1.28v-4.55h.7v6.28zM360.33 183.74c.38.56.57 1.36.57 2.39 0 1.01-.21 1.81-.62 2.41-.41.6-1 .89-1.77.89-.38 0-.72-.08-1.02-.23-.3-.16-.56-.37-.77-.63v3.1l-.7.1v-8.74h.6l.06.91c.23-.33.51-.58.85-.77.33-.18.69-.28 1.09-.28.76 0 1.33.28 1.71.85zm-.63 4.42c.3-.46.46-1.13.46-2.03 0-1.78-.56-2.66-1.67-2.66-.38 0-.7.1-.98.29-.28.19-.54.46-.79.79v3.34c.42.64.97.96 1.66.96.58-.01 1.02-.24 1.32-.69zM363.72 180.41c.1.1.14.22.14.36s-.05.26-.14.36c-.1.1-.22.14-.38.14-.15 0-.28-.05-.37-.14-.1-.1-.14-.22-.14-.36s.05-.26.14-.36c.1-.1.22-.14.37-.14.16-.01.29.04.38.14zm-.02 2.61v6.28h-.7v-6.28h.7zM370.32 183.39c.3.34.45.81.45 1.42v4.49h-.7v-4.39c0-.5-.1-.87-.3-1.1s-.5-.35-.89-.35c-.4 0-.75.11-1.06.33-.31.22-.6.54-.88.97v4.55h-.7v-6.28h.6l.07 1.07c.26-.38.56-.67.91-.88.35-.21.75-.32 1.19-.32.57-.01 1.01.16 1.31.49zM375.26 189.32c-.17.49-.35.89-.55 1.2-.2.31-.46.57-.78.77-.32.2-.73.35-1.24.45l-.07-.54c.42-.1.74-.23.98-.38s.42-.34.56-.57c.14-.23.28-.55.43-.95h-.24l-2.18-6.28h.76l1.9 5.76 1.86-5.76h.73l-2.16 6.3zM341.96 194.74c.38.56.57 1.36.57 2.39 0 1.01-.21 1.81-.62 2.41-.41.6-1 .89-1.77.89-.38 0-.72-.08-1.02-.23-.3-.16-.56-.37-.77-.63v3.1l-.7.1v-8.74h.6l.06.91c.23-.33.51-.58.85-.77.33-.18.69-.28 1.09-.28.76 0 1.33.28 1.71.85zm-.63 4.42c.3-.46.46-1.13.46-2.03 0-1.78-.56-2.66-1.67-2.66-.38 0-.7.1-.98.29-.28.19-.54.46-.79.79v3.34c.42.64.97.96 1.66.96.58-.01 1.02-.24 1.32-.69zM347.61 191.07l.31.36-1.55 1.27h-.43l-1.56-1.27.31-.36 1.46 1.01 1.46-1.01zm.08 2.89l-.13.66c-.18-.05-.36-.07-.55-.07-.42 0-.77.15-1.03.46s-.48.79-.65 1.45v3.84h-.7v-6.28h.6l.06 1.4c.17-.52.4-.91.69-1.16s.65-.38 1.09-.38c.25.01.45.03.62.08zM350.36 190.91l.31.62-2.34 1.02-.23-.41 2.26-1.23zm-.56 3.11v6.28h-.7v-6.28h.7z"/><path class="st33" d="M355.46 194.04c.28.1.55.26.82.49l-.35.46a2.21 2.21 0 00-.64-.37c-.22-.08-.47-.12-.75-.12-.59 0-1.06.23-1.42.69-.35.46-.53 1.13-.53 2.01 0 .87.17 1.53.52 1.97.35.44.82.66 1.41.66.28 0 .53-.04.76-.13.23-.09.46-.22.69-.4l.34.47c-.53.45-1.13.67-1.8.67-.54 0-1-.13-1.4-.38-.4-.26-.71-.63-.93-1.11-.22-.48-.33-1.06-.33-1.73 0-.66.11-1.25.33-1.75s.53-.89.93-1.16c.4-.27.86-.41 1.39-.41.36-.01.68.04.96.14zm.5-2.97l.31.36-1.55 1.27h-.43l-1.56-1.27.31-.36 1.46 1.01 1.46-1.01zM358.7 191.41c.1.1.14.22.14.36s-.05.26-.14.36c-.1.1-.22.14-.38.14-.15 0-.28-.05-.37-.14-.1-.1-.14-.22-.14-.36s.05-.26.14-.36c.1-.1.22-.14.37-.14.15-.01.28.04.38.14zm-.03 2.61v6.28h-.7v-6.28h.7zM365.29 194.39c.3.34.45.81.45 1.42v4.49h-.7v-4.39c0-.5-.1-.87-.3-1.1-.2-.23-.5-.35-.89-.35-.4 0-.75.11-1.06.33-.31.22-.6.54-.88.97v4.55h-.7v-6.28h.6l.07 1.07c.26-.38.56-.67.91-.88.35-.21.75-.32 1.19-.32.58-.01 1.01.16 1.31.49zM375.97 200.3h-.6l-.04-1.12c-.5.83-1.18 1.25-2.05 1.25-.57 0-1.01-.17-1.31-.5-.31-.33-.46-.81-.46-1.42v-4.49h.7v4.42c0 .49.1.85.31 1.07.2.23.51.34.93.34.73 0 1.34-.43 1.84-1.28v-4.55h.7v6.28zm-1.33-9.39l.31.62-2.34 1.02-.23-.41 2.26-1.23zM385.83 194.41c.29.34.44.81.44 1.4v4.49h-.7v-4.39c0-.5-.09-.86-.28-1.1-.19-.24-.45-.35-.79-.35-.35 0-.67.11-.95.34-.28.22-.55.54-.82.96v4.55h-.7v-4.39c0-.5-.09-.86-.28-1.1-.19-.24-.45-.35-.79-.35-.36 0-.68.11-.96.34-.28.22-.55.54-.8.96v4.55h-.7v-6.28h.6l.06 1.07c.24-.38.52-.67.85-.88.33-.21.69-.32 1.08-.32.4 0 .74.11 1.01.33.27.22.46.53.55.92.25-.39.54-.7.87-.92s.7-.33 1.1-.33c.52-.02.92.15 1.21.5zM391.81 193.96l-.13.66c-.18-.05-.36-.07-.55-.07-.42 0-.77.15-1.03.46s-.48.79-.65 1.45v3.84h-.7v-6.28h.6l.06 1.4c.17-.52.4-.91.69-1.16s.65-.38 1.09-.38c.25.01.46.03.62.08zM396.09 200.03c-.4.26-.84.4-1.32.4-.48 0-.86-.14-1.13-.43-.27-.28-.41-.69-.41-1.23v-4.19h-1.06v-.56h1.06v-1.5l.7-.08v1.58h1.62l-.08.56h-1.54v4.15c0 .37.08.64.23.82.15.18.38.27.7.27.32 0 .64-.09.96-.28l.27.49zM398.57 190.91l.31.62-2.34 1.02-.23-.41 2.26-1.23zm-.55 3.11v6.28h-.7v-6.28h.7z"/></g><path class="st27" d="M30.98 150.88h2"/><g><path class="st23" d="M5.13 99.81c.28.18.49.44.65.79.16.35.24.78.24 1.29 0 .54-.09 1.01-.27 1.41-.18.4-.43.7-.75.91s-.69.31-1.11.31c-.79 0-1.36-.31-1.73-.93-.37-.62-.56-1.48-.56-2.59 0-.84.1-1.57.31-2.19.21-.62.51-1.09.9-1.42.39-.33.85-.5 1.38-.5.51 0 .97.15 1.36.45l-.38.63c-.31-.21-.63-.31-.96-.31-.48 0-.86.25-1.14.75s-.44 1.19-.48 2.07c.42-.63.95-.95 1.61-.95.35.02.66.11.93.28zm-.38 3.48c.19-.32.29-.78.29-1.37 0-.56-.09-.98-.28-1.23a.882.882 0 00-.76-.38c-.27 0-.53.09-.76.27-.24.18-.45.44-.62.76.01.84.12 1.46.32 1.85.2.39.52.58.95.58.37-.01.66-.17.86-.48zM11.01 97.87c.38.64.57 1.59.57 2.85 0 1.28-.19 2.23-.57 2.87s-.94.95-1.68.95c-.75 0-1.31-.32-1.69-.96s-.57-1.59-.57-2.86c0-2.54.75-3.81 2.27-3.81.73 0 1.29.32 1.67.96zm-2.62.51c-.2.47-.3 1.25-.3 2.34 0 1.1.1 1.88.3 2.34s.52.69.94.69c.42 0 .73-.23.93-.69.2-.46.3-1.24.3-2.34 0-1.1-.1-1.88-.3-2.34s-.51-.69-.94-.69-.73.22-.93.69zM18.4 104.14c-.37.26-.77.4-1.22.4-.47 0-.83-.14-1.08-.41-.25-.27-.38-.65-.38-1.14v-3.63h-.82v-.76h.82v-1.33l.99-.12v1.45h1.28l-.11.75h-1.17v3.62c0 .5.21.75.63.75.12 0 .24-.02.35-.06.11-.04.23-.09.36-.17l.35.65zM20.22 96.06c.12.12.18.28.18.46s-.06.34-.18.46-.27.18-.47.18a.64.64 0 01-.47-.18.618.618 0 01-.18-.46.634.634 0 01.65-.65c.19 0 .35.07.47.19zm.03 2.54v5.79h-.99V98.6h.99zM25.31 99.12l-.42.58c-.23-.16-.45-.28-.66-.36-.21-.08-.42-.12-.65-.12-.3 0-.54.07-.71.21a.73.73 0 00-.26.59c0 .24.08.43.25.57s.48.28.94.43c.58.18 1 .41 1.27.67.26.26.4.63.4 1.09 0 .54-.2.97-.59 1.28-.4.31-.89.47-1.49.47-.78 0-1.45-.26-1.99-.78l.51-.55c.46.37.95.56 1.46.56.32 0 .58-.08.78-.24.2-.16.3-.38.3-.67 0-.21-.03-.37-.1-.5a.952.952 0 00-.37-.34c-.18-.1-.44-.2-.79-.31-.55-.18-.95-.4-1.19-.66s-.36-.58-.36-.98c0-.31.08-.58.24-.82.16-.24.38-.43.67-.57.29-.14.62-.21.99-.21.66 0 1.25.22 1.77.66zM27.49 103.34c.13.14.19.3.19.49s-.06.36-.19.5-.3.21-.5.21-.36-.07-.49-.21a.694.694 0 01-.19-.5c0-.19.06-.35.19-.49s.29-.2.49-.2c.21 0 .37.06.5.2z"/></g><path class="st27" d="M30.98 100.74h2M30.98 201.07h2M30.98 251.09h2"/><g><path class="st34" d="M331.53 261.09v2M299.03 261.09v2M266.53 261.09v2M234.03 261.09v2M201.53 261.09v2M169.03 261.09v2M136.53 261.09v2M104.03 261.09v2M71.53 261.09v2M39.03 261.09v2"/></g><g><path class="st32" d="M203.29 136.26v1.68h1.64v1.11h-1.64v1.68h-1.21v-1.68h-1.63v-1.11h1.63v-1.68h1.21zM208.66 134.74v7.4h-1.39v-5.98l-1.65 1-.62-.95 2.41-1.47h1.25zM215.55 140.16c0 .4-.11.77-.34 1.09-.23.33-.55.59-.96.78-.41.19-.9.29-1.45.29-.54 0-1.02-.09-1.42-.28s-.71-.44-.94-.76c-.22-.32-.33-.69-.33-1.09 0-.85.47-1.47 1.41-1.87-.74-.4-1.11-.99-1.11-1.75 0-.39.11-.73.32-1.03.22-.3.51-.52.88-.68s.78-.24 1.22-.24c.45 0 .85.07 1.22.22s.66.36.88.65c.22.29.32.63.32 1.02 0 .7-.41 1.25-1.22 1.67 1.01.45 1.52 1.11 1.52 1.98zm-1.78.8c.23-.21.34-.47.34-.8 0-.34-.1-.6-.3-.8-.2-.19-.55-.38-1.06-.57l-.34-.12c-.59.32-.89.8-.89 1.46 0 .35.12.63.35.83.23.2.55.3.95.3.41.01.73-.1.95-.3zm-1.72-5.11c-.19.17-.28.41-.28.73 0 .29.09.53.26.7.18.17.46.33.85.47l.21.08c.29-.18.49-.36.61-.56s.18-.43.18-.7c0-.3-.09-.54-.28-.71-.18-.17-.44-.26-.78-.26-.32 0-.58.09-.77.25zM222.6 134.74v7.4h-1.39v-5.98l-1.65 1-.62-.95 2.41-1.47h1.25zM228.31 137.5c.32.19.57.46.75.82.18.36.28.8.28 1.3 0 .51-.11.97-.32 1.38-.21.41-.51.73-.9.96-.38.23-.82.35-1.31.35-.91 0-1.58-.32-2.02-.96-.44-.64-.65-1.51-.65-2.63 0-.82.12-1.54.37-2.16.25-.62.6-1.1 1.06-1.44.46-.34 1-.51 1.61-.51.61 0 1.15.16 1.62.47l-.53.87c-.34-.2-.69-.3-1.07-.3-.47 0-.85.21-1.13.63s-.44 1-.48 1.74c.45-.54 1-.81 1.66-.81.39.01.74.1 1.06.29zm-.67 3.33c.19-.29.28-.68.28-1.18 0-.51-.09-.87-.26-1.08-.17-.22-.42-.32-.75-.32-.25 0-.49.07-.71.2-.22.14-.42.32-.6.56.01.8.12 1.38.3 1.73.19.36.49.53.91.53.37 0 .64-.15.83-.44zM234.36 137.5c.32.19.57.46.75.82.18.36.28.8.28 1.3 0 .51-.11.97-.32 1.38-.21.41-.51.73-.9.96-.38.23-.82.35-1.31.35-.91 0-1.58-.32-2.02-.96-.44-.64-.65-1.51-.65-2.63 0-.82.12-1.54.37-2.16.25-.62.6-1.1 1.06-1.44.46-.34 1-.51 1.61-.51.61 0 1.15.16 1.62.47l-.53.87c-.34-.2-.69-.3-1.07-.3-.47 0-.85.21-1.13.63s-.44 1-.48 1.74c.45-.54 1-.81 1.66-.81.39.01.74.1 1.06.29zm-.67 3.33c.19-.29.28-.68.28-1.18 0-.51-.09-.87-.26-1.08-.17-.22-.42-.32-.75-.32-.25 0-.49.07-.71.2-.22.14-.42.32-.6.56.01.8.12 1.38.3 1.73.19.36.49.53.91.53.37 0 .64-.15.83-.44zM211.08 151.6h-3.7c.04.64.21 1.11.48 1.41.28.3.64.45 1.08.45.28 0 .54-.04.77-.12s.48-.21.74-.39l.44.61c-.62.48-1.29.73-2.02.73-.81 0-1.44-.26-1.89-.79-.45-.53-.68-1.25-.68-2.18 0-.6.1-1.13.29-1.6.19-.47.47-.83.84-1.1.36-.26.79-.4 1.28-.4.77 0 1.36.25 1.77.76.41.51.62 1.21.62 2.1 0 .17-.01.34-.02.52zm-.98-.82c0-.57-.11-1.01-.34-1.31s-.57-.45-1.02-.45c-.83 0-1.28.61-1.35 1.83h2.72v-.07zM216.93 148.35l-1.97 5.8h-1.22l-2-5.8h1.1l1.52 4.9 1.51-4.9h1.06zM219.1 145.76c.13.13.2.3.2.49 0 .2-.07.36-.2.49s-.3.19-.52.19c-.21 0-.37-.06-.51-.19a.663.663 0 01-.2-.49c0-.2.07-.36.2-.49s.3-.2.51-.2c.21.01.39.07.52.2zm0 2.59v5.8h-1.01v-5.8h1.01zM225.68 146.02v8.13h-.89l-.1-.8c-.19.29-.43.52-.71.69-.29.17-.6.25-.96.25-.69 0-1.23-.27-1.61-.81s-.58-1.27-.58-2.19c0-.59.09-1.12.27-1.58.18-.46.45-.82.79-1.08s.75-.39 1.21-.39c.59 0 1.12.24 1.56.72v-3.04l1.02.1zm-1.65 7.24c.22-.14.43-.36.64-.64v-2.84c-.19-.25-.39-.44-.61-.57-.22-.13-.46-.19-.73-.19-.45 0-.79.19-1.04.56s-.37.93-.37 1.67c0 .75.11 1.31.34 1.67.23.37.55.55.98.55.3.01.57-.07.79-.21zM231.84 149.03c.45.54.68 1.28.68 2.21 0 .6-.1 1.13-.31 1.59-.21.46-.5.81-.89 1.07s-.85.38-1.39.38c-.81 0-1.45-.27-1.9-.81s-.68-1.28-.68-2.21c0-.6.1-1.13.31-1.59.21-.46.5-.81.89-1.07.39-.25.85-.38 1.4-.38.81 0 1.44.27 1.89.81zm-3.4 2.22c0 1.47.5 2.21 1.5 2.21s1.5-.74 1.5-2.22c0-1.47-.5-2.21-1.49-2.21-1.01 0-1.51.74-1.51 2.22zM238.4 148.35l-1.97 5.8h-1.22l-2-5.8h1.1l1.52 4.9 1.51-4.9h1.06zM243.41 153.32c.08.11.2.2.36.26l-.23.7c-.3-.04-.54-.12-.73-.25-.18-.13-.32-.34-.41-.62-.39.58-.96.87-1.73.87-.57 0-1.02-.16-1.35-.48-.33-.32-.5-.74-.5-1.27 0-.62.22-1.09.67-1.42s1.07-.5 1.89-.5h.89v-.43c0-.41-.1-.71-.3-.88s-.5-.26-.91-.26c-.42 0-.95.1-1.56.31l-.25-.74c.72-.26 1.39-.4 2-.4.68 0 1.19.17 1.53.5.34.33.51.81.51 1.42v2.65c0 .25.04.42.12.54zm-1.13-.7v-1.33h-.76c-1.07 0-1.61.4-1.61 1.19 0 .35.08.61.25.78.17.18.42.26.75.26.58 0 1.04-.3 1.37-.9zM249.33 148.69c.3.31.45.75.45 1.3v4.16h-1.01v-4.01c0-.41-.08-.7-.23-.87-.15-.17-.38-.25-.68-.25-.31 0-.58.09-.81.26-.23.18-.45.43-.66.76v4.11h-1.01v-5.8h.87l.09.86c.21-.31.46-.55.76-.73s.64-.26 1.01-.26c.51 0 .93.16 1.22.47zM254.06 154.18c-.23.67-.54 1.21-.95 1.6-.41.39-.99.63-1.74.71l-.11-.79c.38-.07.69-.16.91-.29.23-.12.41-.28.54-.48s.26-.46.38-.79h-.34l-1.95-5.8h1.08l1.55 5.06 1.52-5.06h1.04l-1.93 5.84zm.21-8.84l.45.85-2.33.95-.31-.54 2.19-1.26zM260.16 148.37c.29.1.56.26.83.48l-.48.64c-.21-.15-.41-.25-.6-.32-.2-.07-.41-.1-.64-.1-.47 0-.83.19-1.09.56-.26.37-.39.93-.39 1.66 0 .73.13 1.28.38 1.62.26.35.62.52 1.1.52.23 0 .44-.03.63-.1s.4-.18.64-.34l.46.66c-.53.43-1.12.64-1.77.64-.79 0-1.4-.26-1.85-.79-.45-.53-.68-1.26-.68-2.19 0-.62.1-1.16.31-1.62.21-.46.5-.82.88-1.08.38-.26.83-.39 1.35-.39.32 0 .64.05.92.15zM266.33 148.69c.3.31.45.75.45 1.3v4.16h-1.01v-4.01c0-.41-.08-.7-.24-.87-.16-.17-.39-.25-.69-.25s-.57.09-.8.26a3.1 3.1 0 00-.66.75v4.12h-1.01v-8.12l1.01-.11v3.23c.45-.62 1.03-.93 1.72-.93.52 0 .93.16 1.23.47zM276.03 154.15h-.87l-.08-.9c-.22.36-.47.62-.76.79-.29.17-.63.25-1.04.25-.51 0-.9-.15-1.19-.46-.29-.31-.43-.74-.43-1.31v-4.16h1.01v4.05c0 .4.07.68.21.84.14.17.37.25.68.25.56 0 1.05-.33 1.45-1v-4.14h1.01v5.79zm-1.3-8.81l.45.85-2.33.95-.31-.54 2.19-1.26zM285.09 148.7c.29.32.43.75.43 1.29v4.16h-1.01v-4.01c0-.75-.27-1.12-.81-1.12-.29 0-.53.08-.73.25-.2.16-.41.42-.64.78v4.11h-1.01v-4.01c0-.75-.27-1.12-.81-1.12-.29 0-.54.08-.74.25-.2.17-.41.42-.63.77v4.11h-1.01v-5.8h.87l.09.85c.43-.65.99-.98 1.67-.98.36 0 .67.09.92.28.25.18.43.44.54.77.23-.34.48-.6.75-.78.28-.18.6-.27.97-.27.48-.01.86.15 1.15.47zM290.64 148.28l-.19.99c-.18-.04-.34-.07-.51-.07-.36 0-.65.13-.87.4-.22.26-.39.68-.52 1.23v3.31h-1.01v-5.8h.87l.1 1.18c.15-.43.36-.76.63-.98.26-.22.57-.33.92-.33.22.01.41.03.58.07zM294.72 153.88c-.38.26-.81.4-1.3.4s-.87-.14-1.15-.42c-.27-.28-.41-.69-.41-1.23v-3.5h-1.01v-.78h1.01v-1.31l1.01-.12v1.43h1.38l-.11.78h-1.27v3.45c0 .3.05.52.16.65.11.14.28.2.53.2.23 0 .48-.08.77-.23l.39.68zM297.14 145.34l.45.85-2.33.95-.31-.54 2.19-1.26zm-.36 3.01v5.8h-1.01v-5.8h1.01z"/></g><g><path class="st37" d="M39.42 246.3l32.5-.08h259.61"/><path class="st37" d="M39.42 245.63l32.5.74 32.37.52 32.5.51 32.5.45 32.37.14h32.5l32.37.45 32.5.07h32.5M39.42 196.38l32.5-2.36 32.37-.88 32.5-1.18 32.5-1.55 32.37-.89 32.5-.14 32.37-.23 32.5-1.76 32.5-.37M39.42 250.57l32.5-.07 32.37.07 32.5.08 32.5-.08 32.37.15h64.87l32.5.07 32.5-.07M39.42 244.38l32.5-.37 32.37.15 32.5.29 32.5-.37 32.37 1.77 32.5-.29 32.37-.44 32.5-.74 32.5.88"/><path class="st37" d="M39.42 250.5l32.5.22h64.87l32.5.07h32.37l32.5.15 32.37-.07 32.5-.15 32.5.15M39.42 251.24h227.11l32.5-.08 32.5.08M39.42 251.02l32.5.07 32.37-.07 32.5.07h32.5l32.37-.07h64.87l32.5.07h32.5M39.42 230.74l32.5-1.03 32.37-.45 32.5-.14 32.5.29 32.37-4.13 32.5-.14 32.37-2.81 32.5 4.8 32.5 3.39M39.42 241.8l32.5-.81 32.37-.89 32.5-.22 32.5-.29 32.37.66 32.5-.52 32.37-.66 32.5.07 32.5-.29M39.42 251.02l32.5-.08h32.37l32.5.08h194.74"/><path class="st37" d="M39.42 250.72l32.5.07 32.37-.07 32.5-.07h32.5l32.37.07 32.5.07h32.37l32.5.08 32.5-.08M39.42 246.22l32.5-.59 32.37-.73 32.5-.08 32.5-.15 32.37-.36 32.5-.45 32.37-.51 32.5.07 32.5.08M39.42 247.48l32.5-.15 32.37-1.4 32.5.66h32.5l32.37.37 32.5-.37 32.37.3 32.5-.45 32.5-.14M39.42 249.17l32.5-.07 32.37-.15 32.5.3 32.5.07 32.37.15 32.5-.08 32.37-.14 32.5-.08h32.5"/><path class="st37" d="M39.42 247.26l32.5.36 32.37-.07 32.5.07 32.5.15 32.37.37 32.5-.29 32.37-.23 32.5.37 32.5-.29M39.42 245.04l32.5.08 32.37-.22 32.5-.23 32.5-.36 32.37-.23 32.5.3 32.37-.3 32.5.3 32.5-.15"/><path class="st37" d="M39.42 246.67l32.5-.3 32.37.07 32.5-.14 32.5-.37 32.37-1.18 32.5-.59 32.37 1.03 32.5-.22 32.5.44M39.42 251.16h194.74l32.37-.07 32.5.07 32.5-.07M39.42 242.83l32.5-.15 32.37.15 32.5.37 32.5-.29 32.37-.45 32.5-.96 32.37.08 32.5.81 32.5-.15"/></g><path fill="none" stroke="#c86092" stroke-width="2.5" stroke-linecap="round" stroke-linejoin="round" stroke-miterlimit="10" d="M39.42 164.82l32.5-.51 32.37-1.26 32.5-1.4 32.5-4.86 32.37-45.57 32.5-10.32 32.37-2.95 32.5-.96 32.5 4.35"/><path fill="none" stroke="#4363d8" stroke-width="2.5" stroke-linecap="round" stroke-linejoin="round" stroke-miterlimit="10" d="M39.42 219.02l32.5.29 32.37-2.73 32.5-.37 32.5-.81 32.37 33.55 32.5-.07 32.37-.3 32.5.15 32.5.29"/></g><g id="_x31_.1_x5F_stredni_x5F_delka_x5F_zivota_x5F_des"><path class="st119" d="M173.07 158.59s21.59-10.01 29.09-41.79M199.81 118.17l2.37-1.37 1.15 2.72"/><g><path class="st119" d="M173.07 213.56s21.59-.14 29.09 31.65M199.81 243.84l2.37 1.37 1.15-2.72"/></g></g></svg>