<svg xmlns="http://www.w3.org/2000/svg" viewBox="0 0 620 250.72"><style>.st139,.st61,.st98{fill:none;stroke:#000;stroke-width:.25;stroke-miterlimit:10}.st139,.st98{stroke-width:.5}.st139{stroke:gray}</style><g id="Rulers_1_"><path d="M17.65 8.85v8.16h3.88l-.21 1.51H15.8V8.85h1.85zM24.53 7.68c.21.21.32.47.32.78 0 .31-.11.56-.32.77s-.48.31-.82.31c-.33 0-.6-.1-.81-.31s-.31-.46-.31-.77.1-.57.31-.78.48-.32.81-.32c.33.01.61.11.82.32zm.09 3.44v7.41h-1.79v-7.41h1.79zM31.74 11.79l-.7 1.05c-.63-.4-1.26-.6-1.86-.6-.35 0-.63.07-.83.2-.2.14-.29.32-.29.54 0 .17.04.31.13.42.08.11.24.22.46.32.22.1.54.21.97.33.8.21 1.4.5 1.79.85.39.36.58.85.58 1.48 0 .74-.3 1.31-.9 1.73-.6.42-1.34.62-2.23.62-.61 0-1.16-.09-1.66-.28-.5-.19-.93-.44-1.29-.77l.9-1.01c.64.49 1.32.73 2.02.73.4 0 .72-.08.96-.24.24-.16.36-.38.36-.66 0-.21-.04-.38-.13-.51s-.25-.24-.48-.34c-.23-.1-.59-.22-1.07-.36-.76-.21-1.31-.49-1.67-.86-.36-.37-.53-.83-.53-1.38 0-.41.12-.78.36-1.11.24-.33.57-.58 1.01-.77.43-.19.93-.28 1.49-.28.98.02 1.86.32 2.61.9zM37.68 18.18c-.26.19-.55.33-.88.42-.32.09-.65.14-.99.14-.73-.01-1.28-.22-1.66-.62-.38-.41-.57-1-.57-1.8v-3.91h-1.16v-1.29h1.16V9.48l1.79-.21v1.85h1.72l-.18 1.29h-1.54v3.86c0 .36.06.63.19.78.13.16.32.24.59.24.27 0 .57-.09.88-.27l.65 1.16zM47.77 11.95c.61.7.92 1.65.92 2.86 0 .78-.14 1.46-.42 2.05-.28.59-.68 1.05-1.2 1.38-.52.33-1.14.49-1.86.49-1.09 0-1.95-.35-2.56-1.04-.62-.7-.92-1.65-.92-2.88 0-.77.14-1.46.42-2.04.28-.59.68-1.04 1.21-1.37.53-.33 1.15-.49 1.87-.49 1.07 0 1.93.35 2.54 1.04zm-4.17 2.87c0 .88.13 1.52.4 1.94.27.42.66.62 1.2.62s.93-.21 1.2-.63c.27-.42.4-1.06.4-1.93s-.13-1.51-.4-1.92-.66-.62-1.18-.62c-1.08-.01-1.62.84-1.62 2.54zM59.77 11.93c.45.68.67 1.64.67 2.87 0 .77-.11 1.44-.34 2.04s-.56 1.06-1.01 1.39-.97.5-1.58.5c-.78 0-1.41-.27-1.86-.81v3.46l-1.79.2V11.12h1.57l.1.91c.29-.37.62-.65.99-.84s.77-.28 1.18-.28c.93 0 1.62.34 2.07 1.02zm-1.2 2.89c0-.91-.12-1.56-.35-1.96-.23-.4-.58-.6-1.05-.6-.3 0-.58.09-.84.27-.26.18-.49.43-.67.74v3.33c.35.51.8.77 1.36.77 1.03-.01 1.55-.85 1.55-2.55zM66.6 11.02l-.31 1.74c-.22-.06-.44-.08-.66-.08-.44 0-.78.16-1.04.47s-.45.79-.6 1.43v3.95H62.2v-7.41h1.55l.17 1.46c.18-.53.43-.94.77-1.22s.72-.43 1.16-.43c.28-.01.53.03.75.09zM72.88 11.95c.61.7.92 1.65.92 2.86 0 .78-.14 1.46-.42 2.05-.28.59-.68 1.05-1.21 1.38-.52.33-1.14.49-1.86.49-1.09 0-1.95-.35-2.56-1.04-.62-.7-.92-1.65-.92-2.88 0-.77.14-1.46.42-2.04.28-.59.68-1.04 1.21-1.37.53-.33 1.15-.49 1.87-.49 1.09 0 1.94.35 2.55 1.04zm-4.16 2.87c0 .88.13 1.52.4 1.94s.67.62 1.2.62.93-.21 1.2-.63c.27-.42.4-1.06.4-1.93s-.13-1.51-.4-1.92c-.27-.42-.66-.62-1.18-.62-1.09-.01-1.62.84-1.62 2.54zM80.97 11.51c.37.4.56.95.56 1.65v5.36h-1.79v-5.08c0-.44-.08-.75-.23-.92-.15-.18-.38-.27-.68-.27s-.57.1-.83.29-.49.46-.73.82v5.17h-1.79V8.17l1.79-.18V12c.6-.73 1.32-1.09 2.16-1.09.65 0 1.16.2 1.54.6zM84.03 18.24c-.32-.33-.48-.8-.48-1.41V8.15l1.79-.2v8.82c0 .35.14.52.42.52.14 0 .28-.02.42-.07l.38 1.26c-.37.17-.77.25-1.19.25-.58.01-1.02-.16-1.34-.49zM89.7 7.05l.73 1.4-3.16 1.26-.5-.91 2.93-1.75zm-.16 4.07v7.41h-1.79v-7.41h1.79zM97.92 8.15v10.37h-1.58l-.13-.94c-.23.35-.53.63-.89.84s-.77.31-1.22.31c-.91 0-1.6-.35-2.09-1.05-.49-.7-.73-1.65-.73-2.86 0-.76.12-1.43.36-2.02.24-.59.59-1.06 1.04-1.39.45-.34.98-.5 1.58-.5.71 0 1.33.27 1.86.8V7.96l1.8.19zm-2.48 9c.24-.15.47-.39.69-.72v-3.39c-.21-.26-.43-.46-.65-.59-.22-.13-.47-.2-.76-.2-.48 0-.85.21-1.13.64s-.41 1.07-.41 1.92c0 .92.12 1.57.36 1.97.24.4.6.6 1.06.6.32 0 .6-.08.84-.23zM104.37 11.12c.39.14.75.36 1.1.66l-.8 1.08c-.25-.19-.49-.32-.73-.41s-.49-.13-.77-.13c-1.11 0-1.67.84-1.67 2.53 0 .86.14 1.48.43 1.86.29.38.7.57 1.23.57.26 0 .5-.04.72-.13.22-.08.48-.22.78-.41l.8 1.13c-.7.57-1.5.85-2.39.85-.71 0-1.33-.16-1.85-.47-.52-.31-.92-.76-1.2-1.34s-.42-1.26-.42-2.04.14-1.48.42-2.08.68-1.07 1.2-1.4c.52-.33 1.13-.5 1.83-.5.49.02.93.09 1.32.23zM112.52 15.38h-4.65c.06.72.24 1.23.56 1.54.32.31.74.46 1.26.46.33 0 .63-.05.92-.16.29-.11.6-.27.92-.5l.74 1.02c-.82.66-1.74.99-2.74.99-1.13 0-2-.34-2.61-1.04-.61-.69-.92-1.63-.92-2.83 0-.76.13-1.44.39-2.04.26-.6.64-1.07 1.13-1.41.49-.34 1.08-.51 1.76-.51 1.04 0 1.84.33 2.41.99.57.66.85 1.58.85 2.75.03.1.01.34-.02.74zm-1.73-1.25c0-1.3-.48-1.95-1.44-1.95-.44 0-.78.16-1.03.48-.25.32-.39.84-.44 1.55h2.91v-.08zM122.49 11.12v1.29l-3.58 4.72h3.65l-.18 1.4h-5.53v-1.29l3.6-4.72h-3.29v-1.4h5.33zM129.88 15.38h-4.65c.06.72.24 1.23.56 1.54.32.31.74.46 1.26.46.33 0 .63-.05.92-.16s.6-.27.92-.5l.74 1.02c-.82.66-1.74.99-2.74.99-1.13 0-2-.34-2.61-1.04-.61-.69-.92-1.63-.92-2.83 0-.76.13-1.44.39-2.04.26-.6.64-1.07 1.13-1.41.49-.34 1.08-.51 1.76-.51 1.04 0 1.84.33 2.41.99s.85 1.58.85 2.75c.03.1.01.34-.02.74zm-1.73-1.25c0-1.3-.48-1.95-1.44-1.95-.44 0-.78.16-1.03.48-.25.32-.39.84-.44 1.55h2.91v-.08zM140.82 11.52c.35.41.53.95.53 1.65v5.36h-1.79v-5.08c0-.79-.27-1.19-.81-1.19-.29 0-.54.09-.75.27-.21.18-.43.46-.65.85v5.15h-1.79v-5.08c0-.79-.27-1.19-.81-1.19-.3 0-.55.09-.76.27-.21.18-.43.46-.65.85v5.15h-1.79v-7.41h1.55l.14.97c.56-.78 1.27-1.18 2.14-1.18.43 0 .8.11 1.11.33.31.22.54.53.68.92.3-.4.63-.71.99-.92s.77-.32 1.24-.32c.59-.01 1.06.19 1.42.6zM147.48 7.33l.69.78-1.95 1.75h-1.12l-1.95-1.75.69-.78 1.82 1.23 1.82-1.23zm.35 3.69l-.31 1.74c-.22-.06-.44-.08-.66-.08-.44 0-.78.16-1.04.47s-.45.79-.6 1.43v3.95h-1.79v-7.41h1.55l.17 1.46c.18-.53.43-.94.77-1.22s.72-.43 1.16-.43c.28-.01.53.03.75.09zM154.57 15.38h-4.65c.06.72.24 1.23.56 1.54.32.31.74.46 1.26.46.33 0 .63-.05.92-.16s.6-.27.92-.5l.74 1.02c-.82.66-1.74.99-2.74.99-1.13 0-2-.34-2.61-1.04-.61-.69-.92-1.63-.92-2.83 0-.76.13-1.44.39-2.04.26-.6.64-1.07 1.13-1.41.49-.34 1.08-.51 1.76-.51 1.04 0 1.84.33 2.41.99s.85 1.58.85 2.75c.02.1 0 .34-.02.74zm-1.74-1.25c0-1.3-.48-1.95-1.44-1.95-.44 0-.78.16-1.03.48-.25.32-.39.84-.44 1.55h2.91v-.08zM156.63 18.24c-.32-.33-.48-.8-.48-1.41V8.15l1.79-.2v8.82c0 .35.14.52.42.52.14 0 .28-.02.42-.07l.38 1.26c-.37.17-.77.25-1.19.25-.57.01-1.02-.16-1.34-.49zM166.31 15.38h-4.65c.06.72.24 1.23.56 1.54.32.31.74.46 1.26.46.33 0 .63-.05.92-.16s.6-.27.92-.5l.74 1.02c-.82.66-1.74.99-2.74.99-1.13 0-2-.34-2.61-1.04-.61-.69-.92-1.63-.92-2.83 0-.76.13-1.44.39-2.04.26-.6.64-1.07 1.13-1.41.49-.34 1.08-.51 1.76-.51 1.04 0 1.84.33 2.41.99s.85 1.58.85 2.75c.02.1.01.34-.02.74zm-2.11-8.33l.73 1.4-3.16 1.26-.5-.91 2.93-1.75zm.38 7.08c0-1.3-.48-1.95-1.44-1.95-.44 0-.78.16-1.03.48-.25.32-.39.84-.44 1.55h2.91v-.08zM173.45 11.51c.37.4.56.95.56 1.65v5.36h-1.79v-5.08c0-.44-.08-.75-.23-.92-.15-.18-.38-.27-.68-.27-.3 0-.57.1-.83.29s-.5.46-.73.82v5.17h-1.79V8.17l1.79-.18V12c.6-.73 1.32-1.09 2.16-1.09.66 0 1.17.2 1.54.6zM181.68 11.95c.61.7.92 1.65.92 2.86 0 .78-.14 1.46-.42 2.05-.28.59-.68 1.05-1.2 1.38-.52.33-1.14.49-1.86.49-1.09 0-1.95-.35-2.56-1.04s-.92-1.65-.92-2.88c0-.77.14-1.46.42-2.04s.68-1.04 1.21-1.37c.53-.33 1.15-.49 1.87-.49 1.07 0 1.93.35 2.54 1.04zm-4.17 2.87c0 .88.13 1.52.4 1.94.27.42.67.62 1.2.62.53 0 .93-.21 1.2-.63.27-.42.4-1.06.4-1.93s-.13-1.51-.4-1.92c-.27-.42-.66-.62-1.18-.62-1.08-.01-1.62.84-1.62 2.54z"/><path fill="#fff1e5" d="M220.97 61.41h382.8v172.74h-382.8z"/><g><path class="st61" d="M220.97 122.33h382.8M220.97 152.65h382.8M220.97 200.08h382.8M220.97 217.12h382.8"/></g><g><path class="st98" d="M14.43 183.04h589.34M14.43 91.68h589.34M220.97 27.87v206.28M14.43 27.87h589.34v206.28H14.43zM14.43 61.41h589.34M444.87 27.87v206.28M513.38 27.87v206.28"/></g><g><path d="M26.01 46.68c.57.43.86 1.07.86 1.93 0 .9-.29 1.57-.87 2.02-.58.45-1.35.67-2.31.67h-.95v2.82H21.2v-8.09h2.39c1.04.01 1.84.23 2.42.65zm-1.18 3.13c.28-.23.42-.63.42-1.19 0-.96-.56-1.44-1.68-1.44h-.83v2.98h.83c.56-.01.98-.12 1.26-.35zM31.46 44.76l.57.66-1.63 1.46h-.94l-1.63-1.46.57-.66 1.52 1.03 1.54-1.03zm.29 3.1l-.26 1.45c-.19-.05-.37-.07-.55-.07-.37 0-.66.13-.87.39s-.38.66-.5 1.2v3.3h-1.5v-6.2h1.3l.14 1.22c.15-.45.36-.79.64-1.02s.6-.36.97-.36c.24 0 .45.03.63.09zM34.33 44.53l.61 1.17-2.65 1.05-.42-.76 2.46-1.46zm-.14 3.41v6.2h-1.5v-6.2h1.5zM39.58 47.94c.32.12.63.3.92.55l-.67.9c-.21-.16-.41-.27-.61-.34s-.41-.11-.64-.11c-.93 0-1.39.71-1.39 2.12 0 .72.12 1.24.36 1.55s.59.47 1.03.47c.22 0 .42-.04.6-.1.18-.07.4-.18.65-.34l.67.95c-.59.48-1.25.71-2 .71-.59 0-1.11-.13-1.55-.39s-.77-.63-1.01-1.12-.35-1.05-.35-1.71c0-.66.12-1.24.35-1.74s.57-.89 1.01-1.17.95-.42 1.53-.42c.41.01.78.07 1.1.19zm.43-3.18l.57.66-1.63 1.46h-.94l-1.63-1.46.57-.66 1.52 1.03 1.54-1.03zM43.02 45.06c.18.18.26.39.26.65s-.09.47-.26.64-.4.26-.69.26c-.27 0-.5-.08-.67-.26-.18-.17-.26-.39-.26-.64s.09-.47.26-.65c.17-.18.4-.26.67-.26.28 0 .51.09.69.26zm.07 2.88v6.2h-1.5v-6.2h1.5zM49.49 48.26c.31.33.46.79.46 1.39v4.49h-1.5v-4.25c0-.37-.06-.62-.19-.77s-.32-.22-.57-.22c-.26 0-.49.08-.7.24-.21.16-.41.39-.6.7v4.31h-1.5v-6.2h1.3l.12.81c.51-.66 1.14-.98 1.89-.98.55-.02.98.15 1.29.48zM56.39 53.03c.07.11.19.2.36.26l-.32 1c-.35-.03-.64-.12-.86-.26s-.39-.36-.51-.64c-.21.31-.47.54-.79.7-.32.15-.67.23-1.06.23-.62 0-1.11-.18-1.46-.53-.36-.35-.54-.81-.54-1.38 0-.67.24-1.19.73-1.54.49-.35 1.19-.53 2.09-.53h.77v-.35c0-.4-.09-.68-.28-.84s-.48-.24-.88-.24c-.45 0-1 .11-1.64.33l-.35-1.02c.77-.3 1.52-.45 2.25-.45 1.58 0 2.38.71 2.38 2.13v2.6c0 .24.04.41.11.53zm-1.59-.57v-1.25h-.62c-.97 0-1.45.36-1.45 1.08 0 .3.07.53.22.69.15.16.37.25.66.25.51-.01.91-.26 1.19-.77zM65.18 48.5l-.59.88c-.53-.34-1.05-.5-1.56-.5-.3 0-.53.06-.69.17s-.25.26-.25.45c0 .14.04.26.11.35s.2.18.38.26.46.17.81.28c.67.18 1.17.42 1.49.71.32.3.49.71.49 1.24 0 .62-.25 1.1-.75 1.45s-1.12.52-1.86.52c-.51 0-.97-.08-1.39-.23-.42-.16-.78-.37-1.08-.64l.75-.84c.54.41 1.1.61 1.69.61.34 0 .6-.07.8-.2.2-.13.3-.32.3-.55 0-.18-.04-.32-.11-.43s-.21-.2-.4-.28c-.19-.08-.49-.18-.9-.3-.63-.17-1.1-.41-1.39-.72-.3-.31-.45-.69-.45-1.15 0-.34.1-.65.3-.93.2-.27.48-.49.84-.64s.78-.23 1.25-.23c.85-.02 1.58.23 2.21.72zM74.37 48.27c.3.34.45.8.45 1.38v4.49h-1.5v-4.25c0-.66-.23-1-.68-1-.24 0-.45.08-.63.23s-.36.39-.54.71v4.31h-1.5v-4.25c0-.66-.23-1-.68-1-.25 0-.46.08-.64.23s-.36.39-.54.71v4.31h-1.5v-6.2h1.3l.12.81c.47-.66 1.07-.98 1.79-.98.36 0 .67.09.93.28s.45.44.57.77c.25-.33.53-.59.83-.77s.65-.27 1.04-.27c.48-.02.88.15 1.18.49zM80.23 47.86l-.26 1.45c-.19-.05-.37-.07-.55-.07-.37 0-.66.13-.87.39s-.38.66-.5 1.2v3.3h-1.5v-6.2h1.3l.15 1.23c.15-.45.36-.79.64-1.02s.6-.36.97-.36c.23-.01.44.02.62.08zM84.72 53.84c-.22.16-.46.27-.73.35s-.54.12-.83.12c-.61-.01-1.07-.18-1.39-.52s-.47-.84-.47-1.5v-3.27h-.97v-1.08h.97v-1.37l1.5-.17v1.55h1.44l-.15 1.08H82.8v3.23c0 .3.05.52.16.66s.27.2.5.2c.23 0 .47-.07.74-.22l.52.94zM86.99 45.06c.18.18.26.39.26.65s-.09.47-.26.64-.4.26-.69.26c-.27 0-.5-.08-.67-.26-.18-.17-.26-.39-.26-.64s.09-.47.26-.65c.17-.18.4-.26.67-.26.28 0 .51.09.69.26zm.07 2.88v6.2h-1.5v-6.2h1.5z"/></g><g><path d="M20.93 66.93v8.02h-.68v-8.02h.68zM23.61 74.16c.1.11.15.23.15.38s-.05.28-.15.38-.23.16-.39.16-.28-.05-.38-.16-.15-.23-.15-.38.05-.28.15-.38.23-.16.39-.16.28.06.38.16zM33.23 74.95h-.89l-3.35-7.26c.06.72.09 1.63.09 2.73v4.53h-.64v-8.02h.89l3.35 7.27c-.06-.94-.09-1.73-.09-2.37v-4.91h.64v8.03zM39.42 72.15h-3.69c.03.82.2 1.42.5 1.8.3.38.71.57 1.21.57.29 0 .54-.05.77-.14s.46-.24.7-.45l.33.41c-.27.24-.56.43-.85.55s-.62.19-.97.19c-.73 0-1.31-.27-1.73-.82-.42-.55-.63-1.32-.63-2.32 0-1.01.2-1.81.6-2.38.4-.57.95-.86 1.65-.86.69 0 1.23.26 1.59.77.37.52.55 1.25.55 2.19l-.03.49zm-.63-.7c0-.71-.12-1.26-.38-1.63-.25-.38-.62-.57-1.12-.57-.45 0-.82.19-1.1.57-.28.38-.44.99-.47 1.82h3.07v-.19zM47.6 69.19c.26.33.39.77.39 1.32v4.44h-.64V70.6c0-.46-.08-.8-.24-1.03a.762.762 0 00-.67-.34c-.3 0-.58.11-.83.33-.25.22-.48.53-.71.93v4.45h-.64v-4.35c0-.46-.08-.8-.24-1.03a.762.762 0 00-.67-.34c-.3 0-.58.11-.83.33-.25.22-.48.53-.71.93v4.45h-.66V68.8h.56l.06 1.02c.47-.76 1.03-1.15 1.69-1.15.35 0 .65.11.88.32s.4.5.49.88c.48-.8 1.06-1.19 1.72-1.19.44.02.79.18 1.05.51zM53.8 69.52c.41.55.62 1.33.62 2.35 0 1.01-.21 1.79-.63 2.36-.42.57-1 .85-1.73.85s-1.31-.28-1.72-.84c-.41-.56-.62-1.34-.62-2.35s.21-1.79.63-2.35c.42-.56.99-.84 1.73-.84.73 0 1.3.27 1.72.82zm-2.97.39c-.29.43-.43 1.1-.43 1.99 0 .88.14 1.54.43 1.98.29.44.69.66 1.22.66s.94-.22 1.23-.66c.29-.44.43-1.1.43-2 0-.88-.14-1.54-.42-1.97-.28-.43-.69-.64-1.23-.64-.53-.01-.94.21-1.23.64zM58.95 68.85c.25.1.49.26.73.47l-.33.42c-.18-.16-.37-.28-.56-.36s-.41-.12-.66-.12c-.52 0-.92.22-1.22.66-.3.44-.45 1.11-.45 2 0 .88.15 1.54.45 1.96.3.42.71.63 1.23.63.24 0 .46-.04.66-.12s.39-.21.6-.37l.33.41c-.46.44-.99.66-1.59.66-.73 0-1.31-.27-1.73-.81-.42-.54-.63-1.32-.63-2.34 0-1.01.21-1.81.64-2.38.43-.57 1-.85 1.73-.85.27-.01.55.04.8.14zM65.79 65.43c-.38.62-.69 1.17-.91 1.65-.22.47-.4 1.01-.54 1.63s-.21 1.33-.21 2.15c0 .82.07 1.54.21 2.15s.32 1.16.54 1.63.53 1.02.91 1.65l-.42.28c-.43-.66-.77-1.23-1.03-1.72s-.46-1.07-.63-1.72-.25-1.41-.25-2.26.08-1.6.25-2.26.37-1.23.63-1.72c.25-.49.6-1.07 1.03-1.72l.42.26zM69.76 68.87c.28.11.55.28.82.51l-.3.42c-.25-.19-.49-.34-.71-.43-.22-.09-.47-.13-.73-.13-.37 0-.66.09-.88.28-.22.19-.33.45-.33.77 0 .29.1.52.29.69s.55.33 1.05.5c.63.2 1.08.44 1.36.71s.41.65.41 1.13c0 .54-.19.97-.57 1.29s-.86.48-1.44.48c-.41 0-.78-.07-1.1-.21s-.63-.33-.9-.58l.36-.4c.25.21.5.37.75.47s.54.16.87.16c.4 0 .72-.11.97-.32.25-.21.37-.5.37-.88 0-.25-.04-.45-.12-.6s-.23-.29-.43-.4c-.21-.12-.51-.24-.9-.36-.59-.19-1.02-.41-1.27-.67-.25-.26-.38-.59-.38-1 0-.3.08-.58.25-.82.16-.24.39-.43.67-.57s.6-.21.94-.21c.36 0 .67.06.95.17zM74.91 74.7c-.36.26-.75.39-1.17.39-.43 0-.77-.13-1.01-.39s-.36-.62-.36-1.09v-4.24h-.92v-.54h.92v-1.46l.66-.08v1.55h1.42l-.08.54h-1.34v4.22c0 .62.26.94.79.94.27 0 .54-.09.83-.26l.26.42zM79.57 74.32c.07.13.19.23.35.3l-.15.46c-.26-.06-.46-.17-.6-.32s-.23-.38-.28-.67c-.4.66-.96 1-1.7 1-.53 0-.95-.17-1.26-.5-.31-.33-.46-.77-.46-1.33 0-.64.21-1.13.62-1.47.41-.34 1-.51 1.75-.51h.97v-.66c0-.47-.1-.81-.29-1.04-.2-.22-.51-.33-.94-.33-.45 0-.95.12-1.52.35l-.19-.49c.65-.27 1.24-.41 1.78-.41.62 0 1.07.16 1.37.48s.45.78.45 1.39v3.13c-.01.28.03.49.1.62zm-.76-.89v-1.68h-.89c-1.17 0-1.76.49-1.76 1.48 0 .43.1.76.3.98.2.23.48.34.84.34.66.01 1.16-.37 1.51-1.12zM85.4 68.83l-1.9 6.13h-.8l-1.97-6.13h.7l1.66 5.55 1.62-5.55h.69zM87.57 66.88c.25.49.46 1.06.63 1.72s.25 1.41.25 2.26-.08 1.6-.25 2.26-.37 1.23-.63 1.72-.6 1.06-1.02 1.73l-.43-.28c.38-.62.69-1.17.91-1.65s.41-1.01.54-1.63.21-1.33.21-2.15c0-.82-.07-1.54-.21-2.16s-.32-1.16-.54-1.62c-.23-.46-.53-1.01-.91-1.65l.43-.28c.43.66.77 1.24 1.02 1.73zM90.53 74.16c.1.1.15.23.15.39 0 .09-.02.18-.05.29s-.07.22-.12.34l-.6 1.53h-.46l.43-1.7a.525.525 0 01-.27-.47c0-.16.05-.29.15-.39.11-.09.24-.15.38-.15.16 0 .29.06.39.16zM95.96 66.25v8.7h-.66v-8.62l.66-.08zm3.1 2.58l-2.31 2.74 2.55 3.38h-.76l-2.52-3.35 2.31-2.78h.73zM103.03 74.7c-.36.26-.75.39-1.17.39-.43 0-.77-.13-1.01-.39s-.36-.62-.36-1.09v-4.24h-.92v-.54h.92v-1.46l.66-.08v1.55h1.42l-.08.54h-1.34v4.22c0 .62.26.94.79.94.27 0 .54-.09.83-.26l.26.42zM108.04 72.15h-3.69c.03.82.2 1.42.5 1.8.3.38.71.57 1.21.57.29 0 .54-.05.77-.14s.46-.24.7-.45l.33.41c-.27.24-.56.43-.85.55s-.62.19-.97.19c-.73 0-1.31-.27-1.73-.82-.42-.55-.63-1.32-.63-2.32 0-1.01.2-1.81.6-2.38.4-.57.95-.86 1.65-.86.69 0 1.23.26 1.59.77.37.52.55 1.25.55 2.19 0 .17-.01.34-.03.49zm-.62-.7c0-.71-.12-1.26-.38-1.63-.25-.38-.62-.57-1.12-.57-.45 0-.82.19-1.1.57-.28.38-.44.99-.47 1.82h3.07v-.19zM112.5 68.77l-.13.62c-.14-.05-.3-.07-.47-.07-.38 0-.68.15-.91.45-.23.3-.42.77-.57 1.4v3.78h-.66v-6.13h.56l.05 1.31c.16-.48.36-.84.62-1.08s.58-.36.96-.36c.19.01.37.03.55.08zM115.56 74.98c-.21.7-.48 1.24-.81 1.6s-.82.62-1.46.77l-.08-.52c.37-.1.66-.23.87-.38s.38-.34.5-.56c.12-.23.25-.54.39-.94h-.23l-1.91-6.13h.68l1.66 5.63 1.62-5.63h.68l-1.91 6.16zm.37-9.15l.3.57-2.07.98-.21-.36 1.98-1.19zM120.52 65.43c-.38.62-.69 1.17-.91 1.65-.22.47-.4 1.01-.54 1.63s-.21 1.33-.21 2.15c0 .82.07 1.54.21 2.15s.32 1.16.54 1.63.53 1.02.91 1.65l-.42.28c-.43-.66-.77-1.23-1.03-1.72s-.46-1.07-.63-1.72-.25-1.41-.25-2.26.08-1.6.25-2.26.37-1.23.63-1.72c.25-.49.6-1.07 1.03-1.72l.42.26zM125.74 74.32c.07.13.19.23.35.3l-.15.46c-.26-.06-.46-.17-.6-.32s-.23-.38-.28-.67c-.4.66-.96 1-1.7 1-.53 0-.95-.17-1.26-.5-.31-.33-.46-.77-.46-1.33 0-.64.21-1.13.62-1.47.41-.34 1-.51 1.75-.51h.97v-.66c0-.47-.1-.81-.29-1.04-.2-.22-.51-.33-.94-.33-.45 0-.95.12-1.52.35l-.19-.49c.65-.27 1.24-.41 1.78-.41.62 0 1.07.16 1.37.48s.45.78.45 1.39v3.13c0 .28.03.49.1.62zm-.76-.89v-1.68h-.89c-1.17 0-1.76.49-1.76 1.48 0 .43.1.76.3.98.2.23.48.34.84.34.66.01 1.17-.37 1.51-1.12zm-.41-7.6l.3.57-2.07.98-.21-.36 1.98-1.19zM128.72 66.88c.25.49.46 1.06.63 1.72s.25 1.41.25 2.26-.08 1.6-.25 2.26-.37 1.23-.63 1.72-.6 1.06-1.02 1.73l-.43-.28c.38-.62.69-1.17.91-1.65s.41-1.01.54-1.63.21-1.33.21-2.15c0-.82-.07-1.54-.21-2.16s-.32-1.16-.54-1.62c-.23-.46-.53-1.01-.91-1.65l.43-.28c.43.66.77 1.24 1.02 1.73zM137.96 69.51c.34.54.51 1.32.51 2.35 0 1.02-.18 1.81-.55 2.37-.37.57-.89.85-1.56.85-.33 0-.62-.08-.89-.23s-.49-.35-.67-.6v3.01l-.66.09v-8.53h.57l.05.88c.45-.67 1.02-1.01 1.7-1.01.67.01 1.16.28 1.5.82zm-.19 2.35c0-.89-.12-1.55-.36-1.97-.24-.42-.59-.64-1.06-.64-.32 0-.6.09-.85.28-.25.19-.48.44-.69.76v3.32c.39.61.88.91 1.45.91 1.01 0 1.51-.89 1.51-2.66zM142.9 65.97l.28.32-1.36 1.25h-.41l-1.37-1.25.29-.32 1.29 1 1.28-1zm.09 2.8l-.13.62c-.14-.05-.3-.07-.47-.07-.38 0-.68.15-.91.45-.23.3-.42.77-.57 1.4v3.78h-.66v-6.13h.56l.05 1.31c.16-.48.36-.84.62-1.08s.58-.36.96-.36c.19.01.37.03.55.08zM145.33 65.83l.3.57-2.07.98-.21-.36 1.98-1.19zm-.45 3v6.13h-.66v-6.13h.66zM153.54 69.19c.26.33.39.77.39 1.32v4.44h-.64V70.6c0-.46-.08-.8-.24-1.03a.762.762 0 00-.67-.34c-.3 0-.58.11-.83.33-.25.22-.48.53-.71.93v4.45h-.64v-4.35c0-.46-.08-.8-.24-1.03a.762.762 0 00-.67-.34c-.3 0-.58.11-.83.33-.25.22-.48.53-.71.93v4.45h-.66V68.8h.56l.06 1.02c.47-.76 1.03-1.15 1.69-1.15.35 0 .65.11.88.32s.4.5.49.88c.48-.8 1.06-1.19 1.72-1.19.44.02.79.18 1.05.51zM159.73 69.52c.41.55.62 1.33.62 2.35 0 1.01-.21 1.79-.63 2.36-.42.57-1 .85-1.73.85s-1.31-.28-1.72-.84c-.41-.56-.62-1.34-.62-2.35s.21-1.79.63-2.35c.42-.56.99-.84 1.73-.84.73 0 1.31.27 1.72.82zm-2.96.39c-.29.43-.43 1.1-.43 1.99 0 .88.14 1.54.43 1.98.29.44.69.66 1.22.66s.94-.22 1.23-.66c.29-.44.43-1.1.43-2 0-.88-.14-1.54-.42-1.97-.28-.43-.69-.64-1.23-.64-.53-.01-.94.21-1.23.64zM168.79 68.83l-1.9 6.13h-.8l-1.97-6.13h.7l1.66 5.55 1.62-5.55h.69zM174 72.15h-3.69c.03.82.2 1.42.5 1.8.3.38.71.57 1.21.57.29 0 .54-.05.77-.14s.46-.24.7-.45l.33.41c-.27.24-.56.43-.85.55s-.62.19-.97.19c-.73 0-1.31-.27-1.73-.82-.42-.55-.63-1.32-.63-2.32 0-1.01.2-1.81.6-2.38.4-.57.95-.86 1.65-.86.69 0 1.23.26 1.59.77.37.52.55 1.25.55 2.19-.01.17-.01.34-.03.49zm-.62-.7c0-.71-.12-1.26-.38-1.63-.25-.38-.62-.57-1.12-.57-.45 0-.82.19-1.1.57-.28.38-.44.99-.47 1.82h3.07v-.19zM179.69 66.33v8.62h-.57l-.06-.91c-.18.32-.4.57-.67.76s-.59.28-.97.28c-.66 0-1.17-.28-1.54-.84-.37-.56-.56-1.33-.56-2.33 0-.64.09-1.2.27-1.69.18-.49.43-.86.76-1.13s.71-.4 1.15-.4c.62 0 1.14.27 1.53.82v-3.27l.66.09zm-1.31 7.92c.24-.19.46-.47.66-.84v-3.22c-.39-.62-.87-.94-1.43-.94-.49 0-.88.23-1.17.68s-.42 1.12-.42 1.97c0 .87.13 1.52.39 1.96.26.44.63.66 1.1.66.34.01.63-.08.87-.27zM182.11 74.8c-.18-.19-.27-.46-.27-.81v-7.66l.66-.08v7.73c0 .36.15.54.45.54.12 0 .25-.03.38-.08l.16.48c-.19.11-.4.16-.64.16-.32 0-.56-.09-.74-.28zM186.67 65.43c-.38.62-.69 1.17-.91 1.65-.22.47-.4 1.01-.54 1.63s-.21 1.33-.21 2.15c0 .82.07 1.54.21 2.15s.32 1.16.54 1.63.53 1.02.91 1.65l-.42.28c-.43-.66-.77-1.23-1.03-1.72s-.46-1.07-.63-1.72-.25-1.41-.25-2.26.08-1.6.25-2.26.37-1.23.63-1.72c.25-.49.6-1.07 1.03-1.72l.42.26zM191.9 74.32c.07.13.19.23.35.3l-.15.46c-.26-.06-.46-.17-.6-.32s-.23-.38-.28-.67c-.4.66-.96 1-1.7 1-.53 0-.95-.17-1.26-.5-.31-.33-.46-.77-.46-1.33 0-.64.21-1.13.62-1.47.41-.34 1-.51 1.75-.51h.97v-.66c0-.47-.1-.81-.29-1.04-.2-.22-.51-.33-.94-.33-.45 0-.95.12-1.52.35l-.19-.49c.65-.27 1.24-.41 1.78-.41.62 0 1.07.16 1.37.48s.45.78.45 1.39v3.13c-.01.28.03.49.1.62zm-.76-.89v-1.68h-.89c-1.17 0-1.76.49-1.76 1.48 0 .43.1.76.3.98.2.23.48.34.84.34.66.01 1.16-.37 1.51-1.12zM194.88 66.88c.25.49.46 1.06.63 1.72s.25 1.41.25 2.26-.08 1.6-.25 2.26-.37 1.23-.63 1.72-.6 1.06-1.02 1.73l-.43-.28c.38-.62.69-1.17.91-1.65s.41-1.01.54-1.63.21-1.33.21-2.15c0-.82-.07-1.54-.21-2.16s-.32-1.16-.54-1.62c-.23-.46-.53-1.01-.91-1.65l.43-.28c.42.66.76 1.24 1.02 1.73zM20.86 77.96v8.7h-.66v-8.62l.66-.08zm3.1 2.58l-2.31 2.74 2.55 3.38h-.76l-2.52-3.35 2.31-2.78h.73zM29.32 83.87h-3.69c.03.82.2 1.42.5 1.8.3.38.71.57 1.21.57.29 0 .54-.05.77-.14s.46-.24.7-.45l.33.41c-.27.24-.56.43-.85.55s-.62.19-.97.19c-.73 0-1.31-.27-1.73-.82-.42-.55-.63-1.32-.63-2.32 0-1.01.2-1.81.6-2.38.4-.57.95-.86 1.65-.86.69 0 1.23.26 1.59.77.37.52.55 1.25.55 2.19l-.03.49zm-.62-.7c0-.71-.12-1.26-.38-1.63-.25-.38-.62-.57-1.12-.57-.45 0-.82.19-1.1.57-.28.38-.44.99-.47 1.82h3.07v-.19zM36.3 80.58c.28.11.55.28.82.51l-.3.42c-.25-.19-.49-.34-.71-.43-.22-.09-.47-.13-.73-.13-.37 0-.66.09-.88.28-.22.19-.33.45-.33.77 0 .29.1.52.29.69s.55.33 1.05.5c.63.2 1.08.44 1.36.71s.41.65.41 1.13c0 .54-.19.97-.57 1.29s-.86.48-1.44.48c-.41 0-.78-.07-1.1-.21s-.62-.33-.89-.58l.36-.4c.25.21.5.37.75.47s.54.16.87.16c.4 0 .72-.11.97-.32.25-.21.37-.5.37-.88 0-.25-.04-.45-.12-.6s-.23-.29-.43-.4c-.21-.12-.51-.24-.9-.36-.59-.19-1.02-.41-1.27-.67-.25-.26-.38-.59-.38-1 0-.3.08-.58.25-.82.16-.24.39-.43.67-.57s.6-.21.94-.21c.34 0 .66.06.94.17zM45.34 80.9c.26.33.39.77.39 1.32v4.44h-.64v-4.35c0-.46-.08-.8-.24-1.03a.762.762 0 00-.67-.34c-.3 0-.58.11-.83.33-.25.22-.48.53-.71.93v4.45H42V82.3c0-.46-.08-.8-.24-1.03a.762.762 0 00-.67-.34c-.3 0-.58.11-.83.33-.25.22-.48.53-.71.93v4.45h-.66v-6.13h.56l.06 1.02c.47-.76 1.03-1.15 1.69-1.15.35 0 .65.11.88.32s.4.5.49.88c.48-.8 1.06-1.19 1.72-1.19.44.02.79.19 1.05.51zM50.61 80.48l-.13.62c-.14-.05-.3-.07-.47-.07-.38 0-.68.15-.91.45-.23.3-.42.77-.57 1.4v3.78h-.66v-6.13h.56l.05 1.31c.16-.48.36-.84.62-1.08s.58-.36.96-.36c.18.01.36.04.55.08zM54.39 86.41c-.36.26-.75.39-1.17.39-.43 0-.77-.13-1.01-.39s-.36-.62-.36-1.09v-4.24h-.92v-.54h.92v-1.46l.66-.08v1.55h1.42l-.08.54h-1.34v4.22c0 .62.26.94.79.94.27 0 .54-.09.83-.26l.26.42zM56.15 78c.09.09.13.21.13.34 0 .14-.04.26-.13.35s-.21.13-.35.13-.26-.04-.34-.13a.475.475 0 01-.13-.35.46.46 0 01.47-.48c.14 0 .26.05.35.14zm-.02 2.54v6.13h-.66v-6.13h.66zM63.02 77.14c-.38.62-.69 1.17-.91 1.65-.22.47-.4 1.01-.54 1.63s-.21 1.33-.21 2.15c0 .82.07 1.54.21 2.15s.32 1.16.54 1.63.53 1.02.91 1.65l-.42.28c-.43-.66-.77-1.23-1.03-1.72s-.46-1.07-.63-1.72-.25-1.41-.25-2.26.08-1.6.25-2.26.37-1.23.63-1.72c.25-.49.6-1.07 1.03-1.72l.42.26zM68.45 81.21c.35.54.53 1.32.53 2.36 0 1.02-.19 1.81-.56 2.37-.37.57-.89.85-1.55.85-.33 0-.62-.08-.89-.25s-.5-.38-.69-.66l-.06.77h-.57v-8.62l.66-.08v3.43c.43-.66.98-.98 1.65-.98.63.01 1.13.28 1.48.81zm-.57 4.38c.26-.44.39-1.11.39-2.01 0-.91-.12-1.57-.36-1.99-.24-.42-.6-.63-1.07-.63-.33 0-.61.09-.86.28-.24.19-.47.45-.68.77v3.26c.41.65.89.97 1.45.97.5.01.87-.21 1.13-.65zM74.71 83.87h-3.69c.03.82.2 1.42.5 1.8.3.38.71.57 1.21.57.29 0 .54-.05.77-.14s.46-.24.7-.45l.33.41c-.27.24-.56.43-.85.55s-.62.19-.97.19c-.73 0-1.31-.27-1.73-.82-.42-.55-.63-1.32-.63-2.32 0-1.01.2-1.81.6-2.38.4-.57.95-.86 1.65-.86.69 0 1.23.26 1.59.77.37.52.55 1.25.55 2.19l-.03.49zm-.63-.7c0-.71-.12-1.26-.38-1.63-.25-.38-.62-.57-1.12-.57-.45 0-.82.19-1.1.57-.28.38-.44.99-.47 1.82h3.07v-.19zM79.45 80.54v.52l-3.09 5.04h3.08l-.07.57h-3.75v-.5l3.1-5.05h-2.85v-.57h3.58zM84.71 81.22c.34.54.51 1.32.51 2.35 0 1.02-.18 1.81-.55 2.37-.37.57-.89.85-1.56.85-.33 0-.62-.08-.89-.23s-.49-.35-.67-.6v3.01l-.66.09v-8.53h.57l.05.88c.45-.67 1.02-1.01 1.7-1.01.67.01 1.17.28 1.5.82zm-.19 2.35c0-.89-.12-1.55-.36-1.97-.24-.42-.59-.64-1.06-.64-.32 0-.6.09-.85.28-.25.19-.48.44-.69.76v3.32c.39.61.88.91 1.45.91 1.01 0 1.51-.88 1.51-2.66zM89.75 80.48l-.13.62c-.14-.05-.3-.07-.47-.07-.38 0-.68.15-.91.45-.23.3-.42.77-.57 1.4v3.78h-.66v-6.13h.56l.05 1.31c.16-.48.36-.84.62-1.08s.58-.36.96-.36c.18.01.36.04.55.08zM94.63 81.23c.41.55.62 1.33.62 2.35 0 1.01-.21 1.79-.63 2.36-.42.57-1 .85-1.73.85s-1.31-.28-1.72-.84c-.41-.56-.62-1.34-.62-2.35s.21-1.79.63-2.35c.42-.56.99-.84 1.73-.84.73 0 1.31.28 1.72.82zm-2.96.39c-.29.43-.43 1.1-.43 1.99 0 .88.14 1.54.43 1.98.29.44.69.66 1.22.66s.94-.22 1.23-.66c.29-.44.43-1.1.43-2 0-.88-.14-1.54-.42-1.97-.28-.43-.69-.64-1.23-.64-.53 0-.94.21-1.23.64zM99.35 80.58c.28.11.55.28.82.51l-.3.42c-.25-.19-.49-.34-.71-.43-.22-.09-.47-.13-.73-.13-.37 0-.66.09-.88.28-.22.19-.33.45-.33.77 0 .29.1.52.29.69s.55.33 1.05.5c.63.2 1.08.44 1.36.71s.41.65.41 1.13c0 .54-.19.97-.57 1.29s-.86.48-1.44.48c-.41 0-.78-.07-1.1-.21s-.62-.33-.89-.58l.36-.4c.25.21.5.37.75.47s.54.16.87.16c.4 0 .72-.11.97-.32.25-.21.37-.5.37-.88 0-.25-.04-.45-.12-.6s-.23-.29-.43-.4c-.21-.12-.51-.24-.9-.36-.59-.19-1.02-.41-1.27-.67-.25-.26-.38-.59-.38-1 0-.3.08-.58.25-.82.16-.24.39-.43.67-.57s.6-.21.94-.21c.34 0 .66.06.94.17zM104.49 86.41c-.36.26-.75.39-1.17.39-.43 0-.77-.13-1.01-.39s-.36-.62-.36-1.09v-4.24h-.92v-.54h.92v-1.46l.66-.08v1.55h1.42l-.08.54h-1.34v4.22c0 .62.26.94.79.94.27 0 .54-.09.83-.26l.26.42zM108.21 77.68l.28.32-1.36 1.25h-.41L105.35 78l.29-.32 1.29 1 1.28-1zm.09 2.8l-.13.62c-.14-.05-.3-.07-.47-.07-.38 0-.68.15-.91.45-.23.3-.42.77-.57 1.4v3.78h-.66v-6.13h.56l.05 1.31c.16-.48.36-.84.62-1.08s.58-.36.96-.36c.18.01.36.04.55.08zM113.46 83.87h-3.69c.03.82.2 1.42.5 1.8.3.38.71.57 1.21.57.29 0 .54-.05.77-.14s.46-.24.7-.45l.33.41c-.27.24-.56.43-.85.55s-.62.19-.97.19c-.73 0-1.31-.27-1.73-.82-.42-.55-.63-1.32-.63-2.32 0-1.01.2-1.81.6-2.38.4-.57.95-.86 1.65-.86.69 0 1.23.26 1.59.77.37.52.55 1.25.55 2.19 0 .17-.01.33-.03.49zm-.62-.7c0-.71-.12-1.26-.38-1.63-.25-.38-.62-.57-1.12-.57-.45 0-.82.19-1.1.57-.28.38-.44.99-.47 1.82h3.07v-.19zM119.16 78.05v8.62h-.57l-.06-.91c-.18.32-.4.57-.67.76s-.59.28-.97.28c-.66 0-1.17-.28-1.54-.84-.37-.56-.56-1.33-.56-2.33 0-.64.09-1.2.27-1.69.18-.49.43-.86.76-1.13s.71-.4 1.15-.4c.62 0 1.14.27 1.53.82v-3.27l.66.09zm-1.32 7.91c.24-.19.46-.47.66-.84V81.9c-.39-.62-.87-.94-1.43-.94-.49 0-.88.23-1.17.68s-.42 1.12-.42 1.97c0 .87.13 1.52.39 1.96.26.44.63.66 1.1.66.34.02.63-.08.87-.27zM124.97 80.89c.27.32.4.76.4 1.33v4.44h-.66v-4.35c0-.47-.08-.81-.25-1.04-.17-.22-.42-.33-.76-.33-.33 0-.64.11-.91.34-.27.23-.54.55-.79.96v4.42h-.66v-6.13h.56l.07 1.07c.48-.8 1.1-1.19 1.84-1.19.51 0 .89.16 1.16.48zM128.62 77.54l.3.57-2.07.98-.21-.36 1.98-1.19zm-.44 3v6.13h-.66v-6.13h.66zM137.11 81.22c.34.54.51 1.32.51 2.35 0 1.02-.18 1.81-.55 2.37-.37.57-.89.85-1.56.85-.33 0-.62-.08-.89-.23s-.49-.35-.67-.6v3.01l-.66.09v-8.53h.57l.05.88c.45-.67 1.02-1.01 1.7-1.01.66.01 1.16.28 1.5.82zm-.19 2.35c0-.89-.12-1.55-.36-1.97-.24-.42-.59-.64-1.06-.64-.32 0-.6.09-.85.28-.25.19-.48.44-.69.76v3.32c.39.61.88.91 1.45.91 1 0 1.51-.88 1.51-2.66zM142.04 77.68l.28.32-1.36 1.25h-.41L139.19 78l.29-.32 1.29 1 1.27-1zm.1 2.8l-.13.62c-.14-.05-.3-.07-.47-.07-.38 0-.68.15-.91.45-.23.3-.42.77-.57 1.4v3.78h-.66v-6.13h.56l.05 1.31c.16-.48.36-.84.62-1.08s.58-.36.96-.36c.18.01.36.04.55.08zM144.47 77.54l.3.57-2.07.98-.21-.36 1.98-1.19zm-.45 3v6.13h-.66v-6.13h.66zM148.99 80.56c.25.1.49.26.73.47l-.33.42c-.18-.16-.37-.28-.56-.36s-.41-.12-.66-.12c-.52 0-.92.22-1.22.66-.3.44-.45 1.11-.45 2 0 .88.15 1.54.45 1.96.3.42.71.63 1.23.63.24 0 .46-.04.66-.12s.39-.21.6-.37l.33.41c-.46.44-.99.66-1.59.66-.73 0-1.31-.27-1.73-.81-.42-.54-.63-1.32-.63-2.34 0-1.01.21-1.81.64-2.38.43-.57 1-.85 1.73-.85.27-.01.55.04.8.14zm.43-2.88l.28.32-1.36 1.25h-.41L146.57 78l.29-.32 1.29 1 1.27-1zM151.82 78c.09.09.13.21.13.34 0 .14-.04.26-.13.35s-.21.13-.35.13-.26-.04-.34-.13a.475.475 0 01-.13-.35.46.46 0 01.47-.48c.14 0 .26.05.35.14zm-.02 2.54v6.13h-.66v-6.13h.66zM157.62 80.89c.27.32.4.76.4 1.33v4.44h-.66v-4.35c0-.47-.08-.81-.25-1.04-.17-.22-.42-.33-.76-.33-.33 0-.64.11-.91.34-.27.23-.54.55-.79.96v4.42H154v-6.13h.56l.07 1.07c.48-.8 1.1-1.19 1.84-1.19.5 0 .88.16 1.15.48zM163.75 86.03c.07.13.19.23.35.3l-.15.46c-.26-.06-.46-.17-.6-.32s-.23-.38-.28-.67c-.4.66-.96 1-1.7 1-.53 0-.95-.17-1.26-.5-.31-.33-.46-.77-.46-1.33 0-.64.21-1.13.62-1.47.41-.34 1-.51 1.75-.51h.97v-.66c0-.47-.1-.81-.29-1.04-.2-.22-.51-.33-.94-.33-.45 0-.95.12-1.52.35l-.19-.49c.65-.27 1.24-.41 1.78-.41.62 0 1.07.16 1.37.48s.45.78.45 1.39v3.13c0 .28.03.49.1.62zm-.76-.88v-1.68h-.89c-1.17 0-1.76.49-1.76 1.48 0 .43.1.76.3.98.2.23.48.34.84.34.66 0 1.17-.38 1.51-1.12zM166.73 78.59c.25.49.46 1.06.63 1.72s.25 1.41.25 2.26-.08 1.6-.25 2.26-.37 1.23-.63 1.72-.6 1.06-1.02 1.73l-.43-.28c.38-.62.69-1.17.91-1.65s.41-1.01.54-1.63.21-1.33.21-2.15c0-.82-.07-1.54-.21-2.16s-.32-1.16-.54-1.62c-.23-.46-.53-1.01-.91-1.65l.43-.28c.43.67.77 1.24 1.02 1.73z"/></g><g><path d="M229.77 74.97c.07.13.19.23.35.3l-.15.46c-.26-.06-.46-.17-.6-.32s-.23-.38-.28-.67c-.4.66-.96 1-1.7 1-.53 0-.95-.17-1.26-.5-.31-.33-.46-.77-.46-1.33 0-.64.21-1.13.62-1.47.41-.34 1-.51 1.75-.51h.97v-.66c0-.47-.1-.81-.29-1.04-.2-.22-.51-.33-.94-.33-.45 0-.95.12-1.52.35l-.19-.49c.65-.27 1.24-.41 1.78-.41.62 0 1.07.16 1.37.48s.45.78.45 1.39v3.13c0 .28.03.48.1.62zm-.76-.89V72.4h-.89c-1.17 0-1.76.49-1.76 1.48 0 .43.1.76.3.98.2.23.48.34.84.34.67 0 1.17-.38 1.51-1.12zM232.75 67.52c.25.49.46 1.06.63 1.72s.25 1.41.25 2.26-.08 1.6-.25 2.26-.37 1.23-.63 1.72-.6 1.06-1.02 1.73l-.43-.28c.38-.62.69-1.17.91-1.65s.41-1.01.54-1.63.21-1.33.21-2.15c0-.82-.07-1.54-.21-2.16s-.32-1.16-.54-1.62c-.23-.46-.53-1.01-.91-1.65l.43-.28c.43.67.77 1.24 1.02 1.73z"/></g><g><path d="M229.99 100.71c.35.54.53 1.32.53 2.36 0 1.02-.19 1.81-.56 2.37-.37.57-.89.85-1.55.85-.33 0-.62-.08-.89-.25s-.5-.38-.69-.66l-.06.77h-.57v-8.62l.66-.08v3.43c.43-.66.98-.98 1.65-.98.63.01 1.12.28 1.48.81zm-.57 4.38c.26-.44.39-1.11.39-2.01 0-.91-.12-1.57-.36-1.99-.24-.42-.6-.63-1.07-.63-.33 0-.61.09-.86.28-.24.19-.47.45-.68.77v3.26c.41.65.89.97 1.45.97.49 0 .87-.22 1.13-.65zM233.2 98.09c.25.49.46 1.06.63 1.72s.25 1.41.25 2.26-.08 1.6-.25 2.26-.37 1.23-.63 1.72-.6 1.06-1.02 1.73l-.43-.28c.38-.62.69-1.17.91-1.65s.41-1.01.54-1.63.21-1.33.21-2.15c0-.82-.07-1.54-.21-2.16s-.32-1.16-.54-1.62c-.23-.46-.53-1.01-.91-1.65l.43-.28c.42.66.77 1.24 1.02 1.73z"/></g><g><path d="M228.95 130.62c.25.1.49.26.73.47l-.33.42c-.18-.16-.37-.28-.56-.36s-.41-.12-.66-.12c-.52 0-.92.22-1.22.66-.3.44-.45 1.11-.45 2 0 .88.15 1.54.45 1.96.3.42.71.63 1.23.63.24 0 .46-.04.66-.12s.39-.21.6-.37l.33.41c-.46.44-.99.66-1.59.66-.73 0-1.31-.27-1.73-.81-.42-.54-.63-1.32-.63-2.34 0-1.01.21-1.81.64-2.38.43-.57 1-.85 1.73-.85.28 0 .55.05.8.14zM232.01 128.66c.25.49.46 1.06.63 1.72s.25 1.41.25 2.26-.08 1.6-.25 2.26-.37 1.23-.63 1.72-.6 1.06-1.02 1.73l-.43-.28c.38-.62.69-1.17.91-1.65s.41-1.01.54-1.63.21-1.33.21-2.15c0-.82-.07-1.54-.21-2.16s-.32-1.16-.54-1.62c-.23-.46-.53-1.01-.91-1.65l.43-.28c.42.66.76 1.24 1.02 1.73z"/></g><g><path d="M230.15 158.68v8.62h-.57l-.06-.91c-.18.32-.4.57-.67.76s-.59.28-.97.28c-.66 0-1.17-.28-1.54-.84-.37-.56-.56-1.33-.56-2.33 0-.64.09-1.2.27-1.69.18-.49.43-.86.76-1.13s.71-.4 1.15-.4c.62 0 1.14.27 1.53.82v-3.27l.66.09zm-1.31 7.92c.24-.19.46-.47.66-.84v-3.22c-.39-.62-.87-.94-1.43-.94-.49 0-.88.23-1.17.68s-.42 1.12-.42 1.97c0 .87.13 1.52.39 1.96.26.44.63.66 1.1.66.34.01.62-.09.87-.27zM233.25 159.22c.25.49.46 1.06.63 1.72s.25 1.41.25 2.26-.08 1.6-.25 2.26-.37 1.23-.63 1.72-.6 1.06-1.02 1.73l-.43-.28c.38-.62.69-1.17.91-1.65s.41-1.01.54-1.63.21-1.33.21-2.15c0-.82-.07-1.54-.21-2.16s-.32-1.16-.54-1.62c-.23-.46-.53-1.01-.91-1.65l.43-.28c.42.67.76 1.24 1.02 1.73z"/></g><g><path d="M25.04 106.77h-.89L20.8 99.5c.06.72.09 1.63.09 2.73v4.53h-.64v-8.02h.89l3.35 7.27c-.06-.94-.09-1.73-.09-2.37v-4.91h.64v8.04zM31.23 103.97h-3.69c.03.82.2 1.42.5 1.8.3.38.71.57 1.21.57.29 0 .54-.05.77-.14s.46-.24.7-.45l.33.41c-.27.24-.56.43-.85.55s-.62.19-.97.19c-.73 0-1.31-.27-1.73-.82-.42-.55-.63-1.32-.63-2.32 0-1.01.2-1.81.6-2.38.4-.57.95-.86 1.65-.86.69 0 1.23.26 1.59.77.37.52.55 1.25.55 2.19l-.03.49zm-.62-.7c0-.71-.12-1.26-.38-1.63-.25-.38-.62-.57-1.12-.57-.45 0-.82.19-1.1.57-.28.38-.44.99-.47 1.82h3.07v-.19zM39.41 101c.26.33.39.77.39 1.32v4.44h-.64v-4.35c0-.46-.08-.8-.24-1.03a.762.762 0 00-.67-.34c-.3 0-.58.11-.83.33-.25.22-.48.53-.71.93v4.45h-.64v-4.35c0-.46-.08-.8-.24-1.03a.762.762 0 00-.67-.34c-.3 0-.58.11-.83.33-.25.22-.48.53-.71.93v4.45h-.66v-6.13h.56l.06 1.02c.47-.76 1.03-1.15 1.69-1.15.35 0 .65.11.88.32s.4.5.49.88c.48-.8 1.06-1.19 1.72-1.19.44.02.8.19 1.05.51zM45.61 101.33c.41.55.62 1.33.62 2.35 0 1.01-.21 1.79-.63 2.36-.42.57-1 .85-1.73.85s-1.31-.28-1.72-.84c-.41-.56-.62-1.34-.62-2.35s.21-1.79.63-2.35c.42-.56.99-.84 1.73-.84.73 0 1.31.28 1.72.82zm-2.96.39c-.29.43-.43 1.1-.43 1.99 0 .88.14 1.54.43 1.98.29.44.69.66 1.22.66s.94-.22 1.23-.66c.29-.44.43-1.1.43-2 0-.88-.14-1.54-.42-1.97-.28-.43-.69-.64-1.23-.64-.53-.01-.94.21-1.23.64zM50.76 100.66c.25.1.49.26.73.47l-.33.42c-.18-.16-.37-.28-.56-.36s-.41-.12-.66-.12c-.52 0-.92.22-1.22.66-.3.44-.45 1.11-.45 2 0 .88.15 1.54.45 1.96.3.42.71.63 1.23.63.24 0 .46-.04.66-.12s.39-.21.6-.37l.33.41c-.46.44-.99.66-1.59.66-.73 0-1.31-.27-1.73-.81-.42-.54-.63-1.32-.63-2.34 0-1.01.21-1.81.64-2.38.43-.57 1-.85 1.73-.85.28-.01.55.04.8.14zM53.59 98.1c.09.09.13.21.13.34 0 .14-.04.26-.13.35s-.21.13-.35.13-.26-.04-.34-.13a.475.475 0 01-.13-.35.46.46 0 01.47-.48c.14 0 .26.05.35.14zm-.01 2.54v6.13h-.66v-6.13h.66zM56.22 105.97c.1.1.15.23.15.39 0 .09-.02.18-.05.29s-.07.22-.12.34l-.6 1.53h-.46l.43-1.7a.525.525 0 01-.27-.47c0-.16.05-.29.15-.39.1-.1.23-.15.37-.15.17.01.3.06.4.16zM63.32 100.68c.28.11.55.28.82.51l-.3.42c-.25-.19-.49-.34-.71-.43-.22-.09-.47-.13-.73-.13-.37 0-.66.09-.88.28-.22.19-.33.45-.33.77 0 .29.1.52.29.69s.55.33 1.05.5c.63.2 1.08.44 1.36.71s.41.65.41 1.13c0 .54-.19.97-.57 1.29s-.86.48-1.44.48c-.41 0-.78-.07-1.1-.21s-.62-.33-.89-.58l.36-.4c.25.21.5.37.75.47s.54.16.87.16c.4 0 .72-.11.97-.32.25-.21.37-.5.37-.88 0-.25-.04-.45-.12-.6s-.23-.29-.43-.4c-.21-.12-.51-.24-.9-.36-.59-.19-1.02-.41-1.27-.67-.25-.26-.38-.59-.38-1 0-.3.08-.58.25-.82.16-.24.39-.43.67-.57s.6-.21.94-.21c.34 0 .66.06.94.17zM68.46 106.51c-.36.26-.75.39-1.17.39-.43 0-.77-.13-1.01-.39s-.36-.62-.36-1.09v-4.24H65v-.54h.92v-1.46l.66-.08v1.55H68l-.08.54h-1.34v4.22c0 .62.26.94.79.94.27 0 .54-.09.83-.26l.26.42zM73.13 106.13c.07.13.19.23.35.3l-.15.46c-.26-.06-.46-.17-.6-.32s-.23-.38-.28-.67c-.4.66-.96 1-1.7 1-.53 0-.95-.17-1.26-.5-.31-.33-.46-.77-.46-1.33 0-.64.21-1.13.62-1.47.41-.34 1-.51 1.75-.51h.97v-.66c0-.47-.1-.81-.29-1.04-.2-.22-.51-.33-.94-.33-.45 0-.95.12-1.52.35l-.19-.49c.65-.27 1.24-.41 1.78-.41.62 0 1.07.16 1.37.48s.45.78.45 1.39v3.13c-.01.28.03.49.1.62zm-.77-.89v-1.68h-.89c-1.17 0-1.76.49-1.76 1.48 0 .43.1.76.3.98.2.23.48.34.84.34.67.01 1.17-.37 1.51-1.12zM78.96 100.64l-1.9 6.13h-.8l-1.97-6.13H75l1.66 5.55 1.62-5.55h.68zM82.06 106.79c-.21.7-.48 1.24-.81 1.6s-.82.62-1.46.77l-.08-.52c.37-.1.66-.23.87-.38s.38-.34.5-.56c.12-.23.25-.54.39-.94h-.23l-1.91-6.13H80l1.66 5.63 1.62-5.63h.68l-1.9 6.16zM85.69 105.97c.1.1.15.23.15.39 0 .09-.02.18-.05.29s-.07.22-.12.34l-.6 1.53h-.46l.43-1.7a.525.525 0 01-.27-.47c0-.16.05-.29.15-.39.1-.1.23-.15.37-.15.17.01.3.06.4.16zM91.12 98.06v8.7h-.66v-8.62l.66-.08zm3.1 2.58l-2.31 2.74 2.55 3.38h-.76l-2.52-3.35 2.31-2.78h.73zM98.19 106.51c-.36.26-.75.39-1.17.39-.43 0-.77-.13-1.01-.39s-.36-.62-.36-1.09v-4.24h-.92v-.54h.92v-1.46l.66-.08v1.55h1.42l-.08.54h-1.34v4.22c0 .62.26.94.79.94.27 0 .54-.09.83-.26l.26.42zM103.21 103.97h-3.69c.03.82.2 1.42.5 1.8.3.38.71.57 1.21.57.29 0 .54-.05.77-.14s.46-.24.7-.45l.33.41c-.27.24-.56.43-.85.55s-.62.19-.97.19c-.73 0-1.31-.27-1.73-.82-.42-.55-.63-1.32-.63-2.32 0-1.01.2-1.81.6-2.38.4-.57.95-.86 1.65-.86.69 0 1.23.26 1.59.77.37.52.55 1.25.55 2.19l-.03.49zm-.63-.7c0-.71-.12-1.26-.38-1.63-.25-.38-.62-.57-1.12-.57-.45 0-.82.19-1.1.57-.28.38-.44.99-.47 1.82h3.07v-.19zM107.67 100.58l-.13.62c-.14-.05-.3-.07-.47-.07-.38 0-.68.15-.91.45-.23.3-.42.77-.57 1.4v3.78h-.66v-6.13h.56l.05 1.31c.16-.48.36-.84.62-1.08s.58-.36.96-.36c.18.01.36.04.55.08zM112.83 103.97h-3.69c.03.82.2 1.42.5 1.8.3.38.71.57 1.21.57.29 0 .54-.05.77-.14s.46-.24.7-.45l.33.41c-.27.24-.56.43-.85.55s-.62.19-.97.19c-.73 0-1.31-.27-1.73-.82-.42-.55-.63-1.32-.63-2.32 0-1.01.2-1.81.6-2.38.4-.57.95-.86 1.65-.86.69 0 1.23.26 1.59.77.37.52.55 1.25.55 2.19 0 .17-.01.33-.03.49zm-.62-.7c0-.71-.12-1.26-.38-1.63-.25-.38-.62-.57-1.12-.57-.45 0-.82.19-1.1.57-.28.38-.44.99-.47 1.82h3.07v-.19zm-.71-5.63l.3.57-2.07.98-.21-.36 1.98-1.19zM121.23 100.64l-1.9 6.13h-.8l-1.97-6.13h.7l1.66 5.55 1.62-5.55h.69zM126.45 103.97h-3.69c.03.82.2 1.42.5 1.8.3.38.71.57 1.21.57.29 0 .54-.05.77-.14s.46-.24.7-.45l.33.41c-.27.24-.56.43-.85.55s-.62.19-.97.19c-.73 0-1.31-.27-1.73-.82-.42-.55-.63-1.32-.63-2.32 0-1.01.2-1.81.6-2.38.4-.57.95-.86 1.65-.86.69 0 1.23.26 1.59.77.37.52.55 1.25.55 2.19l-.03.49zm-.63-.7c0-.71-.12-1.26-.38-1.63-.25-.38-.62-.57-1.12-.57-.45 0-.82.19-1.1.57-.28.38-.44.99-.47 1.82h3.07v-.19zM132.14 98.15v8.62h-.57l-.06-.91c-.18.32-.4.57-.67.76s-.59.28-.97.28c-.66 0-1.17-.28-1.54-.84-.37-.56-.56-1.33-.56-2.33 0-.64.09-1.2.27-1.69.18-.49.43-.86.76-1.13s.71-.4 1.15-.4c.62 0 1.14.27 1.53.82v-3.27l.66.09zm-1.31 7.91c.24-.19.46-.47.66-.84V102c-.39-.62-.87-.94-1.43-.94-.49 0-.88.23-1.17.68s-.42 1.12-.42 1.97c0 .87.13 1.52.39 1.96.26.44.63.66 1.1.66.33.02.62-.08.87-.27zM134.55 106.61c-.18-.19-.27-.46-.27-.81v-7.66l.66-.08v7.73c0 .36.15.54.45.54.12 0 .25-.03.38-.08l.16.48c-.19.11-.4.16-.64.16-.32.01-.56-.09-.74-.28zM139.18 106.79c-.21.7-.48 1.24-.81 1.6s-.82.62-1.46.77l-.08-.52c.37-.1.66-.23.87-.38s.38-.34.5-.56c.12-.23.25-.54.39-.94h-.23l-1.91-6.13h.68l1.66 5.63 1.62-5.63h.68l-1.91 6.16zM145.94 98.06v8.7h-.66v-8.62l.66-.08zm3.1 2.58l-2.31 2.74 2.55 3.38h-.76l-2.52-3.35 2.31-2.78h.73zM157.19 101.32c.34.54.51 1.32.51 2.35 0 1.02-.18 1.81-.55 2.37-.37.57-.89.85-1.56.85-.33 0-.62-.08-.89-.23s-.49-.35-.67-.6v3.01l-.66.09v-8.53h.57l.05.88c.45-.67 1.02-1.01 1.7-1.01.66.01 1.16.28 1.5.82zm-.2 2.35c0-.89-.12-1.55-.36-1.97-.24-.42-.59-.64-1.06-.64-.32 0-.6.09-.85.28-.25.19-.48.44-.69.76v3.32c.39.61.88.91 1.45.91 1.01 0 1.51-.88 1.51-2.66zM162.12 97.78l.28.32-1.36 1.25h-.41l-1.37-1.25.29-.32 1.29 1 1.28-1zm.1 2.8l-.13.62c-.14-.05-.3-.07-.47-.07-.38 0-.68.15-.91.45-.23.3-.42.77-.57 1.4v3.78h-.66v-6.13h.56l.05 1.31c.16-.48.36-.84.62-1.08s.58-.36.96-.36c.18.01.36.04.55.08zM164.55 97.64l.3.57-2.07.98-.21-.36 1.98-1.19zm-.45 3v6.13h-.66v-6.13h.66zM169.07 100.66c.25.1.49.26.73.47l-.33.42c-.18-.16-.37-.28-.56-.36s-.41-.12-.66-.12c-.52 0-.92.22-1.22.66-.3.44-.45 1.11-.45 2 0 .88.15 1.54.45 1.96.3.42.71.63 1.23.63.24 0 .46-.04.66-.12s.39-.21.6-.37l.33.41c-.46.44-.99.66-1.59.66-.73 0-1.31-.27-1.73-.81-.42-.54-.63-1.32-.63-2.34 0-1.01.21-1.81.64-2.38.43-.57 1-.85 1.73-.85.27-.01.55.04.8.14zm.43-2.88l.28.32-1.36 1.25h-.41l-1.37-1.25.29-.32 1.29 1 1.28-1zM171.9 98.1c.09.09.13.21.13.34 0 .14-.04.26-.13.35s-.21.13-.35.13-.26-.04-.34-.13a.475.475 0 01-.13-.35.46.46 0 01.47-.48c.14 0 .26.05.35.14zm-.02 2.54v6.13h-.66v-6.13h.66zM177.7 100.99c.27.32.4.76.4 1.33v4.44h-.66v-4.35c0-.47-.08-.81-.25-1.04-.17-.22-.42-.33-.76-.33-.33 0-.64.11-.91.34-.27.23-.54.55-.79.96v4.42h-.66v-6.13h.56l.07 1.07c.48-.8 1.1-1.19 1.84-1.19.51 0 .89.16 1.16.48zM184.18 103.97h-3.69c.03.82.2 1.42.5 1.8.3.38.71.57 1.21.57.29 0 .54-.05.77-.14s.46-.24.7-.45l.33.41c-.27.24-.56.43-.85.55s-.62.19-.97.19c-.73 0-1.31-.27-1.73-.82-.42-.55-.63-1.32-.63-2.32 0-1.01.2-1.81.6-2.38.4-.57.95-.86 1.65-.86.69 0 1.23.26 1.59.77.37.52.55 1.25.55 2.19-.01.17-.01.33-.03.49zm-.83-6.19l.28.32-1.36 1.25h-.41l-1.37-1.25.29-.32 1.29 1 1.28-1zm.21 5.49c0-.71-.12-1.26-.38-1.63-.25-.38-.62-.57-1.12-.57-.45 0-.82.19-1.1.57-.28.38-.44.99-.47 1.82h3.07v-.19zM24.12 118.48h-.56l-.05-1.05c-.43.79-1.02 1.18-1.78 1.18-.49 0-.88-.16-1.16-.47s-.42-.75-.42-1.3v-4.49h.66v4.43c0 .85.35 1.28 1.05 1.28.34 0 .64-.11.9-.33.26-.22.49-.53.7-.92v-4.45h.66v6.12zM30.07 112.35l-1.9 6.13h-.8l-1.97-6.13h.7l1.66 5.55 1.62-5.55h.69zM35.28 115.68h-3.69c.03.82.2 1.42.5 1.8.3.38.71.57 1.21.57.29 0 .54-.05.77-.14s.46-.24.7-.45l.33.41c-.27.24-.56.43-.85.55s-.62.19-.97.19c-.73 0-1.31-.27-1.73-.82-.42-.55-.63-1.32-.63-2.32 0-1.01.2-1.81.6-2.38.4-.57.95-.86 1.65-.86.69 0 1.23.26 1.59.77.37.52.55 1.25.55 2.19l-.03.49zm-.62-.7c0-.71-.12-1.26-.38-1.63-.25-.38-.62-.57-1.12-.57-.45 0-.82.19-1.1.57-.28.38-.44.99-.47 1.82h3.07v-.19zM40.97 109.86v8.62h-.57l-.06-.91c-.18.32-.4.57-.67.76s-.59.28-.97.28c-.66 0-1.17-.28-1.54-.84-.37-.56-.56-1.33-.56-2.33 0-.64.09-1.2.27-1.69.18-.49.43-.86.76-1.13s.71-.4 1.15-.4c.62 0 1.14.27 1.53.82v-3.27l.66.09zm-1.31 7.92c.24-.19.46-.47.66-.84v-3.22c-.39-.62-.87-.94-1.43-.94-.49 0-.88.23-1.17.68s-.42 1.12-.42 1.97c0 .87.13 1.52.39 1.96.26.44.63.66 1.1.66.34.01.63-.08.87-.27zM47.11 115.68h-3.69c.03.82.2 1.42.5 1.8.3.38.71.57 1.21.57.29 0 .54-.05.77-.14s.46-.24.7-.45l.33.41c-.27.24-.56.43-.85.55s-.62.19-.97.19c-.73 0-1.31-.27-1.73-.82-.42-.55-.63-1.32-.63-2.32 0-1.01.2-1.81.6-2.38.4-.57.95-.86 1.65-.86.69 0 1.23.26 1.59.77.37.52.55 1.25.55 2.19l-.03.49zm-.62-.7c0-.71-.12-1.26-.38-1.63-.25-.38-.62-.57-1.12-.57-.45 0-.82.19-1.1.57-.28.38-.44.99-.47 1.82h3.07v-.19zM52.46 112.71c.27.32.4.76.4 1.33v4.44h-.66v-4.35c0-.47-.08-.81-.25-1.04-.17-.22-.42-.33-.76-.33-.33 0-.64.11-.91.34-.27.23-.54.55-.79.96v4.42h-.66v-6.13h.56l.07 1.07c.48-.8 1.1-1.19 1.84-1.19.51 0 .89.16 1.16.48zM58.94 115.68h-3.69c.03.82.2 1.42.5 1.8.3.38.71.57 1.21.57.29 0 .54-.05.77-.14s.46-.24.7-.45l.33.41c-.27.24-.56.43-.85.55s-.62.19-.97.19c-.73 0-1.31-.27-1.73-.82-.42-.55-.63-1.32-.63-2.32 0-1.01.2-1.81.6-2.38.4-.57.95-.86 1.65-.86.69 0 1.23.26 1.59.77.37.52.55 1.25.55 2.19-.01.17-.01.33-.03.49zm-.62-.7c0-.71-.12-1.26-.38-1.63-.25-.38-.62-.57-1.12-.57-.45 0-.82.19-1.1.57-.28.38-.44.99-.47 1.82h3.07v-.19zm-.72-5.62l.3.57-2.07.98-.21-.36 1.98-1.19zM67.34 112.35l-1.9 6.13h-.8l-1.97-6.13h.7l1.66 5.55 1.62-5.55h.69zM70.44 118.5c-.21.7-.48 1.24-.81 1.6s-.82.62-1.46.77l-.08-.52c.37-.1.66-.23.87-.38s.38-.34.5-.56c.12-.23.25-.54.39-.94h-.23l-1.91-6.13h.68l1.66 5.63 1.62-5.63h.68l-1.91 6.16zm.37-9.14l.3.57-2.07.98-.21-.36 1.98-1.19zM75.96 112.4c.28.11.55.28.82.51l-.3.42c-.25-.19-.49-.34-.71-.43-.22-.09-.47-.13-.73-.13-.37 0-.66.09-.88.28-.22.19-.33.45-.33.77 0 .29.1.52.29.69s.55.33 1.05.5c.63.2 1.08.44 1.36.71s.41.65.41 1.13c0 .54-.19.97-.57 1.29s-.86.48-1.44.48c-.41 0-.78-.07-1.1-.21s-.62-.33-.89-.58l.36-.4c.25.21.5.37.75.47s.54.16.87.16c.4 0 .72-.11.97-.32.25-.21.37-.5.37-.88 0-.25-.04-.45-.12-.6s-.23-.29-.43-.4c-.21-.12-.51-.24-.9-.36-.59-.19-1.02-.41-1.27-.67-.25-.26-.38-.59-.38-1 0-.3.08-.58.25-.82.16-.24.39-.43.67-.57s.6-.21.94-.21c.34 0 .66.05.94.17zm.39-2.9l.28.32-1.36 1.25h-.41l-1.37-1.25.29-.32 1.29 1 1.28-1zM82.48 115.68h-3.69c.03.82.2 1.42.5 1.8.3.38.71.57 1.21.57.29 0 .54-.05.77-.14s.46-.24.7-.45l.33.41c-.27.24-.56.43-.85.55s-.62.19-.97.19c-.73 0-1.31-.27-1.73-.82-.42-.55-.63-1.32-.63-2.32 0-1.01.2-1.81.6-2.38.4-.57.95-.86 1.65-.86.69 0 1.23.26 1.59.77.37.52.55 1.25.55 2.19 0 .17-.01.33-.03.49zm-.62-.7c0-.71-.12-1.26-.38-1.63-.25-.38-.62-.57-1.12-.57-.45 0-.82.19-1.1.57-.28.38-.44.99-.47 1.82h3.07v-.19zM84.66 117.68c.1.1.15.23.15.39 0 .09-.02.18-.05.29s-.07.22-.12.34l-.6 1.53h-.46l.43-1.7a.525.525 0 01-.27-.47c0-.16.05-.29.15-.39.1-.1.23-.15.37-.15.17.01.3.06.4.16zM92.44 112.35v.52l-3.09 5.04h3.08l-.07.57h-3.75v-.5l3.1-5.05h-2.85v-.57h3.58zM97.48 117.85c.07.13.19.23.35.3l-.15.46c-.26-.06-.46-.17-.6-.32s-.23-.38-.28-.67c-.4.66-.96 1-1.7 1-.53 0-.95-.17-1.26-.5-.31-.33-.46-.77-.46-1.33 0-.64.21-1.13.62-1.47.41-.34 1-.51 1.75-.51h.97v-.66c0-.47-.1-.81-.29-1.04-.2-.22-.51-.33-.94-.33-.45 0-.95.12-1.52.35l-.19-.49c.65-.27 1.24-.41 1.78-.41.62 0 1.07.16 1.37.48s.45.78.45 1.39v3.13c-.01.28.03.49.1.62zm-.76-.89v-1.68h-.89c-1.17 0-1.76.49-1.76 1.48 0 .43.1.76.3.98.2.23.48.34.84.34.66 0 1.16-.37 1.51-1.12zm-.41-7.6l.3.57-2.07.98-.21-.36 1.98-1.19zM100.22 109.78v8.7h-.66v-8.62l.66-.08zm3.1 2.57l-2.31 2.74 2.55 3.38h-.76l-2.52-3.35 2.31-2.78h.73zM104.95 118.33c-.18-.19-.27-.46-.27-.81v-7.66l.66-.08v7.73c0 .36.15.54.45.54.12 0 .25-.03.38-.08l.16.48c-.19.11-.4.16-.64.16-.32 0-.56-.09-.74-.28zM111.33 117.85c.07.13.19.23.35.3l-.15.46c-.26-.06-.46-.17-.6-.32s-.23-.38-.28-.67c-.4.66-.96 1-1.7 1-.53 0-.95-.17-1.26-.5-.31-.33-.46-.77-.46-1.33 0-.64.21-1.13.62-1.47.41-.34 1-.51 1.75-.51h.97v-.66c0-.47-.1-.81-.29-1.04-.2-.22-.51-.33-.94-.33-.45 0-.95.12-1.52.35l-.19-.49c.65-.27 1.24-.41 1.78-.41.62 0 1.07.16 1.37.48s.45.78.45 1.39v3.13c0 .28.03.49.1.62zm-.76-.89v-1.68h-.89c-1.17 0-1.76.49-1.76 1.48 0 .43.1.76.3.98.2.23.48.34.84.34.66 0 1.17-.37 1.51-1.12zM117.38 109.86v8.62h-.57l-.06-.91c-.18.32-.4.57-.67.76s-.59.28-.97.28c-.66 0-1.17-.28-1.54-.84-.37-.56-.56-1.33-.56-2.33 0-.64.09-1.2.27-1.69.18-.49.43-.86.76-1.13s.71-.4 1.15-.4c.62 0 1.14.27 1.53.82v-3.27l.66.09zm-1.32 7.92c.24-.19.46-.47.66-.84v-3.22c-.39-.62-.87-.94-1.43-.94-.49 0-.88.23-1.17.68s-.42 1.12-.42 1.97c0 .87.13 1.52.39 1.96.26.44.63.66 1.1.66.34.01.63-.08.87-.27zM123.19 112.71c.27.32.4.76.4 1.33v4.44h-.66v-4.35c0-.47-.08-.81-.25-1.04-.17-.22-.42-.33-.76-.33-.33 0-.64.11-.91.34-.27.23-.54.55-.79.96v4.42h-.66v-6.13h.56l.07 1.07c.48-.8 1.1-1.19 1.84-1.19.51 0 .89.16 1.16.48zM126.84 109.36l.3.57-2.07.98-.21-.36 1.98-1.19zm-.44 2.99v6.13h-.66v-6.13h.66zM135.33 113.03c.34.54.51 1.32.51 2.35 0 1.02-.18 1.81-.55 2.37-.37.57-.89.85-1.56.85-.33 0-.62-.08-.89-.23s-.49-.35-.67-.6v3.01l-.66.09v-8.53h.57l.05.88c.45-.67 1.02-1.01 1.7-1.01.66.02 1.16.29 1.5.82zm-.2 2.36c0-.89-.12-1.55-.36-1.97-.24-.42-.59-.64-1.06-.64-.32 0-.6.09-.85.28-.25.19-.48.44-.69.76v3.32c.39.61.88.91 1.45.91 1.01 0 1.51-.89 1.51-2.66zM140.26 109.5l.28.32-1.36 1.25h-.41l-1.37-1.25.29-.32 1.29 1 1.28-1zm.1 2.8l-.13.62c-.14-.05-.3-.07-.47-.07-.38 0-.68.15-.91.45-.23.3-.42.77-.57 1.4v3.78h-.66v-6.13h.56l.05 1.31c.16-.48.36-.84.62-1.08s.58-.36.96-.36c.18.01.36.03.55.08zM142.69 109.36l.3.57-2.07.98-.21-.36 1.98-1.19zm-.45 2.99v6.13h-.66v-6.13h.66zM147.21 112.37c.25.1.49.26.73.47l-.33.42c-.18-.16-.37-.28-.56-.36s-.41-.12-.66-.12c-.52 0-.92.22-1.22.66-.3.44-.45 1.11-.45 2 0 .88.15 1.54.45 1.96.3.42.71.63 1.23.63.24 0 .46-.04.66-.12s.39-.21.6-.37l.33.41c-.46.44-.99.66-1.59.66-.73 0-1.31-.27-1.73-.81-.42-.54-.63-1.32-.63-2.34 0-1.01.21-1.81.64-2.38.43-.57 1-.85 1.73-.85.27 0 .55.04.8.14zm.43-2.87l.28.32-1.36 1.25h-.41l-1.37-1.25.29-.32 1.29 1 1.28-1zM150.04 109.81c.09.09.13.21.13.34 0 .14-.04.26-.13.35s-.21.13-.35.13-.26-.04-.34-.13a.475.475 0 01-.13-.35.46.46 0 01.47-.48c.14 0 .26.05.35.14zm-.02 2.54v6.13h-.66v-6.13h.66zM155.84 112.71c.27.32.4.76.4 1.33v4.44h-.66v-4.35c0-.47-.08-.81-.25-1.04-.17-.22-.42-.33-.76-.33-.33 0-.64.11-.91.34-.27.23-.54.55-.79.96v4.42h-.66v-6.13h.56l.07 1.07c.48-.8 1.1-1.19 1.84-1.19.51 0 .89.16 1.16.48zM161.97 117.85c.07.13.19.23.35.3l-.15.46c-.26-.06-.46-.17-.6-.32s-.23-.38-.28-.67c-.4.66-.96 1-1.7 1-.53 0-.95-.17-1.26-.5-.31-.33-.46-.77-.46-1.33 0-.64.21-1.13.62-1.47.41-.34 1-.51 1.75-.51h.97v-.66c0-.47-.1-.81-.29-1.04-.2-.22-.51-.33-.94-.33-.45 0-.95.12-1.52.35l-.19-.49c.65-.27 1.24-.41 1.78-.41.62 0 1.07.16 1.37.48s.45.78.45 1.39v3.13c0 .28.03.49.1.62zm-.76-.89v-1.68h-.89c-1.17 0-1.76.49-1.76 1.48 0 .43.1.76.3.98.2.23.48.34.84.34.66 0 1.17-.37 1.51-1.12zM169.3 112.4c.28.11.55.28.82.51l-.3.42c-.25-.19-.49-.34-.71-.43-.22-.09-.47-.13-.73-.13-.37 0-.66.09-.88.28-.22.19-.33.45-.33.77 0 .29.1.52.29.69s.55.33 1.05.5c.63.2 1.08.44 1.36.71s.41.65.41 1.13c0 .54-.19.97-.57 1.29s-.86.48-1.44.48c-.41 0-.78-.07-1.1-.21s-.62-.33-.89-.58l.36-.4c.25.21.5.37.75.47s.54.16.87.16c.4 0 .72-.11.97-.32.25-.21.37-.5.37-.88 0-.25-.04-.45-.12-.6s-.23-.29-.43-.4c-.21-.12-.51-.24-.9-.36-.59-.19-1.02-.41-1.27-.67-.25-.26-.38-.59-.38-1 0-.3.08-.58.25-.82.16-.24.39-.43.67-.57s.6-.21.94-.21c.35 0 .66.05.94.17zM178.35 112.72c.26.33.39.77.39 1.32v4.44h-.64v-4.35c0-.46-.08-.8-.24-1.03a.762.762 0 00-.67-.34c-.3 0-.58.11-.83.33-.25.22-.48.53-.71.93v4.45H175v-4.35c0-.46-.08-.8-.24-1.03a.762.762 0 00-.67-.34c-.3 0-.58.11-.83.33-.25.22-.48.53-.71.93v4.45h-.66v-6.13h.56l.06 1.02c.47-.76 1.03-1.15 1.69-1.15.35 0 .65.11.88.32s.4.5.49.88c.48-.8 1.06-1.19 1.72-1.19.45.02.8.18 1.06.51zM183.62 112.3l-.13.62c-.14-.05-.3-.07-.47-.07-.38 0-.68.15-.91.45-.23.3-.42.77-.57 1.4v3.78h-.66v-6.13h.56l.05 1.31c.16-.48.36-.84.62-1.08s.58-.36.96-.36c.18.01.36.03.55.08zM187.4 118.22c-.36.26-.75.39-1.17.39-.43 0-.77-.13-1.01-.39s-.36-.62-.36-1.09v-4.24h-.92v-.54h.92v-1.46l.66-.08v1.55h1.42l-.08.54h-1.34v4.22c0 .62.26.94.79.94.27 0 .54-.09.83-.26l.26.42zM189.15 109.81c.09.09.13.21.13.34 0 .14-.04.26-.13.35s-.21.13-.35.13-.26-.04-.34-.13a.475.475 0 01-.13-.35.46.46 0 01.47-.48c.14 0 .26.05.35.14zm-.02 2.54v6.13h-.66v-6.13h.66zM20.86 130.15c0 .48-.05.86-.16 1.15-.11.29-.27.53-.47.71-.21.18-.5.37-.87.56l-.21-.47c.27-.15.48-.29.63-.44s.25-.33.33-.57c.07-.23.11-.55.11-.94v-6.09h.66v6.09zm.02-8.62c.09.09.13.21.13.34 0 .14-.04.26-.13.35s-.21.13-.35.13-.26-.04-.34-.13a.475.475 0 01-.13-.35.46.46 0 01.47-.48c.14 0 .26.04.35.14zM27 127.39h-3.69c.03.82.2 1.42.5 1.8.3.38.71.57 1.21.57.29 0 .54-.05.77-.14s.46-.24.7-.45l.33.41c-.27.24-.56.43-.85.55s-.62.19-.97.19c-.73 0-1.31-.27-1.73-.82-.42-.55-.63-1.32-.63-2.32 0-1.01.2-1.81.6-2.38.4-.57.95-.86 1.65-.86.69 0 1.23.26 1.59.77.37.52.55 1.25.55 2.19l-.03.49zm-.62-.7c0-.71-.12-1.26-.38-1.63-.25-.38-.62-.57-1.12-.57-.45 0-.82.19-1.1.57-.28.38-.44.99-.47 1.82h3.07v-.19zM35.56 130.19H35l-.05-1.05c-.43.79-1.02 1.18-1.78 1.18-.49 0-.88-.16-1.16-.47s-.42-.75-.42-1.3v-4.49h.66v4.43c0 .85.35 1.28 1.05 1.28.34 0 .64-.11.9-.33.26-.22.49-.53.7-.92v-4.45h.66v6.12zM41.51 124.07l-1.9 6.13h-.8l-1.97-6.13h.7l1.66 5.55 1.62-5.55h.69zM46.72 127.39h-3.69c.03.82.2 1.42.5 1.8.3.38.71.57 1.21.57.29 0 .54-.05.77-.14s.46-.24.7-.45l.33.41c-.27.24-.56.43-.85.55s-.62.19-.97.19c-.73 0-1.31-.27-1.73-.82-.42-.55-.63-1.32-.63-2.32 0-1.01.2-1.81.6-2.38.4-.57.95-.86 1.65-.86.69 0 1.23.26 1.59.77.37.52.55 1.25.55 2.19 0 .17-.01.34-.03.49zm-.62-.7c0-.71-.12-1.26-.38-1.63-.25-.38-.62-.57-1.12-.57-.45 0-.82.19-1.1.57-.28.38-.44.99-.47 1.82h3.07v-.19zM52.42 121.57v8.62h-.57l-.06-.91c-.18.32-.4.57-.67.76s-.59.28-.97.28c-.66 0-1.17-.28-1.54-.84-.37-.56-.56-1.33-.56-2.33 0-.64.09-1.2.27-1.69.18-.49.43-.86.76-1.13s.71-.4 1.15-.4c.62 0 1.14.27 1.53.82v-3.27l.66.09zm-1.32 7.92c.24-.19.46-.47.66-.84v-3.22c-.39-.62-.87-.94-1.43-.94-.49 0-.88.23-1.17.68s-.42 1.12-.42 1.97c0 .87.13 1.52.39 1.96.26.44.63.66 1.1.66.34.01.63-.08.87-.27zM58.55 127.39h-3.69c.03.82.2 1.42.5 1.8.3.38.71.57 1.21.57.29 0 .54-.05.77-.14s.46-.24.7-.45l.33.41c-.27.24-.56.43-.85.55s-.62.19-.97.19c-.73 0-1.31-.27-1.73-.82-.42-.55-.63-1.32-.63-2.32 0-1.01.2-1.81.6-2.38.4-.57.95-.86 1.65-.86.69 0 1.23.26 1.59.77.37.52.55 1.25.55 2.19 0 .17-.01.34-.03.49zm-.62-.7c0-.71-.12-1.26-.38-1.63-.25-.38-.62-.57-1.12-.57-.45 0-.82.19-1.1.57-.28.38-.44.99-.47 1.82h3.07v-.19zM63.9 124.42c.27.32.4.76.4 1.33v4.44h-.66v-4.35c0-.47-.08-.81-.25-1.04-.17-.22-.42-.33-.76-.33-.33 0-.64.11-.91.34-.27.23-.54.55-.79.96v4.42h-.66v-6.13h.56l.07 1.07c.48-.8 1.1-1.19 1.84-1.19.51 0 .89.16 1.16.48zM70.03 129.56c.07.13.19.23.35.3l-.15.46c-.26-.06-.46-.17-.6-.32s-.23-.38-.28-.67c-.4.66-.96 1-1.7 1-.53 0-.95-.17-1.26-.5-.31-.33-.46-.77-.46-1.33 0-.64.21-1.13.62-1.47.41-.34 1-.51 1.75-.51h.97v-.66c0-.47-.1-.81-.29-1.04-.2-.22-.51-.33-.94-.33-.45 0-.95.12-1.52.35l-.19-.49c.65-.27 1.24-.41 1.78-.41.62 0 1.07.16 1.37.48s.45.78.45 1.39v3.13c0 .28.03.49.1.62zm-.76-.89V127h-.89c-1.17 0-1.76.49-1.76 1.48 0 .43.1.76.3.98.2.23.48.34.84.34.66 0 1.17-.38 1.51-1.13zm-.41-7.6l.3.57-2.07.98-.21-.36 1.98-1.19zM75.69 130.15c0 .48-.05.86-.16 1.15-.11.29-.27.53-.47.71-.21.18-.5.37-.87.56l-.21-.47c.27-.15.48-.29.63-.44s.25-.33.33-.57c.07-.23.11-.55.11-.94v-6.09h.66v6.09zm.02-8.62c.09.09.13.21.13.34 0 .14-.04.26-.13.35s-.21.13-.35.13-.26-.04-.34-.13a.475.475 0 01-.13-.35.46.46 0 01.47-.48c.14 0 .26.04.35.14zM81.48 129.56c.07.13.19.23.35.3l-.15.46c-.26-.06-.46-.17-.6-.32s-.23-.38-.28-.67c-.4.66-.96 1-1.7 1-.53 0-.95-.17-1.26-.5-.31-.33-.46-.77-.46-1.33 0-.64.21-1.13.62-1.47.41-.34 1-.51 1.75-.51h.97v-.66c0-.47-.1-.81-.29-1.04-.2-.22-.51-.33-.94-.33-.45 0-.95.12-1.52.35l-.19-.49c.65-.27 1.24-.41 1.78-.41.62 0 1.07.16 1.37.48s.45.78.45 1.39v3.13c-.01.28.03.49.1.62zm-.77-.89V127h-.89c-1.17 0-1.76.49-1.76 1.48 0 .43.1.76.3.98.2.23.48.34.84.34.67 0 1.17-.38 1.51-1.13zM84.22 121.49v8.7h-.66v-8.62l.66-.08zm3.1 2.58l-2.31 2.74 2.55 3.38h-.76l-2.52-3.35 2.31-2.78h.73zM92.39 124.76c.41.55.62 1.33.62 2.35 0 1.01-.21 1.79-.63 2.36-.42.57-1 .85-1.73.85s-1.31-.28-1.72-.84c-.41-.56-.62-1.34-.62-2.35s.21-1.79.63-2.35c.42-.56.99-.84 1.73-.84.73 0 1.31.27 1.72.82zm-2.96.39c-.29.43-.43 1.1-.43 1.99 0 .88.14 1.54.43 1.98.29.44.69.66 1.22.66s.94-.22 1.23-.66c.29-.44.43-1.1.43-2 0-.88-.14-1.54-.42-1.97-.28-.43-.69-.64-1.23-.64-.53-.01-.94.21-1.23.64zM101.51 124.75c.34.54.51 1.32.51 2.35 0 1.02-.18 1.81-.55 2.37-.37.57-.89.85-1.56.85-.33 0-.62-.08-.89-.23s-.49-.35-.67-.6v3.01l-.66.09v-8.53h.57l.05.88c.45-.67 1.02-1.01 1.7-1.01.66.01 1.16.28 1.5.82zm-.19 2.35c0-.89-.12-1.55-.36-1.97-.24-.42-.59-.64-1.06-.64-.32 0-.6.09-.85.28-.25.19-.48.44-.69.76v3.32c.39.61.88.91 1.45.91 1 0 1.51-.89 1.51-2.66zM107.47 124.76c.41.55.62 1.33.62 2.35 0 1.01-.21 1.79-.63 2.36-.42.57-1 .85-1.73.85s-1.31-.28-1.72-.84c-.41-.56-.62-1.34-.62-2.35s.21-1.79.63-2.35c.42-.56.99-.84 1.73-.84.73 0 1.3.27 1.72.82zm-2.97.39c-.29.43-.43 1.1-.43 1.99 0 .88.14 1.54.43 1.98.29.44.69.66 1.22.66s.94-.22 1.23-.66c.29-.44.43-1.1.43-2 0-.88-.14-1.54-.42-1.97-.28-.43-.69-.64-1.23-.64-.53-.01-.94.21-1.23.64zM112.19 124.11c.28.11.55.28.82.51l-.3.42c-.25-.19-.49-.34-.71-.43-.22-.09-.47-.13-.73-.13-.37 0-.66.09-.88.28-.22.19-.33.45-.33.77 0 .29.1.52.29.69s.55.33 1.05.5c.63.2 1.08.44 1.36.71s.41.65.41 1.13c0 .54-.19.97-.57 1.29s-.86.48-1.44.48c-.41 0-.78-.07-1.1-.21s-.62-.33-.89-.58l.36-.4c.25.21.5.37.75.47s.54.16.87.16c.4 0 .72-.11.97-.32.25-.21.37-.5.37-.88 0-.25-.04-.45-.12-.6s-.23-.29-.43-.4c-.21-.12-.51-.24-.9-.36-.59-.19-1.02-.41-1.27-.67-.25-.26-.38-.59-.38-1 0-.3.08-.58.25-.82.16-.24.39-.43.67-.57s.6-.21.94-.21c.34 0 .66.06.94.17zM114.99 130.04c-.18-.19-.27-.46-.27-.81v-7.66l.66-.08v7.73c0 .36.15.54.45.54.12 0 .25-.03.38-.08l.16.48c-.19.11-.4.16-.64.16-.32 0-.56-.09-.74-.28zM121.72 127.39h-3.69c.03.82.2 1.42.5 1.8.3.38.71.57 1.21.57.29 0 .54-.05.77-.14s.46-.24.7-.45l.33.41c-.27.24-.56.43-.85.55s-.62.19-.97.19c-.73 0-1.31-.27-1.73-.82-.42-.55-.63-1.32-.63-2.32 0-1.01.2-1.81.6-2.38.4-.57.95-.86 1.65-.86.69 0 1.23.26 1.59.77.37.52.55 1.25.55 2.19 0 .17-.01.34-.03.49zm-.62-.7c0-.71-.12-1.26-.38-1.63-.25-.38-.62-.57-1.12-.57-.45 0-.82.19-1.1.57-.28.38-.44.99-.47 1.82h3.07v-.19zM127.42 121.57v8.62h-.57l-.06-.91c-.18.32-.4.57-.67.76s-.59.28-.97.28c-.66 0-1.17-.28-1.54-.84-.37-.56-.56-1.33-.56-2.33 0-.64.09-1.2.27-1.69.18-.49.43-.86.76-1.13s.71-.4 1.15-.4c.62 0 1.14.27 1.53.82v-3.27l.66.09zm-1.32 7.92c.24-.19.46-.47.66-.84v-3.22c-.39-.62-.87-.94-1.43-.94-.49 0-.88.23-1.17.68s-.42 1.12-.42 1.97c0 .87.13 1.52.39 1.96.26.44.63.66 1.1.66.34.01.63-.08.87-.27zM133.23 124.42c.27.32.4.76.4 1.33v4.44h-.66v-4.35c0-.47-.08-.81-.25-1.04-.17-.22-.42-.33-.76-.33-.33 0-.64.11-.91.34-.27.23-.54.55-.79.96v4.42h-.66v-6.13h.56l.07 1.07c.48-.8 1.1-1.19 1.84-1.19.51 0 .89.16 1.16.48zM136.88 121.07l.3.57-2.07.98-.21-.36 1.98-1.19zm-.45 3v6.13h-.66v-6.13h.66z"/></g><g><path d="M20.93 190v8.02h-.68V190h.68zM23.92 190v8.02h-.68V190h.68zM26.6 197.23c.1.11.15.23.15.38s-.05.28-.15.38-.23.16-.39.16-.28-.05-.38-.16-.15-.23-.15-.38.05-.28.15-.38.22-.16.38-.16.29.06.39.16zM32.26 196.96c0 .46-.06.84-.17 1.14s-.29.54-.53.74-.56.39-.98.57l-.18-.49c.33-.16.57-.33.74-.49s.28-.36.34-.59.09-.53.09-.91V190h.68v6.96zM35.12 189.35c.09.09.13.21.13.34 0 .14-.04.26-.13.35s-.21.13-.35.13-.26-.04-.34-.13a.475.475 0 01-.13-.35.46.46 0 01.47-.48c.14 0 .26.05.35.14zm-.02 2.55v6.13h-.66v-6.13h.66zM40.92 192.25c.27.32.4.76.4 1.33v4.44h-.66v-4.35c0-.47-.08-.81-.25-1.04-.17-.22-.42-.33-.76-.33-.33 0-.64.11-.91.34-.27.23-.54.55-.79.96v4.42h-.66v-6.13h.56l.07 1.07c.48-.8 1.1-1.19 1.84-1.19.51 0 .89.16 1.16.48zM47.4 195.22h-3.69c.03.82.2 1.42.5 1.8.3.38.71.57 1.21.57.29 0 .54-.05.77-.14s.46-.24.7-.45l.33.41c-.27.24-.56.43-.85.55s-.62.19-.97.19c-.73 0-1.31-.27-1.73-.82-.42-.55-.63-1.32-.63-2.32 0-1.01.2-1.81.6-2.38.4-.57.95-.86 1.65-.86.69 0 1.23.26 1.59.77.37.52.55 1.25.55 2.19 0 .17-.01.34-.03.49zm-.62-.7c0-.71-.12-1.26-.38-1.63-.25-.38-.62-.57-1.12-.57-.45 0-.82.19-1.1.57-.28.38-.44.99-.47 1.82h3.07v-.19zm-.71-5.62l.3.57-2.07.98-.21-.36 1.98-1.19zM55.06 191.9v.52l-3.09 5.04h3.08l-.07.57h-3.75v-.5l3.1-5.05h-2.85v-.57h3.58zM60.1 197.39c.07.13.19.23.35.3l-.15.46c-.26-.06-.46-.17-.6-.32s-.23-.38-.28-.67c-.4.66-.96 1-1.7 1-.53 0-.95-.17-1.26-.5-.31-.33-.46-.77-.46-1.33 0-.64.21-1.13.62-1.47.41-.34 1-.51 1.75-.51h.97v-.66c0-.47-.1-.81-.29-1.04-.2-.22-.51-.33-.94-.33-.45 0-.95.12-1.52.35l-.19-.49c.65-.27 1.24-.41 1.78-.41.62 0 1.07.16 1.37.48s.45.78.45 1.39v3.13c0 .28.03.49.1.62zm-.76-.89v-1.68h-.89c-1.17 0-1.76.49-1.76 1.48 0 .43.1.76.3.98.2.23.48.34.84.34.66 0 1.17-.37 1.51-1.12zm-.41-7.6l.3.57-2.07.98-.21-.36 1.98-1.19zM65.93 191.9l-1.9 6.13h-.8l-1.97-6.13h.7l1.66 5.55 1.62-5.55h.69zM70.8 197.39c.07.13.19.23.35.3l-.15.46c-.26-.06-.46-.17-.6-.32s-.23-.38-.28-.67c-.4.66-.96 1-1.7 1-.53 0-.95-.17-1.26-.5-.31-.33-.46-.77-.46-1.33 0-.64.21-1.13.62-1.47.41-.34 1-.51 1.75-.51h.97v-.66c0-.47-.1-.81-.29-1.04-.2-.22-.51-.33-.94-.33-.45 0-.95.12-1.52.35l-.19-.49c.65-.27 1.24-.41 1.78-.41.62 0 1.07.16 1.37.48s.45.78.45 1.39v3.13c-.01.28.03.49.1.62zm-.77-.89v-1.68h-.89c-1.17 0-1.76.49-1.76 1.48 0 .43.1.76.3.98.2.23.48.34.84.34.67 0 1.17-.37 1.51-1.12zM75.89 191.9v.52l-3.09 5.04h3.08l-.07.57h-3.75v-.5l3.1-5.05h-2.85v-.57h3.58zm-.54-2.86l.28.32-1.36 1.25h-.41l-1.37-1.25.29-.32 1.29 1 1.28-1zM80.96 192.25c.27.32.4.76.4 1.33v4.44h-.66v-4.35c0-.47-.08-.81-.25-1.04-.17-.22-.42-.33-.76-.33-.33 0-.64.11-.91.34-.27.23-.54.55-.79.96v4.42h-.66v-6.13h.56l.07 1.07c.48-.8 1.1-1.19 1.84-1.19.51 0 .89.16 1.16.48zM87.44 195.22h-3.69c.03.82.2 1.42.5 1.8.3.38.71.57 1.21.57.29 0 .54-.05.77-.14s.46-.24.7-.45l.33.41c-.27.24-.56.43-.85.55s-.62.19-.97.19c-.73 0-1.31-.27-1.73-.82-.42-.55-.63-1.32-.63-2.32 0-1.01.2-1.81.6-2.38.4-.57.95-.86 1.65-.86.69 0 1.23.26 1.59.77.37.52.55 1.25.55 2.19-.01.17-.01.34-.03.49zm-.62-.7c0-.71-.12-1.26-.38-1.63-.25-.38-.62-.57-1.12-.57-.45 0-.82.19-1.1.57-.28.38-.44.99-.47 1.82h3.07v-.19zm-.72-5.62l.3.57-2.07.98-.21-.36 1.98-1.19zM94.42 191.94c.28.11.55.28.82.51l-.3.42c-.25-.19-.49-.34-.71-.43-.22-.09-.47-.13-.73-.13-.37 0-.66.09-.88.28-.22.19-.33.45-.33.77 0 .29.1.52.29.69s.55.33 1.05.5c.63.2 1.08.44 1.36.71s.41.65.41 1.13c0 .54-.19.97-.57 1.29s-.86.48-1.44.48c-.41 0-.78-.07-1.1-.21s-.62-.33-.89-.58l.36-.4c.25.21.5.37.75.47s.54.16.87.16c.4 0 .72-.11.97-.32.25-.21.37-.5.37-.88 0-.25-.04-.45-.12-.6s-.23-.29-.43-.4c-.21-.12-.51-.24-.9-.36-.59-.19-1.02-.41-1.27-.67-.25-.26-.38-.59-.38-1 0-.3.08-.58.25-.82.16-.24.39-.43.67-.57s.6-.21.94-.21c.34 0 .66.05.94.17zM99.56 197.77c-.36.26-.75.39-1.17.39-.43 0-.77-.13-1.01-.39s-.36-.62-.36-1.09v-4.24h-.92v-.54h.92v-1.46l.66-.08v1.55h1.42l-.08.54h-1.34v4.22c0 .62.26.94.79.94.27 0 .54-.09.83-.26l.26.42zM104.23 197.39c.07.13.19.23.35.3l-.15.46c-.26-.06-.46-.17-.6-.32s-.23-.38-.28-.67c-.4.66-.96 1-1.7 1-.53 0-.95-.17-1.26-.5-.31-.33-.46-.77-.46-1.33 0-.64.21-1.13.62-1.47.41-.34 1-.51 1.75-.51h.97v-.66c0-.47-.1-.81-.29-1.04-.2-.22-.51-.33-.94-.33-.45 0-.95.12-1.52.35l-.19-.49c.65-.27 1.24-.41 1.78-.41.62 0 1.07.16 1.37.48s.45.78.45 1.39v3.13c-.01.28.03.49.1.62zm-.77-.89v-1.68h-.89c-1.17 0-1.76.49-1.76 1.48 0 .43.1.76.3.98.2.23.48.34.84.34.67 0 1.17-.37 1.51-1.12zM110.06 191.9l-1.9 6.13h-.8l-1.97-6.13h.7l1.66 5.55 1.62-5.55h.69zM113.16 198.05c-.21.7-.48 1.24-.81 1.6s-.82.62-1.46.77l-.08-.52c.37-.1.66-.23.87-.38s.38-.34.5-.56c.12-.23.25-.54.39-.94h-.23l-1.91-6.13h.68l1.66 5.63 1.62-5.63h.68l-1.91 6.16zM122.88 192.25c.27.32.4.76.4 1.33v4.44h-.66v-4.35c0-.47-.08-.81-.25-1.04-.17-.22-.42-.33-.76-.33-.33 0-.64.11-.91.34-.27.23-.54.55-.79.96v4.42h-.66v-6.13h.56l.07 1.07c.48-.8 1.1-1.19 1.84-1.19.51 0 .89.16 1.16.48zM129.36 195.22h-3.69c.03.82.2 1.42.5 1.8.3.38.71.57 1.21.57.29 0 .54-.05.77-.14s.46-.24.7-.45l.33.41c-.27.24-.56.43-.85.55s-.62.19-.97.19c-.73 0-1.31-.27-1.73-.82-.42-.55-.63-1.32-.63-2.32 0-1.01.2-1.81.6-2.38.4-.57.95-.86 1.65-.86.69 0 1.23.26 1.59.77.37.52.55 1.25.55 2.19 0 .17-.01.34-.03.49zm-.62-.7c0-.71-.12-1.26-.38-1.63-.25-.38-.62-.57-1.12-.57-.45 0-.82.19-1.1.57-.28.38-.44.99-.47 1.82h3.07v-.19zM134.89 192.57c.35.54.53 1.32.53 2.36 0 1.02-.19 1.81-.56 2.37-.37.57-.89.85-1.55.85-.33 0-.62-.08-.89-.25s-.5-.38-.69-.66l-.06.77h-.57v-8.62l.66-.08v3.43c.43-.66.98-.98 1.65-.98.63.01 1.13.28 1.48.81zm-.57 4.37c.26-.44.39-1.11.39-2.01 0-.91-.12-1.57-.36-1.99-.24-.42-.6-.63-1.07-.63-.33 0-.61.09-.86.28-.24.19-.47.45-.68.77v3.26c.41.65.89.97 1.45.97.5.01.87-.21 1.13-.65zM140.87 192.59c.41.55.62 1.33.62 2.35 0 1.01-.21 1.79-.63 2.36-.42.57-1 .85-1.73.85s-1.31-.28-1.72-.84c-.41-.56-.62-1.34-.62-2.35s.21-1.79.63-2.35c.42-.56.99-.84 1.73-.84.72 0 1.3.27 1.72.82zm-2.97.39c-.29.43-.43 1.1-.43 1.99 0 .88.14 1.54.43 1.98.29.44.69.66 1.22.66s.94-.22 1.23-.66c.29-.44.43-1.1.43-2 0-.88-.14-1.54-.42-1.97-.28-.43-.69-.64-1.23-.64-.53-.01-.94.21-1.23.64zM149.18 191.9v.52l-3.09 5.04h3.08l-.07.57h-3.75v-.5l3.1-5.05h-2.85v-.57h3.58zM157.09 192.26c.26.33.39.77.39 1.32v4.44h-.64v-4.35c0-.46-.08-.8-.24-1.03a.762.762 0 00-.67-.34c-.3 0-.58.11-.83.33-.25.22-.48.53-.71.93v4.45h-.64v-4.35c0-.46-.08-.8-.24-1.03a.762.762 0 00-.67-.34c-.3 0-.58.11-.83.33-.25.22-.48.53-.71.93V198h-.66v-6.13h.56l.06 1.02c.47-.76 1.03-1.15 1.69-1.15.35 0 .65.11.88.32s.4.5.49.88c.48-.8 1.06-1.19 1.72-1.19.44.02.79.18 1.05.51zM163.57 195.22h-3.69c.03.82.2 1.42.5 1.8.3.38.71.57 1.21.57.29 0 .54-.05.77-.14s.46-.24.7-.45l.33.41c-.27.24-.56.43-.85.55s-.62.19-.97.19c-.73 0-1.31-.27-1.73-.82-.42-.55-.63-1.32-.63-2.32 0-1.01.2-1.81.6-2.38.4-.57.95-.86 1.65-.86.69 0 1.23.26 1.59.77.37.52.55 1.25.55 2.19l-.03.49zm-.84-6.18l.28.32-1.36 1.25h-.41l-1.37-1.25.29-.32 1.29 1 1.28-1zm.22 5.48c0-.71-.12-1.26-.38-1.63-.25-.38-.62-.57-1.12-.57-.45 0-.82.19-1.1.57-.28.38-.44.99-.47 1.82h3.07v-.19zM168.91 192.25c.27.32.4.76.4 1.33v4.44h-.66v-4.35c0-.47-.08-.81-.25-1.04-.17-.22-.42-.33-.76-.33-.33 0-.64.11-.91.34-.27.23-.54.55-.79.96v4.42h-.66v-6.13h.56l.07 1.07c.48-.8 1.1-1.19 1.84-1.19.51 0 .89.16 1.16.48zM173.29 198.05c-.21.7-.48 1.24-.81 1.6s-.82.62-1.46.77l-.08-.52c.37-.1.66-.23.87-.38s.38-.34.5-.56c.12-.23.25-.54.39-.94h-.23l-1.91-6.13h.68l1.66 5.63 1.62-5.63h.68l-1.91 6.16zM176.91 197.23c.1.1.15.23.15.39 0 .09-.02.18-.05.29s-.07.22-.12.34l-.6 1.53h-.46l.43-1.7a.525.525 0 01-.27-.47c0-.16.05-.29.15-.39.1-.1.23-.15.37-.15.18 0 .31.06.4.16zM182.34 189.32v8.7h-.66v-8.62l.66-.08zm3.11 2.58l-2.31 2.74 2.55 3.38h-.76l-2.52-3.35 2.31-2.78h.73zM189.42 197.77c-.36.26-.75.39-1.17.39-.43 0-.77-.13-1.01-.39s-.36-.62-.36-1.09v-4.24h-.92v-.54h.92v-1.46l.66-.08v1.55h1.42l-.08.54h-1.34v4.22c0 .62.26.94.79.94.27 0 .54-.09.83-.26l.26.42zM194.43 195.22h-3.69c.03.82.2 1.42.5 1.8.3.38.71.57 1.21.57.29 0 .54-.05.77-.14s.46-.24.7-.45l.33.41c-.27.24-.56.43-.85.55s-.62.19-.97.19c-.73 0-1.31-.27-1.73-.82-.42-.55-.63-1.32-.63-2.32 0-1.01.2-1.81.6-2.38.4-.57.95-.86 1.65-.86.69 0 1.23.26 1.59.77.37.52.55 1.25.55 2.19-.01.17-.01.34-.03.49zm-.62-.7c0-.71-.12-1.26-.38-1.63-.25-.38-.62-.57-1.12-.57-.45 0-.82.19-1.1.57-.28.38-.44.99-.47 1.82h3.07v-.19zM198.89 191.84l-.13.62c-.14-.05-.3-.07-.47-.07-.38 0-.68.15-.91.45-.23.3-.42.77-.57 1.4v3.78h-.66v-6.13h.56l.05 1.31c.16-.48.36-.84.62-1.08s.58-.36.96-.36c.19.01.37.03.55.08zM204.06 195.22h-3.69c.03.82.2 1.42.5 1.8.3.38.71.57 1.21.57.29 0 .54-.05.77-.14s.46-.24.7-.45l.33.41c-.27.24-.56.43-.85.55s-.62.19-.97.19c-.73 0-1.31-.27-1.73-.82-.42-.55-.63-1.32-.63-2.32 0-1.01.2-1.81.6-2.38.4-.57.95-.86 1.65-.86.69 0 1.23.26 1.59.77.37.52.55 1.25.55 2.19l-.03.49zm-.62-.7c0-.71-.12-1.26-.38-1.63-.25-.38-.62-.57-1.12-.57-.45 0-.82.19-1.1.57-.28.38-.44.99-.47 1.82h3.07v-.19zm-.72-5.62l.3.57-2.07.98-.21-.36 1.98-1.19zM24.02 204.29c.34.54.51 1.32.51 2.35 0 1.02-.18 1.81-.55 2.37-.37.57-.89.85-1.56.85-.33 0-.62-.08-.89-.23s-.49-.35-.67-.6v3.01l-.66.09v-8.53h.57l.05.88c.45-.67 1.02-1.01 1.7-1.01.66.01 1.16.28 1.5.82zm-.2 2.35c0-.89-.12-1.55-.36-1.97-.24-.42-.59-.64-1.06-.64-.32 0-.6.09-.85.28-.25.19-.48.44-.69.76v3.32c.39.61.88.91 1.45.91 1.01 0 1.51-.88 1.51-2.66zM28.95 200.75l.28.32-1.36 1.25h-.41l-1.37-1.25.29-.32 1.29 1 1.28-1zm.1 2.8l-.13.62c-.14-.05-.3-.07-.47-.07-.38 0-.68.15-.91.45-.23.3-.42.77-.57 1.4v3.78h-.66v-6.13h.56l.05 1.31c.16-.48.36-.84.62-1.08s.58-.36.96-.36c.18.01.36.04.55.08zM30.95 201.07c.09.09.13.21.13.34 0 .14-.04.26-.13.35s-.21.13-.35.13-.26-.04-.34-.13a.475.475 0 01-.13-.35.46.46 0 01.47-.48c.14 0 .26.05.35.14zm-.02 2.54v6.13h-.66v-6.13h.66zM35.47 203.65c.28.11.55.28.82.51l-.3.42c-.25-.19-.49-.34-.71-.43-.22-.09-.47-.13-.73-.13-.37 0-.66.09-.88.28-.22.19-.33.45-.33.77 0 .29.1.52.29.69s.55.33 1.05.5c.63.2 1.08.44 1.36.71s.41.65.41 1.13c0 .54-.19.97-.57 1.29s-.86.48-1.44.48c-.41 0-.78-.07-1.1-.21s-.62-.33-.89-.58l.36-.4c.25.21.5.37.75.47s.54.16.87.16c.4 0 .72-.11.97-.32.25-.21.37-.5.37-.88 0-.25-.04-.45-.12-.6s-.23-.29-.43-.4c-.21-.12-.51-.24-.9-.36-.59-.19-1.02-.41-1.27-.67-.25-.26-.38-.59-.38-1 0-.3.08-.58.25-.82.16-.24.39-.43.67-.57s.6-.21.94-.21c.34 0 .66.06.94.17zM41.87 204.29c.34.54.51 1.32.51 2.35 0 1.02-.18 1.81-.55 2.37-.37.57-.89.85-1.56.85-.33 0-.62-.08-.89-.23s-.49-.35-.67-.6v3.01l-.66.09v-8.53h.57l.05.88c.45-.67 1.02-1.01 1.7-1.01.66.01 1.16.28 1.5.82zm-.2 2.35c0-.89-.12-1.55-.36-1.97-.24-.42-.59-.64-1.06-.64-.32 0-.6.09-.85.28-.25.19-.48.44-.69.76v3.32c.39.61.88.91 1.45.91 1.01 0 1.51-.88 1.51-2.66zM48.11 206.94h-3.69c.03.82.2 1.42.5 1.8.3.38.71.57 1.21.57.29 0 .54-.05.77-.14s.46-.24.7-.45l.33.41c-.27.24-.56.43-.85.55s-.62.19-.97.19c-.73 0-1.31-.27-1.73-.82-.42-.55-.63-1.32-.63-2.32 0-1.01.2-1.81.6-2.38.4-.57.95-.86 1.65-.86.69 0 1.23.26 1.59.77.37.52.55 1.25.55 2.19l-.03.49zm-.84-6.19l.28.32-1.36 1.25h-.41l-1.37-1.25.29-.32 1.29 1 1.28-1zm.21 5.48c0-.71-.12-1.26-.38-1.63-.25-.38-.62-.57-1.12-.57-.45 0-.82.19-1.1.57-.28.38-.44.99-.47 1.82h3.07v-.19zM50.05 209.58c-.18-.19-.27-.46-.27-.81v-7.66l.66-.08v7.73c0 .36.15.54.45.54.12 0 .25-.03.38-.08l.16.48c-.19.11-.4.16-.64.16-.32.01-.56-.09-.74-.28zM54.68 209.76c-.21.7-.48 1.24-.81 1.6s-.82.62-1.46.77l-.08-.52c.37-.1.66-.23.87-.38s.38-.34.5-.56c.12-.23.25-.54.39-.94h-.23l-1.91-6.13h.68l1.66 5.63 1.62-5.63h.68l-1.91 6.16zM61.43 201.03v8.7h-.66v-8.62l.66-.08zm3.11 2.58l-2.31 2.74 2.55 3.38h-.76l-2.52-3.35 2.31-2.78h.73zM69.89 206.94H66.2c.03.82.2 1.42.5 1.8.3.38.71.57 1.21.57.29 0 .54-.05.77-.14s.46-.24.7-.45l.33.41c-.27.24-.56.43-.85.55s-.62.19-.97.19c-.73 0-1.31-.27-1.73-.82-.42-.55-.63-1.32-.63-2.32 0-1.01.2-1.81.6-2.38.4-.57.95-.86 1.65-.86.69 0 1.23.26 1.59.77.37.52.55 1.25.55 2.19 0 .17-.01.33-.03.49zm-.62-.71c0-.71-.12-1.26-.38-1.63-.25-.38-.62-.57-1.12-.57-.45 0-.82.19-1.1.57-.28.38-.44.99-.47 1.82h3.07v-.19zM76.87 203.65c.28.11.55.28.82.51l-.3.42c-.25-.19-.49-.34-.71-.43-.22-.09-.47-.13-.73-.13-.37 0-.66.09-.88.28-.22.19-.33.45-.33.77 0 .29.1.52.29.69s.55.33 1.05.5c.63.2 1.08.44 1.36.71s.41.65.41 1.13c0 .54-.19.97-.57 1.29s-.86.48-1.44.48c-.41 0-.78-.07-1.1-.21s-.62-.33-.89-.58l.36-.4c.25.21.5.37.75.47s.54.16.87.16c.4 0 .72-.11.97-.32.25-.21.37-.5.37-.88 0-.25-.04-.45-.12-.6s-.23-.29-.43-.4c-.21-.12-.51-.24-.9-.36-.59-.19-1.02-.41-1.27-.67-.25-.26-.38-.59-.38-1 0-.3.08-.58.25-.82.16-.24.39-.43.67-.57s.6-.21.94-.21c.35 0 .66.06.94.17zM85.92 203.97c.26.33.39.77.39 1.32v4.44h-.64v-4.35c0-.46-.08-.8-.24-1.03a.762.762 0 00-.67-.34c-.3 0-.58.11-.83.33-.25.22-.48.53-.71.93v4.45h-.64v-4.35c0-.46-.08-.8-.24-1.03a.762.762 0 00-.67-.34c-.3 0-.58.11-.83.33-.25.22-.48.53-.71.93v4.45h-.66v-6.13h.56l.06 1.02c.47-.76 1.03-1.15 1.69-1.15.35 0 .65.11.88.32s.4.5.49.88c.48-.8 1.06-1.19 1.72-1.19.44.02.79.19 1.05.51zM91.19 203.55l-.13.62c-.14-.05-.3-.07-.47-.07-.38 0-.68.15-.91.45-.23.3-.42.77-.57 1.4v3.78h-.66v-6.13h.56l.05 1.31c.16-.48.36-.84.62-1.08s.58-.36.96-.36c.18.01.36.04.55.08zM94.97 209.48c-.36.26-.75.39-1.17.39-.43 0-.77-.13-1.01-.39s-.36-.62-.36-1.09v-4.24h-.93v-.54h.92v-1.46l.66-.08v1.55h1.42l-.08.54h-1.34v4.22c0 .62.26.94.79.94.27 0 .54-.09.83-.26l.27.42zM96.72 201.07c.09.09.13.21.13.34 0 .14-.04.26-.13.35s-.21.13-.35.13-.26-.04-.34-.13a.475.475 0 01-.13-.35.46.46 0 01.47-.48c.14 0 .26.05.35.14zm-.02 2.54v6.13h-.66v-6.13h.66zM99.34 208.94c.1.1.15.23.15.39 0 .09-.02.18-.05.29s-.07.22-.12.34l-.6 1.53h-.46l.43-1.7a.525.525 0 01-.27-.47c0-.16.05-.29.15-.39.1-.1.23-.15.37-.15.18.01.31.06.4.16zM107.7 209.1c.07.13.19.23.35.3l-.15.46c-.26-.06-.46-.17-.6-.32s-.23-.38-.28-.67c-.4.66-.96 1-1.7 1-.53 0-.95-.17-1.26-.5-.31-.33-.46-.77-.46-1.33 0-.64.21-1.13.62-1.47.41-.34 1-.51 1.75-.51h.97v-.66c0-.47-.1-.81-.29-1.04-.2-.22-.51-.33-.94-.33-.45 0-.95.12-1.52.35l-.19-.49c.65-.27 1.24-.41 1.78-.41.62 0 1.07.16 1.37.48s.45.78.45 1.39v3.13c0 .28.03.49.1.62zm-.76-.89v-1.68h-.89c-1.17 0-1.76.49-1.76 1.48 0 .43.1.76.3.98.2.23.48.34.84.34.66.01 1.17-.37 1.51-1.12zM110 209.58c-.18-.19-.27-.46-.27-.81v-7.66l.66-.08v7.73c0 .36.15.54.45.54.12 0 .25-.03.38-.08l.16.48c-.19.11-.4.16-.64.16-.32.01-.56-.09-.74-.28zM116.73 206.94h-3.69c.03.82.2 1.42.5 1.8.3.38.71.57 1.21.57.29 0 .54-.05.77-.14s.46-.24.7-.45l.33.41c-.27.24-.56.43-.85.55s-.62.19-.97.19c-.73 0-1.31-.27-1.73-.82-.42-.55-.63-1.32-.63-2.32 0-1.01.2-1.81.6-2.38.4-.57.95-.86 1.65-.86.69 0 1.23.26 1.59.77.37.52.55 1.25.55 2.19 0 .17-.01.33-.03.49zm-.62-.71c0-.71-.12-1.26-.38-1.63-.25-.38-.62-.57-1.12-.57-.45 0-.82.19-1.1.57-.28.38-.44.99-.47 1.82h3.07v-.19zM125 203.96c.27.32.4.76.4 1.33v4.44h-.66v-4.35c0-.47-.08-.81-.25-1.04-.17-.22-.42-.33-.76-.33-.33 0-.64.11-.91.34-.27.23-.54.55-.79.96v4.42h-.66v-6.13h.56l.07 1.07c.48-.8 1.1-1.19 1.84-1.19.51 0 .89.16 1.16.48zM131.48 206.94h-3.69c.03.82.2 1.42.5 1.8.3.38.71.57 1.21.57.29 0 .54-.05.77-.14s.46-.24.7-.45l.33.41c-.27.24-.56.43-.85.55s-.62.19-.97.19c-.73 0-1.31-.27-1.73-.82-.42-.55-.63-1.32-.63-2.32 0-1.01.2-1.81.6-2.38.4-.57.95-.86 1.65-.86.69 0 1.23.26 1.59.77.37.52.55 1.25.55 2.19-.01.17-.01.33-.03.49zm-.62-.71c0-.71-.12-1.26-.38-1.63-.25-.38-.62-.57-1.12-.57-.45 0-.82.19-1.1.57-.28.38-.44.99-.47 1.82h3.07v-.19zM136.96 203.61l-1.9 6.13h-.8l-1.97-6.13h.7l1.66 5.55 1.62-5.55h.69zM141.25 203.61v.52l-3.09 5.04h3.08l-.07.57h-3.75v-.5l3.1-5.05h-2.85v-.57h3.58zM145.25 209.48c-.36.26-.75.39-1.17.39-.43 0-.77-.13-1.01-.39s-.36-.62-.36-1.09v-4.24h-.92v-.54h.92v-1.46l.66-.08v1.55h1.42l-.08.54h-1.34v4.22c0 .62.26.94.79.94.27 0 .54-.09.83-.26l.26.42zM149.92 209.1c.07.13.19.23.35.3l-.15.46c-.26-.06-.46-.17-.6-.32s-.23-.38-.28-.67c-.4.66-.96 1-1.7 1-.53 0-.95-.17-1.26-.5-.31-.33-.46-.77-.46-1.33 0-.64.21-1.13.62-1.47.41-.34 1-.51 1.75-.51h.97v-.66c0-.47-.1-.81-.29-1.04-.2-.22-.51-.33-.94-.33-.45 0-.95.12-1.52.35l-.19-.49c.65-.27 1.24-.41 1.78-.41.62 0 1.07.16 1.37.48s.45.78.45 1.39v3.13c-.01.28.03.49.1.62zm-.76-.89v-1.68h-.89c-1.17 0-1.76.49-1.76 1.48 0 .43.1.76.3.98.2.23.48.34.84.34.66.01 1.16-.37 1.51-1.12zM155.62 203.97c.27.32.4.77.4 1.33v4.44h-.66v-4.35c0-.91-.34-1.37-1.02-1.37-.33 0-.64.11-.91.34-.27.23-.53.55-.78.96v4.42H152v-8.62l.66-.08v3.61c.24-.37.51-.65.8-.85s.63-.3 1.01-.3c.49-.02.88.14 1.15.47zM162.08 209.74h-.56l-.05-1.05c-.43.79-1.02 1.18-1.78 1.18-.49 0-.88-.16-1.16-.47s-.42-.75-.42-1.3v-4.49h.66v4.43c0 .85.35 1.28 1.05 1.28.34 0 .64-.11.9-.33.26-.22.49-.53.7-.92v-4.45h.66v6.12zM164.93 209.69c0 .48-.05.86-.16 1.15-.11.29-.27.53-.47.71-.21.18-.5.37-.87.56l-.21-.47c.27-.15.48-.29.63-.44s.25-.33.33-.57c.07-.23.11-.55.11-.94v-6.09h.66v6.09zm.02-8.62c.09.09.13.21.13.34 0 .14-.04.26-.13.35s-.21.13-.35.13-.26-.04-.34-.13a.475.475 0 01-.13-.35.46.46 0 01.47-.48c.14 0 .26.05.35.14zM168.24 200.61l.3.57-2.07.98-.21-.36 1.98-1.19zm-.45 3v6.13h-.66v-6.13h.66zM175.24 203.65c.28.11.55.28.82.51l-.3.42c-.25-.19-.49-.34-.71-.43-.22-.09-.47-.13-.73-.13-.37 0-.66.09-.88.28-.22.19-.33.45-.33.77 0 .29.1.52.29.69s.55.33 1.05.5c.63.2 1.08.44 1.36.71s.41.65.41 1.13c0 .54-.19.97-.57 1.29s-.86.48-1.44.48c-.41 0-.78-.07-1.1-.21s-.62-.33-.89-.58l.36-.4c.25.21.5.37.75.47s.54.16.87.16c.4 0 .72-.11.97-.32.25-.21.37-.5.37-.88 0-.25-.04-.45-.12-.6s-.23-.29-.43-.4c-.21-.12-.51-.24-.9-.36-.59-.19-1.02-.41-1.27-.67-.25-.26-.38-.59-.38-1 0-.3.08-.58.25-.82.16-.24.39-.43.67-.57s.6-.21.94-.21c.34 0 .66.06.94.17zM181.77 206.94h-3.69c.03.82.2 1.42.5 1.8.3.38.71.57 1.21.57.29 0 .54-.05.77-.14s.46-.24.7-.45l.33.41c-.27.24-.56.43-.85.55s-.62.19-.97.19c-.73 0-1.31-.27-1.73-.82-.42-.55-.63-1.32-.63-2.32 0-1.01.2-1.81.6-2.38.4-.57.95-.86 1.65-.86.69 0 1.23.26 1.59.77.37.52.55 1.25.55 2.19l-.03.49zm-.62-.71c0-.71-.12-1.26-.38-1.63-.25-.38-.62-.57-1.12-.57-.45 0-.82.19-1.1.57-.28.38-.44.99-.47 1.82h3.07v-.19zM20.86 212.75v8.7h-.66v-8.62l.66-.08zm3.1 2.57l-2.31 2.74 2.55 3.38h-.76l-2.52-3.35 2.31-2.78h.73zM31.91 215.68c.27.32.4.76.4 1.33v4.44h-.66v-4.35c0-.47-.08-.81-.25-1.04-.17-.22-.42-.33-.76-.33-.33 0-.64.11-.91.34-.27.23-.54.55-.79.96v4.42h-.64v-6.13h.56l.07 1.07c.48-.8 1.1-1.19 1.84-1.19.49-.01.87.15 1.14.48zM38.39 218.65H34.7c.03.82.2 1.42.5 1.8.3.38.71.57 1.21.57.29 0 .54-.05.77-.14s.46-.24.7-.45l.33.41c-.27.24-.56.43-.85.55s-.62.19-.97.19c-.73 0-1.31-.27-1.73-.82-.42-.55-.63-1.32-.63-2.32 0-1.01.2-1.81.6-2.38.4-.57.95-.86 1.65-.86.69 0 1.23.26 1.59.77.37.52.55 1.25.55 2.19 0 .17-.01.33-.03.49zm-.62-.7c0-.71-.12-1.26-.38-1.63-.25-.38-.62-.57-1.12-.57-.45 0-.82.19-1.1.57-.28.38-.44.99-.47 1.82h3.07v-.19zM46.58 215.69c.26.33.39.77.39 1.32v4.44h-.64v-4.35c0-.46-.08-.8-.24-1.03a.762.762 0 00-.67-.34c-.3 0-.58.11-.83.33-.25.22-.48.53-.71.93v4.45h-.64v-4.35c0-.46-.08-.8-.24-1.03a.762.762 0 00-.67-.34c-.3 0-.58.11-.83.33-.25.22-.48.53-.71.93v4.45h-.66v-6.13h.56l.06 1.02c.47-.76 1.03-1.15 1.69-1.15.35 0 .65.11.88.32s.4.5.49.88c.48-.8 1.06-1.19 1.72-1.19.44.01.79.18 1.05.51zM52.78 216.01c.41.55.62 1.33.62 2.35 0 1.01-.21 1.79-.63 2.36-.42.57-1 .85-1.73.85s-1.31-.28-1.72-.84c-.41-.56-.62-1.34-.62-2.35s.21-1.79.63-2.35c.42-.56.99-.84 1.73-.84.73 0 1.3.28 1.72.82zm-2.97.4c-.29.43-.43 1.1-.43 1.99 0 .88.14 1.54.43 1.98.29.44.69.66 1.22.66s.94-.22 1.23-.66c.29-.44.43-1.1.43-2 0-.88-.14-1.54-.42-1.97-.28-.43-.69-.64-1.23-.64-.53-.01-.94.2-1.23.64zM57.93 215.34c.25.1.49.26.73.47l-.33.42c-.18-.16-.37-.28-.56-.36s-.41-.12-.66-.12c-.52 0-.92.22-1.22.66-.3.44-.45 1.11-.45 2 0 .88.15 1.54.45 1.96.3.42.71.63 1.23.63.24 0 .46-.04.66-.12s.39-.21.6-.37l.33.41c-.46.44-.99.66-1.59.66-.73 0-1.31-.27-1.73-.81-.42-.54-.63-1.32-.63-2.34 0-1.01.21-1.81.64-2.38.43-.57 1-.85 1.73-.85.27-.01.55.04.8.14zM60.76 212.78c.09.09.13.21.13.34 0 .14-.04.26-.13.35s-.21.13-.35.13-.26-.04-.34-.13a.475.475 0 01-.13-.35.46.46 0 01.47-.48c.14 0 .26.05.35.14zm-.02 2.54v6.13h-.66v-6.13h.66zM69.48 215.68c.27.32.4.76.4 1.33v4.44h-.66v-4.35c0-.47-.08-.81-.25-1.04-.17-.22-.42-.33-.76-.33-.33 0-.64.11-.91.34-.27.23-.54.55-.79.96v4.42h-.66v-6.13h.56l.07 1.07c.48-.8 1.1-1.19 1.84-1.19.51-.01.89.15 1.16.48zM75.96 218.65h-3.69c.03.82.2 1.42.5 1.8.3.38.71.57 1.21.57.29 0 .54-.05.77-.14s.46-.24.7-.45l.33.41c-.27.24-.56.43-.85.55s-.62.19-.97.19c-.73 0-1.31-.27-1.73-.82-.42-.55-.63-1.32-.63-2.32 0-1.01.2-1.81.6-2.38.4-.57.95-.86 1.65-.86.69 0 1.23.26 1.59.77.37.52.55 1.25.55 2.19-.01.17-.01.33-.03.49zm-.62-.7c0-.71-.12-1.26-.38-1.63-.25-.38-.62-.57-1.12-.57-.45 0-.82.19-1.1.57-.28.38-.44.99-.47 1.82h3.07v-.19zM81.49 216c.35.54.53 1.32.53 2.36 0 1.02-.19 1.81-.56 2.37-.37.57-.89.85-1.55.85-.33 0-.62-.08-.89-.25s-.5-.38-.69-.66l-.06.77h-.57v-8.62l.66-.08v3.43c.43-.66.98-.98 1.65-.98.63 0 1.13.27 1.48.81zm-.57 4.37c.26-.44.39-1.11.39-2.01 0-.91-.12-1.57-.36-1.99-.24-.42-.6-.63-1.07-.63-.33 0-.61.09-.86.28-.24.19-.47.45-.68.77v3.26c.41.65.89.97 1.45.97.5.01.87-.21 1.13-.65zM87.46 216.01c.41.55.62 1.33.62 2.35 0 1.01-.21 1.79-.63 2.36-.42.57-1 .85-1.73.85s-1.31-.28-1.72-.84c-.41-.56-.62-1.34-.62-2.35s.21-1.79.63-2.35c.42-.56.99-.84 1.73-.84.73 0 1.31.28 1.72.82zm-2.96.4c-.29.43-.43 1.1-.43 1.99 0 .88.14 1.54.43 1.98.29.44.69.66 1.22.66s.94-.22 1.23-.66c.29-.44.43-1.1.43-2 0-.88-.14-1.54-.42-1.97-.28-.43-.69-.64-1.23-.64-.53-.01-.94.2-1.23.64zM95.1 215.36c.28.11.55.28.82.51l-.3.42c-.25-.19-.49-.34-.71-.43-.22-.09-.47-.13-.73-.13-.37 0-.66.09-.88.28-.22.19-.33.45-.33.77 0 .29.1.52.29.69s.55.33 1.05.5c.63.2 1.08.44 1.36.71s.41.65.41 1.13c0 .54-.19.97-.57 1.29s-.86.48-1.44.48c-.41 0-.78-.07-1.1-.21s-.62-.33-.89-.58l.36-.4c.25.21.5.37.75.47s.54.16.87.16c.4 0 .72-.11.97-.32.25-.21.37-.5.37-.88 0-.25-.04-.45-.12-.6s-.23-.29-.43-.4c-.21-.12-.51-.24-.9-.36-.59-.19-1.02-.41-1.27-.67-.25-.26-.38-.59-.38-1 0-.3.08-.58.25-.82.16-.24.39-.43.67-.57s.6-.21.94-.21c.34 0 .66.06.94.17zM100.24 221.19c-.36.26-.75.39-1.17.39-.43 0-.77-.13-1.01-.39s-.36-.62-.36-1.09v-4.24h-.92v-.54h.92v-1.46l.66-.08v1.55h1.42l-.08.54h-1.34v4.22c0 .62.26.94.79.94.27 0 .54-.09.83-.26l.26.42zM104.9 220.82c.07.13.19.23.35.3l-.15.46c-.26-.06-.46-.17-.6-.32s-.23-.38-.28-.67c-.4.66-.96 1-1.7 1-.53 0-.95-.17-1.26-.5-.31-.33-.46-.77-.46-1.33 0-.64.21-1.13.62-1.47.41-.34 1-.51 1.75-.51h.97v-.66c0-.47-.1-.81-.29-1.04-.2-.22-.51-.33-.94-.33-.45 0-.95.12-1.52.35l-.19-.49c.65-.27 1.24-.41 1.78-.41.62 0 1.07.16 1.37.48s.45.78.45 1.39v3.13c0 .28.03.48.1.62zm-.76-.89v-1.68h-.89c-1.17 0-1.76.49-1.76 1.48 0 .43.1.76.3.98.2.23.48.34.84.34.66 0 1.17-.37 1.51-1.12zM110.74 215.32l-1.9 6.13h-.8l-1.97-6.13h.7l1.66 5.55 1.62-5.55h.69zM115.93 221.45h-.56l-.05-1.05c-.43.79-1.02 1.18-1.78 1.18-.49 0-.88-.16-1.16-.47s-.42-.75-.42-1.3v-4.49h.66v4.43c0 .85.35 1.28 1.05 1.28.34 0 .64-.11.9-.33.26-.22.49-.53.7-.92v-4.45h.66v6.12zM118.57 220.65c.1.1.15.23.15.39 0 .09-.02.18-.05.29s-.07.22-.12.34l-.6 1.53h-.46l.43-1.7a.525.525 0 01-.27-.47c0-.16.05-.29.15-.39.1-.1.23-.15.37-.15.17.01.3.06.4.16zM124 212.75v8.7h-.66v-8.62l.66-.08zm3.1 2.57l-2.31 2.74 2.55 3.38h-.76l-2.52-3.35 2.31-2.78h.73zM131.07 221.19c-.36.26-.75.39-1.17.39-.43 0-.77-.13-1.01-.39s-.36-.62-.36-1.09v-4.24h-.92v-.54h.92v-1.46l.66-.08v1.55h1.42l-.08.54h-1.34v4.22c0 .62.26.94.79.94.27 0 .54-.09.83-.26l.26.42zM136.08 218.65h-3.69c.03.82.2 1.42.5 1.8.3.38.71.57 1.21.57.29 0 .54-.05.77-.14s.46-.24.7-.45l.33.41c-.27.24-.56.43-.85.55s-.62.19-.97.19c-.73 0-1.31-.27-1.73-.82-.42-.55-.63-1.32-.63-2.32 0-1.01.2-1.81.6-2.38.4-.57.95-.86 1.65-.86.69 0 1.23.26 1.59.77.37.52.55 1.25.55 2.19 0 .17-.01.33-.03.49zm-.62-.7c0-.71-.12-1.26-.38-1.63-.25-.38-.62-.57-1.12-.57-.45 0-.82.19-1.1.57-.28.38-.44.99-.47 1.82h3.07v-.19zM140.55 215.27l-.13.62c-.14-.05-.3-.07-.47-.07-.38 0-.68.15-.91.45-.23.3-.42.77-.57 1.4v3.78h-.66v-6.13h.56l.05 1.31c.16-.48.36-.84.62-1.08s.58-.36.96-.36c.18 0 .36.03.55.08zM143.6 221.47c-.21.7-.48 1.24-.81 1.6s-.82.62-1.46.77l-.08-.52c.37-.1.66-.23.87-.38s.38-.34.5-.56c.12-.23.25-.54.39-.94h-.23l-1.91-6.13h.68l1.66 5.63 1.62-5.63h.68l-1.91 6.16zm.37-9.15l.3.57-2.07.98-.21-.36 1.98-1.19zM152.04 215.36c.28.11.55.28.82.51l-.3.42c-.25-.19-.49-.34-.71-.43-.22-.09-.47-.13-.73-.13-.37 0-.66.09-.88.28-.22.19-.33.45-.33.77 0 .29.1.52.29.69s.55.33 1.05.5c.63.2 1.08.44 1.36.71s.41.65.41 1.13c0 .54-.19.97-.57 1.29s-.86.48-1.44.48c-.41 0-.78-.07-1.1-.21s-.62-.33-.89-.58l.36-.4c.25.21.5.37.75.47s.54.16.87.16c.4 0 .72-.11.97-.32.25-.21.37-.5.37-.88 0-.25-.04-.45-.12-.6s-.23-.29-.43-.4c-.21-.12-.51-.24-.9-.36-.59-.19-1.02-.41-1.27-.67-.25-.26-.38-.59-.38-1 0-.3.08-.58.25-.82.16-.24.39-.43.67-.57s.6-.21.94-.21c.34 0 .66.06.94.17zM161.08 215.69c.26.33.39.77.39 1.32v4.44h-.64v-4.35c0-.46-.08-.8-.24-1.03a.762.762 0 00-.67-.34c-.3 0-.58.11-.83.33-.25.22-.48.53-.71.93v4.45h-.64v-4.35c0-.46-.08-.8-.24-1.03a.762.762 0 00-.67-.34c-.3 0-.58.11-.83.33-.25.22-.48.53-.71.93v4.45h-.66v-6.13h.56l.06 1.02c.47-.76 1.03-1.15 1.69-1.15.35 0 .65.11.88.32s.4.5.49.88c.48-.8 1.06-1.19 1.72-1.19.44.01.79.18 1.05.51zM166.35 215.27l-.13.62c-.14-.05-.3-.07-.47-.07-.38 0-.68.15-.91.45-.23.3-.42.77-.57 1.4v3.78h-.66v-6.13h.56l.05 1.31c.16-.48.36-.84.62-1.08s.58-.36.96-.36c.18 0 .36.03.55.08zM170.13 221.19c-.36.26-.75.39-1.17.39-.43 0-.77-.13-1.01-.39s-.36-.62-.36-1.09v-4.24h-.92v-.54h.92v-1.46l.66-.08v1.55h1.42l-.08.54h-1.34v4.22c0 .62.26.94.79.94.27 0 .54-.09.83-.26l.26.42zM177.14 215.32v.52l-3.09 5.04h3.08l-.07.57h-3.75v-.5l3.1-5.05h-2.85v-.57h3.58zM182.41 216c.34.54.51 1.32.51 2.35 0 1.02-.18 1.81-.55 2.37-.37.57-.89.85-1.56.85-.33 0-.62-.08-.89-.23s-.49-.35-.67-.6v3.01l-.66.09v-8.53h.57l.05.88c.45-.67 1.02-1.01 1.7-1.01.66.01 1.16.28 1.5.82zm-.2 2.36c0-.89-.12-1.55-.36-1.97-.24-.42-.59-.64-1.06-.64-.32 0-.6.09-.85.28-.25.19-.48.44-.69.76v3.32c.39.61.88.91 1.45.91 1.01 0 1.51-.89 1.51-2.66zM188.62 221.45h-.56l-.05-1.05c-.43.79-1.02 1.18-1.78 1.18-.49 0-.88-.16-1.16-.47s-.42-.75-.42-1.3v-4.49h.66v4.43c0 .85.35 1.28 1.05 1.28.34 0 .64-.11.9-.33.26-.22.49-.53.7-.92v-4.45h.66v6.12zm-1.21-9.31c.2.2.29.46.29.79 0 .34-.1.6-.29.8-.2.2-.45.3-.77.3-.31 0-.57-.1-.76-.3-.2-.2-.29-.47-.29-.8 0-.33.1-.59.29-.79s.45-.3.76-.3c.32 0 .58.1.77.3zm-1.34.79c0 .47.19.7.57.7.19 0 .33-.06.43-.18s.15-.29.15-.53c0-.46-.2-.69-.58-.69-.38.01-.57.24-.57.7zM193.15 215.36c.28.11.55.28.82.51l-.3.42c-.25-.19-.49-.34-.71-.43-.22-.09-.47-.13-.73-.13-.37 0-.66.09-.88.28-.22.19-.33.45-.33.77 0 .29.1.52.29.69s.55.33 1.05.5c.63.2 1.08.44 1.36.71s.41.65.41 1.13c0 .54-.19.97-.57 1.29s-.86.48-1.44.48c-.41 0-.78-.07-1.1-.21s-.62-.33-.89-.58l.36-.4c.25.21.5.37.75.47s.54.16.87.16c.4 0 .72-.11.97-.32.25-.21.37-.5.37-.88 0-.25-.04-.45-.12-.6s-.23-.29-.43-.4c-.21-.12-.51-.24-.9-.36-.59-.19-1.02-.41-1.27-.67-.25-.26-.38-.59-.38-1 0-.3.08-.58.25-.82.16-.24.39-.43.67-.57s.6-.21.94-.21c.34 0 .66.06.94.17zM199.4 216.01c.41.55.62 1.33.62 2.35 0 1.01-.21 1.79-.63 2.36-.42.57-1 .85-1.73.85s-1.31-.28-1.72-.84c-.41-.56-.62-1.34-.62-2.35s.21-1.79.63-2.35c.42-.56.99-.84 1.73-.84.72 0 1.3.28 1.72.82zm-2.97.4c-.29.43-.43 1.1-.43 1.99 0 .88.14 1.54.43 1.98.29.44.69.66 1.22.66s.94-.22 1.23-.66c.29-.44.43-1.1.43-2 0-.88-.14-1.54-.42-1.97-.28-.43-.69-.64-1.23-.64-.53-.01-.94.2-1.23.64zM205.58 216c.35.54.53 1.32.53 2.36 0 1.02-.19 1.81-.56 2.37-.37.57-.89.85-1.55.85-.33 0-.62-.08-.89-.25s-.5-.38-.69-.66l-.06.77h-.57v-8.62l.66-.08v3.43c.43-.66.98-.98 1.65-.98.63 0 1.13.27 1.48.81zm-.57 4.37c.26-.44.39-1.11.39-2.01 0-.91-.12-1.57-.36-1.99-.24-.42-.6-.63-1.07-.63-.33 0-.61.09-.86.28-.24.19-.47.45-.68.77v3.26c.41.65.89.97 1.45.97.5.01.87-.21 1.13-.65zM208.57 212.78c.09.09.13.21.13.34 0 .14-.04.26-.13.35s-.21.13-.35.13-.26-.04-.34-.13a.475.475 0 01-.13-.35.46.46 0 01.47-.48c.14 0 .26.05.35.14zm-.02 2.54v6.13h-.66v-6.13h.66zM210.97 221.3c-.18-.19-.27-.46-.27-.81v-7.66l.66-.08v7.73c0 .36.15.54.45.54.12 0 .25-.03.38-.08l.16.48c-.19.11-.4.16-.64.16-.32 0-.56-.1-.74-.28z"/></g><g><path d="M230.01 46.11c.42.16.82.41 1.18.75l-.76.88c-.29-.24-.58-.42-.87-.53s-.61-.16-.94-.16c-.37 0-.68.08-.91.25s-.35.4-.35.71c0 .2.04.37.13.5s.25.26.49.37.58.25 1.04.39c.8.25 1.4.56 1.8.93.4.37.6.91.6 1.62 0 .48-.12.91-.37 1.29s-.6.67-1.06.88-1.01.32-1.64.32c-.62 0-1.17-.1-1.66-.3s-.91-.47-1.26-.81l.8-.89c.31.27.64.47.97.6s.71.2 1.11.2c.44 0 .8-.1 1.08-.32s.41-.51.41-.89c0-.23-.05-.43-.14-.58s-.25-.29-.48-.41c-.23-.12-.55-.25-.98-.38-.86-.27-1.48-.59-1.86-.96-.38-.38-.57-.87-.57-1.48 0-.45.12-.84.35-1.17.23-.33.56-.6.98-.78s.89-.28 1.42-.28c.57 0 1.07.09 1.49.25zM233.05 53.89c-.27-.28-.4-.67-.4-1.18v-7.26l1.5-.16v7.38c0 .29.12.43.35.43.12 0 .23-.02.35-.06l.32 1.05c-.31.14-.64.21-1 .21-.48.01-.85-.13-1.12-.41zM240.83 48.63c.51.58.77 1.38.77 2.4 0 .65-.12 1.22-.35 1.72s-.57.88-1.01 1.15c-.44.27-.96.41-1.56.41-.91 0-1.63-.29-2.14-.87-.51-.58-.77-1.38-.77-2.41 0-.65.12-1.22.35-1.71s.57-.87 1.01-1.15.96-.41 1.56-.41c.91 0 1.63.29 2.14.87zm-3.49 2.4c0 .73.11 1.28.33 1.62s.56.52 1 .52c.45 0 .78-.17 1-.53s.33-.89.33-1.62c0-.73-.11-1.26-.33-1.61s-.55-.52-.99-.52c-.89.01-1.34.72-1.34 2.14zM247.98 47.94l-2.01 6.2h-1.79l-2.05-6.2h1.63l1.32 4.99 1.36-4.99h1.54zM253.5 48.26c.31.33.46.79.46 1.39v4.49h-1.5v-4.25c0-.37-.06-.62-.19-.77s-.32-.22-.57-.22c-.26 0-.49.08-.7.24-.21.16-.41.39-.6.7v4.31h-1.5v-6.2h1.3l.12.81c.51-.66 1.14-.98 1.89-.98.55-.02.98.15 1.29.48zM257.35 44.53l.61 1.17-2.65 1.05-.42-.76 2.46-1.46zm-.14 3.41v6.2h-1.5v-6.2h1.5zM266.88 48.62c.38.57.56 1.37.56 2.4 0 .64-.1 1.21-.29 1.71s-.47.88-.84 1.17c-.37.28-.81.42-1.32.42-.66 0-1.17-.23-1.56-.68v2.89l-1.5.16v-8.75h1.31l.08.76c.24-.31.52-.55.83-.7.31-.16.64-.23.98-.23.8-.01 1.38.28 1.75.85zm-1 2.41c0-.76-.1-1.3-.29-1.64s-.49-.5-.88-.5c-.25 0-.48.08-.7.23-.22.15-.41.36-.56.62v2.79c.29.43.67.64 1.14.64.85-.01 1.29-.72 1.29-2.14zM273.59 48.63c.51.58.77 1.38.77 2.4 0 .65-.12 1.22-.35 1.72s-.57.88-1.01 1.15c-.44.27-.96.41-1.56.41-.91 0-1.63-.29-2.14-.87-.51-.58-.77-1.38-.77-2.41 0-.65.12-1.22.35-1.71s.57-.87 1.01-1.15.96-.41 1.56-.41c.92 0 1.63.29 2.14.87zm-3.48 2.4c0 .73.11 1.28.33 1.62s.56.52 1 .52c.45 0 .78-.17 1-.53s.33-.89.33-1.62c0-.73-.11-1.26-.33-1.61s-.55-.52-.99-.52c-.9.01-1.34.72-1.34 2.14zM280.71 48.62c.38.57.56 1.37.56 2.4 0 .64-.1 1.21-.29 1.71s-.47.88-.84 1.17c-.37.28-.81.42-1.32.42-.66 0-1.17-.23-1.56-.68v2.89l-1.5.16v-8.75h1.31l.08.76c.24-.31.52-.55.83-.7.31-.16.64-.23.98-.23.79-.01 1.37.28 1.75.85zm-1.01 2.41c0-.76-.1-1.3-.29-1.64s-.49-.5-.88-.5c-.25 0-.48.08-.7.23-.22.15-.41.36-.56.62v2.79c.29.43.67.64 1.14.64.86-.01 1.29-.72 1.29-2.14zM284.17 45.06c.18.18.26.39.26.65s-.09.47-.26.64-.4.26-.69.26c-.27 0-.5-.08-.67-.26-.18-.17-.26-.39-.26-.64s.09-.47.26-.65c.17-.18.4-.26.67-.26.28 0 .51.09.69.26zm.07 2.88v6.2h-1.5v-6.2h1.5zM290.21 48.5l-.59.88c-.53-.34-1.05-.5-1.56-.5-.3 0-.53.06-.69.17s-.25.26-.25.45c0 .14.04.26.11.35s.2.18.38.26.46.17.81.28c.67.18 1.17.42 1.49.71.32.3.49.71.49 1.24 0 .62-.25 1.1-.75 1.45s-1.12.52-1.86.52c-.51 0-.97-.08-1.39-.23-.42-.16-.78-.37-1.08-.64l.75-.84c.54.41 1.1.61 1.69.61.34 0 .6-.07.8-.2.2-.13.3-.32.3-.55 0-.18-.04-.32-.11-.43s-.21-.2-.4-.28c-.19-.08-.49-.18-.9-.3-.63-.17-1.1-.41-1.39-.72-.3-.31-.45-.69-.45-1.15 0-.34.1-.65.3-.93.2-.27.48-.49.84-.64s.78-.23 1.25-.23c.84-.02 1.57.23 2.21.72zM298.71 48.5l-.59.88c-.53-.34-1.05-.5-1.56-.5-.3 0-.53.06-.69.17s-.25.26-.25.45c0 .14.04.26.11.35s.2.18.38.26.46.17.81.28c.67.18 1.17.42 1.49.71.32.3.49.71.49 1.24 0 .62-.25 1.1-.75 1.45s-1.12.52-1.86.52c-.51 0-.97-.08-1.39-.23-.42-.16-.78-.37-1.08-.64l.75-.84c.54.41 1.1.61 1.69.61.34 0 .6-.07.8-.2.2-.13.3-.32.3-.55 0-.18-.04-.32-.11-.43s-.21-.2-.4-.28c-.19-.08-.49-.18-.9-.3-.63-.17-1.1-.41-1.39-.72-.3-.31-.45-.69-.45-1.15 0-.34.1-.65.3-.93.2-.27.48-.49.84-.64s.78-.23 1.25-.23c.84-.02 1.58.23 2.21.72zM303.68 53.84c-.22.16-.46.27-.73.35s-.54.12-.83.12c-.61-.01-1.07-.18-1.39-.52s-.47-.84-.47-1.5v-3.27h-.97v-1.08h.97v-1.37l1.5-.17v1.55h1.44l-.15 1.08h-1.29v3.23c0 .3.05.52.16.66s.27.2.5.2c.23 0 .47-.07.74-.22l.52.94zM309.21 53.03c.07.11.19.2.36.26l-.32 1c-.35-.03-.64-.12-.86-.26s-.39-.36-.51-.64c-.21.31-.47.54-.79.7-.32.15-.67.23-1.06.23-.62 0-1.11-.18-1.46-.53-.36-.35-.54-.81-.54-1.38 0-.67.24-1.19.73-1.54.49-.35 1.19-.53 2.09-.53h.77v-.35c0-.4-.09-.68-.28-.84s-.48-.24-.88-.24c-.45 0-1 .11-1.64.33l-.35-1.02c.77-.3 1.52-.45 2.25-.45 1.58 0 2.38.71 2.38 2.13v2.6c0 .24.04.41.11.53zm-1.59-.57v-1.25H307c-.97 0-1.45.36-1.45 1.08 0 .3.07.53.22.69.15.16.37.25.66.25.51-.01.9-.26 1.19-.77zM315.89 47.94l-2.01 6.2h-1.79l-2.05-6.2h1.63l1.32 4.99 1.36-4.99h1.54zM321.77 54.13h-1.3l-.08-.87c-.23.35-.49.61-.8.79s-.67.26-1.09.26c-.55 0-.98-.17-1.28-.51s-.45-.81-.45-1.41v-4.45h1.5v4.26c0 .35.06.6.18.75s.31.22.58.22c.48 0 .89-.29 1.25-.88v-4.36h1.5v6.2z"/></g><g><path d="M452.23 46.04v8.09h-1.55v-8.09h1.55zm4.55 0l-2.8 3.67 3.02 4.43h-1.84l-2.86-4.32 2.8-3.77h1.68zM462.49 48.63c.51.58.77 1.38.77 2.4 0 .65-.12 1.22-.35 1.72s-.57.88-1.01 1.15c-.44.27-.96.41-1.56.41-.91 0-1.63-.29-2.14-.87-.51-.58-.77-1.38-.77-2.41 0-.65.12-1.22.35-1.71s.57-.87 1.01-1.15.96-.41 1.56-.41c.91 0 1.63.29 2.14.87zm-1.26-4.1l.61 1.17-2.65 1.05-.42-.76 2.46-1.46zm-2.23 6.5c0 .73.11 1.28.33 1.62s.56.52 1 .52c.45 0 .78-.17 1-.53s.33-.89.33-1.62c0-.73-.11-1.26-.33-1.61s-.55-.52-.99-.52c-.89.01-1.34.72-1.34 2.14zM469.87 45.45v8.68h-1.32l-.11-.79c-.2.3-.44.53-.74.7s-.64.26-1.02.26c-.76 0-1.34-.29-1.75-.88-.41-.58-.61-1.38-.61-2.39 0-.63.1-1.2.3-1.69.2-.5.49-.88.87-1.17s.82-.42 1.32-.42c.59 0 1.11.22 1.56.67v-3.14l1.5.17zm-2.07 7.53c.2-.13.39-.33.57-.6v-2.83c-.18-.22-.36-.38-.54-.49s-.4-.16-.64-.16c-.4 0-.71.18-.94.53s-.35.89-.35 1.61c0 .77.1 1.31.3 1.65s.5.5.89.5c.27-.02.51-.08.71-.21zM482.33 54.13h-1.51l-.21-3.38c-.07-1.21-.11-2.17-.11-2.88v-.42l-1.48 5.81h-1.46l-1.57-5.82c.02.52.02.91.02 1.17 0 .71-.02 1.44-.07 2.19l-.2 3.34h-1.5l.64-8.09h1.99l1.44 5.67 1.36-5.67h2.01l.65 8.08zM485.36 46.04v8.09h-1.55v-8.09h1.55zm4.55 0l-2.8 3.67 3.02 4.43h-1.84l-2.86-4.32 2.8-3.77h1.68zM496.97 54.13h-2l-2.78-6.55c.07.58.12 1.1.16 1.57s.05 1.03.05 1.68v3.3H491v-8.09h1.96l2.82 6.56c-.05-.31-.09-.72-.14-1.24-.05-.51-.07-1.02-.07-1.53v-3.79h1.41v8.09z"/></g><g><path d="M524.47 34.97c.57.43.86 1.07.86 1.93 0 .9-.29 1.57-.87 2.02-.58.45-1.35.67-2.31.67h-.95v2.82h-1.55v-8.09h2.39c1.05.01 1.86.22 2.43.65zm-1.18 3.12c.28-.23.42-.63.42-1.19 0-.96-.56-1.44-1.68-1.44h-.83v2.98h.83c.57 0 .98-.12 1.26-.35zM529.92 33.05l.57.66-1.63 1.46h-.94l-1.63-1.46.57-.66 1.52 1.03 1.54-1.03zm.3 3.09l-.26 1.45c-.19-.05-.37-.07-.55-.07-.37 0-.66.13-.87.39s-.38.66-.5 1.2v3.3h-1.5v-6.2h1.3l.14 1.22c.15-.45.36-.79.64-1.02s.6-.36.97-.36c.23.01.44.04.63.09zM532.58 33.35c.18.18.26.39.26.65s-.09.47-.26.64-.4.26-.69.26c-.27 0-.5-.08-.67-.26-.18-.17-.26-.39-.26-.64s.09-.47.26-.65c.17-.18.4-.26.67-.26.28-.01.51.08.69.26zm.07 2.87v6.2h-1.5v-6.2h1.5zM539.35 36.91c.41.57.61 1.38.61 2.41 0 .64-.1 1.21-.3 1.71s-.48.88-.85 1.16c-.37.28-.8.42-1.3.42a2.008 2.008 0 01-1.64-.81l-.09.63h-1.32v-8.68l1.5-.16v3.35c.2-.28.45-.5.74-.65.29-.15.61-.23.97-.23.72-.01 1.28.28 1.68.85zm-1.3 4.04c.23-.35.34-.89.34-1.63 0-.78-.11-1.33-.32-1.66s-.51-.49-.89-.49c-.48 0-.89.28-1.23.84v2.74c.13.23.3.4.5.53s.42.19.65.19c.41 0 .73-.17.95-.52zM541.78 42.18c-.27-.28-.4-.67-.4-1.18v-7.26l1.5-.16v7.38c0 .29.12.43.35.43.12 0 .23-.02.35-.06l.32 1.05c-.31.14-.64.21-1 .21-.47.01-.85-.13-1.12-.41zM546.32 33.35c.18.18.26.39.26.65s-.09.47-.26.64-.4.26-.69.26c-.27 0-.5-.08-.67-.26-.18-.17-.26-.39-.26-.64s.09-.47.26-.65c.17-.18.4-.26.67-.26.28-.01.51.08.69.26zm.07 2.87v6.2h-1.5v-6.2h1.5zM552.23 36.22v1.08l-3 3.95h3.06l-.15 1.17h-4.63v-1.08l3.01-3.95h-2.75v-1.17h4.46zm-.77-3.17l.57.66-1.63 1.46h-.94l-1.63-1.46.57-.66 1.52 1.03 1.54-1.03zM558.05 36.55c.31.33.46.79.46 1.39v4.49h-1.5v-4.25c0-.37-.06-.62-.19-.77s-.32-.22-.57-.22c-.26 0-.49.08-.7.24-.21.16-.41.39-.6.7v4.31h-1.5v-6.2h1.3l.12.81c.51-.66 1.14-.98 1.89-.98.55-.02.99.14 1.29.48zM564.95 41.31c.07.11.19.2.36.26l-.32 1c-.35-.03-.64-.12-.86-.26s-.39-.36-.51-.64c-.21.31-.47.54-.79.7-.32.15-.67.23-1.06.23-.62 0-1.11-.18-1.46-.53-.36-.35-.54-.81-.54-1.38 0-.67.24-1.19.73-1.54.49-.35 1.19-.53 2.09-.53h.77v-.35c0-.4-.09-.68-.28-.84s-.48-.24-.88-.24c-.45 0-1 .11-1.64.33l-.35-1.02c.77-.3 1.52-.45 2.25-.45 1.58 0 2.38.71 2.38 2.13v2.6c0 .24.04.42.11.53zm-1.58-8.5l.61 1.17-2.65 1.05-.42-.76 2.46-1.46zm0 7.94V39.5h-.62c-.97 0-1.45.36-1.45 1.08 0 .3.07.53.22.69.15.16.37.25.66.25.5-.01.9-.27 1.19-.77zM574.8 33.74v8.68h-1.32l-.11-.79c-.2.3-.44.53-.74.7s-.64.26-1.02.26c-.76 0-1.34-.29-1.75-.88-.41-.58-.61-1.38-.61-2.39 0-.63.1-1.2.3-1.69.2-.5.49-.88.87-1.17s.82-.42 1.32-.42c.59 0 1.11.22 1.56.67v-3.14l1.5.17zm-2.08 7.53c.2-.13.39-.33.57-.6v-2.83c-.18-.22-.36-.38-.54-.49s-.4-.16-.64-.16c-.4 0-.71.18-.94.53s-.35.89-.35 1.61c0 .77.1 1.31.3 1.65s.5.5.89.5c.28-.02.51-.08.71-.21zM581.27 36.92c.51.58.77 1.38.77 2.4 0 .65-.12 1.22-.35 1.72s-.57.88-1.01 1.15c-.44.27-.96.41-1.56.41-.91 0-1.63-.29-2.14-.87-.51-.58-.77-1.38-.77-2.41 0-.65.12-1.22.35-1.71s.57-.87 1.01-1.15.96-.41 1.56-.41c.92 0 1.63.29 2.14.87zm-3.48 2.4c0 .73.11 1.28.33 1.62s.56.52 1 .52c.45 0 .78-.17 1-.53s.33-.89.33-1.62c0-.73-.11-1.26-.33-1.61s-.55-.52-.99-.52c-.9 0-1.34.72-1.34 2.14zM588.34 36.91c.41.57.61 1.38.61 2.41 0 .64-.1 1.21-.3 1.71s-.48.88-.85 1.16c-.37.28-.8.42-1.3.42a2.008 2.008 0 01-1.64-.81l-.09.63h-1.32v-8.68l1.5-.16v3.35c.2-.28.45-.5.74-.65.29-.15.61-.23.97-.23.71-.01 1.27.28 1.68.85zm-1.3 4.04c.23-.35.34-.89.34-1.63 0-.78-.11-1.33-.32-1.66s-.51-.49-.89-.49c-.48 0-.89.28-1.23.84v2.74c.13.23.3.4.5.53s.42.19.65.19c.41 0 .72-.17.95-.52zM595.12 41.31c.07.11.19.2.36.26l-.32 1c-.35-.03-.64-.12-.86-.26s-.39-.36-.51-.64c-.21.31-.47.54-.79.7-.32.15-.67.23-1.06.23-.62 0-1.11-.18-1.46-.53-.36-.35-.54-.81-.54-1.38 0-.67.24-1.19.73-1.54.49-.35 1.19-.53 2.09-.53h.77v-.35c0-.4-.09-.68-.28-.84s-.48-.24-.88-.24c-.45 0-1 .11-1.64.33l-.35-1.02c.77-.3 1.52-.45 2.25-.45 1.58 0 2.38.71 2.38 2.13v2.6c-.01.24.03.42.11.53zm-1.59-.56V39.5h-.62c-.97 0-1.45.36-1.45 1.08 0 .3.07.53.22.69.15.16.37.25.66.25.5-.01.9-.27 1.19-.77zM523.17 53.84c-.22.16-.46.27-.73.35s-.54.12-.83.12c-.61-.01-1.07-.18-1.39-.52s-.47-.84-.47-1.5v-3.27h-.97v-1.08h.97v-1.37l1.5-.17v1.55h1.44l-.15 1.08h-1.29v3.23c0 .3.05.52.16.66s.27.2.5.2c.23 0 .47-.07.74-.22l.52.94zM527.69 47.86l-.26 1.45c-.19-.05-.37-.07-.55-.07-.37 0-.66.13-.87.39s-.38.66-.5 1.2v3.3h-1.5v-6.2h1.3l.14 1.22c.15-.45.36-.79.64-1.02s.6-.36.97-.36c.23 0 .44.03.63.09zM533.6 47.94l-2.01 6.2h-1.79l-2.05-6.2h1.63l1.32 4.99 1.36-4.99h1.54zM539.22 53.03c.07.11.19.2.36.26l-.32 1c-.35-.03-.64-.12-.86-.26s-.39-.36-.51-.64c-.21.31-.47.54-.79.7-.32.15-.67.23-1.06.23-.62 0-1.11-.18-1.46-.53-.36-.35-.54-.81-.54-1.38 0-.67.24-1.19.73-1.54.49-.35 1.19-.53 2.09-.53h.77v-.35c0-.4-.09-.68-.28-.84s-.48-.24-.88-.24c-.45 0-1 .11-1.64.33l-.35-1.02c.77-.3 1.52-.45 2.25-.45 1.58 0 2.38.71 2.38 2.13v2.6c0 .24.03.41.11.53zm-1.59-8.5l.61 1.17-2.65 1.05-.42-.76 2.46-1.46zm0 7.93v-1.25h-.62c-.97 0-1.45.36-1.45 1.08 0 .3.07.53.22.69.15.16.37.25.66.25.5-.01.9-.26 1.19-.77zM545.52 48.26c.31.33.46.79.46 1.39v4.49h-1.5v-4.25c0-.37-.06-.62-.19-.77s-.32-.22-.57-.22c-.26 0-.49.08-.7.24-.21.16-.41.39-.6.7v4.31h-1.5v-6.2h1.3l.12.81c.51-.66 1.14-.98 1.89-.98.55-.02.98.15 1.29.48zM549.37 44.53l.61 1.17-2.65 1.05-.42-.76 2.46-1.46zm-.14 3.41v6.2h-1.5v-6.2h1.5zM558.12 48.5l-.59.88c-.53-.34-1.05-.5-1.56-.5-.3 0-.53.06-.69.17s-.25.26-.25.45c0 .14.04.26.11.35s.2.18.38.26.46.17.81.28c.67.18 1.17.42 1.49.71.32.3.49.71.49 1.24 0 .62-.25 1.1-.75 1.45s-1.12.52-1.86.52c-.51 0-.97-.08-1.39-.23-.42-.16-.78-.37-1.08-.64l.75-.84c.54.41 1.1.61 1.69.61.34 0 .6-.07.8-.2.2-.13.3-.32.3-.55 0-.18-.04-.32-.11-.43s-.21-.2-.4-.28c-.19-.08-.49-.18-.9-.3-.63-.17-1.1-.41-1.39-.72-.3-.31-.45-.69-.45-1.15 0-.34.1-.65.3-.93.2-.27.48-.49.84-.64s.78-.23 1.25-.23c.84-.02 1.58.23 2.21.72zM563.08 53.84c-.22.16-.46.27-.73.35s-.54.12-.83.12c-.61-.01-1.07-.18-1.39-.52s-.47-.84-.47-1.5v-3.27h-.97v-1.08h.97v-1.37l1.5-.17v1.55h1.44l-.15 1.08h-1.29v3.23c0 .3.05.52.16.66s.27.2.5.2c.23 0 .47-.07.74-.22l.52.94zM568.62 53.03c.07.11.19.2.36.26l-.32 1c-.35-.03-.64-.12-.86-.26s-.39-.36-.51-.64c-.21.31-.47.54-.79.7-.32.15-.67.23-1.06.23-.62 0-1.11-.18-1.46-.53-.36-.35-.54-.81-.54-1.38 0-.67.24-1.19.73-1.54.49-.35 1.19-.53 2.09-.53h.77v-.35c0-.4-.09-.68-.28-.84s-.48-.24-.88-.24c-.45 0-1 .11-1.64.33l-.35-1.02c.77-.3 1.52-.45 2.25-.45 1.58 0 2.38.71 2.38 2.13v2.6c0 .24.03.41.11.53zm-1.59-.57v-1.25h-.62c-.97 0-1.45.36-1.45 1.08 0 .3.07.53.22.69.15.16.37.25.66.25.5-.01.9-.26 1.19-.77zM575.3 47.94l-2.01 6.2h-1.79l-2.05-6.2h1.63l1.32 4.99 1.36-4.99h1.54zM581.18 54.13h-1.3l-.08-.87c-.23.35-.49.61-.8.79s-.67.26-1.09.26c-.55 0-.98-.17-1.28-.51s-.45-.81-.45-1.41v-4.45h1.5v4.26c0 .35.06.6.18.75s.31.22.58.22c.48 0 .89-.29 1.25-.88v-4.36h1.5v6.2z"/></g><g><path class="st139" d="M217.99 130.6c-7.83-3.46-12.42-16.06.1-23.68M217.91 109.76l.33-3.07-3.02-.33"/><g><path class="st139" d="M217.99 162.86c-7.83-3.46-12.42-16.06.1-23.68M217.91 142.02l.33-3.08-3.02-.32"/><g><path class="st139" d="M217.99 99.84c-7.83-3.46-12.42-16.06.1-23.68M217.91 79l.33-3.08-3.02-.32"/></g></g></g></g></svg>