<svg xmlns="http://www.w3.org/2000/svg" viewBox="0 0 403 192.26"><style>.st139,.st61,.st98{fill:none;stroke:#000;stroke-width:.25;stroke-miterlimit:10}.st139,.st98{stroke-width:.5}.st139{stroke:gray}</style><g id="Rulers_1_"><path d="M4.41 3.47v9.33h4.43l-.24 1.73H2.3V3.47h2.11zM12.27 2.14c.24.24.36.54.36.89s-.12.65-.36.88-.55.35-.94.35c-.37 0-.68-.12-.92-.35-.24-.23-.36-.53-.36-.88s.12-.65.36-.89.55-.36.92-.36c.39 0 .7.12.94.36zm.11 3.92v8.46h-2.05V6.06h2.05zM20.52 6.83l-.8 1.2c-.72-.46-1.43-.69-2.13-.69-.41 0-.72.08-.94.23s-.34.36-.34.62c0 .19.05.35.14.48.1.13.27.25.52.36.25.11.62.24 1.11.38.92.25 1.6.57 2.04.98.44.41.66.97.66 1.7 0 .84-.34 1.5-1.02 1.98-.68.47-1.53.71-2.54.71-.69 0-1.33-.11-1.9-.32-.57-.21-1.06-.51-1.48-.88l1.02-1.15c.74.55 1.5.83 2.3.83.46 0 .82-.09 1.1-.27.27-.18.41-.43.41-.75 0-.25-.05-.44-.15-.58-.1-.14-.28-.27-.54-.38-.26-.11-.67-.25-1.22-.41-.86-.23-1.5-.56-1.9-.98-.41-.42-.61-.95-.61-1.58 0-.47.14-.89.41-1.26.27-.37.66-.67 1.15-.88.5-.21 1.06-.32 1.7-.32a4.58 4.58 0 013.01.98zM27.3 14.13c-.3.21-.63.37-1 .48-.37.11-.74.16-1.13.16-.83-.01-1.46-.25-1.9-.71-.43-.46-.65-1.15-.65-2.06V7.54H21.3V6.06h1.33V4.19l2.05-.24v2.11h1.97l-.21 1.47h-1.76v4.42c0 .42.07.71.22.9.14.18.37.27.68.27s.65-.1 1.01-.3l.71 1.31zM38.83 7.02c.7.79 1.05 1.89 1.05 3.27 0 .89-.16 1.67-.48 2.34-.32.68-.78 1.2-1.38 1.58-.6.37-1.31.56-2.13.56-1.25 0-2.22-.4-2.93-1.19-.7-.79-1.06-1.89-1.06-3.29 0-.89.16-1.66.48-2.34s.78-1.19 1.38-1.57c.6-.37 1.31-.56 2.14-.56 1.26 0 2.23.4 2.93 1.2zm-4.76 3.27c0 1 .15 1.74.46 2.22s.76.71 1.37.71c.61 0 1.06-.24 1.37-.72.3-.48.46-1.22.46-2.21s-.15-1.73-.46-2.2c-.3-.47-.75-.71-1.35-.71-1.23 0-1.85.97-1.85 2.91zM52.55 6.99c.51.78.77 1.87.77 3.28 0 .87-.13 1.65-.39 2.33-.26.68-.65 1.21-1.15 1.59-.51.38-1.11.58-1.8.58-.9 0-1.61-.31-2.13-.93v3.95l-2.05.22V6.06h1.79l.11 1.04c.33-.43.71-.75 1.14-.96.43-.21.88-.32 1.34-.32 1.07 0 1.86.39 2.37 1.17zm-1.37 3.3c0-1.03-.13-1.78-.4-2.24-.27-.46-.67-.69-1.2-.69-.34 0-.66.1-.96.31s-.55.49-.77.84v3.81c.39.59.91.88 1.55.88 1.18 0 1.78-.97 1.78-2.91zM60.36 5.95l-.35 1.98c-.26-.06-.51-.1-.75-.1-.5 0-.9.18-1.18.54s-.52.9-.69 1.64v4.51h-2.05V6.06h1.78l.19 1.66c.2-.61.5-1.08.88-1.4s.83-.49 1.33-.49c.3.01.58.05.84.12zM67.54 7.02c.7.79 1.05 1.89 1.05 3.27 0 .89-.16 1.67-.48 2.34-.32.68-.78 1.2-1.38 1.58-.6.37-1.31.56-2.13.56-1.25 0-2.22-.4-2.93-1.19-.7-.79-1.06-1.89-1.06-3.29 0-.89.16-1.66.48-2.34a3.7 3.7 0 011.38-1.57c.6-.37 1.31-.56 2.14-.56 1.25 0 2.23.4 2.93 1.2zm-4.76 3.27c0 1 .15 1.74.46 2.22.3.47.76.71 1.37.71.61 0 1.06-.24 1.37-.72.3-.48.46-1.22.46-2.21s-.15-1.73-.46-2.2c-.3-.47-.75-.71-1.35-.71-1.24 0-1.85.97-1.85 2.91zM76.78 6.51c.43.46.64 1.09.64 1.89v6.13h-2.05V8.72c0-.5-.09-.85-.26-1.06-.18-.2-.43-.3-.78-.3s-.66.11-.94.33c-.29.22-.57.53-.83.94v5.9H70.5V2.69l2.05-.21v4.59c.68-.83 1.5-1.25 2.46-1.25.75 0 1.34.23 1.77.69zM80.27 14.2c-.37-.38-.55-.92-.55-1.61V2.67l2.05-.22v10.08c0 .39.16.59.48.59.16 0 .32-.03.48-.08l.43 1.44c-.43.19-.88.29-1.36.29-.65 0-1.16-.19-1.53-.57zM86.76 1.41l.83 1.6-3.62 1.44-.57-1.04 3.36-2zm-.19 4.65v8.46h-2.05V6.06h2.05zM96.15 2.67v11.86h-1.81l-.14-1.07c-.27.41-.61.73-1.02.96-.41.23-.88.35-1.4.35-1.04 0-1.83-.4-2.38-1.2s-.83-1.89-.83-3.26c0-.86.14-1.63.42-2.31s.67-1.21 1.19-1.59c.52-.38 1.12-.58 1.8-.58.81 0 1.52.3 2.13.91V2.45l2.04.22zm-2.83 10.28c.28-.18.54-.45.78-.82V8.26c-.25-.3-.49-.52-.74-.67-.25-.15-.54-.22-.87-.22-.54 0-.97.24-1.29.73-.32.49-.47 1.22-.47 2.2 0 1.05.14 1.79.42 2.25.28.45.68.68 1.22.68.35-.01.67-.1.95-.28zM103.52 6.06c.44.16.86.41 1.26.75l-.91 1.23c-.29-.21-.57-.37-.83-.46s-.56-.14-.88-.14c-1.27 0-1.9.96-1.9 2.9 0 .98.17 1.69.5 2.12.33.43.8.65 1.41.65.3 0 .57-.05.82-.14.25-.1.55-.25.89-.46l.91 1.3c-.8.65-1.71.98-2.74.98-.81 0-1.51-.18-2.11-.54-.6-.36-1.06-.87-1.38-1.53-.32-.66-.48-1.44-.48-2.34 0-.9.16-1.69.48-2.38.32-.69.78-1.22 1.38-1.6.6-.38 1.3-.57 2.1-.57.54-.01 1.04.07 1.48.23zM112.84 10.93h-5.31c.06.82.28 1.41.64 1.76.36.35.84.53 1.44.53.37 0 .72-.06 1.06-.18.33-.12.68-.31 1.06-.57l.85 1.17c-.94.76-1.98 1.14-3.14 1.14-1.29 0-2.29-.39-2.98-1.18-.7-.79-1.05-1.87-1.05-3.23 0-.86.15-1.64.45-2.33.3-.69.73-1.23 1.3-1.62.56-.39 1.24-.58 2.02-.58 1.18 0 2.1.38 2.75 1.13s.98 1.8.98 3.14c-.02.09-.04.37-.07.82zm-1.98-1.43c0-1.48-.55-2.22-1.65-2.22-.5 0-.89.18-1.18.55-.28.37-.45.96-.5 1.77h3.33v-.1zM124.23 6.06v1.47l-4.1 5.39h4.18l-.21 1.6h-6.32v-1.47l4.11-5.39h-3.76v-1.6h6.1zM132.68 10.93h-5.31c.06.82.28 1.41.64 1.76.36.35.84.53 1.44.53.37 0 .72-.06 1.06-.18.33-.12.68-.31 1.06-.57l.85 1.17c-.94.76-1.98 1.14-3.14 1.14-1.29 0-2.29-.39-2.98-1.18-.7-.79-1.05-1.87-1.05-3.23 0-.86.15-1.64.45-2.33.3-.69.73-1.23 1.3-1.62.56-.39 1.24-.58 2.02-.58 1.18 0 2.1.38 2.75 1.13s.98 1.8.98 3.14c-.02.09-.04.37-.07.82zM130.7 9.5c0-1.48-.55-2.22-1.65-2.22-.5 0-.89.18-1.18.55-.28.37-.45.96-.5 1.77h3.33v-.1zM145.18 6.52c.41.46.61 1.09.61 1.88v6.13h-2.05V8.72c0-.91-.31-1.36-.93-1.36-.33 0-.62.1-.86.31s-.49.53-.74.97v5.89h-2.05V8.72c0-.91-.31-1.36-.93-1.36-.34 0-.63.1-.87.31s-.49.53-.74.97v5.89h-2.05V6.06h1.78l.16 1.1c.64-.9 1.46-1.34 2.45-1.34.49 0 .91.12 1.27.38s.62.6.78 1.05c.34-.46.72-.81 1.13-1.06.41-.25.88-.37 1.42-.37.67 0 1.21.24 1.62.7zM152.79 1.73l.78.9-2.22 2h-1.28l-2.22-2 .78-.9 2.08 1.41 2.08-1.41zm.4 4.22l-.35 1.98c-.26-.06-.51-.1-.75-.1-.5 0-.9.18-1.18.54-.29.36-.52.9-.69 1.64v4.51h-2.05V6.06h1.78l.19 1.66c.2-.61.5-1.08.88-1.4s.83-.49 1.33-.49c.3.01.59.05.84.12zM160.89 10.93h-5.31c.06.82.28 1.41.64 1.76.36.35.84.53 1.44.53.37 0 .72-.06 1.06-.18.33-.12.68-.31 1.06-.57l.85 1.17c-.94.76-1.98 1.14-3.14 1.14-1.29 0-2.29-.39-2.98-1.18-.7-.79-1.05-1.87-1.05-3.23 0-.86.15-1.64.45-2.33.3-.69.73-1.23 1.3-1.62s1.24-.58 2.02-.58c1.18 0 2.1.38 2.75 1.13.65.75.98 1.8.98 3.14-.02.09-.04.37-.07.82zM158.9 9.5c0-1.48-.55-2.22-1.65-2.22-.5 0-.89.18-1.18.55-.28.37-.45.96-.5 1.77h3.33v-.1zM163.25 14.2c-.37-.38-.55-.92-.55-1.61V2.67l2.05-.22v10.08c0 .39.16.59.48.59.16 0 .32-.03.48-.08l.43 1.44c-.43.19-.88.29-1.36.29-.66 0-1.16-.19-1.53-.57zM174.31 10.93H169c.06.82.28 1.41.64 1.76.36.35.84.53 1.44.53.37 0 .72-.06 1.06-.18s.68-.31 1.06-.57l.85 1.17c-.94.76-1.98 1.14-3.14 1.14-1.29 0-2.29-.39-2.98-1.18-.7-.79-1.05-1.87-1.05-3.23 0-.86.15-1.64.45-2.33.3-.69.73-1.23 1.3-1.62.56-.39 1.24-.58 2.02-.58 1.18 0 2.1.38 2.75 1.13s.98 1.8.98 3.14c-.02.09-.04.37-.07.82zm-2.41-9.52l.83 1.6-3.62 1.44-.58-1.04 3.37-2zm.43 8.09c0-1.48-.55-2.22-1.65-2.22-.5 0-.89.18-1.18.55-.28.37-.45.96-.5 1.77h3.33v-.1zM182.47 6.51c.43.46.64 1.09.64 1.89v6.13h-2.05V8.72c0-.5-.09-.85-.26-1.06-.18-.2-.43-.3-.78-.3-.34 0-.66.11-.94.33s-.57.53-.83.94v5.9h-2.05V2.69l2.05-.21v4.59c.68-.83 1.5-1.25 2.46-1.25.75 0 1.33.23 1.76.69zM191.87 7.02c.7.79 1.05 1.89 1.05 3.27 0 .89-.16 1.67-.48 2.34-.32.68-.78 1.2-1.38 1.58s-1.31.56-2.13.56c-1.25 0-2.22-.4-2.93-1.19s-1.06-1.89-1.06-3.29c0-.89.16-1.66.48-2.34s.78-1.19 1.38-1.57c.6-.37 1.31-.56 2.14-.56 1.26 0 2.23.4 2.93 1.2zm-4.76 3.27c0 1 .15 1.74.46 2.22.3.47.76.71 1.37.71.61 0 1.06-.24 1.37-.72s.46-1.22.46-2.21-.15-1.73-.46-2.2-.75-.71-1.35-.71c-1.24 0-1.85.97-1.85 2.91z"/><path fill="#fff1e5" d="M172.29 186.1h230.18V52.6H172.14z"/><g><path class="st61" d="M172.29 99.09h230.18M172.29 122.23h230.18M172.29 160.1h230.18M172.29 173.11h230.18"/></g><g><path class="st98" d="M1 145.42h401.47M1 75.7h401.47M172.29 27v159.26M1 27h401.47v159.25H1zM1 52.6h401.47M279.91 27v158.83M330.98 27v159.1"/></g><g><path d="M8.82 40.68c.49.37.74.92.74 1.65 0 .77-.25 1.34-.74 1.72-.49.38-1.15.58-1.97.58h-.81v2.41H4.72v-6.91h2.04c.89 0 1.57.19 2.06.55zm-1 2.67c.24-.2.36-.54.36-1.01 0-.82-.48-1.23-1.43-1.23h-.71v2.54h.71c.47-.01.83-.1 1.07-.3zM13.48 39.04l.49.56-1.39 1.25h-.8l-1.39-1.25.49-.56 1.3.88 1.3-.88zm.25 2.64l-.22 1.24c-.16-.04-.32-.06-.47-.06-.31 0-.56.11-.74.33-.18.22-.32.56-.43 1.02v2.82h-1.28v-5.29h1.11l.12 1.04c.13-.38.31-.67.55-.88s.52-.3.83-.3c.19.01.37.04.53.08zM15.93 38.84l.52 1-2.26.9-.36-.65 2.1-1.25zm-.12 2.91v5.29h-1.28v-5.29h1.28zM20.42 41.75c.28.1.54.26.79.47l-.57.77c-.18-.13-.35-.23-.52-.29-.17-.06-.35-.09-.55-.09-.79 0-1.19.6-1.19 1.81 0 .61.1 1.05.31 1.33.21.27.5.41.88.41.19 0 .36-.03.51-.09.16-.06.34-.16.55-.29l.57.81c-.5.41-1.07.61-1.71.61-.51 0-.95-.11-1.32-.33-.37-.22-.66-.54-.86-.96-.2-.41-.3-.9-.3-1.46 0-.56.1-1.06.3-1.49.2-.43.49-.76.86-1s.81-.36 1.31-.36c.35 0 .66.05.94.15zm.36-2.71l.49.56-1.39 1.25h-.8l-1.39-1.25.49-.56 1.3.88 1.3-.88zM23.35 39.3c.15.15.22.33.22.55 0 .22-.08.4-.22.55-.15.15-.35.22-.58.22-.23 0-.43-.07-.58-.22a.747.747 0 01-.23-.55c0-.22.08-.4.23-.55.15-.15.34-.22.58-.22.23-.01.43.07.58.22zm.06 2.45v5.29h-1.28v-5.29h1.28zM28.88 42.03c.26.28.39.68.39 1.18v3.83h-1.28v-3.63c0-.31-.05-.53-.17-.66-.11-.13-.27-.19-.48-.19-.22 0-.42.07-.59.21-.18.14-.35.33-.52.6v3.68h-1.28v-5.29h1.11l.1.69c.43-.56.97-.84 1.61-.84.47-.01.84.14 1.11.42zM34.77 46.1c.06.1.17.17.3.23l-.27.85c-.3-.03-.54-.1-.73-.22-.19-.12-.33-.3-.44-.55-.18.27-.4.46-.67.59-.27.13-.57.2-.91.2-.53 0-.94-.15-1.25-.45s-.46-.69-.46-1.18c0-.57.21-1.01.62-1.31.42-.3 1.01-.46 1.79-.46h.66v-.3c0-.34-.08-.58-.24-.71-.16-.14-.41-.21-.75-.21-.39 0-.85.09-1.4.28l-.3-.87c.66-.25 1.3-.38 1.92-.38 1.35 0 2.03.61 2.03 1.82v2.22c0 .2.03.35.1.45zm-1.36-.49v-1.07h-.53c-.83 0-1.24.31-1.24.92 0 .25.06.45.19.59.13.14.31.21.56.21.43 0 .77-.21 1.02-.65zM42.27 42.23l-.5.75c-.45-.29-.9-.43-1.33-.43-.25 0-.45.05-.59.15-.14.1-.21.22-.21.38 0 .12.03.22.09.3.06.08.17.16.33.23s.39.15.69.23c.57.15 1 .36 1.28.61s.42.61.42 1.06c0 .53-.21.94-.64 1.24s-.96.45-1.59.45c-.43 0-.83-.07-1.18-.2-.36-.13-.67-.32-.92-.55l.64-.72c.46.35.94.52 1.44.52.29 0 .51-.06.68-.17s.25-.27.25-.47c0-.15-.03-.27-.09-.36s-.18-.17-.34-.24c-.16-.07-.42-.16-.77-.25-.54-.15-.94-.35-1.19-.62-.25-.26-.38-.59-.38-.99 0-.29.08-.56.25-.79.17-.23.41-.42.72-.55.31-.13.67-.2 1.07-.2.7-.01 1.33.2 1.87.62zM50.11 42.04c.25.29.38.68.38 1.17v3.83h-1.28v-3.63c0-.57-.19-.85-.58-.85a.82.82 0 00-.54.2c-.15.13-.3.33-.46.61v3.68h-1.28v-3.63c0-.57-.19-.85-.58-.85a.8.8 0 00-.54.2c-.15.13-.3.33-.46.61v3.68h-1.28v-5.29h1.11l.1.69c.4-.56.91-.84 1.53-.84.31 0 .57.08.79.24.22.16.39.38.49.66.21-.29.45-.51.71-.66s.55-.23.88-.23c.42-.03.76.12 1.01.41zM55.12 41.68l-.22 1.24c-.16-.04-.32-.06-.47-.06-.31 0-.56.11-.74.33-.18.22-.32.56-.43 1.02v2.82h-1.28v-5.29h1.11l.12 1.04c.13-.38.31-.67.55-.88s.52-.3.83-.3c.19.01.37.04.53.08zM58.95 46.79c-.19.13-.39.23-.62.3-.23.07-.46.1-.71.1-.52-.01-.92-.16-1.18-.45-.27-.29-.41-.72-.41-1.29v-2.79h-.83v-.92h.83v-1.17l1.28-.15v1.32h1.23l-.13.92h-1.1v2.76c0 .26.04.45.13.56s.23.17.42.17.4-.06.63-.19l.46.83zM60.89 39.3c.15.15.22.33.22.55 0 .22-.08.4-.22.55-.15.15-.35.22-.58.22-.23 0-.43-.07-.58-.22a.747.747 0 01-.23-.55c0-.22.08-.4.23-.55.15-.15.34-.22.58-.22.23-.01.43.07.58.22zm.06 2.45v5.29h-1.28v-5.29h1.28z"/></g><g><path d="M5.13 56.08v6.85h-.58v-6.85h.58zM7.42 62.26c.09.09.13.2.13.33s-.04.23-.13.32-.2.14-.33.14-.24-.04-.33-.14a.472.472 0 01-.12-.32c0-.13.04-.24.12-.33.08-.09.19-.13.33-.13.13-.01.24.04.33.13zM15.63 62.93h-.76l-2.86-6.2c.05.61.08 1.39.08 2.33v3.87h-.55v-6.85h.76l2.86 6.21c-.05-.8-.08-1.47-.08-2.02v-4.19h.55v6.85zM20.91 60.54h-3.15c.03.7.17 1.21.43 1.53.26.32.6.49 1.03.49.25 0 .46-.04.65-.12.19-.08.39-.21.6-.38l.28.35c-.23.21-.47.36-.72.47s-.53.16-.83.16c-.63 0-1.12-.23-1.48-.7-.36-.47-.54-1.13-.54-1.98 0-.87.17-1.54.51-2.04.34-.49.81-.73 1.41-.73.59 0 1.05.22 1.36.66.31.44.47 1.06.47 1.87 0 .15-.01.29-.02.42zm-.53-.6c0-.61-.11-1.07-.32-1.39-.21-.32-.53-.49-.96-.49-.39 0-.7.16-.94.49-.24.33-.37.84-.4 1.55h2.62v-.16zM27.9 58.01c.22.28.33.66.33 1.13v3.79h-.55v-3.71c0-.39-.07-.69-.21-.88a.68.68 0 00-.58-.29c-.26 0-.5.09-.71.29-.21.19-.41.46-.61.79v3.8h-.55v-3.71c0-.39-.07-.69-.21-.88s-.33-.29-.58-.29c-.26 0-.49.09-.7.29-.21.19-.41.46-.61.79v3.8h-.56V57.7h.48l.05.87c.4-.65.88-.98 1.44-.98.3 0 .55.09.75.27.2.18.34.43.42.75.41-.68.9-1.02 1.47-1.02.41 0 .71.14.93.42zM33.19 58.29c.35.47.53 1.14.53 2.01 0 .86-.18 1.53-.54 2.01-.36.48-.85.73-1.48.73s-1.12-.24-1.47-.72c-.35-.48-.53-1.14-.53-2 0-.86.18-1.53.54-2.01.36-.48.85-.72 1.47-.72.63 0 1.13.24 1.48.7zm-2.53.34c-.25.37-.37.93-.37 1.69 0 .75.12 1.32.37 1.69.24.37.59.56 1.04.56.45 0 .8-.19 1.05-.56.25-.37.37-.94.37-1.71 0-.75-.12-1.31-.36-1.68-.24-.37-.59-.55-1.05-.55-.45 0-.8.19-1.05.56zM37.59 57.72c.21.08.42.22.62.41l-.28.36a1.433 1.433 0 00-1.04-.41c-.44 0-.79.19-1.04.57s-.38.95-.38 1.71c0 .75.13 1.31.38 1.67.25.36.6.54 1.05.54.21 0 .39-.04.56-.11.17-.07.34-.17.51-.31l.28.35c-.39.37-.85.56-1.36.56-.63 0-1.12-.23-1.48-.7-.36-.46-.54-1.13-.54-2 0-.87.18-1.54.54-2.03.36-.49.85-.73 1.47-.73.26-.01.5.04.71.12zM43.43 54.8c-.33.53-.58 1-.78 1.41-.19.4-.34.87-.46 1.39-.12.52-.17 1.13-.17 1.83s.06 1.31.17 1.83c.12.52.27.99.46 1.39.19.4.45.87.78 1.41l-.36.24c-.37-.56-.66-1.05-.88-1.47s-.39-.91-.54-1.47c-.14-.56-.21-1.2-.21-1.93s.07-1.37.21-1.93c.14-.56.32-1.05.54-1.47s.51-.91.88-1.47l.36.24zM46.82 57.74c.24.1.47.24.7.44l-.26.36c-.21-.17-.42-.29-.61-.36-.19-.08-.4-.12-.62-.12-.31 0-.56.08-.75.24a.82.82 0 00-.29.66c0 .25.08.44.25.59.17.14.47.28.9.42.54.17.93.38 1.16.6.23.23.35.55.35.96 0 .46-.16.83-.49 1.1-.33.27-.74.41-1.23.41-.35 0-.67-.06-.94-.18-.27-.12-.53-.28-.76-.49l.31-.34c.21.18.43.32.64.41s.46.13.75.13c.34 0 .62-.09.83-.27s.31-.43.31-.75c0-.21-.04-.38-.1-.51a.9.9 0 00-.37-.35c-.18-.1-.43-.2-.76-.31-.51-.16-.87-.35-1.08-.57-.22-.22-.33-.5-.33-.85 0-.26.07-.49.21-.7.14-.21.33-.37.58-.49.24-.12.51-.18.8-.18.29 0 .56.05.8.15zM51.21 62.71c-.31.22-.64.33-1 .33-.37 0-.65-.11-.86-.33-.21-.22-.31-.53-.31-.93v-3.62h-.79v-.46h.79v-1.25l.56-.07v1.32h1.21l-.07.46H49.6v3.6c0 .53.22.8.67.8.23 0 .46-.07.71-.22l.23.37zM55.19 62.39c.06.11.16.2.3.26l-.13.39c-.22-.05-.39-.15-.51-.28s-.2-.32-.24-.58c-.34.57-.82.85-1.45.85-.45 0-.81-.14-1.08-.43-.26-.28-.39-.66-.39-1.13 0-.55.18-.96.53-1.25.35-.29.85-.43 1.49-.43h.83v-.56c0-.4-.08-.69-.25-.88-.17-.19-.43-.29-.8-.29-.38 0-.81.1-1.3.3l-.16-.42c.55-.23 1.06-.35 1.52-.35.53 0 .92.14 1.17.41.25.27.38.67.38 1.19v2.67c0 .24.03.42.09.53zm-.65-.76V60.2h-.76c-1 0-1.5.42-1.5 1.26 0 .37.08.65.25.84s.41.29.71.29c.58 0 1.01-.32 1.3-.96zM60.17 57.7l-1.62 5.23h-.68l-1.68-5.23h.6l1.42 4.74 1.38-4.74h.58zM62.02 56.04c.22.42.39.9.54 1.46.14.56.21 1.2.21 1.93s-.07 1.37-.21 1.93c-.14.56-.32 1.05-.54 1.46-.22.42-.51.91-.88 1.48l-.37-.24c.33-.53.59-1 .78-1.41s.35-.87.46-1.39c.12-.52.17-1.13.17-1.83s-.06-1.31-.17-1.84c-.12-.53-.27-.99-.46-1.38s-.45-.87-.78-1.41l.37-.24c.38.57.67 1.06.88 1.48zM64.54 62.25c.08.09.12.2.12.33 0 .07-.01.16-.04.25s-.06.19-.1.29l-.51 1.31h-.39l.38-1.45a.45.45 0 01-.23-.4.445.445 0 01.45-.46c.13 0 .24.05.32.13zM69.18 55.5v7.43h-.56v-7.36l.56-.07zm2.65 2.2l-1.97 2.34 2.18 2.89h-.65l-2.15-2.86 1.97-2.37h.62zM75.22 62.71c-.31.22-.64.33-1 .33-.37 0-.65-.11-.86-.33-.21-.22-.31-.53-.31-.93v-3.62h-.79v-.46h.79v-1.25l.56-.07v1.32h1.21l-.07.46h-1.14v3.6c0 .53.22.8.67.8.23 0 .46-.07.71-.22l.23.37zM79.5 60.54h-3.15c.03.7.17 1.21.43 1.53.26.32.6.49 1.03.49.25 0 .46-.04.65-.12.19-.08.39-.21.6-.38l.28.35c-.23.21-.47.36-.72.47s-.53.16-.83.16c-.63 0-1.12-.23-1.48-.7-.36-.47-.54-1.13-.54-1.98 0-.87.17-1.54.51-2.04.34-.49.81-.73 1.41-.73.59 0 1.05.22 1.36.66.31.44.47 1.06.47 1.87 0 .15-.01.29-.02.42zm-.53-.6c0-.61-.11-1.07-.32-1.39-.21-.32-.53-.49-.96-.49-.39 0-.7.16-.94.49-.24.33-.37.84-.4 1.55h2.62v-.16zM83.31 57.65l-.11.53c-.12-.04-.25-.06-.4-.06-.32 0-.58.13-.77.38-.2.26-.36.66-.49 1.19v3.23h-.56V57.7h.48l.04 1.12c.13-.41.31-.72.53-.92.22-.2.49-.3.82-.3.15-.01.3.01.46.05zM85.92 62.95c-.18.6-.41 1.06-.69 1.37-.28.31-.7.53-1.25.66l-.07-.44c.31-.09.56-.19.74-.32.18-.13.32-.29.43-.48s.22-.46.33-.8h-.2l-1.63-5.23h.58l1.42 4.81 1.38-4.81h.58l-1.62 5.24zm.31-7.81l.26.49-1.77.84-.18-.31 1.69-1.02zM90.15 54.8c-.33.53-.58 1-.78 1.41-.19.4-.34.87-.46 1.39-.12.52-.17 1.13-.17 1.83s.06 1.31.17 1.83c.12.52.27.99.46 1.39.19.4.45.87.78 1.41l-.36.24c-.37-.56-.66-1.05-.88-1.47s-.39-.91-.54-1.47c-.14-.56-.21-1.2-.21-1.93s.07-1.37.21-1.93c.14-.56.32-1.05.54-1.47s.51-.91.88-1.47l.36.24zM94.61 62.39c.06.11.16.2.3.26l-.13.39c-.22-.05-.39-.15-.51-.28s-.2-.32-.24-.58c-.34.57-.82.85-1.45.85-.45 0-.81-.14-1.08-.43-.26-.28-.39-.66-.39-1.13 0-.55.18-.96.53-1.25.35-.29.85-.43 1.49-.43h.83v-.56c0-.4-.08-.69-.25-.88-.17-.19-.43-.29-.8-.29-.38 0-.81.1-1.3.3l-.16-.42c.55-.23 1.06-.35 1.52-.35.53 0 .92.14 1.17.41.25.27.38.67.38 1.19v2.67c0 .24.03.42.09.53zm-.65-.76V60.2h-.76c-1 0-1.5.42-1.5 1.26 0 .37.08.65.25.84s.41.29.71.29c.58 0 1.01-.32 1.3-.96zm-.35-6.49l.26.49-1.77.84-.18-.31 1.69-1.02zM97.15 56.04c.22.42.39.9.54 1.46.14.56.21 1.2.21 1.93s-.07 1.37-.21 1.93c-.14.56-.32 1.05-.54 1.46-.22.42-.51.91-.88 1.48l-.37-.24c.33-.53.59-1 .78-1.41s.35-.87.46-1.39c.12-.52.17-1.13.17-1.83s-.06-1.31-.17-1.84c-.12-.53-.27-.99-.46-1.38s-.45-.87-.78-1.41l.37-.24c.38.57.67 1.06.88 1.48zM105.04 58.28c.29.46.43 1.13.43 2.01 0 .87-.16 1.54-.47 2.02s-.76.73-1.33.73c-.28 0-.53-.07-.76-.2s-.42-.3-.57-.51v2.57l-.56.08V57.7h.49l.04.75c.39-.57.87-.86 1.45-.86.57 0 .99.23 1.28.69zm-.16 2.01c0-.76-.1-1.32-.31-1.69-.2-.36-.5-.54-.9-.54-.27 0-.52.08-.73.24-.21.16-.41.38-.59.65v2.83c.33.52.75.78 1.24.78.86 0 1.29-.75 1.29-2.27zM109.26 55.26l.24.27-1.16 1.07h-.35l-1.17-1.07.25-.27 1.1.85 1.09-.85zm.08 2.39l-.11.53c-.12-.04-.25-.06-.4-.06-.32 0-.58.13-.77.38-.2.26-.36.66-.49 1.19v3.23h-.56V57.7h.48l.04 1.12c.13-.41.31-.72.53-.92.22-.2.49-.3.82-.3.15-.01.3.01.46.05zM111.33 55.14l.26.49-1.77.84-.18-.31 1.69-1.02zm-.38 2.56v5.23h-.56V57.7h.56zM118.34 58.01c.22.28.33.66.33 1.13v3.79h-.55v-3.71c0-.39-.07-.69-.21-.88a.68.68 0 00-.58-.29c-.26 0-.5.09-.71.29-.21.19-.41.46-.61.79v3.8h-.55v-3.71c0-.39-.07-.69-.21-.88s-.33-.29-.58-.29c-.26 0-.49.09-.7.29-.21.19-.41.46-.61.79v3.8h-.56V57.7h.48l.05.87c.4-.65.88-.98 1.44-.98.3 0 .55.09.75.27.2.18.34.43.42.75.41-.68.9-1.02 1.47-1.02.41 0 .71.14.93.42zM123.63 58.29c.35.47.53 1.14.53 2.01 0 .86-.18 1.53-.54 2.01-.36.48-.85.73-1.48.73s-1.12-.24-1.47-.72c-.35-.48-.53-1.14-.53-2 0-.86.18-1.53.54-2.01.36-.48.85-.72 1.47-.72.63 0 1.13.24 1.48.7zm-2.53.34c-.25.37-.37.93-.37 1.69 0 .75.12 1.32.37 1.69.24.37.59.56 1.04.56.45 0 .8-.19 1.05-.56.25-.37.37-.94.37-1.71 0-.75-.12-1.31-.36-1.68-.24-.37-.59-.55-1.05-.55-.45 0-.81.19-1.05.56zM131.36 57.7l-1.62 5.23h-.68l-1.68-5.23h.6l1.42 4.74 1.38-4.74h.58zM135.81 60.54h-3.15c.03.7.17 1.21.43 1.53.26.32.6.49 1.03.49.25 0 .46-.04.65-.12.19-.08.39-.21.6-.38l.28.35c-.23.21-.47.36-.72.47s-.53.16-.83.16c-.63 0-1.12-.23-1.48-.7-.36-.47-.54-1.13-.54-1.98 0-.87.17-1.54.51-2.04.34-.49.81-.73 1.41-.73.59 0 1.05.22 1.36.66.31.44.47 1.06.47 1.87 0 .15-.01.29-.02.42zm-.53-.6c0-.61-.11-1.07-.32-1.39-.21-.32-.53-.49-.96-.49-.39 0-.7.16-.94.49-.24.33-.37.84-.4 1.55h2.62v-.16zM140.67 55.57v7.36h-.49l-.05-.78c-.15.27-.35.49-.58.65-.23.16-.5.24-.83.24-.56 0-1-.24-1.31-.72-.32-.48-.48-1.14-.48-1.98 0-.55.08-1.03.23-1.45.15-.42.37-.74.65-.96.28-.23.61-.34.98-.34.53 0 .97.23 1.31.7V55.5l.57.07zm-1.12 6.76c.21-.16.39-.4.56-.72v-2.75c-.33-.53-.74-.8-1.22-.8-.42 0-.75.2-1 .58-.24.39-.36.95-.35 1.69 0 .74.11 1.3.33 1.67.22.38.53.56.93.56.29.01.54-.07.75-.23zM142.73 62.8c-.15-.16-.23-.39-.23-.69v-6.54l.56-.07v6.6c0 .31.13.46.38.46.11 0 .21-.02.32-.07l.14.41c-.16.09-.34.14-.55.14-.26 0-.47-.08-.62-.24zM146.63 54.8c-.33.53-.58 1-.78 1.41-.19.4-.34.87-.46 1.39-.12.52-.17 1.13-.17 1.83s.06 1.31.17 1.83c.12.52.27.99.46 1.39.19.4.45.87.78 1.41l-.36.24c-.37-.56-.66-1.05-.88-1.47s-.39-.91-.54-1.47c-.14-.56-.21-1.2-.21-1.93s.07-1.37.21-1.93c.14-.56.32-1.05.54-1.47s.51-.91.88-1.47l.36.24zM151.09 62.39c.06.11.16.2.3.26l-.13.39c-.22-.05-.39-.15-.51-.28s-.2-.32-.24-.58c-.34.57-.82.85-1.45.85-.45 0-.81-.14-1.08-.43-.26-.28-.39-.66-.39-1.13 0-.55.18-.96.53-1.25.35-.29.85-.43 1.49-.43h.83v-.56c0-.4-.08-.69-.25-.88-.17-.19-.43-.29-.8-.29-.38 0-.81.1-1.3.3l-.16-.42c.55-.23 1.06-.35 1.52-.35.53 0 .92.14 1.17.41.25.27.38.67.38 1.19v2.67c0 .24.03.42.09.53zm-.65-.76V60.2h-.76c-1 0-1.5.42-1.5 1.26 0 .37.08.65.25.84s.41.29.71.29c.58 0 1.01-.32 1.3-.96zM153.63 56.04c.22.42.39.9.54 1.46.14.56.21 1.2.21 1.93s-.07 1.37-.21 1.93c-.14.56-.32 1.05-.54 1.46-.22.42-.51.91-.88 1.48l-.37-.24c.33-.53.59-1 .78-1.41s.35-.87.46-1.39c.12-.52.17-1.13.17-1.83s-.06-1.31-.17-1.84c-.12-.53-.27-.99-.46-1.38s-.45-.87-.78-1.41l.37-.24c.37.57.67 1.06.88 1.48zM5.07 64.44v7.43h-.56v-7.36l.56-.07zm2.65 2.2l-1.97 2.34 2.18 2.89h-.65l-2.15-2.86 1.97-2.37h.62zM12.29 69.48H9.14c.03.7.17 1.21.43 1.53.26.32.6.49 1.03.49.25 0 .46-.04.65-.12.19-.08.39-.21.6-.38l.28.35c-.23.21-.47.36-.72.47s-.53.16-.83.16c-.63 0-1.12-.23-1.48-.7-.36-.47-.54-1.13-.54-1.98 0-.87.17-1.54.51-2.04.34-.49.81-.73 1.41-.73.59 0 1.05.22 1.36.66.31.44.47 1.06.47 1.87 0 .15-.01.29-.02.42zm-.53-.6c0-.61-.11-1.07-.32-1.39-.21-.33-.53-.49-.96-.49-.39 0-.7.16-.94.49-.24.33-.37.84-.4 1.55h2.62v-.16zM18.25 66.68c.24.1.47.24.7.44l-.26.36c-.21-.17-.42-.29-.61-.36-.19-.08-.4-.12-.62-.12-.31 0-.56.08-.75.24a.82.82 0 00-.29.66c0 .25.08.44.25.59.17.14.47.28.9.42.54.17.93.38 1.16.6.23.23.35.55.35.96 0 .46-.16.83-.49 1.1-.33.27-.74.41-1.23.41-.35 0-.67-.06-.94-.18-.27-.12-.53-.28-.76-.49l.31-.34c.21.18.43.32.64.41s.46.13.75.13c.34 0 .62-.09.83-.27s.31-.43.31-.75c0-.21-.04-.38-.1-.51a.9.9 0 00-.37-.35c-.18-.1-.43-.2-.76-.31-.51-.16-.87-.35-1.08-.57-.22-.22-.33-.5-.33-.85 0-.26.07-.49.21-.7.14-.21.33-.37.58-.49.24-.12.51-.18.8-.18.29 0 .56.05.8.15zM25.97 66.95c.22.28.33.66.33 1.13v3.79h-.55v-3.71c0-.39-.07-.69-.21-.88a.68.68 0 00-.58-.29c-.26 0-.5.09-.71.29-.21.19-.41.46-.61.79v3.8h-.55v-3.71c0-.39-.07-.69-.21-.88s-.33-.29-.58-.29c-.26 0-.49.09-.7.29-.21.19-.41.46-.61.79v3.8h-.56v-5.23h.48l.05.87c.4-.65.88-.98 1.44-.98.3 0 .55.09.75.27.2.18.34.43.42.75.41-.68.9-1.02 1.47-1.02.41 0 .71.14.93.42zM30.47 66.59l-.11.53c-.12-.04-.25-.06-.4-.06-.32 0-.58.13-.77.38-.2.26-.36.66-.49 1.19v3.23h-.56v-5.23h.48l.04 1.12c.13-.41.31-.72.53-.92.22-.2.49-.3.82-.3.15 0 .3.02.46.06zM33.7 71.65c-.31.22-.64.33-1 .33-.37 0-.65-.11-.86-.33-.21-.22-.31-.53-.31-.93V67.1h-.79v-.46h.79v-1.25l.56-.07v1.32h1.21l-.07.46h-1.14v3.6c0 .53.22.8.67.8.23 0 .46-.07.71-.22l.23.37zM35.19 64.47a.4.4 0 01.12.29c0 .12-.04.22-.12.29-.08.08-.17.12-.29.12s-.22-.04-.29-.12a.385.385 0 01-.12-.29.4.4 0 01.12-.29c.08-.08.17-.12.29-.12s.22.04.29.12zm-.01 2.17v5.23h-.56v-5.23h.56zM41.06 63.74c-.33.53-.58 1-.78 1.41-.19.4-.34.87-.46 1.39-.12.52-.17 1.13-.17 1.83s.06 1.31.17 1.83c.12.52.27.99.46 1.39.19.4.45.87.78 1.41l-.36.24c-.37-.56-.66-1.05-.88-1.47s-.39-.91-.54-1.47c-.14-.56-.21-1.2-.21-1.93s.07-1.37.21-1.93c.14-.56.32-1.05.54-1.47s.51-.91.88-1.47l.36.24zM45.7 67.22c.3.46.45 1.13.45 2.02 0 .87-.16 1.54-.47 2.02-.32.48-.76.73-1.33.73-.28 0-.53-.07-.76-.21-.23-.14-.42-.33-.59-.56l-.05.66h-.49v-7.36l.56-.07v2.93c.37-.56.84-.84 1.41-.84.55-.01.97.22 1.27.68zm-.49 3.73c.22-.37.33-.95.33-1.72s-.1-1.34-.31-1.7c-.2-.35-.5-.53-.9-.53-.28 0-.52.08-.73.24-.21.16-.4.38-.58.66v2.78c.35.55.76.83 1.24.83.41 0 .73-.18.95-.56zM51.04 69.48h-3.15c.03.7.17 1.21.43 1.53.26.32.6.49 1.03.49.25 0 .46-.04.65-.12.19-.08.39-.21.6-.38l.28.35c-.23.21-.47.36-.72.47s-.53.16-.83.16c-.63 0-1.12-.23-1.48-.7-.36-.47-.54-1.13-.54-1.98 0-.87.17-1.54.51-2.04.34-.49.81-.73 1.41-.73.59 0 1.05.22 1.36.66.31.44.47 1.06.47 1.87 0 .15-.01.29-.02.42zm-.53-.6c0-.61-.11-1.07-.32-1.39-.22-.33-.53-.49-.96-.49-.39 0-.7.16-.94.49-.24.33-.37.84-.4 1.55h2.62v-.16zM55.09 66.64v.44l-2.64 4.3h2.63l-.06.49h-3.2v-.43l2.65-4.31h-2.43v-.49h3.05zM59.58 67.22c.29.46.43 1.13.43 2.01 0 .87-.16 1.54-.47 2.02s-.76.73-1.33.73c-.28 0-.53-.07-.76-.2s-.42-.3-.57-.51v2.57l-.56.08v-7.28h.49l.04.75c.39-.57.87-.86 1.45-.86.57 0 .99.23 1.28.69zm-.16 2.01c0-.76-.1-1.32-.31-1.69-.2-.36-.5-.54-.9-.54-.27 0-.52.08-.73.24-.21.16-.41.38-.59.65v2.83c.33.52.75.78 1.24.78.86 0 1.29-.75 1.29-2.27zM63.88 66.59l-.11.53c-.12-.04-.25-.06-.4-.06-.32 0-.58.13-.77.38-.2.26-.36.66-.49 1.19v3.23h-.56v-5.23h.48l.04 1.12c.13-.41.31-.72.53-.92.22-.2.49-.3.82-.3.14 0 .3.02.46.06zM68.05 67.23c.35.47.53 1.14.53 2.01 0 .86-.18 1.53-.54 2.01-.36.48-.85.73-1.48.73s-1.12-.24-1.47-.72c-.35-.48-.53-1.14-.53-2 0-.86.18-1.53.54-2.01.36-.48.85-.72 1.47-.72.63 0 1.12.24 1.48.7zm-2.53.34c-.25.37-.37.93-.37 1.69 0 .75.12 1.32.37 1.69.24.37.59.56 1.04.56.45 0 .8-.19 1.05-.56.25-.37.37-.94.37-1.71 0-.75-.12-1.31-.36-1.68-.24-.37-.59-.55-1.05-.55-.46 0-.81.19-1.05.56zM72.08 66.68c.24.1.47.24.7.44l-.26.36c-.21-.17-.42-.29-.61-.36-.19-.08-.4-.12-.62-.12-.31 0-.56.08-.75.24a.82.82 0 00-.29.66c0 .25.08.44.25.59.17.14.47.28.9.42.54.17.93.38 1.16.6.23.23.35.55.35.96 0 .46-.16.83-.49 1.1-.33.27-.74.41-1.23.41-.35 0-.67-.06-.94-.18-.27-.12-.53-.28-.76-.49l.31-.34c.21.18.43.32.64.41s.46.13.75.13c.34 0 .62-.09.83-.27s.31-.43.31-.75c0-.21-.04-.38-.1-.51a.9.9 0 00-.37-.35c-.18-.1-.43-.2-.76-.31-.51-.16-.87-.35-1.08-.57-.22-.22-.33-.5-.33-.85 0-.26.07-.49.21-.7.14-.21.33-.37.58-.49.24-.12.51-.18.8-.18.29 0 .56.05.8.15zM76.47 71.65c-.31.22-.64.33-1 .33-.37 0-.65-.11-.86-.33-.21-.22-.31-.53-.31-.93V67.1h-.79v-.46h.79v-1.25l.56-.07v1.32h1.21l-.07.46h-1.14v3.6c0 .53.22.8.67.8.23 0 .46-.07.71-.22l.23.37zM79.64 64.2l.24.27-1.16 1.07h-.35l-1.17-1.07.25-.27 1.1.85 1.09-.85zm.08 2.39l-.11.53c-.12-.04-.25-.06-.4-.06-.32 0-.58.13-.77.38-.2.26-.36.66-.49 1.19v3.23h-.56v-5.23h.48l.04 1.12c.13-.41.31-.72.53-.92.22-.2.49-.3.82-.3.14 0 .3.02.46.06zM84.13 69.48h-3.15c.03.7.17 1.21.43 1.53.26.32.6.49 1.03.49.25 0 .46-.04.65-.12.19-.08.39-.21.6-.38l.28.35c-.23.21-.47.36-.72.47s-.53.16-.83.16c-.63 0-1.12-.23-1.48-.7-.36-.47-.54-1.13-.54-1.98 0-.87.17-1.54.51-2.04.34-.49.81-.73 1.41-.73.59 0 1.05.22 1.36.66.31.44.47 1.06.47 1.87 0 .15-.01.29-.02.42zm-.53-.6c0-.61-.11-1.07-.32-1.39-.22-.33-.54-.49-.96-.49-.39 0-.7.16-.94.49-.24.33-.37.84-.4 1.55h2.62v-.16zM88.99 64.51v7.36h-.49l-.05-.78c-.15.27-.35.49-.58.65-.23.16-.5.24-.83.24-.56 0-1-.24-1.31-.72-.32-.48-.48-1.14-.48-1.98 0-.55.08-1.03.23-1.45.15-.42.37-.74.65-.96.28-.23.61-.34.98-.34.53 0 .97.23 1.31.7v-2.79l.57.07zm-1.12 6.76c.21-.16.39-.4.56-.72V67.8c-.33-.53-.74-.8-1.22-.8-.42 0-.75.2-1 .58-.24.39-.36.95-.35 1.69 0 .74.11 1.3.33 1.67.22.38.53.56.93.56.29.01.54-.07.75-.23zM93.95 66.94c.23.27.34.65.34 1.14v3.79h-.56v-3.71c0-.4-.07-.7-.21-.88-.14-.19-.36-.29-.64-.29-.29 0-.55.1-.78.29s-.46.47-.67.82v3.77h-.56v-5.23h.48l.06.91c.41-.68.94-1.02 1.57-1.02.42 0 .74.14.97.41zM97.07 64.08l.26.49-1.77.84-.18-.31 1.69-1.02zm-.38 2.56v5.23h-.56v-5.23h.56zM104.31 67.22c.29.46.43 1.13.43 2.01 0 .87-.16 1.54-.47 2.02s-.76.73-1.33.73c-.28 0-.53-.07-.76-.2s-.42-.3-.57-.51v2.57l-.56.08v-7.28h.49l.04.75c.39-.57.87-.86 1.45-.86.57 0 .99.23 1.28.69zm-.16 2.01c0-.76-.1-1.32-.31-1.69-.2-.36-.5-.54-.9-.54-.27 0-.52.08-.73.24-.21.16-.41.38-.59.65v2.83c.33.52.75.78 1.24.78.86 0 1.29-.75 1.29-2.27zM108.53 64.2l.24.27-1.16 1.07h-.35l-1.17-1.07.25-.27 1.1.85 1.09-.85zm.08 2.39l-.11.53c-.12-.04-.25-.06-.4-.06-.32 0-.58.13-.77.38-.2.26-.36.66-.49 1.19v3.23h-.56v-5.23h.48l.04 1.12c.13-.41.31-.72.53-.92.22-.2.49-.3.82-.3.14 0 .3.02.46.06zM110.6 64.08l.26.49-1.77.84-.18-.31 1.69-1.02zm-.38 2.56v5.23h-.56v-5.23h.56zM114.46 66.66c.21.08.42.22.62.41l-.28.36a1.433 1.433 0 00-1.04-.41c-.44 0-.79.19-1.04.57s-.38.95-.38 1.71c0 .75.13 1.31.38 1.67.25.36.6.54 1.05.54.21 0 .39-.04.56-.11.17-.07.34-.17.51-.31l.28.35c-.39.37-.85.56-1.36.56-.63 0-1.12-.23-1.48-.7-.36-.46-.54-1.13-.54-2 0-.87.18-1.54.54-2.03.36-.49.85-.73 1.47-.73.25-.01.49.03.71.12zm.37-2.46l.24.27-1.16 1.07h-.35l-1.17-1.07.25-.27 1.1.85 1.09-.85zM116.87 64.47a.4.4 0 01.12.29c0 .12-.04.22-.12.29-.08.08-.17.12-.29.12s-.22-.04-.29-.12a.385.385 0 01-.12-.29.4.4 0 01.12-.29c.08-.08.17-.12.29-.12s.21.04.29.12zm-.01 2.17v5.23h-.56v-5.23h.56zM121.82 66.94c.23.27.34.65.34 1.14v3.79h-.56v-3.71c0-.4-.07-.7-.21-.88-.14-.19-.36-.29-.64-.29-.29 0-.55.1-.78.29s-.46.47-.67.82v3.77h-.56v-5.23h.48l.06.91c.41-.68.94-1.02 1.57-1.02.41 0 .74.14.97.41zM127.05 71.33c.06.11.16.2.3.26l-.13.39c-.22-.05-.39-.15-.51-.28s-.2-.32-.24-.58c-.34.57-.82.85-1.45.85-.45 0-.81-.14-1.08-.43-.26-.28-.39-.66-.39-1.13 0-.55.18-.96.53-1.25.35-.29.85-.43 1.49-.43h.83v-.56c0-.4-.08-.69-.25-.88-.17-.19-.43-.29-.8-.29-.38 0-.81.1-1.3.3l-.16-.42c.55-.23 1.06-.35 1.52-.35.53 0 .92.14 1.17.41.25.27.38.67.38 1.19v2.67c0 .24.04.42.09.53zm-.65-.76v-1.43h-.76c-1 0-1.5.42-1.5 1.26 0 .37.08.65.25.84s.41.29.71.29c.58 0 1.01-.32 1.3-.96zM129.6 64.98c.22.42.39.9.54 1.46.14.56.21 1.2.21 1.93s-.07 1.37-.21 1.93c-.14.56-.32 1.05-.54 1.46-.22.42-.51.91-.88 1.48l-.37-.24c.33-.53.59-1 .78-1.41s.35-.87.46-1.39c.12-.52.17-1.13.17-1.83s-.06-1.31-.17-1.84c-.12-.53-.27-.99-.46-1.38s-.45-.87-.78-1.41l.37-.24c.37.57.66 1.06.88 1.48z"/></g><g><path d="M181.43 64.88c.06.11.16.2.3.26l-.13.39c-.22-.05-.39-.15-.51-.28s-.2-.32-.24-.58c-.34.57-.82.85-1.45.85-.45 0-.81-.14-1.08-.43-.26-.28-.39-.66-.39-1.13 0-.55.18-.96.53-1.25.35-.29.85-.43 1.49-.43h.83v-.56c0-.4-.08-.69-.25-.88-.17-.19-.43-.29-.8-.29-.38 0-.81.1-1.3.3l-.16-.42c.55-.23 1.06-.35 1.52-.35.53 0 .92.14 1.17.41.25.27.38.67.38 1.19v2.67c0 .24.03.42.09.53zm-.65-.76v-1.43h-.76c-1 0-1.5.42-1.5 1.26 0 .37.08.65.25.84s.41.29.71.29c.58 0 1.01-.32 1.3-.96zM183.98 58.53c.22.42.39.9.54 1.46.14.56.21 1.2.21 1.93s-.07 1.37-.21 1.93c-.14.56-.32 1.05-.54 1.46-.22.42-.51.91-.88 1.48l-.37-.24c.33-.53.59-1 .78-1.41s.35-.87.46-1.39c.12-.52.17-1.13.17-1.83s-.06-1.31-.17-1.84c-.12-.53-.27-.99-.46-1.38s-.45-.87-.78-1.41l.37-.24c.37.57.66 1.06.88 1.48z"/></g><g><path d="M181.61 84.1c.3.46.45 1.13.45 2.02 0 .87-.16 1.54-.47 2.02-.32.48-.76.73-1.33.73-.28 0-.53-.07-.76-.21-.23-.14-.42-.33-.59-.56l-.05.66h-.49V81.4l.56-.07v2.93c.37-.56.84-.84 1.41-.84.55-.01.97.22 1.27.68zm-.48 3.73c.22-.37.33-.95.33-1.72s-.1-1.34-.31-1.7c-.21-.36-.51-.54-.91-.54-.28 0-.52.08-.73.24-.21.16-.4.38-.58.66v2.78c.35.55.76.83 1.24.83.42.01.73-.17.96-.55zM184.36 81.86c.22.42.39.9.54 1.46.14.56.21 1.2.21 1.93s-.07 1.37-.21 1.93c-.14.56-.32 1.05-.54 1.46-.22.42-.51.91-.88 1.48l-.37-.24c.33-.53.59-1 .78-1.41s.35-.87.46-1.39c.12-.52.17-1.13.17-1.83s-.06-1.31-.17-1.84c-.12-.53-.27-.99-.46-1.38s-.45-.87-.78-1.41l.37-.24c.37.57.66 1.06.88 1.48z"/></g><g><path d="M180.73 106.86c.21.08.42.22.62.41l-.28.36a1.433 1.433 0 00-1.04-.41c-.44 0-.79.19-1.04.57s-.38.95-.38 1.71c0 .75.13 1.31.38 1.67.25.36.6.54 1.05.54.21 0 .39-.04.56-.11.17-.07.34-.17.51-.31l.28.35c-.39.37-.85.56-1.36.56-.63 0-1.12-.23-1.48-.7-.36-.46-.54-1.13-.54-2 0-.87.18-1.54.54-2.03.36-.49.85-.73 1.47-.73.26 0 .5.04.71.12zM183.34 105.19c.22.42.39.9.54 1.46.14.56.21 1.2.21 1.93s-.07 1.37-.21 1.93c-.14.56-.32 1.05-.54 1.46-.22.42-.51.91-.88 1.48l-.37-.24c.33-.53.59-1 .78-1.41s.35-.87.46-1.39c.12-.52.17-1.13.17-1.83s-.06-1.31-.17-1.84c-.12-.53-.27-.99-.46-1.38s-.45-.87-.78-1.41l.37-.24c.37.57.66 1.06.88 1.48z"/></g><g><path d="M181.75 128.05v7.36h-.49l-.05-.78c-.15.27-.35.49-.58.65-.23.16-.5.24-.83.24-.56 0-1-.24-1.31-.72-.32-.48-.48-1.14-.48-1.98 0-.55.08-1.03.23-1.45.15-.42.37-.74.65-.96.28-.23.61-.34.98-.34.53 0 .97.23 1.31.7v-2.79l.57.07zm-1.12 6.76c.21-.16.39-.4.56-.72v-2.75c-.33-.53-.74-.8-1.22-.8-.42 0-.75.2-1 .58-.24.39-.36.95-.35 1.69 0 .74.11 1.3.33 1.67.22.38.53.56.93.56.3.01.55-.07.75-.23zM184.4 128.51c.22.42.39.9.54 1.46.14.56.21 1.2.21 1.93s-.07 1.37-.21 1.93c-.14.56-.32 1.05-.54 1.46-.22.42-.51.91-.88 1.48l-.37-.24c.33-.53.59-1 .78-1.41s.35-.87.46-1.39c.12-.52.17-1.13.17-1.83s-.06-1.31-.17-1.84c-.12-.53-.27-.99-.46-1.38s-.45-.87-.78-1.41l.37-.24c.37.57.66 1.07.88 1.48z"/></g><g><path d="M8.64 87.21h-.76l-2.86-6.2c.05.61.08 1.39.08 2.33v3.87h-.55v-6.85h.76l2.86 6.21c-.05-.8-.08-1.47-.08-2.02v-4.19h.55v6.85zM13.92 84.82h-3.15c.03.7.17 1.21.43 1.53.26.32.6.49 1.03.49.25 0 .46-.04.65-.12.19-.08.39-.21.6-.38l.28.35c-.23.21-.47.36-.72.47s-.53.16-.83.16c-.63 0-1.12-.23-1.48-.7-.36-.47-.54-1.13-.54-1.98 0-.87.17-1.54.51-2.04.34-.49.81-.73 1.41-.73.59 0 1.05.22 1.36.66.31.44.47 1.06.47 1.87 0 .15-.01.29-.02.42zm-.53-.6c0-.61-.11-1.07-.32-1.39-.21-.32-.53-.49-.96-.49-.39 0-.7.16-.94.49-.24.33-.37.84-.4 1.55h2.62v-.16zM20.91 82.29c.22.28.33.66.33 1.13v3.79h-.55V83.5c0-.39-.07-.69-.21-.88a.68.68 0 00-.58-.29c-.26 0-.5.09-.71.29-.21.19-.41.46-.61.79v3.8h-.55V83.5c0-.39-.07-.69-.21-.88s-.33-.29-.58-.29c-.26 0-.49.09-.7.29-.21.19-.41.46-.61.79v3.8h-.53v-5.23h.48l.05.87c.4-.65.88-.98 1.44-.98.3 0 .55.09.75.27.2.18.34.43.42.75.41-.68.9-1.02 1.47-1.02.38 0 .68.14.9.42zM26.2 82.57c.35.47.53 1.14.53 2.01 0 .86-.18 1.53-.54 2.01-.36.48-.85.73-1.48.73s-1.12-.24-1.47-.72c-.35-.48-.53-1.14-.53-2 0-.86.18-1.53.54-2.01.36-.48.85-.72 1.47-.72.63 0 1.13.23 1.48.7zm-2.53.34c-.25.37-.37.93-.37 1.69 0 .75.12 1.32.37 1.69.24.37.59.56 1.04.56.45 0 .8-.19 1.05-.56.25-.37.37-.94.37-1.71 0-.75-.12-1.31-.36-1.68-.24-.37-.59-.55-1.05-.55-.45 0-.8.19-1.05.56zM30.6 82c.21.08.42.22.62.41l-.28.36a1.433 1.433 0 00-1.04-.41c-.44 0-.79.19-1.04.57s-.38.95-.38 1.71c0 .75.13 1.31.38 1.67.25.36.6.54 1.05.54.21 0 .39-.04.56-.11.17-.07.34-.17.51-.31l.28.35c-.39.37-.85.56-1.36.56-.63 0-1.12-.23-1.48-.7-.36-.46-.54-1.13-.54-2 0-.87.18-1.54.54-2.03.36-.49.85-.73 1.47-.73.26-.01.5.03.71.12zM33.01 79.81a.4.4 0 01.12.29c0 .12-.04.22-.12.29-.08.08-.17.12-.29.12s-.22-.04-.29-.12a.385.385 0 01-.12-.29.4.4 0 01.12-.29c.08-.08.17-.12.29-.12s.22.04.29.12zM33 81.98v5.23h-.56v-5.23H33zM35.25 86.53c.08.09.12.2.12.33 0 .07-.01.16-.04.25s-.06.19-.1.29l-.51 1.31h-.39l.37-1.45a.45.45 0 01-.23-.4.445.445 0 01.45-.46c.14 0 .25.04.33.13zM41.32 82.02c.24.1.47.24.7.44l-.26.36c-.21-.17-.42-.29-.61-.36-.19-.08-.4-.12-.62-.12-.31 0-.56.08-.75.24a.82.82 0 00-.29.66c0 .25.08.44.25.59.17.14.47.28.9.42.54.17.93.38 1.16.6.23.23.35.55.35.96 0 .46-.16.83-.49 1.1-.33.27-.74.41-1.23.41-.35 0-.67-.06-.94-.18-.27-.12-.53-.28-.76-.49l.31-.34c.21.18.43.32.64.41s.46.13.75.13c.34 0 .62-.09.83-.27s.31-.43.31-.75c0-.21-.04-.38-.1-.51a.9.9 0 00-.37-.35c-.18-.1-.43-.2-.76-.31-.51-.16-.87-.35-1.08-.57-.22-.22-.33-.5-.33-.85 0-.26.07-.49.21-.7.14-.21.33-.37.58-.49.24-.12.51-.18.8-.18.29 0 .56.05.8.15zM45.71 86.99c-.31.22-.64.33-1 .33-.37 0-.65-.11-.86-.33-.21-.22-.31-.53-.31-.93v-3.62h-.79v-.46h.79v-1.25l.56-.07v1.32h1.21l-.07.46H44.1v3.6c0 .53.22.8.67.8.23 0 .46-.07.71-.22l.23.37zM49.69 86.67c.06.11.16.2.3.26l-.13.39c-.22-.05-.39-.15-.51-.28s-.2-.32-.24-.58c-.34.57-.82.85-1.45.85-.45 0-.81-.14-1.08-.43-.26-.28-.39-.66-.39-1.13 0-.55.18-.96.53-1.25.35-.29.85-.43 1.49-.43h.83v-.56c0-.4-.08-.69-.25-.88-.17-.19-.43-.29-.8-.29-.38 0-.81.1-1.3.3l-.16-.42c.55-.23 1.06-.35 1.52-.35.53 0 .92.14 1.17.41.25.27.38.67.38 1.19v2.67c0 .24.03.42.09.53zm-.65-.76v-1.43h-.76c-1 0-1.5.42-1.5 1.26 0 .37.08.65.25.84s.41.29.71.29c.58 0 1.01-.32 1.3-.96zM54.67 81.98l-1.62 5.23h-.68l-1.68-5.23h.6l1.42 4.74 1.38-4.74h.58zM57.32 87.23c-.18.6-.41 1.06-.69 1.37-.28.31-.7.53-1.25.66l-.07-.44c.31-.09.56-.19.74-.32.18-.13.32-.29.43-.48s.22-.46.33-.8h-.2l-1.63-5.23h.58l1.42 4.81 1.38-4.81h.58l-1.62 5.24zM60.41 86.53c.08.09.12.2.12.33 0 .07-.01.16-.04.25s-.06.19-.1.29l-.51 1.31h-.38l.37-1.45a.45.45 0 01-.23-.4.445.445 0 01.45-.46c.13 0 .24.04.32.13zM65.05 79.78v7.43h-.56v-7.36l.56-.07zm2.65 2.2l-1.97 2.34 2.18 2.89h-.65l-2.15-2.86 1.97-2.37h.62zM71.09 86.99c-.31.22-.64.33-1 .33-.37 0-.65-.11-.86-.33-.21-.22-.31-.53-.31-.93v-3.62h-.79v-.46h.79v-1.25l.56-.07v1.32h1.21l-.07.46h-1.14v3.6c0 .53.22.8.67.8.23 0 .46-.07.71-.22l.23.37zM75.37 84.82h-3.15c.03.7.17 1.21.43 1.53.26.32.6.49 1.03.49.25 0 .46-.04.65-.12.19-.08.39-.21.6-.38l.28.35c-.23.21-.47.36-.72.47s-.53.16-.83.16c-.63 0-1.12-.23-1.48-.7-.36-.47-.54-1.13-.54-1.98 0-.87.17-1.54.51-2.04.34-.49.81-.73 1.41-.73.59 0 1.05.22 1.36.66.31.44.47 1.06.47 1.87 0 .15-.01.29-.02.42zm-.53-.6c0-.61-.11-1.07-.32-1.39-.21-.32-.53-.49-.96-.49-.39 0-.7.16-.94.49-.24.33-.37.84-.4 1.55h2.62v-.16zM79.18 81.93l-.11.53c-.12-.04-.25-.06-.4-.06-.32 0-.58.13-.77.38-.2.26-.36.66-.49 1.19v3.23h-.56v-5.23h.48l.04 1.12c.13-.41.31-.72.53-.92.22-.2.49-.3.82-.3.15 0 .3.02.46.06zM83.59 84.82h-3.15c.03.7.17 1.21.43 1.53.26.32.6.49 1.03.49.25 0 .46-.04.65-.12.19-.08.39-.21.6-.38l.28.35c-.23.21-.47.36-.72.47s-.53.16-.83.16c-.63 0-1.12-.23-1.48-.7-.36-.47-.54-1.13-.54-1.98 0-.87.17-1.54.51-2.04.34-.49.81-.73 1.41-.73.59 0 1.05.22 1.36.66.31.44.47 1.06.47 1.87 0 .15-.01.29-.02.42zm-.53-.6c0-.61-.11-1.07-.32-1.39-.21-.32-.53-.49-.96-.49-.39 0-.7.16-.94.49-.24.33-.37.84-.4 1.55h2.62v-.16zm-.61-4.8l.26.49-1.77.84-.18-.31 1.69-1.02zM90.76 81.98l-1.62 5.23h-.68l-1.68-5.23h.6l1.42 4.74 1.38-4.74h.58zM95.21 84.82h-3.15c.03.7.17 1.21.43 1.53.26.32.6.49 1.03.49.25 0 .46-.04.65-.12.19-.08.39-.21.6-.38l.28.35c-.23.21-.47.36-.72.47s-.53.16-.83.16c-.63 0-1.12-.23-1.48-.7-.36-.47-.54-1.13-.54-1.98 0-.87.17-1.54.51-2.04.34-.49.81-.73 1.41-.73.59 0 1.05.22 1.36.66.31.44.47 1.06.47 1.87 0 .15-.01.29-.02.42zm-.53-.6c0-.61-.11-1.07-.32-1.39-.21-.32-.53-.49-.96-.49-.39 0-.7.16-.94.49-.24.33-.37.84-.4 1.55h2.62v-.16zM100.07 79.85v7.36h-.49l-.05-.78c-.15.27-.35.49-.58.65-.23.16-.5.24-.83.24-.56 0-1-.24-1.31-.72-.32-.48-.48-1.14-.48-1.98 0-.55.08-1.03.23-1.45.15-.42.37-.74.65-.96.28-.23.61-.34.98-.34.53 0 .97.23 1.31.7v-2.79l.57.07zm-1.12 6.76c.21-.16.39-.4.56-.72v-2.75c-.33-.53-.74-.8-1.22-.8-.42 0-.75.2-1 .58-.24.39-.36.95-.35 1.69 0 .74.11 1.3.33 1.67.22.38.53.56.93.56.29.01.54-.07.75-.23zM102.13 87.08c-.15-.16-.23-.39-.23-.69v-6.54l.56-.07v6.6c0 .31.13.46.38.46.11 0 .21-.02.32-.07l.14.41c-.16.09-.34.14-.55.14-.26 0-.47-.08-.62-.24zM106.08 87.23c-.18.6-.41 1.06-.69 1.37-.28.31-.7.53-1.25.66l-.07-.44c.31-.09.56-.19.74-.32.18-.13.32-.29.43-.48s.22-.46.33-.8h-.2l-1.63-5.23h.58l1.42 4.81 1.38-4.81h.58l-1.62 5.24zM111.85 79.78v7.43h-.56v-7.36l.56-.07zm2.65 2.2l-1.97 2.34 2.18 2.89h-.65l-2.15-2.86 1.97-2.37h.62zM121.45 82.56c.29.46.43 1.13.43 2.01 0 .87-.16 1.54-.47 2.02s-.76.73-1.33.73c-.28 0-.53-.07-.76-.2s-.42-.3-.57-.51v2.57l-.56.08v-7.28h.49l.04.75c.39-.57.87-.86 1.45-.86.57 0 .99.23 1.28.69zm-.16 2.01c0-.76-.1-1.32-.31-1.69-.2-.36-.5-.54-.9-.54-.27 0-.52.08-.73.24-.21.16-.41.38-.59.65v2.83c.33.52.75.78 1.24.78.86 0 1.29-.76 1.29-2.27zM125.67 79.54l.24.27-1.16 1.07h-.35l-1.17-1.07.25-.27 1.1.85 1.09-.85zm.08 2.39l-.11.53c-.12-.04-.25-.06-.4-.06-.32 0-.58.13-.77.38-.2.26-.36.66-.49 1.19v3.23h-.56v-5.23h.48l.04 1.12c.13-.41.31-.72.53-.92.22-.2.49-.3.82-.3.15 0 .3.02.46.06zM127.74 79.42l.26.49-1.77.84-.18-.31 1.69-1.02zm-.38 2.56v5.23h-.56v-5.23h.56zM131.6 82c.21.08.42.22.62.41l-.28.36a1.433 1.433 0 00-1.04-.41c-.44 0-.79.19-1.04.57s-.38.95-.38 1.71c0 .75.13 1.31.38 1.67.25.36.6.54 1.05.54.21 0 .39-.04.56-.11.17-.07.34-.17.51-.31l.28.35c-.39.37-.85.56-1.36.56-.63 0-1.12-.23-1.48-.7-.36-.46-.54-1.13-.54-2 0-.87.18-1.54.54-2.03.36-.49.85-.73 1.47-.73.26-.01.49.03.71.12zm.37-2.46l.24.27-1.16 1.07h-.35l-1.17-1.07.25-.27 1.1.85 1.09-.85zM134.01 79.81a.4.4 0 01.12.29c0 .12-.04.22-.12.29-.08.08-.17.12-.29.12s-.22-.04-.29-.12a.385.385 0 01-.12-.29.4.4 0 01.12-.29c.08-.08.17-.12.29-.12s.22.04.29.12zm-.01 2.17v5.23h-.56v-5.23h.56zM138.96 82.28c.23.27.34.65.34 1.14v3.79h-.56V83.5c0-.4-.07-.7-.21-.88-.14-.19-.36-.29-.64-.29-.29 0-.55.1-.78.29s-.46.47-.67.82v3.77h-.56v-5.23h.48l.06.91c.41-.68.94-1.02 1.57-1.02.42 0 .74.14.97.41zM144.5 84.82h-3.15c.03.7.17 1.21.43 1.53.26.32.6.49 1.03.49.25 0 .46-.04.65-.12.19-.08.39-.21.6-.38l.28.35c-.23.21-.47.36-.72.47s-.53.16-.83.16c-.63 0-1.12-.23-1.48-.7-.36-.47-.54-1.13-.54-1.98 0-.87.17-1.54.51-2.04.34-.49.81-.73 1.41-.73.59 0 1.05.22 1.36.66.31.44.47 1.06.47 1.87 0 .15-.01.29-.02.42zm-.71-5.28l.24.27-1.16 1.07h-.35l-1.17-1.07.25-.27 1.1.85 1.09-.85zm.18 4.68c0-.61-.11-1.07-.32-1.39-.21-.32-.53-.49-.96-.49-.39 0-.7.16-.94.49-.24.33-.37.84-.4 1.55h2.62v-.16zM7.85 96.15h-.48l-.04-.9c-.37.67-.87 1.01-1.52 1.01-.42 0-.75-.13-.99-.4s-.36-.64-.36-1.11v-3.83h.56v3.78c0 .73.3 1.09.9 1.09.29 0 .55-.09.77-.28s.42-.45.6-.79v-3.8h.56v5.23zM12.93 90.92l-1.62 5.23h-.68l-1.68-5.23h.6l1.42 4.74 1.38-4.74h.58zM17.38 93.76h-3.15c.03.7.17 1.21.43 1.53.26.32.6.49 1.03.49.25 0 .46-.04.65-.12.19-.08.39-.21.6-.38l.28.35c-.23.21-.47.36-.72.47s-.53.16-.83.16c-.63 0-1.12-.23-1.48-.7-.36-.47-.54-1.13-.54-1.98 0-.87.17-1.54.51-2.04.34-.49.81-.73 1.41-.73.59 0 1.05.22 1.36.66.31.44.47 1.06.47 1.87 0 .15-.01.29-.02.42zm-.53-.6c0-.61-.11-1.07-.32-1.39-.21-.32-.53-.49-.96-.49-.39 0-.7.16-.94.49-.24.33-.37.84-.4 1.55h2.62v-.16zM22.24 88.79v7.36h-.49l-.05-.78c-.15.27-.35.49-.58.65-.23.16-.5.24-.83.24-.56 0-1-.24-1.31-.72-.32-.48-.48-1.14-.48-1.98 0-.55.08-1.03.23-1.45.15-.42.37-.74.65-.96.28-.23.61-.34.98-.34.53 0 .97.23 1.31.7v-2.79l.57.07zm-1.12 6.76c.21-.16.39-.4.56-.72v-2.75c-.33-.53-.74-.8-1.22-.8-.42 0-.75.2-1 .58-.24.39-.36.95-.35 1.69 0 .74.11 1.3.33 1.67.22.38.53.56.93.56.3.01.54-.07.75-.23zM27.48 93.76h-3.15c.03.7.17 1.21.43 1.53.26.32.6.49 1.03.49.25 0 .46-.04.65-.12.19-.08.39-.21.6-.38l.28.35c-.23.21-.47.36-.72.47s-.53.16-.83.16c-.63 0-1.12-.23-1.48-.7-.36-.47-.54-1.13-.54-1.98 0-.87.17-1.54.51-2.04.34-.49.81-.73 1.41-.73.59 0 1.05.22 1.36.66.31.44.47 1.06.47 1.87 0 .15-.01.29-.02.42zm-.53-.6c0-.61-.11-1.07-.32-1.39-.21-.32-.53-.49-.96-.49-.39 0-.7.16-.94.49-.24.33-.37.84-.4 1.55h2.62v-.16zM32.04 91.22c.23.27.34.65.34 1.14v3.79h-.56v-3.71c0-.4-.07-.7-.21-.88-.14-.19-.36-.29-.64-.29-.29 0-.55.1-.78.29s-.46.47-.67.82v3.77h-.56v-5.23h.48l.06.91c.41-.68.94-1.02 1.57-1.02.42 0 .74.14.97.41zM37.58 93.76h-3.15c.03.7.17 1.21.43 1.53.26.32.6.49 1.03.49.25 0 .46-.04.65-.12.19-.08.39-.21.6-.38l.28.35c-.23.21-.47.36-.72.47s-.53.16-.83.16c-.63 0-1.12-.23-1.48-.7-.36-.47-.54-1.13-.54-1.98 0-.87.17-1.54.51-2.04.34-.49.81-.73 1.41-.73.59 0 1.05.22 1.36.66.31.44.47 1.06.47 1.87 0 .15-.01.29-.02.42zm-.53-.6c0-.61-.11-1.07-.32-1.39-.21-.32-.53-.49-.96-.49-.39 0-.7.16-.94.49-.24.33-.37.84-.4 1.55h2.62v-.16zm-.61-4.8l.26.49-1.77.84-.18-.31 1.69-1.02zM44.75 90.92l-1.62 5.23h-.68l-1.68-5.23h.6l1.42 4.74 1.38-4.74h.58zM47.4 96.17c-.18.6-.41 1.06-.69 1.37-.28.31-.7.53-1.25.66l-.07-.44c.31-.09.56-.19.74-.32.18-.13.32-.29.43-.48s.22-.46.33-.8h-.2l-1.63-5.23h.58l1.42 4.81 1.38-4.81h.58l-1.62 5.24zm.31-7.81l.26.49-1.77.84-.18-.31 1.69-1.02zM52.11 90.96c.24.1.47.24.7.44l-.26.36c-.21-.17-.42-.29-.61-.36-.19-.08-.4-.12-.62-.12-.31 0-.56.08-.75.24a.82.82 0 00-.29.66c0 .25.08.44.25.59.17.14.47.28.9.42.54.17.93.38 1.16.6.23.23.35.55.35.96 0 .46-.16.83-.49 1.1-.33.27-.74.41-1.23.41-.35 0-.67-.06-.94-.18-.27-.12-.53-.28-.76-.49l.31-.34c.21.18.43.32.64.41s.46.13.75.13c.34 0 .62-.09.83-.27s.31-.43.31-.75c0-.21-.04-.38-.1-.51a.9.9 0 00-.37-.35c-.18-.1-.43-.2-.76-.31-.51-.16-.87-.35-1.08-.57-.22-.22-.33-.5-.33-.85 0-.26.07-.49.21-.7.14-.21.33-.37.58-.49.24-.12.51-.18.8-.18.29 0 .56.05.8.15zm.33-2.48l.24.27-1.16 1.07h-.35L50 88.75l.25-.27 1.1.85 1.09-.85zM57.68 93.76h-3.15c.03.7.17 1.21.43 1.53.26.32.6.49 1.03.49.25 0 .46-.04.65-.12.19-.08.39-.21.6-.38l.28.35c-.23.21-.47.36-.72.47s-.53.16-.83.16c-.63 0-1.12-.23-1.48-.7-.36-.47-.54-1.13-.54-1.98 0-.87.17-1.54.51-2.04.34-.49.81-.73 1.41-.73.59 0 1.05.22 1.36.66.31.44.47 1.06.47 1.87 0 .15-.01.29-.02.42zm-.53-.6c0-.61-.11-1.07-.32-1.39-.21-.32-.53-.49-.96-.49-.39 0-.7.16-.94.49-.24.33-.37.84-.4 1.55h2.62v-.16zM59.53 95.47c.08.09.12.2.12.33 0 .07-.01.16-.04.25s-.06.19-.1.29L59 97.65h-.39l.37-1.45a.45.45 0 01-.23-.4.445.445 0 01.45-.46c.14 0 .25.04.33.13zM66.18 90.92v.44l-2.64 4.3h2.63l-.06.49h-3.2v-.43l2.65-4.31h-2.43v-.49h3.05zM70.48 95.61c.06.11.16.2.3.26l-.13.39c-.22-.05-.39-.15-.51-.28s-.2-.32-.24-.58c-.34.57-.82.85-1.45.85-.45 0-.81-.14-1.08-.43-.26-.28-.39-.66-.39-1.13 0-.55.18-.96.53-1.25.35-.29.85-.43 1.49-.43h.83v-.56c0-.4-.08-.69-.25-.88-.17-.19-.43-.29-.8-.29-.38 0-.81.1-1.3.3l-.16-.42c.55-.23 1.06-.35 1.52-.35.53 0 .92.14 1.17.41.25.27.38.67.38 1.19v2.67c0 .24.03.42.09.53zm-.65-.76v-1.43h-.76c-1 0-1.5.42-1.5 1.26 0 .37.08.65.25.84s.41.29.71.29c.58 0 1.01-.32 1.3-.96zm-.35-6.49l.26.49-1.77.84-.18-.31 1.69-1.02zM72.82 88.72v7.43h-.56v-7.36l.56-.07zm2.65 2.2l-1.97 2.34 2.18 2.89h-.65l-2.15-2.86 1.97-2.37h.62zM76.86 96.02c-.15-.16-.23-.39-.23-.69v-6.54l.56-.07v6.6c0 .31.13.46.38.46.11 0 .21-.02.32-.07l.14.41c-.16.09-.34.14-.55.14-.26 0-.47-.08-.62-.24zM82.31 95.61c.06.11.16.2.3.26l-.13.39c-.22-.05-.39-.15-.51-.28s-.2-.32-.24-.58c-.34.57-.82.85-1.45.85-.45 0-.81-.14-1.08-.43-.26-.28-.39-.66-.39-1.13 0-.55.18-.96.53-1.25.35-.29.85-.43 1.49-.43h.83v-.56c0-.4-.08-.69-.25-.88-.17-.19-.43-.29-.8-.29-.38 0-.81.1-1.3.3l-.16-.42c.55-.23 1.06-.35 1.52-.35.53 0 .92.14 1.17.41.25.27.38.67.38 1.19v2.67c0 .24.03.42.09.53zm-.65-.76v-1.43h-.76c-1 0-1.5.42-1.5 1.26 0 .37.08.65.25.84s.41.29.71.29c.58 0 1.01-.32 1.3-.96zM87.47 88.79v7.36h-.49l-.05-.78c-.15.27-.35.49-.58.65-.23.16-.5.24-.83.24-.56 0-1-.24-1.31-.72-.32-.48-.48-1.14-.48-1.98 0-.55.08-1.03.23-1.45.15-.42.37-.74.65-.96.28-.23.61-.34.98-.34.53 0 .97.23 1.31.7v-2.79l.57.07zm-1.12 6.76c.21-.16.39-.4.56-.72v-2.75c-.33-.53-.74-.8-1.22-.8-.42 0-.75.2-1 .58-.24.39-.36.95-.35 1.69 0 .74.11 1.3.33 1.67.22.38.53.56.93.56.29.01.54-.07.75-.23zM92.43 91.22c.23.27.34.65.34 1.14v3.79h-.56v-3.71c0-.4-.07-.7-.21-.88-.14-.19-.36-.29-.64-.29-.29 0-.55.1-.78.29s-.46.47-.67.82v3.77h-.56v-5.23h.48l.06.91c.41-.68.94-1.02 1.57-1.02.42 0 .74.14.97.41zM95.55 88.36l.26.49-1.77.84-.18-.31 1.69-1.02zm-.38 2.56v5.23h-.56v-5.23h.56zM102.79 91.5c.29.46.43 1.13.43 2.01 0 .87-.16 1.54-.47 2.02s-.76.73-1.33.73c-.28 0-.53-.07-.76-.2s-.42-.3-.57-.51v2.57l-.56.08v-7.28h.49l.04.75c.39-.57.87-.86 1.45-.86.57 0 .99.23 1.28.69zm-.16 2.01c0-.76-.1-1.32-.31-1.69-.2-.36-.5-.54-.9-.54-.27 0-.52.08-.73.24-.21.16-.41.38-.59.65V95c.33.52.75.78 1.24.78.86 0 1.29-.76 1.29-2.27z"/><path d="M107.01 88.48l.24.27-1.16 1.07h-.35l-1.17-1.07.25-.27 1.1.85 1.09-.85zm.08 2.39l-.11.53c-.12-.04-.25-.06-.4-.06-.32 0-.58.13-.77.38-.2.26-.36.66-.49 1.19v3.23h-.56v-5.23h.48l.04 1.12c.13-.41.31-.72.53-.92.22-.2.49-.3.82-.3.14 0 .3.02.46.06zM109.08 88.36l.26.49-1.77.84-.18-.31 1.69-1.02zm-.38 2.56v5.23h-.56v-5.23h.56zM112.94 90.94c.21.08.42.22.62.41l-.28.36a1.433 1.433 0 00-1.04-.41c-.44 0-.79.19-1.04.57s-.38.95-.38 1.71c0 .75.13 1.31.38 1.67.25.36.6.54 1.05.54.21 0 .39-.04.56-.11.17-.07.34-.17.51-.31l.28.35c-.39.37-.85.56-1.36.56-.63 0-1.12-.23-1.48-.7-.36-.46-.54-1.13-.54-2 0-.87.18-1.54.54-2.03.36-.49.85-.73 1.47-.73.26-.01.49.03.71.12zm.37-2.46l.24.27-1.16 1.07h-.35l-1.17-1.07.25-.27 1.1.85 1.09-.85zM115.35 88.75a.4.4 0 01.12.29c0 .12-.04.22-.12.29-.08.08-.17.12-.29.12s-.22-.04-.29-.12a.385.385 0 01-.12-.29.4.4 0 01.12-.29c.08-.08.17-.12.29-.12s.22.04.29.12zm-.01 2.17v5.23h-.56v-5.23h.56zM120.3 91.22c.23.27.34.65.34 1.14v3.79h-.56v-3.71c0-.4-.07-.7-.21-.88-.14-.19-.36-.29-.64-.29-.29 0-.55.1-.78.29s-.46.47-.67.82v3.77h-.56v-5.23h.48l.06.91c.41-.68.94-1.02 1.57-1.02.42 0 .74.14.97.41zM125.54 95.61c.06.11.16.2.3.26l-.13.39c-.22-.05-.39-.15-.51-.28s-.2-.32-.24-.58c-.34.57-.82.85-1.45.85-.45 0-.81-.14-1.08-.43-.26-.28-.39-.66-.39-1.13 0-.55.18-.96.53-1.25.35-.29.85-.43 1.49-.43h.83v-.56c0-.4-.08-.69-.25-.88-.17-.19-.43-.29-.8-.29-.38 0-.81.1-1.3.3l-.16-.42c.55-.23 1.06-.35 1.52-.35.53 0 .92.14 1.17.41.25.27.38.67.38 1.19v2.67c0 .24.03.42.09.53zm-.65-.76v-1.43h-.76c-1 0-1.5.42-1.5 1.26 0 .37.08.65.25.84s.41.29.71.29c.57 0 1-.32 1.3-.96zM6.5 99.9c.24.1.47.24.7.44l-.26.36c-.21-.17-.42-.29-.61-.36-.19-.08-.4-.12-.62-.12-.31 0-.56.08-.75.24a.82.82 0 00-.29.66c0 .25.08.44.25.59.17.14.47.28.9.42.54.17.93.38 1.16.6.23.23.35.55.35.96 0 .46-.16.83-.49 1.1-.33.27-.74.41-1.23.41-.35 0-.67-.06-.94-.18-.27-.12-.53-.28-.76-.49l.31-.34c.21.18.43.32.64.41s.46.13.75.13c.34 0 .62-.09.83-.27s.31-.43.31-.75c0-.21-.04-.38-.1-.51a.9.9 0 00-.37-.35c-.18-.1-.43-.2-.76-.31-.51-.16-.87-.35-1.08-.57-.22-.22-.33-.5-.33-.85 0-.26.07-.49.21-.7.14-.21.33-.37.58-.49.24-.12.51-.18.8-.18.29 0 .56.05.8.15zM14.22 100.17c.22.28.33.66.33 1.13v3.79H14v-3.71c0-.39-.07-.69-.21-.88a.68.68 0 00-.58-.29c-.26 0-.5.09-.71.29-.21.19-.41.46-.61.79v3.8h-.55v-3.71c0-.39-.07-.69-.21-.88s-.33-.29-.58-.29c-.26 0-.49.09-.7.29-.21.19-.41.46-.61.79v3.8h-.53v-5.23h.48l.05.87c.4-.65.88-.98 1.44-.98.3 0 .55.09.75.27.2.18.34.43.42.75.41-.68.9-1.02 1.47-1.02.38 0 .68.14.9.42zM18.72 99.81l-.11.53c-.12-.04-.25-.06-.4-.06-.32 0-.58.13-.77.38-.2.26-.36.66-.49 1.19v3.23h-.56v-5.23h.48l.04 1.12c.13-.41.31-.72.53-.92.22-.2.49-.3.82-.3.15 0 .3.02.46.06zM21.95 104.87c-.31.22-.64.33-1 .33-.37 0-.65-.11-.86-.33-.21-.22-.31-.53-.31-.93v-3.62h-.79v-.46h.79v-1.25l.56-.07v1.32h1.21l-.07.46h-1.14v3.6c0 .53.22.8.67.8.23 0 .46-.07.71-.22l.23.37zM23.44 97.69a.4.4 0 01.12.29c0 .12-.04.22-.12.29-.08.08-.17.12-.29.12s-.22-.04-.29-.12a.385.385 0 01-.12-.29.4.4 0 01.12-.29c.08-.08.17-.12.29-.12s.22.04.29.12zm-.01 2.17v5.23h-.56v-5.23h.56zM28.36 105.05c0 .41-.05.74-.14.99-.09.25-.23.45-.41.61-.18.16-.42.32-.75.48l-.18-.4c.23-.13.41-.25.54-.38.12-.12.22-.29.28-.49.06-.2.1-.47.1-.8v-5.2h.56v5.19zm.01-7.36a.4.4 0 01.12.29c0 .12-.04.22-.12.29-.08.08-.17.12-.29.12s-.22-.04-.29-.12a.385.385 0 01-.12-.29.4.4 0 01.12-.29c.08-.08.17-.12.29-.12s.22.04.29.12zM33.6 102.7h-3.15c.03.7.17 1.21.43 1.53.26.32.6.49 1.03.49.25 0 .46-.04.65-.12.19-.08.39-.21.6-.38l.28.35c-.23.21-.47.36-.72.47s-.53.16-.83.16c-.63 0-1.12-.23-1.48-.7-.36-.47-.54-1.13-.54-1.98 0-.87.17-1.54.51-2.04.34-.49.81-.73 1.41-.73.59 0 1.05.22 1.36.66.31.44.47 1.06.47 1.87 0 .15-.01.29-.02.42zm-.53-.6c0-.61-.11-1.07-.32-1.39-.21-.32-.53-.49-.96-.49-.39 0-.7.16-.94.49-.24.33-.37.84-.4 1.55h2.62v-.16zM40.91 105.09h-.48l-.04-.9c-.37.67-.87 1.01-1.52 1.01-.42 0-.75-.13-.99-.4s-.36-.64-.36-1.11v-3.83h.56v3.78c0 .73.3 1.09.9 1.09.29 0 .55-.09.77-.28s.42-.45.6-.79v-3.8h.56v5.23zM45.99 99.86l-1.62 5.23h-.68l-1.68-5.23h.6l1.42 4.74 1.38-4.74h.58zM50.44 102.7h-3.15c.03.7.17 1.21.43 1.53.26.32.6.49 1.03.49.25 0 .46-.04.65-.12.19-.08.39-.21.6-.38l.28.35c-.23.21-.47.36-.72.47s-.53.16-.83.16c-.63 0-1.12-.23-1.48-.7-.36-.47-.54-1.13-.54-1.98 0-.87.17-1.54.51-2.04.34-.49.81-.73 1.41-.73.59 0 1.05.22 1.36.66.31.44.47 1.06.47 1.87 0 .15-.01.29-.02.42zm-.53-.6c0-.61-.11-1.07-.32-1.39-.21-.32-.53-.49-.96-.49-.39 0-.7.16-.94.49-.24.33-.37.84-.4 1.55h2.62v-.16zM55.3 97.73v7.36h-.49l-.05-.78c-.15.27-.35.49-.58.65-.23.16-.5.24-.83.24-.56 0-1-.24-1.31-.72-.32-.48-.48-1.14-.48-1.98 0-.55.08-1.03.23-1.45.15-.42.37-.74.65-.96.28-.23.61-.34.98-.34.53 0 .97.23 1.31.7v-2.79l.57.07zm-1.12 6.76c.21-.16.39-.4.56-.72v-2.75c-.33-.53-.74-.8-1.22-.8-.42 0-.75.2-1 .58-.24.39-.36.95-.35 1.69 0 .74.11 1.3.33 1.67.22.38.53.56.93.56.29.01.54-.07.75-.23zM60.54 102.7h-3.15c.03.7.17 1.21.43 1.53.26.32.6.49 1.03.49.25 0 .46-.04.65-.12.19-.08.39-.21.6-.38l.28.35c-.23.21-.47.36-.72.47s-.53.16-.83.16c-.63 0-1.12-.23-1.48-.7-.36-.47-.54-1.13-.54-1.98 0-.87.17-1.54.51-2.04.34-.49.81-.73 1.41-.73.59 0 1.05.22 1.36.66.31.44.47 1.06.47 1.87 0 .15-.01.29-.02.42zm-.53-.6c0-.61-.11-1.07-.32-1.39-.21-.32-.53-.49-.96-.49-.39 0-.7.16-.94.49-.24.33-.37.84-.4 1.55h2.62v-.16zM65.1 100.16c.23.27.34.65.34 1.14v3.79h-.56v-3.71c0-.4-.07-.7-.21-.88-.14-.19-.36-.29-.64-.29-.29 0-.55.1-.78.29s-.46.47-.67.82v3.77h-.56v-5.23h.48l.06.91c.41-.68.94-1.02 1.57-1.02.42 0 .74.14.97.41zM70.34 104.55c.06.11.16.2.3.26l-.13.39c-.22-.05-.39-.15-.51-.28s-.2-.32-.24-.58c-.34.57-.82.85-1.45.85-.45 0-.81-.14-1.08-.43-.26-.28-.39-.66-.39-1.13 0-.55.18-.96.53-1.25.35-.29.85-.43 1.49-.43h.83v-.56c0-.4-.08-.69-.25-.88-.17-.19-.43-.29-.8-.29-.38 0-.81.1-1.3.3l-.16-.42c.55-.23 1.06-.35 1.52-.35.53 0 .92.14 1.17.41.25.27.38.67.38 1.19v2.67c0 .24.03.42.09.53zm-.65-.76v-1.43h-.76c-1 0-1.5.42-1.5 1.26 0 .37.08.65.25.84s.41.29.71.29c.57 0 1-.32 1.3-.96zm-.35-6.49l.26.49-1.77.84-.18-.31 1.69-1.02zM75.17 105.05c0 .41-.05.74-.14.99-.09.25-.23.45-.41.61-.18.16-.42.32-.75.48l-.18-.4c.23-.13.41-.25.54-.38.12-.12.22-.29.28-.49.06-.2.1-.47.1-.8v-5.2h.56v5.19zm.01-7.36a.4.4 0 01.12.29c0 .12-.04.22-.12.29-.08.08-.17.12-.29.12s-.22-.04-.29-.12a.385.385 0 01-.12-.29.4.4 0 01.12-.29c.08-.08.17-.12.29-.12s.22.04.29.12zM80.11 104.55c.06.11.16.2.3.26l-.13.39c-.22-.05-.39-.15-.51-.28s-.2-.32-.24-.58c-.34.57-.82.85-1.45.85-.45 0-.81-.14-1.08-.43-.26-.28-.39-.66-.39-1.13 0-.55.18-.96.53-1.25.35-.29.85-.43 1.49-.43h.83v-.56c0-.4-.08-.69-.25-.88-.17-.19-.43-.29-.8-.29-.38 0-.81.1-1.3.3l-.16-.42c.55-.23 1.06-.35 1.52-.35.53 0 .92.14 1.17.41.25.27.38.67.38 1.19v2.67c0 .24.03.42.09.53zm-.65-.76v-1.43h-.76c-1 0-1.5.42-1.5 1.26 0 .37.08.65.25.84s.41.29.71.29c.57 0 1-.32 1.3-.96zM82.45 97.66v7.43h-.56v-7.36l.56-.07zm2.65 2.2l-1.97 2.34 2.18 2.89h-.65l-2.15-2.86 1.97-2.37h.62zM89.43 100.45c.35.47.53 1.14.53 2.01 0 .86-.18 1.53-.54 2.01-.36.48-.85.73-1.48.73s-1.12-.24-1.47-.72c-.35-.48-.53-1.14-.53-2 0-.86.18-1.53.54-2.01.36-.48.85-.72 1.47-.72.63 0 1.12.23 1.48.7zm-2.53.34c-.25.37-.37.93-.37 1.69 0 .75.12 1.32.37 1.69.24.37.59.56 1.04.56.45 0 .8-.19 1.05-.56.25-.37.37-.94.37-1.71 0-.75-.12-1.31-.36-1.68-.24-.37-.59-.55-1.05-.55-.46 0-.81.19-1.05.56zM97.21 100.44c.29.46.43 1.13.43 2.01 0 .87-.16 1.54-.47 2.02s-.76.73-1.33.73c-.28 0-.53-.07-.76-.2s-.42-.3-.57-.51v2.57l-.56.08v-7.28h.49l.04.75c.39-.57.87-.86 1.45-.86.57 0 .99.23 1.28.69zm-.16 2.01c0-.76-.1-1.32-.31-1.69-.2-.36-.5-.54-.9-.54-.27 0-.52.08-.73.24-.21.16-.41.38-.59.65v2.83c.33.52.75.78 1.24.78.86 0 1.29-.76 1.29-2.27zM102.3 100.45c.35.47.53 1.14.53 2.01 0 .86-.18 1.53-.54 2.01-.36.48-.85.73-1.48.73s-1.12-.24-1.47-.72c-.35-.48-.53-1.14-.53-2 0-.86.18-1.53.54-2.01.36-.48.85-.72 1.47-.72.63 0 1.12.23 1.48.7zm-2.53.34c-.25.37-.37.93-.37 1.69 0 .75.12 1.32.37 1.69.24.37.59.56 1.04.56.45 0 .8-.19 1.05-.56.25-.37.37-.94.37-1.71 0-.75-.12-1.31-.36-1.68-.24-.37-.59-.55-1.05-.55-.46 0-.81.19-1.05.56zM106.33 99.9c.24.1.47.24.7.44l-.26.36c-.21-.17-.42-.29-.61-.36-.19-.08-.4-.12-.62-.12-.31 0-.56.08-.75.24a.82.82 0 00-.29.66c0 .25.08.44.25.59.17.14.47.28.9.42.54.17.93.38 1.16.6.23.23.35.55.35.96 0 .46-.16.83-.49 1.1-.33.27-.74.41-1.23.41-.35 0-.67-.06-.94-.18-.27-.12-.53-.28-.76-.49l.31-.34c.21.18.43.32.64.41s.46.13.75.13c.34 0 .62-.09.83-.27s.31-.43.31-.75c0-.21-.04-.38-.1-.51a.9.9 0 00-.37-.35c-.18-.1-.43-.2-.76-.31-.51-.16-.87-.35-1.08-.57-.22-.22-.33-.5-.33-.85 0-.26.07-.49.21-.7.14-.21.33-.37.58-.49.24-.12.51-.18.8-.18.29 0 .56.05.8.15zM108.72 104.96c-.15-.16-.23-.39-.23-.69v-6.54l.56-.07v6.6c0 .31.13.46.38.46.11 0 .21-.02.32-.07l.14.41c-.16.09-.34.14-.55.14-.26 0-.47-.08-.62-.24zM114.47 102.7h-3.15c.03.7.17 1.21.43 1.53.26.32.6.49 1.03.49.25 0 .46-.04.65-.12.19-.08.39-.21.6-.38l.28.35c-.23.21-.47.36-.72.47s-.53.16-.83.16c-.63 0-1.12-.23-1.48-.7-.36-.47-.54-1.13-.54-1.98 0-.87.17-1.54.51-2.04.34-.49.81-.73 1.41-.73.59 0 1.05.22 1.36.66.31.44.47 1.06.47 1.87 0 .15-.01.29-.02.42zm-.53-.6c0-.61-.11-1.07-.32-1.39-.21-.32-.53-.49-.96-.49-.39 0-.7.16-.94.49-.24.33-.37.84-.4 1.55h2.62v-.16zM119.33 97.73v7.36h-.49l-.05-.78c-.15.27-.35.49-.58.65-.23.16-.5.24-.83.24-.56 0-1-.24-1.31-.72-.32-.48-.48-1.14-.48-1.98 0-.55.08-1.03.23-1.45.15-.42.37-.74.65-.96.28-.23.61-.34.98-.34.53 0 .97.23 1.31.7v-2.79l.57.07zm-1.12 6.76c.21-.16.39-.4.56-.72v-2.75c-.33-.53-.74-.8-1.22-.8-.42 0-.75.2-1 .58-.24.39-.36.95-.35 1.69 0 .74.11 1.3.33 1.67.22.38.53.56.93.56.29.01.54-.07.75-.23zM124.29 100.16c.23.27.34.65.34 1.14v3.79h-.56v-3.71c0-.4-.07-.7-.21-.88-.14-.19-.36-.29-.64-.29-.29 0-.55.1-.78.29s-.46.47-.67.82v3.77h-.56v-5.23h.48l.06.91c.41-.68.94-1.02 1.57-1.02.42 0 .74.14.97.41zM127.41 97.3l.26.49-1.77.84-.18-.31 1.69-1.02zm-.38 2.56v5.23h-.56v-5.23h.56z"/></g><g><path d="M6.81 150.01v6.85h-.58v-6.85h.58zM9.36 150.01v6.85h-.58v-6.85h.58zM11.65 156.18c.09.09.13.2.13.33s-.04.23-.13.32-.2.14-.33.14-.24-.04-.33-.14a.472.472 0 01-.12-.32c0-.13.04-.24.12-.33.08-.09.19-.13.33-.13s.25.04.33.13zM16.48 155.94c0 .39-.05.72-.15.97-.1.25-.25.47-.45.64s-.48.33-.83.48l-.15-.42c.28-.14.49-.28.63-.42.14-.14.24-.31.29-.5.05-.19.08-.45.08-.78V150h.58v5.94zM18.93 149.45a.4.4 0 01.12.29c0 .12-.04.22-.12.29-.08.08-.17.12-.29.12s-.22-.04-.29-.12a.385.385 0 01-.12-.29.4.4 0 01.12-.29c.08-.08.17-.12.29-.12s.21.04.29.12zm-.02 2.17v5.23h-.56v-5.23h.56zM23.88 151.93c.23.27.34.65.34 1.14v3.79h-.56v-3.71c0-.4-.07-.7-.21-.88-.14-.19-.36-.29-.64-.29-.29 0-.55.1-.78.29s-.46.47-.67.82v3.77h-.56v-5.23h.48l.06.91c.41-.68.94-1.02 1.57-1.02.41 0 .74.13.97.41zM29.41 154.47h-3.15c.03.7.17 1.21.43 1.53.26.32.6.49 1.03.49.25 0 .46-.04.65-.12.19-.08.39-.21.6-.38l.28.35c-.23.21-.47.36-.72.47s-.53.16-.83.16c-.63 0-1.12-.23-1.48-.7-.36-.47-.54-1.13-.54-1.98 0-.87.17-1.54.51-2.04.34-.49.81-.73 1.41-.73.59 0 1.05.22 1.36.66.31.44.47 1.06.47 1.87 0 .14 0 .28-.02.42zm-.53-.61c0-.61-.11-1.07-.32-1.39-.21-.32-.53-.49-.96-.49-.39 0-.7.16-.94.49-.24.33-.37.84-.4 1.55h2.62v-.16zm-.61-4.8l.26.49-1.77.84-.18-.31 1.69-1.02zM35.95 151.62v.44l-2.64 4.3h2.63l-.06.49h-3.2v-.43l2.65-4.31H32.9v-.49h3.05zM40.25 156.31c.06.11.16.2.3.26l-.13.39c-.22-.05-.39-.15-.51-.28s-.2-.32-.24-.58c-.34.57-.82.85-1.45.85-.45 0-.81-.14-1.08-.43-.26-.28-.39-.66-.39-1.13 0-.55.18-.96.53-1.25.35-.29.85-.43 1.49-.43h.83v-.56c0-.4-.08-.69-.25-.88-.17-.19-.43-.29-.8-.29-.38 0-.81.1-1.3.3l-.16-.42c.55-.23 1.06-.35 1.52-.35.53 0 .92.14 1.17.41.25.27.38.67.38 1.19v2.67c0 .24.03.42.09.53zm-.65-.75v-1.43h-.76c-1 0-1.5.42-1.5 1.26 0 .37.08.65.25.84s.41.29.71.29c.58 0 1.01-.33 1.3-.96zm-.35-6.5l.26.49-1.77.84-.18-.31 1.69-1.02zM45.23 151.62l-1.62 5.23h-.68l-1.68-5.23h.6l1.42 4.74 1.38-4.74h.58zM49.38 156.31c.06.11.16.2.3.26l-.13.39c-.22-.05-.39-.15-.51-.28s-.2-.32-.24-.58c-.34.57-.82.85-1.45.85-.45 0-.81-.14-1.08-.43-.26-.28-.39-.66-.39-1.13 0-.55.18-.96.53-1.25.35-.29.85-.43 1.49-.43h.83v-.56c0-.4-.08-.69-.25-.88-.17-.19-.43-.29-.8-.29-.38 0-.81.1-1.3.3l-.16-.42c.55-.23 1.06-.35 1.52-.35.53 0 .92.14 1.17.41.25.27.38.67.38 1.19v2.67c0 .24.03.42.09.53zm-.65-.75v-1.43h-.76c-1 0-1.5.42-1.5 1.26 0 .37.08.65.25.84s.41.29.71.29c.58 0 1.01-.33 1.3-.96zM53.73 151.62v.44l-2.64 4.3h2.63l-.06.49h-3.2v-.43l2.65-4.31h-2.43v-.49h3.05zm-.46-2.43l.24.27-1.16 1.07H52l-1.17-1.07.25-.27 1.1.85 1.09-.85zM58.06 151.93c.23.27.34.65.34 1.14v3.79h-.56v-3.71c0-.4-.07-.7-.21-.88-.14-.19-.36-.29-.64-.29-.29 0-.55.1-.78.29s-.46.47-.67.82v3.77h-.56v-5.23h.48l.06.91c.41-.68.94-1.02 1.57-1.02.41 0 .74.13.97.41zM63.59 154.47h-3.15c.03.7.17 1.21.43 1.53.26.32.6.49 1.03.49.25 0 .46-.04.65-.12.19-.08.39-.21.6-.38l.28.35c-.23.21-.47.36-.72.47s-.53.16-.83.16c-.63 0-1.12-.23-1.48-.7-.36-.47-.54-1.13-.54-1.98 0-.87.17-1.54.51-2.04.34-.49.81-.73 1.41-.73.59 0 1.05.22 1.36.66.31.44.47 1.06.47 1.87 0 .14 0 .28-.02.42zm-.53-.61c0-.61-.11-1.07-.32-1.39-.21-.32-.53-.49-.96-.49-.39 0-.7.16-.94.49-.24.33-.37.84-.4 1.55h2.62v-.16zm-.61-4.8l.26.49-1.77.84-.18-.31 1.69-1.02zM69.55 151.66c.24.1.47.24.7.44l-.26.36c-.21-.17-.42-.29-.61-.36-.19-.08-.4-.12-.62-.12-.31 0-.56.08-.75.24a.82.82 0 00-.29.66c0 .25.08.44.25.59.17.14.47.28.9.42.54.17.93.38 1.16.6.23.23.35.55.35.96 0 .46-.16.83-.49 1.1-.33.27-.74.41-1.23.41-.35 0-.67-.06-.94-.18-.27-.12-.53-.28-.76-.49l.31-.34c.21.18.43.32.64.41s.46.13.75.13c.34 0 .62-.09.83-.27s.31-.43.31-.75c0-.21-.04-.38-.1-.51a.9.9 0 00-.37-.35c-.18-.1-.43-.2-.76-.31-.51-.16-.87-.35-1.08-.57-.22-.22-.33-.5-.33-.85 0-.26.07-.49.21-.7.14-.21.33-.37.58-.49.24-.12.51-.18.8-.18.29.01.56.05.8.15zM73.94 156.64c-.31.22-.64.33-1 .33-.37 0-.65-.11-.86-.33-.21-.22-.31-.53-.31-.93v-3.62h-.79v-.46h.79v-1.25l.56-.07v1.32h1.21l-.07.46h-1.14v3.6c0 .53.22.8.67.8.23 0 .46-.07.71-.22l.23.37zM77.92 156.31c.06.11.16.2.3.26l-.13.39c-.22-.05-.39-.15-.51-.28s-.2-.32-.24-.58c-.34.57-.82.85-1.45.85-.45 0-.81-.14-1.08-.43-.26-.28-.39-.66-.39-1.13 0-.55.18-.96.53-1.25.35-.29.85-.43 1.49-.43h.83v-.56c0-.4-.08-.69-.25-.88-.17-.19-.43-.29-.8-.29-.38 0-.81.1-1.3.3l-.16-.42c.55-.23 1.06-.35 1.52-.35.53 0 .92.14 1.17.41.25.27.38.67.38 1.19v2.67c0 .24.03.42.09.53zm-.65-.75v-1.43h-.76c-1 0-1.5.42-1.5 1.26 0 .37.08.65.25.84s.41.29.71.29c.58 0 1.01-.33 1.3-.96zM82.9 151.62l-1.62 5.23h-.68l-1.68-5.23h.6l1.42 4.74 1.38-4.74h.58zM85.55 156.87c-.18.6-.41 1.06-.69 1.37-.28.31-.7.53-1.25.66l-.07-.44c.31-.09.56-.19.74-.32.18-.13.32-.29.43-.48s.22-.46.33-.8h-.2l-1.63-5.23h.58l1.42 4.81 1.38-4.81h.58l-1.62 5.24zM93.85 151.93c.23.27.34.65.34 1.14v3.79h-.56v-3.71c0-.4-.07-.7-.21-.88-.14-.19-.36-.29-.64-.29-.29 0-.55.1-.78.29s-.46.47-.67.82v3.77h-.56v-5.23h.48l.06.91c.41-.68.94-1.02 1.57-1.02.41 0 .74.13.97.41zM99.38 154.47h-3.15c.03.7.17 1.21.43 1.53.26.32.6.49 1.03.49.25 0 .46-.04.65-.12.19-.08.39-.21.6-.38l.28.35c-.23.21-.47.36-.72.47s-.53.16-.83.16c-.63 0-1.12-.23-1.48-.7-.36-.47-.54-1.13-.54-1.98 0-.87.17-1.54.51-2.04.34-.49.81-.73 1.41-.73.59 0 1.05.22 1.36.66.31.44.47 1.06.47 1.87 0 .14 0 .28-.02.42zm-.53-.61c0-.61-.11-1.07-.32-1.39-.21-.32-.53-.49-.96-.49-.39 0-.7.16-.94.49-.24.33-.37.84-.4 1.55h2.62v-.16zM104.1 152.2c.3.46.45 1.13.45 2.02 0 .87-.16 1.54-.47 2.02-.32.48-.76.73-1.33.73-.28 0-.53-.07-.76-.21-.23-.14-.42-.33-.59-.56l-.05.66h-.49v-7.36l.56-.07v2.93c.37-.56.84-.84 1.41-.84.55 0 .97.22 1.27.68zm-.48 3.74c.22-.37.33-.95.33-1.72s-.1-1.34-.31-1.7c-.21-.36-.51-.54-.91-.54-.28 0-.52.08-.73.24-.21.16-.4.38-.58.66v2.78c.35.55.76.83 1.24.83.42 0 .73-.18.96-.55zM109.2 152.22c.35.47.53 1.14.53 2.01 0 .86-.18 1.53-.54 2.01-.36.48-.85.73-1.48.73s-1.12-.24-1.47-.72c-.35-.48-.53-1.14-.53-2 0-.86.18-1.53.54-2.01.36-.48.85-.72 1.47-.72.63 0 1.13.23 1.48.7zm-2.53.33c-.25.37-.37.93-.37 1.69 0 .75.12 1.32.37 1.69.24.37.59.56 1.04.56.45 0 .8-.19 1.05-.56.25-.37.37-.94.37-1.71 0-.75-.12-1.31-.36-1.68-.24-.37-.59-.55-1.05-.55-.45 0-.8.19-1.05.56zM116.3 151.62v.44l-2.64 4.3h2.63l-.06.49h-3.2v-.43l2.65-4.31h-2.43v-.49h3.05zM123.05 151.94c.22.28.33.66.33 1.13v3.79h-.55v-3.71c0-.39-.07-.69-.21-.88a.68.68 0 00-.58-.29c-.26 0-.5.09-.71.29-.21.19-.41.46-.61.79v3.8h-.55v-3.71c0-.39-.07-.69-.21-.88s-.33-.29-.58-.29c-.26 0-.49.09-.7.29-.21.19-.41.46-.61.79v3.8h-.56v-5.23h.48l.05.87c.4-.65.88-.98 1.44-.98.3 0 .55.09.75.27.2.18.34.43.42.75.41-.68.9-1.02 1.47-1.02.41 0 .71.13.93.42zM128.58 154.47h-3.15c.03.7.17 1.21.43 1.53.26.32.6.49 1.03.49.25 0 .46-.04.65-.12.19-.08.39-.21.6-.38l.28.35c-.23.21-.47.36-.72.47s-.53.16-.83.16c-.63 0-1.12-.23-1.48-.7-.36-.47-.54-1.13-.54-1.98 0-.87.17-1.54.51-2.04.34-.49.81-.73 1.41-.73.59 0 1.05.22 1.36.66.31.44.47 1.06.47 1.87 0 .14-.01.28-.02.42zm-.71-5.28l.24.27-1.16 1.07h-.35l-1.17-1.07.25-.27 1.1.85 1.09-.85zm.18 4.67c0-.61-.11-1.07-.32-1.39-.21-.32-.53-.49-.96-.49-.39 0-.7.16-.94.49-.24.33-.37.84-.4 1.55h2.62v-.16zM133.15 151.93c.23.27.34.65.34 1.14v3.79h-.56v-3.71c0-.4-.07-.7-.21-.88-.14-.19-.36-.29-.64-.29-.29 0-.55.1-.78.29s-.46.47-.67.82v3.77h-.56v-5.23h.48l.06.91c.41-.68.94-1.02 1.57-1.02.41 0 .74.13.97.41zM136.88 156.87c-.18.6-.41 1.06-.69 1.37-.28.31-.7.53-1.25.66l-.07-.44c.31-.09.56-.19.74-.32.18-.13.32-.29.43-.48s.22-.46.33-.8h-.2l-1.63-5.23h.58l1.42 4.81 1.38-4.81h.58l-1.62 5.24zM139.98 156.18c.08.09.12.2.12.33 0 .07-.01.16-.04.25s-.06.19-.1.29l-.51 1.31h-.39l.37-1.45a.45.45 0 01-.23-.4.445.445 0 01.45-.46c.13 0 .24.04.33.13zM144.61 149.43v7.43h-.56v-7.36l.56-.07zm2.65 2.19l-1.97 2.34 2.18 2.89h-.65l-2.15-2.86 1.97-2.37h.62zM150.65 156.64c-.31.22-.64.33-1 .33-.37 0-.65-.11-.86-.33-.21-.22-.31-.53-.31-.93v-3.62h-.79v-.46h.79v-1.25l.56-.07v1.32h1.21l-.07.46h-1.14v3.6c0 .53.22.8.67.8.23 0 .46-.07.71-.22l.23.37zM154.93 154.47h-3.15c.03.7.17 1.21.43 1.53.26.32.6.49 1.03.49.25 0 .46-.04.65-.12.19-.08.39-.21.6-.38l.28.35c-.23.21-.47.36-.72.47s-.53.16-.83.16c-.63 0-1.12-.23-1.48-.7-.36-.47-.54-1.13-.54-1.98 0-.87.17-1.54.51-2.04.34-.49.81-.73 1.41-.73.59 0 1.05.22 1.36.66.31.44.47 1.06.47 1.87 0 .14-.01.28-.02.42zm-.53-.61c0-.61-.11-1.07-.32-1.39-.21-.32-.53-.49-.96-.49-.39 0-.7.16-.94.49-.24.33-.37.84-.4 1.55h2.62v-.16zM158.74 151.57l-.11.53c-.12-.04-.25-.06-.4-.06-.32 0-.58.13-.77.38-.2.26-.36.66-.49 1.19v3.23h-.56v-5.23h.48l.04 1.12c.13-.41.31-.72.53-.92.22-.2.49-.3.82-.3.15.01.3.02.46.06zM163.15 154.47H160c.03.7.17 1.21.43 1.53.26.32.6.49 1.03.49.25 0 .46-.04.65-.12.19-.08.39-.21.6-.38l.28.35c-.23.21-.47.36-.72.47s-.53.16-.83.16c-.63 0-1.12-.23-1.48-.7-.36-.47-.54-1.13-.54-1.98 0-.87.17-1.54.51-2.04.34-.49.81-.73 1.41-.73.59 0 1.05.22 1.36.66.31.44.47 1.06.47 1.87 0 .14-.01.28-.02.42zm-.53-.61c0-.61-.11-1.07-.32-1.39-.21-.32-.53-.49-.96-.49-.39 0-.7.16-.94.49-.24.33-.37.84-.4 1.55h2.62v-.16zm-.61-4.8l.26.49-1.77.84-.18-.31 1.69-1.02zM9.45 161.14c.29.46.43 1.13.43 2.01 0 .87-.16 1.54-.47 2.02s-.76.73-1.33.73c-.28 0-.53-.07-.76-.2s-.42-.3-.57-.51v2.57l-.56.08v-7.28h.49l.04.75c.39-.57.87-.86 1.45-.86.56 0 .99.23 1.28.69zm-.17 2.01c0-.76-.1-1.32-.31-1.69-.2-.36-.5-.54-.9-.54-.27 0-.52.08-.73.24-.21.16-.41.38-.59.65v2.83c.33.52.75.78 1.24.78.86 0 1.29-.75 1.29-2.27zM13.66 158.12l.24.27-1.16 1.07h-.35l-1.17-1.07.25-.27 1.1.85 1.09-.85zm.08 2.39l-.11.53c-.12-.04-.25-.06-.4-.06-.32 0-.58.13-.77.38-.2.26-.36.66-.49 1.19v3.23h-.56v-5.23h.48l.04 1.12c.13-.41.31-.72.53-.92.22-.2.49-.3.82-.3.15 0 .3.02.46.06zM15.37 158.39a.4.4 0 01.12.29c0 .12-.04.22-.12.29-.08.08-.17.12-.29.12s-.22-.04-.29-.12a.385.385 0 01-.12-.29.4.4 0 01.12-.29c.08-.08.17-.12.29-.12s.21.04.29.12zm-.02 2.17v5.23h-.56v-5.23h.56zM19.22 160.6c.24.1.47.24.7.44l-.26.36c-.21-.17-.42-.29-.61-.36-.19-.08-.4-.12-.62-.12-.31 0-.56.08-.75.24a.82.82 0 00-.29.66c0 .25.08.44.25.59.17.14.47.28.9.42.54.17.93.38 1.16.6.23.23.35.55.35.96 0 .46-.16.83-.49 1.1-.33.27-.74.41-1.23.41-.35 0-.67-.06-.94-.18-.27-.12-.53-.28-.76-.49l.31-.34c.21.18.43.32.64.41s.46.13.75.13c.34 0 .62-.09.83-.27s.31-.43.31-.75c0-.21-.04-.38-.1-.51a.9.9 0 00-.37-.35c-.18-.1-.43-.2-.76-.31-.51-.16-.87-.35-1.08-.57-.22-.22-.33-.5-.33-.85 0-.26.07-.49.21-.7.14-.21.33-.37.58-.49.24-.12.51-.18.8-.18.29 0 .56.05.8.15zM24.69 161.14c.29.46.43 1.13.43 2.01 0 .87-.16 1.54-.47 2.02s-.76.73-1.33.73c-.28 0-.53-.07-.76-.2s-.42-.3-.57-.51v2.57l-.56.08v-7.28h.49l.04.75c.39-.57.87-.86 1.45-.86.56 0 .99.23 1.28.69zm-.17 2.01c0-.76-.1-1.32-.31-1.69-.2-.36-.5-.54-.9-.54-.27 0-.52.08-.73.24-.21.16-.41.38-.59.65v2.83c.33.52.75.78 1.24.78.86 0 1.29-.75 1.29-2.27zM30.01 163.4h-3.15c.03.7.17 1.21.43 1.53.26.32.6.49 1.03.49.25 0 .46-.04.65-.12.19-.08.39-.21.6-.38l.28.35c-.23.21-.47.36-.72.47s-.53.16-.83.16c-.63 0-1.12-.23-1.48-.7-.36-.47-.54-1.13-.54-1.98 0-.87.17-1.54.51-2.04.34-.49.81-.73 1.41-.73.59 0 1.05.22 1.36.66.31.44.47 1.06.47 1.87 0 .15 0 .29-.02.42zm-.71-5.28l.24.27-1.16 1.07h-.35l-1.17-1.07.25-.27 1.1.85 1.09-.85zm.18 4.68c0-.61-.11-1.07-.32-1.39-.21-.32-.53-.49-.96-.49-.39 0-.7.16-.94.49-.24.33-.37.84-.4 1.55h2.62v-.16zM31.67 165.66c-.15-.16-.23-.39-.23-.69v-6.54l.56-.07v6.6c0 .31.13.46.38.46.11 0 .21-.02.32-.07l.14.41c-.16.09-.34.14-.55.14-.26 0-.46-.08-.62-.24zM35.62 165.81c-.18.6-.41 1.06-.69 1.37-.28.31-.7.53-1.25.66l-.07-.44c.31-.09.56-.19.74-.32.18-.13.32-.29.43-.48s.22-.46.33-.8h-.2l-1.63-5.23h.58l1.42 4.81 1.38-4.81h.58l-1.62 5.24zM41.39 158.36v7.43h-.56v-7.36l.56-.07zm2.65 2.2l-1.97 2.34 2.18 2.89h-.65l-2.15-2.86 1.97-2.37h.62zM48.61 163.4h-3.15c.03.7.17 1.21.43 1.53.26.32.6.49 1.03.49.25 0 .46-.04.65-.12.19-.08.39-.21.6-.38l.28.35c-.23.21-.47.36-.72.47s-.53.16-.83.16c-.63 0-1.12-.23-1.48-.7-.36-.47-.54-1.13-.54-1.98 0-.87.17-1.54.51-2.04.34-.49.81-.73 1.41-.73.59 0 1.05.22 1.36.66.31.44.47 1.06.47 1.87 0 .15 0 .29-.02.42zm-.53-.6c0-.61-.11-1.07-.32-1.39-.21-.32-.53-.49-.96-.49-.39 0-.7.16-.94.49-.24.33-.37.84-.4 1.55h2.62v-.16zM54.57 160.6c.24.1.47.24.7.44l-.26.36c-.21-.17-.42-.29-.61-.36-.19-.08-.4-.12-.62-.12-.31 0-.56.08-.75.24a.82.82 0 00-.29.66c0 .25.08.44.25.59.17.14.47.28.9.42.54.17.93.38 1.16.6.23.23.35.55.35.96 0 .46-.16.83-.49 1.1-.33.27-.74.41-1.23.41-.35 0-.67-.06-.94-.18-.27-.12-.53-.28-.76-.49l.31-.34c.21.18.43.32.64.41s.46.13.75.13c.34 0 .62-.09.83-.27s.31-.43.31-.75c0-.21-.04-.38-.1-.51a.9.9 0 00-.37-.35c-.18-.1-.43-.2-.76-.31-.51-.16-.87-.35-1.08-.57-.22-.22-.33-.5-.33-.85 0-.26.07-.49.21-.7.14-.21.33-.37.58-.49.24-.12.51-.18.8-.18.29 0 .56.05.8.15zM62.29 160.87c.22.28.33.66.33 1.13v3.79h-.55v-3.71c0-.39-.07-.69-.21-.88a.68.68 0 00-.58-.29c-.26 0-.5.09-.71.29-.21.19-.41.46-.61.79v3.8h-.55v-3.71c0-.39-.07-.69-.21-.88s-.33-.29-.58-.29c-.26 0-.49.09-.7.29-.21.19-.41.46-.61.79v3.8h-.56v-5.23h.48l.05.87c.4-.65.88-.98 1.44-.98.3 0 .55.09.75.27.2.18.34.43.42.75.41-.68.9-1.02 1.47-1.02.41 0 .71.14.93.42zM66.79 160.51l-.11.53c-.12-.04-.25-.06-.4-.06-.32 0-.58.13-.77.38-.2.26-.36.66-.49 1.19v3.23h-.56v-5.23h.48l.04 1.12c.13-.41.31-.72.53-.92.22-.2.49-.3.82-.3.15 0 .3.02.46.06zM70.02 165.57c-.31.22-.64.33-1 .33-.37 0-.65-.11-.86-.33-.21-.22-.31-.53-.31-.93v-3.62h-.79v-.46h.79v-1.25l.56-.07v1.32h1.21l-.07.46h-1.14v3.6c0 .53.22.8.67.8.23 0 .46-.07.71-.22l.23.37zM71.52 158.39a.4.4 0 01.12.29c0 .12-.04.22-.12.29-.08.08-.17.12-.29.12s-.22-.04-.29-.12a.385.385 0 01-.12-.29.4.4 0 01.12-.29c.08-.08.17-.12.29-.12s.21.04.29.12zm-.02 2.17v5.23h-.56v-5.23h.56zM73.76 165.11c.08.09.12.2.12.33 0 .07-.01.16-.04.25s-.06.19-.1.29l-.51 1.31h-.39l.37-1.45a.45.45 0 01-.23-.4.445.445 0 01.45-.46c.14 0 .24.05.33.13zM80.89 165.25c.06.11.16.2.3.26l-.13.39c-.22-.05-.39-.15-.51-.28s-.2-.32-.24-.58c-.34.57-.82.85-1.45.85-.45 0-.81-.14-1.08-.43-.26-.28-.39-.66-.39-1.13 0-.55.18-.96.53-1.25.35-.29.85-.43 1.49-.43h.83v-.56c0-.4-.08-.69-.25-.88-.17-.19-.43-.29-.8-.29-.38 0-.81.1-1.3.3l-.16-.42c.55-.23 1.06-.35 1.52-.35.53 0 .92.14 1.17.41.25.27.38.67.38 1.19v2.67c0 .24.03.42.09.53zm-.65-.76v-1.43h-.76c-1 0-1.5.42-1.5 1.26 0 .37.08.65.25.84s.41.29.71.29c.58 0 1.01-.32 1.3-.96zM82.85 165.66c-.15-.16-.23-.39-.23-.69v-6.54l.56-.07v6.6c0 .31.13.46.38.46.11 0 .21-.02.32-.07l.14.41c-.16.09-.34.14-.55.14-.26 0-.46-.08-.62-.24zM88.6 163.4h-3.15c.03.7.17 1.21.43 1.53.26.32.6.49 1.03.49.25 0 .46-.04.65-.12.19-.08.39-.21.6-.38l.28.35c-.23.21-.47.36-.72.47s-.53.16-.83.16c-.63 0-1.12-.23-1.48-.7-.36-.47-.54-1.13-.54-1.98 0-.87.17-1.54.51-2.04.34-.49.81-.73 1.41-.73.59 0 1.05.22 1.36.66.31.44.47 1.06.47 1.87 0 .15 0 .29-.02.42zm-.53-.6c0-.61-.11-1.07-.32-1.39-.21-.32-.53-.49-.96-.49-.39 0-.7.16-.94.49-.24.33-.37.84-.4 1.55h2.62v-.16zM95.66 160.86c.23.27.34.65.34 1.14v3.79h-.56v-3.71c0-.4-.07-.7-.21-.88-.14-.19-.36-.29-.64-.29-.29 0-.55.1-.78.29s-.46.47-.67.82v3.77h-.56v-5.23h.48l.06.91c.41-.68.94-1.02 1.57-1.02.41 0 .74.14.97.41zM101.19 163.4h-3.15c.03.7.17 1.21.43 1.53.26.32.6.49 1.03.49.25 0 .46-.04.65-.12.19-.08.39-.21.6-.38l.28.35c-.23.21-.47.36-.72.47s-.53.16-.83.16c-.63 0-1.12-.23-1.48-.7-.36-.47-.54-1.13-.54-1.98 0-.87.17-1.54.51-2.04.34-.49.81-.73 1.41-.73.59 0 1.05.22 1.36.66.31.44.47 1.06.47 1.87 0 .15 0 .29-.02.42zm-.53-.6c0-.61-.11-1.07-.32-1.39-.21-.32-.53-.49-.96-.49-.39 0-.7.16-.94.49-.24.33-.37.84-.4 1.55h2.62v-.16zM105.87 160.56l-1.62 5.23h-.68l-1.68-5.23h.6l1.42 4.74 1.38-4.74h.58zM109.53 160.56v.44l-2.64 4.3h2.63l-.06.49h-3.2v-.43l2.65-4.31h-2.43v-.49h3.05zM112.95 165.57c-.31.22-.64.33-1 .33-.37 0-.65-.11-.86-.33-.21-.22-.31-.53-.31-.93v-3.62h-.79v-.46h.79v-1.25l.56-.07v1.32h1.21l-.07.46h-1.14v3.6c0 .53.22.8.67.8.23 0 .46-.07.71-.22l.23.37zM116.93 165.25c.06.11.16.2.3.26l-.13.39c-.22-.05-.39-.15-.51-.28s-.2-.32-.24-.58c-.34.57-.82.85-1.45.85-.45 0-.81-.14-1.08-.43-.26-.28-.39-.66-.39-1.13 0-.55.18-.96.53-1.25.35-.29.85-.43 1.49-.43h.83v-.56c0-.4-.08-.69-.25-.88-.17-.19-.43-.29-.8-.29-.38 0-.81.1-1.3.3l-.16-.42c.55-.23 1.06-.35 1.52-.35.53 0 .92.14 1.17.41.25.27.38.67.38 1.19v2.67c0 .24.03.42.09.53zm-.65-.76v-1.43h-.76c-1 0-1.5.42-1.5 1.26 0 .37.08.65.25.84s.41.29.71.29c.58 0 1.01-.32 1.3-.96zM121.8 160.87c.23.28.34.66.34 1.13v3.79h-.56v-3.71c0-.78-.29-1.17-.87-1.17-.29 0-.55.1-.78.29-.23.19-.45.47-.67.82v3.77h-.56v-7.36l.56-.07v3.08c.21-.31.43-.56.68-.73.25-.17.54-.26.87-.26.43 0 .76.14.99.42zM127.31 165.79h-.48l-.04-.9c-.37.67-.87 1.01-1.52 1.01-.42 0-.75-.13-.99-.4s-.36-.64-.36-1.11v-3.83h.56v3.78c0 .73.3 1.09.9 1.09.29 0 .55-.09.77-.28s.42-.45.6-.79v-3.8h.56v5.23zM129.75 165.75c0 .41-.05.74-.14.99-.09.25-.23.45-.41.61-.18.16-.42.32-.75.48l-.18-.4c.23-.13.41-.25.54-.38.12-.12.22-.29.28-.49.06-.2.1-.47.1-.8v-5.2h.56v5.19zm.02-7.36a.4.4 0 01.12.29c0 .12-.04.22-.12.29-.08.08-.17.12-.29.12s-.22-.04-.29-.12a.385.385 0 01-.12-.29.4.4 0 01.12-.29c.08-.08.17-.12.29-.12s.21.04.29.12zM132.57 158l.26.49-1.77.84-.18-.31 1.69-1.02zm-.38 2.56v5.23h-.56v-5.23h.56zM138.55 160.6c.24.1.47.24.7.44l-.26.36c-.21-.17-.42-.29-.61-.36-.19-.08-.4-.12-.62-.12-.31 0-.56.08-.75.24a.82.82 0 00-.29.66c0 .25.08.44.25.59.17.14.47.28.9.42.54.17.93.38 1.16.6.23.23.35.55.35.96 0 .46-.16.83-.49 1.1-.33.27-.74.41-1.23.41-.35 0-.67-.06-.94-.18-.27-.12-.53-.28-.76-.49l.31-.34c.21.18.43.32.64.41s.46.13.75.13c.34 0 .62-.09.83-.27s.31-.43.31-.75c0-.21-.04-.38-.1-.51a.9.9 0 00-.37-.35c-.18-.1-.43-.2-.76-.31-.51-.16-.87-.35-1.08-.57-.22-.22-.33-.5-.33-.85 0-.26.07-.49.21-.7.14-.21.33-.37.58-.49.24-.12.51-.18.8-.18.29 0 .56.05.8.15zM144.12 163.4h-3.15c.03.7.17 1.21.43 1.53.26.32.6.49 1.03.49.25 0 .46-.04.65-.12.19-.08.39-.21.6-.38l.28.35c-.23.21-.47.36-.72.47s-.53.16-.83.16c-.63 0-1.12-.23-1.48-.7-.36-.47-.54-1.13-.54-1.98 0-.87.17-1.54.51-2.04.34-.49.81-.73 1.41-.73.59 0 1.05.22 1.36.66.31.44.47 1.06.47 1.87 0 .15-.01.29-.02.42zm-.53-.6c0-.61-.11-1.07-.32-1.39-.21-.32-.53-.49-.96-.49-.39 0-.7.16-.94.49-.24.33-.37.84-.4 1.55h2.62v-.16z"/><path d="M6.75 167.3v7.43h-.56v-7.36l.56-.07zm2.65 2.2l-1.97 2.34 2.18 2.89h-.65l-2.15-2.86 1.97-2.37h.62zM16.19 169.8c.23.27.34.65.34 1.14v3.79h-.56v-3.71c0-.4-.07-.7-.21-.88-.14-.19-.36-.29-.64-.29-.29 0-.55.1-.78.29s-.46.47-.67.82v3.77h-.57v-5.23h.48l.06.91c.41-.68.94-1.02 1.57-1.02.42 0 .75.14.98.41zM21.72 172.34h-3.15c.03.7.17 1.21.43 1.53.26.32.6.49 1.03.49.25 0 .46-.04.65-.12.19-.08.39-.21.6-.38l.28.35c-.23.21-.47.36-.72.47s-.53.16-.83.16c-.63 0-1.12-.23-1.48-.7-.36-.47-.54-1.13-.54-1.98 0-.87.17-1.54.51-2.04.34-.49.81-.73 1.41-.73.59 0 1.05.22 1.36.66.31.44.47 1.06.47 1.87 0 .15 0 .29-.02.42zm-.53-.6c0-.61-.11-1.07-.32-1.39-.21-.32-.53-.49-.96-.49-.39 0-.7.16-.94.49-.24.33-.37.84-.4 1.55h2.62v-.16zM28.71 169.81c.22.28.33.66.33 1.13v3.79h-.55v-3.71c0-.39-.07-.69-.21-.88a.68.68 0 00-.58-.29c-.26 0-.5.09-.71.29-.21.19-.41.46-.61.79v3.8h-.55v-3.71c0-.39-.07-.69-.21-.88s-.33-.29-.58-.29c-.26 0-.49.09-.7.29-.21.19-.41.46-.61.79v3.8h-.53v-5.23h.48l.05.87c.4-.65.88-.98 1.44-.98.3 0 .55.09.75.27.2.18.34.43.42.75.41-.68.9-1.02 1.47-1.02.38 0 .68.14.9.42zM34 170.09c.35.47.53 1.14.53 2.01 0 .86-.18 1.53-.54 2.01-.36.48-.85.73-1.48.73s-1.12-.24-1.47-.72c-.35-.48-.53-1.14-.53-2 0-.86.18-1.53.54-2.01.36-.48.85-.72 1.47-.72.64 0 1.13.24 1.48.7zm-2.53.34c-.25.37-.37.93-.37 1.69 0 .75.12 1.32.37 1.69.24.37.59.56 1.04.56.45 0 .8-.19 1.05-.56.25-.37.37-.94.37-1.71 0-.75-.12-1.31-.36-1.68-.24-.37-.59-.55-1.05-.55-.45 0-.8.19-1.05.56zM38.4 169.52c.21.08.42.22.62.41l-.28.36a1.433 1.433 0 00-1.04-.41c-.44 0-.79.19-1.04.57s-.38.95-.38 1.71c0 .75.13 1.31.38 1.67.25.36.6.54 1.05.54.21 0 .39-.04.56-.11.17-.07.34-.17.51-.31l.28.35c-.39.37-.85.56-1.36.56-.63 0-1.12-.23-1.48-.7-.36-.46-.54-1.13-.54-2 0-.87.18-1.54.54-2.03.36-.49.85-.73 1.47-.73.26-.01.5.04.71.12zM40.82 167.33a.4.4 0 01.12.29c0 .12-.04.22-.12.29-.08.08-.17.12-.29.12s-.22-.04-.29-.12a.385.385 0 01-.12-.29.4.4 0 01.12-.29c.08-.08.17-.12.29-.12s.21.04.29.12zm-.02 2.17v5.23h-.56v-5.23h.56zM48.26 169.8c.23.27.34.65.34 1.14v3.79h-.56v-3.71c0-.4-.07-.7-.21-.88-.14-.19-.36-.29-.64-.29-.29 0-.55.1-.78.29s-.46.47-.67.82v3.77h-.56v-5.23h.48l.06.91c.41-.68.94-1.02 1.57-1.02.41 0 .74.14.97.41zM53.79 172.34h-3.15c.03.7.17 1.21.43 1.53.26.32.6.49 1.03.49.25 0 .46-.04.65-.12.19-.08.39-.21.6-.38l.28.35c-.23.21-.47.36-.72.47s-.53.16-.83.16c-.63 0-1.12-.23-1.48-.7-.36-.47-.54-1.13-.54-1.98 0-.87.17-1.54.51-2.04.34-.49.81-.73 1.41-.73.59 0 1.05.22 1.36.66.31.44.47 1.06.47 1.87 0 .15 0 .29-.02.42zm-.53-.6c0-.61-.11-1.07-.32-1.39-.21-.32-.53-.49-.96-.49-.39 0-.7.16-.94.49-.24.33-.37.84-.4 1.55h2.62v-.16zM58.51 170.08c.3.46.45 1.13.45 2.02 0 .87-.16 1.54-.47 2.02-.32.48-.76.73-1.33.73-.28 0-.53-.07-.76-.21-.23-.14-.42-.33-.59-.56l-.05.66h-.49v-7.36l.56-.07v2.93c.37-.56.84-.84 1.41-.84.55-.01.97.22 1.27.68zm-.48 3.73c.22-.37.33-.95.33-1.72s-.1-1.34-.31-1.7c-.21-.36-.51-.54-.91-.54-.28 0-.52.08-.73.24-.21.16-.4.38-.58.66v2.78c.35.55.76.83 1.24.83.42.01.73-.17.96-.55zM63.61 170.09c.35.47.53 1.14.53 2.01 0 .86-.18 1.53-.54 2.01-.36.48-.85.73-1.48.73s-1.12-.24-1.47-.72c-.35-.48-.53-1.14-.53-2 0-.86.18-1.53.54-2.01.36-.48.85-.72 1.47-.72.64 0 1.13.24 1.48.7zm-2.53.34c-.25.37-.37.93-.37 1.69 0 .75.12 1.32.37 1.69.24.37.59.56 1.04.56.45 0 .8-.19 1.05-.56.25-.37.37-.94.37-1.71 0-.75-.12-1.31-.36-1.68-.24-.37-.59-.55-1.05-.55-.45 0-.8.19-1.05.56zM70.13 169.54c.24.1.47.24.7.44l-.26.36c-.21-.17-.42-.29-.61-.36-.19-.08-.4-.12-.62-.12-.31 0-.56.08-.75.24a.82.82 0 00-.29.66c0 .25.08.44.25.59.17.14.47.28.9.42.54.17.93.38 1.16.6.23.23.35.55.35.96 0 .46-.16.83-.49 1.1-.33.27-.74.41-1.23.41-.35 0-.67-.06-.94-.18-.27-.12-.53-.28-.76-.49l.31-.34c.21.18.43.32.64.41s.46.13.75.13c.34 0 .62-.09.83-.27s.31-.43.31-.75c0-.21-.04-.38-.1-.51a.9.9 0 00-.37-.35c-.18-.1-.43-.2-.76-.31-.51-.16-.87-.35-1.08-.57-.22-.22-.33-.5-.33-.85 0-.26.07-.49.21-.7.14-.21.33-.37.58-.49.24-.12.51-.18.8-.18.29 0 .56.05.8.15zM74.52 174.51c-.31.22-.64.33-1 .33-.37 0-.65-.11-.86-.33-.21-.22-.31-.53-.31-.93v-3.62h-.79v-.46h.79v-1.25l.56-.07v1.32h1.21l-.07.46h-1.14v3.6c0 .53.22.8.67.8.23 0 .46-.07.71-.22l.23.37zM78.5 174.19c.06.11.16.2.3.26l-.13.39c-.22-.05-.39-.15-.51-.28s-.2-.32-.24-.58c-.34.57-.82.85-1.45.85-.45 0-.81-.14-1.08-.43-.26-.28-.39-.66-.39-1.13 0-.55.18-.96.53-1.25.35-.29.85-.43 1.49-.43h.83v-.56c0-.4-.08-.69-.25-.88-.17-.19-.43-.29-.8-.29-.38 0-.81.1-1.3.3l-.16-.42c.55-.23 1.06-.35 1.52-.35.53 0 .92.14 1.17.41.25.27.38.67.38 1.19v2.67c0 .24.03.42.09.53zm-.65-.76V172h-.76c-1 0-1.5.42-1.5 1.26 0 .37.08.65.25.84s.41.29.71.29c.58 0 1.01-.32 1.3-.96zM83.48 169.5l-1.62 5.23h-.68l-1.68-5.23h.6l1.42 4.74 1.38-4.74h.58zM87.91 174.73h-.48l-.04-.9c-.37.67-.87 1.01-1.52 1.01-.42 0-.75-.13-.99-.4s-.36-.64-.36-1.11v-3.83h.56v3.78c0 .73.3 1.09.9 1.09.29 0 .55-.09.77-.28s.42-.45.6-.79v-3.8h.56v5.23zM90.17 174.05c.08.09.12.2.12.33 0 .07-.01.16-.04.25s-.06.19-.1.29l-.51 1.31h-.39l.37-1.45a.45.45 0 01-.23-.4.445.445 0 01.45-.46c.14 0 .24.05.33.13zM94.8 167.3v7.43h-.56v-7.36l.56-.07zm2.65 2.2l-1.97 2.34 2.18 2.89h-.65l-2.15-2.86 1.97-2.37h.62zM100.84 174.51c-.31.22-.64.33-1 .33-.37 0-.65-.11-.86-.33-.21-.22-.31-.53-.31-.93v-3.62h-.79v-.46h.79v-1.25l.56-.07v1.32h1.21l-.07.46h-1.14v3.6c0 .53.22.8.67.8.23 0 .46-.07.71-.22l.23.37zM105.12 172.34h-3.15c.03.7.17 1.21.43 1.53.26.32.6.49 1.03.49.25 0 .46-.04.65-.12.19-.08.39-.21.6-.38l.28.35c-.23.21-.47.36-.72.47s-.53.16-.83.16c-.63 0-1.12-.23-1.48-.7-.36-.47-.54-1.13-.54-1.98 0-.87.17-1.54.51-2.04.34-.49.81-.73 1.41-.73.59 0 1.05.22 1.36.66.31.44.47 1.06.47 1.87 0 .15 0 .29-.02.42zm-.53-.6c0-.61-.11-1.07-.32-1.39-.21-.32-.53-.49-.96-.49-.39 0-.7.16-.94.49-.24.33-.37.84-.4 1.55h2.62v-.16zM108.93 169.45l-.11.53c-.12-.04-.25-.06-.4-.06-.32 0-.58.13-.77.38-.2.26-.36.66-.49 1.19v3.23h-.56v-5.23h.48l.04 1.12c.13-.41.31-.72.53-.92.22-.2.49-.3.82-.3.15 0 .3.02.46.06zM111.54 174.75c-.18.6-.41 1.06-.69 1.37-.28.31-.7.53-1.25.66l-.07-.44c.31-.09.56-.19.74-.32.18-.13.32-.29.43-.48s.22-.46.33-.8h-.2l-1.63-5.23h.58l1.42 4.81 1.38-4.81h.58l-1.62 5.24zm.31-7.81l.26.49-1.77.84-.18-.31 1.69-1.02zM118.74 169.54c.24.1.47.24.7.44l-.26.36c-.21-.17-.42-.29-.61-.36-.19-.08-.4-.12-.62-.12-.31 0-.56.08-.75.24a.82.82 0 00-.29.66c0 .25.08.44.25.59.17.14.47.28.9.42.54.17.93.38 1.16.6.23.23.35.55.35.96 0 .46-.16.83-.49 1.1-.33.27-.74.41-1.23.41-.35 0-.67-.06-.94-.18-.27-.12-.53-.28-.76-.49l.31-.34c.21.18.43.32.64.41s.46.13.75.13c.34 0 .62-.09.83-.27s.31-.43.31-.75c0-.21-.04-.38-.1-.51a.9.9 0 00-.37-.35c-.18-.1-.43-.2-.76-.31-.51-.16-.87-.35-1.08-.57-.22-.22-.33-.5-.33-.85 0-.26.07-.49.21-.7.14-.21.33-.37.58-.49.24-.12.51-.18.8-.18.29 0 .56.05.8.15zM126.46 169.81c.22.28.33.66.33 1.13v3.79h-.55v-3.71c0-.39-.07-.69-.21-.88a.68.68 0 00-.58-.29c-.26 0-.5.09-.71.29-.21.19-.41.46-.61.79v3.8h-.55v-3.71c0-.39-.07-.69-.21-.88s-.33-.29-.58-.29c-.26 0-.49.09-.7.29-.21.19-.41.46-.61.79v3.8h-.56v-5.23h.48l.05.87c.4-.65.88-.98 1.44-.98.3 0 .55.09.75.27.2.18.34.43.42.75.41-.68.9-1.02 1.47-1.02.41 0 .71.14.93.42zM130.96 169.45l-.11.53c-.12-.04-.25-.06-.4-.06-.32 0-.58.13-.77.38-.2.26-.36.66-.49 1.19v3.23h-.56v-5.23h.48l.04 1.12c.13-.41.31-.72.53-.92.22-.2.49-.3.82-.3.15 0 .3.02.46.06zM134.19 174.51c-.31.22-.64.33-1 .33-.37 0-.65-.11-.86-.33-.21-.22-.31-.53-.31-.93v-3.62h-.79v-.46h.79v-1.25l.56-.07v1.32h1.21l-.07.46h-1.14v3.6c0 .53.22.8.67.8.23 0 .46-.07.71-.22l.23.37zM140.17 169.5v.44l-2.64 4.3h2.63l-.06.49h-3.2v-.43l2.65-4.31h-2.43v-.49h3.05zM144.67 170.08c.29.46.43 1.13.43 2.01 0 .87-.16 1.54-.47 2.02s-.76.73-1.33.73c-.28 0-.53-.07-.76-.2s-.42-.3-.57-.51v2.57l-.56.08v-7.28h.49l.04.75c.39-.57.87-.86 1.45-.86.56 0 .99.23 1.28.69zm-.17 2.01c0-.76-.1-1.32-.31-1.69-.2-.36-.5-.54-.9-.54-.27 0-.52.08-.73.24-.21.16-.41.38-.59.65v2.83c.33.52.75.78 1.24.78.86 0 1.29-.75 1.29-2.27zM149.97 174.73h-.48l-.04-.9c-.37.67-.87 1.01-1.52 1.01-.42 0-.75-.13-.99-.4s-.36-.64-.36-1.11v-3.83h.56v3.78c0 .73.3 1.09.9 1.09.29 0 .55-.09.77-.28s.42-.45.6-.79v-3.8h.56v5.23zm-1.03-7.94c.17.17.25.4.25.68 0 .29-.08.51-.25.68s-.39.25-.66.25-.48-.08-.65-.25c-.17-.17-.25-.4-.25-.68s.08-.51.25-.68c.17-.17.38-.25.65-.25.27-.01.49.08.66.25zm-1.15.67c0 .4.16.6.49.6.16 0 .28-.05.37-.15.09-.1.13-.25.13-.45 0-.39-.17-.59-.5-.59-.32 0-.49.2-.49.59zM153.84 169.54c.24.1.47.24.7.44l-.26.36c-.21-.17-.42-.29-.61-.36-.19-.08-.4-.12-.62-.12-.31 0-.56.08-.75.24a.82.82 0 00-.29.66c0 .25.08.44.25.59.17.14.47.28.9.42.54.17.93.38 1.16.6.23.23.35.55.35.96 0 .46-.16.83-.49 1.1-.33.27-.74.41-1.23.41-.35 0-.67-.06-.94-.18-.27-.12-.53-.28-.76-.49l.31-.34c.21.18.43.32.64.41s.46.13.75.13c.34 0 .62-.09.83-.27s.31-.43.31-.75c0-.21-.04-.38-.1-.51a.9.9 0 00-.37-.35c-.18-.1-.43-.2-.76-.31-.51-.16-.87-.35-1.08-.57-.22-.22-.33-.5-.33-.85 0-.26.07-.49.21-.7.14-.21.33-.37.58-.49.24-.12.51-.18.8-.18.29 0 .56.05.8.15zM159.17 170.09c.35.47.53 1.14.53 2.01 0 .86-.18 1.53-.54 2.01-.36.48-.85.73-1.48.73s-1.12-.24-1.47-.72c-.35-.48-.53-1.14-.53-2 0-.86.18-1.53.54-2.01.36-.48.85-.72 1.47-.72.63 0 1.13.24 1.48.7zm-2.53.34c-.25.37-.37.93-.37 1.69 0 .75.12 1.32.37 1.69.24.37.59.56 1.04.56.45 0 .8-.19 1.05-.56.25-.37.37-.94.37-1.71 0-.75-.12-1.31-.36-1.68-.24-.37-.59-.55-1.05-.55-.45 0-.8.19-1.05.56zM164.45 170.08c.3.46.45 1.13.45 2.02 0 .87-.16 1.54-.47 2.02-.32.48-.76.73-1.33.73-.28 0-.53-.07-.76-.21-.23-.14-.42-.33-.59-.56l-.05.66h-.49v-7.36l.56-.07v2.93c.37-.56.84-.84 1.41-.84.55-.01.97.22 1.27.68zm-.48 3.73c.22-.37.33-.95.33-1.72s-.1-1.34-.31-1.7c-.21-.36-.51-.54-.91-.54-.28 0-.52.08-.73.24-.21.16-.4.38-.58.66v2.78c.35.55.76.83 1.24.83.41.01.73-.17.96-.55zM167.01 167.33a.4.4 0 01.12.29c0 .12-.04.22-.12.29-.08.08-.17.12-.29.12s-.22-.04-.29-.12a.385.385 0 01-.12-.29.4.4 0 01.12-.29c.08-.08.17-.12.29-.12s.21.04.29.12zm-.02 2.17v5.23h-.56v-5.23h.56zM169.05 174.6c-.15-.16-.23-.39-.23-.69v-6.54l.56-.07v6.6c0 .31.13.46.38.46.11 0 .21-.02.32-.07l.14.41c-.16.09-.34.14-.55.14-.26 0-.47-.08-.62-.24z"/></g><g><path d="M180.69 40.19c.36.14.7.35 1.01.64l-.65.75c-.25-.21-.5-.36-.75-.45a2.36 2.36 0 00-.8-.14c-.32 0-.58.07-.77.21-.2.14-.3.34-.3.6 0 .17.04.32.12.43.08.11.21.22.42.32.2.1.5.21.89.33.68.21 1.19.48 1.53.79.34.32.52.78.52 1.39 0 .41-.11.78-.32 1.1s-.51.57-.91.75c-.39.18-.86.27-1.4.27-.53 0-1-.08-1.42-.26-.42-.17-.78-.4-1.08-.69l.68-.76c.27.23.54.4.83.51.29.12.6.17.95.17.38 0 .69-.09.92-.27.23-.18.35-.43.35-.76 0-.2-.04-.36-.12-.49-.08-.13-.22-.25-.41-.35s-.47-.21-.84-.33c-.73-.23-1.26-.5-1.59-.82-.33-.32-.49-.74-.49-1.26 0-.38.1-.71.3-1 .2-.29.48-.51.83-.67s.76-.24 1.21-.24c.51.02.93.09 1.29.23zM183.29 46.84c-.23-.24-.35-.57-.35-1v-6.2l1.28-.14v6.3c0 .25.1.37.3.37.1 0 .2-.02.3-.05l.27.9c-.27.12-.55.18-.85.18-.41-.01-.73-.12-.95-.36zM189.92 42.35c.44.5.66 1.18.66 2.04 0 .55-.1 1.04-.3 1.47-.2.42-.49.75-.86.98s-.82.35-1.33.35c-.78 0-1.39-.25-1.83-.75-.44-.5-.66-1.18-.66-2.06 0-.55.1-1.04.3-1.46.2-.42.49-.75.86-.98.38-.23.82-.35 1.33-.35.79.01 1.4.26 1.83.76zm-2.97 2.04c0 .63.09 1.09.29 1.39.19.3.47.44.85.44s.67-.15.86-.45c.19-.3.28-.76.28-1.38 0-.62-.09-1.08-.28-1.38-.19-.3-.47-.44-.85-.44-.77 0-1.15.61-1.15 1.82zM196.03 41.75l-1.72 5.29h-1.53l-1.75-5.29h1.39l1.13 4.26 1.16-4.26h1.32zM200.75 42.03c.26.28.39.68.39 1.18v3.83h-1.28v-3.63c0-.31-.05-.53-.17-.66-.11-.13-.27-.19-.48-.19-.22 0-.42.07-.59.21-.18.14-.35.33-.52.6v3.68h-1.28v-5.29h1.11l.1.69c.43-.56.97-.84 1.61-.84.47-.01.84.14 1.11.42zM204.03 38.84l.52 1-2.26.9-.36-.65 2.1-1.25zm-.12 2.91v5.29h-1.28v-5.29h1.28zM212.17 42.33c.32.49.48 1.17.48 2.05 0 .55-.08 1.03-.25 1.46-.16.42-.4.75-.72 1s-.69.36-1.12.36c-.56 0-1-.19-1.33-.58v2.47l-1.28.14v-7.47h1.12l.07.65c.21-.27.44-.47.71-.6.27-.13.55-.2.84-.2.67-.01 1.16.24 1.48.72zm-.86 2.06c0-.65-.08-1.11-.25-1.4a.814.814 0 00-.75-.43c-.21 0-.41.07-.6.2s-.35.3-.48.53v2.38c.25.37.57.55.97.55.74-.01 1.11-.61 1.11-1.83zM217.89 42.35c.44.5.66 1.18.66 2.04 0 .55-.1 1.04-.3 1.47-.2.42-.49.75-.86.98s-.82.35-1.33.35c-.78 0-1.39-.25-1.83-.75-.44-.5-.66-1.18-.66-2.06 0-.55.1-1.04.3-1.46.2-.42.49-.75.86-.98.38-.23.82-.35 1.33-.35.79.01 1.4.26 1.83.76zm-2.97 2.04c0 .63.09 1.09.29 1.39.19.3.47.44.85.44s.67-.15.86-.45c.19-.3.28-.76.28-1.38 0-.62-.09-1.08-.28-1.38-.19-.3-.47-.44-.85-.44-.77 0-1.15.61-1.15 1.82zM223.97 42.33c.32.49.48 1.17.48 2.05 0 .55-.08 1.03-.25 1.46-.16.42-.4.75-.72 1s-.69.36-1.12.36c-.56 0-1-.19-1.33-.58v2.47l-1.28.14v-7.47h1.12l.07.65c.21-.27.44-.47.71-.6.27-.13.55-.2.84-.2.67-.01 1.16.24 1.48.72zm-.86 2.06c0-.65-.08-1.11-.25-1.4a.814.814 0 00-.75-.43c-.21 0-.41.07-.6.2s-.35.3-.48.53v2.38c.25.37.57.55.97.55.74-.01 1.11-.61 1.11-1.83zM226.92 39.3c.15.15.22.33.22.55 0 .22-.08.4-.22.55-.15.15-.35.22-.58.22-.23 0-.43-.07-.58-.22a.747.747 0 01-.23-.55c0-.22.08-.4.23-.55.15-.15.34-.22.58-.22.24-.01.43.07.58.22zm.07 2.45v5.29h-1.28v-5.29h1.28zM232.08 42.23l-.5.75c-.45-.29-.9-.43-1.33-.43-.25 0-.45.05-.59.15-.14.1-.21.22-.21.38 0 .12.03.22.09.3.06.08.17.16.33.23s.39.15.69.23c.57.15 1 .36 1.28.61s.42.61.42 1.06c0 .53-.21.94-.64 1.24s-.96.45-1.59.45c-.43 0-.83-.07-1.18-.2-.36-.13-.67-.32-.92-.55l.64-.72c.46.35.94.52 1.44.52.29 0 .51-.06.68-.17s.25-.27.25-.47c0-.15-.03-.27-.09-.36s-.18-.17-.34-.24c-.16-.07-.42-.16-.77-.25-.54-.15-.94-.35-1.19-.62-.25-.26-.38-.59-.38-.99 0-.29.08-.56.25-.79.17-.23.41-.42.72-.55.31-.13.67-.2 1.07-.2.7-.01 1.33.2 1.87.62zM239.34 42.23l-.5.75c-.45-.29-.9-.43-1.33-.43-.25 0-.45.05-.59.15-.14.1-.21.22-.21.38 0 .12.03.22.09.3.06.08.17.16.33.23s.39.15.69.23c.57.15 1 .36 1.28.61s.42.61.42 1.06c0 .53-.21.94-.64 1.24s-.96.45-1.59.45c-.43 0-.83-.07-1.18-.2-.36-.13-.67-.32-.92-.55l.64-.72c.46.35.94.52 1.44.52.29 0 .51-.06.68-.17s.25-.27.25-.47c0-.15-.03-.27-.09-.36s-.18-.17-.34-.24c-.16-.07-.42-.16-.77-.25-.54-.15-.94-.35-1.19-.62-.25-.26-.38-.59-.38-.99 0-.29.08-.56.25-.79.17-.23.41-.42.72-.55.31-.13.67-.2 1.07-.2.7-.01 1.33.2 1.87.62zM243.58 46.79c-.19.13-.39.23-.62.3-.23.07-.46.1-.71.1-.52-.01-.92-.16-1.18-.45-.27-.29-.41-.72-.41-1.29v-2.79h-.83v-.92h.83v-1.17l1.28-.15v1.32h1.23l-.13.92h-1.1v2.76c0 .26.04.45.13.56s.23.17.42.17.4-.06.63-.19l.46.83zM248.3 46.1c.06.1.17.17.3.23l-.27.85c-.3-.03-.54-.1-.73-.22-.19-.12-.33-.3-.44-.55-.18.27-.4.46-.67.59-.27.13-.57.2-.91.2-.53 0-.94-.15-1.25-.45s-.46-.69-.46-1.18c0-.57.21-1.01.62-1.31.42-.3 1.01-.46 1.79-.46h.66v-.3c0-.34-.08-.58-.24-.71-.16-.14-.41-.21-.75-.21-.39 0-.85.09-1.4.28l-.3-.87c.66-.25 1.3-.38 1.92-.38 1.35 0 2.03.61 2.03 1.82v2.22c.01.2.04.35.1.45zm-1.35-.49v-1.07h-.53c-.83 0-1.24.31-1.24.92 0 .25.06.45.19.59.13.14.31.21.56.21.43 0 .77-.21 1.02-.65zM254.01 41.75l-1.72 5.29h-1.53l-1.75-5.29h1.39l1.13 4.26 1.16-4.26h1.32zM259.03 47.04h-1.11l-.07-.74c-.19.3-.42.52-.69.67s-.58.22-.93.22c-.47 0-.84-.15-1.09-.44-.26-.29-.39-.69-.39-1.21v-3.8h1.28v3.64c0 .3.05.51.16.64.1.13.27.19.5.19.41 0 .76-.25 1.07-.75v-3.72h1.28v5.3z"/></g><g><path d="M285.72 40.13v6.91h-1.32v-6.91h1.32zm3.88 0l-2.39 3.13 2.58 3.78h-1.57l-2.44-3.69 2.39-3.22h1.43zM294.48 42.35c.44.5.66 1.18.66 2.04 0 .55-.1 1.04-.3 1.47-.2.42-.49.75-.86.98s-.82.35-1.33.35c-.78 0-1.39-.25-1.83-.75-.44-.5-.66-1.18-.66-2.06 0-.55.1-1.04.3-1.46.2-.42.49-.75.86-.98.38-.23.82-.35 1.33-.35.78.01 1.39.26 1.83.76zm-1.08-3.51l.52 1-2.26.9-.36-.65 2.1-1.25zm-1.9 5.55c0 .63.09 1.09.29 1.39.19.3.47.44.85.44s.67-.15.86-.45c.19-.3.28-.76.28-1.38 0-.62-.09-1.08-.28-1.38-.19-.3-.47-.44-.85-.44-.76 0-1.15.61-1.15 1.82zM300.78 39.63v7.41h-1.13l-.09-.67c-.17.25-.38.45-.63.6-.26.15-.55.22-.88.22-.65 0-1.14-.25-1.49-.75s-.52-1.18-.52-2.04c0-.54.09-1.02.26-1.45.17-.42.42-.75.75-1 .32-.24.7-.36 1.12-.36.51 0 .95.19 1.33.57v-2.68l1.28.15zm-1.77 6.43c.17-.11.34-.28.49-.51v-2.42c-.15-.19-.31-.33-.47-.42-.16-.09-.34-.14-.54-.14-.34 0-.61.15-.8.46-.2.3-.29.76-.29 1.38 0 .65.09 1.12.26 1.41.17.28.43.42.76.42.22-.02.42-.07.59-.18zM311.42 47.04h-1.29l-.18-2.89c-.06-1.03-.09-1.85-.09-2.46v-.36l-1.26 4.96h-1.25L306 41.32c.01.44.02.77.02 1 0 .61-.02 1.23-.06 1.87l-.17 2.85h-1.28l.55-6.91h1.7l1.23 4.84 1.16-4.84h1.72l.55 6.91zM314 40.13v6.91h-1.32v-6.91H314zm3.88 0l-2.39 3.13 2.58 3.78h-1.57l-2.44-3.69 2.39-3.22h1.43zM323.92 47.04h-1.71l-2.37-5.59c.06.49.1.94.13 1.34s.04.88.04 1.43v2.82h-1.2v-6.91h1.67l2.41 5.6c-.04-.27-.08-.62-.12-1.06a14.3 14.3 0 01-.06-1.3v-3.24h1.2v6.91z"/></g><g><path d="M339.48 31.74c.49.37.74.92.74 1.65 0 .77-.25 1.34-.74 1.72-.49.38-1.15.58-1.97.58h-.81v2.41h-1.32v-6.91h2.04c.88 0 1.57.19 2.06.55zm-1 2.67c.24-.2.36-.54.36-1.01 0-.82-.48-1.23-1.43-1.23h-.71v2.54h.71c.47-.01.83-.1 1.07-.3zM344.14 30.1l.49.56-1.39 1.25h-.8l-1.39-1.25.49-.56 1.3.88 1.3-.88zm.25 2.64l-.22 1.24c-.16-.04-.32-.06-.47-.06-.31 0-.56.11-.74.33-.18.22-.32.56-.43 1.02v2.82h-1.28V32.8h1.11l.12 1.04c.13-.38.31-.67.55-.88s.52-.3.83-.3c.19.02.37.04.53.08zM346.4 30.36c.15.15.22.33.22.55 0 .22-.08.4-.22.55-.15.15-.35.22-.58.22-.23 0-.43-.07-.58-.22a.747.747 0 01-.23-.55c0-.22.08-.4.23-.55.15-.15.34-.22.58-.22.24 0 .43.07.58.22zm.07 2.45v5.29h-1.28v-5.29h1.28zM352.19 33.4c.35.49.52 1.17.52 2.05 0 .55-.08 1.03-.25 1.46-.17.42-.41.75-.72.99s-.68.36-1.11.36c-.29 0-.55-.06-.79-.18s-.44-.29-.61-.51l-.08.54h-1.13V30.7l1.28-.14v2.86c.17-.24.38-.42.63-.55s.53-.2.83-.2c.6-.01 1.08.24 1.43.73zm-1.11 3.45c.19-.3.29-.76.29-1.4 0-.67-.09-1.14-.27-1.42a.85.85 0 00-.76-.42c-.41 0-.76.24-1.05.72v2.34c.11.19.25.34.42.45s.36.16.56.16c.34.02.61-.13.81-.43zM354.26 37.9c-.23-.24-.35-.57-.35-1v-6.2l1.28-.14v6.3c0 .25.1.37.3.37.1 0 .2-.02.3-.05l.27.9c-.27.12-.55.18-.85.18-.4 0-.72-.12-.95-.36zM358.13 30.36c.15.15.22.33.22.55 0 .22-.08.4-.22.55-.15.15-.35.22-.58.22-.23 0-.43-.07-.58-.22a.747.747 0 01-.23-.55c0-.22.08-.4.23-.55.15-.15.34-.22.58-.22.24 0 .43.07.58.22zm.07 2.45v5.29h-1.28v-5.29h1.28zM363.18 32.81v.92l-2.56 3.37h2.61l-.13 1h-3.95v-.92l2.57-3.37h-2.35v-1h3.81zm-.65-2.71l.49.56-1.39 1.25h-.8l-1.39-1.25.49-.56 1.3.88 1.3-.88zM368.15 33.09c.26.28.39.68.39 1.18v3.83h-1.28v-3.63c0-.31-.05-.53-.17-.66-.11-.13-.27-.19-.48-.19-.22 0-.42.07-.59.21-.18.14-.35.33-.52.6v3.68h-1.28v-5.29h1.11l.1.69c.43-.56.97-.84 1.61-.84.48-.01.85.14 1.11.42zM374.04 37.16c.06.1.17.17.3.23l-.27.85c-.3-.03-.54-.1-.73-.22-.19-.12-.33-.3-.44-.55-.18.27-.4.46-.67.59-.27.13-.57.2-.91.2-.53 0-.94-.15-1.25-.45s-.46-.69-.46-1.18c0-.57.21-1.01.62-1.31.42-.3 1.01-.46 1.79-.46h.66v-.3c0-.34-.08-.58-.24-.71-.16-.14-.41-.21-.75-.21-.39 0-.85.09-1.4.28l-.3-.87c.66-.25 1.3-.38 1.92-.38 1.35 0 2.03.61 2.03 1.82v2.22c.01.2.04.35.1.45zm-1.35-7.26l.52 1-2.26.9-.36-.65 2.1-1.25zm0 6.78V35.6h-.53c-.83 0-1.24.31-1.24.92 0 .25.06.45.19.59.13.14.31.21.56.21.43 0 .77-.21 1.02-.64zM382.45 30.69v7.41h-1.13l-.09-.67c-.17.25-.38.45-.63.6-.26.15-.55.22-.88.22-.65 0-1.14-.25-1.49-.75s-.52-1.18-.52-2.04c0-.54.09-1.02.26-1.45.17-.42.42-.75.75-1 .32-.24.7-.36 1.12-.36.51 0 .95.19 1.33.57v-2.68l1.28.15zm-1.77 6.43c.17-.11.34-.28.49-.51v-2.42c-.15-.19-.31-.33-.47-.42-.16-.09-.34-.14-.54-.14-.34 0-.61.15-.8.46-.2.3-.29.76-.29 1.38 0 .65.09 1.12.26 1.41.17.28.43.42.76.42.21-.02.41-.07.59-.18zM387.97 33.41c.44.5.66 1.18.66 2.04 0 .55-.1 1.04-.3 1.47-.2.42-.49.75-.86.98s-.82.35-1.33.35c-.78 0-1.39-.25-1.83-.75-.44-.5-.66-1.18-.66-2.06 0-.55.1-1.04.3-1.46.2-.42.49-.75.86-.98.38-.23.82-.35 1.33-.35.79.01 1.4.26 1.83.76zM385 35.45c0 .63.09 1.09.29 1.39.19.3.47.44.85.44s.67-.15.86-.45c.19-.3.28-.76.28-1.38 0-.62-.09-1.08-.28-1.38-.19-.3-.47-.44-.85-.44-.77.01-1.15.61-1.15 1.82zM394.01 33.4c.35.49.52 1.17.52 2.05 0 .55-.08 1.03-.25 1.46-.17.42-.41.75-.72.99s-.68.36-1.11.36c-.29 0-.55-.06-.79-.18s-.44-.29-.61-.51l-.08.54h-1.13V30.7l1.28-.14v2.86c.17-.24.38-.42.63-.55s.53-.2.83-.2c.6-.01 1.08.24 1.43.73zm-1.11 3.45c.19-.3.29-.76.29-1.4 0-.67-.09-1.14-.27-1.42a.85.85 0 00-.76-.42c-.41 0-.76.24-1.05.72v2.34c.11.19.25.34.42.45s.36.16.56.16c.34.02.61-.13.81-.43zM399.79 37.16c.06.1.17.17.3.23l-.27.85c-.3-.03-.54-.1-.73-.22-.19-.12-.33-.3-.44-.55-.18.27-.4.46-.67.59-.27.13-.57.2-.91.2-.53 0-.94-.15-1.25-.45s-.46-.69-.46-1.18c0-.57.21-1.01.62-1.31.42-.3 1.01-.46 1.79-.46h.66v-.3c0-.34-.08-.58-.24-.71-.16-.14-.41-.21-.75-.21-.39 0-.85.09-1.4.28l-.3-.87c.66-.25 1.3-.38 1.92-.38 1.35 0 2.03.61 2.03 1.82v2.22c.01.2.04.35.1.45zm-1.35-.48V35.6h-.53c-.83 0-1.24.31-1.24.92 0 .25.06.45.19.59.13.14.31.21.56.21.43 0 .77-.21 1.02-.64zM338.37 46.79c-.19.13-.39.23-.62.3-.23.07-.46.1-.71.1-.52-.01-.92-.16-1.18-.45-.27-.29-.41-.72-.41-1.29v-2.79h-.83v-.92h.83v-1.17l1.28-.15v1.32h1.23l-.13.92h-1.1v2.76c0 .26.04.45.13.56s.23.17.42.17.4-.06.63-.19l.46.83zM342.23 41.68l-.22 1.24c-.16-.04-.32-.06-.47-.06-.31 0-.56.11-.74.33-.18.22-.32.56-.43 1.02v2.82h-1.28v-5.29h1.11l.12 1.04c.13-.38.31-.67.55-.88s.52-.3.83-.3c.19.01.37.04.53.08zM347.28 41.75l-1.72 5.29h-1.53l-1.75-5.29h1.39l1.13 4.26 1.16-4.26h1.32zM352.07 46.1c.06.1.17.17.3.23l-.27.85c-.3-.03-.54-.1-.73-.22-.19-.12-.33-.3-.44-.55-.18.27-.4.46-.67.59-.27.13-.57.2-.91.2-.53 0-.94-.15-1.25-.45s-.46-.69-.46-1.18c0-.57.21-1.01.62-1.31.42-.3 1.01-.46 1.79-.46h.66v-.3c0-.34-.08-.58-.24-.71-.16-.14-.41-.21-.75-.21-.39 0-.85.09-1.4.28l-.3-.87c.66-.25 1.3-.38 1.92-.38 1.35 0 2.03.61 2.03 1.82v2.22c.01.2.04.35.1.45zm-1.35-7.26l.52 1-2.26.9-.36-.65 2.1-1.25zm0 6.77v-1.07h-.53c-.83 0-1.24.31-1.24.92 0 .25.06.45.19.59.13.14.31.21.56.21.43 0 .77-.21 1.02-.65zM357.45 42.03c.26.28.39.68.39 1.18v3.83h-1.28v-3.63c0-.31-.05-.53-.17-.66-.11-.13-.27-.19-.48-.19-.22 0-.42.07-.59.21-.18.14-.35.33-.52.6v3.68h-1.28v-5.29h1.11l.1.69c.43-.56.97-.84 1.61-.84.48-.01.85.14 1.11.42zM360.74 38.84l.52 1-2.26.9-.36-.65 2.1-1.25zm-.12 2.91v5.29h-1.28v-5.29h1.28zM368.21 42.23l-.5.75c-.45-.29-.9-.43-1.33-.43-.25 0-.45.05-.59.15-.14.1-.21.22-.21.38 0 .12.03.22.09.3.06.08.17.16.33.23s.39.15.69.23c.57.15 1 .36 1.28.61s.42.61.42 1.06c0 .53-.21.94-.64 1.24s-.96.45-1.59.45c-.43 0-.83-.07-1.18-.2-.36-.13-.67-.32-.92-.55l.64-.72c.46.35.94.52 1.44.52.29 0 .51-.06.68-.17s.25-.27.25-.47c0-.15-.03-.27-.09-.36s-.18-.17-.34-.24c-.16-.07-.42-.16-.77-.25-.54-.15-.94-.35-1.19-.62-.25-.26-.38-.59-.38-.99 0-.29.08-.56.25-.79.17-.23.41-.42.72-.55.31-.13.67-.2 1.07-.2.7-.01 1.33.2 1.87.62zM372.45 46.79c-.19.13-.39.23-.62.3-.23.07-.46.1-.71.1-.52-.01-.92-.16-1.18-.45-.27-.29-.41-.72-.41-1.29v-2.79h-.83v-.92h.83v-1.17l1.28-.15v1.32h1.23l-.13.92h-1.1v2.76c0 .26.04.45.13.56s.23.17.42.17.4-.06.63-.19l.46.83zM377.17 46.1c.06.1.17.17.3.23l-.27.85c-.3-.03-.54-.1-.73-.22-.19-.12-.33-.3-.44-.55-.18.27-.4.46-.67.59-.27.13-.57.2-.91.2-.53 0-.94-.15-1.25-.45s-.46-.69-.46-1.18c0-.57.21-1.01.62-1.31.42-.3 1.01-.46 1.79-.46h.66v-.3c0-.34-.08-.58-.24-.71-.16-.14-.41-.21-.75-.21-.39 0-.85.09-1.4.28l-.3-.87c.66-.25 1.3-.38 1.92-.38 1.35 0 2.03.61 2.03 1.82v2.22c.01.2.04.35.1.45zm-1.35-.49v-1.07h-.53c-.83 0-1.24.31-1.24.92 0 .25.06.45.19.59.13.14.31.21.56.21.43 0 .77-.21 1.02-.65zM382.88 41.75l-1.72 5.29h-1.53l-1.75-5.29h1.39l1.13 4.26 1.16-4.26h1.32zM387.9 47.04h-1.11l-.07-.74c-.19.3-.42.52-.69.67s-.58.22-.93.22c-.47 0-.84-.15-1.09-.44-.26-.29-.39-.69-.39-1.21v-3.8h1.28v3.64c0 .3.05.51.16.64.1.13.27.19.5.19.41 0 .76-.25 1.07-.75v-3.72h1.28v5.3z"/></g><g><path class="st139" d="M170.62 110.49c-6.36-2.81-10.1-13.05.08-19.24M170.56 93.55l.27-2.5-2.46-.26"/><g><path class="st139" d="M170.62 136.7c-6.36-2.81-10.1-13.05.08-19.24M170.56 119.77l.27-2.5-2.46-.27"/><g><path class="st139" d="M170.62 85.49c-6.36-2.81-10.1-13.05.08-19.24M170.56 68.55l.27-2.5-2.46-.26"/></g></g></g></g></svg>