<svg xmlns="http://www.w3.org/2000/svg" viewBox="0 0 403 321.41"><style>.st0{fill:#4d4d4d}.st4{fill:#595959}.st5{fill:#666}.st10{fill:none;stroke:#4d4d4d;stroke-width:.5;stroke-linecap:round;stroke-miterlimit:10}.st15{fill:#c86092}.st25,.st26{fill:none;stroke:#d9d9d9;stroke-width:.5;stroke-linecap:round;stroke-linejoin:round;stroke-miterlimit:10;stroke-dasharray:1,3,1,0}.st26{stroke:#4d4d4d}.st29{fill:#fff}.st32{fill:#379970}.st33{fill:#fda394}.st38{fill:#52b3cc}</style><g id="_x33_.2_x5F_zlom_x5F_umrtnosti_x5F_des"><path class="st4" d="M15.3 290.55c.38.64.57 1.59.57 2.85 0 1.28-.19 2.23-.57 2.87-.38.63-.94.95-1.68.95-.75 0-1.31-.32-1.69-.96-.38-.64-.57-1.59-.57-2.86 0-2.54.75-3.81 2.27-3.81.73 0 1.29.32 1.67.96zm-2.63.51c-.2.47-.3 1.25-.3 2.34 0 1.1.1 1.88.3 2.34.2.46.51.69.94.69.42 0 .73-.23.93-.69.2-.46.3-1.24.3-2.34 0-1.1-.1-1.88-.3-2.34-.2-.46-.51-.69-.93-.69-.42-.01-.73.23-.94.69zM10.46 247.37v.79h-.84v1.82h-.94v-1.82H5.8v-.71l1.97-4.96.84.32-1.79 4.56H8.7l.1-2h.84v2h.82zM15.3 243.45c.38.64.57 1.59.57 2.85 0 1.28-.19 2.23-.57 2.87-.38.63-.94.95-1.68.95-.75 0-1.31-.32-1.69-.96-.38-.64-.57-1.59-.57-2.86 0-2.54.75-3.81 2.27-3.81.73 0 1.29.32 1.67.96zm-2.62.51c-.2.47-.3 1.25-.3 2.34 0 1.1.1 1.88.3 2.34.2.46.51.69.94.69.42 0 .73-.23.93-.69.2-.46.3-1.24.3-2.34 0-1.1-.1-1.88-.3-2.34-.2-.46-.51-.69-.93-.69-.43-.01-.74.23-.94.69zM9.96 199.18c.23.32.35.7.35 1.17 0 .41-.1.77-.29 1.09-.19.32-.46.56-.82.74-.36.18-.77.26-1.24.26-.46 0-.87-.09-1.21-.26-.35-.17-.62-.42-.8-.73-.19-.32-.28-.67-.28-1.08 0-.91.47-1.56 1.4-1.96-.4-.21-.68-.46-.86-.73-.18-.27-.26-.6-.26-.98 0-.4.09-.74.27-1.02.18-.29.43-.5.74-.65s.65-.22 1.03-.22c.59 0 1.08.16 1.47.48.39.32.59.78.59 1.36 0 .37-.09.7-.29.97-.19.27-.5.52-.91.74.51.24.88.51 1.11.82zm-.99 2.15c.24-.22.35-.55.35-.98 0-.39-.1-.69-.29-.91-.19-.22-.54-.43-1.04-.63l-.31-.12c-.35.18-.61.41-.78.67-.16.26-.25.59-.25.99 0 .44.12.77.35.99.23.22.56.33.98.33s.76-.11.99-.34zm-1.77-5.5c-.2.19-.3.49-.3.89 0 .33.08.59.25.78.17.19.45.36.84.52l.25.11c.31-.21.53-.42.65-.63.13-.22.19-.48.19-.79 0-.39-.09-.68-.29-.88-.19-.19-.46-.29-.8-.29-.32 0-.59.1-.79.29zM15.3 195.77c.38.64.57 1.59.57 2.85 0 1.28-.19 2.23-.57 2.87-.38.63-.94.95-1.68.95-.75 0-1.31-.32-1.69-.96-.38-.64-.57-1.59-.57-2.86 0-2.54.75-3.81 2.27-3.81.73.01 1.29.33 1.67.96zm-2.62.52c-.2.47-.3 1.25-.3 2.34 0 1.1.1 1.88.3 2.34.2.46.51.69.94.69.42 0 .73-.23.93-.69.2-.46.3-1.24.3-2.34 0-1.1-.1-1.88-.3-2.34-.2-.46-.51-.69-.93-.69-.43-.01-.74.22-.94.69z"/><path class="st10" d="M18.34 198.65h1.33"/><path class="st4" d="M4.84 147.15v7.36h-.98v-6.33l-1.53 1.03-.45-.66 2.09-1.41h.87zM9.21 147.29c.3.17.54.41.7.7s.24.63.24 1.01c0 .45-.09.87-.26 1.27s-.45.84-.83 1.34c-.38.49-.97 1.19-1.76 2.09h3.01l-.12.81H6.21v-.77c.85-.98 1.47-1.73 1.86-2.23s.67-.94.82-1.3.23-.75.23-1.15c0-.39-.1-.69-.29-.9-.19-.21-.46-.32-.79-.32-.28 0-.52.06-.73.19-.21.12-.42.32-.64.59l-.62-.47c.54-.74 1.22-1.11 2.06-1.11.44-.01.8.07 1.1.25zM15.3 147.98c.38.64.57 1.59.57 2.85 0 1.28-.19 2.23-.57 2.87-.38.63-.94.95-1.68.95-.75 0-1.31-.32-1.69-.96-.38-.64-.57-1.59-.57-2.86 0-2.54.75-3.81 2.27-3.81.73.01 1.29.33 1.67.96zm-2.62.52c-.2.47-.3 1.25-.3 2.34 0 1.1.1 1.88.3 2.34.2.46.51.69.94.69.42 0 .73-.23.93-.69.2-.46.3-1.24.3-2.34 0-1.1-.1-1.88-.3-2.34-.2-.46-.51-.69-.93-.69-.43-.01-.74.22-.94.69z"/><path class="st10" d="M18.34 150.86h1.33"/><path class="st4" d="M4.23 99.49v7.36h-.98v-6.33l-1.53 1.03-.45-.66 2.09-1.41h.87zM9.42 102.27c.27.18.49.44.65.79.16.35.24.78.24 1.29 0 .54-.09 1.01-.27 1.41-.18.4-.43.7-.75.91s-.69.31-1.11.31c-.78 0-1.36-.31-1.73-.93-.37-.62-.55-1.48-.55-2.59 0-.84.1-1.57.31-2.19.21-.62.51-1.09.9-1.42.39-.33.85-.5 1.38-.5.51 0 .97.15 1.36.45l-.39.63c-.31-.21-.63-.31-.96-.31-.48 0-.86.25-1.14.75-.28.5-.44 1.19-.48 2.07.42-.63.95-.95 1.61-.95.35.02.66.11.93.28zm-.38 3.48c.19-.32.29-.78.29-1.37 0-.57-.09-.98-.28-1.23a.882.882 0 00-.76-.38c-.27 0-.53.09-.76.27-.24.18-.45.44-.62.76.01.84.12 1.46.32 1.85.2.39.52.58.95.58.37-.01.66-.17.86-.48zM15.3 100.33c.38.64.57 1.59.57 2.85 0 1.28-.19 2.23-.57 2.87-.38.63-.94.95-1.68.95-.75 0-1.31-.32-1.69-.96-.38-.64-.57-1.59-.57-2.86 0-2.54.75-3.81 2.27-3.81.73 0 1.29.32 1.67.96zm-2.62.51c-.2.47-.3 1.25-.3 2.34 0 1.1.1 1.88.3 2.34.2.46.51.69.94.69.42 0 .73-.23.93-.69.2-.46.3-1.24.3-2.34 0-1.1-.1-1.88-.3-2.34-.2-.46-.51-.69-.93-.69-.43-.01-.74.22-.94.69z"/><path class="st10" d="M18.34 103.2h1.33M18.34 246.44h1.33M18.34 294.05h1.33"/><g><path class="st5" d="M124.64 308.19c.3.17.54.41.7.7s.24.63.24 1.01c0 .45-.09.87-.26 1.27s-.45.84-.83 1.34c-.38.49-.97 1.19-1.76 2.09h3.01l-.12.81h-3.98v-.77c.85-.98 1.47-1.73 1.86-2.23s.67-.94.82-1.3.23-.75.23-1.15c0-.39-.1-.69-.29-.9-.19-.21-.46-.32-.79-.32-.28 0-.52.06-.73.19-.21.12-.42.32-.64.59l-.62-.47c.54-.74 1.22-1.11 2.06-1.11.44-.01.8.07 1.1.25zM130.73 308.88c.38.64.57 1.59.57 2.85 0 1.28-.19 2.23-.57 2.87-.38.63-.94.95-1.68.95-.75 0-1.31-.32-1.69-.96-.38-.64-.57-1.59-.57-2.86 0-2.54.75-3.81 2.27-3.81.73.01 1.29.33 1.67.96zm-2.62.52c-.2.47-.3 1.25-.3 2.34 0 1.1.1 1.88.3 2.34.2.46.51.69.94.69.42 0 .73-.23.93-.69.2-.46.3-1.24.3-2.34 0-1.1-.1-1.88-.3-2.34-.2-.46-.51-.69-.93-.69-.43-.01-.74.22-.94.69zM136.46 308.88c.38.64.57 1.59.57 2.85 0 1.28-.19 2.23-.57 2.87-.38.63-.94.95-1.68.95-.75 0-1.31-.32-1.69-.96-.38-.64-.57-1.59-.57-2.86 0-2.54.75-3.81 2.27-3.81.73.01 1.29.33 1.67.96zm-2.62.52c-.2.47-.3 1.25-.3 2.34 0 1.1.1 1.88.3 2.34.2.46.51.69.94.69.42 0 .73-.23.93-.69.2-.46.3-1.24.3-2.34 0-1.1-.1-1.88-.3-2.34-.2-.46-.51-.69-.93-.69-.43-.01-.74.22-.94.69zM142.36 312.29c.23.32.35.7.35 1.17 0 .41-.1.77-.29 1.09-.19.32-.46.56-.82.74-.36.18-.77.26-1.24.26-.46 0-.87-.09-1.21-.26-.35-.17-.62-.42-.8-.73-.19-.32-.28-.67-.28-1.08 0-.91.47-1.56 1.4-1.96-.4-.21-.68-.46-.86-.73-.18-.27-.26-.6-.26-.98 0-.4.09-.74.27-1.02.18-.29.43-.5.74-.65s.65-.22 1.03-.22c.59 0 1.08.16 1.47.48.39.32.59.78.59 1.36 0 .37-.09.7-.29.97-.19.27-.5.52-.91.74.5.24.87.51 1.11.82zm-.99 2.16c.24-.22.35-.55.35-.98 0-.39-.1-.69-.29-.91-.19-.22-.54-.43-1.04-.63l-.31-.12c-.35.18-.61.41-.78.67-.16.26-.25.59-.25.99 0 .44.12.77.35.99.23.22.56.33.98.33s.75-.12.99-.34zm-1.78-5.5c-.2.19-.3.49-.3.89 0 .33.08.59.25.78.17.19.45.36.84.52l.25.11c.31-.21.53-.42.65-.63.13-.22.19-.48.19-.79 0-.39-.09-.68-.29-.88-.19-.19-.46-.29-.8-.29-.32-.01-.59.09-.79.29z"/><path class="st0" d="M17.15 308.14c.33.18.59.42.76.73.18.31.26.66.26 1.04 0 .42-.08.82-.24 1.21-.16.38-.43.82-.81 1.29s-.93 1.11-1.67 1.9h2.86l-.14 1.09h-4.22v-1.01c.81-.92 1.41-1.63 1.79-2.11s.64-.89.79-1.23c.15-.34.23-.69.23-1.06 0-.34-.08-.6-.25-.78-.16-.18-.39-.27-.68-.27-.24 0-.46.06-.64.18-.19.12-.39.31-.61.57l-.83-.64c.56-.8 1.3-1.2 2.2-1.2.47.02.87.11 1.2.29zM23.44 308.85c.41.65.62 1.6.62 2.87 0 1.28-.21 2.25-.62 2.89s-1.02.97-1.82.97-1.41-.32-1.82-.97c-.41-.65-.62-1.61-.62-2.89s.21-2.23.62-2.88 1.02-.96 1.82-.96c.8-.01 1.41.32 1.82.97zm-2.4.33c-.15.17-.26.46-.33.87s-.11.96-.11 1.67c0 .72.04 1.28.11 1.69.07.41.18.7.33.87.15.17.34.26.58.26.24 0 .44-.08.58-.25.15-.17.26-.46.33-.87s.11-.98.11-1.69-.04-1.28-.11-1.68-.18-.69-.33-.86a.73.73 0 00-.58-.25.64.64 0 00-.58.24zM29.3 308.85c.41.65.62 1.6.62 2.87 0 1.28-.21 2.25-.62 2.89s-1.02.97-1.82.97-1.41-.32-1.82-.97c-.41-.65-.62-1.61-.62-2.89s.21-2.23.62-2.88 1.02-.96 1.82-.96c.81-.01 1.41.32 1.82.97zm-2.4.33c-.15.17-.26.46-.33.87s-.11.96-.11 1.67c0 .72.04 1.28.11 1.69.07.41.18.7.33.87.15.17.34.26.58.26.24 0 .44-.08.58-.25.15-.17.26-.46.33-.87s.11-.98.11-1.69-.04-1.28-.11-1.68-.18-.69-.33-.86a.73.73 0 00-.58-.25.65.65 0 00-.58.24zM35.68 312.65v1.06h-.78v1.71h-1.32l-.01-1.71h-2.85v-.95l1.93-4.89 1.17.43-1.69 4.36h1.46l.15-1.87h1.17v1.87h.77z"/><g><path class="st5" d="M71.05 308.19c.3.17.54.41.7.7s.24.63.24 1.01c0 .45-.09.87-.26 1.27s-.45.84-.83 1.34c-.38.49-.97 1.19-1.76 2.09h3.01l-.12.81h-3.98v-.77c.85-.98 1.47-1.73 1.86-2.23s.67-.94.82-1.3.23-.75.23-1.15c0-.39-.1-.69-.29-.9-.19-.21-.46-.32-.79-.32-.28 0-.52.06-.73.19-.21.12-.42.32-.64.59l-.62-.47c.54-.74 1.22-1.11 2.06-1.11.43-.01.79.07 1.1.25zM77.14 308.88c.38.64.57 1.59.57 2.85 0 1.28-.19 2.23-.57 2.87-.38.63-.94.95-1.68.95-.75 0-1.31-.32-1.69-.96-.38-.64-.57-1.59-.57-2.86 0-2.54.75-3.81 2.27-3.81.72.01 1.29.33 1.67.96zm-2.63.52c-.2.47-.3 1.25-.3 2.34 0 1.1.1 1.88.3 2.34.2.46.51.69.94.69.42 0 .73-.23.93-.69.2-.46.3-1.24.3-2.34 0-1.1-.1-1.88-.3-2.34-.2-.46-.51-.69-.93-.69-.42-.01-.74.22-.94.69zM82.87 308.88c.38.64.57 1.59.57 2.85 0 1.28-.19 2.23-.57 2.87-.38.63-.94.95-1.68.95-.75 0-1.31-.32-1.69-.96-.38-.64-.57-1.59-.57-2.86 0-2.54.75-3.81 2.27-3.81.73.01 1.29.33 1.67.96zm-2.62.52c-.2.47-.3 1.25-.3 2.34 0 1.1.1 1.88.3 2.34.2.46.51.69.94.69.42 0 .73-.23.93-.69.2-.46.3-1.24.3-2.34 0-1.1-.1-1.88-.3-2.34-.2-.46-.51-.69-.93-.69-.43-.01-.74.22-.94.69zM88.18 310.83c.27.18.49.44.65.79.16.35.24.78.24 1.29 0 .54-.09 1.01-.27 1.41-.18.4-.43.7-.75.91s-.69.31-1.11.31c-.78 0-1.36-.31-1.73-.93-.37-.62-.55-1.48-.55-2.59 0-.84.1-1.57.31-2.19.21-.62.51-1.09.9-1.42s.85-.5 1.38-.5c.51 0 .97.15 1.36.45l-.39.63c-.31-.21-.63-.31-.96-.31-.48 0-.86.25-1.14.75-.28.5-.44 1.19-.48 2.07.42-.63.95-.95 1.61-.95.34.02.65.11.93.28zm-.39 3.47c.19-.32.29-.78.29-1.37 0-.57-.09-.98-.28-1.23a.882.882 0 00-.76-.38c-.27 0-.53.09-.76.27-.24.18-.45.44-.62.76.01.84.12 1.46.32 1.85.2.39.52.58.95.58.38 0 .67-.16.86-.48z"/></g><g><path class="st0" d="M178.91 308.14c.33.18.59.42.76.73.18.31.26.66.26 1.04 0 .42-.08.82-.24 1.21-.16.38-.43.82-.81 1.29s-.93 1.11-1.67 1.9h2.86l-.14 1.09h-4.22v-1.01c.81-.92 1.41-1.63 1.79-2.11s.64-.89.79-1.23c.15-.34.23-.69.23-1.06 0-.34-.08-.6-.25-.78-.16-.18-.39-.27-.68-.27-.24 0-.46.06-.64.18-.19.12-.39.31-.61.57l-.83-.64c.56-.8 1.3-1.2 2.2-1.2.47.02.86.11 1.2.29zM185.19 308.85c.41.65.62 1.6.62 2.87 0 1.28-.21 2.25-.62 2.89s-1.02.97-1.82.97-1.41-.32-1.82-.97c-.41-.65-.62-1.61-.62-2.89s.21-2.23.62-2.88 1.02-.96 1.82-.96c.81-.01 1.41.32 1.82.97zm-2.4.33c-.15.17-.26.46-.33.87s-.11.96-.11 1.67c0 .72.04 1.28.11 1.69.07.41.18.7.33.87.15.17.34.26.58.26.24 0 .44-.08.58-.25.15-.17.26-.46.33-.87s.11-.98.11-1.69-.04-1.28-.11-1.68-.18-.69-.33-.86a.73.73 0 00-.58-.25.65.65 0 00-.58.24zM189.89 308v7.4h-1.35v-6.02l-1.46.99-.6-.9 2.2-1.47h1.21zM195.56 308.85c.41.65.62 1.6.62 2.87 0 1.28-.21 2.25-.62 2.89s-1.02.97-1.82.97-1.41-.32-1.82-.97c-.41-.65-.62-1.61-.62-2.89s.21-2.23.62-2.88 1.02-.96 1.82-.96c.8-.01 1.4.32 1.82.97zm-2.4.33c-.15.17-.26.46-.33.87s-.11.96-.11 1.67c0 .72.04 1.28.11 1.69.07.41.18.7.33.87.15.17.34.26.58.26.24 0 .44-.08.58-.25.15-.17.26-.46.33-.87s.11-.98.11-1.69-.04-1.28-.11-1.68-.18-.69-.33-.86a.73.73 0 00-.58-.25.63.63 0 00-.58.24z"/></g><g><path class="st5" d="M233.33 308.19c.3.17.54.41.7.7s.24.63.24 1.01c0 .45-.09.87-.26 1.27s-.45.84-.83 1.34c-.38.49-.97 1.19-1.76 2.09h3.01l-.12.81h-3.98v-.77c.85-.98 1.47-1.73 1.86-2.23s.67-.94.82-1.3.23-.75.23-1.15c0-.39-.1-.69-.29-.9-.19-.21-.46-.32-.79-.32-.28 0-.52.06-.73.19-.21.12-.42.32-.64.59l-.62-.47c.54-.74 1.22-1.11 2.06-1.11.43-.01.79.07 1.1.25zM239.41 308.88c.38.64.57 1.59.57 2.85 0 1.28-.19 2.23-.57 2.87-.38.63-.94.95-1.68.95-.75 0-1.31-.32-1.69-.96-.38-.64-.57-1.59-.57-2.86 0-2.54.75-3.81 2.27-3.81.73.01 1.29.33 1.67.96zm-2.62.52c-.2.47-.3 1.25-.3 2.34 0 1.1.1 1.88.3 2.34.2.46.51.69.94.69.42 0 .73-.23.93-.69.2-.46.3-1.24.3-2.34 0-1.1-.1-1.88-.3-2.34-.2-.46-.51-.69-.93-.69-.42-.01-.74.22-.94.69zM243.83 308.05v7.36h-.98v-6.33l-1.53 1.03-.45-.66 2.09-1.41h.87zM248.2 308.19c.3.17.54.41.7.7s.24.63.24 1.01c0 .45-.09.87-.26 1.27s-.45.84-.83 1.34c-.38.49-.97 1.19-1.76 2.09h3.01l-.12.81h-3.98v-.77c.85-.98 1.47-1.73 1.86-2.23s.67-.94.82-1.3.23-.75.23-1.15c0-.39-.1-.69-.29-.9-.19-.21-.46-.32-.79-.32-.28 0-.52.06-.73.19-.21.12-.42.32-.64.59l-.62-.47c.54-.74 1.22-1.11 2.06-1.11.43-.01.79.07 1.1.25z"/></g><g><path class="st5" d="M286.7 308.19c.3.17.54.41.7.7s.24.63.24 1.01c0 .45-.09.87-.26 1.27s-.45.84-.83 1.34c-.38.49-.97 1.19-1.76 2.09h3.01l-.12.81h-3.98v-.77c.85-.98 1.47-1.73 1.86-2.23s.67-.94.82-1.3.23-.75.23-1.15c0-.39-.1-.69-.29-.9-.19-.21-.46-.32-.79-.32-.28 0-.52.06-.73.19-.21.12-.42.32-.64.59l-.62-.47c.54-.74 1.22-1.11 2.06-1.11.44-.01.8.07 1.1.25zM292.79 308.88c.38.64.57 1.59.57 2.85 0 1.28-.19 2.23-.57 2.87-.38.63-.94.95-1.68.95-.75 0-1.31-.32-1.69-.96-.38-.64-.57-1.59-.57-2.86 0-2.54.75-3.81 2.27-3.81.73.01 1.29.33 1.67.96zm-2.62.52c-.2.47-.3 1.25-.3 2.34 0 1.1.1 1.88.3 2.34.2.46.51.69.94.69.42 0 .73-.23.93-.69.2-.46.3-1.24.3-2.34 0-1.1-.1-1.88-.3-2.34-.2-.46-.51-.69-.93-.69-.43-.01-.74.22-.94.69zM297.2 308.05v7.36h-.98v-6.33l-1.53 1.03-.45-.66 2.09-1.41h.87zM303.3 312.8v.79h-.84v1.82h-.95v-1.82h-2.88v-.71l1.97-4.96.84.32-1.79 4.56h1.88l.1-2h.84v2h.83z"/></g><g><path class="st5" d="M340.25 308.19c.3.17.54.41.7.7s.24.63.24 1.01c0 .45-.09.87-.26 1.27s-.45.84-.83 1.34c-.38.49-.97 1.19-1.76 2.09h3.01l-.12.81h-3.98v-.77c.85-.98 1.47-1.73 1.86-2.23s.67-.94.82-1.3.23-.75.23-1.15c0-.39-.1-.69-.29-.9-.19-.21-.46-.32-.79-.32-.28 0-.52.06-.73.19-.21.12-.42.32-.64.59l-.62-.47c.54-.74 1.22-1.11 2.06-1.11.44-.01.8.07 1.1.25zM346.34 308.88c.38.64.57 1.59.57 2.85 0 1.28-.19 2.23-.57 2.87-.38.63-.94.95-1.68.95-.75 0-1.31-.32-1.69-.96-.38-.64-.57-1.59-.57-2.86 0-2.54.75-3.81 2.27-3.81.73.01 1.29.33 1.67.96zm-2.62.52c-.2.47-.3 1.25-.3 2.34 0 1.1.1 1.88.3 2.34.2.46.51.69.94.69.42 0 .73-.23.93-.69.2-.46.3-1.24.3-2.34 0-1.1-.1-1.88-.3-2.34-.2-.46-.51-.69-.93-.69-.43-.01-.74.22-.94.69zM350.75 308.05v7.36h-.98v-6.33l-1.53 1.03-.45-.66 2.09-1.41h.87zM355.94 310.83c.27.18.49.44.65.79.16.35.24.78.24 1.29 0 .54-.09 1.01-.27 1.41-.18.4-.43.7-.75.91s-.69.31-1.11.31c-.78 0-1.36-.31-1.73-.93-.37-.62-.55-1.48-.55-2.59 0-.84.1-1.57.31-2.19.21-.62.51-1.09.9-1.42s.85-.5 1.38-.5c.51 0 .97.15 1.36.45l-.39.63c-.31-.21-.63-.31-.96-.31-.48 0-.86.25-1.14.75-.28.5-.44 1.19-.48 2.07.42-.63.95-.95 1.61-.95.35.02.65.11.93.28zm-.39 3.47c.19-.32.29-.78.29-1.37 0-.57-.09-.98-.28-1.23a.882.882 0 00-.76-.38c-.27 0-.53.09-.76.27-.24.18-.45.44-.62.76.01.84.12 1.46.32 1.85.2.39.52.58.95.58.38 0 .67-.16.86-.48z"/></g><g><path class="st0" d="M385.69 308.14c.33.18.59.42.76.73.18.31.26.66.26 1.04 0 .42-.08.82-.24 1.21-.16.38-.43.82-.81 1.29s-.93 1.11-1.67 1.9h2.86l-.14 1.09h-4.22v-1.01c.81-.92 1.41-1.63 1.79-2.11s.64-.89.79-1.23c.15-.34.23-.69.23-1.06 0-.34-.08-.6-.25-.78-.16-.18-.39-.27-.68-.27-.24 0-.46.06-.64.18-.19.12-.39.31-.61.57l-.83-.64c.56-.8 1.3-1.2 2.2-1.2.47.02.87.11 1.2.29zM391.98 308.85c.41.65.62 1.6.62 2.87 0 1.28-.21 2.25-.62 2.89s-1.02.97-1.82.97-1.41-.32-1.82-.97c-.41-.65-.62-1.61-.62-2.89s.21-2.23.62-2.88 1.02-.96 1.82-.96c.8-.01 1.41.32 1.82.97zm-2.4.33c-.15.17-.26.46-.33.87s-.11.96-.11 1.67c0 .72.04 1.28.11 1.69.07.41.18.7.33.87.15.17.34.26.58.26.24 0 .44-.08.58-.25.15-.17.26-.46.33-.87s.11-.98.11-1.69-.04-1.28-.11-1.68-.18-.69-.33-.86a.73.73 0 00-.58-.25.64.64 0 00-.58.24zM396.68 308v7.4h-1.35v-6.02l-1.46.99-.6-.9 2.2-1.47h1.21zM402.58 312.27c.23.32.35.7.35 1.14 0 .42-.1.79-.31 1.12-.21.33-.5.58-.88.76-.38.18-.83.28-1.34.28-.51 0-.94-.09-1.31-.28a2.01 2.01 0 01-.85-.75c-.2-.32-.3-.68-.3-1.09 0-.45.11-.82.34-1.13.22-.3.56-.55 1-.75-.37-.22-.65-.47-.81-.76-.17-.29-.25-.62-.25-.99 0-.4.1-.75.29-1.04s.46-.52.8-.67c.34-.15.71-.23 1.13-.23.65 0 1.19.17 1.61.5s.63.8.63 1.4c0 .35-.09.67-.28.94-.19.27-.48.52-.88.73.47.22.83.5 1.06.82zm-1.32 1.99c.19-.19.29-.47.29-.84 0-.34-.09-.61-.26-.81-.17-.19-.48-.38-.92-.56l-.29-.12c-.52.31-.78.8-.78 1.47 0 .38.1.67.29.86.19.19.47.29.83.29.38 0 .65-.1.84-.29zm-1.74-4.42c0 .3.07.54.22.7.15.17.39.33.73.47l.19.08c.26-.18.44-.36.54-.56s.15-.43.15-.7c0-.33-.08-.58-.23-.75-.15-.17-.38-.25-.68-.25-.62 0-.92.34-.92 1.01z"/></g></g></g><g id="_x33_.3_x5F_nepresne_x5F_priciny_x5F_umrti"><path class="st25" d="M24.85 294.05h376.3"/><path d="M10.07 3.47L6.79 14.53H4.28L.9 3.47h2.27l2.4 9.18 2.34-9.18h2.16zM11.71 14.2c-.37-.38-.55-.91-.55-1.61V2.67l2.05-.22v10.08c0 .39.16.59.48.59.16 0 .32-.03.48-.08l.43 1.44c-.43.19-.88.29-1.36.29-.65 0-1.16-.19-1.53-.57zM17.9 2.14c.24.24.36.54.36.89s-.12.64-.36.87c-.24.23-.55.35-.94.35-.37 0-.68-.12-.92-.35-.24-.23-.36-.53-.36-.88s.12-.65.36-.89.55-.36.92-.36c.39.01.7.13.94.37zm.11 3.92v8.46h-2.05V6.06h2.05zM27.27 6.06l-2.75 8.46h-2.45l-2.8-8.46h2.22l1.81 6.82 1.86-6.82h2.11zM38.22 6.83l-.8 1.2c-.73-.46-1.44-.69-2.13-.69-.41 0-.72.08-.94.23-.22.15-.34.36-.34.62 0 .19.05.35.14.48s.27.25.52.36c.25.11.62.24 1.11.38.92.25 1.6.57 2.04.98.44.41.66.97.66 1.7 0 .84-.34 1.5-1.02 1.98-.68.47-1.53.71-2.54.71-.69 0-1.33-.11-1.9-.32s-1.06-.51-1.48-.88l1.02-1.15c.74.55 1.5.83 2.3.83.46 0 .82-.09 1.1-.27.27-.18.41-.43.41-.75 0-.25-.05-.44-.15-.58-.1-.14-.28-.27-.54-.38-.26-.11-.67-.25-1.22-.41-.86-.23-1.5-.56-1.9-.98s-.61-.95-.61-1.58c0-.47.14-.89.41-1.26.27-.37.66-.67 1.15-.88s1.06-.32 1.7-.32c1.14-.03 2.14.31 3.01.98zM45 14.13c-.3.21-.63.37-1 .48s-.74.16-1.13.16c-.83-.01-1.46-.25-1.9-.71-.43-.46-.65-1.15-.65-2.06V7.54H39V6.06h1.33V4.19l2.05-.24v2.11h1.97l-.21 1.47h-1.76v4.42c0 .42.07.71.22.9.14.18.37.27.68.27.31 0 .64-.1 1.01-.3l.71 1.31zM51.18 5.95l-.35 1.98c-.26-.06-.51-.1-.75-.1-.5 0-.9.18-1.18.54s-.52.9-.69 1.64v4.51h-2.05V6.06h1.78l.19 1.66c.2-.61.5-1.07.88-1.4.38-.33.83-.49 1.33-.49.3.01.58.05.84.12zM58.35 7.02c.7.79 1.05 1.89 1.05 3.27 0 .89-.16 1.67-.48 2.34-.32.68-.78 1.2-1.38 1.58-.6.37-1.31.56-2.13.56-1.25 0-2.22-.4-2.93-1.19-.7-.79-1.06-1.89-1.06-3.29 0-.89.16-1.66.48-2.34a3.7 3.7 0 011.38-1.57c.6-.37 1.31-.56 2.14-.56 1.26 0 2.23.4 2.93 1.2zm-4.76 3.27c0 1 .15 1.74.46 2.22.3.47.76.71 1.37.71s1.06-.24 1.37-.72c.3-.48.46-1.22.46-2.21s-.15-1.73-.46-2.2-.75-.71-1.35-.71c-1.24 0-1.85.97-1.85 2.91zM63.35 13.78c0 .83-.12 1.51-.36 2.04s-.58.95-1.02 1.27-1.01.62-1.71.91l-.66-1.49c.42-.19.74-.38.98-.57s.41-.44.54-.76c.12-.32.18-.75.18-1.28V6.06h2.05v7.72zm-.1-11.64c.24.24.36.54.36.89s-.12.65-.36.88c-.24.23-.55.35-.94.35-.37 0-.68-.12-.92-.35-.24-.23-.36-.53-.36-.88s.12-.65.36-.89.55-.36.92-.36c.39 0 .7.12.94.36zM72.19 7.02c.7.79 1.05 1.89 1.05 3.27 0 .89-.16 1.67-.48 2.34-.32.68-.78 1.2-1.38 1.58-.6.37-1.31.56-2.13.56-1.25 0-2.22-.4-2.93-1.19-.7-.79-1.06-1.89-1.06-3.29 0-.89.16-1.66.48-2.34a3.7 3.7 0 011.38-1.57c.6-.37 1.31-.56 2.14-.56 1.26 0 2.23.4 2.93 1.2zm-4.76 3.27c0 1 .15 1.74.46 2.22.3.47.76.71 1.37.71s1.06-.24 1.37-.72c.3-.48.46-1.22.46-2.21s-.15-1.73-.46-2.2c-.3-.47-.75-.71-1.35-.71-1.24 0-1.85.97-1.85 2.91zM81.86 6.06l-2.75 8.46h-2.45l-2.8-8.46h2.22l1.81 6.82 1.86-6.82h2.11zM89.93 10.93h-5.31c.06.82.28 1.41.64 1.76s.84.53 1.44.53c.37 0 .72-.06 1.06-.18.33-.12.68-.31 1.06-.57l.85 1.17c-.94.76-1.98 1.14-3.14 1.14-1.29 0-2.29-.39-2.98-1.18-.7-.79-1.05-1.87-1.05-3.23 0-.86.15-1.64.45-2.33s.73-1.23 1.3-1.62c.57-.39 1.24-.58 2.02-.58 1.18 0 2.1.38 2.75 1.13.65.75.98 1.8.98 3.14-.03.09-.04.37-.07.82zm-2.42-9.52l.83 1.6-3.62 1.44-.58-1.04 3.37-2zm.43 8.09c0-1.48-.55-2.22-1.65-2.22-.5 0-.89.18-1.18.55-.28.37-.45.96-.5 1.77h3.33v-.1zM98.09 6.51c.43.46.64 1.09.64 1.89v6.13h-2.05V8.72c0-.5-.09-.85-.26-1.06-.18-.2-.44-.3-.78-.3s-.66.11-.94.33-.57.53-.83.94v5.9h-2.05V2.69l2.05-.21v4.59c.68-.83 1.5-1.25 2.46-1.25.74 0 1.33.23 1.76.69zM107.49 7.02c.7.79 1.05 1.89 1.05 3.27 0 .89-.16 1.67-.48 2.34-.32.68-.78 1.2-1.38 1.58-.6.37-1.31.56-2.13.56-1.25 0-2.22-.4-2.93-1.19-.7-.79-1.06-1.89-1.06-3.29 0-.89.16-1.66.48-2.34a3.7 3.7 0 011.38-1.57c.6-.37 1.31-.56 2.14-.56 1.25 0 2.23.4 2.93 1.2zm-4.76 3.27c0 1 .15 1.74.46 2.22s.76.71 1.37.71c.61 0 1.06-.24 1.37-.72.3-.48.46-1.22.46-2.21s-.15-1.73-.46-2.2c-.3-.47-.75-.71-1.35-.71-1.24 0-1.85.97-1.85 2.91zM116.5 2.45v12.08h-2.05V2.67l2.05-.22zm5.07 3.61l-2.82 3.73 3.09 4.74h-2.35l-2.91-4.62 2.83-3.84h2.16zM129.2 7.02c.7.79 1.05 1.89 1.05 3.27 0 .89-.16 1.67-.48 2.34-.32.68-.78 1.2-1.38 1.58-.6.37-1.31.56-2.13.56-1.25 0-2.22-.4-2.93-1.19-.7-.79-1.06-1.89-1.06-3.29 0-.89.16-1.66.48-2.34a3.7 3.7 0 011.38-1.57c.6-.37 1.31-.56 2.14-.56 1.26 0 2.23.4 2.93 1.2zm-1.72-5.61l.83 1.6-3.62 1.44-.58-1.04 3.37-2zm-3.04 8.88c0 1 .15 1.74.46 2.22s.76.71 1.37.71c.61 0 1.06-.24 1.37-.72.3-.48.46-1.22.46-2.21s-.15-1.73-.46-2.2c-.3-.47-.75-.71-1.35-.71-1.24 0-1.85.97-1.85 2.91zM139.29 2.67v11.86h-1.81l-.14-1.07c-.27.41-.61.73-1.02.96-.41.23-.88.35-1.4.35-1.03 0-1.83-.4-2.38-1.2s-.83-1.89-.83-3.26c0-.86.14-1.63.42-2.31.28-.68.67-1.21 1.19-1.59.52-.38 1.12-.58 1.8-.58.81 0 1.52.3 2.13.91V2.45l2.04.22zm-2.84 10.28c.28-.18.54-.45.78-.82V8.26c-.25-.3-.49-.52-.74-.67s-.54-.22-.87-.22c-.54 0-.97.24-1.29.73s-.47 1.22-.47 2.2c0 1.05.14 1.79.42 2.25.28.45.68.68 1.22.68.36-.01.68-.1.95-.28zM148.13 7.02c.7.79 1.05 1.89 1.05 3.27 0 .89-.16 1.67-.48 2.34-.32.68-.78 1.2-1.38 1.58-.6.37-1.31.56-2.13.56-1.25 0-2.22-.4-2.93-1.19-.7-.79-1.06-1.89-1.06-3.29 0-.89.16-1.66.48-2.34a3.7 3.7 0 011.38-1.57c.6-.37 1.31-.56 2.14-.56 1.25 0 2.23.4 2.93 1.2zm-4.76 3.27c0 1 .15 1.74.46 2.22s.76.71 1.37.71c.61 0 1.06-.24 1.37-.72.3-.48.46-1.22.46-2.21s-.15-1.73-.46-2.2c-.3-.47-.75-.71-1.35-.71-1.24 0-1.85.97-1.85 2.91zM157.8 6.06l-2.75 8.46h-2.45l-2.8-8.46h2.22l1.81 6.82 1.86-6.82h2.11zM165.17 13.02c.1.15.26.27.49.36l-.43 1.36c-.48-.04-.87-.16-1.18-.35s-.54-.49-.7-.88c-.29.43-.65.74-1.08.95-.43.21-.91.31-1.45.31-.84 0-1.51-.24-2-.72s-.74-1.11-.74-1.89c0-.92.33-1.62 1-2.1.67-.48 1.62-.73 2.86-.73H163v-.48c0-.54-.12-.93-.38-1.14-.25-.22-.65-.33-1.21-.33-.62 0-1.37.15-2.24.45l-.48-1.39c1.06-.41 2.08-.61 3.07-.61 2.17 0 3.25.97 3.25 2.91v3.55c0 .33.05.57.16.73zM163 1.41l.83 1.6-3.62 1.44-.58-1.04 3.37-2zm0 10.83v-1.71h-.85c-1.32 0-1.98.49-1.98 1.47 0 .41.1.72.3.94.2.22.5.34.9.34.69 0 1.23-.35 1.63-1.04zM173.77 6.5c.42.45.63 1.09.63 1.9v6.13h-2.05V8.72c0-.5-.09-.85-.26-1.06s-.43-.3-.78-.3c-.35 0-.67.11-.95.33-.28.22-.56.54-.82.95v5.89h-2.05V6.06h1.78l.16 1.1c.69-.9 1.55-1.34 2.58-1.34.75 0 1.34.23 1.76.68zM179.03 1.41l.83 1.6-3.62 1.44-.58-1.04 3.37-2zm-.19 4.65v8.46h-2.05V6.06h2.05zM6.71 35.13l-.62-2.08H2.96l-.62 2.08H1.18l2.65-8.27h1.44l2.64 8.27h-1.2zm-3.48-3h2.58l-1.28-4.32-1.3 4.32zM13.83 35.13h-.95l-.08-.98c-.24.39-.52.68-.83.86-.31.18-.69.27-1.14.27-.55 0-.98-.17-1.3-.5-.31-.34-.47-.81-.47-1.43v-4.54h1.1v4.42c0 .43.08.74.23.92.15.18.4.27.74.27.62 0 1.14-.36 1.58-1.09v-4.51h1.1v6.31zM19.3 34.85c-.42.29-.89.43-1.42.43-.54 0-.95-.15-1.25-.46-.3-.31-.45-.75-.45-1.34v-3.82h-1.1v-.85h1.1v-1.43l1.1-.13v1.56h1.5l-.12.85h-1.38v3.77c0 .33.06.57.17.71.12.15.31.22.58.22.25 0 .53-.08.84-.25l.43.74zM24.71 29.55c.49.59.74 1.4.74 2.41 0 .66-.11 1.23-.34 1.73-.22.5-.55.89-.97 1.16-.42.28-.93.41-1.51.41-.89 0-1.58-.3-2.08-.89-.5-.59-.74-1.4-.74-2.41 0-.66.11-1.23.34-1.73.22-.5.55-.89.97-1.16.42-.28.93-.41 1.52-.41.89.01 1.57.3 2.07.89zm-3.72 2.43c0 1.61.54 2.41 1.63 2.41s1.63-.81 1.63-2.42c0-1.61-.54-2.41-1.62-2.41-1.09-.01-1.64.8-1.64 2.42zM34.87 29.19c.31.35.47.82.47 1.41v4.54h-1.1v-4.38c0-.82-.3-1.22-.89-1.22-.31 0-.58.09-.79.27-.22.18-.45.46-.7.85v4.49h-1.1v-4.38c0-.82-.3-1.22-.89-1.22-.32 0-.59.09-.8.28-.22.18-.44.46-.68.84v4.49h-1.1v-6.32h.95l.1.92c.47-.71 1.08-1.07 1.82-1.07.39 0 .73.1 1 .3.28.2.47.48.59.84.25-.37.52-.65.82-.85.3-.2.65-.29 1.06-.29.51-.02.92.15 1.24.5zM41.95 34.23c.09.12.22.22.4.28l-.25.77c-.33-.04-.59-.13-.79-.28-.2-.14-.35-.37-.44-.67-.42.63-1.05.95-1.88.95-.62 0-1.12-.18-1.48-.53-.36-.35-.54-.81-.54-1.38 0-.67.24-1.19.73-1.55.48-.36 1.17-.54 2.06-.54h.97v-.47c0-.45-.11-.77-.32-.96-.22-.19-.55-.29-1-.29-.46 0-1.03.11-1.7.34l-.28-.8c.78-.29 1.51-.43 2.18-.43.74 0 1.3.18 1.67.55s.55.88.55 1.55v2.89c-.02.25.03.44.12.57zm-1.24-.76v-1.45h-.83c-1.17 0-1.75.43-1.75 1.3 0 .38.09.66.28.85.18.19.46.29.82.29.62-.01 1.12-.34 1.48-.99zM47.27 34.85c-.42.29-.89.43-1.42.43-.54 0-.95-.15-1.25-.46-.3-.31-.45-.75-.45-1.34v-3.82h-1.1v-.85h1.1v-1.43l1.1-.13v1.56h1.5l-.12.85h-1.38v3.77c0 .33.06.57.17.71.12.15.31.22.58.22.25 0 .53-.08.84-.25l.43.74zM49.52 25.99c.14.14.22.32.22.54s-.07.39-.22.53c-.14.14-.33.21-.56.21a.732.732 0 01-.77-.74c0-.21.07-.4.22-.54.14-.14.33-.22.55-.22.22 0 .41.08.56.22zm0 2.82v6.32h-1.1v-6.32h1.1zM55.5 28.81v.84l-3.3 4.56h3.34l-.13.92h-4.45v-.83l3.29-4.56h-3.01v-.94h4.26zM61.25 34.23c.09.12.22.22.4.28l-.25.77c-.33-.04-.59-.13-.79-.28-.2-.14-.35-.37-.44-.67-.42.63-1.05.95-1.88.95-.62 0-1.12-.18-1.48-.53-.36-.35-.54-.81-.54-1.38 0-.67.24-1.19.73-1.55.48-.36 1.17-.54 2.06-.54h.97v-.47c0-.45-.11-.77-.32-.96-.22-.19-.55-.29-1-.29-.46 0-1.03.11-1.71.34l-.28-.8c.78-.29 1.51-.43 2.18-.43.74 0 1.3.18 1.67.55.37.36.55.88.55 1.55v2.89c0 .25.04.44.13.57zm-1.23-.76v-1.45h-.83c-1.17 0-1.75.43-1.75 1.3 0 .38.09.66.28.85.18.19.46.29.82.29.62-.01 1.12-.34 1.48-.99zM66.72 28.83c.31.11.61.28.9.52l-.53.7c-.22-.16-.44-.28-.65-.35s-.45-.11-.7-.11c-.51 0-.91.2-1.19.61-.28.41-.43 1.01-.43 1.81s.14 1.39.42 1.77c.28.38.68.57 1.2.57.25 0 .48-.04.68-.11.21-.08.44-.2.7-.37l.5.72c-.58.46-1.22.7-1.93.7-.86 0-1.53-.29-2.02-.86-.49-.58-.74-1.37-.74-2.39 0-.67.11-1.26.34-1.76s.54-.9.95-1.18.9-.42 1.47-.42c.38-.01.72.04 1.03.15zM73.64 32.35H69.6c.05.7.22 1.21.53 1.54.3.33.7.49 1.18.49.3 0 .58-.04.84-.13s.52-.23.8-.42l.48.66c-.67.53-1.41.79-2.21.79-.88 0-1.57-.29-2.06-.86s-.74-1.37-.74-2.38c0-.66.11-1.24.32-1.75s.52-.91.91-1.19c.4-.29.86-.43 1.4-.43.84 0 1.48.28 1.93.83s.67 1.32.67 2.29c.01.18 0 .37-.01.56zm-1.07-.89c0-.62-.12-1.1-.37-1.43s-.62-.49-1.12-.49c-.9 0-1.4.66-1.48 1.99h2.96v-.07zM81.48 28.85c.34.12.67.3.98.54l-.46.69c-.29-.18-.56-.32-.82-.41-.26-.09-.53-.13-.82-.13-.36 0-.64.07-.85.22-.21.15-.31.35-.31.61s.1.46.29.6c.2.14.55.28 1.06.42.7.18 1.23.42 1.58.72.35.3.52.72.52 1.25 0 .62-.24 1.1-.73 1.43-.48.33-1.07.49-1.77.49-.96 0-1.76-.28-2.39-.83l.59-.67c.54.41 1.13.61 1.78.61.42 0 .75-.09.99-.26s.37-.41.37-.7c0-.22-.04-.39-.13-.52s-.24-.25-.46-.35c-.22-.1-.53-.21-.95-.32-.67-.18-1.16-.41-1.46-.71s-.45-.67-.45-1.13c0-.33.1-.63.29-.89.2-.27.47-.48.82-.62.35-.15.74-.22 1.17-.22s.82.06 1.16.18zM88.53 29.18c.32.34.49.82.49 1.42v4.54h-1.1v-4.38c0-.45-.08-.76-.25-.95-.17-.18-.42-.28-.74-.28-.34 0-.63.1-.89.29-.26.19-.5.47-.72.83v4.49h-1.1v-6.32h.95l.1.94c.22-.34.5-.6.83-.79s.7-.29 1.1-.29c.56-.01 1.01.16 1.33.5zM92.74 25.52l.49.92-2.54 1.03-.34-.59 2.39-1.36zm-.4 3.29v6.32h-1.1v-6.32h1.1zM98.33 28.81v.84l-3.3 4.56h3.34l-.13.92h-4.45v-.83l3.29-4.56h-3.01v-.94h4.26zm-.69-3.1l.47.54-1.62 1.36h-.73l-1.63-1.36.48-.54 1.51 1.01 1.52-1.01zM100.97 25.99c.14.14.22.32.22.54s-.07.39-.22.53c-.14.14-.33.21-.56.21a.732.732 0 01-.77-.74c0-.21.07-.4.22-.54.14-.14.33-.22.55-.22.23 0 .42.08.56.22zm0 2.82v6.32h-1.1v-6.32h1.1zM103.55 34.91c-.24-.24-.35-.59-.35-1.03v-7.62l1.1-.13v7.73c0 .18.03.3.09.38.06.08.16.12.31.12s.29-.02.41-.07l.29.77c-.26.14-.56.22-.88.22-.42 0-.74-.12-.97-.37zM111.1 34.23c.09.12.22.22.4.28l-.25.77c-.33-.04-.59-.13-.79-.28-.2-.14-.35-.37-.44-.67-.42.63-1.05.95-1.88.95-.62 0-1.12-.18-1.48-.53-.36-.35-.54-.81-.54-1.38 0-.67.24-1.19.73-1.55.48-.36 1.17-.54 2.06-.54h.97v-.47c0-.45-.11-.77-.32-.96-.22-.19-.55-.29-1-.29-.46 0-1.03.11-1.71.34l-.28-.8c.78-.29 1.51-.43 2.18-.43.74 0 1.3.18 1.67.55.37.36.55.88.55 1.55v2.89c0 .25.04.44.13.57zm-1.24-.76v-1.45h-.83c-1.17 0-1.75.43-1.75 1.3 0 .38.09.66.28.85.18.19.46.29.82.29.63-.01 1.12-.34 1.48-.99zM121.1 29.53c.38.58.56 1.39.56 2.44 0 .99-.22 1.79-.65 2.4-.43.61-1.04.91-1.84.91-.7 0-1.26-.24-1.66-.72v3l-1.1.13v-8.88h.95l.08.85c.23-.32.51-.57.84-.74s.67-.26 1.03-.26c.82.01 1.41.29 1.79.87zm-.63 2.44c0-1.62-.48-2.42-1.43-2.42-.31 0-.6.09-.85.28-.26.18-.48.42-.67.71v3.08a1.626 1.626 0 001.39.77c1.04-.01 1.56-.82 1.56-2.42zM127.99 29.55c.49.59.74 1.4.74 2.41 0 .66-.11 1.23-.34 1.73-.22.5-.55.89-.97 1.16-.42.28-.93.41-1.51.41-.89 0-1.58-.3-2.08-.89-.5-.59-.74-1.4-.74-2.41 0-.66.11-1.23.34-1.73.22-.5.55-.89.97-1.16.42-.28.93-.41 1.52-.41.89.01 1.58.3 2.07.89zm-3.71 2.43c0 1.61.54 2.41 1.63 2.41s1.63-.81 1.63-2.42c0-1.61-.54-2.41-1.62-2.41-1.1-.01-1.64.8-1.64 2.42zM135.45 26.27v8.87h-.97l-.11-.88c-.21.32-.47.57-.78.75-.31.18-.66.27-1.04.27-.75 0-1.34-.3-1.76-.89-.42-.59-.63-1.39-.63-2.39 0-.65.1-1.22.3-1.73s.49-.9.86-1.18c.38-.28.82-.43 1.32-.43.65 0 1.21.26 1.7.78v-3.31l1.11.14zm-1.8 7.9c.24-.16.47-.39.7-.7v-3.1c-.21-.27-.43-.48-.67-.62-.24-.14-.5-.21-.8-.21-.49 0-.87.2-1.13.61s-.4 1.02-.4 1.82c0 .82.12 1.42.37 1.82.25.4.6.6 1.07.6.33.01.62-.07.86-.22zM139.38 25.52l.49.92-2.54 1.03-.33-.58 2.38-1.37zm-.39 3.29v6.32h-1.1v-6.32h1.1zM141.67 34.91c-.24-.24-.35-.59-.35-1.03v-7.62l1.1-.13v7.73c0 .18.03.3.09.38.06.08.16.12.31.12s.29-.02.41-.07l.29.77c-.26.14-.56.22-.88.22-.41 0-.73-.12-.97-.37zM152.75 29.53c.38.58.56 1.39.56 2.44 0 .99-.22 1.79-.65 2.4-.43.61-1.04.91-1.84.91-.7 0-1.26-.24-1.66-.72v3l-1.1.13v-8.88h.95l.08.85c.23-.32.51-.57.84-.74s.67-.26 1.03-.26c.82.01 1.42.29 1.79.87zm-.62 2.44c0-1.62-.48-2.42-1.43-2.42-.31 0-.6.09-.85.28-.26.18-.48.42-.67.71v3.08a1.626 1.626 0 001.39.77c1.04-.01 1.56-.82 1.56-2.42zM158.44 25.71l.47.54-1.62 1.36h-.73l-1.63-1.36.48-.54 1.51 1.01 1.52-1.01zm.13 3.03l-.2 1.08c-.19-.05-.38-.07-.55-.07-.39 0-.71.14-.95.43s-.43.74-.56 1.34v3.61h-1.1v-6.32h.95l.11 1.28c.17-.47.4-.83.68-1.07.29-.24.62-.36 1.01-.36.21.01.42.03.61.08zM161.33 25.52l.49.92-2.54 1.03-.34-.59 2.39-1.36zm-.39 3.29v6.32h-1.1v-6.32h1.1zM163.62 34.91c-.24-.24-.35-.59-.35-1.03v-7.62l1.1-.13v7.73c0 .18.03.3.09.38.06.08.16.12.31.12s.29-.02.41-.07l.29.77c-.26.14-.56.22-.88.22-.42 0-.74-.12-.97-.37zM167.94 25.99c.14.14.22.32.22.54s-.07.39-.22.53c-.14.14-.33.21-.56.21a.732.732 0 01-.77-.74c0-.21.07-.4.22-.54.14-.14.33-.22.55-.22.23 0 .42.08.56.22zm0 2.82v6.32h-1.1v-6.32h1.1zM173.1 28.85c.34.12.67.3.98.54l-.47.7c-.29-.18-.56-.32-.82-.41s-.53-.13-.82-.13c-.36 0-.64.07-.85.22-.21.15-.31.35-.31.61s.1.46.29.6c.2.14.55.28 1.06.42.7.18 1.23.42 1.58.72.35.3.52.72.52 1.25 0 .62-.24 1.1-.73 1.43s-1.07.49-1.77.49c-.96 0-1.76-.28-2.39-.83l.59-.67c.54.41 1.13.61 1.78.61.42 0 .75-.09.99-.26a.83.83 0 00.37-.7c0-.22-.04-.39-.13-.52s-.24-.25-.46-.35c-.22-.1-.53-.21-.95-.32-.67-.18-1.16-.41-1.46-.71-.3-.3-.45-.67-.45-1.13 0-.33.1-.63.29-.89.2-.27.47-.48.82-.62.35-.15.74-.22 1.17-.22.44-.01.83.05 1.17.17zm.45-3.14l.47.54-1.62 1.36h-.73l-1.63-1.36.48-.54 1.51 1.01 1.52-1.01zM183.45 29.55c.49.59.74 1.4.74 2.41 0 .66-.11 1.23-.34 1.73-.22.5-.55.89-.97 1.16-.42.28-.93.41-1.51.41-.89 0-1.58-.3-2.08-.89-.5-.59-.74-1.4-.74-2.41 0-.66.11-1.23.34-1.73.22-.5.55-.89.97-1.16s.93-.41 1.52-.41c.89.01 1.58.3 2.07.89zm-3.71 2.43c0 1.61.54 2.41 1.63 2.41s1.63-.81 1.63-2.42c0-1.61-.54-2.41-1.62-2.41-1.09-.01-1.64.8-1.64 2.42zM190.62 29.54c.42.58.64 1.39.64 2.43 0 .66-.1 1.23-.3 1.73s-.49.89-.86 1.16c-.38.28-.82.41-1.32.41-.66 0-1.22-.28-1.68-.84l-.11.7h-.97v-8.87l1.1-.13v3.47c.46-.62 1.05-.94 1.79-.94.72.01 1.29.3 1.71.88zm-.96 4.27c.28-.4.41-1.01.41-1.84 0-.86-.13-1.47-.38-1.85-.26-.38-.62-.57-1.09-.57-.56 0-1.05.33-1.48.98v3.02c.17.26.37.47.62.62.24.15.5.23.77.23.49 0 .87-.2 1.15-.59zM197.89 32.35h-4.03c.05.7.22 1.21.53 1.54.3.33.7.49 1.18.49.3 0 .58-.04.84-.13s.52-.23.8-.42l.48.66c-.67.53-1.41.79-2.21.79-.88 0-1.57-.29-2.06-.86s-.74-1.37-.74-2.38c0-.66.11-1.24.32-1.75s.52-.91.91-1.19.86-.43 1.4-.43c.84 0 1.48.28 1.93.83s.67 1.32.67 2.29c.01.18 0 .37-.02.56zm-1.06-.89c0-.62-.12-1.1-.37-1.43s-.62-.49-1.12-.49c-.9 0-1.4.66-1.48 1.99h2.96v-.07zM203.02 28.83c.31.11.61.28.9.52l-.53.7c-.22-.16-.44-.28-.65-.35s-.45-.11-.7-.11c-.51 0-.91.2-1.19.61-.28.41-.43 1.01-.43 1.81s.14 1.39.42 1.77.68.57 1.2.57c.25 0 .48-.04.68-.11.21-.08.44-.2.7-.37l.5.72c-.58.46-1.22.7-1.93.7-.86 0-1.53-.29-2.02-.86s-.74-1.37-.74-2.39c0-.67.11-1.26.34-1.76.22-.5.54-.9.96-1.18.41-.28.9-.42 1.47-.42.36-.01.71.04 1.02.15zM209.75 29.18c.32.34.49.82.49 1.42v4.54h-1.1v-4.38c0-.45-.08-.76-.25-.95-.17-.18-.42-.28-.74-.28-.34 0-.63.1-.89.29-.26.19-.5.47-.72.83v4.49h-1.1v-6.32h.95l.1.94c.22-.34.5-.6.83-.79s.7-.29 1.1-.29c.55-.01 1 .16 1.33.5zM214.9 35.17c-.25.74-.59 1.32-1.04 1.75-.44.43-1.08.69-1.9.77l-.12-.86c.42-.07.75-.18 1-.31.25-.14.45-.31.59-.52.15-.21.29-.5.41-.86h-.37l-2.12-6.32h1.18l1.69 5.52 1.66-5.52h1.14l-2.12 6.35zm.23-9.65l.49.92-2.54 1.03-.34-.59 2.39-1.36zM221.56 28.83c.31.11.61.28.9.52l-.53.7c-.22-.16-.44-.28-.65-.35-.21-.08-.45-.11-.7-.11-.51 0-.91.2-1.19.61-.28.41-.43 1.01-.43 1.81s.14 1.39.42 1.77.68.57 1.2.57c.25 0 .48-.04.68-.11.21-.08.44-.2.7-.37l.5.72c-.58.46-1.22.7-1.93.7-.86 0-1.53-.29-2.02-.86s-.74-1.37-.74-2.39c0-.67.11-1.26.34-1.76.22-.5.54-.9.95-1.18s.9-.42 1.47-.42c.37-.01.72.04 1.03.15zM228.29 29.18c.32.34.49.82.49 1.42v4.54h-1.1v-4.38c0-.45-.09-.76-.26-.95-.17-.18-.42-.28-.75-.28s-.62.1-.88.29c-.26.19-.5.46-.72.82v4.5h-1.1v-8.86l1.1-.12v3.53c.5-.68 1.12-1.02 1.87-1.02.57 0 1.02.17 1.35.51zM239.07 26.27v8.87h-.97l-.11-.88c-.21.32-.47.57-.78.75-.31.18-.66.27-1.04.27-.75 0-1.34-.3-1.76-.89-.42-.59-.63-1.39-.63-2.39 0-.65.1-1.22.3-1.73s.49-.9.86-1.18c.38-.28.82-.43 1.32-.43.65 0 1.21.26 1.7.78v-3.31l1.11.14zm-1.8 7.9c.24-.16.47-.39.7-.7v-3.1c-.21-.27-.43-.48-.67-.62-.24-.14-.5-.21-.8-.21-.49 0-.87.2-1.13.61s-.4 1.02-.4 1.82c0 .82.12 1.42.37 1.82.25.4.6.6 1.07.6.33.01.62-.07.86-.22zM242.45 25.99c.14.14.22.32.22.54s-.07.39-.22.53c-.14.14-.33.21-.56.21a.732.732 0 01-.77-.74c0-.21.07-.4.22-.54.14-.14.33-.22.55-.22.23 0 .42.08.56.22zm0 2.82v6.32h-1.1v-6.32h1.1zM249.12 34.23c.09.12.22.22.4.28l-.25.77c-.33-.04-.59-.13-.79-.28-.2-.14-.35-.37-.44-.67-.42.63-1.05.95-1.88.95-.62 0-1.12-.18-1.48-.53-.36-.35-.54-.81-.54-1.38 0-.67.24-1.19.73-1.55.48-.36 1.17-.54 2.06-.54h.97v-.47c0-.45-.11-.77-.32-.96-.22-.19-.55-.29-1-.29-.46 0-1.03.11-1.7.34l-.28-.8c.78-.29 1.51-.43 2.18-.43.74 0 1.3.18 1.67.55s.55.88.55 1.55v2.89c-.01.25.04.44.12.57zm-1.23-.76v-1.45h-.83c-1.17 0-1.75.43-1.75 1.3 0 .38.09.66.28.85.18.19.46.29.82.29.62-.01 1.12-.34 1.48-.99zM256.24 29.1c-.24.08-.5.13-.79.16-.29.02-.64.04-1.06.04.74.34 1.12.87 1.12 1.6 0 .63-.22 1.15-.65 1.55-.43.4-1.02.6-1.76.6-.29 0-.56-.04-.8-.12-.1.06-.17.15-.23.26a.67.67 0 00-.08.33c0 .34.28.52.83.52h1.01c.42 0 .8.08 1.13.23.33.15.58.36.76.62.18.26.27.56.27.9 0 .62-.25 1.09-.76 1.42-.5.33-1.24.5-2.21.5-.68 0-1.22-.07-1.61-.21-.4-.14-.68-.35-.85-.63-.17-.28-.25-.64-.25-1.08h1c0 .26.05.46.14.61.1.15.27.26.52.34s.6.11 1.06.11c.66 0 1.14-.08 1.42-.25s.43-.41.43-.74c0-.3-.11-.52-.34-.67-.22-.15-.54-.23-.94-.23h-1c-.54 0-.94-.11-1.22-.34-.28-.23-.41-.51-.41-.86 0-.21.06-.41.18-.6s.29-.36.52-.52c-.37-.19-.64-.43-.81-.71s-.26-.63-.26-1.04c0-.42.11-.8.32-1.14.21-.34.5-.6.88-.79.37-.19.79-.28 1.24-.28.5.01.91-.01 1.25-.05s.61-.1.83-.18c.22-.08.49-.19.81-.33l.31.98zm-4.18.75c-.23.26-.34.6-.34 1.03 0 .43.12.78.35 1.04s.56.39.98.39c.43 0 .76-.13.99-.38.23-.25.34-.61.34-1.06 0-.94-.45-1.4-1.36-1.4-.41-.01-.73.12-.96.38zM261.71 29.18c.32.34.49.82.49 1.42v4.54h-1.1v-4.38c0-.45-.08-.76-.25-.95-.17-.18-.42-.28-.74-.28-.34 0-.63.1-.89.29-.26.19-.5.47-.72.83v4.49h-1.1v-6.32h.95l.1.94c.22-.34.5-.6.83-.79s.7-.29 1.1-.29c.55-.01 1 .16 1.33.5zM268.86 29.55c.49.59.74 1.4.74 2.41 0 .66-.11 1.23-.34 1.73s-.55.89-.97 1.16c-.42.28-.93.41-1.51.41-.89 0-1.58-.3-2.08-.89-.5-.59-.74-1.4-.74-2.41 0-.66.11-1.23.34-1.73.22-.5.55-.89.97-1.16s.93-.41 1.52-.41c.88.01 1.58.3 2.07.89zm-3.72 2.43c0 1.61.54 2.41 1.63 2.41s1.63-.81 1.63-2.42c0-1.61-.54-2.41-1.62-2.41-1.09-.01-1.64.8-1.64 2.42zm2.58-6.46l.49.92-2.54 1.03-.34-.59 2.39-1.36zM275.04 28.81v.84l-3.3 4.56h3.34l-.13.92h-4.45v-.83l3.29-4.56h-3.01v-.94h4.26zM277.47 33.85c.16.16.24.36.24.59 0 .25-.07.53-.22.85l-.8 1.84h-.79l.48-1.99c-.1-.08-.19-.18-.25-.3s-.09-.25-.09-.4c0-.23.08-.43.24-.59.16-.16.36-.24.59-.24.24 0 .44.08.6.24zM283.72 34.75c0 .58-.07 1.05-.22 1.4-.14.35-.35.64-.63.86-.28.22-.66.44-1.16.67l-.32-.8c.31-.14.55-.29.72-.43.17-.14.29-.34.38-.59s.13-.6.13-1.04v-6.01h1.1v5.94zm.01-8.76c.14.14.22.32.22.54s-.07.39-.22.53c-.14.14-.33.21-.56.21a.732.732 0 01-.77-.74c0-.21.07-.4.22-.54.14-.14.33-.22.55-.22.23 0 .42.08.56.22zM290.39 34.23c.09.12.22.22.4.28l-.25.77c-.33-.04-.59-.13-.79-.28-.2-.14-.35-.37-.44-.67-.42.63-1.05.95-1.88.95-.62 0-1.12-.18-1.48-.53-.36-.35-.54-.81-.54-1.38 0-.67.24-1.19.73-1.55.48-.36 1.17-.54 2.06-.54h.97v-.47c0-.45-.11-.77-.32-.96-.21-.19-.55-.29-1-.29-.46 0-1.03.11-1.7.34l-.28-.8c.78-.29 1.51-.43 2.18-.43.74 0 1.3.18 1.67.55.37.36.55.88.55 1.55v2.89c-.01.25.03.44.12.57zm-1.24-.76v-1.45h-.83c-1.17 0-1.75.43-1.75 1.3 0 .38.09.66.28.85s.46.29.82.29c.63-.01 1.12-.34 1.48-.99zM293.63 26.13v9h-1.1v-8.87l1.1-.13zm3.64 2.68l-2.33 2.8 2.59 3.53h-1.32l-2.51-3.46 2.33-2.87h1.24zM303.01 29.55c.49.59.74 1.4.74 2.41 0 .66-.11 1.23-.34 1.73-.22.5-.55.89-.97 1.16-.42.28-.93.41-1.51.41-.89 0-1.58-.3-2.08-.89-.5-.59-.74-1.4-.74-2.41 0-.66.11-1.23.34-1.73s.55-.89.97-1.16c.42-.28.93-.41 1.52-.41.89.01 1.58.3 2.07.89zm-3.72 2.43c0 1.61.54 2.41 1.63 2.41s1.63-.81 1.63-2.42c0-1.61-.54-2.41-1.62-2.41-1.09-.01-1.64.8-1.64 2.42zM309.83 34.75c0 .58-.07 1.05-.22 1.4-.14.35-.35.64-.63.86-.28.22-.66.44-1.16.67l-.32-.8c.31-.14.55-.29.72-.43.17-.14.29-.34.38-.59s.13-.6.13-1.04v-6.01h1.1v5.94zm.01-8.76c.14.14.22.32.22.54s-.07.39-.22.53c-.14.14-.33.21-.56.21a.732.732 0 01-.77-.74c0-.21.07-.4.22-.54.14-.14.33-.22.55-.22.23 0 .42.08.56.22zM316.86 32.35h-4.03c.05.7.22 1.21.53 1.54s.7.49 1.18.49c.3 0 .58-.04.84-.13s.52-.23.8-.42l.48.66c-.67.53-1.41.79-2.21.79-.88 0-1.57-.29-2.06-.86s-.74-1.37-.74-2.38c0-.66.11-1.24.32-1.75s.52-.91.91-1.19c.4-.29.86-.43 1.4-.43.84 0 1.48.28 1.93.83.45.55.67 1.32.67 2.29.01.18 0 .37-.02.56zm-1.07-.89c0-.62-.12-1.1-.37-1.43s-.62-.49-1.12-.49c-.9 0-1.4.66-1.48 1.99h2.96v-.07zM326.22 34.23c.09.12.22.22.4.28l-.25.77c-.33-.04-.59-.13-.79-.28-.2-.14-.35-.37-.44-.67-.42.63-1.05.95-1.88.95-.62 0-1.12-.18-1.48-.53-.36-.35-.54-.81-.54-1.38 0-.67.24-1.19.73-1.55.48-.36 1.17-.54 2.06-.54h.97v-.47c0-.45-.11-.77-.32-.96-.22-.19-.55-.29-1-.29-.46 0-1.03.11-1.7.34l-.28-.8c.78-.29 1.51-.43 2.18-.43.74 0 1.3.18 1.67.55s.55.88.55 1.55v2.89c-.01.25.03.44.12.57zm-1.23-.76v-1.45h-.83c-1.17 0-1.75.43-1.75 1.3 0 .38.09.66.28.85.18.19.46.29.82.29.62-.01 1.12-.34 1.48-.99zM331.55 34.85c-.42.29-.89.43-1.42.43-.54 0-.96-.15-1.25-.46-.3-.31-.45-.75-.45-1.34v-3.82h-1.1v-.85h1.1v-1.43l1.1-.13v1.56h1.5l-.12.85h-1.38v3.77c0 .33.06.57.17.71.12.15.31.22.58.22.25 0 .53-.08.84-.25l.43.74zM337.26 32.35h-4.03c.05.7.22 1.21.53 1.54.3.33.7.49 1.18.49.3 0 .58-.04.84-.13s.52-.23.8-.42l.48.66c-.67.53-1.41.79-2.21.79-.88 0-1.57-.29-2.06-.86s-.74-1.37-.74-2.38c0-.66.11-1.24.32-1.75s.52-.91.91-1.19.86-.43 1.4-.43c.84 0 1.48.28 1.93.83s.67 1.32.67 2.29c.01.18 0 .37-.02.56zm-1.07-.89c0-.62-.12-1.1-.37-1.43s-.62-.49-1.12-.49c-.9 0-1.4.66-1.48 1.99h2.96v-.07zM342.42 28.74l-.2 1.08c-.19-.05-.38-.07-.55-.07-.39 0-.71.14-.95.43s-.43.74-.56 1.34v3.61h-1.1v-6.32h.94l.11 1.28c.17-.47.4-.83.68-1.07.29-.24.62-.36 1.01-.36a3 3 0 01.62.08zM347.77 29.55c.49.59.74 1.4.74 2.41 0 .66-.11 1.23-.34 1.73-.22.5-.55.89-.97 1.16-.42.28-.93.41-1.51.41-.89 0-1.58-.3-2.08-.89-.5-.59-.74-1.4-.74-2.41 0-.66.11-1.23.34-1.73.22-.5.55-.89.97-1.16s.93-.41 1.52-.41c.89.01 1.58.3 2.07.89zm-3.72 2.43c0 1.61.54 2.41 1.63 2.41s1.63-.81 1.63-2.42c0-1.61-.54-2.41-1.62-2.41-1.09-.01-1.64.8-1.64 2.42zM353.21 28.85c.34.12.67.3.98.54l-.47.7c-.29-.18-.56-.32-.82-.41-.26-.09-.53-.13-.82-.13-.36 0-.64.07-.85.22-.21.15-.31.35-.31.61s.1.46.29.6c.2.14.55.28 1.06.42.7.18 1.23.42 1.58.72.35.3.52.72.52 1.25 0 .62-.24 1.1-.73 1.43-.48.33-1.07.49-1.77.49-.96 0-1.76-.28-2.39-.83l.59-.67c.54.41 1.13.61 1.78.61.42 0 .75-.09.99-.26s.37-.41.37-.7c0-.22-.04-.39-.13-.52s-.24-.25-.46-.35c-.22-.1-.53-.21-.95-.32-.67-.18-1.16-.41-1.46-.71s-.45-.67-.45-1.13c0-.33.1-.63.29-.89.2-.27.47-.48.82-.62.35-.15.74-.22 1.17-.22.44-.01.83.05 1.17.17zM357.04 26.13v9h-1.1v-8.87l1.1-.13zm3.63 2.68l-2.33 2.8 2.59 3.53h-1.32l-2.51-3.46 2.33-2.87h1.24zM362.37 34.91c-.24-.24-.35-.59-.35-1.03v-7.62l1.1-.13v7.73c0 .18.03.3.09.38s.16.12.31.12.29-.02.41-.07l.29.77c-.26.14-.56.22-.88.22-.41 0-.73-.12-.97-.37zM370.29 32.35h-4.03c.05.7.22 1.21.53 1.54s.7.49 1.18.49c.3 0 .58-.04.84-.13s.52-.23.8-.42l.48.66c-.67.53-1.41.79-2.21.79-.88 0-1.57-.29-2.06-.86s-.74-1.37-.74-2.38c0-.66.11-1.24.32-1.75.21-.51.52-.91.91-1.19.4-.29.86-.43 1.4-.43.84 0 1.48.28 1.93.83s.67 1.32.67 2.29c0 .18-.01.37-.02.56zm-1.07-.89c0-.62-.12-1.1-.37-1.43s-.62-.49-1.12-.49c-.9 0-1.4.66-1.48 1.99h2.96v-.07zM375.45 28.74l-.2 1.08c-.19-.05-.38-.07-.55-.07-.39 0-.71.14-.95.43s-.43.74-.56 1.34v3.61h-1.1v-6.32h.95l.11 1.28c.17-.47.4-.83.68-1.07.29-.24.62-.36 1.01-.36.21.01.41.03.61.08zM380.79 29.55c.49.59.74 1.4.74 2.41 0 .66-.11 1.23-.34 1.73-.22.5-.55.89-.97 1.16-.42.28-.93.41-1.51.41-.89 0-1.58-.3-2.08-.89-.5-.59-.74-1.4-.74-2.41 0-.66.11-1.23.34-1.73.22-.5.55-.89.97-1.16.42-.28.93-.41 1.52-.41.89.01 1.58.3 2.07.89zm-3.71 2.43c0 1.61.54 2.41 1.63 2.41s1.63-.81 1.63-2.42c0-1.61-.54-2.41-1.62-2.41-1.09-.01-1.64.8-1.64 2.42zm2.58-6.46l.49.92-2.54 1.03-.34-.59 2.39-1.36zM386.98 28.81v.84l-3.3 4.56h3.34l-.13.92h-4.45v-.83l3.29-4.56h-3.01v-.94h4.26zM392.73 34.23c.09.12.22.22.4.28l-.25.77c-.33-.04-.59-.13-.79-.28-.2-.14-.35-.37-.44-.67-.42.63-1.05.95-1.88.95-.62 0-1.12-.18-1.48-.53-.36-.35-.54-.81-.54-1.38 0-.67.24-1.19.73-1.55.48-.36 1.17-.54 2.06-.54h.97v-.47c0-.45-.11-.77-.32-.96-.22-.19-.55-.29-1-.29-.46 0-1.03.11-1.7.34l-.28-.8c.78-.29 1.51-.43 2.18-.43.74 0 1.3.18 1.67.55s.55.88.55 1.55v2.89c-.02.25.03.44.12.57zm-1.24-.76v-1.45h-.83c-1.17 0-1.75.43-1.75 1.3 0 .38.09.66.28.85.18.19.46.29.82.29.62-.01 1.12-.34 1.48-.99zM6.58 43.58c.32.35.48.82.48 1.42v4.54h-1.1v-4.38c0-.45-.08-.76-.25-.95s-.42-.28-.74-.28c-.34 0-.63.1-.89.29-.26.19-.5.47-.72.83v4.49h-1.1v-6.32h.94l.1.94c.22-.34.5-.6.83-.79.33-.19.7-.29 1.1-.29.57-.01 1.02.16 1.35.5zM14.03 46.75H10c.05.7.22 1.21.53 1.54.3.33.7.49 1.18.49.3 0 .58-.04.84-.13s.52-.23.8-.42l.48.66c-.67.53-1.41.79-2.21.79-.88 0-1.57-.29-2.06-.86-.49-.58-.74-1.37-.74-2.38 0-.66.11-1.24.32-1.75.21-.51.52-.91.91-1.19.4-.29.86-.43 1.4-.43.84 0 1.48.28 1.93.83.45.55.67 1.32.67 2.29.01.18 0 .37-.02.56zm-1.07-.89c0-.62-.12-1.1-.37-1.43-.25-.33-.62-.49-1.12-.49-.9 0-1.4.66-1.48 1.99h2.96v-.07zM20.43 43.94c.42.58.64 1.39.64 2.43 0 .66-.1 1.23-.3 1.73s-.49.89-.86 1.16c-.38.28-.82.41-1.32.41-.66 0-1.22-.28-1.68-.84l-.11.7h-.97v-8.87l1.1-.13V44c.46-.62 1.05-.94 1.79-.94.71.01 1.28.3 1.71.88zm-.97 4.27c.28-.4.41-1.01.41-1.84 0-.86-.13-1.47-.38-1.85-.26-.38-.62-.57-1.09-.57-.56 0-1.05.33-1.48.98v3.02c.17.26.37.47.62.62.24.15.5.23.77.23.49 0 .88-.2 1.15-.59zM27.39 43.95c.49.59.74 1.4.74 2.41 0 .66-.11 1.23-.34 1.73-.22.5-.55.89-.97 1.16-.42.28-.93.41-1.51.41-.89 0-1.58-.3-2.08-.89s-.74-1.4-.74-2.41c0-.66.11-1.23.34-1.73.22-.5.55-.89.97-1.16.42-.28.93-.41 1.52-.41.89.01 1.58.3 2.07.89zm-3.71 2.43c0 1.61.54 2.41 1.63 2.41s1.63-.81 1.63-2.42c0-1.61-.54-2.41-1.62-2.41-1.09-.01-1.64.8-1.64 2.42zM30.25 49.31c-.24-.24-.35-.59-.35-1.03v-7.62l1.1-.13v7.73c0 .18.03.3.09.38.06.08.16.12.31.12s.29-.02.41-.07l.29.77c-.26.14-.56.22-.88.22-.41 0-.73-.12-.97-.37zM34.58 40.39c.14.14.22.32.22.54s-.07.39-.22.53-.33.21-.56.21a.732.732 0 01-.77-.74c0-.21.07-.4.22-.54.14-.14.33-.22.55-.22.23 0 .41.08.56.22zm0 2.82v6.32h-1.1v-6.32h1.1zM41.14 40.53v9h-1.1v-8.87l1.1-.13zm3.64 2.68l-2.33 2.8 2.59 3.53h-1.32l-2.51-3.46 2.33-2.87h1.24zM50.52 43.95c.49.59.74 1.4.74 2.41 0 .66-.11 1.23-.34 1.73s-.55.89-.97 1.16c-.42.28-.93.41-1.51.41-.89 0-1.58-.3-2.08-.89s-.74-1.4-.74-2.41c0-.66.11-1.23.34-1.73.22-.5.55-.89.97-1.16.42-.28.93-.41 1.52-.41.89.01 1.58.3 2.07.89zm-3.72 2.43c0 1.61.54 2.41 1.63 2.41s1.63-.81 1.63-2.42c0-1.61-.54-2.41-1.62-2.41-1.09-.01-1.64.8-1.64 2.42zM56.45 43.14l-.2 1.08c-.19-.05-.38-.07-.55-.07-.39 0-.71.14-.95.43s-.43.74-.56 1.34v3.61h-1.1v-6.32h.95l.11 1.28c.17-.47.4-.83.68-1.07s.62-.36 1.01-.36c.21.01.42.03.61.08zM62.04 43.58c.32.34.49.82.49 1.42v4.54h-1.1v-4.38c0-.45-.08-.76-.25-.95s-.42-.28-.74-.28c-.34 0-.63.1-.89.29-.26.19-.5.47-.72.83v4.49h-1.1v-6.32h.95l.1.94c.22-.34.5-.6.83-.79.33-.19.7-.29 1.1-.29.55-.01 1 .16 1.33.5zM69.14 48.63c.09.12.22.22.4.28l-.25.77c-.33-.04-.59-.13-.79-.28-.2-.14-.35-.37-.44-.67-.42.63-1.05.95-1.88.95-.62 0-1.12-.18-1.48-.53-.36-.35-.54-.81-.54-1.38 0-.67.24-1.19.73-1.55.48-.36 1.17-.54 2.06-.54h.97v-.47c0-.45-.11-.77-.32-.96s-.55-.29-1-.29c-.46 0-1.03.11-1.7.34l-.28-.8c.78-.29 1.51-.43 2.18-.43.74 0 1.3.18 1.67.55.37.36.55.88.55 1.55v2.89c-.02.25.03.44.12.57zm-1.24-.76v-1.45h-.83c-1.17 0-1.75.43-1.75 1.3 0 .38.09.66.28.85.18.19.46.29.82.29.62-.01 1.12-.34 1.48-.99zM74.46 49.25c-.42.29-.89.43-1.42.43-.54 0-.95-.15-1.25-.46-.3-.31-.45-.75-.45-1.34v-3.82h-1.1v-.85h1.1v-1.43l1.1-.13v1.56h1.5l-.12.85h-1.38v3.77c0 .33.06.57.17.71.12.15.31.22.58.22.25 0 .53-.08.84-.25l.43.74zM80.18 46.75h-4.03c.05.7.22 1.21.53 1.54s.7.49 1.18.49c.3 0 .58-.04.84-.13s.52-.23.8-.42l.48.66c-.67.53-1.41.79-2.21.79-.88 0-1.57-.29-2.06-.86-.49-.58-.74-1.37-.74-2.38 0-.66.11-1.24.32-1.75.21-.51.52-.91.91-1.19.4-.29.86-.43 1.4-.43.84 0 1.48.28 1.93.83.45.55.67 1.32.67 2.29 0 .18-.01.37-.02.56zm-1.02-6.64l.47.54L78 42.01h-.73l-1.63-1.36.48-.54 1.51 1.01 1.53-1.01zm-.05 5.75c0-.62-.12-1.1-.37-1.43-.25-.33-.62-.49-1.12-.49-.9 0-1.4.66-1.48 1.99h2.96v-.07zM86.29 43.58c.32.34.49.82.49 1.42v4.54h-1.1v-4.38c0-.45-.08-.76-.25-.95s-.42-.28-.74-.28c-.34 0-.63.1-.89.29-.26.19-.5.47-.72.83v4.49h-1.1v-6.32h.95l.1.94c.22-.34.5-.6.83-.79.33-.19.7-.29 1.1-.29.56-.01 1.01.16 1.33.5zM90.5 39.92l.49.92-2.54 1.03-.34-.59 2.39-1.36zm-.4 3.29v6.32H89v-6.32h1.1zM98.75 49.25c-.42.29-.89.43-1.42.43-.54 0-.95-.15-1.25-.46-.3-.31-.45-.75-.45-1.34v-3.82h-1.1v-.85h1.1v-1.43l1.1-.13v1.56h1.5l-.12.85h-1.38v3.77c0 .33.06.57.17.71.12.15.31.22.58.22.25 0 .53-.08.84-.25l.43.74zM104.46 46.75h-4.03c.05.7.22 1.21.53 1.54.3.33.7.49 1.18.49.3 0 .58-.04.84-.13s.52-.23.8-.42l.48.66c-.67.53-1.41.79-2.21.79-.88 0-1.57-.29-2.06-.86-.49-.58-.74-1.37-.74-2.38 0-.66.11-1.24.32-1.75.21-.51.52-.91.91-1.19.4-.29.86-.43 1.4-.43.84 0 1.48.28 1.93.83.45.55.67 1.32.67 2.29.01.18 0 .37-.02.56zm-1.06-.89c0-.62-.12-1.1-.37-1.43-.25-.33-.62-.49-1.12-.49-.9 0-1.4.66-1.48 1.99h2.96v-.07zM110.93 43.93c.38.58.56 1.39.56 2.44 0 .99-.22 1.79-.65 2.4-.43.61-1.04.91-1.84.91-.7 0-1.26-.24-1.66-.72v3l-1.1.13v-8.88h.95l.08.85c.23-.32.51-.57.84-.74s.67-.26 1.03-.26c.82.01 1.42.29 1.79.87zm-.62 2.44c0-1.62-.48-2.42-1.43-2.42-.31 0-.6.09-.85.28-.26.18-.48.42-.67.71v3.08a1.626 1.626 0 001.39.77c1.04-.01 1.56-.82 1.56-2.42zM118.13 46.75h-4.03c.05.7.22 1.21.53 1.54.3.33.7.49 1.18.49.3 0 .58-.04.84-.13s.52-.23.8-.42l.48.66c-.67.53-1.41.79-2.21.79-.88 0-1.57-.29-2.06-.86-.49-.58-.74-1.37-.74-2.38 0-.66.11-1.24.32-1.75.21-.51.52-.91.91-1.19.4-.29.86-.43 1.4-.43.84 0 1.48.28 1.93.83.45.55.67 1.32.67 2.29.01.18 0 .37-.02.56zm-1.07-.89c0-.62-.12-1.1-.37-1.43-.25-.33-.62-.49-1.12-.49-.9 0-1.4.66-1.48 1.99h2.96v-.07zM124.25 43.58c.32.34.49.82.49 1.42v4.54h-1.1v-4.38c0-.45-.08-.76-.25-.95s-.42-.28-.74-.28c-.34 0-.63.1-.89.29-.26.19-.5.47-.72.83v4.49h-1.1v-6.32h.95l.1.94c.22-.34.5-.6.83-.79.33-.19.7-.29 1.1-.29.55-.01 1 .16 1.33.5zM127.84 48.25c.16.16.24.36.24.59 0 .23-.08.43-.24.59s-.36.25-.6.25c-.23 0-.43-.08-.59-.25s-.24-.36-.24-.59c0-.23.08-.43.24-.59s.36-.24.59-.24c.24 0 .44.08.6.24z"/><path class="st26" d="M105.36 294.05V106.46M212.78 294.05V106.46M239.63 294.05V106.46"/><g><path class="st15" d="M129.25 233.95l-.52-1.92h-2.75l-.52 1.92h-1.64l2.58-8.29h1.96l2.57 8.29h-1.68zm-2.95-3.12h2.11l-1.06-3.96-1.05 3.96zM135.44 233.65c-.22.16-.47.28-.75.36-.28.08-.56.12-.85.12-.62-.01-1.1-.19-1.42-.53-.32-.35-.49-.86-.49-1.54v-3.35h-1v-1.1h1v-1.4l1.54-.18v1.58h1.48l-.16 1.1h-1.32v3.31c0 .31.05.54.16.67.11.14.28.2.51.2.23 0 .48-.08.76-.23l.54.99zM141.48 231.25h-3.98c.05.62.21 1.06.48 1.32s.63.4 1.08.4c.28 0 .54-.05.79-.14s.51-.23.79-.43l.64.88c-.7.57-1.49.85-2.35.85-.97 0-1.71-.3-2.24-.89-.52-.59-.79-1.4-.79-2.42 0-.65.11-1.23.34-1.75.22-.52.55-.92.97-1.21.42-.29.93-.44 1.51-.44.89 0 1.58.28 2.06.85.49.56.73 1.35.73 2.36 0 .07-.01.28-.03.62zm-1.49-1.07c0-1.11-.41-1.67-1.24-1.67-.38 0-.67.14-.88.41-.21.28-.34.72-.38 1.33h2.5v-.07zM146.66 227.51l-.26 1.49c-.19-.05-.38-.07-.56-.07-.38 0-.67.13-.89.4-.22.27-.39.68-.52 1.23v3.38h-1.54v-6.35h1.33l.14 1.25c.15-.46.37-.81.66-1.05.29-.24.62-.37 1-.37.24.01.45.04.64.09zM152.4 228.31c.52.6.79 1.41.79 2.45 0 .66-.12 1.25-.36 1.76s-.58.9-1.03 1.18c-.45.28-.98.42-1.6.42-.94 0-1.67-.3-2.2-.89-.53-.6-.79-1.42-.79-2.47 0-.66.12-1.25.36-1.75s.59-.9 1.04-1.18c.45-.28.99-.42 1.6-.42.94.01 1.67.31 2.19.9zm-3.57 2.46c0 .75.11 1.31.34 1.66.23.36.57.53 1.03.53s.8-.18 1.03-.54c.23-.36.34-.91.34-1.66s-.11-1.29-.34-1.65c-.23-.36-.57-.53-1.01-.53-.93 0-1.39.73-1.39 2.19zM158.89 228.17l-.6.9c-.54-.34-1.08-.52-1.6-.52-.3 0-.54.06-.71.17s-.25.27-.25.46c0 .14.04.26.11.36.07.1.2.19.39.27.19.08.47.18.83.28.69.18 1.2.43 1.53.73.33.3.5.73.5 1.27 0 .63-.26 1.13-.77 1.48-.51.36-1.15.53-1.91.53-.52 0-.99-.08-1.42-.24-.43-.16-.8-.38-1.11-.66l.77-.86c.55.42 1.13.62 1.73.62.34 0 .62-.07.82-.2s.31-.32.31-.56c0-.18-.04-.33-.11-.44-.08-.11-.21-.2-.41-.29-.2-.08-.5-.19-.92-.31-.65-.18-1.12-.42-1.43-.74-.3-.32-.46-.71-.46-1.18 0-.35.1-.67.31-.95s.49-.5.86-.66.8-.24 1.28-.24c.86.03 1.61.28 2.26.78zM161.88 224.89v9.06h-1.54v-8.89l1.54-.17zm3.8 2.71l-2.11 2.8 2.32 3.55h-1.76l-2.18-3.47 2.12-2.88h1.61zM167.1 233.7c-.28-.28-.41-.69-.41-1.21v-7.44l1.54-.17v7.56c0 .3.12.44.36.44.12 0 .24-.02.36-.06l.32 1.08c-.32.14-.66.22-1.02.22-.49 0-.87-.14-1.15-.42zM175.46 231.25h-3.98c.05.62.21 1.06.48 1.32s.63.4 1.08.4c.28 0 .54-.05.79-.14s.51-.23.79-.43l.64.88c-.7.57-1.49.85-2.35.85-.97 0-1.71-.3-2.24-.89-.52-.59-.79-1.4-.79-2.42 0-.65.11-1.23.34-1.75.22-.52.55-.92.97-1.21.42-.29.93-.44 1.51-.44.89 0 1.58.28 2.06.85.49.56.73 1.35.73 2.36.01.07-.01.28-.03.62zm-1.49-1.07c0-1.11-.41-1.67-1.24-1.67-.38 0-.67.14-.88.41-.21.28-.34.72-.38 1.33h2.5v-.07zM180.64 227.51l-.26 1.49c-.19-.05-.38-.07-.56-.07-.38 0-.67.13-.89.4-.22.27-.39.68-.52 1.23v3.38h-1.54v-6.35h1.33l.14 1.25c.15-.46.37-.81.66-1.05.29-.24.62-.37 1-.37.24.01.45.04.64.09zM186.39 228.31c.52.6.79 1.41.79 2.45 0 .66-.12 1.25-.36 1.76s-.58.9-1.03 1.18c-.45.28-.98.42-1.6.42-.94 0-1.67-.3-2.2-.89-.53-.6-.79-1.42-.79-2.47 0-.66.12-1.25.36-1.75s.59-.9 1.04-1.18c.45-.28.99-.42 1.6-.42.93.01 1.66.31 2.19.9zm-1.29-4.2l.62 1.2-2.71 1.08-.43-.78 2.52-1.5zm-2.28 6.66c0 .75.11 1.31.34 1.66.23.36.57.53 1.03.53s.8-.18 1.03-.54c.23-.36.34-.91.34-1.66s-.11-1.29-.34-1.65c-.23-.36-.57-.53-1.01-.53-.93 0-1.39.73-1.39 2.19zM192.74 227.6v1.1l-3.07 4.04h3.13l-.16 1.2h-4.74v-1.1l3.08-4.04h-2.82v-1.2h4.58zM198.81 232.81c.08.12.2.21.37.27l-.32 1.02c-.36-.03-.65-.12-.88-.26-.23-.14-.4-.36-.52-.66-.22.32-.49.56-.81.71-.32.16-.69.23-1.09.23-.63 0-1.13-.18-1.5-.54-.37-.36-.55-.83-.55-1.42 0-.69.25-1.21.75-1.58.5-.36 1.21-.55 2.14-.55h.79v-.36c0-.41-.09-.69-.28-.86-.19-.16-.49-.25-.91-.25-.46 0-1.02.11-1.68.34l-.36-1.04c.79-.3 1.56-.46 2.3-.46 1.62 0 2.44.73 2.44 2.18v2.66c-.01.27.03.46.11.57zm-1.63-.58v-1.28h-.64c-.99 0-1.49.37-1.49 1.1 0 .3.08.54.23.71.15.17.38.25.67.25.53 0 .93-.26 1.23-.78z"/></g><g><path class="st32" d="M274.71 233.5c.77.58 1.16 1.66 1.16 3.23 0 1.54-.38 2.62-1.14 3.25-.76.63-1.72.94-2.89.94h-2.26v-8.29h2.04c1.29-.01 2.32.28 3.09.87zm-3.55.31v5.92h.78c.7 0 1.26-.22 1.66-.65.4-.44.6-1.22.6-2.35 0-.78-.1-1.39-.31-1.82s-.47-.72-.8-.87c-.33-.15-.73-.23-1.19-.23h-.74zM278.77 231.62c.18.18.27.4.27.67s-.09.48-.27.66-.41.26-.7.26c-.28 0-.51-.09-.69-.26-.18-.18-.27-.4-.27-.66a.92.92 0 01.96-.94c.28 0 .52.09.7.27zm.07 2.94v6.35h-1.54v-6.35h1.54zM285.5 239.78c.08.12.2.21.37.27l-.32 1.02c-.36-.03-.65-.12-.88-.26-.23-.14-.4-.36-.52-.66-.22.32-.49.56-.81.71-.32.16-.69.23-1.09.23-.63 0-1.13-.18-1.5-.54-.37-.36-.55-.83-.55-1.42 0-.69.25-1.21.75-1.58.5-.36 1.21-.55 2.14-.55h.79v-.36c0-.41-.09-.69-.28-.86-.19-.16-.49-.25-.91-.25-.46 0-1.02.11-1.68.34l-.36-1.04c.79-.3 1.56-.46 2.3-.46 1.62 0 2.44.73 2.44 2.18v2.66c-.01.27.03.45.11.57zm-1.63-.58v-1.28h-.64c-.99 0-1.49.37-1.49 1.1 0 .3.08.54.23.71.15.17.38.25.67.25.53 0 .94-.26 1.23-.78zM292.26 235.27c.42.59.62 1.41.62 2.47 0 .66-.1 1.24-.31 1.75-.2.51-.49.9-.87 1.19s-.82.43-1.33.43c-.34 0-.66-.07-.94-.22a2.26 2.26 0 01-.74-.61l-.1.65h-1.36v-8.89l1.54-.17v3.43c.21-.29.46-.51.76-.67.3-.16.63-.23.99-.23.75-.02 1.32.28 1.74.87zm-1.33 4.14c.23-.36.35-.91.35-1.67 0-.8-.11-1.37-.32-1.7s-.52-.5-.91-.5c-.49 0-.91.29-1.26.86v2.81c.14.23.31.41.51.54s.43.19.67.19c.4 0 .73-.18.96-.53zM299.57 238.21h-3.98c.05.62.21 1.06.48 1.32s.63.4 1.08.4c.28 0 .54-.05.79-.14s.51-.23.79-.43l.64.88c-.7.57-1.49.85-2.35.85-.97 0-1.71-.3-2.24-.89-.52-.59-.79-1.4-.79-2.42 0-.65.11-1.23.34-1.75.22-.52.55-.92.97-1.21.42-.29.93-.44 1.51-.44.89 0 1.58.28 2.06.85.49.56.73 1.35.73 2.36 0 .08-.01.29-.03.62zm-1.49-1.07c0-1.11-.41-1.67-1.24-1.67-.38 0-.67.14-.88.41-.21.28-.34.72-.38 1.33h2.5v-.07zM304.62 240.61c-.22.16-.47.28-.75.36-.28.08-.56.12-.85.12-.62-.01-1.1-.19-1.42-.53-.32-.35-.49-.86-.49-1.54v-3.35h-1v-1.1h1v-1.4l1.54-.18v1.58h1.48l-.16 1.1h-1.32v3.31c0 .31.05.54.16.67.11.14.28.2.51.2.23 0 .48-.08.76-.23l.54.99zM310.45 238.21h-3.98c.05.62.21 1.06.48 1.32s.63.4 1.08.4c.28 0 .54-.05.79-.14s.51-.23.79-.43l.64.88c-.7.57-1.49.85-2.35.85-.97 0-1.71-.3-2.24-.89-.52-.59-.79-1.4-.79-2.42 0-.65.11-1.23.34-1.75.22-.52.55-.92.97-1.21.42-.29.93-.44 1.51-.44.89 0 1.58.28 2.06.85.49.56.73 1.35.73 2.36.01.08 0 .29-.03.62zm-1.49-1.07c0-1.11-.41-1.67-1.24-1.67-.38 0-.67.14-.88.41-.21.28-.34.72-.38 1.33h2.5v-.07zM316.13 235.14l-.6.9c-.54-.34-1.08-.52-1.6-.52-.3 0-.54.06-.71.17s-.25.27-.25.46c0 .14.04.26.11.36.07.1.2.19.39.27.19.08.47.18.83.28.69.18 1.2.43 1.53.73.33.3.5.73.5 1.27 0 .63-.26 1.13-.77 1.48-.51.36-1.15.53-1.91.53-.52 0-.99-.08-1.42-.24-.43-.16-.8-.38-1.11-.66l.77-.86c.55.42 1.13.62 1.73.62.34 0 .62-.07.82-.2s.31-.32.31-.56c0-.18-.04-.33-.11-.44-.08-.11-.21-.2-.41-.29-.2-.08-.5-.19-.92-.31-.65-.18-1.12-.42-1.43-.74-.3-.32-.46-.71-.46-1.18 0-.35.1-.67.31-.95s.49-.5.86-.66.8-.24 1.28-.24c.86.02 1.61.28 2.26.78z"/></g><g><path class="st33" d="M261.75 283.41c.77.58 1.16 1.66 1.16 3.23 0 1.54-.38 2.62-1.14 3.25-.76.63-1.72.94-2.89.94h-2.26v-8.29h2.04c1.29 0 2.32.29 3.09.87zm-3.54.32v5.92h.78c.7 0 1.26-.22 1.66-.65.4-.44.6-1.22.6-2.35 0-.78-.1-1.39-.31-1.82s-.47-.72-.8-.87c-.33-.15-.73-.23-1.19-.23h-.74zM269.43 290.83h-1.33l-.08-.89c-.23.36-.51.63-.82.8-.32.18-.69.26-1.12.26-.57 0-1.01-.17-1.31-.52-.31-.35-.46-.83-.46-1.45v-4.56h1.54v4.37c0 .36.06.62.19.77s.32.23.59.23c.49 0 .92-.3 1.28-.9v-4.46h1.54v6.35zM275.54 285.06l-.6.9c-.54-.34-1.08-.52-1.6-.52-.3 0-.54.06-.71.17s-.25.27-.25.46c0 .14.04.26.11.36.07.1.2.19.39.27.19.08.47.18.83.28.69.18 1.2.43 1.53.73.33.3.5.73.5 1.27 0 .63-.26 1.13-.77 1.48-.51.36-1.15.53-1.91.53-.52 0-.99-.08-1.42-.24-.43-.16-.8-.38-1.11-.66l.77-.86c.55.42 1.13.62 1.73.62.34 0 .62-.07.82-.2s.31-.32.31-.56c0-.18-.04-.33-.11-.44-.08-.11-.21-.2-.41-.29-.2-.08-.5-.19-.92-.31-.65-.18-1.12-.42-1.43-.74-.3-.32-.46-.71-.46-1.18 0-.35.1-.67.31-.95s.49-.5.86-.66.8-.24 1.28-.24c.86.02 1.61.27 2.26.78zm-.66-3.83l.59.67-1.67 1.5h-.96l-1.67-1.5.59-.67 1.56 1.06 1.56-1.06zM282.16 288.13h-3.98c.05.62.21 1.06.48 1.32s.63.4 1.08.4c.28 0 .54-.05.79-.14s.51-.23.79-.43l.64.88c-.7.57-1.49.85-2.35.85-.97 0-1.71-.3-2.24-.89-.52-.59-.79-1.4-.79-2.42 0-.65.11-1.23.34-1.75.22-.52.55-.92.97-1.21.42-.29.93-.44 1.51-.44.89 0 1.58.28 2.06.85.49.56.73 1.35.73 2.36.01.07 0 .28-.03.62zm-1.49-1.07c0-1.11-.41-1.67-1.24-1.67-.38 0-.67.14-.88.41-.21.28-.34.72-.38 1.33h2.5v-.07zM288.61 284.48l-2.06 6.35h-1.84l-2.1-6.35h1.67l1.36 5.11 1.39-5.11h1.58zM294.26 284.81c.32.34.47.81.47 1.42v4.6h-1.54v-4.36c0-.38-.07-.64-.2-.79-.13-.15-.33-.23-.58-.23-.26 0-.5.08-.71.25s-.42.4-.62.71v4.42h-1.54v-6.35h1.33l.12.83c.52-.67 1.16-1.01 1.93-1.01.58 0 1.03.17 1.34.51zM298.2 280.99l.62 1.2-2.71 1.08-.43-.78 2.52-1.5zm-.14 3.49v6.35h-1.54v-6.35h1.54zM307.97 285.18c.38.58.58 1.4.58 2.46 0 .66-.1 1.24-.29 1.75-.2.51-.48.91-.86 1.19s-.83.43-1.35.43c-.67 0-1.2-.23-1.6-.7v2.96l-1.54.17v-8.96h1.34l.08.78c.25-.32.53-.56.85-.72.32-.16.66-.24 1.01-.24.81 0 1.4.29 1.78.88zm-1.03 2.47c0-.78-.1-1.34-.3-1.68-.2-.34-.5-.52-.9-.52-.26 0-.5.08-.72.23-.22.16-.42.37-.58.63v2.86c.3.44.68.66 1.16.66.9 0 1.34-.72 1.34-2.18zM314.84 285.2c.52.6.79 1.41.79 2.45 0 .66-.12 1.25-.36 1.76s-.58.9-1.03 1.18c-.45.28-.98.42-1.6.42-.94 0-1.67-.3-2.2-.89-.53-.6-.79-1.42-.79-2.47 0-.66.12-1.25.36-1.75s.59-.9 1.04-1.18c.45-.28.99-.42 1.6-.42.94 0 1.67.3 2.19.9zm-3.57 2.45c0 .75.11 1.31.34 1.66.23.36.57.53 1.03.53s.8-.18 1.03-.54c.23-.36.34-.91.34-1.66s-.11-1.29-.34-1.65c-.23-.36-.57-.53-1.01-.53-.93 0-1.39.73-1.39 2.19zM320.84 284.4l-.26 1.49c-.19-.05-.38-.07-.56-.07-.38 0-.67.13-.89.4-.22.27-.39.68-.52 1.23v3.38h-1.54v-6.35h1.33l.14 1.25c.15-.46.37-.81.66-1.05.29-.24.62-.37 1-.37.23 0 .44.03.64.09zM326.87 290.83h-1.33l-.08-.89c-.23.36-.51.63-.82.8-.32.18-.69.26-1.12.26-.57 0-1.01-.17-1.31-.52-.31-.35-.46-.83-.46-1.45v-4.56h1.54v4.37c0 .36.06.62.19.77s.32.23.59.23c.49 0 .92-.3 1.28-.9v-4.46h1.54v6.35zM332.4 284.48c.33.12.65.31.94.56l-.68.92c-.22-.16-.42-.28-.62-.35-.2-.07-.42-.11-.66-.11-.95 0-1.43.72-1.43 2.17 0 .74.12 1.27.37 1.59.25.32.6.49 1.06.49.22 0 .43-.04.62-.11s.41-.19.67-.35l.68.97c-.6.49-1.28.73-2.05.73-.61 0-1.14-.13-1.58-.4-.45-.27-.79-.65-1.03-1.15s-.36-1.08-.36-1.75.12-1.27.36-1.78c.24-.52.58-.92 1.03-1.2.45-.28.97-.43 1.57-.43.4.02.78.08 1.11.2zM339.16 284.82c.32.34.48.82.48 1.42v4.6h-1.54v-4.36c0-.38-.07-.64-.2-.79-.13-.15-.33-.23-.58-.23s-.49.08-.71.25-.42.4-.62.7v4.43h-1.54v-8.88l1.54-.16v3.44c.51-.62 1.13-.94 1.85-.94.56 0 1 .17 1.32.52zM344.43 290.85c-.26.78-.64 1.39-1.16 1.83-.52.44-1.23.69-2.14.76l-.16-1.12c.42-.06.75-.15 1-.27.25-.12.45-.27.61-.46.15-.19.29-.45.42-.77h-.53l-2.02-6.35h1.63l1.38 5.33 1.44-5.33h1.58l-2.05 6.38z"/></g><g><path class="st10" d="M400.76 303.08v-2M347.05 303.08v-2M293.34 303.08v-2M239.63 303.08v-2M185.92 303.08v-2M132.22 303.08v-2M78.51 303.08v-2M24.8 303.08v-2"/></g><path class="st25" d="M24.8 246.44h375.96M24.8 198.65h375.96M24.8 150.86h375.96M24.8 103.2h375.96"/><path fill="none" stroke="#c86092" stroke-width="2" stroke-linecap="round" stroke-linejoin="round" stroke-miterlimit="10" d="M24.86 91.06l26.83 58.29 26.83 42.41 26.83 25.73 26.9 2.89 26.83-9.72 26.83-7.48 26.9 45.16 26.83 2.1L266.47 270l26.9 4.6 26.83-.66 26.83 1.18 26.83.79 26.9.26"/><path fill="none" stroke="#379970" stroke-width="2" stroke-linecap="round" stroke-linejoin="round" stroke-miterlimit="10" d="M24.86 273.42l26.83-.53 26.83-.39 26.83-13.53 26.9 7.49 26.83 1.05 26.83.66 26.9-5.26 26.83 2.5 26.83-18.25 26.9 3.81 26.83-1.84 26.83.65 26.83 1.58 26.9-5.38"/><path fill="none" stroke="#fda394" stroke-width="2" stroke-linecap="round" stroke-linejoin="round" stroke-miterlimit="10" d="M24.86 291.8l26.83-1.18 26.83.65 26.83.26 26.9-.26 26.83.92 26.83-.92 26.9-9.45h26.83l26.83-2.63 26.9.13 26.83-3.02 26.83 1.19 26.83-3.29 26.9 1.05"/><path fill="none" stroke="#65b7cc" stroke-width="2" stroke-linecap="round" stroke-linejoin="round" stroke-miterlimit="10" d="M24.86 265.28l26.83-.92 26.83.52 26.83 12.21 26.9.13 26.83 2.76 26.83.53 26.9-13.79 26.83-4.33 26.83-.4 26.9-.13 26.83-3.8 26.83-.92 26.83-.53 26.9-3.28"/><g><path d="M245.41 106.92c.36.18.64.43.83.75.19.32.29.67.29 1.06 0 .42-.09.82-.27 1.2-.18.39-.48.81-.9 1.28-.42.47-1.03 1.09-1.84 1.86h3.17l-.15 1.11h-4.61v-1.03c.94-.95 1.61-1.66 2.02-2.12s.7-.85.87-1.18c.17-.33.26-.67.26-1.02 0-.34-.1-.6-.29-.79s-.45-.29-.78-.29c-.29 0-.54.06-.75.18-.22.12-.44.32-.68.6l-.86-.68c.62-.81 1.42-1.21 2.4-1.21.5.01.93.1 1.29.28zM252.25 107.64c.45.66.68 1.61.68 2.85 0 1.25-.23 2.2-.68 2.87-.45.66-1.11 1-1.97 1-.87 0-1.52-.33-1.97-1-.45-.66-.68-1.62-.68-2.87 0-1.24.23-2.19.68-2.85.45-.66 1.11-.99 1.97-.99.87 0 1.52.33 1.97.99zm-2.88.71c-.19.42-.29 1.14-.29 2.14 0 1.01.09 1.73.29 2.16.19.43.49.64.91.64.42 0 .72-.21.91-.63.19-.42.29-1.14.29-2.16 0-1.01-.09-1.73-.29-2.14-.19-.42-.49-.63-.91-.63-.42-.01-.72.2-.91.62zM257.09 106.78v7.4h-1.39v-5.98l-1.65 1-.62-.95 2.41-1.47h1.25zM261.99 106.92c.36.18.64.43.83.75.19.32.29.67.29 1.06 0 .42-.09.82-.27 1.2-.18.39-.48.81-.9 1.28-.42.47-1.03 1.09-1.84 1.86h3.17l-.15 1.11h-4.61v-1.03c.94-.95 1.61-1.66 2.02-2.12s.7-.85.87-1.18c.17-.33.26-.67.26-1.02 0-.34-.1-.6-.29-.79s-.45-.29-.78-.29c-.29 0-.54.06-.75.18-.22.12-.44.32-.68.6l-.86-.68c.62-.81 1.42-1.21 2.4-1.21.5.01.93.1 1.29.28zM246.83 119.19c.51.39.77.98.77 1.75 0 .83-.27 1.45-.8 1.85-.54.4-1.25.6-2.13.6h-.96v2.78h-1.04v-7.58h1.99c.93.02 1.65.21 2.17.6zm-.82 3.03c.32-.23.48-.66.48-1.26 0-.54-.16-.94-.48-1.18-.32-.24-.78-.36-1.37-.36h-.94v3.16h.91c.61 0 1.08-.12 1.4-.36zM251.74 117.55l.43.5-1.49 1.24h-.67l-1.5-1.24.44-.5 1.39.92 1.4-.92zm.12 2.77l-.19.99c-.18-.04-.34-.07-.51-.07-.36 0-.65.13-.87.4-.22.26-.39.67-.52 1.23v3.31h-1.01v-5.8h.87l.1 1.18c.15-.43.36-.76.63-.98.26-.22.57-.33.92-.33.22.01.41.03.58.07zM254.03 117.8c.13.13.2.3.2.5s-.07.36-.2.49-.3.19-.52.19c-.21 0-.37-.06-.51-.19s-.2-.29-.2-.49.07-.36.2-.5.3-.2.51-.2a.7.7 0 01.52.2zm0 2.59v5.8h-1.01v-5.8h1.01zM260.61 118.06v8.13h-.89l-.1-.8c-.19.29-.43.52-.71.69s-.61.25-.96.25c-.69 0-1.23-.27-1.61-.81-.39-.54-.58-1.27-.58-2.19 0-.59.09-1.12.28-1.58s.45-.82.79-1.08c.34-.26.75-.39 1.21-.39.59 0 1.11.24 1.56.71v-3.04l1.01.11zm-1.65 7.24c.22-.14.43-.36.64-.64v-2.84c-.19-.25-.39-.44-.61-.57-.22-.13-.46-.19-.73-.19-.45 0-.79.19-1.04.56-.25.37-.37.93-.37 1.67 0 .75.11 1.3.34 1.67.23.37.55.55.98.55.31 0 .57-.07.79-.21zM266.73 125.35c.08.11.2.2.36.26l-.23.7c-.3-.04-.54-.12-.73-.25-.18-.13-.32-.34-.41-.62-.39.58-.96.87-1.73.87-.57 0-1.02-.16-1.35-.48-.33-.32-.5-.75-.5-1.27 0-.62.22-1.09.67-1.42.44-.33 1.07-.5 1.89-.5h.89v-.43c0-.41-.1-.7-.3-.88-.2-.18-.5-.26-.91-.26-.42 0-.95.1-1.56.31l-.25-.74c.72-.26 1.39-.4 2-.4.68 0 1.19.17 1.53.5.34.33.51.81.51 1.42v2.65c-.01.26.03.43.12.54zm-1.34-7.98l.45.85-2.33.95-.31-.54 2.19-1.26zm.2 7.29v-1.33h-.76c-1.07 0-1.61.4-1.61 1.19 0 .34.08.6.25.78.17.18.42.26.75.26.59 0 1.04-.3 1.37-.9zM272.65 120.73c.3.32.45.75.45 1.3v4.16h-1.01v-4.01c0-.41-.08-.7-.23-.87s-.38-.25-.68-.25c-.31 0-.58.09-.81.26s-.45.43-.66.76v4.11h-1.01v-5.8h.87l.09.86c.21-.31.46-.55.76-.73.3-.18.64-.26 1.01-.26.51 0 .92.15 1.22.47zM276.5 117.37l.45.85-2.33.95-.31-.54 2.19-1.26zm-.36 3.02v5.8h-1.01v-5.8h1.01zM284.12 117.55l.43.5-1.49 1.24h-.67l-1.5-1.24.44-.5 1.39.92 1.4-.92zm.12 2.77l-.19.99c-.18-.04-.34-.07-.51-.07-.36 0-.65.13-.87.4-.22.26-.39.67-.52 1.23v3.31h-1.01v-5.8h.87l.1 1.18c.15-.43.36-.76.63-.98.26-.22.57-.33.92-.33.21.01.4.03.58.07zM289.03 125.35c.08.11.2.2.36.26l-.23.7c-.3-.04-.54-.12-.73-.25-.18-.13-.32-.34-.41-.62-.39.58-.96.87-1.73.87-.57 0-1.02-.16-1.35-.48-.33-.32-.5-.75-.5-1.27 0-.62.22-1.09.67-1.42.44-.33 1.07-.5 1.89-.5h.89v-.43c0-.41-.1-.7-.3-.88-.2-.18-.5-.26-.91-.26-.42 0-.95.1-1.56.31l-.25-.74c.72-.26 1.39-.4 2-.4.68 0 1.19.17 1.53.5.34.33.51.81.51 1.42v2.65c0 .26.04.43.12.54zm-1.33-7.98l.45.85-2.33.95-.31-.54 2.19-1.26zm.2 7.29v-1.33h-.76c-1.07 0-1.61.4-1.61 1.19 0 .34.08.6.25.78.17.18.42.26.75.26.59 0 1.04-.3 1.37-.9zM295.48 118.06v8.13h-.89l-.1-.8c-.19.29-.43.52-.71.69s-.61.25-.96.25c-.69 0-1.23-.27-1.61-.81-.39-.54-.58-1.27-.58-2.19 0-.59.09-1.12.28-1.58s.45-.82.79-1.08c.34-.26.75-.39 1.21-.39.59 0 1.11.24 1.56.71v-3.04l1.01.11zm-1.65 7.24c.22-.14.43-.36.64-.64v-2.84c-.19-.25-.39-.44-.61-.57-.22-.13-.46-.19-.73-.19-.45 0-.79.19-1.04.56-.25.37-.37.93-.37 1.67 0 .75.11 1.3.34 1.67.23.37.55.55.98.55.31 0 .57-.07.79-.21zM298.58 117.93v8.25h-1.01v-8.13l1.01-.12zm3.34 2.46l-2.13 2.56 2.38 3.23h-1.21l-2.3-3.17 2.13-2.63h1.13zM307.44 126.18h-.87l-.08-.9c-.22.36-.47.62-.76.79s-.63.25-1.04.25c-.51 0-.9-.15-1.19-.46s-.43-.74-.43-1.31v-4.16h1.01v4.05c0 .4.07.68.21.84s.37.25.68.25c.57 0 1.05-.33 1.45-1v-4.14h1.01v5.79zM316.41 120.73c.3.32.45.75.45 1.3v4.16h-1.01v-4.01c0-.41-.08-.7-.23-.87s-.38-.25-.68-.25c-.31 0-.58.09-.81.26s-.45.43-.66.76v4.11h-1.01v-5.8h.87l.09.86c.21-.31.46-.55.76-.73.3-.18.64-.26 1.01-.26.51 0 .92.15 1.22.47zM322.91 125.35c.08.11.2.2.36.26l-.23.7c-.3-.04-.54-.12-.73-.25-.18-.13-.32-.34-.41-.62-.39.58-.96.87-1.73.87-.57 0-1.02-.16-1.35-.48-.33-.32-.5-.75-.5-1.27 0-.62.22-1.09.67-1.42.44-.33 1.07-.5 1.89-.5h.89v-.43c0-.41-.1-.7-.3-.88-.2-.18-.5-.26-.91-.26-.42 0-.95.1-1.56.31l-.25-.74c.72-.26 1.39-.4 2-.4.68 0 1.19.17 1.53.5.34.33.51.81.51 1.42v2.65c0 .26.04.43.12.54zm-1.13-.69v-1.33h-.76c-1.07 0-1.61.4-1.61 1.19 0 .34.08.6.25.78.17.18.42.26.75.26.59 0 1.04-.3 1.37-.9zM243.7 130.61v6.67h3.11l-.12.91h-4.04v-7.58h1.05zM249.09 129.8c.13.13.2.3.2.5s-.07.36-.2.49-.3.19-.52.19c-.21 0-.37-.06-.51-.19s-.2-.29-.2-.49.07-.36.2-.5.3-.2.51-.2a.7.7 0 01.52.2zm0 2.59v5.8h-1.01v-5.8h1.01zM253.82 132.42c.32.11.62.27.9.5l-.43.64c-.26-.17-.52-.29-.75-.37s-.49-.12-.75-.12c-.33 0-.59.07-.78.2s-.29.32-.29.56c0 .24.09.42.27.55.18.13.5.26.97.39.65.16 1.13.38 1.45.66.32.28.48.66.48 1.14 0 .57-.22 1.01-.67 1.31-.44.3-.99.45-1.62.45-.88 0-1.61-.25-2.19-.76l.54-.62c.49.37 1.03.56 1.63.56.38 0 .68-.08.91-.24.22-.16.33-.37.33-.64 0-.2-.04-.36-.12-.48-.08-.12-.22-.23-.42-.32a5.8 5.8 0 00-.87-.29c-.62-.16-1.06-.38-1.34-.65s-.41-.62-.41-1.03c0-.3.09-.57.27-.82.18-.25.43-.44.75-.57.32-.14.68-.2 1.07-.2.4-.01.76.04 1.07.15zM259.24 137.92c-.38.26-.81.4-1.3.4s-.87-.14-1.15-.42-.41-.69-.41-1.23v-3.5h-1.01v-.78h1.01v-1.31l1.01-.12v1.43h1.38l-.11.78h-1.26v3.45c0 .3.05.52.16.65s.28.2.53.2c.23 0 .48-.08.77-.23l.38.68zM267.28 133.07c.45.54.68 1.28.68 2.21 0 .6-.1 1.13-.31 1.59-.21.46-.5.81-.89 1.07-.39.25-.85.38-1.39.38-.81 0-1.45-.27-1.9-.81-.45-.54-.68-1.28-.68-2.21 0-.6.1-1.13.31-1.59.21-.46.5-.81.89-1.07s.85-.38 1.4-.38c.81 0 1.44.27 1.89.81zm-3.4 2.22c0 1.47.5 2.21 1.5 2.21s1.5-.74 1.5-2.22c0-1.47-.5-2.21-1.49-2.21-1.01 0-1.51.74-1.51 2.22zM276.83 133.05c.34.53.52 1.27.52 2.23 0 .91-.2 1.64-.59 2.2-.4.56-.96.84-1.68.84-.65 0-1.15-.22-1.52-.66v2.75l-1.01.12v-8.14h.87l.08.78c.21-.29.47-.52.77-.68a2 2 0 01.95-.24c.73.01 1.27.27 1.61.8zm-.57 2.23c0-1.48-.44-2.22-1.31-2.22-.29 0-.55.08-.78.25s-.44.38-.62.65v2.83c.15.23.33.4.55.52.22.12.46.18.73.18.95 0 1.43-.74 1.43-2.21zM282.17 132.32l-.19.99c-.18-.04-.34-.07-.51-.07-.36 0-.65.13-.87.4-.22.26-.39.67-.52 1.23v3.31h-1.01v-5.8h.87l.1 1.18c.15-.43.36-.76.63-.98.26-.22.57-.33.92-.33.21.01.4.03.58.07zM287.07 133.07c.45.54.68 1.28.68 2.21 0 .6-.1 1.13-.31 1.59-.21.46-.5.81-.89 1.07-.39.25-.85.38-1.39.38-.81 0-1.45-.27-1.9-.81-.45-.54-.68-1.28-.68-2.21 0-.6.1-1.13.31-1.59.21-.46.5-.81.89-1.07s.85-.38 1.4-.38c.81 0 1.44.27 1.89.81zm-3.41 2.22c0 1.47.5 2.21 1.5 2.21s1.5-.74 1.5-2.22c0-1.47-.5-2.21-1.49-2.21-1 0-1.51.74-1.51 2.22zM293.38 132.73c.3.32.45.75.45 1.3v4.16h-1.01v-4.01c0-.41-.08-.7-.24-.87-.16-.17-.39-.25-.69-.25s-.57.09-.8.26-.45.43-.66.75v4.12h-1.01v-8.12l1.01-.11v3.23c.46-.62 1.03-.93 1.72-.93.52 0 .94.15 1.23.47zM296.13 137.98c-.22-.22-.32-.54-.32-.94v-6.99l1.01-.12v7.08c0 .16.03.28.08.35.05.07.15.11.28.11.14 0 .26-.02.37-.07l.26.7c-.24.13-.51.2-.8.2-.37.02-.66-.09-.88-.32zM300.46 129.37l.45.85-2.33.95-.31-.54 2.19-1.26zm-.36 3.02v5.8h-1.01v-5.8h1.01zM306.68 130.06v8.13h-.89l-.1-.8c-.19.29-.43.52-.71.69s-.61.25-.96.25c-.69 0-1.23-.27-1.61-.81-.39-.54-.58-1.27-.58-2.19 0-.59.09-1.12.28-1.58s.45-.82.79-1.08c.34-.26.75-.39 1.21-.39.59 0 1.11.24 1.56.71v-3.04l1.01.11zm-1.65 7.24c.22-.14.43-.36.64-.64v-2.84c-.19-.25-.39-.44-.61-.57-.22-.13-.46-.19-.73-.19-.45 0-.79.19-1.04.56-.25.37-.37.93-.37 1.67 0 .75.11 1.3.34 1.67.23.37.55.55.98.55.3 0 .57-.07.79-.21zM311.82 132.4c.29.1.56.26.83.48l-.48.64c-.21-.15-.41-.25-.6-.32s-.41-.1-.64-.1c-.47 0-.83.19-1.09.56s-.39.93-.39 1.66.13 1.27.38 1.62c.26.35.62.52 1.1.52.23 0 .44-.04.63-.1.19-.07.4-.18.64-.34l.46.66c-.53.42-1.12.64-1.77.64-.79 0-1.4-.26-1.85-.79s-.68-1.26-.68-2.19c0-.62.1-1.16.31-1.62.21-.46.5-.82.88-1.08s.83-.38 1.35-.38c.32 0 .64.04.92.14zM318.16 135.63h-3.7c.04.64.21 1.11.48 1.41.28.3.64.45 1.08.45.28 0 .54-.04.77-.12.23-.08.48-.21.74-.38l.44.61c-.62.48-1.29.73-2.02.73-.81 0-1.44-.26-1.89-.79s-.68-1.25-.68-2.18c0-.6.1-1.13.29-1.6.19-.47.47-.83.84-1.09.36-.26.79-.4 1.28-.4.77 0 1.36.25 1.77.76.41.51.62 1.21.62 2.1 0 .15-.01.33-.02.5zm-.98-.81c0-.57-.11-1.01-.34-1.31s-.57-.45-1.02-.45c-.83 0-1.28.61-1.35 1.83h2.72v-.07zM326.11 132.39v.77l-3.03 4.18h3.06l-.12.85h-4.08v-.76l3.01-4.18h-2.76v-.86h3.92zM331.8 135.63h-3.7c.04.64.21 1.11.48 1.41.28.3.64.45 1.08.45.28 0 .54-.04.77-.12.23-.08.48-.21.74-.38l.44.61c-.62.48-1.29.73-2.02.73-.81 0-1.44-.26-1.89-.79s-.68-1.25-.68-2.18c0-.6.1-1.13.29-1.6.19-.47.47-.83.84-1.09.36-.26.79-.4 1.28-.4.77 0 1.36.25 1.77.76.41.51.62 1.21.62 2.1 0 .15-.01.33-.02.5zm-.98-.81c0-.57-.11-1.01-.34-1.31s-.57-.45-1.02-.45c-.83 0-1.28.61-1.35 1.83h2.72v-.07zM340.4 132.73c.29.32.43.75.43 1.29v4.16h-1.01v-4.01c0-.75-.27-1.12-.81-1.12-.29 0-.53.08-.73.25s-.41.42-.64.78v4.11h-1.01v-4.01c0-.75-.27-1.12-.81-1.12-.29 0-.54.08-.74.25-.2.17-.41.42-.63.77v4.11h-1.01v-5.8h.87l.09.85c.43-.65.99-.98 1.67-.98.36 0 .67.09.92.27.25.18.43.44.54.77.23-.34.48-.6.75-.78.27-.18.6-.27.97-.27.48.01.87.17 1.15.48zM345.83 129.55l.43.5-1.49 1.24h-.67l-1.5-1.24.44-.5 1.39.92 1.4-.92zm.13 2.77l-.19.99c-.18-.04-.34-.07-.51-.07-.36 0-.65.13-.87.4-.22.26-.39.67-.52 1.23v3.31h-1.01v-5.8h.87l.1 1.18c.15-.43.36-.76.63-.98.26-.22.57-.33.92-.33.21.01.4.03.58.07zM351.14 135.63h-3.7c.04.64.21 1.11.48 1.41.28.3.64.45 1.08.45.28 0 .54-.04.77-.12.23-.08.48-.21.74-.38l.44.61c-.62.48-1.29.73-2.02.73-.81 0-1.44-.26-1.89-.79s-.68-1.25-.68-2.18c0-.6.1-1.13.29-1.6.19-.47.47-.83.84-1.09.36-.26.79-.4 1.28-.4.77 0 1.36.25 1.77.76.41.51.62 1.21.62 2.1 0 .15-.01.33-.02.5zm-.98-.81c0-.57-.11-1.01-.34-1.31s-.57-.45-1.02-.45c-.83 0-1.28.61-1.35 1.83h2.72v-.07zM353.05 137.98c-.22-.22-.32-.54-.32-.94v-6.99l1.01-.12v7.08c0 .16.03.28.08.35.05.07.15.11.28.11.14 0 .26-.02.37-.07l.26.7c-.24.13-.51.2-.8.2-.37.02-.67-.09-.88-.32zM360.3 135.63h-3.7c.04.64.21 1.11.48 1.41.28.3.64.45 1.08.45.28 0 .54-.04.77-.12.23-.08.48-.21.74-.38l.44.61c-.62.48-1.29.73-2.02.73-.81 0-1.44-.26-1.89-.79s-.68-1.25-.68-2.18c0-.6.1-1.13.29-1.6.19-.47.47-.83.84-1.09.36-.26.79-.4 1.28-.4.77 0 1.36.25 1.77.76.41.51.62 1.21.62 2.1 0 .15 0 .33-.02.5zm-.98-.81c0-.57-.11-1.01-.34-1.31s-.57-.45-1.02-.45c-.83 0-1.28.61-1.35 1.83h2.72v-.07zm-.48-5.45l.45.85-2.33.95-.31-.54 2.19-1.26zM365.91 132.73c.3.32.45.75.45 1.3v4.16h-1.01v-4.01c0-.41-.08-.7-.24-.87-.16-.17-.39-.25-.69-.25s-.57.09-.8.26-.45.43-.66.75v4.12h-1.01v-8.12l1.01-.11v3.23c.46-.62 1.03-.93 1.72-.93.52 0 .93.15 1.23.47zM372.46 133.07c.45.54.68 1.28.68 2.21 0 .6-.1 1.13-.31 1.59-.21.46-.5.81-.89 1.07-.39.25-.85.38-1.39.38-.81 0-1.45-.27-1.9-.81-.45-.54-.68-1.28-.68-2.21 0-.6.1-1.13.31-1.59.21-.46.5-.81.89-1.07s.85-.38 1.4-.38c.81 0 1.44.27 1.89.81zm-3.4 2.22c0 1.47.5 2.21 1.5 2.21s1.5-.74 1.5-2.22c0-1.47-.5-2.21-1.49-2.21-1.01 0-1.51.74-1.51 2.22z"/></g><g><path d="M193.94 108.08c.36.18.64.43.83.75.19.32.29.67.29 1.06 0 .42-.09.82-.27 1.2-.18.39-.48.81-.9 1.28-.42.47-1.03 1.09-1.84 1.86h3.17l-.15 1.11h-4.61v-1.03c.94-.95 1.61-1.66 2.02-2.12s.7-.85.87-1.18c.17-.33.26-.67.26-1.02 0-.34-.1-.6-.29-.79s-.45-.29-.78-.29c-.29 0-.54.06-.75.18-.22.12-.44.32-.68.6l-.86-.68c.62-.81 1.42-1.21 2.4-1.21.5.01.93.1 1.29.28zM200.79 108.8c.45.66.68 1.61.68 2.85 0 1.25-.23 2.2-.68 2.87-.45.66-1.11 1-1.97 1-.87 0-1.52-.33-1.97-1-.45-.66-.68-1.62-.68-2.87 0-1.24.23-2.19.68-2.85.45-.66 1.11-.99 1.97-.99.86 0 1.52.33 1.97.99zm-2.89.71c-.19.42-.29 1.14-.29 2.14 0 1.01.09 1.73.29 2.16.19.43.49.64.91.64.42 0 .72-.21.91-.63.19-.42.29-1.14.29-2.16 0-1.01-.09-1.73-.29-2.14-.19-.42-.49-.63-.91-.63-.42-.01-.72.2-.91.62zM205.62 107.94v7.4h-1.39v-5.98l-1.65 1-.62-.95 2.41-1.47h1.25zM210.4 107.94v7.4h-1.39v-5.98l-1.65 1-.62-.95 2.41-1.47h1.25zM162.63 119.77l-2.42 7.58h-1.12l-2.44-7.58h1.12l1.9 6.45 1.9-6.45h1.06zM165.96 127.38c-.23.67-.54 1.21-.95 1.6-.41.39-.99.63-1.74.71l-.11-.79c.38-.07.69-.16.91-.29.23-.12.41-.28.54-.48s.26-.46.38-.79h-.34l-1.95-5.8h1.08l1.55 5.06 1.52-5.06h1.04l-1.93 5.84zM173.36 127.34h-.87l-.08-.9c-.22.36-.47.62-.76.79s-.63.25-1.04.25c-.51 0-.9-.15-1.19-.46s-.43-.74-.43-1.31v-4.16H170v4.05c0 .4.07.68.21.84s.37.25.68.25c.57 0 1.05-.33 1.45-1v-4.14h1.01v5.79zM178.85 121.55v.77l-3.03 4.18h3.06l-.12.85h-4.08v-.76l3.01-4.18h-2.76v-.86h3.92zm-.64-2.84l.43.5-1.49 1.24h-.67l-1.5-1.24.44-.5 1.39.92 1.4-.92zM181.27 118.96c.13.13.2.3.2.5s-.07.36-.2.49-.3.19-.52.19c-.21 0-.37-.06-.51-.19s-.2-.29-.2-.49.07-.36.2-.5.3-.2.51-.2c.21 0 .38.07.52.2zm0 2.59v5.8h-1.01v-5.8h1.01zM186.28 127.08c-.38.26-.81.4-1.3.4s-.87-.14-1.15-.42-.41-.69-.41-1.23v-3.5h-1.01v-.78h1.01v-1.31l1.01-.12v1.43h1.38l-.11.78h-1.26v3.45c0 .3.05.52.16.65s.28.2.53.2c.23 0 .48-.08.77-.23l.38.68zM188.7 118.53l.45.85-2.33.95-.31-.54 2.19-1.26zm-.36 3.02v5.8h-1.01v-5.8h1.01zM194.44 119.77v7.58h-1.04v-7.58h1.04zM198.87 124.13h-1.18v3.21h-1.04v-7.58h1.99c.95 0 1.66.18 2.15.54.49.36.73.89.73 1.61 0 .53-.14.96-.41 1.29-.27.33-.68.58-1.23.75l2.05 3.4h-1.24l-1.82-3.22zm-.13-.8c.55 0 .96-.11 1.24-.34.28-.22.42-.58.42-1.08 0-.47-.14-.81-.42-1.02s-.74-.31-1.36-.31h-.94v2.75h1.06zM204.34 119.77v7.58h-1.04v-7.58h1.04zM209.71 119.85c.36.14.71.36 1.05.67l-.57.64c-.29-.23-.57-.39-.84-.5s-.57-.16-.89-.16c-.4 0-.72.09-.98.27-.26.18-.38.45-.38.8 0 .22.04.41.13.56s.25.29.49.41.58.26 1.04.4c.48.15.87.3 1.19.47.32.17.57.4.76.7s.29.67.29 1.13c0 .44-.11.83-.32 1.17-.22.34-.53.6-.93.79-.41.19-.89.29-1.45.29-1.05 0-1.91-.33-2.57-.98l.57-.64c.31.25.62.44.94.57.32.13.67.19 1.06.19.47 0 .86-.12 1.17-.35.31-.23.46-.57.46-1.01 0-.25-.05-.46-.14-.62-.1-.17-.26-.31-.49-.45-.23-.13-.57-.26-1.01-.4-.78-.23-1.35-.52-1.71-.85s-.54-.78-.54-1.34c0-.38.1-.72.3-1.02.2-.3.48-.54.85-.7s.78-.25 1.24-.25c.49-.01.92.07 1.28.21z"/></g><path class="st29" d="M23.81 245.98h48.57v1.3H23.81z"/><g><path class="st38" d="M31.89 238.61h-2.05L27 231.9c.07.59.13 1.13.16 1.61.04.48.05 1.05.05 1.72v3.38h-1.44v-8.29h2l2.89 6.72c-.05-.32-.1-.74-.14-1.27-.05-.52-.07-1.05-.07-1.57v-3.89h1.44v8.3zM38.96 235.91h-3.98c.05.62.21 1.06.48 1.32s.63.4 1.08.4c.28 0 .54-.05.79-.14s.51-.23.79-.43l.64.88c-.7.57-1.49.85-2.35.85-.97 0-1.71-.3-2.24-.89-.52-.59-.79-1.4-.79-2.42 0-.65.11-1.23.34-1.75.22-.52.55-.92.97-1.21.42-.29.93-.44 1.51-.44.89 0 1.58.28 2.06.85.49.56.73 1.35.73 2.36 0 .08-.01.29-.03.62zm-1.49-1.06c0-1.11-.41-1.67-1.24-1.67-.38 0-.67.14-.88.41-.21.28-.34.72-.38 1.33h2.5v-.07zM48.33 232.61c.3.35.46.82.46 1.41v4.6h-1.54v-4.36c0-.68-.23-1.02-.7-1.02-.25 0-.46.08-.64.23-.18.16-.37.4-.56.73v4.42h-1.54v-4.36c0-.68-.23-1.02-.7-1.02-.26 0-.47.08-.65.23-.18.16-.37.4-.56.73v4.42h-1.54v-6.35h1.33l.12.83c.48-.67 1.09-1.01 1.84-1.01.37 0 .69.09.95.28.27.19.46.45.58.79.26-.34.54-.61.85-.79.31-.18.66-.28 1.06-.28.53 0 .94.17 1.24.52zM55.36 232.98c.52.6.79 1.41.79 2.45 0 .66-.12 1.25-.36 1.76s-.58.9-1.03 1.18c-.45.28-.98.42-1.6.42-.94 0-1.67-.3-2.2-.89-.53-.6-.79-1.42-.79-2.47 0-.66.12-1.25.36-1.75s.59-.9 1.04-1.18c.45-.28.99-.42 1.6-.42.93.01 1.66.3 2.19.9zm-3.57 2.45c0 .75.11 1.31.34 1.66.23.36.57.53 1.03.53s.8-.18 1.03-.54c.23-.36.34-.91.34-1.66s-.11-1.29-.34-1.65c-.23-.36-.57-.53-1.01-.53-.93.01-1.39.74-1.39 2.19zM61.26 232.27c.33.12.65.31.94.56l-.68.92c-.22-.16-.42-.28-.62-.35-.2-.07-.42-.11-.66-.11-.95 0-1.43.72-1.43 2.17 0 .74.12 1.27.37 1.59.25.32.6.49 1.06.49.22 0 .43-.04.62-.11s.41-.19.67-.35l.68.97c-.6.49-1.28.73-2.05.73-.61 0-1.14-.13-1.58-.4-.45-.27-.79-.65-1.03-1.15s-.36-1.08-.36-1.75.12-1.27.36-1.78c.24-.52.58-.92 1.03-1.2.45-.28.97-.43 1.57-.43.4.02.78.08 1.11.2zM64.78 229.32c.18.18.27.4.27.67s-.09.48-.27.66-.41.26-.7.26c-.28 0-.51-.09-.69-.26-.18-.18-.27-.4-.27-.66a.92.92 0 01.96-.94c.28 0 .52.09.7.27zm.07 2.95v6.35h-1.54v-6.35h1.54zM30.43 243.6c.32.34.47.81.47 1.42v4.6h-1.54v-4.36c0-.38-.07-.64-.2-.79-.13-.15-.33-.23-.58-.23-.26 0-.5.08-.71.25s-.42.4-.62.71v4.42h-1.54v-6.35h1.33l.12.83c.52-.67 1.16-1.01 1.93-1.01.58 0 1.03.17 1.34.51zM37.86 246.91h-3.98c.05.62.21 1.06.48 1.32s.63.4 1.08.4c.28 0 .54-.05.79-.14s.51-.23.79-.43l.64.88c-.7.57-1.49.85-2.35.85-.97 0-1.71-.3-2.24-.89-.52-.59-.79-1.4-.79-2.42 0-.65.11-1.23.34-1.75.22-.52.55-.92.97-1.21.42-.29.93-.44 1.51-.44.89 0 1.58.28 2.06.85.49.56.73 1.35.73 2.36.01.08 0 .29-.03.62zm-1.48-1.06c0-1.11-.41-1.67-1.24-1.67-.38 0-.67.14-.88.41-.21.28-.34.72-.38 1.33h2.5v-.07zM43.05 243.18l-.26 1.49c-.19-.05-.38-.07-.56-.07-.38 0-.67.13-.89.4-.22.27-.39.68-.52 1.23v3.38h-1.54v-6.35h1.33l.14 1.25c.15-.46.37-.81.66-1.05.29-.24.62-.37 1-.37.23.01.45.04.64.09zM49.11 243.27l-2.06 6.35h-1.84l-2.1-6.35h1.67l1.36 5.11 1.39-5.11h1.58zM54.84 243.98c.52.6.79 1.41.79 2.45 0 .66-.12 1.25-.36 1.76s-.58.9-1.03 1.18c-.45.28-.98.42-1.6.42-.94 0-1.67-.3-2.2-.89-.53-.6-.79-1.42-.79-2.47 0-.66.12-1.25.36-1.75s.59-.9 1.04-1.18c.45-.28.99-.42 1.6-.42.93.01 1.66.3 2.19.9zm-3.57 2.45c0 .75.11 1.31.34 1.66.23.36.57.53 1.03.53s.8-.18 1.03-.54c.23-.36.34-.91.34-1.66s-.11-1.29-.34-1.65c-.23-.36-.57-.53-1.01-.53-.93.01-1.39.74-1.39 2.19zM62.16 243.27l-2.06 6.35h-1.84l-2.1-6.35h1.67l1.36 5.11 1.39-5.11h1.58zM68.28 246.91H64.3c.05.62.21 1.06.48 1.32s.63.4 1.08.4c.28 0 .54-.05.79-.14s.51-.23.79-.43l.64.88c-.7.57-1.49.85-2.35.85-.97 0-1.71-.3-2.24-.89-.52-.59-.79-1.4-.79-2.42 0-.65.11-1.23.34-1.75.22-.52.55-.92.97-1.21.42-.29.93-.44 1.51-.44.89 0 1.58.28 2.06.85.49.56.73 1.35.73 2.36.01.08 0 .29-.03.62zm-1.81-7.14l.62 1.2-2.71 1.08-.43-.78 2.52-1.5zm.33 6.08c0-1.11-.41-1.67-1.24-1.67-.38 0-.67.14-.88.41-.21.28-.34.72-.38 1.33h2.5v-.07zM29.98 254.84l-.6.9c-.54-.34-1.08-.52-1.6-.52-.3 0-.54.06-.71.17s-.25.27-.25.46c0 .14.04.26.11.36.07.1.2.19.39.27.19.08.47.18.83.28.69.18 1.2.43 1.53.73.33.3.5.73.5 1.27 0 .63-.26 1.13-.77 1.48-.51.36-1.15.53-1.91.53-.52 0-.99-.08-1.42-.24-.43-.16-.8-.38-1.11-.66l.77-.86c.55.42 1.13.62 1.73.62.34 0 .62-.07.82-.2s.31-.32.31-.56c0-.18-.04-.33-.11-.44-.08-.11-.21-.2-.41-.29-.2-.08-.5-.19-.92-.31-.65-.18-1.12-.42-1.43-.74-.3-.32-.46-.71-.46-1.18 0-.35.1-.67.31-.95s.49-.5.86-.66.8-.24 1.28-.24c.86.03 1.61.28 2.26.78zM36.21 254.98c.52.6.79 1.41.79 2.45 0 .66-.12 1.25-.36 1.76s-.58.9-1.03 1.18c-.45.28-.98.42-1.6.42-.94 0-1.67-.3-2.2-.89-.53-.6-.79-1.42-.79-2.47 0-.66.12-1.25.36-1.75s.59-.9 1.04-1.18c.45-.28.99-.42 1.6-.42.94.01 1.67.3 2.19.9zm-3.57 2.45c0 .75.11 1.31.34 1.66.23.36.57.53 1.03.53s.8-.18 1.03-.54c.23-.36.34-.91.34-1.66s-.11-1.29-.34-1.65c-.23-.36-.57-.53-1.01-.53-.93.01-1.39.74-1.39 2.19zM43.52 260.61h-1.33l-.08-.89c-.23.36-.51.63-.82.8-.32.18-.69.26-1.12.26-.57 0-1.01-.17-1.31-.52-.31-.35-.46-.83-.46-1.45v-4.56h1.54v4.37c0 .36.06.62.19.77s.32.23.59.23c.49 0 .92-.3 1.28-.9v-4.46h1.54v6.35zM49.62 254.84l-.6.9c-.54-.34-1.08-.52-1.6-.52-.3 0-.54.06-.71.17s-.25.27-.25.46c0 .14.04.26.11.36.07.1.2.19.39.27.19.08.47.18.83.28.69.18 1.2.43 1.53.73.33.3.5.73.5 1.27 0 .63-.26 1.13-.77 1.48-.51.36-1.15.53-1.91.53-.52 0-.99-.08-1.42-.24-.43-.16-.8-.38-1.11-.66l.77-.86c.55.42 1.13.62 1.73.62.34 0 .62-.07.82-.2s.31-.32.31-.56c0-.18-.04-.33-.11-.44-.08-.11-.21-.2-.41-.29-.2-.08-.5-.19-.92-.31-.65-.18-1.12-.42-1.43-.74-.3-.32-.46-.71-.46-1.18 0-.35.1-.67.31-.95s.49-.5.86-.66.8-.24 1.28-.24c.86.03 1.62.28 2.26.78zM54.71 260.31c-.22.16-.47.28-.75.36-.28.08-.56.12-.85.12-.62-.01-1.1-.19-1.42-.53-.32-.35-.49-.86-.49-1.54v-3.35h-1v-1.1h1v-1.4l1.54-.18v1.58h1.48l-.16 1.1h-1.32v3.31c0 .31.05.54.16.67.11.14.28.2.51.2.23 0 .48-.08.76-.23l.54.99zM60.38 259.48c.08.12.2.21.37.27l-.32 1.02c-.36-.03-.65-.12-.88-.26-.23-.14-.4-.36-.52-.66-.22.32-.49.56-.81.71-.32.16-.69.23-1.09.23-.63 0-1.13-.18-1.5-.54-.37-.36-.55-.83-.55-1.42 0-.69.25-1.21.75-1.58.5-.36 1.21-.55 2.14-.55h.79v-.36c0-.41-.09-.69-.28-.86-.19-.16-.49-.25-.91-.25-.46 0-1.02.11-1.68.34l-.36-1.04c.79-.3 1.56-.46 2.3-.46 1.62 0 2.44.73 2.44 2.18v2.66c0 .27.04.45.11.57zm-1.62-.58v-1.28h-.64c-.99 0-1.49.37-1.49 1.1 0 .3.08.54.23.71.15.17.38.25.67.25.52 0 .93-.26 1.23-.78zM67.23 254.27l-2.06 6.35h-1.84l-2.1-6.35h1.67l1.36 5.11 1.39-5.11h1.58zM71.25 260.64c-.26.78-.64 1.39-1.16 1.83-.52.44-1.23.69-2.14.76l-.16-1.12c.42-.06.75-.15 1-.27.25-.12.45-.27.61-.46.15-.19.29-.45.42-.77h-.53l-2.02-6.35h1.63l1.38 5.33 1.44-5.33h1.58l-2.05 6.38z"/></g><path class="st29" d="M62.38 150.16h40.68v1.48H62.38z"/><path opacity=".9" fill="#fff" d="M30.51 117.81h25.02v26.55H30.51z"/><g><path d="M83.43 108.25c.36.18.64.43.83.75.19.32.29.67.29 1.06 0 .42-.09.82-.27 1.2-.18.39-.48.81-.9 1.28-.42.47-1.03 1.09-1.84 1.86h3.17l-.15 1.11h-4.61v-1.03c.94-.95 1.61-1.66 2.02-2.12s.7-.85.87-1.18c.17-.33.26-.67.26-1.02 0-.34-.1-.6-.29-.79s-.45-.29-.78-.29c-.29 0-.54.06-.75.18-.22.12-.44.32-.68.6l-.86-.68c.62-.81 1.42-1.21 2.4-1.21.5.01.93.1 1.29.28zM90.27 108.97c.45.66.68 1.61.68 2.85 0 1.25-.23 2.2-.68 2.87-.45.66-1.11 1-1.97 1-.87 0-1.52-.33-1.97-1-.45-.66-.68-1.62-.68-2.87 0-1.24.23-2.19.68-2.85.45-.66 1.11-.99 1.97-.99.87 0 1.52.33 1.97.99zm-2.88.7c-.19.42-.29 1.14-.29 2.14 0 1.01.09 1.73.29 2.16.19.43.49.64.91.64.42 0 .72-.21.91-.63.19-.42.29-1.14.29-2.16 0-1.01-.09-1.73-.29-2.14-.19-.42-.49-.63-.91-.63-.42-.01-.72.2-.91.62zM96.58 108.97c.45.66.68 1.61.68 2.85 0 1.25-.23 2.2-.68 2.87-.45.66-1.11 1-1.97 1-.87 0-1.52-.33-1.97-1-.45-.66-.68-1.62-.68-2.87 0-1.24.23-2.19.68-2.85.45-.66 1.11-.99 1.97-.99.86 0 1.52.33 1.97.99zm-2.89.7c-.19.42-.29 1.14-.29 2.14 0 1.01.09 1.73.29 2.16.19.43.49.64.91.64.42 0 .72-.21.91-.63.19-.42.29-1.14.29-2.16 0-1.01-.09-1.73-.29-2.14-.19-.42-.49-.63-.91-.63-.42-.01-.72.2-.91.62zM102.31 108.11v.99l-2.74 6.56-1.29-.42 2.57-6.04h-3.12v-1.09h4.58zM22.41 119.93v.85l-3.75 5.84h3.75l-.12.89h-4.8v-.84l3.78-5.86h-3.39v-.88h4.53zM27.81 126.68c.08.11.2.2.36.26l-.23.7c-.3-.04-.54-.12-.73-.25-.18-.13-.32-.34-.41-.62-.39.58-.96.87-1.73.87-.57 0-1.02-.16-1.35-.48-.33-.32-.5-.75-.5-1.27 0-.62.22-1.09.67-1.42.44-.33 1.07-.5 1.89-.5h.89v-.43c0-.41-.1-.7-.3-.88-.2-.18-.5-.26-.91-.26-.42 0-.95.1-1.56.31l-.25-.74c.72-.26 1.39-.4 2-.4.68 0 1.19.17 1.53.5.34.33.51.81.51 1.42v2.65c0 .25.04.43.12.54zm-1.13-.7v-1.33h-.76c-1.07 0-1.61.4-1.61 1.19 0 .34.08.6.25.78.17.18.42.26.75.26.58 0 1.04-.3 1.37-.9zM33.86 121.71l-1.97 5.8h-1.22l-2-5.8h1.1l1.52 4.89 1.51-4.89h1.06zM39.33 124.96h-3.7c.04.64.21 1.11.48 1.41.28.3.64.45 1.08.45.28 0 .54-.04.77-.12.23-.08.48-.21.74-.38l.44.61c-.62.48-1.29.73-2.02.73-.81 0-1.44-.26-1.89-.79s-.68-1.25-.68-2.18c0-.6.1-1.13.29-1.6.19-.47.47-.83.84-1.09.36-.26.79-.4 1.28-.4.77 0 1.36.25 1.77.76.41.51.62 1.21.62 2.1 0 .15-.01.32-.02.5zm-.98-.82c0-.57-.11-1.01-.34-1.31s-.57-.45-1.02-.45c-.83 0-1.28.61-1.35 1.83h2.72v-.07zM45.46 119.38v8.13h-.89l-.1-.8c-.19.29-.43.52-.71.69s-.61.25-.96.25c-.69 0-1.23-.27-1.61-.81-.39-.54-.58-1.27-.58-2.19 0-.59.09-1.12.28-1.58s.45-.82.79-1.08c.34-.26.75-.39 1.21-.39.59 0 1.11.24 1.56.71v-3.04l1.01.11zm-1.65 7.24c.22-.14.43-.36.64-.64v-2.84c-.19-.25-.39-.44-.61-.57-.22-.13-.46-.19-.73-.19-.45 0-.79.19-1.04.56-.25.37-.37.93-.37 1.67 0 .75.11 1.3.34 1.67.23.37.55.55.98.55.3.01.57-.06.79-.21zM51.9 124.96h-3.7c.04.64.21 1.11.48 1.41.28.3.64.45 1.08.45.28 0 .54-.04.77-.12.23-.08.48-.21.74-.38l.44.61c-.62.48-1.29.73-2.02.73-.81 0-1.44-.26-1.89-.79s-.68-1.25-.68-2.18c0-.6.1-1.13.29-1.6.19-.47.47-.83.84-1.09.36-.26.79-.4 1.28-.4.77 0 1.36.25 1.77.76.41.51.62 1.21.62 2.1 0 .15 0 .32-.02.5zm-.98-.82c0-.57-.11-1.01-.34-1.31s-.57-.45-1.02-.45c-.83 0-1.28.61-1.35 1.83h2.72v-.07zM57.51 122.05c.3.32.45.75.45 1.3v4.16h-1.01v-4.01c0-.41-.08-.7-.23-.87s-.38-.25-.68-.25c-.31 0-.58.09-.81.26s-.45.43-.66.76v4.11h-1.01v-5.8h.87l.09.86c.21-.31.46-.55.76-.73.3-.18.64-.26 1.01-.26.51 0 .92.16 1.22.47zM61.36 118.7l.45.85-2.33.95-.31-.54 2.19-1.26zm-.36 3.01v5.8h-1.01v-5.8H61zM68.93 127.25c-.38.26-.81.4-1.3.4s-.87-.14-1.15-.42-.41-.69-.41-1.23v-3.5h-1.01v-.78h1.01v-1.31l1.01-.12v1.43h1.38l-.11.78h-1.26v3.45c0 .3.05.52.16.65s.28.2.53.2c.23 0 .48-.08.77-.23l.38.68zM73.92 126.68c.08.11.2.2.36.26l-.23.7c-.3-.04-.54-.12-.73-.25-.18-.13-.32-.34-.41-.62-.39.58-.96.87-1.73.87-.57 0-1.02-.16-1.35-.48-.33-.32-.5-.75-.5-1.27 0-.62.22-1.09.67-1.42.44-.33 1.07-.5 1.89-.5h.89v-.43c0-.41-.1-.7-.3-.88-.2-.18-.5-.26-.91-.26-.42 0-.95.1-1.56.31l-.25-.74c.72-.26 1.39-.4 2-.4.68 0 1.19.17 1.53.5.34.33.51.81.51 1.42v2.65c0 .25.04.43.12.54zm-1.13-.7v-1.33h-.76c-1.07 0-1.61.4-1.61 1.19 0 .34.08.6.25.78.17.18.42.26.75.26.59 0 1.04-.3 1.37-.9zM80.11 122.38c.39.53.58 1.27.58 2.23 0 .6-.09 1.13-.27 1.59-.18.46-.45.81-.79 1.07-.34.25-.75.38-1.21.38-.61 0-1.12-.26-1.54-.77l-.1.64h-.89v-8.13l1.01-.12v3.18c.42-.57.96-.86 1.64-.86.65-.01 1.18.26 1.57.79zm-.89 3.91c.25-.36.38-.93.38-1.69 0-.78-.12-1.35-.35-1.7-.24-.35-.57-.52-1-.52-.51 0-.96.3-1.35.9v2.77c.15.24.34.43.57.57s.46.21.71.21c.44.01.79-.17 1.04-.54zM86.73 127.51h-.87l-.08-.9c-.22.36-.47.62-.76.79s-.63.25-1.04.25c-.51 0-.9-.15-1.19-.46s-.43-.74-.43-1.31v-4.16h1.01v4.05c0 .4.07.68.21.84s.37.25.68.25c.57 0 1.05-.33 1.45-1v-4.14h1.01v5.79zM89.09 127.31c-.22-.22-.32-.54-.32-.94v-6.99l1.01-.12v7.08c0 .16.03.28.08.35.05.07.15.11.28.11.14 0 .26-.02.37-.07l.26.7c-.24.13-.51.2-.8.2-.37.01-.67-.1-.88-.32zM96.34 124.96h-3.7c.04.64.21 1.11.48 1.41.28.3.64.45 1.08.45.28 0 .54-.04.77-.12.23-.08.48-.21.74-.38l.44.61c-.62.48-1.29.73-2.02.73-.81 0-1.44-.26-1.89-.79s-.68-1.25-.68-2.18c0-.6.1-1.13.29-1.6.19-.47.47-.83.84-1.09.36-.26.79-.4 1.28-.4.77 0 1.36.25 1.77.76.41.51.62 1.21.62 2.1 0 .15 0 .32-.02.5zm-.98-.82c0-.57-.11-1.01-.34-1.31s-.57-.45-1.02-.45c-.83 0-1.28.61-1.35 1.83h2.72v-.07zM98.99 119.26v8.25h-1.01v-8.13l1.01-.12zm3.34 2.45l-2.13 2.56 2.38 3.23h-1.21l-2.3-3.17 2.13-2.63h1.13zM37.84 134.37c.34.53.52 1.27.52 2.23 0 .91-.2 1.64-.59 2.2-.4.56-.96.84-1.68.84-.65 0-1.15-.22-1.52-.66v2.75l-1.01.12v-8.14h.87l.08.78c.21-.29.47-.52.77-.68a2 2 0 01.95-.24c.73.01 1.27.28 1.61.8zm-.57 2.24c0-1.48-.44-2.22-1.31-2.22-.29 0-.55.08-.78.25s-.44.38-.62.65v2.83c.15.23.33.4.55.52.22.12.46.18.73.18.95 0 1.43-.74 1.43-2.21zM43.18 133.65l-.19.99c-.18-.04-.34-.07-.51-.07-.36 0-.65.13-.87.4-.22.26-.39.67-.52 1.23v3.31h-1.01v-5.8h.87l.1 1.18c.15-.43.36-.76.63-.98.26-.22.57-.33.92-.33.21 0 .4.02.58.07zM48.08 134.4c.45.54.68 1.28.68 2.21 0 .6-.1 1.13-.31 1.59-.21.46-.5.81-.89 1.07-.39.25-.85.38-1.39.38-.81 0-1.45-.27-1.9-.81-.45-.54-.68-1.28-.68-2.21 0-.6.1-1.13.31-1.59.21-.46.5-.81.89-1.07s.85-.38 1.4-.38c.81-.01 1.44.26 1.89.81zm-3.41 2.22c0 1.47.5 2.21 1.5 2.21s1.5-.74 1.5-2.22c0-1.47-.5-2.21-1.49-2.21-1 0-1.51.74-1.51 2.22zM57.31 134.05c.3.32.45.75.45 1.3v4.16h-1.01v-4.01c0-.41-.08-.7-.23-.87s-.38-.25-.68-.25c-.31 0-.58.09-.81.26s-.45.43-.66.76v4.11h-1.01v-5.8h.87l.09.86c.21-.31.46-.55.76-.73.3-.18.64-.26 1.01-.26.51 0 .92.16 1.22.47zM63.82 138.68c.08.11.2.2.36.26l-.23.7c-.3-.04-.54-.12-.73-.25-.18-.13-.32-.34-.41-.62-.39.58-.96.87-1.73.87-.57 0-1.02-.16-1.35-.48-.33-.32-.5-.75-.5-1.27 0-.62.22-1.09.67-1.42.44-.33 1.07-.5 1.89-.5h.89v-.43c0-.41-.1-.7-.3-.88-.2-.18-.5-.26-.91-.26-.42 0-.95.1-1.56.31l-.25-.74c.72-.26 1.39-.4 2-.4.68 0 1.19.17 1.53.5.34.33.51.81.51 1.42v2.65c-.01.25.03.43.12.54zm-1.34-7.98l.45.85-2.33.95-.31-.54 2.19-1.26zm.2 7.28v-1.33h-.76c-1.07 0-1.61.4-1.61 1.19 0 .34.08.6.25.78.17.18.42.26.75.26.59 0 1.04-.3 1.37-.9zM69.87 133.71l-1.97 5.8h-1.22l-2-5.8h1.1l1.52 4.89 1.51-4.89h1.06zM74.87 138.68c.08.11.2.2.36.26l-.23.7c-.3-.04-.54-.12-.73-.25-.18-.13-.32-.34-.41-.62-.39.58-.96.87-1.73.87-.57 0-1.02-.16-1.35-.48-.33-.32-.5-.75-.5-1.27 0-.62.22-1.09.67-1.42.44-.33 1.07-.5 1.89-.5h.89v-.43c0-.41-.1-.7-.3-.88-.2-.18-.5-.26-.91-.26-.42 0-.95.1-1.56.31l-.25-.74c.72-.26 1.39-.4 2-.4.68 0 1.19.17 1.53.5.34.33.51.81.51 1.42v2.65c0 .25.04.43.12.54zm-1.13-.7v-1.33h-.76c-1.07 0-1.61.4-1.61 1.19 0 .34.08.6.25.78.17.18.42.26.75.26.58 0 1.04-.3 1.37-.9zM80.23 133.71v.77l-3.03 4.18h3.06l-.12.85h-4.08v-.76l3.01-4.18h-2.76v-.86h3.92zM85.6 134.05c.3.32.45.75.45 1.3v4.16h-1.01v-4.01c0-.41-.08-.7-.23-.87s-.38-.25-.68-.25c-.31 0-.58.09-.81.26s-.45.43-.66.76v4.11h-1.01v-5.8h.87l.09.86c.21-.31.46-.55.76-.73.3-.18.64-.26 1.01-.26.51 0 .92.16 1.22.47zM92.16 134.4c.45.54.68 1.28.68 2.21 0 .6-.1 1.13-.31 1.59-.21.46-.5.81-.89 1.07-.39.25-.85.38-1.39.38-.81 0-1.45-.27-1.9-.81-.45-.54-.68-1.28-.68-2.21 0-.6.1-1.13.31-1.59.21-.46.5-.81.89-1.07s.85-.38 1.4-.38c.8-.01 1.44.26 1.89.81zm-3.41 2.22c0 1.47.5 2.21 1.5 2.21s1.5-.74 1.5-2.22c0-1.47-.5-2.21-1.49-2.21-1.01 0-1.51.74-1.51 2.22zM97.15 133.75c.32.11.62.27.9.5l-.43.64c-.26-.17-.52-.29-.75-.37s-.49-.12-.75-.12c-.33 0-.59.07-.78.2s-.29.32-.29.56c0 .24.09.42.27.55.18.13.5.26.97.39.65.16 1.13.38 1.45.66.32.28.48.66.48 1.14 0 .57-.22 1.01-.67 1.31-.44.3-.99.45-1.62.45-.88 0-1.61-.25-2.19-.76l.54-.62c.49.37 1.03.56 1.63.56.38 0 .68-.08.91-.24.22-.16.33-.37.33-.64 0-.2-.04-.36-.12-.48-.08-.12-.22-.23-.42-.32a5.8 5.8 0 00-.87-.29c-.62-.16-1.06-.38-1.34-.65s-.41-.62-.41-1.03c0-.3.09-.57.27-.82.18-.25.43-.44.75-.57.32-.14.68-.2 1.07-.2.39-.02.75.04 1.07.15zM102.57 139.25c-.38.26-.81.4-1.3.4s-.87-.14-1.15-.42-.41-.69-.41-1.23v-3.5H98.7v-.78h1.01v-1.31l1.01-.12v1.43h1.38l-.11.78h-1.26v3.45c0 .3.05.52.16.65s.28.2.53.2c.23 0 .48-.08.77-.23l.38.68zM79.59 145.75c.32.11.62.27.9.5l-.43.64c-.26-.17-.52-.29-.75-.37s-.49-.12-.75-.12c-.33 0-.59.07-.78.2s-.29.32-.29.56c0 .24.09.42.27.55.18.13.5.26.97.39.65.16 1.13.38 1.45.66.32.28.48.66.48 1.14 0 .57-.22 1.01-.67 1.31-.44.3-.99.45-1.62.45-.88 0-1.61-.25-2.19-.76l.54-.62c.49.37 1.03.56 1.63.56.38 0 .68-.08.91-.24.22-.16.33-.37.33-.64 0-.2-.04-.36-.12-.48-.08-.12-.22-.23-.42-.32a5.8 5.8 0 00-.87-.29c-.62-.16-1.06-.38-1.34-.65s-.41-.62-.41-1.03c0-.3.09-.57.27-.82.18-.25.43-.44.75-.57.32-.14.68-.2 1.07-.2.4-.02.75.04 1.07.15zM85.01 151.25c-.38.26-.81.4-1.3.4s-.87-.14-1.15-.42-.41-.69-.41-1.23v-3.5h-1.01v-.78h1.01v-1.31l1.01-.12v1.43h1.38l-.11.78h-1.26v3.45c0 .3.05.52.16.65s.28.2.53.2c.23 0 .48-.08.77-.23l.38.68zM90 150.68c.08.11.2.2.36.26l-.23.7c-.3-.04-.54-.12-.73-.25-.18-.13-.32-.34-.41-.62-.39.58-.96.87-1.73.87-.57 0-1.02-.16-1.35-.48-.33-.32-.5-.75-.5-1.27 0-.62.22-1.09.67-1.42.44-.33 1.07-.5 1.89-.5h.89v-.43c0-.41-.1-.7-.3-.88-.2-.18-.5-.26-.91-.26-.42 0-.95.1-1.56.31l-.25-.74c.72-.26 1.39-.4 2-.4.68 0 1.19.17 1.53.5.34.33.51.81.51 1.42v2.65c0 .25.04.43.12.54zm-1.13-.7v-1.33h-.76c-1.07 0-1.61.4-1.61 1.19 0 .34.08.6.25.78.17.18.42.26.75.26.59 0 1.04-.3 1.37-.9zM96.05 145.71l-1.97 5.8h-1.22l-2-5.8h1.1l1.52 4.89 1.51-4.89h1.06zM101.52 151.51h-.87l-.08-.9c-.22.36-.47.62-.76.79s-.63.25-1.04.25c-.51 0-.9-.15-1.19-.46s-.43-.74-.43-1.31v-4.16h1.01v4.05c0 .4.07.68.21.84s.37.25.68.25c.57 0 1.05-.33 1.45-1v-4.14h1.01v5.79zm-1.27-8.86c.23.22.35.5.35.83s-.12.61-.35.83-.54.33-.9.33c-.37 0-.67-.11-.9-.33-.24-.22-.35-.5-.35-.83s.12-.61.35-.83c.23-.22.54-.34.9-.34s.66.12.9.34zm-1.33.38c-.1.11-.15.26-.15.45s.05.34.15.45.25.17.43.17.32-.05.42-.17.16-.26.16-.45-.05-.34-.15-.45a.564.564 0 00-.43-.17c-.19 0-.33.06-.43.17z"/></g></g><g id="_x34_.5_x5F_mapa_x5F_des"><path class="st4" d="M6.6 64.26c.36.16.71.4 1.03.72l-.56.64c-.27-.24-.54-.42-.81-.53-.27-.12-.56-.17-.87-.17-.4 0-.72.11-.97.33-.24.22-.37.51-.37.87 0 .24.05.45.14.62.1.17.26.33.49.47.23.14.56.28.98.43.49.18.89.36 1.2.56.31.2.55.46.72.77.17.31.25.7.25 1.18s-.11.89-.32 1.27c-.21.35-.51.64-.92.85-.4.21-.88.32-1.42.32-1 0-1.85-.36-2.56-1.08l.59-.64c.3.26.6.47.91.61.31.14.65.21 1.03.21.47 0 .85-.13 1.13-.4.28-.27.43-.64.43-1.11 0-.41-.11-.73-.34-.97-.23-.24-.65-.46-1.25-.67-.78-.27-1.33-.59-1.67-.95s-.51-.83-.51-1.4c0-.41.1-.78.31-1.11.2-.33.49-.59.86-.77.37-.18.78-.28 1.25-.28.46-.01.89.07 1.25.23zM12.26 72.16c-.4.29-.84.43-1.33.43-.51 0-.91-.15-1.18-.44s-.41-.71-.41-1.25v-3.96h-.9v-.82h.9v-1.45l1.08-.13v1.58h1.39l-.12.82h-1.27v3.95c0 .54.23.82.68.82.14 0 .26-.02.38-.06.12-.04.25-.1.39-.18l.39.69zM17.24 71.56c.07.12.18.22.34.28l-.23.73c-.31-.05-.56-.14-.73-.29-.18-.14-.3-.36-.37-.66-.41.64-.98.96-1.72.96-.56 0-1-.17-1.33-.52-.33-.35-.49-.81-.49-1.4 0-.67.22-1.18.66-1.54.44-.35 1.07-.53 1.88-.53h.82v-.54c0-.44-.09-.76-.27-.95-.18-.2-.47-.29-.88-.29-.44 0-.95.11-1.54.34l-.26-.76c.7-.29 1.36-.43 1.97-.43 1.37 0 2.05.68 2.05 2.05v2.98c-.01.26.03.45.1.57zm-1.17-.77V69.3h-.7c-1.04 0-1.56.44-1.56 1.31 0 .38.08.67.25.86.17.2.41.3.72.3.56 0 .99-.32 1.29-.98zM23.08 66.46c.28.33.43.79.43 1.37v4.6h-1.08v-4.46c0-.41-.07-.7-.2-.88-.14-.18-.34-.27-.62-.27-.53 0-1.01.38-1.44 1.13v4.49h-1.08v-6.31h.94l.08.94c.49-.73 1.09-1.09 1.8-1.09.49-.01.88.15 1.17.48zM29.89 63.57v8.87h-.96l-.07-.83c-.41.66-.96.98-1.64.98s-1.22-.29-1.6-.88c-.38-.58-.57-1.39-.57-2.41 0-.66.09-1.25.28-1.75.19-.5.45-.89.8-1.17s.74-.41 1.19-.41c.6 0 1.1.25 1.5.76v-3.28l1.07.12zm-1.68 7.93c.21-.16.41-.4.59-.71v-3.17c-.36-.54-.78-.8-1.26-.8-.42 0-.76.2-1.01.61s-.37 1.02-.36 1.85c0 .84.11 1.46.34 1.86.22.4.54.6.95.6.29 0 .54-.08.75-.24zM35.88 71.56c.07.12.18.22.34.28l-.23.73c-.31-.05-.56-.14-.73-.29-.18-.14-.3-.36-.37-.66-.41.64-.98.96-1.72.96-.56 0-1-.17-1.33-.52-.33-.35-.49-.81-.49-1.4 0-.67.22-1.18.66-1.54.44-.35 1.07-.53 1.88-.53h.82v-.54c0-.44-.09-.76-.27-.95-.18-.2-.47-.29-.88-.29-.44 0-.95.11-1.54.34l-.26-.76c.7-.29 1.36-.43 1.97-.43 1.37 0 2.05.68 2.05 2.05v2.98c-.01.26.02.45.1.57zm-1.18-.77V69.3H34c-1.04 0-1.56.44-1.56 1.31 0 .38.08.67.25.86.17.2.41.3.72.3.57 0 .99-.32 1.29-.98zM40.84 66.05l-.18 1.04a1.57 1.57 0 00-.49-.07c-.35 0-.64.14-.86.42-.22.28-.39.71-.52 1.28v3.71h-1.08v-6.31h.94l.08 1.25c.31-.93.84-1.39 1.57-1.39.21 0 .39.02.54.07zM46.39 63.57v8.87h-.96l-.07-.83c-.41.66-.96.98-1.64.98-.69 0-1.22-.29-1.6-.88s-.57-1.39-.57-2.41c0-.66.09-1.25.28-1.75.19-.5.45-.89.8-1.17.34-.28.74-.41 1.19-.41.6 0 1.1.25 1.5.76v-3.28l1.07.12zm-1.68 7.93c.21-.16.41-.4.59-.71v-3.17c-.36-.54-.78-.8-1.26-.8-.42 0-.76.2-1.01.61s-.37 1.02-.36 1.85c0 .84.11 1.46.34 1.86.22.4.54.6.95.6.29 0 .54-.08.75-.24zM49.38 63.35c.13.14.2.3.2.5s-.06.37-.19.5-.3.2-.52.2c-.21 0-.38-.07-.51-.2s-.2-.3-.2-.5.07-.37.2-.5c.13-.14.3-.2.51-.2.21 0 .38.06.51.2zm.03 2.77v6.31h-1.08v-6.31h1.08zM54.8 66.12v.8l-2.99 4.62h3l-.11.89h-4.08v-.8l2.99-4.62h-2.74v-.89h3.93zM60.18 66.82c.45.57.67 1.38.67 2.45 0 1.02-.23 1.83-.68 2.43-.46.6-1.08.89-1.88.89-.81 0-1.44-.29-1.89-.88-.45-.58-.68-1.4-.68-2.44 0-1.05.23-1.86.68-2.44s1.09-.87 1.9-.87c.8.01 1.43.29 1.88.86zm-2.97.6c-.25.4-.37 1.01-.37 1.85 0 1.64.48 2.46 1.44 2.46s1.44-.82 1.44-2.47c0-.84-.12-1.46-.36-1.85-.24-.39-.6-.59-1.07-.59-.47.01-.83.21-1.08.6zM66.67 66.12l-1.88 6.31h-1.3l-1.94-6.31h1.13l1.46 5.4 1.45-5.4h1.08zM71.79 71.56c.07.12.18.22.34.28l-.23.73c-.31-.05-.56-.14-.73-.29-.18-.14-.3-.36-.37-.66-.41.64-.98.96-1.72.96-.56 0-1-.17-1.33-.52-.33-.35-.49-.81-.49-1.4 0-.67.22-1.18.66-1.54.44-.35 1.07-.53 1.88-.53h.82v-.54c0-.44-.09-.76-.27-.95-.18-.2-.47-.29-.88-.29-.44 0-.95.11-1.54.34l-.26-.76c.7-.29 1.36-.43 1.97-.43 1.37 0 2.05.68 2.05 2.05v2.98c-.01.26.03.45.1.57zm-1.17-.77V69.3h-.7c-1.04 0-1.56.44-1.56 1.31 0 .38.08.67.25.86.17.2.41.3.72.3.56 0 .99-.32 1.29-.98zM77.63 66.46c.28.33.43.79.43 1.37v4.6h-1.08v-4.46c0-.41-.07-.7-.21-.88-.14-.18-.34-.27-.62-.27-.53 0-1.01.38-1.44 1.13v4.49h-1.08v-6.31h.94l.08.94c.49-.73 1.09-1.09 1.8-1.09.5-.01.9.15 1.18.48zM84 71.56c.07.12.18.22.34.28l-.23.73c-.31-.05-.56-.14-.73-.29-.18-.14-.3-.36-.37-.66-.41.64-.98.96-1.72.96-.56 0-1-.17-1.33-.52-.33-.35-.49-.81-.49-1.4 0-.67.22-1.18.66-1.54.44-.35 1.07-.53 1.88-.53h.82v-.54c0-.44-.09-.76-.27-.95-.18-.2-.47-.29-.88-.29-.44 0-.95.11-1.54.34l-.26-.76c.7-.29 1.36-.43 1.97-.43 1.37 0 2.05.68 2.05 2.05v2.98c-.01.26.02.45.1.57zm-1.38-8.69l.46.86-2.3 1.04-.31-.55 2.15-1.35zm.2 7.92V69.3h-.7c-1.04 0-1.56.44-1.56 1.31 0 .38.08.67.25.86.17.2.41.3.72.3.57 0 .99-.32 1.29-.98zM10.25 77.48c.27.34.41.79.41 1.36v4.6H9.58v-4.48c0-.77-.25-1.15-.74-1.15-.48 0-.92.37-1.32 1.1v4.52H6.45v-4.48c0-.77-.25-1.15-.74-1.15s-.93.37-1.32 1.1v4.52H3.32v-6.31h.94l.08.92c.46-.72 1.02-1.08 1.68-1.08.34 0 .64.1.88.3.24.2.41.48.52.85.49-.77 1.07-1.15 1.74-1.15.45.02.81.19 1.09.53zM13.88 73.87l.46.86-2.3 1.04-.31-.55 2.15-1.35zm-.25 3.25v6.31h-1.08v-6.31h1.08zM18.71 77.05l-.18 1.04a1.57 1.57 0 00-.49-.07c-.35 0-.64.14-.86.42-.22.28-.39.71-.52 1.28v3.71h-1.08v-6.31h.94l.08 1.25c.31-.93.84-1.39 1.57-1.39.2 0 .38.02.54.07zM23.8 82.56c.07.12.18.22.34.28l-.23.73c-.31-.05-.56-.14-.73-.29-.18-.14-.3-.36-.37-.66-.41.64-.98.96-1.72.96-.56 0-1-.17-1.33-.52-.33-.35-.49-.81-.49-1.4 0-.67.22-1.18.66-1.54.44-.35 1.07-.53 1.88-.53h.82v-.54c0-.44-.09-.76-.27-.95-.18-.2-.47-.29-.88-.29-.44 0-.95.11-1.54.34l-.26-.76c.7-.29 1.36-.43 1.97-.43 1.37 0 2.05.68 2.05 2.05v2.98c0 .26.03.45.1.57zm-1.17-.77V80.3h-.7c-1.04 0-1.56.44-1.56 1.31 0 .38.08.67.25.86.17.2.41.3.72.3.57 0 .99-.32 1.29-.98zM32.79 83.43h-.94l-.06-.95c-.44.74-1.03 1.1-1.76 1.1-.5 0-.9-.16-1.19-.49s-.43-.77-.43-1.33v-4.64h1.08v4.55c0 .37.07.64.21.81.14.17.35.26.63.26.54 0 1-.35 1.38-1.06v-4.56h1.08v6.31zm-1.39-9.56l.46.86-2.3 1.04-.31-.55 2.15-1.35zM41.66 77.48c.27.34.41.79.41 1.36v4.6H41v-4.48c0-.77-.25-1.15-.74-1.15-.48 0-.92.37-1.32 1.1v4.52h-1.07v-4.48c0-.77-.25-1.15-.74-1.15s-.93.37-1.32 1.1v4.52h-1.07v-6.31h.94l.08.92c.46-.72 1.02-1.08 1.68-1.08.34 0 .64.1.88.3.24.2.41.48.52.85.49-.77 1.07-1.15 1.74-1.15.44.02.81.19 1.08.53zM47.1 77.05l-.18 1.04a1.57 1.57 0 00-.49-.07c-.35 0-.64.14-.86.42-.22.28-.39.71-.52 1.28v3.71h-1.08v-6.31h.94l.08 1.25c.31-.93.84-1.39 1.57-1.39.2 0 .38.02.54.07zM51.14 83.16c-.4.29-.84.43-1.33.43-.51 0-.91-.15-1.18-.44-.28-.3-.41-.71-.41-1.25v-3.96h-.9v-.82h.9v-1.45l1.08-.13v1.58h1.39l-.12.82H49.3v3.95c0 .54.23.82.68.82.14 0 .26-.02.38-.06s.25-.1.39-.18l.39.69zM56.08 77.46c.28.33.43.79.43 1.37v4.6h-1.08v-4.46c0-.41-.07-.7-.2-.88-.14-.18-.34-.27-.62-.27-.53 0-1.01.38-1.44 1.13v4.49h-1.08v-6.31h.94l.08.94c.49-.73 1.09-1.09 1.8-1.09.49-.01.88.15 1.17.48zM62.48 77.82c.45.57.67 1.38.67 2.45 0 1.02-.23 1.83-.68 2.43-.46.6-1.08.89-1.88.89-.81 0-1.44-.29-1.89-.88s-.68-1.4-.68-2.44c0-1.05.23-1.86.68-2.44s1.09-.87 1.9-.87c.8.01 1.43.29 1.88.86zm-2.96.6c-.25.4-.37 1.01-.37 1.85 0 1.64.48 2.46 1.44 2.46s1.44-.82 1.44-2.47c0-.84-.12-1.46-.36-1.85-.24-.39-.6-.59-1.07-.59-.48.01-.84.21-1.08.6zM68.29 77.69l-.46.64c-.26-.18-.5-.31-.72-.4s-.46-.13-.71-.13c-.33 0-.59.08-.77.23-.19.16-.28.37-.28.64 0 .26.09.47.27.62.18.15.52.31 1.03.47.63.2 1.09.44 1.38.73s.43.68.43 1.19c0 .59-.22 1.06-.65 1.4-.43.34-.97.51-1.62.51-.86 0-1.58-.28-2.17-.85l.55-.6c.5.41 1.04.61 1.6.61.35 0 .64-.09.85-.26.22-.18.32-.42.32-.73 0-.22-.04-.4-.11-.54s-.21-.26-.41-.37c-.2-.11-.48-.22-.86-.34-.6-.2-1.03-.44-1.3-.72s-.4-.64-.4-1.07c0-.34.09-.64.26-.9.18-.26.42-.47.73-.62.31-.15.67-.23 1.08-.23.74 0 1.39.24 1.96.72zM72.82 83.16c-.4.29-.84.43-1.33.43-.51 0-.91-.15-1.18-.44-.28-.3-.41-.71-.41-1.25v-3.96H69v-.82h.9v-1.45l1.08-.13v1.58h1.39l-.12.82h-1.27v3.95c0 .54.23.82.68.82.14 0 .26-.02.38-.06s.25-.1.39-.18l.39.69zM74.81 74.35c.13.14.2.3.2.5s-.06.37-.19.5a.7.7 0 01-.52.2c-.21 0-.38-.07-.51-.2s-.2-.3-.2-.5.07-.37.2-.5c.13-.14.3-.2.51-.2s.38.06.51.2zm.03 2.77v6.31h-1.08v-6.31h1.08zM81.75 73.76c-.38.61-.68 1.16-.9 1.64-.22.49-.4 1.04-.52 1.66-.12.62-.19 1.34-.19 2.17 0 .82.06 1.54.19 2.16.12.62.3 1.17.52 1.66.22.49.52 1.04.9 1.65l-.7.46c-.44-.66-.8-1.25-1.07-1.77s-.5-1.12-.67-1.81c-.18-.69-.26-1.47-.26-2.35 0-.88.09-1.66.26-2.35.18-.69.4-1.29.67-1.81s.63-1.11 1.07-1.77l.7.46zM85.79 75.56c.33.19.59.44.76.77.18.32.26.69.26 1.1 0 .49-.09.95-.28 1.39-.19.44-.49.92-.91 1.46s-1.06 1.3-1.92 2.28H87l-.13.89h-4.34v-.84c.93-1.07 1.61-1.88 2.03-2.44.43-.55.73-1.03.89-1.42.17-.4.25-.81.25-1.25 0-.42-.11-.75-.32-.98-.21-.23-.5-.35-.86-.35-.3 0-.57.07-.79.2-.22.14-.46.35-.7.65l-.67-.52c.58-.81 1.33-1.21 2.24-1.21.46-.02.86.08 1.19.27zM92.43 76.32c.42.7.62 1.73.62 3.11 0 1.39-.21 2.43-.62 3.13-.42.69-1.03 1.04-1.84 1.04-.82 0-1.43-.35-1.85-1.04s-.62-1.74-.62-3.12c0-2.77.82-4.15 2.47-4.15.81-.02 1.43.33 1.84 1.03zm-2.86.56c-.22.51-.33 1.36-.33 2.55 0 1.2.11 2.05.33 2.56.22.5.56.76 1.03.76.46 0 .79-.25 1.01-.76.22-.5.33-1.36.33-2.56s-.11-2.05-.32-2.56-.56-.76-1.02-.76-.81.26-1.03.77zM97.24 75.41v8.03h-1.07v-6.9l-1.67 1.13-.49-.72 2.28-1.54h.95zM103.54 80.04c.26.34.38.77.38 1.27 0 .45-.1.84-.31 1.19-.21.34-.51.61-.89.8s-.84.29-1.35.29c-.5 0-.95-.09-1.33-.28-.38-.19-.67-.45-.88-.8s-.31-.74-.31-1.18c0-.99.51-1.7 1.52-2.14-.43-.23-.74-.5-.94-.79-.19-.3-.29-.65-.29-1.07 0-.43.1-.8.3-1.12.2-.31.47-.55.81-.71s.71-.24 1.12-.24c.64 0 1.17.18 1.6.53.43.35.64.85.64 1.49 0 .41-.1.76-.31 1.06-.21.3-.54.56-1 .8.58.26.99.55 1.24.9zm-1.08 2.34c.26-.24.38-.6.38-1.07 0-.42-.11-.75-.32-.99-.21-.24-.59-.47-1.13-.69l-.34-.13c-.38.2-.67.44-.85.73-.18.29-.27.65-.27 1.08 0 .48.13.84.38 1.08.26.24.61.36 1.07.36s.83-.12 1.08-.37zm-1.93-6c-.22.21-.32.53-.32.97 0 .36.09.64.27.85.18.2.49.39.92.57l.28.12c.34-.22.57-.45.71-.69.14-.24.21-.52.21-.86 0-.42-.1-.74-.31-.95-.21-.21-.5-.32-.88-.32-.37 0-.66.1-.88.31zM106.59 75.09c.27.51.49 1.11.67 1.79.18.68.26 1.47.26 2.35 0 .88-.09 1.66-.26 2.35-.18.68-.4 1.28-.67 1.79s-.63 1.11-1.07 1.79l-.7-.46c.38-.61.67-1.16.89-1.65s.39-1.05.52-1.67.19-1.34.19-2.15c0-.82-.06-1.53-.19-2.15s-.3-1.18-.52-1.67-.52-1.04-.89-1.65l.7-.46c.44.69.8 1.28 1.07 1.79z"/></g></svg>