<svg fill="none" height="64" viewBox="0 0 124 64" width="124" xmlns="http://www.w3.org/2000/svg"><g fill="#000"><path d="m100.101 17.2059-.4721.5826zm17.404 36.5105h.75zm-.53 7.1261c.293.2929.768.2929 1.061 0l4.773-4.7731c.293-.2929.293-.7678 0-1.0607-.293-.2928-.768-.2928-1.061.0001l-4.242 4.2427-4.243-4.2425c-.293-.2929-.768-.2929-1.061 0s-.293.7678 0 1.0606zm-18.4475-43.9468 1.1014.8928.9441-1.1652-1.1009-.8928zm18.2275 36.8207.001 6.5958 1.5-.0001-.001-6.5957zm-17.1261-35.9279c10.8331 8.7815 17.1261 21.9824 17.1261 35.9279h1.5c0-14.3979-6.497-28.0269-17.682-37.0931z"/><path d="m4.152 2.588c.696 0 1.304.168 1.824.504.528.328.936.812 1.224 1.452.296.64.444 1.416.444 2.328 0 .896-.148 1.664-.444 2.304-.288.64-.696 1.128-1.224 1.464-.52.336-1.128.504-1.824.504s-1.308-.164-1.836-.492c-.52-.328-.928-.812-1.224-1.452-.288-.64-.432-1.412-.432-2.316 0-.888.144-1.656.432-2.304.296-.648.708-1.14 1.236-1.476.528-.344 1.136-.516 1.824-.516zm0 .936c-.72 0-1.28.272-1.68.816s-.6 1.392-.6 2.544c0 1.144.2 1.984.6 2.52.408.536.968.804 1.68.804 1.52 0 2.28-1.112 2.28-3.336 0-2.232-.76-3.348-2.28-3.348zm7.0126 1.008c.432 0 .82.06 1.164.18s.672.3.984.54l-.468.696c-.288-.184-.564-.32-.828-.408-.256-.088-.528-.132-.816-.132-.36 0-.644.076-.852.228-.208.144-.312.344-.312.6s.096.456.288.6c.2.144.556.284 1.068.42.704.176 1.228.416 1.572.72.352.304.528.72.528 1.248 0 .624-.244 1.1-.732 1.428-.48.328-1.068.492-1.764.492-.96 0-1.75601-.276-2.38801-.828l.588-.672c.536.408 1.12801.612 1.77601.612.416 0 .744-.084.984-.252.248-.176.372-.412.372-.708 0-.216-.044-.388-.132-.516-.088-.136-.24-.252-.456-.348-.216-.104-.532-.212-.948-.324-.672-.176-1.16001-.412-1.46401-.708-.296-.296-.444-.672-.444-1.128 0-.328.096-.624.288-.888.2-.272.472-.48.816-.624.35201-.152.74401-.228 1.17601-.228zm8.3303.144-2.148 6.324h-1.332l-2.184-6.324h1.2l1.656 5.34 1.644-5.34zm3.5914-.144c.888 0 1.576.296 2.064.888.496.592.744 1.396.744 2.412 0 .656-.112 1.236-.336 1.74-.224.496-.548.884-.972 1.164-.424.272-.928.408-1.512.408-.888 0-1.58-.296-2.076-.888s-.744-1.396-.744-2.412c0-.656.112-1.232.336-1.728.224-.504.548-.892.972-1.164.424-.28.932-.42 1.524-.42zm0 .888c-1.096 0-1.644.808-1.644 2.424 0 1.608.544 2.412 1.632 2.412s1.632-.808 1.632-2.424c0-1.608-.54-2.412-1.62-2.412zm7.5238-.888c.72 0 1.292.292 1.716.876.424.576.636 1.384.636 2.424 0 .656-.1 1.236-.3 1.74-.2.496-.488.884-.864 1.164-.376.272-.816.408-1.32.408-.664 0-1.224-.28-1.68-.84l-.108.696h-.972v-8.868l1.104-.132v3.468c.456-.624 1.052-.936 1.788-.936zm-.396 5.736c.488 0 .868-.196 1.14-.588.28-.4.42-1.016.42-1.848 0-.856-.128-1.472-.384-1.848-.256-.384-.62-.576-1.092-.576-.56 0-1.052.328-1.476.984v3.024c.168.264.372.472.612.624.248.152.508.228.78.228zm7.005-5.736c.888 0 1.576.296 2.064.888.496.592.744 1.396.744 2.412 0 .656-.112 1.236-.336 1.74-.224.496-.548.884-.972 1.164-.424.272-.928.408-1.512.408-.888 0-1.58-.296-2.076-.888s-.744-1.396-.744-2.412c0-.656.112-1.232.336-1.728.224-.504.548-.892.972-1.164.424-.28.932-.42 1.524-.42zm0 .888c-1.096 0-1.644.808-1.644 2.424 0 1.608.544 2.412 1.632 2.412s1.632-.808 1.632-2.424c0-1.608-.54-2.412-1.62-2.412zm8.2578-.744v.84l-3.3 4.56h3.336l-.132.924h-4.452v-.828l3.288-4.56h-3.012v-.936zm3.8243-.144c.888 0 1.576.296 2.064.888.496.592.744 1.396.744 2.412 0 .656-.112 1.236-.336 1.74-.224.496-.548.884-.972 1.164-.424.272-.928.408-1.512.408-.888 0-1.58-.296-2.076-.888s-.744-1.396-.744-2.412c0-.656.112-1.232.336-1.728.224-.504.548-.892.972-1.164.424-.28.932-.42 1.524-.42zm0 .888c-1.096 0-1.644.808-1.644 2.424 0 1.608.544 2.412 1.632 2.412s1.632-.808 1.632-2.424c0-1.608-.54-2.412-1.62-2.412zm9.2289-.744-2.148 6.324h-1.332l-2.184-6.324h1.2l1.656 5.34 1.644-5.34zm5.3347 4.848c0 .256.044.448.132.576.088.12.22.212.396.276l-.252.768c-.328-.04-.592-.132-.792-.276s-.348-.368-.444-.672c-.424.632-1.052.948-1.884.948-.624 0-1.116-.176-1.476-.528s-.54-.812-.54-1.38c0-.672.24-1.188.72-1.548.488-.36 1.176-.54 2.064-.54h.972v-.468c0-.448-.108-.768-.324-.96s-.548-.288-.996-.288c-.464 0-1.032.112-1.704.336l-.276-.804c.784-.288 1.512-.432 2.184-.432.744 0 1.3.184 1.668.552.368.36.552.876.552 1.548zm-2.592.792c.632 0 1.128-.328 1.488-.984v-1.452h-.828c-1.168 0-1.752.432-1.752 1.296 0 .376.092.66.276.852s.456.288.816.288zm7.1634-5.784c.376 0 .72.056 1.032.168.312.104.612.276.9.516l-.528.696c-.224-.16-.444-.276-.66-.348-.208-.08-.44-.12-.696-.12-.512 0-.912.204-1.2.612-.28.408-.42 1.012-.42 1.812s.14 1.392.42 1.776c.28.376.68.564 1.2.564.248 0 .476-.036.684-.108.208-.08.44-.204.696-.372l.504.72c-.576.464-1.22.696-1.932.696-.856 0-1.532-.288-2.028-.864-.488-.576-.732-1.372-.732-2.388 0-.672.112-1.26.336-1.764s.54-.896.948-1.176c.416-.28.908-.42 1.476-.42zm4.5305.144v6.324h-1.104v-6.324zm.396-3.288.492.924-2.544 1.032-.336-.588zm7.9545 3.144c.72 0 1.292.292 1.716.876.424.576.636 1.384.636 2.424 0 .656-.1 1.236-.3 1.74-.2.496-.488.884-.864 1.164-.376.272-.816.408-1.32.408-.664 0-1.224-.28-1.68-.84l-.108.696h-.972v-8.868l1.104-.132v3.468c.456-.624 1.052-.936 1.788-.936zm-.396 5.736c.488 0 .868-.196 1.14-.588.28-.4.42-1.016.42-1.848 0-.856-.128-1.472-.384-1.848-.256-.384-.62-.576-1.092-.576-.56 0-1.052.328-1.476.984v3.024c.168.264.372.472.612.624.248.152.508.228.78.228zm7.005-5.736c.888 0 1.576.296 2.064.888.496.592.744 1.396.744 2.412 0 .656-.112 1.236-.336 1.74-.224.496-.548.884-.972 1.164-.424.272-.928.408-1.512.408-.888 0-1.58-.296-2.076-.888s-.744-1.396-.744-2.412c0-.656.112-1.232.336-1.728.224-.504.548-.892.972-1.164.424-.28.932-.42 1.524-.42zm0 .888c-1.096 0-1.644.808-1.644 2.424 0 1.608.544 2.412 1.632 2.412s1.632-.808 1.632-2.424c0-1.608-.54-2.412-1.62-2.412zm5.7118 5.196c0 .584-.072 1.052-.216 1.404s-.356.636-.636.852c-.272.224-.656.448-1.152.672l-.324-.804c.312-.144.552-.288.72-.432.168-.136.292-.332.372-.588.088-.248.132-.592.132-1.032v-6.012h1.104zm-.552-8.976c.232 0 .42.072.564.216s.216.324.216.54-.072.396-.216.54c-.144.136-.332.204-.564.204-.224 0-.408-.068-.552-.204-.144-.144-.216-.324-.216-.54s.072-.396.216-.54.328-.216.552-.216zm7.611 6.012c0 .184-.008.372-.024.564h-4.0317c.048.696.224 1.208.528 1.536s.696.492 1.176.492c.304 0 .584-.044.84-.132s.524-.228.804-.42l.4797.66c-.6717.528-1.4077.792-2.2077.792-.88 0-1.568-.288-2.064-.864-.488-.576-.732-1.368-.732-2.376 0-.656.104-1.236.312-1.74.216-.512.52-.912.912-1.2.4-.288.868-.432 1.404-.432.84 0 1.484.276 1.9317.828.448.552.672 1.316.672 2.292zm-1.0917-.324c0-.624-.124-1.1-.372-1.428s-.62-.492-1.116-.492c-.904 0-1.396.664-1.476 1.992h2.964z"/></g></svg>
