<svg fill="none" height="63" viewBox="0 0 93 63" width="93" xmlns="http://www.w3.org/2000/svg"><g fill="#000"><path d="m69.1022 16.8927-.4723.5826zm17.4042 36.5104h.75zm-.5301 7.1262c.2929.2929.7677.2928 1.0606 0l4.7729-4.7731c.2929-.2929.2929-.7678 0-1.0607s-.7678-.2929-1.0607 0l-4.2425 4.2428-4.2428-4.2426c-.2929-.2929-.7678-.2929-1.0606 0-.2929.2929-.2929.7678 0 1.0607zm-18.4478-43.9468 1.1014.8928.9446-1.1653-1.1014-.8928zm18.2279 36.8207.0002 6.5957h1.5l-.0002-6.5958zm-17.1265-35.9279c10.8335 8.7814 17.1262 21.9823 17.1265 35.9279l1.5-.0001c-.0003-14.3978-6.4971-28.0268-17.6819-37.0931z"/><path d="m5.82 11v-3.876h-3.48v3.876h-1.14v-8.268h1.14v3.456h3.48v-3.456h1.14v8.268zm8.2523-3.348c0 .184-.008.372-.024.564h-4.032c.048.696.224 1.208.528 1.536s.696.492 1.176.492c.304 0 .584-.044.84-.132s.524-.228.804-.42l.48.66c-.672.528-1.408.792-2.208.792-.88 0-1.568-.288-2.06405-.864-.488-.576-.732-1.368-.732-2.376 0-.656.104-1.236.312-1.74.216-.512.52-.912.91205-1.2.4-.288.868-.432 1.404-.432.84 0 1.484.276 1.932.828s.672 1.316.672 2.292zm-1.092-.324c0-.624-.124-1.1-.372-1.428s-.62-.492-1.116-.492c-.904 0-1.396.664-1.476 1.992h2.964zm5.3401 3.708c-.248.736-.596 1.316-1.044 1.74-.44.432-1.072.692-1.896.78l-.12-.864c.416-.072.748-.176.996-.312s.444-.312.588-.528c.152-.208.292-.492.42-.852h-.372l-2.124-6.324h1.176l1.692 5.52 1.656-5.52h1.14zm8.2234-8.904v8.868h-.972l-.108-.876c-.208.32-.468.572-.78.756-.312.176-.66.264-1.044.264-.752 0-1.34-.296-1.764-.888-.416-.592-.624-1.388-.624-2.388 0-.648.1-1.224.3-1.728s.488-.896.864-1.176c.376-.288.816-.432 1.32-.432.648 0 1.216.26 1.704.78v-3.312zm-2.664 8.136c.336 0 .624-.076.864-.228.24-.16.472-.396.696-.708v-3.096c-.208-.272-.432-.476-.672-.612-.232-.144-.496-.216-.792-.216-.488 0-.868.204-1.14.612-.264.408-.396 1.016-.396 1.824 0 .816.124 1.424.372 1.824s.604.6 1.068.6zm7.6879-5.736c.224 0 .432.024.624.072l-.204 1.08c-.192-.048-.376-.072-.552-.072-.392 0-.708.144-.948.432s-.428.736-.564 1.344v3.612h-1.104v-6.324h.948l.108 1.284c.168-.472.396-.828.684-1.068s.624-.36 1.008-.36zm2.9849.144v6.324h-1.104v-6.324zm-.564-3.036c.232 0 .42.072.564.216s.216.324.216.54-.072.396-.216.54c-.144.136-.332.204-.564.204-.224 0-.408-.068-.552-.204-.144-.144-.216-.324-.216-.54s.072-.396.216-.54.328-.216.552-.216zm5.1507 2.892c.376 0 .72.056 1.032.168.312.104.612.276.9.516l-.528.696c-.224-.16-.444-.276-.66-.348-.208-.08-.44-.12-.696-.12-.512 0-.912.204-1.2.612-.28.408-.42 1.012-.42 1.812s.14 1.392.42 1.776c.28.376.68.564 1.2.564.248 0 .476-.036.684-.108.208-.08.44-.204.696-.372l.504.72c-.576.464-1.22.696-1.932.696-.856 0-1.532-.288-2.028-.864-.488-.576-.732-1.372-.732-2.388 0-.672.112-1.26.336-1.764s.54-.896.948-1.176c.416-.28.908-.42 1.476-.42zm6.4025 0c.576 0 1.024.172 1.344.516.328.344.492.816.492 1.416v4.536h-1.104v-4.38c0-.448-.088-.764-.264-.948-.168-.184-.416-.276-.744-.276s-.62.096-.876.288-.496.464-.72.816v4.5h-1.104v-8.856l1.104-.12v3.528c.496-.68 1.12-1.02 1.872-1.02zm5.1592.144v6.324h-1.104v-6.324zm-.564-3.036c.232 0 .42.072.564.216s.216.324.216.54-.072.396-.216.54c-.144.136-.332.204-.564.204-.224 0-.408-.068-.552-.204-.144-.144-.216-.324-.216-.54s.072-.396.216-.54.328-.216.552-.216zm7.1068 7.884c0 .256.044.448.132.576.088.12.22.212.396.276l-.252.768c-.328-.04-.592-.132-.792-.276s-.348-.368-.444-.672c-.424.632-1.052.948-1.884.948-.624 0-1.116-.176-1.476-.528s-.54-.812-.54-1.38c0-.672.24-1.188.72-1.548.488-.36 1.176-.54 2.064-.54h.972v-.468c0-.448-.108-.768-.324-.96s-.548-.288-.996-.288c-.464 0-1.032.112-1.704.336l-.276-.804c.784-.288 1.512-.432 2.184-.432.744 0 1.3.184 1.668.552.368.36.552.876.552 1.548zm-2.592.792c.632 0 1.128-.328 1.488-.984v-1.452h-.828c-1.168 0-1.752.432-1.752 1.296 0 .376.092.66.276.852s.456.288.816.288zm1.272-8.928.492.924-2.544 1.032-.336-.588zm8.4833.744v8.868h-.972l-.108-.876c-.208.32-.468.572-.78.756-.312.176-.66.264-1.044.264-.752 0-1.34-.296-1.764-.888-.416-.592-.624-1.388-.624-2.388 0-.648.1-1.224.3-1.728s.488-.896.864-1.176c.376-.288.816-.432 1.32-.432.648 0 1.216.26 1.704.78v-3.312zm-2.664 8.136c.336 0 .624-.076.864-.228.24-.16.472-.396.696-.708v-3.096c-.208-.272-.432-.476-.672-.612-.232-.144-.496-.216-.792-.216-.488 0-.868.204-1.14.612-.264.408-.396 1.016-.396 1.824 0 .816.124 1.424.372 1.824s.604.6 1.068.6zm9.1999-.744c0 .256.044.448.132.576.088.12.22.212.396.276l-.252.768c-.328-.04-.592-.132-.792-.276s-.348-.368-.444-.672c-.424.632-1.052.948-1.884.948-.624 0-1.116-.176-1.476-.528s-.54-.812-.54-1.38c0-.672.24-1.188.72-1.548.488-.36 1.176-.54 2.064-.54h.972v-.468c0-.448-.108-.768-.324-.96s-.548-.288-.996-.288c-.464 0-1.032.112-1.704.336l-.276-.804c.784-.288 1.512-.432 2.184-.432.744 0 1.3.184 1.668.552.368.36.552.876.552 1.548zm-2.592.792c.632 0 1.128-.328 1.488-.984v-1.452h-.828c-1.168 0-1.752.432-1.752 1.296 0 .376.092.66.276.852s.456.288.816.288z"/></g></svg>