<?xml version="1.0" encoding="utf-8"?>
<!-- Generator: Adobe Illustrator 24.3.0, SVG Export Plug-In . SVG Version: 6.00 Build 0)  -->
<svg version="1.1" id="Layer_1" xmlns="http://www.w3.org/2000/svg" xmlns:xlink="http://www.w3.org/1999/xlink" x="0px" y="0px"
	 viewBox="0 0 620 338.87" style="enable-background:new 0 0 620 338.87;" xml:space="preserve">
<style type="text/css">
	.st0{fill:none;stroke:#D9D9D9;stroke-width:0.75;stroke-linejoin:round;stroke-miterlimit:10;}
	.st1{fill:#595959;}
	.st2{fill:#008080;stroke:#FFFFFF;stroke-width:0.25;stroke-miterlimit:10;}
	.st3{opacity:0.2;stroke:#FFFFFF;stroke-width:0.25;stroke-miterlimit:10;}
	.st4{fill:none;stroke:#000000;stroke-width:0.5;stroke-miterlimit:10;}
	.st5{fill:none;stroke:#FFFFFF;stroke-width:0.75;stroke-linejoin:round;stroke-miterlimit:10;}
	.st6{fill:none;}
	.st7{opacity:0.3;}
	.st8{fill:none;stroke:#000000;stroke-width:0.5;stroke-linecap:round;stroke-miterlimit:10;}
	.st9{opacity:0.2;}
</style>
<line class="st0" x1="57.61" y1="292.21" x2="562.48" y2="292.21"/>
<g>
	<path class="st1" d="M37.13,286.91c0.49,0.81,0.73,2.02,0.73,3.63c0,1.62-0.24,2.84-0.73,3.65c-0.49,0.81-1.2,1.21-2.14,1.21
		c-0.95,0-1.67-0.41-2.16-1.22s-0.73-2.02-0.73-3.64c0-3.23,0.96-4.84,2.88-4.84C35.93,285.7,36.64,286.1,37.13,286.91z
		 M33.79,287.57c-0.26,0.59-0.39,1.58-0.39,2.98c0,1.4,0.13,2.39,0.39,2.98c0.26,0.59,0.66,0.88,1.2,0.88
		c0.53,0,0.93-0.29,1.18-0.88c0.26-0.59,0.39-1.58,0.39-2.98c0-1.4-0.13-2.39-0.38-2.98c-0.25-0.59-0.65-0.88-1.19-0.88
		C34.44,286.68,34.04,286.97,33.79,287.57z"/>
</g>
<g>
	<path class="st1" d="M46.8,309.49v9.37h-1.25v-8.05l-1.95,1.32l-0.57-0.84l2.66-1.79H46.8z"/>
	<path class="st1" d="M54.15,314.89c0.3,0.4,0.45,0.9,0.45,1.48c0,0.52-0.12,0.98-0.36,1.39s-0.59,0.71-1.04,0.94
		c-0.45,0.22-0.98,0.34-1.57,0.34c-0.59,0-1.1-0.11-1.55-0.33s-0.78-0.53-1.02-0.93c-0.24-0.4-0.36-0.86-0.36-1.37
		c0-1.16,0.59-1.99,1.78-2.49c-0.5-0.27-0.87-0.58-1.09-0.92c-0.22-0.35-0.34-0.76-0.34-1.25c0-0.5,0.12-0.94,0.35-1.3
		c0.23-0.36,0.55-0.64,0.94-0.83c0.4-0.19,0.83-0.28,1.31-0.28c0.75,0,1.37,0.21,1.87,0.62c0.5,0.41,0.75,0.99,0.75,1.74
		c0,0.48-0.12,0.89-0.36,1.23s-0.63,0.66-1.16,0.94C53.38,314.15,53.85,314.49,54.15,314.89z M52.89,317.63
		c0.3-0.28,0.45-0.7,0.45-1.25c0-0.49-0.12-0.88-0.37-1.15c-0.25-0.28-0.69-0.54-1.32-0.81l-0.39-0.15
		c-0.45,0.23-0.78,0.52-0.99,0.85c-0.21,0.34-0.31,0.76-0.31,1.26c0,0.56,0.15,0.98,0.45,1.26c0.3,0.28,0.71,0.42,1.25,0.42
		S52.59,317.91,52.89,317.63z M50.64,310.63c-0.25,0.25-0.38,0.62-0.38,1.13c0,0.42,0.11,0.75,0.32,0.99
		c0.21,0.24,0.57,0.46,1.07,0.67l0.32,0.14c0.39-0.26,0.67-0.53,0.83-0.8c0.16-0.28,0.25-0.61,0.25-1c0-0.49-0.12-0.87-0.36-1.11
		c-0.24-0.25-0.58-0.37-1.02-0.37C51.23,310.26,50.89,310.38,50.64,310.63z"/>
	<path class="st1" d="M59.36,309.65c0.38,0.21,0.68,0.5,0.88,0.85c0.21,0.36,0.31,0.75,0.31,1.18c0,0.6-0.15,1.08-0.46,1.45
		c-0.31,0.37-0.75,0.62-1.32,0.75c0.62,0.06,1.11,0.28,1.48,0.67c0.37,0.39,0.56,0.94,0.56,1.64c0,0.53-0.12,1.01-0.36,1.44
		s-0.58,0.77-1.02,1.02c-0.44,0.25-0.96,0.38-1.55,0.38c-0.54,0-1.02-0.1-1.45-0.31s-0.81-0.53-1.17-0.96l0.76-0.64
		c0.29,0.32,0.58,0.55,0.86,0.69c0.28,0.15,0.6,0.22,0.96,0.22c0.51,0,0.92-0.17,1.22-0.5c0.3-0.33,0.46-0.79,0.46-1.36
		c0-0.62-0.15-1.06-0.46-1.34s-0.74-0.41-1.31-0.41h-0.59l0.15-0.94h0.39c0.47,0,0.85-0.14,1.15-0.43c0.3-0.29,0.46-0.7,0.46-1.25
		c0-0.47-0.13-0.83-0.39-1.09s-0.61-0.39-1.06-0.39c-0.33,0-0.63,0.07-0.9,0.2c-0.28,0.13-0.55,0.34-0.83,0.62l-0.66-0.67
		c0.73-0.75,1.57-1.12,2.52-1.12C58.53,309.34,58.98,309.44,59.36,309.65z"/>
	<path class="st1" d="M67.26,310.55c0.49,0.81,0.73,2.02,0.73,3.63c0,1.62-0.24,2.84-0.73,3.65c-0.49,0.81-1.2,1.21-2.14,1.21
		c-0.95,0-1.67-0.41-2.16-1.22s-0.73-2.02-0.73-3.64c0-3.23,0.96-4.84,2.88-4.84C66.06,309.34,66.77,309.74,67.26,310.55z
		 M63.92,311.2c-0.26,0.59-0.39,1.58-0.39,2.98c0,1.4,0.13,2.39,0.39,2.98c0.26,0.59,0.66,0.88,1.2,0.88c0.53,0,0.93-0.29,1.18-0.88
		c0.26-0.59,0.39-1.58,0.39-2.98c0-1.4-0.13-2.39-0.38-2.98c-0.25-0.59-0.65-0.88-1.19-0.88C64.57,310.32,64.17,310.61,63.92,311.2z
		"/>
</g>
<g>
	<path class="st1" d="M126.45,309.49v9.37h-1.25v-8.05l-1.95,1.32l-0.57-0.84l2.66-1.79H126.45z"/>
	<path class="st1" d="M133.8,314.89c0.3,0.4,0.45,0.9,0.45,1.48c0,0.52-0.12,0.98-0.36,1.39s-0.59,0.71-1.04,0.94
		c-0.45,0.22-0.98,0.34-1.57,0.34c-0.59,0-1.1-0.11-1.55-0.33s-0.78-0.53-1.02-0.93c-0.24-0.4-0.36-0.86-0.36-1.37
		c0-1.16,0.59-1.99,1.78-2.49c-0.5-0.27-0.87-0.58-1.09-0.92c-0.22-0.35-0.34-0.76-0.34-1.25c0-0.5,0.12-0.94,0.35-1.3
		c0.23-0.36,0.55-0.64,0.94-0.83c0.4-0.19,0.83-0.28,1.31-0.28c0.75,0,1.37,0.21,1.87,0.62c0.5,0.41,0.75,0.99,0.75,1.74
		c0,0.48-0.12,0.89-0.36,1.23s-0.63,0.66-1.16,0.94C133.03,314.15,133.5,314.49,133.8,314.89z M132.54,317.63
		c0.3-0.28,0.45-0.7,0.45-1.25c0-0.49-0.12-0.88-0.37-1.15c-0.25-0.28-0.69-0.54-1.32-0.81l-0.39-0.15
		c-0.45,0.23-0.78,0.52-0.99,0.85c-0.21,0.34-0.31,0.76-0.31,1.26c0,0.56,0.15,0.98,0.45,1.26c0.3,0.28,0.71,0.42,1.25,0.42
		S132.24,317.91,132.54,317.63z M130.28,310.63c-0.25,0.25-0.38,0.62-0.38,1.13c0,0.42,0.11,0.75,0.32,0.99
		c0.21,0.24,0.57,0.46,1.07,0.67l0.32,0.14c0.39-0.26,0.67-0.53,0.83-0.8c0.16-0.28,0.25-0.61,0.25-1c0-0.49-0.12-0.87-0.36-1.11
		c-0.24-0.25-0.58-0.37-1.02-0.37C130.88,310.26,130.54,310.38,130.28,310.63z"/>
	<path class="st1" d="M141.2,315.54v1.01h-1.06v2.31h-1.2v-2.31h-3.67v-0.91l2.51-6.31l1.06,0.41l-2.28,5.81h2.39l0.13-2.55h1.06
		v2.55H141.2z"/>
	<path class="st1" d="M147.36,310.55c0.49,0.81,0.73,2.02,0.73,3.63c0,1.62-0.24,2.84-0.73,3.65c-0.49,0.81-1.2,1.21-2.14,1.21
		c-0.95,0-1.67-0.41-2.16-1.22s-0.73-2.02-0.73-3.64c0-3.23,0.96-4.84,2.88-4.84C146.16,309.34,146.88,309.74,147.36,310.55z
		 M144.02,311.2c-0.26,0.59-0.39,1.58-0.39,2.98c0,1.4,0.13,2.39,0.39,2.98c0.26,0.59,0.66,0.88,1.2,0.88
		c0.53,0,0.93-0.29,1.18-0.88c0.26-0.59,0.39-1.58,0.39-2.98c0-1.4-0.13-2.39-0.38-2.98c-0.25-0.59-0.65-0.88-1.19-0.88
		C144.68,310.32,144.28,310.61,144.02,311.2z"/>
</g>
<g>
	<path class="st1" d="M203.3,309.49v9.37h-1.25v-8.05l-1.95,1.32l-0.57-0.84l2.66-1.79H203.3z"/>
	<path class="st1" d="M210.65,314.89c0.3,0.4,0.45,0.9,0.45,1.48c0,0.52-0.12,0.98-0.36,1.39s-0.59,0.71-1.04,0.94
		c-0.45,0.22-0.98,0.34-1.57,0.34c-0.59,0-1.1-0.11-1.55-0.33s-0.78-0.53-1.02-0.93c-0.24-0.4-0.36-0.86-0.36-1.37
		c0-1.16,0.59-1.99,1.78-2.49c-0.5-0.27-0.87-0.58-1.09-0.92c-0.22-0.35-0.34-0.76-0.34-1.25c0-0.5,0.12-0.94,0.35-1.3
		c0.23-0.36,0.55-0.64,0.94-0.83c0.4-0.19,0.83-0.28,1.31-0.28c0.75,0,1.37,0.21,1.87,0.62c0.5,0.41,0.75,0.99,0.75,1.74
		c0,0.48-0.12,0.89-0.36,1.23s-0.63,0.66-1.16,0.94C209.88,314.15,210.35,314.49,210.65,314.89z M209.39,317.63
		c0.3-0.28,0.45-0.7,0.45-1.25c0-0.49-0.12-0.88-0.37-1.15c-0.25-0.28-0.69-0.54-1.32-0.81l-0.39-0.15
		c-0.45,0.23-0.78,0.52-0.99,0.85c-0.21,0.34-0.31,0.76-0.31,1.26c0,0.56,0.15,0.98,0.45,1.26c0.3,0.28,0.71,0.42,1.25,0.42
		S209.09,317.91,209.39,317.63z M207.13,310.63c-0.25,0.25-0.38,0.62-0.38,1.13c0,0.42,0.11,0.75,0.32,0.99
		c0.21,0.24,0.57,0.46,1.07,0.67l0.32,0.14c0.39-0.26,0.67-0.53,0.83-0.8c0.16-0.28,0.25-0.61,0.25-1c0-0.49-0.12-0.87-0.36-1.11
		c-0.24-0.25-0.58-0.37-1.02-0.37C207.73,310.26,207.38,310.38,207.13,310.63z"/>
	<path class="st1" d="M217.02,310.47h-3.28v2.8c0.44-0.26,0.9-0.39,1.37-0.39c0.72,0,1.3,0.26,1.74,0.78
		c0.44,0.52,0.66,1.25,0.66,2.17c0,0.63-0.12,1.18-0.37,1.67c-0.25,0.49-0.6,0.86-1.04,1.13c-0.45,0.27-0.97,0.41-1.57,0.41
		c-0.53,0-1-0.1-1.41-0.31c-0.41-0.21-0.79-0.51-1.16-0.91l0.74-0.67c0.27,0.29,0.55,0.51,0.83,0.65c0.28,0.15,0.6,0.22,0.97,0.22
		c0.54,0,0.96-0.19,1.26-0.57c0.3-0.38,0.45-0.92,0.45-1.63c0-1.33-0.5-2-1.51-2c-0.22,0-0.43,0.03-0.62,0.09
		c-0.19,0.06-0.4,0.16-0.63,0.29h-0.91v-4.7h4.65L217.02,310.47z"/>
	<path class="st1" d="M223.86,310.55c0.49,0.81,0.73,2.02,0.73,3.63c0,1.62-0.24,2.84-0.73,3.65c-0.49,0.81-1.2,1.21-2.14,1.21
		c-0.95,0-1.67-0.41-2.16-1.22s-0.73-2.02-0.73-3.64c0-3.23,0.96-4.84,2.88-4.84C222.66,309.34,223.38,309.74,223.86,310.55z
		 M220.52,311.2c-0.26,0.59-0.39,1.58-0.39,2.98c0,1.4,0.13,2.39,0.39,2.98c0.26,0.59,0.66,0.88,1.2,0.88
		c0.53,0,0.93-0.29,1.18-0.88c0.26-0.59,0.39-1.58,0.39-2.98c0-1.4-0.13-2.39-0.38-2.98c-0.25-0.59-0.65-0.88-1.19-0.88
		C221.18,310.32,220.78,310.61,220.52,311.2z"/>
</g>
<g>
	<path class="st1" d="M280.85,309.49v9.37h-1.25v-8.05l-1.95,1.32l-0.57-0.84l2.66-1.79H280.85z"/>
	<path class="st1" d="M288.2,314.89c0.3,0.4,0.45,0.9,0.45,1.48c0,0.52-0.12,0.98-0.36,1.39s-0.59,0.71-1.04,0.94
		c-0.45,0.22-0.98,0.34-1.57,0.34c-0.59,0-1.1-0.11-1.55-0.33s-0.78-0.53-1.02-0.93c-0.24-0.4-0.36-0.86-0.36-1.37
		c0-1.16,0.59-1.99,1.78-2.49c-0.5-0.27-0.87-0.58-1.09-0.92c-0.22-0.35-0.34-0.76-0.34-1.25c0-0.5,0.12-0.94,0.35-1.3
		c0.23-0.36,0.55-0.64,0.94-0.83c0.4-0.19,0.83-0.28,1.31-0.28c0.75,0,1.37,0.21,1.87,0.62c0.5,0.41,0.75,0.99,0.75,1.74
		c0,0.48-0.12,0.89-0.36,1.23s-0.63,0.66-1.16,0.94C287.43,314.15,287.9,314.49,288.2,314.89z M286.94,317.63
		c0.3-0.28,0.45-0.7,0.45-1.25c0-0.49-0.12-0.88-0.37-1.15c-0.25-0.28-0.69-0.54-1.32-0.81l-0.39-0.15
		c-0.45,0.23-0.78,0.52-0.99,0.85c-0.21,0.34-0.31,0.76-0.31,1.26c0,0.56,0.15,0.98,0.45,1.26c0.3,0.28,0.71,0.42,1.25,0.42
		S286.64,317.91,286.94,317.63z M284.68,310.63c-0.25,0.25-0.38,0.62-0.38,1.13c0,0.42,0.11,0.75,0.32,0.99
		c0.21,0.24,0.57,0.46,1.07,0.67l0.32,0.14c0.39-0.26,0.67-0.53,0.83-0.8c0.16-0.28,0.25-0.61,0.25-1c0-0.49-0.12-0.87-0.36-1.11
		c-0.24-0.25-0.58-0.37-1.02-0.37C285.27,310.26,284.93,310.38,284.68,310.63z"/>
	<path class="st1" d="M294.45,313.03c0.35,0.22,0.63,0.56,0.83,1.01c0.21,0.45,0.31,0.99,0.31,1.64c0,0.69-0.11,1.29-0.34,1.8
		c-0.23,0.51-0.55,0.9-0.96,1.16c-0.41,0.27-0.88,0.4-1.41,0.4c-1,0-1.73-0.39-2.21-1.18c-0.47-0.79-0.71-1.89-0.71-3.3
		c0-1.07,0.13-2,0.4-2.79s0.65-1.39,1.15-1.81s1.08-0.63,1.76-0.63c0.65,0,1.23,0.19,1.74,0.57l-0.49,0.8
		c-0.39-0.26-0.8-0.39-1.22-0.39c-0.61,0-1.09,0.32-1.45,0.95s-0.56,1.51-0.61,2.63c0.53-0.8,1.21-1.2,2.04-1.2
		C293.71,312.69,294.1,312.81,294.45,313.03z M293.96,317.45c0.25-0.41,0.37-0.99,0.37-1.74c0-0.72-0.12-1.24-0.36-1.57
		c-0.24-0.33-0.56-0.49-0.97-0.49c-0.35,0-0.67,0.12-0.97,0.35s-0.57,0.56-0.79,0.97c0.02,1.07,0.16,1.86,0.41,2.35
		c0.26,0.49,0.66,0.74,1.21,0.74C293.34,318.06,293.71,317.85,293.96,317.45z"/>
	<path class="st1" d="M301.93,310.55c0.49,0.81,0.73,2.02,0.73,3.63c0,1.62-0.24,2.84-0.73,3.65c-0.49,0.81-1.2,1.21-2.14,1.21
		c-0.95,0-1.67-0.41-2.16-1.22s-0.73-2.02-0.73-3.64c0-3.23,0.96-4.84,2.88-4.84C300.73,309.34,301.44,309.74,301.93,310.55z
		 M298.59,311.2c-0.26,0.59-0.39,1.58-0.39,2.98c0,1.4,0.13,2.39,0.39,2.98c0.26,0.59,0.66,0.88,1.2,0.88
		c0.53,0,0.93-0.29,1.18-0.88c0.26-0.59,0.39-1.58,0.39-2.98c0-1.4-0.13-2.39-0.38-2.98c-0.25-0.59-0.65-0.88-1.19-0.88
		C299.25,310.32,298.85,310.61,298.59,311.2z"/>
</g>
<g>
	<path class="st1" d="M360.82,309.49v9.37h-1.25v-8.05l-1.95,1.32l-0.57-0.84l2.66-1.79H360.82z"/>
	<path class="st1" d="M368.17,314.89c0.3,0.4,0.45,0.9,0.45,1.48c0,0.52-0.12,0.98-0.36,1.39s-0.59,0.71-1.04,0.94
		c-0.45,0.22-0.98,0.34-1.57,0.34c-0.59,0-1.1-0.11-1.55-0.33s-0.78-0.53-1.02-0.93c-0.24-0.4-0.36-0.86-0.36-1.37
		c0-1.16,0.59-1.99,1.78-2.49c-0.5-0.27-0.87-0.58-1.09-0.92c-0.22-0.35-0.34-0.76-0.34-1.25c0-0.5,0.12-0.94,0.35-1.3
		c0.23-0.36,0.55-0.64,0.94-0.83c0.4-0.19,0.83-0.28,1.31-0.28c0.75,0,1.37,0.21,1.87,0.62c0.5,0.41,0.75,0.99,0.75,1.74
		c0,0.48-0.12,0.89-0.36,1.23s-0.63,0.66-1.16,0.94C367.4,314.15,367.87,314.49,368.17,314.89z M366.91,317.63
		c0.3-0.28,0.45-0.7,0.45-1.25c0-0.49-0.12-0.88-0.37-1.15c-0.25-0.28-0.69-0.54-1.32-0.81l-0.39-0.15
		c-0.45,0.23-0.78,0.52-0.99,0.85c-0.21,0.34-0.31,0.76-0.31,1.26c0,0.56,0.15,0.98,0.45,1.26c0.3,0.28,0.71,0.42,1.25,0.42
		S366.61,317.91,366.91,317.63z M364.66,310.63c-0.25,0.25-0.38,0.62-0.38,1.13c0,0.42,0.11,0.75,0.32,0.99
		c0.21,0.24,0.57,0.46,1.07,0.67l0.32,0.14c0.39-0.26,0.67-0.53,0.83-0.8c0.16-0.28,0.25-0.61,0.25-1c0-0.49-0.12-0.87-0.36-1.11
		c-0.24-0.25-0.58-0.37-1.02-0.37C365.25,310.26,364.91,310.38,364.66,310.63z"/>
	<path class="st1" d="M374.47,309.49v0.92l-3.21,8.58l-1.13-0.36l3.08-8.13h-3.75v-1.01H374.47z"/>
	<path class="st1" d="M380.63,310.55c0.49,0.81,0.73,2.02,0.73,3.63c0,1.62-0.24,2.84-0.73,3.65c-0.49,0.81-1.2,1.21-2.14,1.21
		c-0.95,0-1.67-0.41-2.16-1.22s-0.73-2.02-0.73-3.64c0-3.23,0.96-4.84,2.88-4.84C379.43,309.34,380.15,309.74,380.63,310.55z
		 M377.29,311.2c-0.26,0.59-0.39,1.58-0.39,2.98c0,1.4,0.13,2.39,0.39,2.98c0.26,0.59,0.66,0.88,1.2,0.88
		c0.53,0,0.93-0.29,1.18-0.88c0.26-0.59,0.39-1.58,0.39-2.98c0-1.4-0.13-2.39-0.38-2.98c-0.25-0.59-0.65-0.88-1.19-0.88
		C377.95,310.32,377.55,310.61,377.29,311.2z"/>
</g>
<g>
	<path class="st1" d="M436.74,309.49v9.37h-1.25v-8.05l-1.95,1.32l-0.57-0.84l2.66-1.79H436.74z"/>
	<path class="st1" d="M444.09,314.89c0.3,0.4,0.45,0.9,0.45,1.48c0,0.52-0.12,0.98-0.36,1.39s-0.59,0.71-1.04,0.94
		c-0.45,0.22-0.98,0.34-1.57,0.34c-0.59,0-1.1-0.11-1.55-0.33s-0.78-0.53-1.02-0.93c-0.24-0.4-0.36-0.86-0.36-1.37
		c0-1.16,0.59-1.99,1.78-2.49c-0.5-0.27-0.87-0.58-1.09-0.92c-0.22-0.35-0.34-0.76-0.34-1.25c0-0.5,0.12-0.94,0.35-1.3
		c0.23-0.36,0.55-0.64,0.94-0.83c0.4-0.19,0.83-0.28,1.31-0.28c0.75,0,1.37,0.21,1.87,0.62c0.5,0.41,0.75,0.99,0.75,1.74
		c0,0.48-0.12,0.89-0.36,1.23s-0.63,0.66-1.16,0.94C443.32,314.15,443.79,314.49,444.09,314.89z M442.83,317.63
		c0.3-0.28,0.45-0.7,0.45-1.25c0-0.49-0.12-0.88-0.37-1.15c-0.25-0.28-0.69-0.54-1.32-0.81l-0.39-0.15
		c-0.45,0.23-0.78,0.52-0.99,0.85c-0.21,0.34-0.31,0.76-0.31,1.26c0,0.56,0.15,0.98,0.45,1.26c0.3,0.28,0.71,0.42,1.25,0.42
		S442.53,317.91,442.83,317.63z M440.58,310.63c-0.25,0.25-0.38,0.62-0.38,1.13c0,0.42,0.11,0.75,0.32,0.99
		c0.21,0.24,0.57,0.46,1.07,0.67l0.32,0.14c0.39-0.26,0.67-0.53,0.83-0.8c0.16-0.28,0.25-0.61,0.25-1c0-0.49-0.12-0.87-0.36-1.11
		c-0.24-0.25-0.58-0.37-1.02-0.37C441.17,310.26,440.83,310.38,440.58,310.63z"/>
	<path class="st1" d="M451.09,314.89c0.3,0.4,0.45,0.9,0.45,1.48c0,0.52-0.12,0.98-0.36,1.39s-0.59,0.71-1.04,0.94
		c-0.45,0.22-0.98,0.34-1.57,0.34c-0.59,0-1.1-0.11-1.55-0.33s-0.78-0.53-1.02-0.93c-0.24-0.4-0.36-0.86-0.36-1.37
		c0-1.16,0.59-1.99,1.78-2.49c-0.5-0.27-0.87-0.58-1.09-0.92c-0.22-0.35-0.34-0.76-0.34-1.25c0-0.5,0.12-0.94,0.35-1.3
		c0.23-0.36,0.55-0.64,0.94-0.83c0.4-0.19,0.83-0.28,1.31-0.28c0.75,0,1.37,0.21,1.87,0.62c0.5,0.41,0.75,0.99,0.75,1.74
		c0,0.48-0.12,0.89-0.36,1.23s-0.63,0.66-1.16,0.94C450.32,314.15,450.79,314.49,451.09,314.89z M449.83,317.63
		c0.3-0.28,0.45-0.7,0.45-1.25c0-0.49-0.12-0.88-0.37-1.15c-0.25-0.28-0.69-0.54-1.32-0.81l-0.39-0.15
		c-0.45,0.23-0.78,0.52-0.99,0.85c-0.21,0.34-0.31,0.76-0.31,1.26c0,0.56,0.15,0.98,0.45,1.26c0.3,0.28,0.71,0.42,1.25,0.42
		S449.53,317.91,449.83,317.63z M447.58,310.63c-0.25,0.25-0.38,0.62-0.38,1.13c0,0.42,0.11,0.75,0.32,0.99
		c0.21,0.24,0.57,0.46,1.07,0.67l0.32,0.14c0.39-0.26,0.67-0.53,0.83-0.8c0.16-0.28,0.25-0.61,0.25-1c0-0.49-0.12-0.87-0.36-1.11
		c-0.24-0.25-0.58-0.37-1.02-0.37C448.17,310.26,447.83,310.38,447.58,310.63z"/>
	<path class="st1" d="M457.88,310.55c0.49,0.81,0.73,2.02,0.73,3.63c0,1.62-0.24,2.84-0.73,3.65c-0.49,0.81-1.2,1.21-2.14,1.21
		c-0.95,0-1.67-0.41-2.16-1.22s-0.73-2.02-0.73-3.64c0-3.23,0.96-4.84,2.88-4.84C456.68,309.34,457.4,309.74,457.88,310.55z
		 M454.54,311.2c-0.26,0.59-0.39,1.58-0.39,2.98c0,1.4,0.13,2.39,0.39,2.98c0.26,0.59,0.66,0.88,1.2,0.88
		c0.53,0,0.93-0.29,1.18-0.88c0.26-0.59,0.39-1.58,0.39-2.98c0-1.4-0.13-2.39-0.38-2.98c-0.25-0.59-0.65-0.88-1.19-0.88
		C455.2,310.32,454.8,310.61,454.54,311.2z"/>
</g>
<g>
	<path class="st1" d="M514.47,309.49v9.37h-1.25v-8.05l-1.95,1.32l-0.57-0.84l2.66-1.79H514.47z"/>
	<path class="st1" d="M521.82,314.89c0.3,0.4,0.45,0.9,0.45,1.48c0,0.52-0.12,0.98-0.36,1.39c-0.24,0.4-0.59,0.71-1.04,0.94
		c-0.45,0.22-0.98,0.34-1.57,0.34c-0.59,0-1.1-0.11-1.55-0.33s-0.78-0.53-1.02-0.93c-0.24-0.4-0.36-0.86-0.36-1.37
		c0-1.16,0.59-1.99,1.78-2.49c-0.5-0.27-0.87-0.58-1.09-0.92c-0.22-0.35-0.34-0.76-0.34-1.25c0-0.5,0.12-0.94,0.35-1.3
		c0.23-0.36,0.55-0.64,0.94-0.83c0.4-0.19,0.83-0.28,1.31-0.28c0.75,0,1.37,0.21,1.87,0.62c0.5,0.41,0.75,0.99,0.75,1.74
		c0,0.48-0.12,0.89-0.36,1.23c-0.24,0.35-0.63,0.66-1.16,0.94C521.05,314.15,521.52,314.49,521.82,314.89z M520.56,317.63
		c0.3-0.28,0.45-0.7,0.45-1.25c0-0.49-0.12-0.88-0.37-1.15c-0.25-0.28-0.69-0.54-1.32-0.81l-0.39-0.15
		c-0.45,0.23-0.78,0.52-0.99,0.85c-0.21,0.34-0.31,0.76-0.31,1.26c0,0.56,0.15,0.98,0.45,1.26c0.3,0.28,0.71,0.42,1.25,0.42
		S520.26,317.91,520.56,317.63z M518.3,310.63c-0.25,0.25-0.38,0.62-0.38,1.13c0,0.42,0.11,0.75,0.32,0.99
		c0.21,0.24,0.57,0.46,1.07,0.67l0.32,0.14c0.39-0.26,0.67-0.53,0.83-0.8c0.16-0.28,0.25-0.61,0.25-1c0-0.49-0.12-0.87-0.36-1.11
		c-0.24-0.25-0.58-0.37-1.02-0.37C518.9,310.26,518.56,310.38,518.3,310.63z"/>
	<path class="st1" d="M528.25,310.3c0.47,0.64,0.71,1.55,0.71,2.73c0,1.24-0.17,2.26-0.5,3.05s-0.84,1.42-1.5,1.89
		c-0.67,0.47-1.55,0.87-2.65,1.2l-0.28-0.92c1.14-0.35,2-0.83,2.6-1.42c0.59-0.59,0.94-1.41,1.03-2.46
		c-0.23,0.34-0.51,0.6-0.83,0.79c-0.32,0.19-0.68,0.29-1.08,0.29c-0.43,0-0.83-0.12-1.19-0.36s-0.65-0.59-0.86-1.04
		c-0.21-0.45-0.31-0.98-0.31-1.59c0-0.65,0.12-1.21,0.36-1.68c0.24-0.47,0.57-0.82,0.99-1.06c0.42-0.24,0.9-0.36,1.43-0.36
		C527.08,309.34,527.78,309.66,528.25,310.3z M527.67,313.3c0.01-1.07-0.1-1.84-0.34-2.3c-0.24-0.46-0.63-0.69-1.17-0.69
		c-0.49,0-0.86,0.18-1.13,0.54c-0.27,0.36-0.41,0.9-0.41,1.62c0,0.66,0.13,1.17,0.38,1.51c0.25,0.35,0.6,0.52,1.04,0.52
		C526.67,314.49,527.21,314.09,527.67,313.3z"/>
	<path class="st1" d="M535.41,310.55c0.49,0.81,0.73,2.02,0.73,3.63c0,1.62-0.24,2.84-0.73,3.65c-0.49,0.81-1.2,1.21-2.14,1.21
		c-0.95,0-1.67-0.41-2.16-1.22s-0.73-2.02-0.73-3.64c0-3.23,0.96-4.84,2.88-4.84C534.21,309.34,534.93,309.74,535.41,310.55z
		 M532.07,311.2c-0.26,0.59-0.39,1.58-0.39,2.98c0,1.4,0.13,2.39,0.39,2.98c0.26,0.59,0.66,0.88,1.2,0.88
		c0.53,0,0.93-0.29,1.18-0.88c0.26-0.59,0.38-1.58,0.38-2.98c0-1.4-0.13-2.39-0.38-2.98c-0.25-0.59-0.65-0.88-1.19-0.88
		C532.73,310.32,532.33,310.61,532.07,311.2z"/>
</g>
<g>
	<path class="st1" d="M582.65,309.49v9.37h-1.25v-8.05l-1.95,1.32l-0.57-0.84l2.66-1.79H582.65z"/>
	<path class="st1" d="M589.43,310.3c0.47,0.64,0.71,1.55,0.71,2.73c0,1.24-0.17,2.26-0.5,3.05s-0.84,1.42-1.5,1.89
		c-0.67,0.47-1.55,0.87-2.65,1.2l-0.28-0.92c1.14-0.35,2-0.83,2.6-1.42c0.59-0.59,0.94-1.41,1.03-2.46
		c-0.23,0.34-0.51,0.6-0.83,0.79c-0.32,0.19-0.68,0.29-1.08,0.29c-0.43,0-0.83-0.12-1.19-0.36s-0.65-0.59-0.86-1.04
		c-0.21-0.45-0.31-0.98-0.31-1.59c0-0.65,0.12-1.21,0.36-1.68c0.24-0.47,0.57-0.82,0.99-1.06c0.42-0.24,0.9-0.36,1.43-0.36
		C588.25,309.34,588.96,309.66,589.43,310.3z M588.85,313.3c0.01-1.07-0.1-1.84-0.34-2.3c-0.24-0.46-0.63-0.69-1.17-0.69
		c-0.49,0-0.86,0.18-1.13,0.54c-0.27,0.36-0.41,0.9-0.41,1.62c0,0.66,0.13,1.17,0.38,1.51c0.25,0.35,0.6,0.52,1.04,0.52
		C587.84,314.49,588.39,314.09,588.85,313.3z"/>
	<path class="st1" d="M596.59,310.55c0.49,0.81,0.73,2.02,0.73,3.63c0,1.62-0.24,2.84-0.73,3.65c-0.49,0.81-1.2,1.21-2.14,1.21
		c-0.95,0-1.67-0.41-2.16-1.22s-0.73-2.02-0.73-3.64c0-3.23,0.96-4.84,2.88-4.84C595.39,309.34,596.1,309.74,596.59,310.55z
		 M593.25,311.2c-0.26,0.59-0.39,1.58-0.39,2.98c0,1.4,0.13,2.39,0.39,2.98c0.26,0.59,0.66,0.88,1.2,0.88
		c0.53,0,0.93-0.29,1.18-0.88c0.26-0.59,0.38-1.58,0.38-2.98c0-1.4-0.13-2.39-0.38-2.98c-0.25-0.59-0.65-0.88-1.19-0.88
		C593.91,310.32,593.51,310.61,593.25,311.2z"/>
	<path class="st1" d="M603.88,310.55c0.49,0.81,0.73,2.02,0.73,3.63c0,1.62-0.24,2.84-0.73,3.65c-0.49,0.81-1.2,1.21-2.14,1.21
		c-0.95,0-1.67-0.41-2.16-1.22s-0.73-2.02-0.73-3.64c0-3.23,0.96-4.84,2.88-4.84C602.68,309.34,603.4,309.74,603.88,310.55z
		 M600.54,311.2c-0.26,0.59-0.39,1.58-0.39,2.98c0,1.4,0.13,2.39,0.39,2.98c0.26,0.59,0.66,0.88,1.2,0.88
		c0.53,0,0.93-0.29,1.18-0.88c0.26-0.59,0.38-1.58,0.38-2.98c0-1.4-0.13-2.39-0.38-2.98c-0.25-0.59-0.65-0.88-1.19-0.88
		C601.2,310.32,600.8,310.61,600.54,311.2z"/>
</g>
<g>
	<path class="st1" d="M27.88,243.16v10.13h-1.35v-8.7l-2.1,1.42l-0.62-0.91l2.88-1.94H27.88z"/>
	<path class="st1" d="M35.6,244.31c0.52,0.88,0.79,2.19,0.79,3.92c0,1.76-0.26,3.07-0.79,3.94c-0.52,0.87-1.3,1.31-2.32,1.31
		c-1.03,0-1.81-0.44-2.33-1.32s-0.79-2.19-0.79-3.94c0-3.49,1.04-5.24,3.12-5.24C34.3,242.99,35.07,243.43,35.6,244.31z
		 M31.99,245.01c-0.28,0.64-0.42,1.71-0.42,3.22c0,1.51,0.14,2.59,0.42,3.22c0.28,0.64,0.71,0.95,1.29,0.95c0.58,0,1-0.32,1.28-0.95
		c0.28-0.64,0.42-1.71,0.42-3.22c0-1.51-0.14-2.59-0.41-3.22s-0.7-0.95-1.29-0.95C32.69,244.05,32.26,244.37,31.99,245.01z"/>
</g>
<g>
	<path class="st1" d="M27.99,195.89c0.42,0.24,0.74,0.56,0.96,0.97c0.22,0.41,0.33,0.87,0.33,1.39c0,0.62-0.12,1.2-0.36,1.75
		c-0.24,0.55-0.62,1.16-1.14,1.84c-0.52,0.68-1.33,1.63-2.42,2.88h4.15l-0.17,1.12h-5.48v-1.06c1.17-1.35,2.03-2.38,2.57-3.07
		c0.54-0.7,0.92-1.29,1.13-1.79c0.21-0.5,0.32-1.03,0.32-1.58c0-0.53-0.13-0.95-0.4-1.24c-0.27-0.29-0.63-0.44-1.08-0.44
		c-0.38,0-0.72,0.09-1,0.26c-0.28,0.17-0.58,0.44-0.88,0.82l-0.85-0.65c0.74-1.02,1.68-1.53,2.83-1.53
		C27.07,195.53,27.57,195.65,27.99,195.89z"/>
	<path class="st1" d="M36.37,196.85c0.52,0.88,0.79,2.19,0.79,3.92c0,1.76-0.26,3.07-0.79,3.94c-0.52,0.87-1.3,1.31-2.32,1.31
		c-1.03,0-1.81-0.44-2.33-1.32s-0.79-2.19-0.79-3.94c0-3.49,1.04-5.24,3.12-5.24C35.07,195.53,35.84,195.97,36.37,196.85z
		 M32.76,197.55c-0.28,0.64-0.42,1.71-0.42,3.22c0,1.51,0.14,2.59,0.42,3.22c0.28,0.64,0.71,0.95,1.29,0.95c0.58,0,1-0.32,1.28-0.95
		c0.28-0.64,0.42-1.71,0.42-3.22c0-1.51-0.14-2.59-0.41-3.22s-0.7-0.95-1.29-0.95C33.47,196.59,33.03,196.91,32.76,197.55z"/>
</g>
<g>
	<path class="st1" d="M27.98,148.41c0.41,0.23,0.73,0.54,0.95,0.92c0.22,0.39,0.33,0.82,0.33,1.28c0,0.65-0.17,1.17-0.5,1.57
		s-0.81,0.67-1.42,0.81c0.67,0.06,1.2,0.3,1.6,0.73c0.4,0.42,0.61,1.01,0.61,1.77c0,0.58-0.13,1.09-0.39,1.56s-0.63,0.83-1.1,1.1
		c-0.48,0.27-1.04,0.41-1.67,0.41c-0.59,0-1.11-0.11-1.57-0.34c-0.46-0.23-0.88-0.57-1.26-1.04l0.82-0.7
		c0.31,0.34,0.62,0.59,0.93,0.75c0.31,0.16,0.65,0.23,1.04,0.23c0.56,0,1-0.18,1.32-0.54c0.33-0.36,0.49-0.85,0.49-1.48
		c0-0.67-0.16-1.15-0.49-1.45c-0.33-0.3-0.8-0.45-1.42-0.45h-0.64l0.17-1.01h0.42c0.5,0,0.92-0.16,1.25-0.47
		c0.33-0.31,0.49-0.76,0.49-1.35c0-0.5-0.14-0.9-0.42-1.18c-0.28-0.28-0.66-0.42-1.14-0.42c-0.35,0-0.68,0.07-0.98,0.21
		c-0.3,0.14-0.6,0.36-0.9,0.67l-0.71-0.73c0.79-0.81,1.7-1.21,2.72-1.21C27.08,148.07,27.57,148.19,27.98,148.41z"/>
	<path class="st1" d="M36.52,149.39c0.52,0.88,0.79,2.19,0.79,3.92c0,1.76-0.26,3.07-0.79,3.94c-0.52,0.87-1.3,1.31-2.32,1.31
		c-1.03,0-1.81-0.44-2.33-1.32s-0.79-2.19-0.79-3.94c0-3.49,1.04-5.24,3.12-5.24C35.22,148.07,35.99,148.51,36.52,149.39z
		 M32.91,150.09c-0.28,0.64-0.42,1.71-0.42,3.22c0,1.51,0.14,2.59,0.42,3.22c0.28,0.64,0.71,0.95,1.29,0.95c0.58,0,1-0.32,1.28-0.95
		c0.28-0.64,0.42-1.71,0.42-3.22c0-1.51-0.14-2.59-0.41-3.22s-0.7-0.95-1.29-0.95C33.62,149.13,33.19,149.45,32.91,150.09z"/>
</g>
<g>
	<path class="st1" d="M30.36,107.32v1.09h-1.15v2.5h-1.3v-2.5h-3.97v-0.98l2.71-6.83l1.15,0.44l-2.47,6.28h2.59l0.14-2.76h1.15v2.76
		H30.36z"/>
	<path class="st1" d="M37.02,101.93c0.52,0.88,0.79,2.19,0.79,3.92c0,1.76-0.26,3.07-0.79,3.94c-0.52,0.87-1.3,1.31-2.32,1.31
		c-1.03,0-1.81-0.44-2.33-1.32s-0.79-2.19-0.79-3.94c0-3.49,1.04-5.24,3.12-5.24C35.72,100.61,36.49,101.05,37.02,101.93z
		 M33.41,102.63c-0.28,0.64-0.42,1.71-0.42,3.22c0,1.51,0.14,2.59,0.42,3.22c0.28,0.64,0.71,0.95,1.29,0.95c0.58,0,1-0.32,1.28-0.95
		c0.28-0.64,0.42-1.71,0.42-3.22c0-1.51-0.14-2.59-0.41-3.22s-0.7-0.95-1.29-0.95C34.12,101.67,33.69,101.99,33.41,102.63z"/>
</g>
<g>
	<rect x="52.4" y="163.62" class="st2" width="7.45" height="133.87"/>
	<rect x="60.15" y="163.62" class="st2" width="7.45" height="133.87"/>
	<rect x="67.75" y="163.62" class="st2" width="7.95" height="133.87"/>
	<rect x="75.5" y="163.62" class="st2" width="7.95" height="133.87"/>
	<rect x="83.25" y="163.62" class="st2" width="7.95" height="133.87"/>
	<rect x="91.35" y="163.62" class="st2" width="7.45" height="133.87"/>
	<rect x="98.96" y="163.62" class="st2" width="7.95" height="133.87"/>
	<rect x="106.71" y="163.62" class="st2" width="7.95" height="133.87"/>
	<rect x="114.46" y="163.62" class="st2" width="7.95" height="133.87"/>
	<rect x="122.56" y="156.99" class="st2" width="7.45" height="140.5"/>
	<rect x="130.16" y="156.99" class="st2" width="7.95" height="140.5"/>
	<rect x="137.91" y="156.99" class="st2" width="7.95" height="140.5"/>
	<rect x="145.66" y="156.99" class="st2" width="7.95" height="140.5"/>
	<rect x="153.76" y="156.99" class="st2" width="7.45" height="140.5"/>
	<rect x="161.36" y="156.99" class="st2" width="7.95" height="140.5"/>
	<rect x="169.11" y="156.99" class="st2" width="7.95" height="140.5"/>
	<rect x="176.87" y="156.99" class="st2" width="7.95" height="140.5"/>
	<rect x="184.97" y="156.99" class="st2" width="7.45" height="140.5"/>
	<rect x="192.72" y="156.99" class="st2" width="7.45" height="140.5"/>
	<rect x="200.32" y="156.99" class="st2" width="7.95" height="140.5"/>
	<rect x="208.07" y="141.42" class="st2" width="7.95" height="156.08"/>
	<rect x="215.82" y="141.42" class="st2" width="7.95" height="156.08"/>
	<rect x="223.92" y="141.42" class="st2" width="7.45" height="156.08"/>
	<rect x="231.52" y="141.42" class="st2" width="7.95" height="156.08"/>
	<rect x="239.28" y="141.42" class="st2" width="7.95" height="156.08"/>
	<rect x="247.03" y="141.42" class="st2" width="7.95" height="156.08"/>
	<rect x="255.13" y="141.42" class="st2" width="7.45" height="156.08"/>
	<rect x="262.73" y="141.42" class="st2" width="7.95" height="156.08"/>
	<rect x="270.48" y="141.42" class="st2" width="7.95" height="156.08"/>
	<rect x="278.23" y="141.42" class="st2" width="7.95" height="156.08"/>
	<rect x="286.33" y="139.41" class="st2" width="7.45" height="158.08"/>
	<rect x="293.93" y="139.41" class="st2" width="7.95" height="158.08"/>
	<rect x="301.68" y="139.41" class="st2" width="7.95" height="158.08"/>
	<rect x="309.44" y="139.41" class="st2" width="7.95" height="158.08"/>
	<rect x="317.54" y="139.41" class="st2" width="7.45" height="158.08"/>
	<rect x="325.14" y="139.41" class="st2" width="7.95" height="158.08"/>
	<rect x="332.89" y="139.41" class="st2" width="7.95" height="158.08"/>
	<rect x="340.64" y="139.41" class="st2" width="7.95" height="158.08"/>
	<rect x="348.74" y="139.41" class="st2" width="7.45" height="158.08"/>
	<rect x="442" y="132.32" class="st2" width="7.95" height="165.17"/>
	<rect x="450.1" y="132.32" class="st2" width="7.45" height="165.17"/>
	<rect x="457.7" y="132.32" class="st2" width="7.95" height="165.17"/>
	<rect x="465.46" y="132.32" class="st2" width="7.95" height="165.17"/>
	<rect x="473.21" y="132.32" class="st2" width="7.95" height="165.17"/>
	<rect x="481.31" y="132.32" class="st2" width="7.45" height="165.17"/>
	<rect x="489.06" y="132.32" class="st2" width="7.45" height="165.17"/>
	<rect x="496.66" y="132.32" class="st2" width="7.95" height="165.17"/>
	<rect x="504.41" y="132.32" class="st2" width="7.95" height="165.17"/>
	<rect x="512.16" y="132.32" class="st2" width="7.95" height="165.17"/>
	<rect x="520.26" y="130.47" class="st2" width="7.45" height="167.02"/>
	<rect x="527.87" y="130.47" class="st2" width="7.95" height="167.02"/>
	<rect x="535.62" y="130.47" class="st2" width="7.95" height="167.02"/>
	<rect x="543.37" y="130.47" class="st2" width="7.95" height="167.02"/>
	<rect x="551.47" y="130.47" class="st2" width="7.45" height="167.02"/>
	<rect x="559.07" y="130.47" class="st2" width="7.95" height="167.02"/>
	<rect x="566.82" y="130.47" class="st2" width="7.95" height="167.02"/>
	<rect x="574.57" y="130.47" class="st2" width="7.95" height="167.02"/>
	<rect x="582.67" y="130.47" class="st2" width="7.45" height="167.02"/>
	<rect x="590.27" y="130.47" class="st2" width="7.95" height="167.02"/>
	<rect x="356.49" y="125.69" class="st2" width="7.45" height="171.8"/>
	<rect x="364.09" y="125.69" class="st2" width="7.95" height="171.8"/>
	<rect x="371.84" y="125.69" class="st2" width="7.95" height="171.8"/>
	<rect x="379.59" y="125.69" class="st2" width="7.95" height="171.8"/>
	<rect x="387.7" y="125.69" class="st2" width="7.45" height="171.8"/>
	<rect x="395.3" y="125.69" class="st2" width="7.95" height="171.8"/>
	<rect x="403.05" y="125.69" class="st2" width="7.95" height="171.8"/>
	<rect x="410.8" y="125.69" class="st2" width="7.95" height="171.8"/>
	<rect x="418.9" y="125.69" class="st2" width="7.45" height="171.8"/>
	<rect x="426.5" y="125.69" class="st2" width="7.95" height="171.8"/>
	<rect x="434.25" y="125.69" class="st2" width="7.95" height="171.8"/>
	<rect x="52.4" y="163.62" class="st3" width="7.45" height="133.87"/>
	<rect x="60.15" y="163.62" class="st3" width="7.45" height="133.87"/>
	<rect x="332.89" y="139.41" class="st3" width="7.95" height="158.08"/>
	<rect x="379.59" y="125.69" class="st3" width="7.95" height="171.8"/>
	<rect x="387.7" y="125.69" class="st3" width="7.45" height="171.8"/>
	<rect x="153.76" y="156.99" class="st3" width="7.45" height="140.5"/>
	<rect x="192.72" y="156.99" class="st3" width="7.45" height="140.5"/>
	<rect x="247.03" y="141.42" class="st3" width="7.95" height="156.08"/>
	<rect x="208.07" y="141.42" class="st3" width="7.95" height="156.08"/>
</g>
<g>
	<path d="M28.35,24.55c0.68,0.27,1.32,0.67,1.92,1.22l-1.23,1.42c-0.47-0.39-0.94-0.68-1.42-0.85c-0.48-0.18-0.98-0.27-1.53-0.27
		c-0.61,0-1.1,0.14-1.47,0.41s-0.56,0.66-0.56,1.15c0,0.33,0.07,0.6,0.22,0.82c0.15,0.22,0.41,0.42,0.79,0.61
		c0.38,0.19,0.94,0.4,1.69,0.63c1.29,0.41,2.26,0.91,2.92,1.51c0.65,0.6,0.98,1.48,0.98,2.63c0,0.79-0.2,1.48-0.6,2.09
		c-0.4,0.61-0.97,1.08-1.72,1.42s-1.63,0.51-2.66,0.51c-1,0-1.9-0.16-2.69-0.48c-0.79-0.32-1.47-0.76-2.04-1.32l1.29-1.44
		c0.51,0.43,1.03,0.76,1.58,0.98s1.15,0.33,1.81,0.33c0.72,0,1.3-0.17,1.75-0.51c0.44-0.34,0.67-0.82,0.67-1.44
		c0-0.38-0.08-0.69-0.23-0.94c-0.15-0.25-0.41-0.47-0.78-0.67s-0.9-0.4-1.6-0.62c-1.39-0.43-2.4-0.95-3.02-1.56
		c-0.62-0.61-0.93-1.41-0.93-2.39c0-0.72,0.19-1.35,0.57-1.9c0.38-0.54,0.91-0.97,1.59-1.27c0.68-0.3,1.45-0.46,2.31-0.46
		C26.86,24.15,27.67,24.28,28.35,24.55z"/>
	<path d="M38.48,37.09c-0.35,0.25-0.75,0.44-1.19,0.57s-0.88,0.19-1.34,0.19c-0.99-0.01-1.74-0.29-2.25-0.85
		c-0.51-0.55-0.77-1.36-0.77-2.44v-5.3h-1.58v-1.75h1.58v-2.22L35.36,25v2.51h2.34l-0.25,1.75h-2.09v5.24
		c0,0.49,0.09,0.85,0.26,1.06c0.17,0.22,0.44,0.32,0.81,0.32c0.37,0,0.77-0.12,1.2-0.36L38.48,37.09z"/>
	<path d="M45.34,22.36l0.93,1.06l-2.64,2.38h-1.52l-2.64-2.38l0.93-1.06l2.47,1.67L45.34,22.36z M45.81,27.38l-0.42,2.36
		c-0.3-0.08-0.6-0.11-0.89-0.11c-0.6,0-1.06,0.21-1.41,0.64c-0.34,0.42-0.61,1.07-0.82,1.95v5.36h-2.43V27.51h2.11l0.23,1.98
		c0.24-0.72,0.59-1.28,1.05-1.66c0.46-0.39,0.98-0.58,1.58-0.58C45.17,27.24,45.51,27.29,45.81,27.38z"/>
	<path d="M54.95,33.29h-6.31c0.08,0.98,0.33,1.67,0.76,2.09s1,0.63,1.71,0.63c0.44,0,0.86-0.07,1.25-0.22s0.81-0.37,1.25-0.67
		l1.01,1.39c-1.11,0.9-2.36,1.35-3.72,1.35c-1.53,0-2.71-0.47-3.54-1.41c-0.83-0.94-1.24-2.22-1.24-3.84c0-1.03,0.18-1.95,0.53-2.76
		c0.35-0.82,0.87-1.46,1.54-1.92c0.67-0.46,1.47-0.69,2.39-0.69c1.41,0,2.5,0.45,3.27,1.34s1.16,2.14,1.16,3.73
		C55.01,32.43,54.99,32.75,54.95,33.29z M52.6,31.6c0-1.76-0.65-2.64-1.96-2.64c-0.6,0-1.06,0.22-1.4,0.66s-0.54,1.14-0.6,2.1h3.95
		V31.6z"/>
	<path d="M65.65,23.48v14.08H63.5l-0.17-1.27c-0.32,0.48-0.72,0.86-1.21,1.14c-0.49,0.28-1.04,0.42-1.66,0.42
		c-1.23,0-2.17-0.48-2.83-1.43c-0.66-0.95-0.99-2.24-0.99-3.88c0-1.03,0.16-1.94,0.49-2.75c0.33-0.8,0.8-1.43,1.42-1.89
		s1.33-0.68,2.14-0.68c0.96,0,1.81,0.36,2.53,1.08v-5.09L65.65,23.48z M62.29,35.69c0.33-0.21,0.64-0.53,0.93-0.98v-4.6
		c-0.29-0.35-0.59-0.62-0.88-0.8c-0.3-0.18-0.64-0.27-1.04-0.27c-0.65,0-1.16,0.29-1.53,0.86c-0.37,0.58-0.56,1.45-0.56,2.61
		c0,1.24,0.16,2.13,0.49,2.67c0.33,0.54,0.81,0.81,1.44,0.81C61.58,36,61.96,35.9,62.29,35.69z"/>
	<path d="M76.03,28.03c0.5,0.54,0.75,1.29,0.75,2.25v7.28h-2.43v-6.9c0-0.6-0.1-1.01-0.31-1.25s-0.52-0.36-0.92-0.36
		c-0.42,0-0.79,0.13-1.13,0.39c-0.34,0.26-0.66,0.64-0.98,1.13v6.99h-2.43V27.51h2.11l0.19,1.31c0.82-1.06,1.84-1.6,3.06-1.6
		C74.83,27.23,75.53,27.49,76.03,28.03z"/>
	<path d="M82.27,21.98l0.99,1.9l-4.29,1.71l-0.68-1.23L82.27,21.98z M82.05,27.51v10.05h-2.43V27.51H82.05z"/>
	<path d="M98.18,23.48v14.08h-2.15l-0.17-1.27c-0.32,0.48-0.72,0.86-1.21,1.14c-0.49,0.28-1.04,0.42-1.66,0.42
		c-1.23,0-2.17-0.48-2.83-1.43c-0.66-0.95-0.99-2.24-0.99-3.88c0-1.03,0.16-1.94,0.49-2.75c0.33-0.8,0.8-1.43,1.42-1.89
		s1.33-0.68,2.14-0.68c0.96,0,1.81,0.36,2.53,1.08v-5.09L98.18,23.48z M94.81,35.69c0.33-0.21,0.64-0.53,0.93-0.98v-4.6
		c-0.29-0.35-0.59-0.62-0.88-0.8c-0.3-0.18-0.64-0.27-1.04-0.27c-0.65,0-1.16,0.29-1.53,0.86c-0.37,0.58-0.56,1.45-0.56,2.61
		c0,1.24,0.16,2.13,0.49,2.67c0.33,0.54,0.81,0.81,1.44,0.81C94.1,36,94.48,35.9,94.81,35.69z"/>
	<path d="M109.29,33.29h-6.31c0.08,0.98,0.33,1.67,0.76,2.09s1,0.63,1.71,0.63c0.44,0,0.86-0.07,1.25-0.22s0.81-0.37,1.25-0.67
		l1.01,1.39c-1.11,0.9-2.36,1.35-3.72,1.35c-1.53,0-2.71-0.47-3.54-1.41c-0.83-0.94-1.24-2.22-1.24-3.84c0-1.03,0.18-1.95,0.53-2.76
		c0.35-0.82,0.87-1.46,1.54-1.92c0.67-0.46,1.47-0.69,2.39-0.69c1.41,0,2.5,0.45,3.27,1.34s1.16,2.14,1.16,3.73
		C109.35,32.43,109.33,32.75,109.29,33.29z M106.42,21.98l0.99,1.9l-4.29,1.71l-0.68-1.23L106.42,21.98z M106.94,31.6
		c0-1.76-0.65-2.64-1.96-2.64c-0.6,0-1.06,0.22-1.4,0.66s-0.54,1.14-0.6,2.1h3.95V31.6z"/>
	<path d="M112.09,37.17c-0.44-0.45-0.66-1.09-0.66-1.91V23.48l2.43-0.27v11.97c0,0.47,0.19,0.7,0.57,0.7c0.19,0,0.38-0.03,0.57-0.1
		l0.51,1.71c-0.51,0.23-1.04,0.34-1.62,0.34C113.14,37.85,112.53,37.62,112.09,37.17z"/>
	<path d="M119.57,23.22v14.35h-2.43V23.48L119.57,23.22z M125.59,27.51l-3.34,4.43l3.67,5.62h-2.79l-3.46-5.49l3.36-4.56H125.59z"/>
	<path d="M134.61,35.77c0.12,0.18,0.31,0.33,0.58,0.43l-0.51,1.62c-0.57-0.05-1.04-0.19-1.4-0.42c-0.36-0.23-0.64-0.58-0.83-1.04
		c-0.34,0.51-0.77,0.88-1.28,1.13c-0.51,0.25-1.09,0.37-1.72,0.37c-1,0-1.79-0.29-2.38-0.85c-0.58-0.57-0.87-1.32-0.87-2.24
		c0-1.09,0.4-1.92,1.19-2.5c0.79-0.58,1.92-0.86,3.39-0.86h1.25v-0.57c0-0.65-0.15-1.1-0.45-1.36c-0.3-0.26-0.78-0.39-1.43-0.39
		c-0.73,0-1.62,0.18-2.66,0.53l-0.57-1.65c1.25-0.48,2.47-0.72,3.65-0.72c2.57,0,3.86,1.15,3.86,3.46v4.22
		C134.43,35.29,134.49,35.58,134.61,35.77z M132.03,34.84v-2.03h-1.01c-1.57,0-2.36,0.58-2.36,1.75c0,0.48,0.12,0.85,0.36,1.12
		c0.24,0.27,0.6,0.4,1.06,0.4C130.92,36.08,131.57,35.67,132.03,34.84z"/>
	<path d="M148.66,27.51v1.75l-4.86,6.4h4.96l-0.25,1.9H141v-1.75l4.88-6.4h-4.47v-1.9H148.66z M147.42,22.36l0.93,1.06l-2.64,2.38
		h-1.52l-2.64-2.38l0.93-1.06l2.47,1.67L147.42,22.36z"/>
	<path d="M152.96,22.85c0.29,0.28,0.43,0.64,0.43,1.05s-0.14,0.77-0.43,1.04c-0.29,0.28-0.66,0.42-1.11,0.42
		c-0.44,0-0.81-0.14-1.09-0.42c-0.28-0.28-0.43-0.63-0.43-1.04s0.14-0.77,0.43-1.05c0.29-0.29,0.65-0.43,1.09-0.43
		C152.31,22.42,152.68,22.56,152.96,22.85z M153.09,27.51v10.05h-2.43V27.51H153.09z"/>
	<path d="M164.09,27.51l-3.27,10.05h-2.91l-3.32-10.05h2.64l2.15,8.09l2.2-8.09H164.09z"/>
	<path d="M173.05,28.64c0.83,0.94,1.24,2.24,1.24,3.89c0,1.05-0.19,1.98-0.57,2.78c-0.38,0.8-0.92,1.43-1.63,1.87
		c-0.71,0.44-1.55,0.67-2.53,0.67c-1.48,0-2.64-0.47-3.48-1.42c-0.84-0.94-1.25-2.25-1.25-3.9c0-1.05,0.19-1.98,0.57-2.77
		c0.38-0.8,0.93-1.42,1.64-1.86c0.72-0.44,1.56-0.67,2.54-0.67C171.06,27.23,172.22,27.7,173.05,28.64z M167.39,32.53
		c0,1.19,0.18,2.07,0.54,2.63c0.36,0.56,0.9,0.85,1.62,0.85c0.72,0,1.26-0.28,1.62-0.85c0.36-0.57,0.54-1.44,0.54-2.62
		c0-1.18-0.18-2.05-0.54-2.61c-0.36-0.56-0.9-0.85-1.61-0.85C168.12,29.07,167.39,30.22,167.39,32.53z"/>
	<path d="M182.33,37.09c-0.35,0.25-0.75,0.44-1.19,0.57s-0.88,0.19-1.34,0.19c-0.99-0.01-1.74-0.29-2.25-0.85
		c-0.51-0.55-0.77-1.36-0.77-2.44v-5.3h-1.58v-1.75h1.58v-2.22l2.43-0.29v2.51h2.34l-0.25,1.75h-2.09v5.24
		c0,0.49,0.09,0.85,0.26,1.06c0.17,0.22,0.44,0.32,0.81,0.32c0.37,0,0.77-0.12,1.2-0.36L182.33,37.09z"/>
	<path d="M191.11,35.77c0.12,0.18,0.31,0.33,0.58,0.43l-0.51,1.62c-0.57-0.05-1.04-0.19-1.4-0.42c-0.36-0.23-0.64-0.58-0.83-1.04
		c-0.34,0.51-0.77,0.88-1.28,1.13c-0.51,0.25-1.09,0.37-1.72,0.37c-1,0-1.79-0.29-2.38-0.85c-0.58-0.57-0.87-1.32-0.87-2.24
		c0-1.09,0.4-1.92,1.19-2.5c0.79-0.58,1.92-0.86,3.39-0.86h1.25v-0.57c0-0.65-0.15-1.1-0.45-1.36c-0.3-0.26-0.78-0.39-1.43-0.39
		c-0.73,0-1.62,0.18-2.66,0.53l-0.57-1.65c1.25-0.48,2.47-0.72,3.65-0.72c2.57,0,3.86,1.15,3.86,3.46v4.22
		C190.93,35.29,190.99,35.58,191.11,35.77z M188.54,34.84v-2.03h-1.01c-1.57,0-2.36,0.58-2.36,1.75c0,0.48,0.12,0.85,0.36,1.12
		c0.24,0.27,0.6,0.4,1.06,0.4C187.43,36.08,188.07,35.67,188.54,34.84z"/>
	<path d="M206.7,27.51l-3.27,10.05h-2.91l-3.32-10.05h2.64l2.15,8.09l2.2-8.09H206.7z"/>
	<path d="M218.24,24.77v12.79h-2.39V27.23l-2.85,1.73l-1.06-1.63l4.16-2.55H218.24z"/>
	<path d="M228.48,25.89c0.77,0.89,1.16,2.1,1.16,3.62c0,1.74-0.26,3.16-0.78,4.27s-1.32,1.99-2.39,2.65
		c-1.08,0.66-2.5,1.2-4.27,1.62l-0.51-1.73c1.67-0.44,2.94-1.02,3.81-1.72c0.87-0.7,1.38-1.66,1.55-2.88
		c-0.7,0.89-1.61,1.33-2.74,1.33c-0.66,0-1.26-0.17-1.81-0.5c-0.55-0.34-0.98-0.82-1.3-1.45c-0.32-0.63-0.48-1.37-0.48-2.2
		c0-0.87,0.2-1.64,0.59-2.29c0.39-0.65,0.93-1.16,1.61-1.51s1.43-0.53,2.25-0.53C226.6,24.55,227.71,24.99,228.48,25.89z
		 M227.15,29.96c0.01-1.3-0.14-2.23-0.45-2.78c-0.31-0.55-0.83-0.83-1.55-0.83c-0.63,0-1.13,0.22-1.48,0.65s-0.53,1.04-0.53,1.84
		c0,0.84,0.17,1.45,0.5,1.84c0.34,0.39,0.78,0.59,1.32,0.59C225.82,31.27,226.55,30.84,227.15,29.96z"/>
	<path d="M233.74,35.22c0.3,0.3,0.46,0.66,0.46,1.09c0,0.42-0.15,0.78-0.46,1.08c-0.3,0.3-0.67,0.46-1.1,0.46
		c-0.42,0-0.78-0.15-1.07-0.46c-0.3-0.3-0.45-0.67-0.45-1.08c0-0.43,0.15-0.79,0.44-1.09c0.29-0.3,0.65-0.45,1.08-0.45
		C233.07,34.77,233.44,34.92,233.74,35.22z"/>
	<path d="M247.9,28.42l-0.95,1.43c-0.86-0.54-1.7-0.82-2.53-0.82c-0.48,0-0.85,0.09-1.12,0.28c-0.27,0.18-0.4,0.43-0.4,0.73
		c0,0.23,0.06,0.42,0.17,0.57c0.11,0.15,0.32,0.29,0.62,0.43c0.3,0.13,0.74,0.28,1.32,0.45c1.09,0.29,1.9,0.68,2.42,1.16
		c0.53,0.48,0.79,1.15,0.79,2.01c0,1-0.41,1.78-1.22,2.35s-1.82,0.85-3.02,0.85c-0.82,0-1.57-0.13-2.25-0.38
		c-0.68-0.25-1.26-0.6-1.76-1.04l1.22-1.37c0.87,0.66,1.79,0.99,2.74,0.99c0.54,0,0.98-0.11,1.3-0.32c0.32-0.22,0.48-0.51,0.48-0.89
		c0-0.29-0.06-0.52-0.18-0.69c-0.12-0.17-0.34-0.32-0.65-0.46c-0.31-0.13-0.79-0.29-1.45-0.48c-1.03-0.28-1.78-0.67-2.26-1.17
		c-0.48-0.5-0.72-1.12-0.72-1.87c0-0.56,0.16-1.06,0.48-1.5c0.32-0.44,0.78-0.79,1.37-1.04c0.59-0.25,1.26-0.38,2.02-0.38
		C245.68,27.23,246.87,27.62,247.9,28.42z"/>
	<path d="M255.95,37.09c-0.35,0.25-0.75,0.44-1.19,0.57s-0.88,0.19-1.34,0.19c-0.99-0.01-1.74-0.29-2.25-0.85
		c-0.51-0.55-0.77-1.36-0.77-2.44v-5.3h-1.58v-1.75h1.58v-2.22l2.43-0.29v2.51h2.34l-0.25,1.75h-2.09v5.24
		c0,0.49,0.09,0.85,0.26,1.06c0.17,0.22,0.44,0.32,0.81,0.32c0.37,0,0.77-0.12,1.2-0.36L255.95,37.09z"/>
	<path d="M264.57,28.64c0.83,0.94,1.24,2.24,1.24,3.89c0,1.05-0.19,1.98-0.57,2.78c-0.38,0.8-0.92,1.43-1.63,1.87
		c-0.71,0.44-1.55,0.67-2.53,0.67c-1.48,0-2.64-0.47-3.48-1.42c-0.84-0.94-1.25-2.25-1.25-3.9c0-1.05,0.19-1.98,0.57-2.77
		c0.38-0.8,0.93-1.42,1.64-1.86c0.72-0.44,1.56-0.67,2.54-0.67C262.58,27.23,263.74,27.7,264.57,28.64z M258.92,32.53
		c0,1.19,0.18,2.07,0.54,2.63c0.36,0.56,0.9,0.85,1.62,0.85c0.72,0,1.26-0.28,1.62-0.85c0.36-0.57,0.54-1.44,0.54-2.62
		c0-1.18-0.18-2.05-0.54-2.61c-0.36-0.56-0.9-0.85-1.61-0.85C259.64,29.07,258.92,30.22,258.92,32.53z"/>
	<path d="M268.65,37.17c-0.44-0.45-0.66-1.09-0.66-1.91V23.48l2.43-0.27v11.97c0,0.47,0.19,0.7,0.57,0.7c0.19,0,0.38-0.03,0.57-0.1
		l0.51,1.71c-0.51,0.23-1.04,0.34-1.62,0.34C269.7,37.85,269.09,37.62,268.65,37.17z"/>
	<path d="M281.79,33.29h-6.31c0.08,0.98,0.33,1.67,0.76,2.09s1,0.63,1.71,0.63c0.44,0,0.86-0.07,1.25-0.22s0.81-0.37,1.25-0.67
		l1.01,1.39c-1.11,0.9-2.36,1.35-3.72,1.35c-1.53,0-2.71-0.47-3.54-1.41c-0.83-0.94-1.24-2.22-1.24-3.84c0-1.03,0.18-1.95,0.53-2.76
		c0.35-0.82,0.87-1.46,1.54-1.92c0.67-0.46,1.47-0.69,2.39-0.69c1.41,0,2.5,0.45,3.27,1.34s1.16,2.14,1.16,3.73
		C281.85,32.43,281.83,32.75,281.79,33.29z M279.44,31.6c0-1.76-0.65-2.64-1.96-2.64c-0.6,0-1.06,0.22-1.4,0.66s-0.54,1.14-0.6,2.1
		h3.95V31.6z"/>
	<path d="M289.79,37.09c-0.35,0.25-0.75,0.44-1.19,0.57s-0.88,0.19-1.34,0.19c-0.99-0.01-1.74-0.29-2.25-0.85
		c-0.51-0.55-0.77-1.36-0.77-2.44v-5.3h-1.58v-1.75h1.58v-2.22l2.43-0.29v2.51h2.34l-0.25,1.75h-2.09v5.24
		c0,0.49,0.09,0.85,0.26,1.06c0.17,0.22,0.44,0.32,0.81,0.32c0.37,0,0.77-0.12,1.2-0.36L289.79,37.09z"/>
	<path d="M293.82,21.98l0.99,1.9l-4.29,1.71l-0.68-1.23L293.82,21.98z M293.59,27.51v10.05h-2.43V27.51H293.59z"/>
</g>
<g>
	<path class="st4" d="M317.61,114.91c0,0,18.16,0.04,20.69,19.78"/>
	<polyline class="st4" points="335.4,132.71 338.33,135.03 340.61,132.16 	"/>
</g>
<g>
	<line class="st5" x1="52.36" y1="107.66" x2="598.26" y2="107.66"/>
	<line class="st5" x1="52.36" y1="155.14" x2="598.26" y2="155.14"/>
	<line class="st5" x1="52.36" y1="202.63" x2="598.26" y2="202.63"/>
	<line class="st5" x1="52.36" y1="249.97" x2="598.26" y2="249.97"/>
	<g>
	</g>
</g>
<g>
	<path class="st4" d="M69.31,124.97c0,0-10.01,8.13-8.05,27.94"/>
	<polyline class="st4" points="63.64,150.34 61.31,153.25 58.44,150.96 	"/>
</g>
<g>
	<path class="st4" d="M398.8,92.51c0,0-10.01,8.13-8.05,27.94"/>
	<polyline class="st4" points="393.13,117.87 390.8,120.79 387.94,118.5 	"/>
</g>
<g>
	<path d="M59.06,96.45v6.69h-0.89v-5.75l-1.39,0.94l-0.41-0.6l1.9-1.28H59.06z"/>
	<path d="M64.31,100.31c0.21,0.29,0.32,0.64,0.32,1.06c0,0.37-0.09,0.7-0.26,0.99c-0.17,0.29-0.42,0.51-0.75,0.67
		c-0.32,0.16-0.7,0.24-1.12,0.24c-0.42,0-0.79-0.08-1.11-0.24c-0.32-0.16-0.56-0.38-0.73-0.66c-0.17-0.29-0.25-0.61-0.25-0.98
		c0-0.83,0.42-1.42,1.27-1.78c-0.36-0.19-0.62-0.41-0.78-0.66c-0.16-0.25-0.24-0.54-0.24-0.89c0-0.36,0.08-0.67,0.25-0.93
		c0.17-0.26,0.39-0.46,0.67-0.59s0.59-0.2,0.93-0.2c0.53,0,0.98,0.15,1.33,0.44s0.54,0.71,0.54,1.24c0,0.34-0.09,0.63-0.26,0.88
		c-0.17,0.25-0.45,0.47-0.83,0.67C63.76,99.77,64.1,100.02,64.31,100.31z M63.42,102.26c0.21-0.2,0.32-0.5,0.32-0.89
		c0-0.35-0.09-0.63-0.26-0.83c-0.18-0.2-0.49-0.39-0.95-0.58l-0.28-0.11c-0.32,0.17-0.56,0.37-0.71,0.61
		c-0.15,0.24-0.23,0.54-0.23,0.9c0,0.4,0.11,0.7,0.32,0.9c0.21,0.2,0.51,0.3,0.89,0.3S63.2,102.46,63.42,102.26z M61.8,97.26
		c-0.18,0.18-0.27,0.44-0.27,0.81c0,0.3,0.08,0.53,0.23,0.7c0.15,0.17,0.41,0.33,0.76,0.48l0.23,0.1c0.28-0.19,0.48-0.38,0.59-0.58
		c0.12-0.2,0.17-0.43,0.17-0.71c0-0.35-0.09-0.62-0.26-0.79C63.09,97.08,62.85,97,62.53,97C62.23,97,61.98,97.08,61.8,97.26z"/>
	<path d="M68.03,96.56c0.27,0.15,0.48,0.35,0.63,0.61c0.15,0.26,0.22,0.54,0.22,0.84c0,0.43-0.11,0.77-0.33,1.04
		s-0.53,0.44-0.94,0.54c0.44,0.04,0.79,0.2,1.06,0.48c0.27,0.28,0.4,0.67,0.4,1.17c0,0.38-0.08,0.72-0.25,1.03s-0.41,0.55-0.73,0.73
		c-0.32,0.18-0.69,0.27-1.11,0.27c-0.39,0-0.73-0.08-1.04-0.22c-0.3-0.15-0.58-0.38-0.83-0.69l0.54-0.46
		c0.21,0.23,0.41,0.39,0.62,0.5s0.43,0.16,0.69,0.16c0.37,0,0.66-0.12,0.88-0.36c0.22-0.24,0.32-0.56,0.32-0.97
		c0-0.44-0.11-0.76-0.32-0.96c-0.22-0.2-0.53-0.29-0.94-0.29h-0.42l0.11-0.67h0.28c0.33,0,0.61-0.1,0.83-0.31
		c0.22-0.21,0.33-0.5,0.33-0.89c0-0.33-0.09-0.59-0.28-0.78c-0.18-0.19-0.43-0.28-0.75-0.28c-0.23,0-0.45,0.05-0.64,0.14
		c-0.2,0.09-0.4,0.24-0.59,0.44l-0.47-0.48c0.52-0.53,1.12-0.8,1.8-0.8C67.44,96.34,67.76,96.41,68.03,96.56z"/>
	<path d="M73.67,97.21c0.35,0.58,0.52,1.44,0.52,2.59c0,1.16-0.17,2.03-0.52,2.6c-0.35,0.58-0.86,0.87-1.53,0.87
		c-0.68,0-1.19-0.29-1.54-0.87s-0.52-1.45-0.52-2.6c0-2.31,0.69-3.46,2.06-3.46C72.82,96.34,73.33,96.63,73.67,97.21z M71.29,97.67
		c-0.18,0.42-0.27,1.13-0.27,2.12c0,1,0.09,1.71,0.27,2.13c0.18,0.42,0.47,0.63,0.86,0.63c0.38,0,0.66-0.21,0.84-0.63
		s0.28-1.13,0.28-2.13s-0.09-1.71-0.27-2.13c-0.18-0.42-0.46-0.63-0.85-0.63S71.47,97.25,71.29,97.67z"/>
	<path d="M75.29,100.38v-0.74h2.59v0.74H75.29z"/>
	<path d="M80.84,96.56c0.27,0.15,0.48,0.35,0.63,0.61c0.15,0.26,0.22,0.54,0.22,0.84c0,0.43-0.11,0.77-0.33,1.04
		c-0.22,0.26-0.53,0.44-0.94,0.54c0.44,0.04,0.79,0.2,1.06,0.48c0.27,0.28,0.4,0.67,0.4,1.17c0,0.38-0.08,0.72-0.25,1.03
		s-0.41,0.55-0.73,0.73c-0.32,0.18-0.68,0.27-1.1,0.27c-0.39,0-0.73-0.08-1.04-0.22c-0.3-0.15-0.58-0.38-0.83-0.69l0.54-0.46
		c0.21,0.23,0.41,0.39,0.62,0.5c0.2,0.1,0.43,0.16,0.68,0.16c0.37,0,0.66-0.12,0.88-0.36c0.22-0.24,0.33-0.56,0.33-0.97
		c0-0.44-0.11-0.76-0.33-0.96s-0.53-0.29-0.93-0.29h-0.42l0.11-0.67h0.28c0.33,0,0.61-0.1,0.83-0.31c0.22-0.21,0.33-0.5,0.33-0.89
		c0-0.33-0.09-0.59-0.28-0.78c-0.18-0.19-0.44-0.28-0.75-0.28c-0.23,0-0.45,0.05-0.65,0.14c-0.2,0.09-0.39,0.24-0.59,0.44
		l-0.47-0.48c0.52-0.53,1.12-0.8,1.8-0.8C80.25,96.34,80.57,96.41,80.84,96.56z"/>
	<path d="M85.04,96.45v6.69h-0.89v-5.75l-1.39,0.94l-0.41-0.6l1.9-1.28H85.04z"/>
	<path d="M60.9,109.79c0.33,0.13,0.64,0.33,0.94,0.6l-0.56,0.76c-0.22-0.18-0.45-0.31-0.67-0.4c-0.22-0.09-0.47-0.13-0.73-0.13
		c-0.55,0-0.98,0.23-1.28,0.7s-0.46,1.2-0.46,2.18c0,1.85,0.58,2.77,1.74,2.77c0.26,0,0.5-0.04,0.71-0.13s0.44-0.22,0.69-0.4
		l0.59,0.77c-0.6,0.54-1.27,0.81-2.03,0.81c-0.94,0-1.68-0.33-2.22-0.98c-0.54-0.65-0.81-1.6-0.81-2.83c0-0.8,0.12-1.5,0.37-2.09
		s0.6-1.04,1.05-1.36c0.45-0.32,0.98-0.48,1.59-0.48C60.21,109.59,60.57,109.65,60.9,109.79z"/>
	<path d="M67.92,110.18c0.33,0.39,0.5,0.92,0.5,1.6v5.36h-1.26v-5.21c0-0.48-0.08-0.82-0.25-1.03s-0.4-0.31-0.72-0.31
		c-0.62,0-1.18,0.44-1.68,1.32v5.24h-1.26V106.8l1.26-0.14v4.16c0.27-0.4,0.57-0.71,0.9-0.92c0.33-0.21,0.71-0.31,1.13-0.31
		C67.13,109.59,67.59,109.79,67.92,110.18z"/>
	<path d="M75.39,110.58c0.52,0.66,0.78,1.61,0.78,2.86c0,1.2-0.27,2.14-0.8,2.83c-0.53,0.7-1.26,1.04-2.2,1.04
		c-0.94,0-1.68-0.34-2.21-1.02s-0.79-1.63-0.79-2.84c0-1.22,0.27-2.17,0.8-2.85s1.27-1.01,2.21-1.01S74.87,109.92,75.39,110.58z
		 M71.93,111.29c-0.29,0.46-0.43,1.18-0.43,2.16c0,1.91,0.56,2.87,1.68,2.87c1.12,0,1.68-0.96,1.68-2.88c0-0.98-0.14-1.7-0.42-2.16
		c-0.28-0.46-0.7-0.69-1.25-0.69S72.22,110.83,71.93,111.29z"/>
	<path d="M78.31,116.91c-0.26-0.27-0.39-0.65-0.39-1.13v-8.99l1.26-0.14v9.09c0,0.36,0.15,0.55,0.45,0.55
		c0.12,0,0.26-0.03,0.41-0.08l0.28,0.88c-0.3,0.16-0.61,0.24-0.94,0.24C78.93,117.32,78.58,117.18,78.31,116.91z"/>
	<path d="M86.76,113.89h-4.28c0.04,0.86,0.21,1.48,0.52,1.86c0.31,0.38,0.73,0.57,1.26,0.57c0.34,0,0.64-0.05,0.9-0.15
		c0.27-0.1,0.54-0.27,0.83-0.5l0.56,0.74c-0.69,0.62-1.47,0.92-2.35,0.92c-0.96,0-1.71-0.33-2.23-1c-0.53-0.67-0.79-1.6-0.79-2.81
		s0.25-2.16,0.76-2.86c0.5-0.7,1.2-1.06,2.1-1.06c0.89,0,1.57,0.31,2.04,0.95c0.48,0.63,0.71,1.53,0.71,2.69
		C86.78,113.43,86.78,113.65,86.76,113.89z M85.57,112.85c0-1.54-0.51-2.31-1.53-2.31c-0.47,0-0.84,0.19-1.11,0.58
		c-0.27,0.39-0.42,1.01-0.46,1.88h3.09V112.85z"/>
	<path d="M92.19,109.69l-0.21,1.22c-0.18-0.06-0.37-0.08-0.57-0.08c-0.41,0-0.74,0.16-1,0.49c-0.26,0.33-0.46,0.83-0.61,1.5v4.33
		h-1.26v-7.36h1.09l0.1,1.46c0.36-1.08,0.97-1.62,1.83-1.62C91.8,109.6,92.01,109.63,92.19,109.69z"/>
	<path d="M97.7,116.12c0.08,0.14,0.21,0.25,0.39,0.33l-0.27,0.85c-0.36-0.06-0.65-0.17-0.85-0.34c-0.21-0.17-0.35-0.42-0.43-0.77
		c-0.48,0.75-1.14,1.12-2,1.12c-0.65,0-1.17-0.2-1.55-0.61c-0.38-0.41-0.57-0.95-0.57-1.63c0-0.78,0.26-1.38,0.77-1.79
		c0.51-0.41,1.25-0.62,2.2-0.62h0.95v-0.63c0-0.51-0.1-0.88-0.31-1.11s-0.55-0.34-1.03-0.34c-0.51,0-1.11,0.13-1.79,0.39l-0.31-0.88
		c0.82-0.34,1.59-0.5,2.3-0.5c1.6,0,2.39,0.8,2.39,2.39v3.47C97.58,115.75,97.62,115.98,97.7,116.12z M96.33,115.22v-1.74h-0.81
		c-1.21,0-1.82,0.51-1.82,1.53c0,0.44,0.1,0.77,0.29,1.01s0.48,0.35,0.84,0.35C95.49,116.37,95.99,115.98,96.33,115.22z"/>
</g>
<g class="st7">
	<path d="M148.8,126.9v6.69h-0.89v-5.75l-1.39,0.94l-0.41-0.6l1.9-1.28H148.8z"/>
	<path d="M154.05,130.76c0.21,0.29,0.32,0.64,0.32,1.06c0,0.37-0.09,0.7-0.26,0.99c-0.17,0.29-0.42,0.51-0.75,0.67
		c-0.32,0.16-0.7,0.24-1.12,0.24c-0.42,0-0.79-0.08-1.1-0.24c-0.32-0.16-0.56-0.38-0.73-0.66c-0.17-0.29-0.25-0.61-0.25-0.98
		c0-0.83,0.42-1.42,1.27-1.78c-0.36-0.19-0.62-0.41-0.78-0.66c-0.16-0.25-0.24-0.54-0.24-0.89c0-0.36,0.08-0.67,0.25-0.93
		c0.17-0.26,0.39-0.46,0.67-0.59s0.6-0.2,0.94-0.2c0.53,0,0.98,0.15,1.33,0.44s0.54,0.71,0.54,1.24c0,0.34-0.09,0.63-0.26,0.88
		c-0.17,0.25-0.45,0.47-0.83,0.67C153.5,130.23,153.84,130.48,154.05,130.76z M153.15,132.72c0.21-0.2,0.32-0.5,0.32-0.89
		c0-0.35-0.09-0.63-0.27-0.83c-0.18-0.2-0.49-0.39-0.94-0.58l-0.28-0.11c-0.32,0.17-0.56,0.37-0.71,0.61s-0.23,0.54-0.23,0.9
		c0,0.4,0.11,0.7,0.32,0.9s0.51,0.3,0.89,0.3S152.94,132.92,153.15,132.72z M151.54,127.72c-0.18,0.18-0.27,0.44-0.27,0.81
		c0,0.3,0.08,0.53,0.23,0.7s0.41,0.33,0.77,0.48l0.23,0.1c0.28-0.19,0.48-0.38,0.6-0.58c0.12-0.2,0.17-0.43,0.17-0.71
		c0-0.35-0.09-0.62-0.26-0.79c-0.17-0.18-0.42-0.27-0.73-0.27C151.96,127.45,151.72,127.54,151.54,127.72z"/>
	<path d="M159.34,131.22v0.72h-0.76v1.65h-0.86v-1.65h-2.62v-0.65l1.79-4.51l0.76,0.29l-1.63,4.15h1.71l0.09-1.82h0.76v1.82H159.34z
		"/>
	<path d="M162.47,127.02c0.27,0.15,0.48,0.35,0.63,0.61c0.15,0.26,0.22,0.54,0.22,0.84c0,0.43-0.11,0.77-0.33,1.04
		c-0.22,0.26-0.53,0.44-0.94,0.54c0.44,0.04,0.79,0.2,1.06,0.48c0.27,0.28,0.4,0.67,0.4,1.17c0,0.38-0.08,0.72-0.25,1.03
		s-0.41,0.55-0.73,0.73c-0.32,0.18-0.69,0.27-1.1,0.27c-0.39,0-0.73-0.08-1.04-0.22c-0.3-0.15-0.58-0.38-0.83-0.69l0.54-0.46
		c0.21,0.23,0.41,0.39,0.62,0.5c0.2,0.1,0.43,0.16,0.69,0.16c0.37,0,0.66-0.12,0.88-0.36c0.22-0.24,0.32-0.56,0.32-0.97
		c0-0.44-0.11-0.76-0.32-0.96c-0.22-0.2-0.53-0.29-0.94-0.29h-0.42l0.11-0.67h0.28c0.33,0,0.61-0.1,0.83-0.31
		c0.22-0.21,0.33-0.5,0.33-0.89c0-0.33-0.09-0.59-0.28-0.78c-0.18-0.19-0.44-0.28-0.75-0.28c-0.23,0-0.45,0.05-0.65,0.14
		s-0.4,0.24-0.59,0.44l-0.47-0.48c0.52-0.53,1.12-0.8,1.8-0.8C161.88,126.8,162.2,126.87,162.47,127.02z"/>
	<path d="M150.24,138.08c0.37,0.2,0.65,0.46,0.83,0.79c0.19,0.33,0.28,0.68,0.28,1.06c0,0.35-0.05,0.64-0.16,0.89
		c-0.11,0.25-0.24,0.45-0.41,0.61c-0.16,0.16-0.38,0.34-0.64,0.55c-0.36,0.29-0.63,0.56-0.81,0.8c-0.18,0.24-0.27,0.57-0.27,0.97
		v0.63h-1.19v-0.7c0-0.39,0.06-0.73,0.17-1s0.26-0.5,0.42-0.67c0.16-0.17,0.38-0.36,0.65-0.57c0.32-0.24,0.55-0.46,0.71-0.67
		c0.15-0.2,0.23-0.46,0.23-0.79c0-0.36-0.11-0.65-0.34-0.85c-0.22-0.21-0.53-0.31-0.91-0.31c-0.33,0-0.63,0.08-0.91,0.23
		c-0.28,0.15-0.56,0.39-0.84,0.72l-0.78-0.62c0.35-0.46,0.75-0.8,1.18-1.03c0.43-0.23,0.91-0.34,1.46-0.34
		C149.43,137.78,149.87,137.88,150.24,138.08z M149.13,146.26c0.16,0.17,0.25,0.38,0.25,0.62s-0.08,0.45-0.25,0.63
		c-0.16,0.18-0.38,0.27-0.64,0.27c-0.25,0-0.46-0.09-0.62-0.27c-0.16-0.18-0.24-0.39-0.24-0.63s0.08-0.45,0.24-0.62
		c0.16-0.17,0.37-0.26,0.62-0.26C148.75,146,148.97,146.09,149.13,146.26z"/>
</g>
<g class="st7">
	<path d="M250.59,114.1v6.69h-0.89v-5.75l-1.39,0.94l-0.41-0.6l1.9-1.28H250.59z"/>
	<path d="M255.84,117.96c0.21,0.29,0.32,0.64,0.32,1.06c0,0.37-0.09,0.7-0.26,0.99c-0.17,0.29-0.42,0.51-0.75,0.67
		c-0.32,0.16-0.7,0.24-1.12,0.24c-0.42,0-0.79-0.08-1.1-0.24c-0.32-0.16-0.56-0.38-0.73-0.66c-0.17-0.29-0.25-0.61-0.25-0.98
		c0-0.83,0.42-1.42,1.27-1.78c-0.36-0.19-0.62-0.41-0.78-0.66c-0.16-0.25-0.24-0.54-0.24-0.89c0-0.36,0.08-0.67,0.25-0.93
		c0.17-0.26,0.39-0.46,0.67-0.59s0.6-0.2,0.94-0.2c0.53,0,0.98,0.15,1.33,0.44s0.54,0.71,0.54,1.24c0,0.34-0.09,0.63-0.26,0.88
		c-0.17,0.25-0.45,0.47-0.83,0.67C255.29,117.43,255.62,117.67,255.84,117.96z M254.94,119.92c0.21-0.2,0.32-0.5,0.32-0.89
		c0-0.35-0.09-0.63-0.27-0.83c-0.18-0.2-0.49-0.39-0.94-0.58l-0.28-0.11c-0.32,0.17-0.56,0.37-0.71,0.61s-0.23,0.54-0.23,0.9
		c0,0.4,0.11,0.7,0.32,0.9s0.51,0.3,0.89,0.3S254.72,120.12,254.94,119.92z M253.33,114.92c-0.18,0.18-0.27,0.44-0.27,0.81
		c0,0.3,0.08,0.53,0.23,0.7s0.41,0.33,0.77,0.48l0.23,0.1c0.28-0.19,0.48-0.38,0.6-0.58c0.12-0.2,0.17-0.43,0.17-0.71
		c0-0.35-0.09-0.62-0.26-0.79c-0.17-0.18-0.42-0.27-0.73-0.27C253.75,114.65,253.51,114.74,253.33,114.92z"/>
	<path d="M260.39,114.8h-2.34v2c0.31-0.19,0.64-0.28,0.98-0.28c0.51,0,0.93,0.19,1.24,0.56c0.31,0.37,0.47,0.89,0.47,1.55
		c0,0.45-0.09,0.84-0.27,1.19s-0.42,0.62-0.74,0.81c-0.32,0.19-0.69,0.29-1.12,0.29c-0.38,0-0.71-0.07-1-0.22s-0.56-0.36-0.83-0.65
		l0.53-0.48c0.19,0.21,0.39,0.36,0.59,0.46c0.2,0.1,0.43,0.16,0.69,0.16c0.39,0,0.69-0.14,0.9-0.41c0.21-0.27,0.32-0.66,0.32-1.17
		c0-0.95-0.36-1.43-1.08-1.43c-0.16,0-0.31,0.02-0.44,0.06c-0.13,0.04-0.28,0.11-0.45,0.21h-0.65v-3.36h3.32L260.39,114.8z"/>
	<path d="M264.93,114.8h-2.34v2c0.31-0.19,0.64-0.28,0.98-0.28c0.51,0,0.93,0.19,1.24,0.56c0.31,0.37,0.47,0.89,0.47,1.55
		c0,0.45-0.09,0.84-0.27,1.19s-0.42,0.62-0.74,0.81c-0.32,0.19-0.69,0.29-1.12,0.29c-0.38,0-0.71-0.07-1-0.22s-0.56-0.36-0.83-0.65
		l0.53-0.48c0.19,0.21,0.39,0.36,0.59,0.46c0.2,0.1,0.43,0.16,0.69,0.16c0.39,0,0.69-0.14,0.9-0.41c0.21-0.27,0.32-0.66,0.32-1.17
		c0-0.95-0.36-1.43-1.08-1.43c-0.16,0-0.31,0.02-0.44,0.06c-0.13,0.04-0.28,0.11-0.45,0.21h-0.65v-3.36h3.32L264.93,114.8z"/>
	<path d="M252.02,125.28c0.37,0.2,0.65,0.46,0.83,0.79c0.19,0.33,0.28,0.68,0.28,1.06c0,0.35-0.05,0.64-0.16,0.89
		c-0.11,0.25-0.24,0.45-0.41,0.61c-0.16,0.16-0.38,0.34-0.64,0.55c-0.36,0.29-0.63,0.56-0.81,0.8c-0.18,0.24-0.27,0.57-0.27,0.97
		v0.63h-1.19v-0.7c0-0.39,0.06-0.73,0.17-1s0.26-0.5,0.42-0.67c0.16-0.17,0.38-0.36,0.65-0.57c0.32-0.24,0.55-0.46,0.71-0.67
		c0.15-0.2,0.23-0.46,0.23-0.79c0-0.36-0.11-0.65-0.34-0.85c-0.22-0.21-0.53-0.31-0.91-0.31c-0.33,0-0.63,0.08-0.91,0.23
		c-0.28,0.15-0.56,0.39-0.84,0.72l-0.78-0.62c0.35-0.46,0.75-0.8,1.18-1.03c0.43-0.23,0.91-0.34,1.46-0.34
		C251.21,124.98,251.65,125.08,252.02,125.28z M250.92,133.45c0.16,0.17,0.25,0.38,0.25,0.62s-0.08,0.45-0.25,0.63
		c-0.16,0.18-0.38,0.27-0.64,0.27c-0.25,0-0.46-0.09-0.62-0.27c-0.16-0.18-0.24-0.39-0.24-0.63s0.08-0.45,0.24-0.62
		c0.16-0.17,0.37-0.26,0.62-0.26C250.54,133.19,250.75,133.28,250.92,133.45z"/>
</g>
<g class="st7">
	<path d="M211.01,114.1v6.69h-0.89v-5.75l-1.39,0.94l-0.41-0.6l1.9-1.28H211.01z"/>
	<path d="M216.26,117.96c0.21,0.29,0.32,0.64,0.32,1.06c0,0.37-0.09,0.7-0.26,0.99c-0.17,0.29-0.42,0.51-0.75,0.67
		c-0.32,0.16-0.7,0.24-1.12,0.24c-0.42,0-0.79-0.08-1.1-0.24c-0.32-0.16-0.56-0.38-0.73-0.66c-0.17-0.29-0.25-0.61-0.25-0.98
		c0-0.83,0.42-1.42,1.27-1.78c-0.36-0.19-0.62-0.41-0.78-0.66c-0.16-0.25-0.24-0.54-0.24-0.89c0-0.36,0.08-0.67,0.25-0.93
		c0.17-0.26,0.39-0.46,0.67-0.59s0.6-0.2,0.94-0.2c0.53,0,0.98,0.15,1.33,0.44s0.54,0.71,0.54,1.24c0,0.34-0.09,0.63-0.26,0.88
		c-0.17,0.25-0.45,0.47-0.83,0.67C215.71,117.43,216.05,117.67,216.26,117.96z M215.36,119.92c0.21-0.2,0.32-0.5,0.32-0.89
		c0-0.35-0.09-0.63-0.27-0.83c-0.18-0.2-0.49-0.39-0.94-0.58l-0.28-0.11c-0.32,0.17-0.56,0.37-0.71,0.61s-0.23,0.54-0.23,0.9
		c0,0.4,0.11,0.7,0.32,0.9s0.51,0.3,0.89,0.3S215.15,120.12,215.36,119.92z M213.75,114.92c-0.18,0.18-0.27,0.44-0.27,0.81
		c0,0.3,0.08,0.53,0.23,0.7s0.41,0.33,0.77,0.48l0.23,0.1c0.28-0.19,0.48-0.38,0.6-0.58c0.12-0.2,0.17-0.43,0.17-0.71
		c0-0.35-0.09-0.62-0.26-0.79c-0.17-0.18-0.42-0.27-0.73-0.27C214.17,114.65,213.93,114.74,213.75,114.92z"/>
	<path d="M220.81,114.8h-2.34v2c0.31-0.19,0.64-0.28,0.98-0.28c0.51,0,0.93,0.19,1.24,0.56c0.31,0.37,0.47,0.89,0.47,1.55
		c0,0.45-0.09,0.84-0.27,1.19s-0.42,0.62-0.74,0.81c-0.32,0.19-0.69,0.29-1.12,0.29c-0.38,0-0.71-0.07-1-0.22s-0.56-0.36-0.83-0.65
		l0.53-0.48c0.19,0.21,0.39,0.36,0.59,0.46c0.2,0.1,0.43,0.16,0.69,0.16c0.39,0,0.69-0.14,0.9-0.41c0.21-0.27,0.32-0.66,0.32-1.17
		c0-0.95-0.36-1.43-1.08-1.43c-0.16,0-0.31,0.02-0.44,0.06c-0.13,0.04-0.28,0.11-0.45,0.21h-0.65v-3.36h3.32L220.81,114.8z"/>
	<path d="M225.7,114.86c0.35,0.58,0.52,1.44,0.52,2.59c0,1.16-0.17,2.03-0.52,2.6c-0.35,0.58-0.86,0.87-1.53,0.87
		c-0.68,0-1.19-0.29-1.54-0.87s-0.52-1.45-0.52-2.6c0-2.31,0.69-3.46,2.06-3.46C224.85,113.99,225.36,114.28,225.7,114.86z
		 M223.32,115.33c-0.18,0.42-0.27,1.13-0.27,2.12c0,1,0.09,1.71,0.27,2.13c0.18,0.42,0.47,0.63,0.85,0.63
		c0.38,0,0.66-0.21,0.85-0.63c0.18-0.42,0.27-1.13,0.27-2.13s-0.09-1.71-0.27-2.13c-0.18-0.42-0.46-0.63-0.85-0.63
		S223.5,114.9,223.32,115.33z"/>
	<path d="M212.45,125.28c0.37,0.2,0.65,0.46,0.83,0.79c0.19,0.33,0.28,0.68,0.28,1.06c0,0.35-0.05,0.64-0.16,0.89
		c-0.11,0.25-0.24,0.45-0.41,0.61c-0.16,0.16-0.38,0.34-0.64,0.55c-0.36,0.29-0.63,0.56-0.81,0.8c-0.18,0.24-0.27,0.57-0.27,0.97
		v0.63h-1.19v-0.7c0-0.39,0.06-0.73,0.17-1s0.26-0.5,0.42-0.67c0.16-0.17,0.38-0.36,0.65-0.57c0.32-0.24,0.55-0.46,0.71-0.67
		c0.15-0.2,0.23-0.46,0.23-0.79c0-0.36-0.11-0.65-0.34-0.85c-0.22-0.21-0.53-0.31-0.91-0.31c-0.33,0-0.63,0.08-0.91,0.23
		c-0.28,0.15-0.56,0.39-0.84,0.72l-0.78-0.62c0.35-0.46,0.75-0.8,1.18-1.03c0.43-0.23,0.91-0.34,1.46-0.34
		C211.64,124.98,212.08,125.08,212.45,125.28z M211.34,133.45c0.16,0.17,0.25,0.38,0.25,0.62s-0.08,0.45-0.25,0.63
		c-0.16,0.18-0.38,0.27-0.64,0.27c-0.25,0-0.46-0.09-0.62-0.27c-0.16-0.18-0.24-0.39-0.24-0.63s0.08-0.45,0.24-0.62
		c0.16-0.17,0.37-0.26,0.62-0.26C210.96,133.19,211.18,133.28,211.34,133.45z"/>
</g>
<g>
	<path d="M190.88,78.56v6.69h-0.89V79.5l-1.39,0.94l-0.41-0.6l1.9-1.28H190.88z"/>
	<path d="M196.13,82.42c0.21,0.29,0.32,0.64,0.32,1.06c0,0.37-0.09,0.7-0.26,0.99c-0.17,0.29-0.42,0.51-0.75,0.67
		c-0.32,0.16-0.7,0.24-1.12,0.24c-0.42,0-0.79-0.08-1.1-0.24c-0.32-0.16-0.56-0.38-0.73-0.66c-0.17-0.29-0.25-0.61-0.25-0.98
		c0-0.83,0.42-1.42,1.27-1.78c-0.36-0.19-0.62-0.41-0.78-0.66c-0.16-0.25-0.24-0.54-0.24-0.89c0-0.36,0.08-0.67,0.25-0.93
		c0.17-0.26,0.39-0.46,0.67-0.59s0.6-0.2,0.94-0.2c0.53,0,0.98,0.15,1.33,0.44s0.54,0.71,0.54,1.24c0,0.34-0.09,0.63-0.26,0.88
		c-0.17,0.25-0.45,0.47-0.83,0.67C195.58,81.89,195.92,82.13,196.13,82.42z M195.23,84.38c0.21-0.2,0.32-0.5,0.32-0.89
		c0-0.35-0.09-0.63-0.27-0.83c-0.18-0.2-0.49-0.39-0.94-0.58l-0.28-0.11c-0.32,0.17-0.56,0.37-0.71,0.61s-0.23,0.54-0.23,0.9
		c0,0.4,0.11,0.7,0.32,0.9s0.51,0.3,0.89,0.3S195.02,84.58,195.23,84.38z M193.62,79.38c-0.18,0.18-0.27,0.44-0.27,0.81
		c0,0.3,0.08,0.53,0.23,0.7s0.41,0.33,0.77,0.48l0.23,0.1c0.28-0.19,0.48-0.38,0.6-0.58c0.12-0.2,0.17-0.43,0.17-0.71
		c0-0.35-0.09-0.62-0.26-0.79c-0.17-0.18-0.42-0.27-0.73-0.27C194.04,79.11,193.8,79.2,193.62,79.38z"/>
	<path d="M201.42,82.88v0.72h-0.76v1.65h-0.86V83.6h-2.62v-0.65l1.79-4.51l0.76,0.29l-1.63,4.15h1.71l0.09-1.82h0.76v1.82H201.42z"
		/>
	<path d="M205.97,82.42c0.21,0.29,0.32,0.64,0.32,1.06c0,0.37-0.09,0.7-0.26,0.99c-0.17,0.29-0.42,0.51-0.75,0.67
		c-0.32,0.16-0.7,0.24-1.12,0.24c-0.42,0-0.79-0.08-1.1-0.24c-0.32-0.16-0.56-0.38-0.73-0.66c-0.17-0.29-0.25-0.61-0.25-0.98
		c0-0.83,0.42-1.42,1.27-1.78c-0.36-0.19-0.62-0.41-0.78-0.66c-0.16-0.25-0.24-0.54-0.24-0.89c0-0.36,0.08-0.67,0.25-0.93
		c0.17-0.26,0.39-0.46,0.67-0.59s0.6-0.2,0.94-0.2c0.53,0,0.98,0.15,1.33,0.44s0.54,0.71,0.54,1.24c0,0.34-0.09,0.63-0.26,0.88
		c-0.17,0.25-0.45,0.47-0.83,0.67C205.42,81.89,205.76,82.13,205.97,82.42z M205.07,84.38c0.21-0.2,0.32-0.5,0.32-0.89
		c0-0.35-0.09-0.63-0.27-0.83c-0.18-0.2-0.49-0.39-0.94-0.58l-0.28-0.11c-0.32,0.17-0.56,0.37-0.71,0.61s-0.23,0.54-0.23,0.9
		c0,0.4,0.11,0.7,0.32,0.9s0.51,0.3,0.89,0.3S204.86,84.58,205.07,84.38z M203.46,79.38c-0.18,0.18-0.27,0.44-0.27,0.81
		c0,0.3,0.08,0.53,0.23,0.7s0.41,0.33,0.77,0.48l0.23,0.1c0.28-0.19,0.48-0.38,0.6-0.58c0.12-0.2,0.17-0.43,0.17-0.71
		c0-0.35-0.09-0.62-0.26-0.79c-0.17-0.18-0.42-0.27-0.73-0.27C203.88,79.11,203.64,79.2,203.46,79.38z"/>
	<path d="M192.73,91.8l-0.21,1.22c-0.18-0.06-0.37-0.08-0.57-0.08c-0.41,0-0.74,0.16-1,0.49c-0.26,0.33-0.46,0.83-0.61,1.5v4.33
		h-1.26v-7.36h1.09l0.1,1.46c0.36-1.08,0.98-1.62,1.83-1.62C192.34,91.72,192.55,91.75,192.73,91.8z"/>
	<path d="M198.71,96h-4.28c0.04,0.86,0.21,1.48,0.52,1.86c0.31,0.38,0.73,0.57,1.26,0.57c0.34,0,0.64-0.05,0.9-0.15
		c0.27-0.1,0.54-0.27,0.83-0.5l0.56,0.74c-0.69,0.62-1.47,0.92-2.35,0.92c-0.96,0-1.71-0.33-2.23-1c-0.53-0.67-0.79-1.6-0.79-2.81
		s0.25-2.16,0.76-2.86c0.5-0.7,1.2-1.06,2.1-1.06c0.89,0,1.57,0.31,2.04,0.95c0.48,0.63,0.71,1.53,0.71,2.69
		C198.73,95.54,198.72,95.76,198.71,96z M197.52,94.97c0-1.54-0.51-2.31-1.53-2.31c-0.47,0-0.84,0.19-1.11,0.58
		c-0.27,0.39-0.42,1.01-0.46,1.88h3.09V94.97z"/>
	<path d="M205.4,91.89l-2.2,7.36h-1.51l-2.27-7.36h1.32l1.71,6.3l1.69-6.3H205.4z"/>
	<path d="M211.36,92.7c0.52,0.66,0.78,1.61,0.78,2.86c0,1.2-0.27,2.14-0.8,2.83c-0.53,0.7-1.26,1.04-2.2,1.04
		c-0.94,0-1.68-0.34-2.21-1.02s-0.79-1.63-0.79-2.84c0-1.22,0.27-2.17,0.8-2.85c0.53-0.68,1.27-1.01,2.21-1.01
		C210.11,91.7,210.84,92.04,211.36,92.7z M207.9,93.41c-0.29,0.46-0.43,1.18-0.43,2.16c0,1.91,0.56,2.87,1.68,2.87
		c1.12,0,1.68-0.96,1.68-2.88c0-0.98-0.14-1.7-0.42-2.16c-0.28-0.46-0.7-0.69-1.25-0.69S208.19,92.94,207.9,93.41z"/>
	<path d="M214.29,99.03c-0.26-0.27-0.39-0.65-0.39-1.13V88.9l1.26-0.14v9.09c0,0.36,0.15,0.55,0.45,0.55c0.12,0,0.26-0.03,0.41-0.08
		l0.28,0.88c-0.3,0.16-0.61,0.24-0.94,0.24C214.9,99.43,214.55,99.3,214.29,99.03z"/>
	<path d="M222.71,99.25h-1.09l-0.07-1.11c-0.51,0.86-1.2,1.29-2.06,1.29c-0.59,0-1.05-0.19-1.39-0.57s-0.5-0.9-0.5-1.55v-5.42h1.26
		v5.31c0,0.43,0.08,0.74,0.25,0.94c0.16,0.2,0.41,0.3,0.73,0.3c0.63,0,1.16-0.41,1.61-1.23v-5.32h1.26V99.25z"/>
	<path d="M228.62,91.9c0.33,0.13,0.64,0.33,0.94,0.6L229,93.26c-0.22-0.18-0.45-0.31-0.67-0.4s-0.47-0.13-0.73-0.13
		c-0.55,0-0.98,0.23-1.28,0.7c-0.3,0.47-0.46,1.2-0.46,2.18c0,1.85,0.58,2.77,1.74,2.77c0.26,0,0.5-0.04,0.71-0.13
		s0.44-0.22,0.69-0.4l0.59,0.77c-0.6,0.54-1.27,0.81-2.03,0.81c-0.94,0-1.68-0.33-2.22-0.98c-0.54-0.65-0.81-1.6-0.81-2.83
		c0-0.8,0.12-1.5,0.37-2.09c0.25-0.59,0.6-1.04,1.05-1.36c0.45-0.32,0.98-0.48,1.59-0.48C227.94,91.7,228.3,91.77,228.62,91.9z"/>
	<path d="M235.85,96h-4.28c0.04,0.86,0.21,1.48,0.52,1.86c0.31,0.38,0.73,0.57,1.26,0.57c0.34,0,0.64-0.05,0.9-0.15
		c0.27-0.1,0.54-0.27,0.83-0.5l0.56,0.74c-0.69,0.62-1.47,0.92-2.35,0.92c-0.96,0-1.71-0.33-2.23-1c-0.53-0.67-0.79-1.6-0.79-2.81
		s0.25-2.16,0.76-2.86c0.5-0.7,1.2-1.06,2.1-1.06c0.89,0,1.57,0.31,2.04,0.95c0.48,0.63,0.71,1.53,0.71,2.69
		C235.87,95.54,235.87,95.76,235.85,96z M234.66,94.97c0-1.54-0.51-2.31-1.53-2.31c-0.47,0-0.84,0.19-1.11,0.58
		c-0.27,0.39-0.42,1.01-0.46,1.88h3.09V94.97z"/>
</g>
<g>
	<path d="M407.22,69.21v6.69h-0.89v-5.75l-1.39,0.94l-0.41-0.6l1.9-1.28H407.22z"/>
	<path d="M412.47,73.07c0.21,0.29,0.32,0.64,0.32,1.06c0,0.37-0.09,0.7-0.26,0.99c-0.17,0.29-0.42,0.51-0.75,0.67
		c-0.32,0.16-0.7,0.24-1.12,0.24c-0.42,0-0.79-0.08-1.1-0.24c-0.32-0.16-0.56-0.38-0.73-0.66c-0.17-0.29-0.25-0.61-0.25-0.98
		c0-0.83,0.42-1.42,1.27-1.78c-0.36-0.19-0.62-0.41-0.78-0.66c-0.16-0.25-0.24-0.54-0.24-0.89c0-0.36,0.08-0.67,0.25-0.93
		c0.17-0.26,0.39-0.46,0.67-0.59s0.6-0.2,0.94-0.2c0.53,0,0.98,0.15,1.33,0.44s0.54,0.71,0.54,1.24c0,0.34-0.09,0.63-0.26,0.88
		c-0.17,0.25-0.45,0.47-0.83,0.67C411.92,72.53,412.25,72.78,412.47,73.07z M411.57,75.02c0.21-0.2,0.32-0.5,0.32-0.89
		c0-0.35-0.09-0.63-0.27-0.83c-0.18-0.2-0.49-0.39-0.94-0.58l-0.28-0.11c-0.32,0.17-0.56,0.37-0.71,0.61s-0.23,0.54-0.23,0.9
		c0,0.4,0.11,0.7,0.32,0.9s0.51,0.3,0.89,0.3S411.35,75.23,411.57,75.02z M409.96,70.02c-0.18,0.18-0.27,0.44-0.27,0.81
		c0,0.3,0.08,0.53,0.23,0.7s0.41,0.33,0.77,0.48l0.23,0.1c0.28-0.19,0.48-0.38,0.6-0.58c0.12-0.2,0.17-0.43,0.17-0.71
		c0-0.35-0.09-0.62-0.26-0.79c-0.17-0.18-0.42-0.27-0.73-0.27C410.38,69.76,410.14,69.85,409.96,70.02z"/>
	<path d="M416.84,69.21v0.66L414.55,76l-0.81-0.26l2.2-5.81h-2.68v-0.72H416.84z"/>
	<path d="M420,69.33c0.28,0.16,0.49,0.37,0.63,0.64c0.15,0.27,0.22,0.57,0.22,0.92c0,0.41-0.08,0.79-0.24,1.15
		c-0.16,0.36-0.41,0.77-0.75,1.22c-0.35,0.45-0.88,1.08-1.6,1.9h2.74l-0.11,0.74h-3.62v-0.7c0.77-0.89,1.34-1.57,1.69-2.03
		c0.36-0.46,0.6-0.85,0.75-1.18s0.21-0.68,0.21-1.04c0-0.35-0.09-0.63-0.27-0.82c-0.18-0.19-0.42-0.29-0.71-0.29
		c-0.25,0-0.47,0.06-0.66,0.17s-0.38,0.29-0.58,0.54l-0.56-0.43c0.49-0.67,1.11-1.01,1.87-1.01C419.4,69.1,419.72,69.18,420,69.33z"
		/>
	<path d="M421.95,73.14V72.4h2.59v0.74H421.95z"/>
	<path d="M428.28,69.21v0.66L425.99,76l-0.81-0.26l2.2-5.81h-2.68v-0.72H428.28z"/>
	<path d="M431.48,69.32c0.27,0.15,0.48,0.35,0.63,0.61c0.15,0.26,0.22,0.54,0.22,0.84c0,0.43-0.11,0.77-0.33,1.04
		c-0.22,0.26-0.53,0.44-0.94,0.54c0.44,0.04,0.79,0.2,1.06,0.48c0.27,0.28,0.4,0.67,0.4,1.17c0,0.38-0.08,0.72-0.25,1.03
		s-0.41,0.55-0.73,0.73c-0.32,0.18-0.69,0.27-1.1,0.27c-0.39,0-0.73-0.08-1.04-0.22c-0.3-0.15-0.58-0.38-0.83-0.69l0.54-0.46
		c0.21,0.23,0.41,0.39,0.62,0.5c0.2,0.1,0.43,0.16,0.69,0.16c0.37,0,0.66-0.12,0.88-0.36c0.22-0.24,0.32-0.56,0.32-0.97
		c0-0.44-0.11-0.76-0.32-0.96c-0.22-0.2-0.53-0.29-0.94-0.29h-0.42l0.11-0.67h0.28c0.33,0,0.61-0.1,0.83-0.31
		c0.22-0.21,0.33-0.5,0.33-0.89c0-0.33-0.09-0.59-0.28-0.78c-0.18-0.19-0.44-0.28-0.75-0.28c-0.23,0-0.45,0.05-0.65,0.14
		s-0.4,0.24-0.59,0.44l-0.47-0.48c0.52-0.53,1.12-0.8,1.8-0.8C430.88,69.1,431.2,69.17,431.48,69.32z"/>
	<path d="M410.55,86.65h-4.28c0.04,0.86,0.21,1.48,0.52,1.86c0.31,0.38,0.73,0.57,1.26,0.57c0.34,0,0.64-0.05,0.9-0.15
		c0.27-0.1,0.54-0.27,0.83-0.5l0.56,0.74c-0.69,0.62-1.47,0.92-2.35,0.92c-0.96,0-1.71-0.33-2.23-1c-0.53-0.67-0.79-1.6-0.79-2.81
		s0.25-2.16,0.76-2.86c0.5-0.7,1.2-1.06,2.1-1.06c0.89,0,1.57,0.31,2.04,0.95c0.48,0.63,0.71,1.53,0.71,2.69
		C410.58,86.19,410.57,86.41,410.55,86.65z M409.36,85.61c0-1.54-0.51-2.31-1.53-2.31c-0.47,0-0.84,0.19-1.11,0.58
		c-0.27,0.39-0.42,1.01-0.46,1.88h3.09V85.61z"/>
	<path d="M417.32,83.35c0.41,0.66,0.61,1.61,0.61,2.84c0,1.19-0.23,2.14-0.68,2.84c-0.45,0.7-1.08,1.05-1.9,1.05
		c-0.73,0-1.32-0.29-1.76-0.88v3.5l-1.26,0.15V82.53h1.11l0.07,0.99c0.5-0.78,1.17-1.18,2-1.18
		C416.31,82.35,416.91,82.68,417.32,83.35z M416.61,86.2c0-1-0.12-1.72-0.36-2.18c-0.24-0.45-0.6-0.68-1.08-0.68
		c-0.33,0-0.62,0.1-0.87,0.29s-0.49,0.46-0.71,0.8v3.72c0.38,0.61,0.87,0.91,1.47,0.91C416.09,89.07,416.61,88.12,416.61,86.2z"/>
	<path d="M421,79.3c0.15,0.16,0.23,0.35,0.23,0.59s-0.07,0.43-0.22,0.58c-0.15,0.15-0.35,0.23-0.6,0.23c-0.24,0-0.44-0.08-0.6-0.23
		c-0.15-0.15-0.23-0.35-0.23-0.58s0.08-0.43,0.23-0.59c0.15-0.16,0.35-0.24,0.6-0.24C420.65,79.06,420.84,79.14,421,79.3z
		 M421.03,82.53v7.36h-1.26v-7.36H421.03z"/>
	<path d="M428.54,79.55V89.9h-1.12l-0.08-0.97c-0.48,0.77-1.12,1.15-1.92,1.15s-1.43-0.34-1.87-1.02s-0.67-1.62-0.67-2.81
		c0-0.77,0.11-1.46,0.33-2.04s0.53-1.04,0.93-1.37c0.4-0.32,0.86-0.48,1.39-0.48c0.7,0,1.28,0.29,1.75,0.88v-3.82L428.54,79.55z
		 M426.58,88.81c0.25-0.19,0.48-0.46,0.69-0.83v-3.7c-0.42-0.62-0.91-0.94-1.47-0.94c-0.5,0-0.89,0.24-1.18,0.71
		c-0.29,0.48-0.43,1.19-0.42,2.16c0,0.98,0.13,1.7,0.39,2.17s0.63,0.7,1.11,0.7C426.05,89.09,426.34,88.99,426.58,88.81z"/>
	<path d="M435.94,86.65h-4.28c0.04,0.86,0.21,1.48,0.52,1.86c0.31,0.38,0.73,0.57,1.26,0.57c0.34,0,0.64-0.05,0.9-0.15
		c0.27-0.1,0.54-0.27,0.83-0.5l0.56,0.74c-0.69,0.62-1.47,0.92-2.35,0.92c-0.96,0-1.71-0.33-2.23-1c-0.53-0.67-0.79-1.6-0.79-2.81
		s0.25-2.16,0.76-2.86c0.5-0.7,1.2-1.06,2.1-1.06c0.89,0,1.57,0.31,2.04,0.95c0.48,0.63,0.71,1.53,0.71,2.69
		C435.97,86.19,435.96,86.41,435.94,86.65z M434.75,85.61c0-1.54-0.51-2.31-1.53-2.31c-0.47,0-0.84,0.19-1.11,0.58
		c-0.27,0.39-0.42,1.01-0.46,1.88h3.09V85.61z"/>
	<path d="M445.8,82.95c0.32,0.4,0.48,0.93,0.48,1.59v5.36h-1.25v-5.22c0-0.9-0.29-1.34-0.87-1.34c-0.56,0-1.07,0.43-1.54,1.29v5.28
		h-1.25v-5.22c0-0.9-0.29-1.34-0.87-1.34c-0.57,0-1.08,0.43-1.54,1.29v5.28h-1.25v-7.36h1.09l0.1,1.08
		c0.54-0.84,1.19-1.26,1.96-1.26c0.4,0,0.74,0.12,1.02,0.35c0.28,0.23,0.48,0.57,0.6,0.99c0.57-0.9,1.25-1.34,2.03-1.34
		C445.06,82.35,445.48,82.55,445.8,82.95z"/>
	<path d="M449.71,79.3c0.15,0.16,0.23,0.35,0.23,0.59s-0.07,0.43-0.22,0.58c-0.15,0.15-0.35,0.23-0.6,0.23
		c-0.24,0-0.44-0.08-0.6-0.23c-0.15-0.15-0.23-0.35-0.23-0.58s0.08-0.43,0.23-0.59c0.15-0.16,0.35-0.24,0.6-0.24
		C449.36,79.06,449.56,79.14,449.71,79.3z M449.75,82.53v7.36h-1.26v-7.36H449.75z"/>
	<path d="M457.15,86.65h-4.28c0.04,0.86,0.21,1.48,0.52,1.86c0.31,0.38,0.73,0.57,1.26,0.57c0.34,0,0.64-0.05,0.9-0.15
		c0.27-0.1,0.54-0.27,0.83-0.5l0.56,0.74c-0.69,0.62-1.47,0.92-2.35,0.92c-0.96,0-1.71-0.33-2.23-1c-0.53-0.67-0.79-1.6-0.79-2.81
		s0.25-2.16,0.76-2.86c0.5-0.7,1.2-1.06,2.1-1.06c0.89,0,1.57,0.31,2.04,0.95c0.48,0.63,0.71,1.53,0.71,2.69
		C457.18,86.19,457.17,86.41,457.15,86.65z M455.96,85.61c0-1.54-0.51-2.31-1.53-2.31c-0.47,0-0.84,0.19-1.11,0.58
		c-0.27,0.39-0.42,1.01-0.46,1.88h3.09V85.61z"/>
	<path d="M466.89,82.93c0.33,0.39,0.5,0.92,0.5,1.6v5.36h-1.26v-5.21c0-0.48-0.08-0.82-0.24-1.03s-0.4-0.31-0.73-0.31
		c-0.62,0-1.18,0.44-1.68,1.32v5.24h-1.26v-7.36h1.09l0.1,1.09c0.57-0.85,1.27-1.27,2.1-1.27C466.1,82.35,466.56,82.55,466.89,82.93
		z"/>
	<path d="M474.74,86.65h-4.28c0.04,0.86,0.21,1.48,0.52,1.86c0.31,0.38,0.73,0.57,1.26,0.57c0.34,0,0.64-0.05,0.9-0.15
		c0.27-0.1,0.54-0.27,0.83-0.5l0.56,0.74c-0.69,0.62-1.47,0.92-2.35,0.92c-0.96,0-1.71-0.33-2.23-1c-0.53-0.67-0.79-1.6-0.79-2.81
		s0.25-2.16,0.76-2.86c0.5-0.7,1.2-1.06,2.1-1.06c0.89,0,1.57,0.31,2.04,0.95c0.48,0.63,0.71,1.53,0.71,2.69
		C474.76,86.19,474.76,86.41,474.74,86.65z M473.55,85.61c0-1.54-0.51-2.31-1.53-2.31c-0.47,0-0.84,0.19-1.11,0.58
		c-0.27,0.39-0.42,1.01-0.46,1.88h3.09V85.61z"/>
	<path d="M480.69,83.19l-0.53,0.74c-0.3-0.21-0.58-0.36-0.84-0.46c-0.26-0.1-0.54-0.15-0.83-0.15c-0.38,0-0.68,0.09-0.9,0.27
		c-0.22,0.18-0.33,0.43-0.33,0.75c0,0.31,0.1,0.55,0.31,0.73c0.21,0.18,0.61,0.36,1.2,0.55c0.74,0.23,1.27,0.52,1.61,0.85
		s0.5,0.8,0.5,1.39c0,0.69-0.25,1.23-0.76,1.63s-1.13,0.59-1.89,0.59c-1,0-1.84-0.33-2.53-0.99l0.64-0.7
		c0.59,0.48,1.21,0.71,1.86,0.71c0.41,0,0.74-0.1,0.99-0.31c0.25-0.21,0.38-0.49,0.38-0.85c0-0.26-0.04-0.47-0.13-0.63
		c-0.09-0.16-0.25-0.3-0.48-0.43c-0.23-0.13-0.56-0.26-1-0.4c-0.7-0.23-1.2-0.51-1.51-0.84S476,84.9,476,84.4
		c0-0.39,0.1-0.74,0.31-1.05c0.21-0.31,0.49-0.55,0.85-0.73c0.36-0.18,0.78-0.27,1.26-0.27C479.27,82.35,480.02,82.63,480.69,83.19z
		 M480.06,78.94l0.49,0.56l-1.69,1.62h-0.78l-1.69-1.62l0.49-0.56l1.6,1.23L480.06,78.94z"/>
	<path d="M485.98,89.58c-0.47,0.34-0.98,0.5-1.55,0.5c-0.6,0-1.06-0.17-1.38-0.52c-0.32-0.35-0.48-0.83-0.48-1.46v-4.62h-1.05v-0.95
		h1.05v-1.69l1.26-0.15v1.85h1.62l-0.14,0.95h-1.48v4.61c0,0.63,0.27,0.95,0.8,0.95c0.16,0,0.31-0.02,0.44-0.07
		c0.14-0.05,0.29-0.12,0.46-0.21L485.98,89.58z"/>
	<path d="M491.62,83.35c0.52,0.66,0.78,1.61,0.78,2.86c0,1.2-0.27,2.14-0.8,2.83c-0.53,0.7-1.26,1.04-2.2,1.04
		c-0.94,0-1.68-0.34-2.21-1.02s-0.79-1.63-0.79-2.84c0-1.22,0.27-2.17,0.8-2.85c0.53-0.68,1.27-1.01,2.21-1.01
		C490.37,82.35,491.1,82.68,491.62,83.35z M488.16,84.05c-0.29,0.46-0.43,1.18-0.43,2.16c0,1.91,0.56,2.87,1.68,2.87
		c1.12,0,1.68-0.96,1.68-2.88c0-0.98-0.14-1.7-0.42-2.16c-0.28-0.46-0.7-0.69-1.25-0.69S488.45,83.59,488.16,84.05z"/>
	<path d="M499.14,82.53l-2.2,7.36h-1.51l-2.27-7.36h1.32l1.71,6.3l1.69-6.3H499.14z"/>
	<path d="M501.62,79.3c0.15,0.16,0.23,0.35,0.23,0.59s-0.07,0.43-0.22,0.58c-0.15,0.15-0.35,0.23-0.6,0.23
		c-0.24,0-0.44-0.08-0.6-0.23c-0.15-0.15-0.23-0.35-0.23-0.58s0.08-0.43,0.23-0.59c0.15-0.16,0.35-0.24,0.6-0.24
		C501.27,79.06,501.47,79.14,501.62,79.3z M501.66,82.53v7.36h-1.26v-7.36H501.66z"/>
	<path d="M507.57,82.55c0.33,0.13,0.64,0.33,0.94,0.6l-0.56,0.76c-0.22-0.18-0.45-0.31-0.67-0.4s-0.47-0.13-0.73-0.13
		c-0.55,0-0.98,0.23-1.28,0.7c-0.3,0.47-0.46,1.2-0.46,2.18c0,1.85,0.58,2.77,1.74,2.77c0.26,0,0.5-0.04,0.71-0.13
		s0.44-0.22,0.69-0.4l0.59,0.77c-0.6,0.54-1.27,0.81-2.03,0.81c-0.94,0-1.68-0.33-2.22-0.98c-0.54-0.65-0.81-1.6-0.81-2.83
		c0-0.8,0.12-1.5,0.37-2.09c0.25-0.59,0.6-1.04,1.05-1.36c0.45-0.32,0.98-0.48,1.59-0.48C506.88,82.35,507.24,82.42,507.57,82.55z"
		/>
</g>
<g>
	<path d="M281.37,84.34v6.69h-0.89v-5.75l-1.39,0.94l-0.41-0.6l1.9-1.28H281.37z"/>
	<path d="M286.62,88.2c0.21,0.29,0.32,0.64,0.32,1.06c0,0.37-0.09,0.7-0.26,0.99c-0.17,0.29-0.42,0.51-0.75,0.67
		c-0.32,0.16-0.7,0.24-1.12,0.24c-0.42,0-0.79-0.08-1.1-0.24c-0.32-0.16-0.56-0.38-0.73-0.66c-0.17-0.29-0.25-0.61-0.25-0.98
		c0-0.83,0.42-1.42,1.27-1.78c-0.36-0.19-0.62-0.41-0.78-0.66c-0.16-0.25-0.24-0.54-0.24-0.89c0-0.36,0.08-0.67,0.25-0.93
		c0.17-0.26,0.39-0.46,0.67-0.59s0.6-0.2,0.94-0.2c0.53,0,0.98,0.15,1.33,0.44s0.54,0.71,0.54,1.24c0,0.34-0.09,0.63-0.26,0.88
		c-0.17,0.25-0.45,0.47-0.83,0.67C286.07,87.67,286.41,87.91,286.62,88.2z M285.72,90.15c0.21-0.2,0.32-0.5,0.32-0.89
		c0-0.35-0.09-0.63-0.27-0.83c-0.18-0.2-0.49-0.39-0.94-0.58l-0.28-0.11c-0.32,0.17-0.56,0.37-0.71,0.61s-0.23,0.54-0.23,0.9
		c0,0.4,0.11,0.7,0.32,0.9s0.51,0.3,0.89,0.3S285.51,90.36,285.72,90.15z M284.11,85.15c-0.18,0.18-0.27,0.44-0.27,0.81
		c0,0.3,0.08,0.53,0.23,0.7s0.41,0.33,0.77,0.48l0.23,0.1c0.28-0.19,0.48-0.38,0.6-0.58c0.12-0.2,0.17-0.43,0.17-0.71
		c0-0.35-0.09-0.62-0.26-0.79c-0.17-0.18-0.42-0.27-0.73-0.27C284.54,84.89,284.29,84.98,284.11,85.15z"/>
	<path d="M291.09,86.87c0.25,0.16,0.45,0.4,0.6,0.72c0.15,0.32,0.22,0.71,0.22,1.17c0,0.49-0.08,0.92-0.24,1.28
		c-0.16,0.36-0.39,0.64-0.69,0.83c-0.29,0.19-0.63,0.29-1.01,0.29c-0.71,0-1.24-0.28-1.57-0.84c-0.34-0.56-0.51-1.35-0.51-2.36
		c0-0.77,0.1-1.43,0.29-1.99c0.19-0.56,0.46-0.99,0.82-1.29c0.36-0.3,0.78-0.45,1.26-0.45c0.47,0,0.88,0.14,1.24,0.41l-0.35,0.57
		c-0.28-0.19-0.57-0.28-0.87-0.28c-0.43,0-0.78,0.23-1.04,0.68c-0.26,0.45-0.4,1.08-0.44,1.88c0.38-0.57,0.87-0.86,1.46-0.86
		C290.56,86.63,290.84,86.71,291.09,86.87z M290.74,90.02c0.18-0.29,0.27-0.71,0.27-1.25c0-0.51-0.08-0.89-0.25-1.12
		s-0.4-0.35-0.69-0.35c-0.25,0-0.48,0.08-0.7,0.25c-0.22,0.17-0.4,0.4-0.56,0.69c0.01,0.77,0.11,1.33,0.29,1.68
		c0.18,0.35,0.47,0.53,0.87,0.53C290.3,90.46,290.56,90.31,290.74,90.02z"/>
	<path d="M296.05,86.87c0.25,0.16,0.45,0.4,0.6,0.72c0.15,0.32,0.22,0.71,0.22,1.17c0,0.49-0.08,0.92-0.24,1.28
		c-0.16,0.36-0.39,0.64-0.69,0.83c-0.29,0.19-0.63,0.29-1.01,0.29c-0.71,0-1.24-0.28-1.57-0.84c-0.34-0.56-0.51-1.35-0.51-2.36
		c0-0.77,0.1-1.43,0.29-1.99c0.19-0.56,0.46-0.99,0.82-1.29c0.36-0.3,0.78-0.45,1.26-0.45c0.47,0,0.88,0.14,1.24,0.41l-0.35,0.57
		c-0.28-0.19-0.57-0.28-0.87-0.28c-0.43,0-0.78,0.23-1.04,0.68c-0.26,0.45-0.4,1.08-0.44,1.88c0.38-0.57,0.87-0.86,1.46-0.86
		C295.52,86.63,295.8,86.71,296.05,86.87z M295.7,90.02c0.18-0.29,0.27-0.71,0.27-1.25c0-0.51-0.08-0.89-0.25-1.12
		s-0.4-0.35-0.69-0.35c-0.25,0-0.48,0.08-0.7,0.25c-0.22,0.17-0.4,0.4-0.56,0.69c0.01,0.77,0.11,1.33,0.29,1.68
		c0.18,0.35,0.47,0.53,0.87,0.53C295.26,90.46,295.52,90.31,295.7,90.02z"/>
	<path d="M284.45,96.14c0.61,0.49,0.91,1.24,0.91,2.23c0,1.05-0.31,1.82-0.93,2.33s-1.48,0.76-2.58,0.76h-0.92v3.57h-1.3V95.4h2.18
		C282.96,95.4,283.85,95.64,284.45,96.14z M283.46,99.99c0.36-0.31,0.55-0.84,0.55-1.61c0-0.7-0.18-1.21-0.54-1.52
		c-0.36-0.31-0.91-0.47-1.65-0.47h-0.9v4.06h0.88C282.54,100.45,283.1,100.3,283.46,99.99z"/>
	<path d="M290.26,97.58l-0.21,1.22c-0.18-0.06-0.37-0.08-0.57-0.08c-0.41,0-0.74,0.16-1,0.49c-0.26,0.33-0.46,0.83-0.61,1.5v4.33
		h-1.26v-7.36h1.09l0.1,1.46c0.36-1.08,0.98-1.62,1.83-1.62C289.88,97.5,290.09,97.53,290.26,97.58z"/>
	<path d="M296.55,105.03h-1.09l-0.07-1.11c-0.51,0.86-1.2,1.29-2.06,1.29c-0.59,0-1.05-0.19-1.39-0.57s-0.5-0.9-0.5-1.55v-5.42h1.26
		v5.31c0,0.43,0.08,0.74,0.25,0.94c0.16,0.2,0.41,0.3,0.73,0.3c0.63,0,1.16-0.41,1.61-1.23v-5.32h1.26V105.03z"/>
	<path d="M302.99,98.32l-0.53,0.74c-0.3-0.21-0.58-0.36-0.84-0.46c-0.26-0.1-0.54-0.15-0.83-0.15c-0.38,0-0.68,0.09-0.9,0.27
		c-0.22,0.18-0.33,0.43-0.33,0.75c0,0.31,0.1,0.55,0.31,0.73c0.21,0.18,0.61,0.36,1.2,0.55c0.74,0.23,1.27,0.52,1.61,0.85
		s0.5,0.8,0.5,1.39c0,0.69-0.25,1.23-0.76,1.63s-1.13,0.59-1.89,0.59c-1,0-1.84-0.33-2.53-0.99l0.64-0.7
		c0.59,0.48,1.21,0.71,1.86,0.71c0.41,0,0.74-0.1,0.99-0.31c0.25-0.21,0.38-0.49,0.38-0.85c0-0.26-0.04-0.47-0.13-0.63
		c-0.09-0.16-0.25-0.3-0.48-0.43c-0.23-0.13-0.56-0.26-1-0.4c-0.7-0.23-1.2-0.51-1.51-0.84s-0.46-0.74-0.46-1.25
		c0-0.39,0.1-0.74,0.31-1.05c0.21-0.31,0.49-0.55,0.85-0.73c0.36-0.18,0.78-0.27,1.26-0.27C301.57,97.48,302.33,97.76,302.99,98.32z
		"/>
	<path d="M306.06,94.54v10.49h-1.26V94.68L306.06,94.54z M309.93,97.67l-2.49,3.28l2.73,4.09h-1.4l-2.65-4.03l2.49-3.33H309.93z"/>
	<path d="M315.95,98.48c0.52,0.66,0.78,1.61,0.78,2.86c0,1.2-0.27,2.14-0.8,2.83c-0.53,0.7-1.26,1.04-2.2,1.04
		c-0.94,0-1.68-0.34-2.21-1.02s-0.79-1.63-0.79-2.84c0-1.22,0.27-2.17,0.8-2.85c0.53-0.68,1.27-1.01,2.21-1.01
		C314.7,97.48,315.43,97.81,315.95,98.48z M312.5,99.18c-0.29,0.46-0.43,1.18-0.43,2.16c0,1.91,0.56,2.87,1.68,2.87
		c1.12,0,1.68-0.96,1.68-2.88c0-0.98-0.14-1.7-0.42-2.16c-0.28-0.46-0.7-0.69-1.25-0.69S312.78,98.72,312.5,99.18z"/>
	<path d="M318.19,101.17v-1.04h3.63v1.04H318.19z"/>
	<path d="M327.38,97.58l-0.21,1.22c-0.18-0.06-0.37-0.08-0.57-0.08c-0.41,0-0.74,0.16-1,0.49c-0.26,0.33-0.46,0.83-0.61,1.5v4.33
		h-1.26v-7.36h1.09l0.1,1.46c0.36-1.08,0.98-1.62,1.83-1.62C326.99,97.5,327.2,97.53,327.38,97.58z"/>
	<path d="M332.89,104.01c0.08,0.14,0.21,0.25,0.39,0.33l-0.27,0.85c-0.36-0.06-0.65-0.17-0.85-0.34c-0.21-0.17-0.35-0.42-0.43-0.77
		c-0.48,0.75-1.14,1.12-2,1.12c-0.65,0-1.17-0.2-1.55-0.61c-0.38-0.41-0.57-0.95-0.57-1.63c0-0.78,0.26-1.38,0.77-1.79
		c0.51-0.41,1.25-0.62,2.2-0.62h0.95v-0.63c0-0.51-0.1-0.88-0.31-1.11s-0.55-0.34-1.03-0.34c-0.51,0-1.11,0.13-1.79,0.39l-0.31-0.88
		c0.82-0.34,1.59-0.5,2.3-0.5c1.6,0,2.39,0.8,2.39,2.39v3.47C332.77,103.65,332.81,103.87,332.89,104.01z M331.52,103.11v-1.74
		h-0.81c-1.21,0-1.82,0.51-1.82,1.53c0,0.44,0.1,0.77,0.29,1.01c0.2,0.23,0.48,0.35,0.84,0.35
		C330.68,104.26,331.18,103.88,331.52,103.11z"/>
	<path d="M336.29,94.54v10.49h-1.26V94.68L336.29,94.54z M340.17,97.67l-2.49,3.28l2.73,4.09h-1.4l-2.65-4.03l2.49-3.33H340.17z"/>
	<path d="M346.19,98.48c0.52,0.66,0.78,1.61,0.78,2.86c0,1.2-0.27,2.14-0.8,2.83c-0.53,0.7-1.26,1.04-2.2,1.04
		c-0.94,0-1.68-0.34-2.21-1.02s-0.79-1.63-0.79-2.84c0-1.22,0.27-2.17,0.8-2.85c0.53-0.68,1.27-1.01,2.21-1.01
		C344.94,97.48,345.67,97.81,346.19,98.48z M342.73,99.18c-0.29,0.46-0.43,1.18-0.43,2.16c0,1.91,0.56,2.87,1.68,2.87
		c1.12,0,1.68-0.96,1.68-2.88c0-0.98-0.14-1.7-0.42-2.16c-0.28-0.46-0.7-0.69-1.25-0.69S343.02,98.72,342.73,99.18z"/>
	<path d="M353.85,105.03h-1.09l-0.07-1.11c-0.51,0.86-1.2,1.29-2.06,1.29c-0.59,0-1.05-0.19-1.39-0.57s-0.5-0.9-0.5-1.55v-5.42H350
		v5.31c0,0.43,0.08,0.74,0.25,0.94c0.16,0.2,0.41,0.3,0.73,0.3c0.63,0,1.16-0.41,1.61-1.23v-5.32h1.26V105.03z"/>
	<path d="M360.29,98.32l-0.53,0.74c-0.3-0.21-0.58-0.36-0.84-0.46c-0.26-0.1-0.54-0.15-0.83-0.15c-0.38,0-0.68,0.09-0.9,0.27
		c-0.22,0.18-0.33,0.43-0.33,0.75c0,0.31,0.1,0.55,0.31,0.73c0.21,0.18,0.61,0.36,1.2,0.55c0.74,0.23,1.27,0.52,1.61,0.85
		s0.5,0.8,0.5,1.39c0,0.69-0.25,1.23-0.76,1.63s-1.13,0.59-1.89,0.59c-1,0-1.84-0.33-2.53-0.99l0.64-0.7
		c0.59,0.48,1.21,0.71,1.86,0.71c0.41,0,0.74-0.1,0.99-0.31c0.25-0.21,0.38-0.49,0.38-0.85c0-0.26-0.04-0.47-0.13-0.63
		c-0.09-0.16-0.25-0.3-0.48-0.43c-0.23-0.13-0.56-0.26-1-0.4c-0.7-0.23-1.2-0.51-1.51-0.84s-0.46-0.74-0.46-1.25
		c0-0.39,0.1-0.74,0.31-1.05c0.21-0.31,0.49-0.55,0.85-0.73c0.36-0.18,0.78-0.27,1.26-0.27C358.87,97.48,359.63,97.76,360.29,98.32z
		"/>
	<path d="M363.36,94.54v10.49h-1.26V94.68L363.36,94.54z M367.23,97.67l-2.49,3.28l2.73,4.09h-1.4l-2.65-4.03l2.49-3.33H367.23z"/>
	<path d="M373.13,104.01c0.08,0.14,0.21,0.25,0.39,0.33l-0.27,0.85c-0.36-0.06-0.65-0.17-0.85-0.34c-0.21-0.17-0.35-0.42-0.43-0.77
		c-0.48,0.75-1.14,1.12-2,1.12c-0.65,0-1.17-0.2-1.55-0.61c-0.38-0.41-0.57-0.95-0.57-1.63c0-0.78,0.26-1.38,0.77-1.79
		c0.51-0.41,1.25-0.62,2.2-0.62h0.95v-0.63c0-0.51-0.1-0.88-0.31-1.11s-0.55-0.34-1.03-0.34c-0.51,0-1.11,0.13-1.79,0.39l-0.31-0.88
		c0.82-0.34,1.59-0.5,2.3-0.5c1.6,0,2.39,0.8,2.39,2.39v3.47C373,103.65,373.04,103.87,373.13,104.01z M371.52,93.87l0.53,1.01
		l-2.69,1.22L369,95.45L371.52,93.87z M371.76,103.11v-1.74h-0.81c-1.21,0-1.82,0.51-1.82,1.53c0,0.44,0.1,0.77,0.29,1.01
		c0.2,0.23,0.48,0.35,0.84,0.35C370.91,104.26,371.41,103.88,371.76,103.11z"/>
	<path d="M284.54,111.67l-2.2,7.36h-1.51l-2.27-7.36h1.32l1.71,6.3l1.69-6.3H284.54z"/>
	<path d="M290.32,118.01c0.08,0.14,0.21,0.25,0.39,0.33l-0.27,0.85c-0.36-0.06-0.65-0.17-0.85-0.34c-0.21-0.17-0.35-0.42-0.43-0.77
		c-0.48,0.75-1.14,1.12-2,1.12c-0.65,0-1.17-0.2-1.55-0.61c-0.38-0.41-0.57-0.95-0.57-1.63c0-0.78,0.26-1.38,0.77-1.79
		c0.51-0.41,1.25-0.62,2.2-0.62h0.95v-0.63c0-0.51-0.1-0.88-0.31-1.11s-0.55-0.34-1.03-0.34c-0.51,0-1.11,0.13-1.79,0.39l-0.31-0.88
		c0.82-0.34,1.59-0.5,2.3-0.5c1.6,0,2.39,0.8,2.39,2.39v3.47C290.19,117.65,290.24,117.87,290.32,118.01z M288.71,107.87l0.53,1.01
		l-2.69,1.22l-0.36-0.64L288.71,107.87z M288.95,117.11v-1.74h-0.81c-1.21,0-1.82,0.51-1.82,1.53c0,0.44,0.1,0.77,0.29,1.01
		c0.2,0.23,0.48,0.35,0.84,0.35C288.1,118.26,288.6,117.88,288.95,117.11z"/>
	<path d="M292.64,118.81c-0.26-0.27-0.39-0.65-0.39-1.13v-8.99l1.26-0.14v9.09c0,0.36,0.15,0.55,0.45,0.55
		c0.12,0,0.26-0.03,0.41-0.08l0.28,0.88c-0.3,0.16-0.61,0.24-0.94,0.24C293.26,119.21,292.9,119.08,292.64,118.81z"/>
	<path d="M297.28,108.54v10.49h-1.26v-10.35L297.28,108.54z M301.16,111.67l-2.49,3.28l2.73,4.09h-1.4l-2.65-4.03l2.49-3.33H301.16z
		"/>
	<path d="M307.05,118.01c0.08,0.14,0.21,0.25,0.39,0.33l-0.27,0.85c-0.36-0.06-0.65-0.17-0.85-0.34c-0.21-0.17-0.35-0.42-0.43-0.77
		c-0.48,0.75-1.14,1.12-2,1.12c-0.65,0-1.17-0.2-1.55-0.61c-0.38-0.41-0.57-0.95-0.57-1.63c0-0.78,0.26-1.38,0.77-1.79
		c0.51-0.41,1.25-0.62,2.2-0.62h0.95v-0.63c0-0.51-0.1-0.88-0.31-1.11s-0.55-0.34-1.03-0.34c-0.51,0-1.11,0.13-1.79,0.39l-0.31-0.88
		c0.82-0.34,1.59-0.5,2.3-0.5c1.6,0,2.39,0.8,2.39,2.39v3.47C306.92,117.65,306.97,117.87,307.05,118.01z M305.68,117.11v-1.74
		h-0.81c-1.21,0-1.82,0.51-1.82,1.53c0,0.44,0.1,0.77,0.29,1.01c0.2,0.23,0.48,0.35,0.84,0.35
		C304.83,118.26,305.33,117.88,305.68,117.11z"/>
</g>
<g>
	<g>
		<line class="st8" x1="602.36" y1="299.17" x2="602.36" y2="302.17"/>
	</g>
	<g>
		<line class="st8" x1="563.36" y1="299.17" x2="563.36" y2="302.17"/>
	</g>
	<g>
		<line class="st8" x1="524.36" y1="299.17" x2="524.36" y2="302.17"/>
	</g>
	<g>
		<line class="st8" x1="485.36" y1="299.17" x2="485.36" y2="302.17"/>
	</g>
	<g>
		<line class="st8" x1="446.36" y1="299.17" x2="446.36" y2="302.17"/>
	</g>
	<g>
		<line class="st8" x1="407.36" y1="299.17" x2="407.36" y2="302.17"/>
	</g>
	<g>
		<line class="st8" x1="368.36" y1="299.17" x2="368.36" y2="302.17"/>
	</g>
	<g>
		<line class="st8" x1="329.36" y1="299.17" x2="329.36" y2="302.17"/>
	</g>
	<g>
		<line class="st8" x1="290.36" y1="299.17" x2="290.36" y2="302.17"/>
	</g>
	<g>
		<line class="st8" x1="251.36" y1="299.17" x2="251.36" y2="302.17"/>
	</g>
	<g>
		<line class="st8" x1="212.36" y1="299.17" x2="212.36" y2="302.17"/>
	</g>
	<g>
		<line class="st8" x1="173.36" y1="299.17" x2="173.36" y2="302.17"/>
	</g>
	<g>
		<line class="st8" x1="134.36" y1="299.17" x2="134.36" y2="302.17"/>
	</g>
	<g>
		<line class="st8" x1="95.36" y1="299.17" x2="95.36" y2="302.17"/>
	</g>
	<g>
		<line class="st8" x1="56.36" y1="299.17" x2="56.36" y2="302.17"/>
	</g>
</g>
<g>
	<polyline class="st4" points="199.06,151 196.42,153.64 193.83,151.05 	"/>
	<line class="st4" x1="196.42" y1="153.64" x2="196.42" y2="104.79"/>
</g>
<g class="st9">
	<path d="M576.56,11.71c0.42,0.16,0.82,0.41,1.19,0.73l-0.85,0.89c-0.3-0.23-0.57-0.4-0.83-0.5c-0.26-0.1-0.56-0.16-0.91-0.16
		c-0.64,0-1.16,0.26-1.57,0.77s-0.61,1.3-0.61,2.35c0,1.1,0.16,1.9,0.49,2.39c0.32,0.49,0.82,0.73,1.48,0.73
		c0.5,0,0.94-0.11,1.32-0.32v-2.16h-1.25l-0.17-1.18h2.98v4.06c-0.9,0.54-1.85,0.82-2.86,0.82c-1.18,0-2.09-0.37-2.72-1.1
		c-0.63-0.74-0.94-1.81-0.94-3.23c0-0.9,0.17-1.68,0.51-2.33s0.8-1.15,1.37-1.48c0.58-0.34,1.22-0.5,1.92-0.5
		C575.66,11.47,576.14,11.55,576.56,11.71z"/>
	<path d="M583.15,13.51L582.88,15c-0.19-0.05-0.38-0.07-0.56-0.07c-0.38,0-0.67,0.13-0.89,0.4c-0.22,0.27-0.39,0.68-0.52,1.23v3.38
		h-1.54v-6.35h1.33l0.14,1.25c0.15-0.46,0.37-0.81,0.66-1.05s0.62-0.37,1-0.37C582.74,13.42,582.95,13.45,583.15,13.51z"/>
	<path d="M588.49,18.81c0.08,0.12,0.2,0.21,0.37,0.27l-0.32,1.02c-0.36-0.03-0.65-0.12-0.88-0.26c-0.23-0.14-0.4-0.36-0.52-0.66
		c-0.22,0.32-0.49,0.56-0.81,0.71c-0.32,0.16-0.69,0.23-1.09,0.23c-0.63,0-1.13-0.18-1.5-0.54c-0.37-0.36-0.55-0.83-0.55-1.42
		c0-0.69,0.25-1.21,0.75-1.58c0.5-0.36,1.21-0.55,2.14-0.55h0.79v-0.36c0-0.41-0.09-0.69-0.28-0.86c-0.19-0.16-0.49-0.25-0.91-0.25
		c-0.46,0-1.02,0.11-1.68,0.34l-0.36-1.04c0.79-0.3,1.56-0.46,2.3-0.46c1.62,0,2.44,0.73,2.44,2.18v2.66
		C588.38,18.51,588.42,18.69,588.49,18.81z M586.87,18.22v-1.28h-0.64c-0.99,0-1.49,0.37-1.49,1.1c0,0.3,0.08,0.54,0.23,0.71
		c0.15,0.17,0.38,0.25,0.67,0.25C586.16,19,586.57,18.74,586.87,18.22z"/>
	<path d="M592.15,12.25c-0.13,0.14-0.2,0.36-0.2,0.67v0.67h1.52l-0.17,1.1h-1.36v5.24h-1.54v-5.24h-1.03v-1.1h1.03v-0.7
		c0-0.6,0.19-1.09,0.58-1.46s0.94-0.56,1.65-0.56c0.56,0,1.11,0.12,1.64,0.37l-0.44,1.03c-0.34-0.16-0.69-0.24-1.04-0.24
		C592.5,12.04,592.28,12.11,592.15,12.25z"/>
	<path d="M600.74,11.86v8.08h-1.51v-6.53l-1.8,1.09l-0.67-1.03l2.63-1.61H600.74z"/>
	<path d="M604,18.46c0.19,0.19,0.29,0.42,0.29,0.69c0,0.26-0.1,0.49-0.29,0.68c-0.19,0.19-0.42,0.29-0.7,0.29
		c-0.26,0-0.49-0.1-0.68-0.29c-0.19-0.19-0.28-0.42-0.28-0.68c0-0.27,0.09-0.5,0.28-0.69s0.41-0.28,0.68-0.28
		C603.58,18.17,603.81,18.27,604,18.46z"/>
	<path d="M607.82,11.86v8.08h-1.51v-6.53l-1.8,1.09l-0.67-1.03l2.63-1.61H607.82z"/>
</g>
</svg>
