<?xml version="1.0" encoding="utf-8"?>
<!-- Generator: Adobe Illustrator 24.3.0, SVG Export Plug-In . SVG Version: 6.00 Build 0)  -->
<svg version="1.1" id="Layer_1" xmlns="http://www.w3.org/2000/svg" xmlns:xlink="http://www.w3.org/1999/xlink" x="0px" y="0px"
	 viewBox="0 0 1040 296.89" style="enable-background:new 0 0 1040 296.89;" xml:space="preserve">
<style type="text/css">
	.st0{fill:#008080;stroke:#FFFFFF;stroke-width:0.25;stroke-miterlimit:10;}
	.st1{opacity:0.2;}
	.st2{fill:#231F20;}
	.st3{fill:none;stroke:#FFFFFF;stroke-width:0.25;stroke-miterlimit:10;}
	.st4{fill-rule:evenodd;clip-rule:evenodd;fill:#FFFFFF;}
	.st5{fill:none;stroke:#D9D9D9;stroke-width:0.3;stroke-linejoin:round;stroke-miterlimit:10;}
	.st6{fill:none;stroke:#BFBFBF;stroke-width:0.75;stroke-linejoin:round;stroke-miterlimit:10;}
	.st7{fill:none;stroke:#FFFFFF;stroke-width:0.75;stroke-miterlimit:10;}
	.st8{fill:none;}
	.st9{clip-path:url(#SVGID_194_);fill-rule:evenodd;clip-rule:evenodd;fill:#D4D4D4;}
	.st10{clip-path:url(#SVGID_194_);fill:none;stroke:#D4D4D4;stroke-width:0;stroke-linecap:square;stroke-miterlimit:10;}
	.st11{clip-path:url(#SVGID_194_);fill:none;stroke:#000000;stroke-width:0;stroke-linecap:square;stroke-miterlimit:10;}
	.st12{clip-path:url(#SVGID_194_);fill-rule:evenodd;clip-rule:evenodd;}
	.st13{clip-path:url(#SVGID_197_);}
	.st14{fill:none;stroke:#000000;stroke-width:0.5;stroke-miterlimit:10;}
	.st15{fill:#595959;}
	.st16{fill:#008080;}
</style>
<g>
	<path d="M40.4,14.09c0.68,0.27,1.32,0.67,1.92,1.22l-1.23,1.42c-0.47-0.39-0.94-0.68-1.42-0.86c-0.47-0.18-0.98-0.27-1.53-0.27
		c-0.61,0-1.1,0.14-1.47,0.41s-0.56,0.66-0.56,1.15c0,0.33,0.07,0.6,0.22,0.82c0.14,0.22,0.41,0.42,0.79,0.61
		c0.38,0.19,0.94,0.4,1.69,0.63c1.29,0.41,2.26,0.91,2.92,1.51c0.65,0.6,0.98,1.48,0.98,2.63c0,0.79-0.2,1.48-0.6,2.09
		c-0.4,0.61-0.97,1.08-1.72,1.42c-0.75,0.34-1.63,0.51-2.66,0.51c-1,0-1.9-0.16-2.69-0.49c-0.79-0.32-1.47-0.76-2.04-1.32l1.29-1.44
		c0.51,0.43,1.03,0.76,1.58,0.98s1.15,0.33,1.81,0.33c0.72,0,1.3-0.17,1.75-0.51c0.44-0.34,0.66-0.82,0.66-1.44
		c0-0.38-0.08-0.69-0.23-0.94c-0.15-0.25-0.41-0.47-0.78-0.67s-0.9-0.4-1.6-0.62c-1.39-0.43-2.4-0.95-3.02-1.56
		c-0.62-0.61-0.93-1.41-0.93-2.39c0-0.72,0.19-1.36,0.57-1.9c0.38-0.54,0.91-0.97,1.59-1.27c0.68-0.3,1.45-0.46,2.31-0.46
		C38.91,13.7,39.72,13.83,40.4,14.09z"/>
	<path d="M50.53,26.63c-0.36,0.25-0.75,0.44-1.19,0.57C48.9,27.33,48.46,27.4,48,27.4c-0.99-0.01-1.74-0.29-2.25-0.85
		c-0.51-0.55-0.77-1.37-0.77-2.44v-5.3H43.4v-1.75h1.58v-2.22l2.43-0.29v2.51h2.34l-0.25,1.75h-2.09v5.24
		c0,0.49,0.09,0.85,0.26,1.06s0.44,0.32,0.81,0.32s0.77-0.12,1.2-0.36L50.53,26.63z"/>
	<path d="M57.39,11.91l0.93,1.06l-2.64,2.38h-1.52l-2.64-2.38l0.93-1.06l2.47,1.67L57.39,11.91z M57.86,16.93l-0.42,2.36
		c-0.3-0.08-0.6-0.11-0.89-0.11c-0.6,0-1.06,0.21-1.41,0.64c-0.34,0.42-0.61,1.07-0.82,1.95v5.36h-2.43V17.06H54l0.23,1.98
		c0.24-0.72,0.59-1.28,1.05-1.66c0.46-0.39,0.98-0.58,1.58-0.58C57.22,16.79,57.56,16.84,57.86,16.93z"/>
	<path d="M67,22.83h-6.31c0.08,0.98,0.33,1.67,0.76,2.09c0.43,0.42,1,0.63,1.71,0.63c0.44,0,0.86-0.07,1.25-0.22
		s0.81-0.37,1.25-0.67l1.01,1.39c-1.11,0.9-2.36,1.35-3.72,1.35c-1.53,0-2.71-0.47-3.54-1.41s-1.25-2.22-1.25-3.84
		c0-1.03,0.18-1.95,0.53-2.76c0.35-0.82,0.87-1.46,1.54-1.92c0.67-0.46,1.47-0.69,2.39-0.69c1.41,0,2.5,0.45,3.27,1.34
		c0.77,0.89,1.16,2.14,1.16,3.73C67.06,21.97,67.04,22.3,67,22.83z M64.64,21.14c0-1.76-0.65-2.64-1.96-2.64
		c-0.59,0-1.06,0.22-1.4,0.66c-0.33,0.44-0.54,1.14-0.6,2.1h3.95V21.14z"/>
	<path d="M77.7,13.03v14.08h-2.15l-0.17-1.27c-0.32,0.48-0.72,0.86-1.21,1.14c-0.49,0.28-1.04,0.42-1.66,0.42
		c-1.23,0-2.17-0.48-2.83-1.43c-0.66-0.95-0.99-2.24-0.99-3.88c0-1.03,0.17-1.94,0.49-2.75c0.33-0.8,0.8-1.43,1.42-1.89
		s1.33-0.68,2.14-0.68c0.96,0,1.81,0.36,2.53,1.08v-5.09L77.7,13.03z M74.33,25.24c0.33-0.21,0.64-0.53,0.93-0.98v-4.6
		c-0.29-0.35-0.59-0.62-0.88-0.8c-0.3-0.18-0.64-0.27-1.04-0.27c-0.65,0-1.16,0.29-1.53,0.87c-0.38,0.58-0.56,1.45-0.56,2.61
		c0,1.24,0.16,2.13,0.49,2.67c0.33,0.54,0.81,0.81,1.44,0.81C73.62,25.55,74,25.45,74.33,25.24z"/>
	<path d="M88.08,17.58c0.5,0.54,0.75,1.29,0.75,2.25v7.28H86.4v-6.9c0-0.59-0.11-1.01-0.31-1.25c-0.21-0.24-0.52-0.36-0.92-0.36
		c-0.42,0-0.79,0.13-1.13,0.39c-0.34,0.26-0.66,0.64-0.98,1.13v6.99h-2.43V17.06h2.11l0.19,1.31c0.82-1.06,1.84-1.6,3.06-1.6
		C86.88,16.77,87.58,17.04,88.08,17.58z"/>
	<path d="M94.32,11.53l0.99,1.9l-4.29,1.71l-0.68-1.23L94.32,11.53z M94.09,17.06v10.05h-2.43V17.06H94.09z"/>
	<path d="M110.22,13.03v14.08h-2.15l-0.17-1.27c-0.32,0.48-0.72,0.86-1.21,1.14c-0.49,0.28-1.04,0.42-1.66,0.42
		c-1.23,0-2.17-0.48-2.83-1.43c-0.66-0.95-0.99-2.24-0.99-3.88c0-1.03,0.16-1.94,0.49-2.75s0.8-1.43,1.42-1.89
		c0.62-0.46,1.33-0.68,2.14-0.68c0.96,0,1.8,0.36,2.53,1.08v-5.09L110.22,13.03z M106.86,25.24c0.33-0.21,0.64-0.53,0.93-0.98v-4.6
		c-0.29-0.35-0.59-0.62-0.88-0.8c-0.3-0.18-0.64-0.27-1.04-0.27c-0.65,0-1.16,0.29-1.53,0.87c-0.37,0.58-0.56,1.45-0.56,2.61
		c0,1.24,0.16,2.13,0.49,2.67c0.33,0.54,0.81,0.81,1.44,0.81C106.15,25.55,106.53,25.45,106.86,25.24z"/>
	<path d="M121.34,22.83h-6.31c0.08,0.98,0.33,1.67,0.76,2.09s1,0.63,1.71,0.63c0.44,0,0.86-0.07,1.25-0.22s0.81-0.37,1.25-0.67
		l1.01,1.39c-1.11,0.9-2.36,1.35-3.72,1.35c-1.53,0-2.71-0.47-3.54-1.41c-0.83-0.94-1.24-2.22-1.24-3.84c0-1.03,0.18-1.95,0.53-2.76
		c0.35-0.82,0.87-1.46,1.54-1.92c0.67-0.46,1.47-0.69,2.39-0.69c1.41,0,2.5,0.45,3.27,1.34c0.77,0.89,1.16,2.14,1.16,3.73
		C121.4,21.97,121.38,22.3,121.34,22.83z M118.47,11.53l0.99,1.9l-4.29,1.71l-0.68-1.23L118.47,11.53z M118.98,21.14
		c0-1.76-0.65-2.64-1.96-2.64c-0.59,0-1.06,0.22-1.4,0.66c-0.33,0.44-0.54,1.14-0.6,2.1h3.95V21.14z"/>
	<path d="M124.14,26.72c-0.44-0.45-0.66-1.09-0.66-1.91V13.03l2.43-0.27v11.97c0,0.47,0.19,0.7,0.57,0.7c0.19,0,0.38-0.03,0.57-0.1
		l0.51,1.71c-0.51,0.23-1.04,0.34-1.62,0.34C125.18,27.4,124.58,27.17,124.14,26.72z"/>
	<path d="M131.62,12.76v14.35h-2.43V13.03L131.62,12.76z M137.64,17.06l-3.34,4.43l3.67,5.62h-2.79l-3.46-5.49l3.36-4.56H137.64z"/>
	<path d="M146.66,25.31c0.12,0.18,0.31,0.33,0.58,0.43l-0.51,1.62c-0.57-0.05-1.04-0.19-1.4-0.42c-0.36-0.23-0.64-0.58-0.83-1.04
		c-0.34,0.51-0.77,0.88-1.28,1.13c-0.51,0.25-1.09,0.37-1.72,0.37c-1,0-1.79-0.29-2.38-0.86c-0.58-0.57-0.87-1.32-0.87-2.24
		c0-1.09,0.4-1.92,1.19-2.5s1.92-0.86,3.39-0.86h1.25v-0.57c0-0.65-0.15-1.1-0.45-1.36c-0.3-0.26-0.78-0.39-1.43-0.39
		c-0.73,0-1.62,0.18-2.66,0.53l-0.57-1.65c1.25-0.48,2.47-0.72,3.65-0.72c2.57,0,3.86,1.15,3.86,3.46v4.22
		C146.48,24.84,146.54,25.13,146.66,25.31z M144.08,24.39v-2.03h-1.01c-1.57,0-2.36,0.58-2.36,1.75c0,0.48,0.12,0.85,0.36,1.12
		c0.24,0.27,0.6,0.4,1.06,0.4C142.97,25.63,143.61,25.22,144.08,24.39z"/>
	<path d="M160.71,17.06v1.75l-4.86,6.4h4.96l-0.25,1.9h-7.5v-1.75l4.88-6.4h-4.47v-1.9H160.71z M159.47,11.91l0.93,1.06l-2.64,2.38
		h-1.52l-2.64-2.38l0.93-1.06l2.47,1.67L159.47,11.91z"/>
	<path d="M165.01,12.39c0.29,0.29,0.43,0.64,0.43,1.05s-0.14,0.77-0.43,1.04s-0.65,0.42-1.11,0.42c-0.44,0-0.81-0.14-1.09-0.42
		s-0.43-0.63-0.43-1.04s0.14-0.77,0.43-1.05s0.65-0.43,1.09-0.43C164.36,11.97,164.72,12.11,165.01,12.39z M165.13,17.06v10.05
		h-2.43V17.06H165.13z"/>
	<path d="M176.14,17.06l-3.27,10.05h-2.91l-3.32-10.05h2.64l2.15,8.09l2.2-8.09H176.14z"/>
	<path d="M185.09,18.19c0.83,0.94,1.24,2.24,1.24,3.89c0,1.05-0.19,1.98-0.57,2.78c-0.38,0.8-0.92,1.43-1.63,1.87
		c-0.71,0.44-1.55,0.67-2.53,0.67c-1.48,0-2.64-0.47-3.48-1.42c-0.84-0.94-1.25-2.25-1.25-3.9c0-1.05,0.19-1.98,0.57-2.77
		c0.38-0.8,0.93-1.42,1.64-1.86s1.56-0.67,2.54-0.67C183.11,16.77,184.26,17.25,185.09,18.19z M179.44,22.07
		c0,1.19,0.18,2.07,0.54,2.63s0.9,0.84,1.62,0.84s1.26-0.28,1.62-0.85c0.36-0.57,0.54-1.44,0.54-2.62s-0.18-2.05-0.54-2.61
		c-0.36-0.56-0.9-0.85-1.61-0.85C180.17,18.62,179.44,19.77,179.44,22.07z"/>
	<path d="M194.38,26.63c-0.36,0.25-0.75,0.44-1.19,0.57c-0.44,0.13-0.88,0.19-1.34,0.19c-0.99-0.01-1.74-0.29-2.25-0.85
		c-0.51-0.55-0.77-1.37-0.77-2.44v-5.3h-1.58v-1.75h1.58v-2.22l2.43-0.29v2.51h2.34l-0.25,1.75h-2.09v5.24
		c0,0.49,0.08,0.85,0.26,1.06c0.17,0.22,0.44,0.32,0.81,0.32s0.77-0.12,1.2-0.36L194.38,26.63z"/>
	<path d="M203.16,25.31c0.12,0.18,0.31,0.33,0.58,0.43l-0.51,1.62c-0.57-0.05-1.04-0.19-1.4-0.42c-0.36-0.23-0.64-0.58-0.83-1.04
		c-0.34,0.51-0.77,0.88-1.28,1.13c-0.51,0.25-1.09,0.37-1.72,0.37c-1,0-1.79-0.29-2.38-0.86c-0.58-0.57-0.87-1.32-0.87-2.24
		c0-1.09,0.4-1.92,1.19-2.5s1.92-0.86,3.39-0.86h1.25v-0.57c0-0.65-0.15-1.1-0.45-1.36c-0.3-0.26-0.78-0.39-1.43-0.39
		c-0.73,0-1.62,0.18-2.66,0.53l-0.57-1.65c1.25-0.48,2.47-0.72,3.65-0.72c2.57,0,3.86,1.15,3.86,3.46v4.22
		C202.98,24.84,203.04,25.13,203.16,25.31z M200.59,24.39v-2.03h-1.01c-1.57,0-2.36,0.58-2.36,1.75c0,0.48,0.12,0.85,0.36,1.12
		c0.24,0.27,0.6,0.4,1.06,0.4C199.47,25.63,200.12,25.22,200.59,24.39z"/>
</g>
<g class="st1">
	<path d="M976.93,272.59c0.67,0.26,1.29,0.64,1.89,1.15l-1.35,1.41c-0.47-0.37-0.91-0.63-1.32-0.8c-0.41-0.16-0.89-0.25-1.44-0.25
		c-1.01,0-1.84,0.41-2.49,1.22s-0.97,2.05-0.97,3.72c0,1.75,0.26,3.01,0.77,3.78c0.51,0.77,1.29,1.16,2.35,1.16
		c0.8,0,1.49-0.17,2.09-0.51v-3.42h-1.98l-0.27-1.86h4.71v6.42c-1.42,0.86-2.93,1.29-4.52,1.29c-1.87,0-3.31-0.58-4.3-1.75
		c-0.99-1.17-1.49-2.87-1.49-5.11c0-1.43,0.27-2.66,0.81-3.7c0.54-1.03,1.26-1.81,2.18-2.35s1.92-0.8,3.04-0.8
		C975.5,272.2,976.27,272.33,976.93,272.59z"/>
	<path d="M987.35,275.43l-0.42,2.36c-0.3-0.08-0.6-0.11-0.89-0.11c-0.6,0-1.06,0.21-1.41,0.64c-0.34,0.42-0.61,1.07-0.82,1.95v5.36
		h-2.43v-10.05h2.11l0.23,1.98c0.24-0.72,0.59-1.28,1.04-1.66c0.46-0.39,0.98-0.58,1.58-0.58
		C986.71,275.3,987.05,275.35,987.35,275.43z"/>
	<path d="M995.82,283.82c0.12,0.18,0.31,0.33,0.58,0.43l-0.51,1.62c-0.57-0.05-1.04-0.19-1.4-0.42c-0.36-0.23-0.64-0.58-0.83-1.04
		c-0.34,0.51-0.77,0.88-1.28,1.13c-0.51,0.25-1.09,0.37-1.72,0.37c-1,0-1.79-0.29-2.38-0.86c-0.58-0.57-0.87-1.32-0.87-2.24
		c0-1.09,0.4-1.92,1.19-2.5s1.92-0.86,3.39-0.86h1.25v-0.57c0-0.65-0.15-1.1-0.45-1.36c-0.3-0.26-0.78-0.39-1.43-0.39
		c-0.73,0-1.62,0.18-2.66,0.53l-0.57-1.65c1.25-0.48,2.47-0.72,3.65-0.72c2.57,0,3.86,1.15,3.86,3.46v4.22
		C995.64,283.35,995.7,283.64,995.82,283.82z M993.24,282.9v-2.03h-1.01c-1.57,0-2.36,0.58-2.36,1.75c0,0.48,0.12,0.85,0.36,1.12
		c0.24,0.27,0.6,0.4,1.06,0.4C992.13,284.14,992.78,283.73,993.24,282.9z"/>
	<path d="M1001.61,273.45c-0.21,0.22-0.31,0.57-0.31,1.05v1.06h2.41l-0.27,1.75h-2.15v8.3h-2.43v-8.3h-1.63v-1.75h1.63v-1.1
		c0-0.95,0.31-1.72,0.92-2.31c0.62-0.59,1.49-0.88,2.61-0.88c0.89,0,1.75,0.2,2.6,0.59l-0.7,1.63c-0.54-0.25-1.1-0.38-1.65-0.38
		C1002.17,273.12,1001.82,273.23,1001.61,273.45z"/>
	<path d="M1015.21,272.83v12.79h-2.39v-10.34l-2.85,1.73l-1.06-1.63l4.16-2.55H1015.21z"/>
	<path d="M1020.38,283.27c0.3,0.3,0.46,0.66,0.46,1.09c0,0.42-0.15,0.78-0.46,1.08c-0.3,0.3-0.67,0.46-1.1,0.46
		c-0.42,0-0.78-0.15-1.07-0.46c-0.3-0.3-0.45-0.67-0.45-1.08c0-0.43,0.14-0.79,0.44-1.09c0.29-0.3,0.65-0.45,1.08-0.45
		S1020.07,282.97,1020.38,283.27z"/>
	<path d="M1026.42,272.83v12.79h-2.39v-10.34l-2.85,1.73l-1.06-1.63l4.16-2.55H1026.42z"/>
</g>
<g>
	<rect x="694.36" y="73.92" class="st0" width="25.63" height="168.76"/>
	<rect x="662.43" y="77.09" class="st0" width="25.63" height="165.59"/>
	<rect x="630.62" y="82.49" class="st0" width="25.17" height="160.19"/>
	<rect x="598.35" y="88.05" class="st0" width="25.63" height="154.63"/>
	<rect x="566.42" y="91.7" class="st0" width="25.63" height="150.98"/>
	<rect x="534.61" y="93.13" class="st0" width="25.17" height="149.55"/>
	<rect x="502.33" y="92.02" class="st0" width="25.63" height="150.66"/>
	<rect x="470.41" y="104.72" class="st0" width="25.63" height="137.96"/>
	<rect x="438.6" y="117.74" class="st0" width="25.17" height="124.94"/>
	<rect x="406.32" y="123.93" class="st0" width="25.63" height="118.75"/>
	<rect x="374.4" y="137.58" class="st0" width="25.63" height="105.1"/>
	<rect x="214.3" y="165.36" class="st0" width="25.63" height="77.32"/>
	<rect x="182.38" y="171.56" class="st0" width="25.63" height="71.13"/>
	<rect x="150.45" y="172.35" class="st0" width="25.63" height="70.33"/>
	<rect x="118.29" y="179.49" class="st0" width="25.63" height="63.19"/>
	<rect x="86.37" y="182.51" class="st0" width="25.63" height="60.17"/>
	<rect x="342.47" y="147.42" class="st0" width="25.63" height="95.26"/>
	<rect x="310.31" y="156.31" class="st0" width="25.63" height="86.37"/>
	<rect x="278.39" y="167.43" class="st0" width="25.63" height="75.25"/>
	<rect x="246.46" y="168.38" class="st0" width="25.63" height="74.3"/>
	<g class="st1">
		<g>
			<rect x="694.37" y="182.51" class="st2" width="25.63" height="60.17"/>
			<rect x="694.37" y="182.51" class="st3" width="25.63" height="60.17"/>
		</g>
		<g>
			<rect x="662.37" y="182.51" class="st2" width="25.63" height="60.17"/>
			<rect x="662.37" y="182.51" class="st3" width="25.63" height="60.17"/>
		</g>
		<g>
			<rect x="630.37" y="182.51" class="st2" width="25.63" height="60.17"/>
			<rect x="630.37" y="182.51" class="st3" width="25.63" height="60.17"/>
		</g>
		<g>
			<rect x="598.37" y="182.51" class="st2" width="25.63" height="60.17"/>
			<rect x="598.37" y="182.51" class="st3" width="25.63" height="60.17"/>
		</g>
		<g>
			<rect x="566.37" y="182.51" class="st2" width="25.63" height="60.17"/>
			<rect x="566.37" y="182.51" class="st3" width="25.63" height="60.17"/>
		</g>
		<g>
			<rect x="534.37" y="182.51" class="st2" width="25.63" height="60.17"/>
			<rect x="534.37" y="182.51" class="st3" width="25.63" height="60.17"/>
		</g>
		<g>
			<rect x="502.37" y="182.51" class="st2" width="25.63" height="60.17"/>
			<rect x="502.37" y="182.51" class="st3" width="25.63" height="60.17"/>
		</g>
		<g>
			<rect x="470.37" y="182.51" class="st2" width="25.63" height="60.17"/>
			<rect x="470.37" y="182.51" class="st3" width="25.63" height="60.17"/>
		</g>
		<g>
			<rect x="438.37" y="182.51" class="st2" width="25.63" height="60.17"/>
			<rect x="438.37" y="182.51" class="st3" width="25.63" height="60.17"/>
		</g>
		<g>
			<rect x="406.37" y="182.51" class="st2" width="25.63" height="60.17"/>
			<rect x="406.37" y="182.51" class="st3" width="25.63" height="60.17"/>
		</g>
		<g>
			<rect x="374.37" y="182.51" class="st2" width="25.63" height="60.17"/>
			<rect x="374.37" y="182.51" class="st3" width="25.63" height="60.17"/>
		</g>
		<g>
			<rect x="342.37" y="182.51" class="st2" width="25.63" height="60.17"/>
			<rect x="342.37" y="182.51" class="st3" width="25.63" height="60.17"/>
		</g>
		<g>
			<rect x="310.37" y="182.51" class="st2" width="25.63" height="60.17"/>
			<rect x="310.37" y="182.51" class="st3" width="25.63" height="60.17"/>
		</g>
		<g>
			<rect x="278.37" y="182.51" class="st2" width="25.63" height="60.17"/>
			<rect x="278.37" y="182.51" class="st3" width="25.63" height="60.17"/>
		</g>
		<g>
			<rect x="246.37" y="182.51" class="st2" width="25.63" height="60.17"/>
			<rect x="246.37" y="182.51" class="st3" width="25.63" height="60.17"/>
		</g>
		<g>
			<rect x="214.37" y="182.51" class="st2" width="25.63" height="60.17"/>
			<rect x="214.37" y="182.51" class="st3" width="25.63" height="60.17"/>
		</g>
		<g>
			<rect x="182.37" y="182.51" class="st2" width="25.63" height="60.17"/>
			<rect x="182.37" y="182.51" class="st3" width="25.63" height="60.17"/>
		</g>
		<g>
			<rect x="150.37" y="182.51" class="st2" width="25.63" height="60.17"/>
			<rect x="150.37" y="182.51" class="st3" width="25.63" height="60.17"/>
		</g>
		<g>
			<rect x="118.37" y="182.51" class="st2" width="25.63" height="60.17"/>
			<rect x="118.37" y="182.51" class="st3" width="25.63" height="60.17"/>
		</g>
		<g>
			<rect x="86.37" y="182.51" class="st2" width="25.63" height="60.17"/>
			<rect x="86.37" y="182.51" class="st3" width="25.63" height="60.17"/>
		</g>
	</g>
	<g class="st1">
		<g>
			<rect x="694.37" y="73.92" class="st2" width="25.63" height="48.52"/>
			<rect x="694.37" y="73.92" class="st3" width="25.63" height="48.52"/>
		</g>
		<g>
			<rect x="662.37" y="77.09" class="st2" width="25.63" height="45.35"/>
			<rect x="662.37" y="77.09" class="st3" width="25.63" height="45.35"/>
		</g>
		<g>
			<rect x="630.37" y="82.49" class="st2" width="25.63" height="39.95"/>
			<rect x="630.37" y="82.49" class="st3" width="25.63" height="39.95"/>
		</g>
		<g>
			<rect x="598.37" y="88.31" class="st2" width="25.63" height="34.13"/>
			<rect x="598.37" y="88.31" class="st3" width="25.63" height="34.13"/>
		</g>
		<g>
			<rect x="566.37" y="92.02" class="st2" width="25.63" height="30.42"/>
			<rect x="566.37" y="92.02" class="st3" width="25.63" height="30.42"/>
		</g>
		<g>
			<rect x="534.37" y="93.13" class="st2" width="25.63" height="29.31"/>
			<rect x="534.37" y="93.13" class="st3" width="25.63" height="29.31"/>
		</g>
		<g>
			<rect x="502.37" y="92.02" class="st2" width="25.63" height="30.42"/>
			<rect x="502.37" y="92.02" class="st3" width="25.63" height="30.42"/>
		</g>
		<g>
			<rect x="470.37" y="104.72" class="st2" width="25.63" height="17.72"/>
			<rect x="470.37" y="104.72" class="st3" width="25.63" height="17.72"/>
		</g>
		<g>
			<rect x="438.37" y="117.74" class="st2" width="25.63" height="4.7"/>
			<rect x="438.37" y="117.74" class="st3" width="25.63" height="4.7"/>
		</g>
	</g>
</g>
<line class="st6" x1="83.16" y1="242.68" x2="723.21" y2="242.68"/>
<g>
	<path class="st15" d="M63.89,237.73c0.49,0.81,0.73,2.02,0.73,3.63c0,1.62-0.24,2.84-0.73,3.65c-0.48,0.81-1.2,1.21-2.14,1.21
		c-0.95,0-1.67-0.41-2.16-1.22c-0.49-0.81-0.73-2.03-0.73-3.64c0-3.23,0.96-4.84,2.88-4.84C62.69,236.51,63.4,236.92,63.89,237.73z
		 M60.55,238.38c-0.26,0.59-0.39,1.58-0.39,2.98c0,1.4,0.13,2.39,0.39,2.98c0.26,0.59,0.66,0.88,1.2,0.88
		c0.53,0,0.93-0.29,1.18-0.88c0.26-0.59,0.39-1.58,0.39-2.98c0-1.4-0.13-2.39-0.38-2.98s-0.65-0.88-1.19-0.88
		C61.2,237.49,60.81,237.79,60.55,238.38z"/>
</g>
<g>
	<path class="st15" d="M75.06,256.13v9.37h-1.25v-8.05l-1.95,1.32l-0.57-0.84l2.66-1.79H75.06z"/>
	<path class="st15" d="M82.41,261.54c0.3,0.4,0.45,0.9,0.45,1.48c0,0.52-0.12,0.98-0.36,1.39c-0.24,0.4-0.59,0.71-1.04,0.94
		c-0.45,0.22-0.98,0.34-1.57,0.34c-0.59,0-1.1-0.11-1.55-0.33c-0.44-0.22-0.78-0.53-1.02-0.93s-0.36-0.86-0.36-1.37
		c0-1.16,0.59-1.99,1.78-2.49c-0.5-0.27-0.87-0.58-1.09-0.92c-0.22-0.34-0.34-0.76-0.34-1.25c0-0.5,0.12-0.94,0.35-1.3
		s0.55-0.64,0.95-0.83c0.4-0.19,0.83-0.28,1.31-0.28c0.75,0,1.37,0.21,1.87,0.62c0.5,0.41,0.75,0.99,0.75,1.74
		c0,0.48-0.12,0.89-0.36,1.23c-0.24,0.34-0.63,0.66-1.16,0.94C81.64,260.79,82.11,261.13,82.41,261.54z M81.15,264.27
		c0.3-0.29,0.45-0.7,0.45-1.25c0-0.5-0.12-0.88-0.37-1.16s-0.69-0.54-1.32-0.81l-0.39-0.15c-0.45,0.23-0.78,0.52-0.99,0.85
		s-0.31,0.76-0.31,1.26c0,0.56,0.15,0.98,0.45,1.26c0.3,0.28,0.71,0.42,1.25,0.42S80.85,264.56,81.15,264.27z M78.9,257.27
		c-0.25,0.25-0.38,0.62-0.38,1.13c0,0.42,0.11,0.75,0.32,0.99c0.21,0.24,0.57,0.46,1.07,0.67l0.32,0.14
		c0.39-0.26,0.67-0.53,0.83-0.81c0.16-0.27,0.25-0.61,0.25-1c0-0.49-0.12-0.87-0.36-1.11c-0.24-0.25-0.58-0.37-1.02-0.37
		C79.49,256.9,79.15,257.02,78.9,257.27z"/>
	<path class="st15" d="M87.62,256.29c0.38,0.21,0.68,0.5,0.88,0.85c0.21,0.36,0.31,0.75,0.31,1.18c0,0.6-0.15,1.08-0.46,1.45
		c-0.31,0.37-0.75,0.62-1.32,0.75c0.62,0.06,1.11,0.28,1.48,0.67c0.37,0.39,0.56,0.94,0.56,1.64c0,0.53-0.12,1.01-0.36,1.44
		c-0.24,0.43-0.58,0.77-1.02,1.02s-0.96,0.38-1.55,0.38c-0.54,0-1.02-0.1-1.45-0.31s-0.81-0.53-1.17-0.96l0.76-0.64
		c0.29,0.32,0.58,0.55,0.86,0.69s0.6,0.22,0.96,0.22c0.51,0,0.92-0.17,1.22-0.5c0.3-0.33,0.46-0.79,0.46-1.37
		c0-0.62-0.15-1.06-0.46-1.34c-0.3-0.27-0.74-0.41-1.31-0.41h-0.59l0.15-0.94h0.39c0.47,0,0.85-0.14,1.16-0.43
		c0.3-0.29,0.46-0.71,0.46-1.25c0-0.47-0.13-0.83-0.39-1.09c-0.26-0.26-0.61-0.39-1.06-0.39c-0.33,0-0.63,0.07-0.9,0.2
		s-0.55,0.34-0.83,0.62l-0.66-0.67c0.73-0.75,1.57-1.12,2.52-1.12C86.79,255.98,87.24,256.08,87.62,256.29z"/>
	<path class="st15" d="M95.51,257.2c0.49,0.81,0.73,2.02,0.73,3.63c0,1.62-0.24,2.84-0.73,3.65c-0.49,0.81-1.2,1.21-2.14,1.21
		c-0.95,0-1.67-0.41-2.16-1.22c-0.49-0.81-0.73-2.03-0.73-3.64c0-3.23,0.96-4.84,2.88-4.84C94.32,255.98,95.03,256.38,95.51,257.2z
		 M92.18,257.85c-0.26,0.59-0.39,1.58-0.39,2.98c0,1.4,0.13,2.39,0.39,2.98c0.26,0.59,0.66,0.88,1.2,0.88
		c0.53,0,0.93-0.29,1.18-0.88s0.38-1.58,0.38-2.98c0-1.4-0.13-2.39-0.38-2.98s-0.65-0.88-1.19-0.88
		C92.83,256.96,92.43,257.25,92.18,257.85z"/>
</g>
<g>
	<path class="st15" d="M300.16,256.13v9.37h-1.25v-8.05l-1.95,1.32l-0.57-0.84l2.66-1.79H300.16z"/>
	<path class="st15" d="M306.94,256.94c0.47,0.64,0.71,1.55,0.71,2.73c0,1.24-0.17,2.26-0.5,3.04c-0.34,0.79-0.84,1.42-1.51,1.89
		c-0.67,0.47-1.55,0.87-2.65,1.2l-0.28-0.92c1.14-0.35,2-0.83,2.6-1.42s0.94-1.41,1.03-2.46c-0.23,0.34-0.51,0.6-0.83,0.79
		c-0.32,0.19-0.68,0.29-1.08,0.29c-0.43,0-0.83-0.12-1.19-0.36c-0.37-0.24-0.65-0.59-0.86-1.04c-0.21-0.45-0.32-0.98-0.32-1.59
		c0-0.65,0.12-1.21,0.36-1.68c0.24-0.47,0.57-0.82,0.99-1.06c0.42-0.24,0.9-0.36,1.43-0.36
		C305.77,255.98,306.47,256.3,306.94,256.94z M306.36,259.94c0.01-1.07-0.1-1.84-0.34-2.3c-0.24-0.46-0.63-0.69-1.17-0.69
		c-0.49,0-0.86,0.18-1.13,0.54s-0.41,0.9-0.41,1.62c0,0.66,0.12,1.17,0.38,1.51c0.25,0.34,0.6,0.52,1.04,0.52
		C305.36,261.13,305.9,260.73,306.36,259.94z"/>
	<path class="st15" d="M314.1,257.2c0.49,0.81,0.73,2.02,0.73,3.63c0,1.62-0.24,2.84-0.73,3.65c-0.49,0.81-1.2,1.21-2.14,1.21
		c-0.95,0-1.67-0.41-2.16-1.22c-0.49-0.81-0.73-2.03-0.73-3.64c0-3.23,0.96-4.84,2.88-4.84C312.9,255.98,313.62,256.38,314.1,257.2z
		 M310.76,257.85c-0.26,0.59-0.39,1.58-0.39,2.98c0,1.4,0.13,2.39,0.39,2.98s0.66,0.88,1.2,0.88c0.53,0,0.93-0.29,1.18-0.88
		s0.38-1.58,0.38-2.98c0-1.4-0.12-2.39-0.38-2.98c-0.25-0.59-0.65-0.88-1.19-0.88C311.42,256.96,311.02,257.25,310.76,257.85z"/>
	<path class="st15" d="M321.4,257.2c0.49,0.81,0.73,2.02,0.73,3.63c0,1.62-0.24,2.84-0.73,3.65c-0.49,0.81-1.2,1.21-2.14,1.21
		c-0.95,0-1.67-0.41-2.16-1.22c-0.49-0.81-0.73-2.03-0.73-3.64c0-3.23,0.96-4.84,2.88-4.84C320.2,255.98,320.91,256.38,321.4,257.2z
		 M318.06,257.85c-0.26,0.59-0.38,1.58-0.38,2.98c0,1.4,0.13,2.39,0.38,2.98c0.26,0.59,0.66,0.88,1.2,0.88
		c0.53,0,0.93-0.29,1.18-0.88s0.39-1.58,0.39-2.98c0-1.4-0.13-2.39-0.38-2.98s-0.65-0.88-1.19-0.88S318.31,257.25,318.06,257.85z"/>
</g>
<g>
	<path class="st15" d="M337.19,256.13v9.37h-1.25v-8.05l-1.95,1.32l-0.57-0.84l2.66-1.79H337.19z"/>
	<path class="st15" d="M344.33,257.2c0.49,0.81,0.73,2.02,0.73,3.63c0,1.62-0.24,2.84-0.73,3.65c-0.49,0.81-1.2,1.21-2.14,1.21
		c-0.95,0-1.67-0.41-2.16-1.22c-0.49-0.81-0.73-2.03-0.73-3.64c0-3.23,0.96-4.84,2.88-4.84
		C343.13,255.98,343.85,256.38,344.33,257.2z M340.99,257.85c-0.26,0.59-0.39,1.58-0.39,2.98c0,1.4,0.13,2.39,0.39,2.98
		s0.66,0.88,1.2,0.88c0.53,0,0.93-0.29,1.18-0.88s0.38-1.58,0.38-2.98c0-1.4-0.12-2.39-0.38-2.98c-0.25-0.59-0.65-0.88-1.19-0.88
		C341.65,256.96,341.25,257.25,340.99,257.85z"/>
</g>
<g>
	<path class="st15" d="M113.05,262.18v1.01h-1.06v2.31h-1.2v-2.31h-3.67v-0.91l2.51-6.31l1.06,0.41l-2.28,5.81h2.39l0.13-2.55h1.06
		v2.55H113.05z"/>
	<path class="st15" d="M119.21,257.2c0.49,0.81,0.73,2.02,0.73,3.63c0,1.62-0.24,2.84-0.73,3.65c-0.49,0.81-1.2,1.21-2.14,1.21
		c-0.95,0-1.67-0.41-2.16-1.22c-0.49-0.81-0.73-2.03-0.73-3.64c0-3.23,0.96-4.84,2.88-4.84
		C118.01,255.98,118.73,256.38,119.21,257.2z M115.87,257.85c-0.26,0.59-0.39,1.58-0.39,2.98c0,1.4,0.13,2.39,0.39,2.98
		c0.26,0.59,0.66,0.88,1.2,0.88c0.53,0,0.93-0.29,1.18-0.88s0.38-1.58,0.38-2.98c0-1.4-0.13-2.39-0.38-2.98s-0.65-0.88-1.19-0.88
		C116.53,256.96,116.13,257.25,115.87,257.85z"/>
</g>
<g>
	<path class="st15" d="M143.99,257.11h-3.28v2.8c0.44-0.26,0.9-0.39,1.37-0.39c0.72,0,1.3,0.26,1.74,0.78
		c0.44,0.52,0.66,1.25,0.66,2.17c0,0.63-0.12,1.18-0.37,1.67c-0.25,0.49-0.59,0.86-1.04,1.13s-0.97,0.41-1.57,0.41
		c-0.53,0-1-0.1-1.41-0.31s-0.79-0.51-1.15-0.91l0.74-0.67c0.27,0.29,0.54,0.51,0.83,0.65c0.28,0.14,0.6,0.22,0.96,0.22
		c0.54,0,0.96-0.19,1.26-0.57c0.3-0.38,0.45-0.92,0.45-1.63c0-1.33-0.5-2-1.51-2c-0.22,0-0.43,0.03-0.62,0.09
		c-0.19,0.06-0.4,0.16-0.63,0.29h-0.91v-4.7h4.65L143.99,257.11z"/>
	<path class="st15" d="M150.83,257.2c0.49,0.81,0.73,2.02,0.73,3.63c0,1.62-0.24,2.84-0.73,3.65c-0.49,0.81-1.2,1.21-2.14,1.21
		c-0.95,0-1.67-0.41-2.16-1.22c-0.49-0.81-0.73-2.03-0.73-3.64c0-3.23,0.96-4.84,2.88-4.84
		C149.63,255.98,150.35,256.38,150.83,257.2z M147.49,257.85c-0.26,0.59-0.38,1.58-0.38,2.98c0,1.4,0.13,2.39,0.38,2.98
		c0.26,0.59,0.66,0.88,1.2,0.88c0.53,0,0.93-0.29,1.18-0.88s0.39-1.58,0.39-2.98c0-1.4-0.13-2.39-0.38-2.98s-0.65-0.88-1.19-0.88
		S147.75,257.25,147.49,257.85z"/>
</g>
<g>
	<path class="st15" d="M175.49,259.67c0.35,0.22,0.63,0.56,0.83,1.01c0.21,0.45,0.31,0.99,0.31,1.64c0,0.69-0.11,1.29-0.34,1.8
		c-0.23,0.51-0.55,0.9-0.96,1.16c-0.41,0.27-0.88,0.4-1.41,0.4c-1,0-1.73-0.39-2.21-1.18c-0.47-0.79-0.71-1.89-0.71-3.3
		c0-1.07,0.13-2,0.4-2.79c0.27-0.78,0.65-1.39,1.15-1.81c0.5-0.42,1.08-0.63,1.76-0.63c0.65,0,1.23,0.19,1.74,0.57l-0.49,0.8
		c-0.39-0.26-0.8-0.39-1.22-0.39c-0.61,0-1.09,0.32-1.45,0.95s-0.56,1.51-0.61,2.63c0.53-0.8,1.21-1.2,2.04-1.2
		C174.75,259.34,175.14,259.45,175.49,259.67z M175,264.09c0.25-0.41,0.37-0.99,0.37-1.74c0-0.72-0.12-1.24-0.36-1.57
		c-0.24-0.33-0.56-0.49-0.97-0.49c-0.35,0-0.67,0.12-0.97,0.35c-0.3,0.23-0.57,0.56-0.79,0.97c0.02,1.07,0.16,1.86,0.41,2.35
		c0.26,0.5,0.66,0.74,1.21,0.74C174.38,264.7,174.75,264.5,175,264.09z"/>
	<path class="st15" d="M182.97,257.2c0.49,0.81,0.73,2.02,0.73,3.63c0,1.62-0.24,2.84-0.73,3.65c-0.49,0.81-1.2,1.21-2.14,1.21
		c-0.95,0-1.67-0.41-2.16-1.22c-0.49-0.81-0.73-2.03-0.73-3.64c0-3.23,0.96-4.84,2.88-4.84
		C181.77,255.98,182.48,256.38,182.97,257.2z M179.63,257.85c-0.26,0.59-0.39,1.58-0.39,2.98c0,1.4,0.13,2.39,0.39,2.98
		c0.26,0.59,0.66,0.88,1.2,0.88c0.53,0,0.93-0.29,1.18-0.88s0.38-1.58,0.38-2.98c0-1.4-0.13-2.39-0.38-2.98s-0.65-0.88-1.19-0.88
		C180.29,256.96,179.89,257.25,179.63,257.85z"/>
</g>
<g>
	<path class="st15" d="M207.67,256.13v0.92l-3.21,8.58l-1.13-0.36l3.08-8.13h-3.75v-1.01H207.67z"/>
	<path class="st15" d="M213.83,257.2c0.49,0.81,0.73,2.02,0.73,3.63c0,1.62-0.24,2.84-0.73,3.65c-0.49,0.81-1.2,1.21-2.14,1.21
		c-0.95,0-1.67-0.41-2.16-1.22c-0.49-0.81-0.73-2.03-0.73-3.64c0-3.23,0.96-4.84,2.88-4.84
		C212.63,255.98,213.35,256.38,213.83,257.2z M210.49,257.85c-0.26,0.59-0.38,1.58-0.38,2.98c0,1.4,0.13,2.39,0.38,2.98
		s0.66,0.88,1.2,0.88c0.53,0,0.93-0.29,1.18-0.88s0.39-1.58,0.39-2.98c0-1.4-0.13-2.39-0.38-2.98c-0.25-0.59-0.65-0.88-1.19-0.88
		S210.75,257.25,210.49,257.85z"/>
</g>
<g>
	<path class="st15" d="M239.24,261.54c0.3,0.4,0.45,0.9,0.45,1.48c0,0.52-0.12,0.98-0.36,1.39c-0.24,0.4-0.59,0.71-1.04,0.94
		c-0.45,0.22-0.98,0.34-1.57,0.34c-0.59,0-1.1-0.11-1.55-0.33c-0.44-0.22-0.78-0.53-1.02-0.93s-0.36-0.86-0.36-1.37
		c0-1.16,0.59-1.99,1.78-2.49c-0.5-0.27-0.87-0.58-1.09-0.92c-0.22-0.34-0.34-0.76-0.34-1.25c0-0.5,0.12-0.94,0.35-1.3
		s0.55-0.64,0.95-0.83c0.4-0.19,0.83-0.28,1.31-0.28c0.75,0,1.37,0.21,1.87,0.62c0.5,0.41,0.75,0.99,0.75,1.74
		c0,0.48-0.12,0.89-0.36,1.23c-0.24,0.34-0.63,0.66-1.16,0.94C238.47,260.79,238.94,261.13,239.24,261.54z M237.98,264.27
		c0.3-0.29,0.45-0.7,0.45-1.25c0-0.5-0.12-0.88-0.37-1.16s-0.69-0.54-1.32-0.81l-0.39-0.15c-0.45,0.23-0.78,0.52-0.99,0.85
		s-0.31,0.76-0.31,1.26c0,0.56,0.15,0.98,0.45,1.26c0.3,0.28,0.71,0.42,1.25,0.42S237.68,264.56,237.98,264.27z M235.72,257.27
		c-0.25,0.25-0.38,0.62-0.38,1.13c0,0.42,0.11,0.75,0.32,0.99c0.21,0.24,0.57,0.46,1.07,0.67l0.32,0.14
		c0.39-0.26,0.67-0.53,0.83-0.81c0.16-0.27,0.25-0.61,0.25-1c0-0.49-0.12-0.87-0.36-1.11c-0.24-0.25-0.58-0.37-1.02-0.37
		C236.31,256.9,235.97,257.02,235.72,257.27z"/>
	<path class="st15" d="M246.03,257.2c0.49,0.81,0.73,2.02,0.73,3.63c0,1.62-0.24,2.84-0.73,3.65c-0.49,0.81-1.2,1.21-2.14,1.21
		c-0.95,0-1.67-0.41-2.16-1.22c-0.49-0.81-0.73-2.03-0.73-3.64c0-3.23,0.96-4.84,2.88-4.84
		C244.83,255.98,245.54,256.38,246.03,257.2z M242.69,257.85c-0.26,0.59-0.38,1.58-0.38,2.98c0,1.4,0.13,2.39,0.38,2.98
		s0.66,0.88,1.2,0.88c0.53,0,0.93-0.29,1.18-0.88s0.39-1.58,0.39-2.98c0-1.4-0.13-2.39-0.38-2.98c-0.25-0.59-0.65-0.88-1.19-0.88
		S242.94,257.25,242.69,257.85z"/>
</g>
<g>
	<path class="st15" d="M270.86,256.94c0.47,0.64,0.71,1.55,0.71,2.73c0,1.24-0.17,2.26-0.5,3.04c-0.34,0.79-0.84,1.42-1.5,1.89
		c-0.67,0.47-1.55,0.87-2.65,1.2l-0.28-0.92c1.14-0.35,2-0.83,2.6-1.42c0.59-0.59,0.94-1.41,1.03-2.46
		c-0.23,0.34-0.51,0.6-0.83,0.79s-0.68,0.29-1.08,0.29c-0.43,0-0.83-0.12-1.19-0.36c-0.36-0.24-0.65-0.59-0.86-1.04
		c-0.21-0.45-0.32-0.98-0.32-1.59c0-0.65,0.12-1.21,0.37-1.68c0.24-0.47,0.57-0.82,0.99-1.06c0.42-0.24,0.9-0.36,1.43-0.36
		C269.69,255.98,270.39,256.3,270.86,256.94z M270.28,259.94c0.01-1.07-0.11-1.84-0.34-2.3c-0.24-0.46-0.63-0.69-1.17-0.69
		c-0.49,0-0.86,0.18-1.13,0.54c-0.27,0.36-0.41,0.9-0.41,1.62c0,0.66,0.13,1.17,0.38,1.51c0.25,0.34,0.6,0.52,1.04,0.52
		C269.28,261.13,269.82,260.73,270.28,259.94z"/>
	<path class="st15" d="M278.02,257.2c0.48,0.81,0.73,2.02,0.73,3.63c0,1.62-0.24,2.84-0.73,3.65c-0.49,0.81-1.2,1.21-2.14,1.21
		c-0.95,0-1.67-0.41-2.16-1.22c-0.48-0.81-0.73-2.03-0.73-3.64c0-3.23,0.96-4.84,2.88-4.84
		C276.82,255.98,277.54,256.38,278.02,257.2z M274.68,257.85c-0.26,0.59-0.38,1.58-0.38,2.98c0,1.4,0.13,2.39,0.38,2.98
		c0.26,0.59,0.66,0.88,1.2,0.88c0.53,0,0.93-0.29,1.18-0.88c0.26-0.59,0.38-1.58,0.38-2.98c0-1.4-0.13-2.39-0.38-2.98
		c-0.25-0.59-0.65-0.88-1.19-0.88S274.94,257.25,274.68,257.85z"/>
</g>
<g>
	<path class="st15" d="M399.14,256.29c0.38,0.21,0.68,0.5,0.88,0.85s0.31,0.75,0.31,1.18c0,0.6-0.15,1.08-0.46,1.45
		c-0.31,0.37-0.75,0.62-1.32,0.75c0.62,0.06,1.11,0.28,1.48,0.67c0.37,0.39,0.56,0.94,0.56,1.64c0,0.53-0.12,1.01-0.36,1.44
		c-0.24,0.43-0.58,0.77-1.02,1.02s-0.96,0.38-1.55,0.38c-0.54,0-1.02-0.1-1.45-0.31s-0.81-0.53-1.17-0.96l0.76-0.64
		c0.29,0.32,0.58,0.55,0.86,0.69c0.28,0.14,0.6,0.22,0.96,0.22c0.51,0,0.92-0.17,1.22-0.5c0.3-0.33,0.46-0.79,0.46-1.37
		c0-0.62-0.15-1.06-0.46-1.34c-0.3-0.27-0.74-0.41-1.31-0.41h-0.59l0.15-0.94h0.39c0.47,0,0.85-0.14,1.15-0.43
		c0.3-0.29,0.46-0.71,0.46-1.25c0-0.47-0.13-0.83-0.38-1.09c-0.26-0.26-0.61-0.39-1.06-0.39c-0.33,0-0.63,0.07-0.9,0.2
		s-0.55,0.34-0.83,0.62l-0.66-0.67c0.73-0.75,1.57-1.12,2.52-1.12C398.31,255.98,398.75,256.08,399.14,256.29z"/>
	<path class="st15" d="M407.03,257.2c0.49,0.81,0.73,2.02,0.73,3.63c0,1.62-0.24,2.84-0.73,3.65c-0.49,0.81-1.2,1.21-2.14,1.21
		c-0.95,0-1.67-0.41-2.16-1.22c-0.49-0.81-0.73-2.03-0.73-3.64c0-3.23,0.96-4.84,2.88-4.84
		C405.83,255.98,406.55,256.38,407.03,257.2z M403.69,257.85c-0.26,0.59-0.38,1.58-0.38,2.98c0,1.4,0.13,2.39,0.38,2.98
		s0.66,0.88,1.2,0.88c0.53,0,0.93-0.29,1.18-0.88s0.39-1.58,0.39-2.98c0-1.4-0.13-2.39-0.38-2.98c-0.25-0.59-0.65-0.88-1.19-0.88
		S403.95,257.25,403.69,257.85z"/>
</g>
<g>
	<path class="st15" d="M367.86,256.31c0.39,0.22,0.68,0.52,0.89,0.9s0.31,0.8,0.31,1.28c0,0.57-0.11,1.11-0.33,1.62
		c-0.22,0.51-0.57,1.08-1.06,1.7c-0.49,0.63-1.23,1.51-2.24,2.66h3.84l-0.15,1.04h-5.07v-0.98c1.08-1.25,1.88-2.2,2.37-2.84
		c0.5-0.64,0.85-1.2,1.04-1.66c0.2-0.46,0.29-0.95,0.29-1.46c0-0.49-0.12-0.88-0.37-1.15c-0.25-0.27-0.58-0.41-1-0.41
		c-0.35,0-0.66,0.08-0.92,0.24c-0.26,0.16-0.53,0.41-0.81,0.76l-0.78-0.6c0.68-0.94,1.55-1.41,2.62-1.41
		C367.02,255.98,367.47,256.09,367.86,256.31z"/>
	<path class="st15" d="M375.61,257.2c0.49,0.81,0.73,2.02,0.73,3.63c0,1.62-0.24,2.84-0.73,3.65c-0.49,0.81-1.2,1.21-2.14,1.21
		c-0.95,0-1.67-0.41-2.16-1.22c-0.49-0.81-0.73-2.03-0.73-3.64c0-3.23,0.96-4.84,2.88-4.84
		C374.41,255.98,375.13,256.38,375.61,257.2z M372.27,257.85c-0.26,0.59-0.39,1.58-0.39,2.98c0,1.4,0.13,2.39,0.39,2.98
		s0.66,0.88,1.2,0.88c0.53,0,0.93-0.29,1.18-0.88s0.38-1.58,0.38-2.98c0-1.4-0.12-2.39-0.38-2.98c-0.25-0.59-0.65-0.88-1.19-0.88
		C372.93,256.96,372.53,257.25,372.27,257.85z"/>
</g>
<g>
	<path class="st15" d="M615.54,256.31c0.39,0.22,0.68,0.52,0.89,0.9c0.21,0.38,0.31,0.8,0.31,1.28c0,0.57-0.11,1.11-0.33,1.62
		c-0.22,0.51-0.57,1.08-1.06,1.7c-0.49,0.63-1.23,1.51-2.24,2.66h3.84l-0.15,1.04h-5.07v-0.98c1.08-1.25,1.87-2.2,2.37-2.84
		c0.5-0.64,0.85-1.2,1.04-1.66c0.2-0.46,0.29-0.95,0.29-1.46c0-0.49-0.12-0.88-0.37-1.15s-0.58-0.41-1-0.41
		c-0.36,0-0.66,0.08-0.92,0.24c-0.26,0.16-0.53,0.41-0.81,0.76l-0.78-0.6c0.68-0.94,1.55-1.41,2.62-1.41
		C614.69,255.98,615.15,256.09,615.54,256.31z"/>
	<path class="st15" d="M623.28,257.2c0.49,0.81,0.73,2.02,0.73,3.63c0,1.62-0.24,2.84-0.73,3.65c-0.49,0.81-1.2,1.21-2.14,1.21
		c-0.95,0-1.67-0.41-2.16-1.22c-0.49-0.81-0.73-2.03-0.73-3.64c0-3.23,0.96-4.84,2.88-4.84C622.09,255.98,622.8,256.38,623.28,257.2
		z M619.95,257.85c-0.26,0.59-0.38,1.58-0.38,2.98c0,1.4,0.13,2.39,0.38,2.98c0.26,0.59,0.66,0.88,1.2,0.88
		c0.53,0,0.93-0.29,1.18-0.88s0.39-1.58,0.39-2.98c0-1.4-0.13-2.39-0.38-2.98s-0.65-0.88-1.19-0.88S620.2,257.25,619.95,257.85z"/>
	<path class="st15" d="M630.58,257.2c0.49,0.81,0.73,2.02,0.73,3.63c0,1.62-0.24,2.84-0.73,3.65c-0.49,0.81-1.2,1.21-2.14,1.21
		c-0.95,0-1.67-0.41-2.16-1.22c-0.49-0.81-0.73-2.03-0.73-3.64c0-3.23,0.96-4.84,2.88-4.84
		C629.38,255.98,630.09,256.38,630.58,257.2z M627.24,257.85c-0.26,0.59-0.39,1.58-0.39,2.98c0,1.4,0.13,2.39,0.39,2.98
		s0.66,0.88,1.2,0.88c0.53,0,0.93-0.29,1.18-0.88s0.38-1.58,0.38-2.98c0-1.4-0.12-2.39-0.38-2.98c-0.25-0.59-0.65-0.88-1.19-0.88
		C627.89,256.96,627.5,257.25,627.24,257.85z"/>
	<path class="st15" d="M637.87,257.2c0.49,0.81,0.73,2.02,0.73,3.63c0,1.62-0.24,2.84-0.73,3.65c-0.49,0.81-1.2,1.21-2.14,1.21
		c-0.95,0-1.67-0.41-2.16-1.22c-0.49-0.81-0.73-2.03-0.73-3.64c0-3.23,0.96-4.84,2.88-4.84
		C636.67,255.98,637.39,256.38,637.87,257.2z M634.53,257.85c-0.26,0.59-0.38,1.58-0.38,2.98c0,1.4,0.13,2.39,0.38,2.98
		c0.26,0.59,0.66,0.88,1.2,0.88c0.53,0,0.93-0.29,1.18-0.88s0.39-1.58,0.39-2.98c0-1.4-0.13-2.39-0.38-2.98s-0.65-0.88-1.19-0.88
		S634.79,257.25,634.53,257.85z"/>
</g>
<g>
	<path class="st15" d="M657.01,256.13v9.37h-1.25v-8.05l-1.95,1.32l-0.57-0.84l2.66-1.79H657.01z"/>
	<path class="st15" d="M664.15,257.2c0.49,0.81,0.73,2.02,0.73,3.63c0,1.62-0.24,2.84-0.73,3.65c-0.49,0.81-1.2,1.21-2.14,1.21
		c-0.95,0-1.67-0.41-2.16-1.22c-0.49-0.81-0.73-2.03-0.73-3.64c0-3.23,0.96-4.84,2.88-4.84
		C662.95,255.98,663.66,256.38,664.15,257.2z M660.81,257.85c-0.26,0.59-0.38,1.58-0.38,2.98c0,1.4,0.13,2.39,0.38,2.98
		c0.26,0.59,0.66,0.88,1.2,0.88c0.53,0,0.93-0.29,1.18-0.88s0.39-1.58,0.39-2.98c0-1.4-0.13-2.39-0.38-2.98s-0.65-0.88-1.19-0.88
		S661.06,257.25,660.81,257.85z"/>
</g>
<g>
	<path class="st15" d="M689.28,256.13v9.37h-1.25v-8.05l-1.95,1.32l-0.57-0.84l2.66-1.79H689.28z"/>
	<path class="st15" d="M696.63,261.54c0.3,0.4,0.45,0.9,0.45,1.48c0,0.52-0.12,0.98-0.36,1.39s-0.59,0.71-1.04,0.94
		c-0.45,0.22-0.98,0.34-1.58,0.34c-0.59,0-1.1-0.11-1.55-0.33c-0.44-0.22-0.78-0.53-1.02-0.93s-0.36-0.86-0.36-1.37
		c0-1.16,0.59-1.99,1.78-2.49c-0.5-0.27-0.87-0.58-1.09-0.92c-0.22-0.34-0.34-0.76-0.34-1.25c0-0.5,0.12-0.94,0.35-1.3
		s0.55-0.64,0.94-0.83c0.4-0.19,0.83-0.28,1.31-0.28c0.75,0,1.37,0.21,1.87,0.62c0.5,0.41,0.75,0.99,0.75,1.74
		c0,0.48-0.12,0.89-0.36,1.23c-0.24,0.34-0.63,0.66-1.16,0.94C695.86,260.79,696.33,261.13,696.63,261.54z M695.37,264.27
		c0.3-0.29,0.45-0.7,0.45-1.25c0-0.5-0.12-0.88-0.37-1.16c-0.25-0.28-0.69-0.54-1.32-0.81l-0.39-0.15
		c-0.45,0.23-0.78,0.52-0.99,0.85s-0.32,0.76-0.32,1.26c0,0.56,0.15,0.98,0.45,1.26c0.3,0.28,0.71,0.42,1.25,0.42
		S695.07,264.56,695.37,264.27z M693.12,257.27c-0.25,0.25-0.38,0.62-0.38,1.13c0,0.42,0.11,0.75,0.31,0.99
		c0.21,0.24,0.57,0.46,1.07,0.67l0.32,0.14c0.39-0.26,0.67-0.53,0.83-0.81c0.16-0.27,0.24-0.61,0.24-1c0-0.49-0.12-0.87-0.36-1.11
		c-0.24-0.25-0.58-0.37-1.02-0.37C693.71,256.9,693.37,257.02,693.12,257.27z"/>
</g>
<g>
	<path class="st15" d="M432.76,262.18v1.01h-1.06v2.31h-1.2v-2.31h-3.67v-0.91l2.51-6.31l1.06,0.41l-2.28,5.81h2.39l0.13-2.55h1.06
		v2.55H432.76z"/>
	<path class="st15" d="M438.92,257.2c0.48,0.81,0.73,2.02,0.73,3.63c0,1.62-0.24,2.84-0.73,3.65c-0.49,0.81-1.2,1.21-2.14,1.21
		c-0.95,0-1.67-0.41-2.16-1.22c-0.48-0.81-0.73-2.03-0.73-3.64c0-3.23,0.96-4.84,2.88-4.84
		C437.72,255.98,438.43,256.38,438.92,257.2z M435.58,257.85c-0.26,0.59-0.38,1.58-0.38,2.98c0,1.4,0.13,2.39,0.38,2.98
		c0.26,0.59,0.66,0.88,1.2,0.88c0.53,0,0.93-0.29,1.18-0.88c0.26-0.59,0.38-1.58,0.38-2.98c0-1.4-0.13-2.39-0.38-2.98
		c-0.25-0.59-0.65-0.88-1.19-0.88S435.83,257.25,435.58,257.85z"/>
</g>
<g>
	<path class="st15" d="M463.6,257.11h-3.28v2.8c0.44-0.26,0.9-0.39,1.37-0.39c0.72,0,1.3,0.26,1.74,0.78
		c0.44,0.52,0.66,1.25,0.66,2.17c0,0.63-0.12,1.18-0.37,1.67c-0.25,0.49-0.6,0.86-1.04,1.13c-0.45,0.27-0.97,0.41-1.57,0.41
		c-0.53,0-1-0.1-1.41-0.31s-0.79-0.51-1.16-0.91l0.74-0.67c0.27,0.29,0.55,0.51,0.83,0.65s0.6,0.22,0.97,0.22
		c0.54,0,0.96-0.19,1.26-0.57c0.3-0.38,0.45-0.92,0.45-1.63c0-1.33-0.5-2-1.51-2c-0.22,0-0.43,0.03-0.62,0.09s-0.4,0.16-0.63,0.29
		h-0.91v-4.7h4.65L463.6,257.11z"/>
	<path class="st15" d="M470.45,257.2c0.49,0.81,0.73,2.02,0.73,3.63c0,1.62-0.24,2.84-0.73,3.65c-0.49,0.81-1.2,1.21-2.14,1.21
		c-0.95,0-1.67-0.41-2.16-1.22c-0.49-0.81-0.73-2.03-0.73-3.64c0-3.23,0.96-4.84,2.88-4.84
		C469.25,255.98,469.96,256.38,470.45,257.2z M467.11,257.85c-0.26,0.59-0.39,1.58-0.39,2.98c0,1.4,0.13,2.39,0.39,2.98
		c0.26,0.59,0.66,0.88,1.2,0.88c0.53,0,0.93-0.29,1.18-0.88s0.38-1.58,0.38-2.98c0-1.4-0.13-2.39-0.38-2.98s-0.65-0.88-1.19-0.88
		C467.77,256.96,467.37,257.25,467.11,257.85z"/>
</g>
<g>
	<path class="st15" d="M495.02,259.67c0.35,0.22,0.63,0.56,0.83,1.01c0.21,0.45,0.31,0.99,0.31,1.64c0,0.69-0.11,1.29-0.34,1.8
		c-0.23,0.51-0.55,0.9-0.96,1.16c-0.41,0.27-0.88,0.4-1.41,0.4c-1,0-1.73-0.39-2.21-1.18s-0.71-1.89-0.71-3.3
		c0-1.07,0.13-2,0.4-2.79c0.27-0.78,0.65-1.39,1.15-1.81s1.08-0.63,1.76-0.63c0.65,0,1.23,0.19,1.74,0.57l-0.49,0.8
		c-0.39-0.26-0.8-0.39-1.22-0.39c-0.61,0-1.09,0.32-1.45,0.95s-0.56,1.51-0.61,2.63c0.53-0.8,1.21-1.2,2.04-1.2
		C494.28,259.34,494.67,259.45,495.02,259.67z M494.53,264.09c0.25-0.41,0.37-0.99,0.37-1.74c0-0.72-0.12-1.24-0.36-1.57
		c-0.24-0.33-0.56-0.49-0.97-0.49c-0.35,0-0.67,0.12-0.97,0.35c-0.3,0.23-0.57,0.56-0.79,0.97c0.02,1.07,0.16,1.86,0.41,2.35
		c0.26,0.5,0.66,0.74,1.21,0.74C493.91,264.7,494.28,264.5,494.53,264.09z"/>
	<path class="st15" d="M502.5,257.2c0.49,0.81,0.73,2.02,0.73,3.63c0,1.62-0.24,2.84-0.73,3.65c-0.49,0.81-1.2,1.21-2.14,1.21
		c-0.95,0-1.67-0.41-2.16-1.22c-0.49-0.81-0.73-2.03-0.73-3.64c0-3.23,0.96-4.84,2.88-4.84C501.3,255.98,502.01,256.38,502.5,257.2z
		 M499.16,257.85c-0.26,0.59-0.39,1.58-0.39,2.98c0,1.4,0.13,2.39,0.39,2.98s0.66,0.88,1.2,0.88c0.53,0,0.93-0.29,1.18-0.88
		s0.38-1.58,0.38-2.98c0-1.4-0.12-2.39-0.38-2.98c-0.25-0.59-0.65-0.88-1.19-0.88C499.82,256.96,499.42,257.25,499.16,257.85z"/>
</g>
<g>
	<path class="st15" d="M527.12,256.13v0.92l-3.21,8.58l-1.13-0.36l3.08-8.13h-3.75v-1.01H527.12z"/>
	<path class="st15" d="M533.28,257.2c0.49,0.81,0.73,2.02,0.73,3.63c0,1.62-0.24,2.84-0.73,3.65c-0.49,0.81-1.2,1.21-2.14,1.21
		c-0.95,0-1.67-0.41-2.16-1.22c-0.49-0.81-0.73-2.03-0.73-3.64c0-3.23,0.96-4.84,2.88-4.84
		C532.08,255.98,532.79,256.38,533.28,257.2z M529.94,257.85c-0.26,0.59-0.39,1.58-0.39,2.98c0,1.4,0.13,2.39,0.39,2.98
		c0.26,0.59,0.66,0.88,1.2,0.88c0.53,0,0.93-0.29,1.18-0.88s0.38-1.58,0.38-2.98c0-1.4-0.13-2.39-0.38-2.98s-0.65-0.88-1.19-0.88
		C530.59,256.96,530.19,257.25,529.94,257.85z"/>
</g>
<g>
	<path class="st15" d="M558.6,261.54c0.3,0.4,0.45,0.9,0.45,1.48c0,0.52-0.12,0.98-0.36,1.39s-0.59,0.71-1.04,0.94
		c-0.45,0.22-0.98,0.34-1.58,0.34c-0.59,0-1.1-0.11-1.55-0.33c-0.44-0.22-0.78-0.53-1.02-0.93s-0.36-0.86-0.36-1.37
		c0-1.16,0.59-1.99,1.78-2.49c-0.5-0.27-0.87-0.58-1.09-0.92c-0.22-0.34-0.34-0.76-0.34-1.25c0-0.5,0.12-0.94,0.35-1.3
		s0.55-0.64,0.94-0.83c0.4-0.19,0.83-0.28,1.31-0.28c0.75,0,1.37,0.21,1.87,0.62c0.5,0.41,0.75,0.99,0.75,1.74
		c0,0.48-0.12,0.89-0.36,1.23c-0.24,0.34-0.63,0.66-1.16,0.94C557.82,260.79,558.3,261.13,558.6,261.54z M557.34,264.27
		c0.3-0.29,0.45-0.7,0.45-1.25c0-0.5-0.12-0.88-0.37-1.16c-0.25-0.28-0.69-0.54-1.32-0.81l-0.39-0.15
		c-0.45,0.23-0.78,0.52-0.99,0.85s-0.32,0.76-0.32,1.26c0,0.56,0.15,0.98,0.45,1.26c0.3,0.28,0.71,0.42,1.25,0.42
		S557.04,264.56,557.34,264.27z M555.08,257.27c-0.25,0.25-0.38,0.62-0.38,1.13c0,0.42,0.11,0.75,0.31,0.99
		c0.21,0.24,0.57,0.46,1.07,0.67l0.32,0.14c0.39-0.26,0.67-0.53,0.83-0.81c0.16-0.27,0.24-0.61,0.24-1c0-0.49-0.12-0.87-0.36-1.11
		c-0.24-0.25-0.58-0.37-1.02-0.37C555.67,256.9,555.33,257.02,555.08,257.27z"/>
	<path class="st15" d="M565.39,257.2c0.49,0.81,0.73,2.02,0.73,3.63c0,1.62-0.24,2.84-0.73,3.65c-0.49,0.81-1.2,1.21-2.14,1.21
		c-0.95,0-1.67-0.41-2.16-1.22c-0.49-0.81-0.73-2.03-0.73-3.64c0-3.23,0.96-4.84,2.88-4.84C564.19,255.98,564.9,256.38,565.39,257.2
		z M562.05,257.85c-0.26,0.59-0.39,1.58-0.39,2.98c0,1.4,0.13,2.39,0.39,2.98s0.66,0.88,1.2,0.88c0.53,0,0.93-0.29,1.18-0.88
		s0.38-1.58,0.38-2.98c0-1.4-0.12-2.39-0.38-2.98c-0.25-0.59-0.65-0.88-1.19-0.88C562.7,256.96,562.3,257.25,562.05,257.85z"/>
</g>
<g>
	<path class="st15" d="M590.14,256.94c0.47,0.64,0.71,1.55,0.71,2.73c0,1.24-0.17,2.26-0.5,3.04c-0.34,0.79-0.84,1.42-1.5,1.89
		c-0.67,0.47-1.55,0.87-2.65,1.2l-0.28-0.92c1.14-0.35,2-0.83,2.6-1.42s0.94-1.41,1.03-2.46c-0.23,0.34-0.51,0.6-0.83,0.79
		s-0.68,0.29-1.08,0.29c-0.43,0-0.83-0.12-1.19-0.36c-0.36-0.24-0.65-0.59-0.86-1.04c-0.21-0.45-0.31-0.98-0.31-1.59
		c0-0.65,0.12-1.21,0.36-1.68s0.57-0.82,0.99-1.06c0.42-0.24,0.9-0.36,1.43-0.36C588.96,255.98,589.66,256.3,590.14,256.94z
		 M589.55,259.94c0.01-1.07-0.11-1.84-0.34-2.3s-0.63-0.69-1.17-0.69c-0.49,0-0.86,0.18-1.13,0.54s-0.41,0.9-0.41,1.62
		c0,0.66,0.13,1.17,0.38,1.51c0.25,0.34,0.6,0.52,1.04,0.52C588.55,261.13,589.1,260.73,589.55,259.94z"/>
	<path class="st15" d="M597.3,257.2c0.49,0.81,0.73,2.02,0.73,3.63c0,1.62-0.24,2.84-0.73,3.65c-0.49,0.81-1.2,1.21-2.14,1.21
		c-0.95,0-1.67-0.41-2.16-1.22c-0.49-0.81-0.73-2.03-0.73-3.64c0-3.23,0.96-4.84,2.88-4.84C596.1,255.98,596.81,256.38,597.3,257.2z
		 M593.96,257.85c-0.26,0.59-0.38,1.58-0.38,2.98c0,1.4,0.13,2.39,0.38,2.98c0.26,0.59,0.66,0.88,1.2,0.88
		c0.53,0,0.93-0.29,1.18-0.88s0.39-1.58,0.39-2.98c0-1.4-0.13-2.39-0.38-2.98s-0.65-0.88-1.19-0.88S594.21,257.25,593.96,257.85z"/>
</g>
<g>
	<path class="st15" d="M53.45,194.12c0.39,0.22,0.68,0.52,0.89,0.9c0.21,0.38,0.31,0.8,0.31,1.28c0,0.57-0.11,1.11-0.33,1.62
		c-0.22,0.51-0.57,1.08-1.06,1.7c-0.49,0.63-1.23,1.51-2.24,2.66h3.84l-0.15,1.04h-5.07v-0.98c1.08-1.25,1.87-2.2,2.37-2.84
		c0.5-0.64,0.85-1.2,1.04-1.66c0.2-0.46,0.29-0.95,0.29-1.46c0-0.49-0.12-0.88-0.37-1.15c-0.25-0.27-0.58-0.41-1-0.41
		c-0.35,0-0.66,0.08-0.92,0.24c-0.26,0.16-0.53,0.41-0.81,0.76l-0.78-0.6c0.68-0.94,1.55-1.41,2.62-1.41
		C52.61,193.79,53.06,193.9,53.45,194.12z"/>
	<path class="st15" d="M61.2,195.01c0.48,0.81,0.73,2.02,0.73,3.63c0,1.62-0.24,2.84-0.73,3.65c-0.49,0.81-1.2,1.21-2.14,1.21
		c-0.95,0-1.67-0.41-2.16-1.22c-0.48-0.81-0.73-2.03-0.73-3.64c0-3.23,0.96-4.84,2.88-4.84C60,193.79,60.72,194.19,61.2,195.01z
		 M57.86,195.66c-0.26,0.59-0.38,1.58-0.38,2.98c0,1.4,0.13,2.39,0.38,2.98c0.26,0.59,0.66,0.88,1.2,0.88
		c0.53,0,0.93-0.29,1.18-0.88c0.26-0.59,0.38-1.58,0.38-2.98c0-1.4-0.13-2.39-0.38-2.98c-0.25-0.59-0.65-0.88-1.19-0.88
		S58.12,195.06,57.86,195.66z"/>
</g>
<g>
	<path class="st15" d="M55.64,157.27v1.01h-1.06v2.31h-1.2v-2.31h-3.67v-0.91l2.51-6.31l1.06,0.41L51,157.27h2.39l0.13-2.55h1.06
		v2.55H55.64z"/>
	<path class="st15" d="M61.8,152.28c0.49,0.81,0.73,2.02,0.73,3.63c0,1.62-0.24,2.84-0.73,3.65c-0.49,0.81-1.2,1.21-2.14,1.21
		c-0.95,0-1.67-0.41-2.16-1.22c-0.49-0.81-0.73-2.03-0.73-3.64c0-3.23,0.96-4.84,2.88-4.84C60.6,151.07,61.32,151.47,61.8,152.28z
		 M58.46,152.94c-0.26,0.59-0.39,1.58-0.39,2.98c0,1.4,0.13,2.39,0.39,2.98s0.66,0.88,1.2,0.88c0.53,0,0.93-0.29,1.18-0.88
		s0.38-1.58,0.38-2.98c0-1.4-0.12-2.39-0.38-2.98c-0.25-0.59-0.65-0.88-1.19-0.88C59.12,152.05,58.72,152.34,58.46,152.94z"/>
</g>
<g>
	<path class="st15" d="M54.49,112.04c0.35,0.22,0.63,0.56,0.83,1.01c0.21,0.45,0.31,0.99,0.31,1.64c0,0.69-0.11,1.29-0.34,1.8
		c-0.23,0.51-0.55,0.9-0.96,1.16c-0.41,0.27-0.88,0.4-1.41,0.4c-1,0-1.73-0.39-2.21-1.18s-0.71-1.89-0.71-3.3
		c0-1.07,0.13-2,0.4-2.79c0.27-0.78,0.65-1.39,1.15-1.81s1.08-0.63,1.76-0.63c0.65,0,1.23,0.19,1.74,0.57l-0.49,0.8
		c-0.39-0.26-0.8-0.39-1.22-0.39c-0.61,0-1.09,0.32-1.45,0.95s-0.56,1.51-0.61,2.63c0.53-0.8,1.21-1.2,2.04-1.2
		C53.75,111.7,54.14,111.82,54.49,112.04z M54,116.46c0.25-0.41,0.37-0.99,0.37-1.74c0-0.72-0.12-1.24-0.36-1.57
		c-0.24-0.33-0.56-0.49-0.97-0.49c-0.35,0-0.67,0.12-0.97,0.35c-0.3,0.23-0.57,0.56-0.79,0.97c0.02,1.07,0.16,1.86,0.41,2.35
		c0.26,0.5,0.66,0.74,1.21,0.74C53.39,117.07,53.75,116.86,54,116.46z"/>
	<path class="st15" d="M61.97,109.56c0.49,0.81,0.73,2.02,0.73,3.63c0,1.62-0.24,2.84-0.73,3.65c-0.49,0.81-1.2,1.21-2.14,1.21
		c-0.95,0-1.67-0.41-2.16-1.22c-0.49-0.81-0.73-2.03-0.73-3.64c0-3.23,0.96-4.84,2.88-4.84C60.77,108.35,61.49,108.75,61.97,109.56z
		 M58.63,110.21c-0.26,0.59-0.39,1.58-0.39,2.98c0,1.4,0.13,2.39,0.39,2.98s0.66,0.88,1.2,0.88c0.53,0,0.93-0.29,1.18-0.88
		s0.38-1.58,0.38-2.98c0-1.4-0.12-2.39-0.38-2.98c-0.25-0.59-0.65-0.88-1.19-0.88C59.29,109.32,58.89,109.62,58.63,110.21z"/>
</g>
<g>
	<path class="st15" d="M55.24,71.18c0.3,0.4,0.45,0.9,0.45,1.48c0,0.52-0.12,0.98-0.37,1.39c-0.24,0.4-0.59,0.71-1.04,0.94
		c-0.45,0.22-0.98,0.34-1.57,0.34c-0.59,0-1.1-0.11-1.55-0.33c-0.44-0.22-0.78-0.53-1.02-0.93c-0.24-0.4-0.36-0.86-0.36-1.37
		c0-1.16,0.59-1.99,1.78-2.49c-0.5-0.27-0.87-0.58-1.09-0.92c-0.22-0.34-0.34-0.76-0.34-1.25c0-0.5,0.12-0.94,0.35-1.3
		c0.23-0.36,0.55-0.64,0.95-0.83c0.4-0.19,0.83-0.28,1.31-0.28c0.75,0,1.37,0.21,1.87,0.62c0.5,0.41,0.75,0.99,0.75,1.74
		c0,0.48-0.12,0.89-0.37,1.23c-0.24,0.34-0.63,0.66-1.16,0.94C54.47,70.43,54.94,70.78,55.24,71.18z M53.98,73.92
		c0.3-0.29,0.45-0.7,0.45-1.25c0-0.5-0.12-0.88-0.37-1.16c-0.25-0.28-0.69-0.54-1.32-0.81l-0.39-0.15
		c-0.45,0.23-0.78,0.52-0.99,0.85c-0.21,0.34-0.31,0.76-0.31,1.26c0,0.56,0.15,0.98,0.45,1.26c0.3,0.28,0.71,0.42,1.25,0.42
		C53.26,74.35,53.68,74.2,53.98,73.92z M51.72,66.92c-0.25,0.25-0.38,0.62-0.38,1.13c0,0.42,0.11,0.75,0.32,0.99
		c0.21,0.24,0.57,0.46,1.07,0.67l0.32,0.14c0.39-0.26,0.67-0.53,0.83-0.81c0.16-0.27,0.25-0.61,0.25-1c0-0.49-0.12-0.87-0.36-1.11
		c-0.24-0.25-0.58-0.37-1.02-0.37C52.32,66.55,51.97,66.67,51.72,66.92z"/>
	<path class="st15" d="M62.03,66.84c0.48,0.81,0.73,2.02,0.73,3.63c0,1.62-0.24,2.84-0.73,3.65c-0.49,0.81-1.2,1.21-2.14,1.21
		c-0.95,0-1.67-0.41-2.16-1.22C57.24,73.3,57,72.08,57,70.47c0-3.23,0.96-4.84,2.88-4.84C60.83,65.62,61.54,66.03,62.03,66.84z
		 M58.69,67.49c-0.26,0.59-0.38,1.58-0.38,2.98c0,1.4,0.13,2.39,0.38,2.98c0.26,0.59,0.66,0.88,1.2,0.88c0.53,0,0.93-0.29,1.18-0.88
		c0.26-0.59,0.38-1.58,0.38-2.98c0-1.4-0.13-2.39-0.38-2.98c-0.25-0.59-0.65-0.88-1.19-0.88S58.94,66.9,58.69,67.49z"/>
</g>
<g>
	<path class="st16" d="M94.72,164.14c0.44,0.25,0.78,0.59,1.02,1.02c0.23,0.43,0.35,0.92,0.35,1.46c0,0.65-0.12,1.27-0.38,1.85
		c-0.25,0.58-0.65,1.23-1.21,1.94s-1.41,1.73-2.56,3.04h4.38l-0.18,1.18h-5.79v-1.12c1.24-1.43,2.14-2.51,2.71-3.25
		c0.57-0.74,0.97-1.37,1.19-1.9c0.22-0.53,0.34-1.09,0.34-1.67c0-0.57-0.14-1-0.42-1.31c-0.28-0.31-0.66-0.46-1.14-0.46
		c-0.41,0-0.76,0.09-1.06,0.27c-0.3,0.18-0.61,0.47-0.93,0.86l-0.9-0.69c0.78-1.08,1.78-1.62,2.99-1.62
		C93.75,163.77,94.28,163.89,94.72,164.14z"/>
	<path class="st16" d="M103.82,170.12c0.34,0.46,0.51,1.02,0.51,1.7c0,0.6-0.14,1.13-0.42,1.58c-0.28,0.46-0.67,0.82-1.19,1.07
		c-0.52,0.26-1.12,0.38-1.8,0.38c-0.67,0-1.26-0.13-1.77-0.38c-0.51-0.25-0.9-0.61-1.17-1.06c-0.27-0.46-0.41-0.98-0.41-1.57
		c0-1.32,0.68-2.27,2.03-2.85c-0.58-0.31-0.99-0.66-1.25-1.06s-0.38-0.87-0.38-1.42c0-0.58,0.13-1.07,0.4-1.49s0.63-0.73,1.08-0.94
		c0.45-0.21,0.95-0.32,1.5-0.32c0.85,0,1.57,0.23,2.14,0.7c0.57,0.47,0.86,1.13,0.86,1.98c0,0.54-0.14,1.01-0.42,1.41
		s-0.72,0.75-1.33,1.07C102.94,169.26,103.47,169.66,103.82,170.12z M102.38,173.24c0.34-0.33,0.51-0.8,0.51-1.43
		c0-0.57-0.14-1-0.42-1.32c-0.28-0.31-0.79-0.62-1.51-0.92l-0.45-0.18c-0.51,0.27-0.89,0.59-1.13,0.98
		c-0.24,0.38-0.36,0.86-0.36,1.44c0,0.64,0.17,1.12,0.51,1.44c0.34,0.32,0.82,0.48,1.42,0.48
		C101.56,173.73,102.04,173.57,102.38,173.24z M99.8,165.24c-0.29,0.28-0.43,0.71-0.43,1.29c0,0.48,0.12,0.86,0.36,1.13
		c0.24,0.27,0.65,0.53,1.22,0.76l0.37,0.16c0.45-0.3,0.77-0.6,0.95-0.92c0.19-0.31,0.28-0.7,0.28-1.14c0-0.57-0.14-0.99-0.42-1.27
		c-0.28-0.28-0.67-0.42-1.17-0.42C100.48,164.82,100.09,164.96,99.8,165.24z"/>
</g>
<g>
	<path class="st16" d="M127.12,162.2c0.44,0.25,0.78,0.59,1.02,1.02c0.24,0.43,0.35,0.92,0.35,1.46c0,0.65-0.13,1.27-0.38,1.85
		c-0.25,0.58-0.65,1.23-1.21,1.94s-1.41,1.73-2.56,3.04h4.38l-0.18,1.18h-5.79v-1.12c1.24-1.43,2.14-2.51,2.71-3.25
		c0.57-0.74,0.97-1.37,1.19-1.9c0.22-0.53,0.34-1.09,0.34-1.67c0-0.57-0.14-1-0.42-1.31c-0.28-0.31-0.66-0.46-1.14-0.46
		c-0.41,0-0.76,0.09-1.06,0.27c-0.3,0.18-0.61,0.47-0.93,0.86l-0.9-0.69c0.78-1.08,1.78-1.62,2.99-1.62
		C126.15,161.82,126.67,161.95,127.12,162.2z"/>
	<path class="st16" d="M135.56,162.93c0.54,0.74,0.81,1.78,0.81,3.12c0,1.42-0.19,2.58-0.58,3.48c-0.38,0.9-0.96,1.62-1.72,2.16
		c-0.76,0.54-1.77,0.99-3.03,1.37l-0.32-1.06c1.3-0.41,2.29-0.95,2.97-1.62c0.68-0.68,1.07-1.61,1.18-2.81
		c-0.27,0.38-0.58,0.69-0.95,0.9c-0.37,0.22-0.78,0.33-1.24,0.33c-0.49,0-0.94-0.14-1.36-0.42s-0.74-0.67-0.98-1.19
		c-0.24-0.52-0.36-1.12-0.36-1.82c0-0.75,0.14-1.39,0.42-1.92s0.66-0.94,1.14-1.22c0.48-0.28,1.02-0.42,1.63-0.42
		C134.22,161.82,135.02,162.19,135.56,162.93z M134.9,166.35c0.01-1.23-0.12-2.1-0.39-2.63c-0.27-0.53-0.72-0.79-1.34-0.79
		c-0.56,0-0.99,0.21-1.3,0.62c-0.31,0.41-0.46,1.03-0.46,1.85c0,0.76,0.14,1.33,0.43,1.73s0.68,0.59,1.18,0.59
		C133.75,167.71,134.38,167.26,134.9,166.35z"/>
</g>
<g>
	<path class="st16" d="M159.28,157.84c0.44,0.24,0.77,0.57,1.01,0.98c0.23,0.41,0.35,0.86,0.35,1.35c0,0.68-0.18,1.24-0.53,1.66
		c-0.35,0.42-0.85,0.71-1.5,0.86c0.7,0.06,1.27,0.32,1.7,0.77c0.43,0.45,0.64,1.07,0.64,1.87c0,0.61-0.14,1.16-0.41,1.65
		c-0.27,0.49-0.66,0.88-1.17,1.17c-0.51,0.29-1.1,0.43-1.77,0.43c-0.62,0-1.17-0.12-1.66-0.36c-0.49-0.24-0.93-0.6-1.34-1.1
		l0.86-0.74c0.33,0.36,0.66,0.63,0.98,0.79c0.33,0.17,0.69,0.25,1.1,0.25c0.59,0,1.05-0.19,1.4-0.57s0.52-0.9,0.52-1.56
		c0-0.7-0.17-1.21-0.52-1.53s-0.85-0.47-1.5-0.47h-0.67l0.18-1.07h0.45c0.53,0,0.97-0.17,1.32-0.5c0.35-0.33,0.52-0.81,0.52-1.42
		c0-0.53-0.15-0.95-0.44-1.25c-0.29-0.3-0.7-0.45-1.21-0.45c-0.37,0-0.72,0.07-1.03,0.22c-0.32,0.15-0.63,0.38-0.95,0.7l-0.75-0.77
		c0.83-0.85,1.79-1.28,2.88-1.28C158.33,157.48,158.84,157.6,159.28,157.84z"/>
	<path class="st16" d="M166.49,157.84c0.44,0.24,0.77,0.57,1.01,0.98c0.23,0.41,0.35,0.86,0.35,1.35c0,0.68-0.18,1.24-0.53,1.66
		c-0.35,0.42-0.85,0.71-1.5,0.86c0.7,0.06,1.27,0.32,1.7,0.77c0.43,0.45,0.64,1.07,0.64,1.87c0,0.61-0.14,1.16-0.41,1.65
		c-0.27,0.49-0.66,0.88-1.17,1.17s-1.1,0.43-1.77,0.43c-0.62,0-1.17-0.12-1.66-0.36c-0.49-0.24-0.93-0.6-1.34-1.1l0.86-0.74
		c0.33,0.36,0.66,0.63,0.98,0.79c0.32,0.17,0.69,0.25,1.1,0.25c0.59,0,1.05-0.19,1.4-0.57s0.52-0.9,0.52-1.56
		c0-0.7-0.17-1.21-0.52-1.53s-0.84-0.47-1.5-0.47H164l0.18-1.07h0.45c0.53,0,0.97-0.17,1.32-0.5c0.35-0.33,0.52-0.81,0.52-1.42
		c0-0.53-0.15-0.95-0.44-1.25c-0.29-0.3-0.7-0.45-1.21-0.45c-0.37,0-0.72,0.07-1.03,0.22s-0.63,0.38-0.95,0.7l-0.75-0.77
		c0.83-0.85,1.79-1.28,2.88-1.28C165.54,157.48,166.06,157.6,166.49,157.84z"/>
</g>
<g>
	<path class="st16" d="M191.05,154.13c0.44,0.24,0.77,0.57,1.01,0.98c0.23,0.41,0.35,0.86,0.35,1.35c0,0.68-0.18,1.24-0.53,1.66
		c-0.35,0.42-0.85,0.71-1.5,0.86c0.7,0.06,1.27,0.32,1.7,0.77s0.64,1.07,0.64,1.87c0,0.61-0.14,1.16-0.41,1.65
		c-0.27,0.49-0.66,0.88-1.17,1.17c-0.51,0.29-1.1,0.43-1.77,0.43c-0.62,0-1.17-0.12-1.66-0.36c-0.49-0.24-0.93-0.6-1.34-1.1
		l0.86-0.74c0.33,0.36,0.66,0.63,0.98,0.79c0.33,0.17,0.69,0.25,1.1,0.25c0.59,0,1.05-0.19,1.4-0.57s0.52-0.9,0.52-1.56
		c0-0.7-0.17-1.21-0.52-1.53s-0.84-0.47-1.5-0.47h-0.67l0.18-1.07h0.45c0.53,0,0.97-0.17,1.32-0.5c0.35-0.33,0.52-0.81,0.52-1.42
		c0-0.53-0.15-0.95-0.44-1.25c-0.29-0.3-0.7-0.45-1.21-0.45c-0.37,0-0.72,0.07-1.03,0.22s-0.63,0.38-0.95,0.7l-0.75-0.77
		c0.83-0.85,1.79-1.28,2.88-1.28C190.1,153.77,190.61,153.89,191.05,154.13z"/>
	<path class="st16" d="M198.26,154.13c0.44,0.24,0.77,0.57,1.01,0.98c0.23,0.41,0.35,0.86,0.35,1.35c0,0.68-0.18,1.24-0.53,1.66
		c-0.35,0.42-0.85,0.71-1.5,0.86c0.7,0.06,1.27,0.32,1.7,0.77s0.64,1.07,0.64,1.87c0,0.61-0.14,1.16-0.41,1.65
		c-0.27,0.49-0.66,0.88-1.17,1.17c-0.51,0.29-1.1,0.43-1.77,0.43c-0.62,0-1.17-0.12-1.66-0.36c-0.49-0.24-0.93-0.6-1.34-1.1
		l0.86-0.74c0.33,0.36,0.66,0.63,0.98,0.79c0.33,0.17,0.69,0.25,1.1,0.25c0.59,0,1.05-0.19,1.4-0.57s0.52-0.9,0.52-1.56
		c0-0.7-0.17-1.21-0.52-1.53s-0.84-0.47-1.5-0.47h-0.67l0.18-1.07h0.45c0.53,0,0.97-0.17,1.32-0.5c0.35-0.33,0.52-0.81,0.52-1.42
		c0-0.53-0.15-0.95-0.44-1.25c-0.29-0.3-0.7-0.45-1.21-0.45c-0.37,0-0.72,0.07-1.03,0.22s-0.63,0.38-0.95,0.7l-0.75-0.77
		c0.83-0.85,1.79-1.28,2.88-1.28C197.31,153.77,197.83,153.89,198.26,154.13z"/>
</g>
<g>
	<path class="st16" d="M222.82,151.32c0.44,0.24,0.77,0.57,1.01,0.98c0.23,0.41,0.35,0.86,0.35,1.35c0,0.68-0.18,1.24-0.53,1.66
		c-0.35,0.42-0.85,0.71-1.5,0.86c0.7,0.06,1.27,0.32,1.7,0.77s0.64,1.07,0.64,1.87c0,0.61-0.14,1.16-0.41,1.65
		c-0.27,0.49-0.66,0.88-1.17,1.17c-0.51,0.29-1.1,0.43-1.77,0.43c-0.62,0-1.17-0.12-1.66-0.36c-0.49-0.24-0.93-0.6-1.34-1.1
		l0.86-0.74c0.33,0.36,0.66,0.63,0.98,0.79c0.33,0.17,0.69,0.25,1.1,0.25c0.59,0,1.05-0.19,1.4-0.57s0.52-0.9,0.52-1.56
		c0-0.7-0.17-1.21-0.52-1.53s-0.84-0.47-1.5-0.47h-0.67l0.18-1.07h0.45c0.53,0,0.97-0.17,1.32-0.5c0.35-0.33,0.52-0.81,0.52-1.42
		c0-0.53-0.15-0.95-0.44-1.25c-0.29-0.3-0.7-0.45-1.21-0.45c-0.37,0-0.72,0.07-1.03,0.22s-0.63,0.38-0.95,0.7l-0.75-0.77
		c0.83-0.85,1.79-1.28,2.88-1.28C221.87,150.96,222.38,151.08,222.82,151.32z"/>
	<path class="st16" d="M231.23,155.18c0.4,0.26,0.72,0.64,0.95,1.15c0.23,0.51,0.35,1.14,0.35,1.87c0,0.79-0.13,1.47-0.39,2.06
		c-0.26,0.58-0.63,1.02-1.1,1.33c-0.47,0.3-1.01,0.46-1.62,0.46c-1.14,0-1.98-0.45-2.52-1.35c-0.54-0.9-0.81-2.16-0.81-3.77
		c0-1.23,0.15-2.29,0.46-3.18c0.3-0.9,0.74-1.58,1.31-2.06c0.57-0.48,1.24-0.72,2.01-0.72c0.75,0,1.41,0.22,1.98,0.66l-0.56,0.91
		c-0.45-0.3-0.91-0.45-1.39-0.45c-0.69,0-1.25,0.36-1.66,1.09c-0.41,0.73-0.64,1.73-0.7,3.01c0.61-0.92,1.39-1.38,2.34-1.38
		C230.38,154.8,230.83,154.93,231.23,155.18z M230.67,160.23c0.28-0.46,0.42-1.13,0.42-1.99c0-0.82-0.14-1.42-0.41-1.79
		c-0.27-0.37-0.64-0.56-1.11-0.56c-0.39,0-0.77,0.13-1.11,0.4c-0.35,0.27-0.65,0.63-0.9,1.1c0.02,1.23,0.18,2.12,0.47,2.69
		s0.75,0.85,1.38,0.85C229.97,160.93,230.38,160.7,230.67,160.23z"/>
</g>
<g>
	<path class="st16" d="M255.31,151.32c0.44,0.24,0.77,0.57,1.01,0.98c0.23,0.41,0.35,0.86,0.35,1.35c0,0.68-0.18,1.24-0.53,1.66
		c-0.35,0.42-0.85,0.71-1.5,0.86c0.7,0.06,1.27,0.32,1.7,0.77s0.64,1.07,0.64,1.87c0,0.61-0.14,1.16-0.41,1.65
		c-0.27,0.49-0.66,0.88-1.17,1.17s-1.1,0.43-1.77,0.43c-0.62,0-1.17-0.12-1.66-0.36c-0.49-0.24-0.93-0.6-1.34-1.1l0.86-0.74
		c0.33,0.36,0.66,0.63,0.98,0.79c0.33,0.17,0.69,0.25,1.1,0.25c0.59,0,1.05-0.19,1.4-0.57s0.52-0.9,0.52-1.56
		c0-0.7-0.17-1.21-0.52-1.53s-0.85-0.47-1.5-0.47h-0.67l0.18-1.07h0.45c0.53,0,0.97-0.17,1.32-0.5c0.35-0.33,0.52-0.81,0.52-1.42
		c0-0.53-0.15-0.95-0.44-1.25c-0.29-0.3-0.7-0.45-1.21-0.45c-0.37,0-0.72,0.07-1.03,0.22c-0.32,0.15-0.63,0.38-0.95,0.7l-0.75-0.77
		c0.83-0.85,1.79-1.28,2.88-1.28C254.36,150.96,254.87,151.08,255.31,151.32z"/>
	<path class="st16" d="M263.85,152.26h-3.74v3.2c0.5-0.3,1.02-0.45,1.57-0.45c0.82,0,1.48,0.3,1.98,0.9c0.5,0.6,0.75,1.42,0.75,2.48
		c0,0.71-0.14,1.35-0.42,1.9c-0.28,0.55-0.68,0.99-1.19,1.3c-0.51,0.31-1.11,0.46-1.79,0.46c-0.61,0-1.14-0.12-1.61-0.35
		c-0.46-0.24-0.9-0.58-1.32-1.04l0.85-0.77c0.31,0.33,0.62,0.58,0.94,0.74s0.69,0.25,1.1,0.25c0.62,0,1.1-0.22,1.44-0.65
		c0.34-0.43,0.51-1.05,0.51-1.86c0-1.53-0.58-2.29-1.73-2.29c-0.26,0-0.49,0.03-0.7,0.1c-0.21,0.07-0.45,0.18-0.72,0.33h-1.04v-5.38
		h5.31L263.85,152.26z"/>
</g>
<g>
	<path class="st16" d="M287.21,151.32c0.44,0.24,0.77,0.57,1.01,0.98c0.23,0.41,0.35,0.86,0.35,1.35c0,0.68-0.18,1.24-0.53,1.66
		c-0.35,0.42-0.85,0.71-1.5,0.86c0.7,0.06,1.27,0.32,1.7,0.77s0.64,1.07,0.64,1.87c0,0.61-0.14,1.16-0.41,1.65
		c-0.27,0.49-0.66,0.88-1.17,1.17c-0.51,0.29-1.1,0.43-1.77,0.43c-0.62,0-1.17-0.12-1.66-0.36c-0.49-0.24-0.93-0.6-1.34-1.1
		l0.86-0.74c0.33,0.36,0.66,0.63,0.98,0.79c0.33,0.17,0.69,0.25,1.1,0.25c0.59,0,1.05-0.19,1.4-0.57s0.52-0.9,0.52-1.56
		c0-0.7-0.17-1.21-0.52-1.53s-0.84-0.47-1.5-0.47h-0.67l0.18-1.07h0.45c0.53,0,0.97-0.17,1.32-0.5c0.35-0.33,0.52-0.81,0.52-1.42
		c0-0.53-0.15-0.95-0.44-1.25c-0.29-0.3-0.7-0.45-1.21-0.45c-0.37,0-0.72,0.07-1.03,0.22s-0.63,0.38-0.95,0.7l-0.75-0.77
		c0.83-0.85,1.79-1.28,2.88-1.28C286.26,150.96,286.77,151.08,287.21,151.32z"/>
	<path class="st16" d="M295.75,152.26h-3.74v3.2c0.5-0.3,1.02-0.45,1.57-0.45c0.82,0,1.48,0.3,1.98,0.9c0.5,0.6,0.75,1.42,0.75,2.48
		c0,0.71-0.14,1.35-0.42,1.9c-0.28,0.55-0.68,0.99-1.19,1.3s-1.11,0.46-1.79,0.46c-0.61,0-1.14-0.12-1.61-0.35
		c-0.46-0.24-0.9-0.58-1.32-1.04l0.85-0.77c0.31,0.33,0.62,0.58,0.94,0.74c0.32,0.17,0.69,0.25,1.1,0.25c0.62,0,1.1-0.22,1.44-0.65
		c0.34-0.43,0.51-1.05,0.51-1.86c0-1.53-0.58-2.29-1.73-2.29c-0.26,0-0.49,0.03-0.7,0.1c-0.21,0.07-0.45,0.18-0.72,0.33h-1.04v-5.38
		h5.31L295.75,152.26z"/>
</g>
<g>
	<path class="st16" d="M321.62,147.19v1.15h-1.22v2.64h-1.38v-2.64h-4.19v-1.04l2.86-7.22l1.22,0.46l-2.61,6.64h2.74l0.14-2.91h1.22
		v2.91H321.62z"/>
	<path class="st16" d="M328.66,141.49c0.55,0.93,0.83,2.31,0.83,4.14c0,1.86-0.28,3.25-0.83,4.17s-1.37,1.38-2.45,1.38
		c-1.09,0-1.91-0.46-2.46-1.39c-0.55-0.93-0.83-2.31-0.83-4.16c0-3.69,1.1-5.54,3.3-5.54C327.29,140.1,328.1,140.56,328.66,141.49z
		 M324.84,142.23c-0.29,0.68-0.44,1.81-0.44,3.4c0,1.6,0.15,2.74,0.44,3.41c0.29,0.67,0.75,1.01,1.37,1.01
		c0.61,0,1.06-0.34,1.35-1.01c0.29-0.67,0.44-1.81,0.44-3.41c0-1.6-0.14-2.74-0.43-3.41s-0.74-1.01-1.36-1.01
		S325.14,141.56,324.84,142.23z"/>
</g>
<g>
	<path class="st16" d="M355.04,136.79v1.15h-1.22v2.64h-1.38v-2.64h-4.19v-1.04l2.86-7.22l1.22,0.46l-2.61,6.64h2.74l0.14-2.91h1.22
		v2.91H355.04z"/>
	<path class="st16" d="M361.6,131h-3.74v3.2c0.5-0.3,1.02-0.45,1.57-0.45c0.82,0,1.48,0.3,1.98,0.9c0.5,0.6,0.75,1.42,0.75,2.48
		c0,0.71-0.14,1.35-0.42,1.9c-0.28,0.55-0.68,0.99-1.19,1.3s-1.11,0.46-1.79,0.46c-0.61,0-1.14-0.12-1.61-0.35
		c-0.46-0.24-0.9-0.58-1.32-1.04l0.85-0.77c0.31,0.33,0.62,0.58,0.94,0.74c0.32,0.17,0.69,0.25,1.1,0.25c0.62,0,1.1-0.22,1.44-0.65
		c0.34-0.43,0.51-1.05,0.51-1.86c0-1.53-0.58-2.29-1.73-2.29c-0.26,0-0.49,0.03-0.7,0.1c-0.21,0.07-0.45,0.18-0.72,0.33h-1.04v-5.38
		h5.31L361.6,131z"/>
</g>
<g>
	<path class="st16" d="M386.47,128.23v1.15h-1.22v2.64h-1.38v-2.64h-4.19v-1.04l2.86-7.22l1.22,0.46l-2.61,6.64h2.74l0.14-2.91h1.22
		v2.91H386.47z"/>
	<path class="st16" d="M393.1,122.25c0.54,0.74,0.81,1.78,0.81,3.12c0,1.42-0.19,2.58-0.58,3.48c-0.38,0.9-0.96,1.62-1.72,2.16
		c-0.76,0.54-1.77,0.99-3.03,1.37l-0.32-1.06c1.3-0.41,2.29-0.95,2.97-1.62c0.68-0.68,1.07-1.61,1.18-2.81
		c-0.27,0.38-0.58,0.69-0.95,0.9c-0.37,0.22-0.78,0.33-1.24,0.33c-0.49,0-0.94-0.14-1.36-0.42s-0.74-0.67-0.98-1.19
		c-0.24-0.52-0.36-1.12-0.36-1.82c0-0.75,0.14-1.39,0.42-1.92s0.66-0.94,1.14-1.22c0.48-0.28,1.02-0.42,1.63-0.42
		C391.76,121.15,392.56,121.52,393.1,122.25z M392.43,125.68c0.01-1.23-0.12-2.1-0.39-2.63c-0.27-0.53-0.72-0.79-1.34-0.79
		c-0.56,0-0.99,0.21-1.3,0.62c-0.31,0.41-0.46,1.03-0.46,1.85c0,0.76,0.14,1.33,0.43,1.73s0.68,0.59,1.18,0.59
		C391.29,127.03,391.91,126.58,392.43,125.68z"/>
</g>
<g>
	<path class="st16" d="M418.14,109.47h-3.74v3.2c0.5-0.3,1.02-0.45,1.57-0.45c0.82,0,1.48,0.3,1.98,0.9c0.5,0.6,0.75,1.42,0.75,2.48
		c0,0.71-0.14,1.35-0.42,1.9c-0.28,0.55-0.68,0.99-1.19,1.3s-1.11,0.46-1.79,0.46c-0.61,0-1.14-0.12-1.61-0.35
		c-0.46-0.24-0.9-0.58-1.32-1.04l0.85-0.77c0.31,0.33,0.62,0.58,0.94,0.74c0.32,0.17,0.69,0.25,1.1,0.25c0.62,0,1.1-0.22,1.44-0.65
		c0.34-0.43,0.51-1.05,0.51-1.86c0-1.53-0.58-2.29-1.73-2.29c-0.26,0-0.49,0.03-0.7,0.1c-0.21,0.07-0.45,0.18-0.72,0.33h-1.04v-5.38
		h5.31L418.14,109.47z"/>
	<path class="st16" d="M425.35,112.4c0.4,0.26,0.72,0.64,0.95,1.15s0.35,1.14,0.35,1.87c0,0.79-0.13,1.47-0.39,2.06
		c-0.26,0.58-0.63,1.02-1.1,1.33s-1.01,0.46-1.62,0.46c-1.14,0-1.98-0.45-2.52-1.35c-0.54-0.9-0.81-2.16-0.81-3.77
		c0-1.23,0.15-2.29,0.46-3.18c0.3-0.9,0.74-1.58,1.31-2.06c0.57-0.48,1.24-0.72,2.01-0.72c0.75,0,1.41,0.22,1.98,0.66l-0.56,0.91
		c-0.45-0.3-0.91-0.45-1.39-0.45c-0.69,0-1.25,0.36-1.66,1.09c-0.41,0.73-0.64,1.73-0.7,3.01c0.61-0.92,1.39-1.38,2.34-1.38
		C424.5,112.02,424.95,112.15,425.35,112.4z M424.79,117.45c0.28-0.46,0.42-1.13,0.42-1.99c0-0.82-0.14-1.42-0.41-1.79
		c-0.27-0.37-0.64-0.56-1.11-0.56c-0.4,0-0.77,0.13-1.11,0.4s-0.65,0.63-0.9,1.1c0.02,1.23,0.18,2.12,0.47,2.69
		c0.29,0.57,0.75,0.85,1.38,0.85C424.09,118.15,424.51,117.91,424.79,117.45z"/>
</g>
<g>
	<path class="st16" d="M451.76,102.61h-3.74v3.2c0.5-0.3,1.02-0.45,1.57-0.45c0.82,0,1.48,0.3,1.98,0.9c0.5,0.6,0.75,1.42,0.75,2.48
		c0,0.71-0.14,1.35-0.42,1.9c-0.28,0.55-0.68,0.99-1.19,1.3c-0.51,0.31-1.11,0.46-1.79,0.46c-0.61,0-1.14-0.12-1.61-0.35
		c-0.46-0.24-0.9-0.58-1.32-1.04l0.85-0.77c0.31,0.33,0.62,0.58,0.94,0.74s0.69,0.25,1.1,0.25c0.62,0,1.1-0.22,1.44-0.65
		c0.34-0.43,0.51-1.05,0.51-1.86c0-1.53-0.58-2.29-1.73-2.29c-0.26,0-0.49,0.03-0.7,0.1c-0.21,0.07-0.45,0.18-0.72,0.33h-1.04v-5.38
		h5.31L451.76,102.61z"/>
	<path class="st16" d="M459.18,102.42c0.54,0.74,0.81,1.78,0.81,3.12c0,1.42-0.19,2.58-0.58,3.48c-0.38,0.9-0.96,1.62-1.72,2.16
		c-0.76,0.54-1.77,0.99-3.03,1.37l-0.32-1.06c1.3-0.41,2.29-0.95,2.97-1.62c0.68-0.68,1.07-1.61,1.18-2.81
		c-0.27,0.38-0.58,0.69-0.95,0.9c-0.37,0.22-0.78,0.33-1.24,0.33c-0.49,0-0.94-0.14-1.36-0.42s-0.74-0.67-0.98-1.19
		c-0.24-0.52-0.36-1.12-0.36-1.82c0-0.75,0.14-1.39,0.42-1.92s0.66-0.94,1.14-1.22c0.48-0.28,1.02-0.42,1.63-0.42
		C457.83,101.32,458.64,101.68,459.18,102.42z M458.51,105.84c0.01-1.23-0.12-2.1-0.39-2.63c-0.27-0.53-0.72-0.79-1.34-0.79
		c-0.56,0-0.99,0.21-1.3,0.62c-0.31,0.41-0.46,1.03-0.46,1.85c0,0.76,0.14,1.33,0.43,1.73s0.68,0.59,1.18,0.59
		C457.36,107.2,457.99,106.75,458.51,105.84z"/>
</g>
<g>
	<path class="st16" d="M481.08,92.68c0.4,0.26,0.72,0.64,0.95,1.15s0.35,1.14,0.35,1.87c0,0.79-0.13,1.47-0.39,2.06
		c-0.26,0.58-0.63,1.02-1.1,1.33s-1.01,0.46-1.62,0.46c-1.14,0-1.98-0.45-2.52-1.35c-0.54-0.9-0.81-2.16-0.81-3.77
		c0-1.23,0.15-2.29,0.46-3.18c0.3-0.9,0.74-1.58,1.31-2.06c0.57-0.48,1.24-0.72,2.01-0.72c0.75,0,1.41,0.22,1.98,0.66l-0.56,0.91
		c-0.45-0.3-0.91-0.45-1.39-0.45c-0.69,0-1.25,0.36-1.66,1.09c-0.41,0.73-0.64,1.73-0.7,3.01c0.61-0.92,1.39-1.38,2.34-1.38
		C480.24,92.29,480.68,92.42,481.08,92.68z M480.52,97.72c0.28-0.46,0.42-1.13,0.42-1.99c0-0.82-0.14-1.42-0.41-1.79
		c-0.27-0.37-0.64-0.56-1.11-0.56c-0.4,0-0.77,0.13-1.11,0.4s-0.65,0.63-0.9,1.1c0.02,1.23,0.18,2.12,0.47,2.69s0.75,0.85,1.38,0.85
		C479.82,98.42,480.24,98.19,480.52,97.72z"/>
	<path class="st16" d="M489.15,89.75h-3.74v3.2c0.5-0.3,1.02-0.45,1.57-0.45c0.82,0,1.48,0.3,1.98,0.9c0.5,0.6,0.75,1.42,0.75,2.48
		c0,0.71-0.14,1.35-0.42,1.9s-0.68,0.99-1.19,1.3s-1.11,0.46-1.79,0.46c-0.61,0-1.14-0.12-1.61-0.35c-0.46-0.24-0.9-0.58-1.32-1.04
		l0.85-0.77c0.31,0.33,0.62,0.58,0.95,0.74c0.32,0.17,0.69,0.25,1.1,0.25c0.62,0,1.1-0.22,1.44-0.65c0.34-0.43,0.51-1.05,0.51-1.86
		c0-1.53-0.58-2.29-1.73-2.29c-0.26,0-0.49,0.03-0.7,0.1s-0.45,0.18-0.72,0.33h-1.04v-5.38h5.31L489.15,89.75z"/>
</g>
<g>
	<path class="st16" d="M516.76,75.27v1.06l-3.66,9.81l-1.3-0.42l3.52-9.3h-4.29v-1.15H516.76z"/>
	<path class="st16" d="M523.8,76.48c0.55,0.93,0.83,2.31,0.83,4.14c0,1.86-0.28,3.25-0.83,4.17s-1.37,1.38-2.45,1.38
		c-1.09,0-1.91-0.46-2.46-1.39c-0.55-0.93-0.83-2.31-0.83-4.16c0-3.69,1.1-5.54,3.3-5.54C522.43,75.09,523.24,75.55,523.8,76.48z
		 M519.98,77.23c-0.29,0.68-0.44,1.81-0.44,3.4c0,1.6,0.15,2.74,0.44,3.41c0.29,0.67,0.75,1.01,1.37,1.01
		c0.61,0,1.06-0.34,1.35-1.01c0.29-0.67,0.44-1.81,0.44-3.41c0-1.6-0.14-2.74-0.43-3.41s-0.74-1.01-1.36-1.01
		C520.73,76.21,520.27,76.55,519.98,77.23z"/>
</g>
<g>
	<path class="st16" d="M548.91,75.27v1.06l-3.66,9.81l-1.3-0.42l3.52-9.3h-4.29v-1.15H548.91z"/>
	<path class="st16" d="M555.95,76.48c0.55,0.93,0.83,2.31,0.83,4.14c0,1.86-0.28,3.25-0.83,4.17s-1.37,1.38-2.45,1.38
		c-1.09,0-1.91-0.46-2.46-1.39c-0.55-0.93-0.83-2.31-0.83-4.16c0-3.69,1.1-5.54,3.3-5.54C554.58,75.09,555.4,75.55,555.95,76.48z
		 M552.14,77.23c-0.29,0.68-0.44,1.81-0.44,3.4c0,1.6,0.15,2.74,0.44,3.41c0.29,0.67,0.75,1.01,1.37,1.01
		c0.61,0,1.06-0.34,1.35-1.01c0.29-0.67,0.44-1.81,0.44-3.41c0-1.6-0.14-2.74-0.43-3.41s-0.74-1.01-1.36-1.01
		C552.89,76.21,552.43,76.55,552.14,77.23z"/>
</g>
<g>
	<path class="st16" d="M581.07,75.27v1.06l-3.66,9.81l-1.3-0.42l3.52-9.3h-4.29v-1.15H581.07z"/>
	<path class="st16" d="M586.19,75.27v10.7h-1.42v-9.2l-2.22,1.5l-0.66-0.96l3.04-2.05H586.19z"/>
</g>
<g>
	<path class="st16" d="M611.13,70.87v1.06l-3.66,9.81l-1.3-0.42l3.52-9.3h-4.29v-1.15H611.13z"/>
	<path class="st16" d="M616.37,71.07c0.44,0.25,0.78,0.59,1.02,1.02c0.24,0.43,0.35,0.92,0.35,1.46c0,0.65-0.13,1.27-0.38,1.85
		c-0.25,0.58-0.65,1.23-1.21,1.94s-1.41,1.73-2.56,3.04h4.38l-0.18,1.18h-5.79v-1.12c1.24-1.43,2.14-2.51,2.71-3.25
		c0.57-0.74,0.97-1.37,1.19-1.9c0.22-0.53,0.34-1.09,0.34-1.67c0-0.57-0.14-1-0.42-1.31c-0.28-0.31-0.66-0.46-1.14-0.46
		c-0.41,0-0.76,0.09-1.06,0.27c-0.3,0.18-0.61,0.47-0.93,0.86l-0.9-0.69c0.78-1.08,1.78-1.62,2.99-1.62
		C615.4,70.69,615.92,70.82,616.37,71.07z"/>
</g>
<g>
	<path class="st16" d="M642,66.52v1.06l-3.66,9.81l-1.3-0.42l3.52-9.3h-4.29v-1.15H642z"/>
	<path class="st16" d="M648.56,67.64h-3.74v3.2c0.5-0.3,1.02-0.45,1.57-0.45c0.82,0,1.48,0.3,1.98,0.9c0.5,0.6,0.75,1.42,0.75,2.48
		c0,0.71-0.14,1.35-0.42,1.9c-0.28,0.55-0.68,0.99-1.19,1.3s-1.11,0.46-1.79,0.46c-0.61,0-1.14-0.12-1.61-0.35
		c-0.46-0.24-0.9-0.58-1.32-1.04l0.85-0.77c0.31,0.33,0.62,0.58,0.94,0.74c0.32,0.17,0.69,0.25,1.1,0.25c0.62,0,1.1-0.22,1.44-0.65
		c0.34-0.43,0.51-1.05,0.51-1.86c0-1.53-0.58-2.29-1.73-2.29c-0.26,0-0.49,0.03-0.7,0.1c-0.21,0.07-0.45,0.18-0.72,0.33h-1.04v-5.38
		h5.31L648.56,67.64z"/>
</g>
<g>
	<path class="st16" d="M673.16,62.12v1.06l-3.66,9.81l-1.3-0.42l3.52-9.3h-4.29v-1.15H673.16z"/>
	<path class="st16" d="M679.59,66.17c0.4,0.26,0.72,0.64,0.95,1.15s0.35,1.14,0.35,1.87c0,0.79-0.13,1.47-0.39,2.06
		c-0.26,0.58-0.63,1.02-1.1,1.33c-0.47,0.3-1.01,0.46-1.62,0.46c-1.14,0-1.98-0.45-2.52-1.35s-0.81-2.16-0.81-3.77
		c0-1.23,0.15-2.29,0.46-3.18c0.3-0.9,0.74-1.58,1.31-2.06c0.57-0.48,1.24-0.72,2.01-0.72c0.75,0,1.41,0.22,1.98,0.66l-0.56,0.91
		c-0.45-0.3-0.91-0.45-1.39-0.45c-0.69,0-1.25,0.36-1.66,1.09s-0.64,1.73-0.7,3.01c0.61-0.92,1.39-1.38,2.34-1.38
		C678.74,65.78,679.19,65.91,679.59,66.17z M679.03,71.21c0.28-0.46,0.42-1.13,0.42-1.99c0-0.82-0.14-1.42-0.41-1.79
		c-0.27-0.37-0.64-0.56-1.11-0.56c-0.39,0-0.77,0.13-1.11,0.4c-0.35,0.27-0.65,0.63-0.9,1.1c0.02,1.23,0.18,2.12,0.47,2.69
		c0.29,0.57,0.75,0.85,1.38,0.85C678.33,71.91,678.74,71.68,679.03,71.21z"/>
</g>
<g>
	<path class="st16" d="M704.92,57.77v1.06l-3.66,9.81l-1.3-0.42l3.52-9.3h-4.29v-1.15H704.92z"/>
	<path class="st16" d="M711.55,58.7c0.54,0.74,0.81,1.78,0.81,3.12c0,1.42-0.19,2.58-0.58,3.48s-0.96,1.62-1.72,2.16
		c-0.76,0.54-1.77,0.99-3.03,1.37l-0.32-1.06c1.3-0.41,2.29-0.95,2.97-1.62c0.68-0.68,1.07-1.61,1.18-2.81
		c-0.27,0.38-0.58,0.69-0.95,0.9c-0.37,0.22-0.78,0.33-1.24,0.33c-0.49,0-0.94-0.14-1.36-0.42s-0.74-0.67-0.98-1.19
		s-0.36-1.12-0.36-1.82c0-0.75,0.14-1.39,0.42-1.92s0.66-0.94,1.14-1.22c0.48-0.28,1.02-0.42,1.63-0.42
		C710.21,57.6,711.01,57.97,711.55,58.7z M710.89,62.13c0.01-1.23-0.12-2.1-0.39-2.63c-0.27-0.53-0.72-0.79-1.34-0.79
		c-0.55,0-0.99,0.21-1.3,0.62c-0.31,0.41-0.46,1.03-0.46,1.85c0,0.76,0.14,1.33,0.43,1.73s0.68,0.59,1.18,0.59
		C709.74,63.48,710.36,63.03,710.89,62.13z"/>
</g>
<g>
	<path d="M347.36,43.47v1.04L343.02,52h4.33l-0.14,1.11h-5.61v-1.04l4.37-7.52h-3.93v-1.08H347.36z"/>
	<path d="M353.49,52.09c0.08,0.14,0.21,0.25,0.39,0.33l-0.27,0.85c-0.36-0.06-0.65-0.17-0.85-0.34s-0.35-0.42-0.43-0.77
		c-0.48,0.75-1.14,1.12-2,1.12c-0.65,0-1.17-0.2-1.55-0.61c-0.38-0.41-0.57-0.95-0.57-1.63c0-0.78,0.26-1.38,0.77-1.79
		c0.51-0.41,1.25-0.62,2.2-0.62h0.95v-0.63c0-0.51-0.11-0.88-0.32-1.11c-0.21-0.23-0.55-0.34-1.03-0.34c-0.51,0-1.11,0.13-1.79,0.39
		l-0.31-0.88c0.82-0.34,1.59-0.5,2.3-0.5c1.6,0,2.39,0.8,2.39,2.39v3.47C353.36,51.72,353.4,51.94,353.49,52.09z M352.12,51.18
		v-1.74h-0.81c-1.21,0-1.82,0.51-1.82,1.53c0,0.44,0.1,0.77,0.29,1.01c0.2,0.23,0.48,0.35,0.84,0.35
		C351.27,52.33,351.77,51.95,352.12,51.18z"/>
	<path d="M363.09,46.4l-0.53,0.74c-0.3-0.21-0.58-0.36-0.84-0.46c-0.26-0.1-0.54-0.15-0.83-0.15c-0.38,0-0.68,0.09-0.9,0.27
		s-0.33,0.43-0.33,0.75c0,0.31,0.11,0.55,0.32,0.73c0.21,0.18,0.61,0.36,1.2,0.55c0.74,0.23,1.27,0.52,1.61,0.85s0.5,0.8,0.5,1.39
		c0,0.69-0.25,1.23-0.76,1.63s-1.13,0.59-1.89,0.59c-1,0-1.84-0.33-2.53-0.99l0.64-0.7c0.59,0.48,1.21,0.71,1.86,0.71
		c0.41,0,0.74-0.1,0.99-0.31c0.25-0.21,0.38-0.49,0.38-0.85c0-0.26-0.04-0.47-0.13-0.63c-0.09-0.16-0.25-0.3-0.48-0.43
		c-0.23-0.13-0.56-0.26-1-0.4c-0.7-0.23-1.2-0.51-1.51-0.84c-0.31-0.33-0.46-0.74-0.46-1.25c0-0.39,0.1-0.74,0.31-1.05
		c0.21-0.31,0.49-0.55,0.85-0.73c0.36-0.18,0.78-0.27,1.26-0.27C361.67,45.56,362.43,45.84,363.09,46.4z"/>
	<path d="M368.38,52.78c-0.47,0.34-0.99,0.5-1.55,0.5c-0.6,0-1.06-0.17-1.38-0.52c-0.32-0.35-0.48-0.83-0.48-1.46v-4.62h-1.05v-0.95
		h1.05v-1.69l1.26-0.15v1.85h1.62l-0.14,0.95h-1.48v4.61c0,0.63,0.27,0.95,0.8,0.95c0.16,0,0.31-0.02,0.44-0.07
		c0.13-0.05,0.29-0.12,0.46-0.21L368.38,52.78z"/>
	<path d="M374.03,46.55c0.52,0.66,0.78,1.61,0.78,2.86c0,1.2-0.27,2.14-0.8,2.83c-0.53,0.7-1.26,1.04-2.2,1.04
		c-0.94,0-1.68-0.34-2.21-1.02s-0.79-1.63-0.79-2.84c0-1.22,0.27-2.17,0.8-2.85s1.27-1.02,2.21-1.02S373.5,45.89,374.03,46.55z
		 M370.57,47.26c-0.29,0.46-0.43,1.18-0.43,2.16c0,1.91,0.56,2.87,1.68,2.87c1.12,0,1.68-0.96,1.68-2.88c0-0.98-0.14-1.7-0.42-2.16
		s-0.7-0.69-1.25-0.69S370.86,46.8,370.57,47.26z"/>
	<path d="M380.24,52.88c-0.26-0.27-0.39-0.65-0.39-1.13v-8.99l1.26-0.14v9.08c0,0.36,0.15,0.55,0.45,0.55
		c0.12,0,0.26-0.03,0.41-0.08l0.28,0.88c-0.3,0.16-0.61,0.24-0.94,0.24C380.86,53.28,380.5,53.15,380.24,52.88z"/>
	<path d="M388.68,49.85h-4.28c0.04,0.86,0.21,1.48,0.52,1.86c0.31,0.38,0.73,0.57,1.26,0.57c0.34,0,0.64-0.05,0.9-0.15
		c0.27-0.1,0.54-0.27,0.83-0.5l0.56,0.74c-0.69,0.62-1.47,0.92-2.35,0.92c-0.96,0-1.71-0.33-2.23-1c-0.53-0.67-0.79-1.6-0.79-2.81
		s0.25-2.16,0.76-2.86c0.5-0.71,1.2-1.06,2.1-1.06c0.89,0,1.57,0.32,2.04,0.95c0.48,0.63,0.71,1.53,0.71,2.69
		C388.71,49.39,388.7,49.61,388.68,49.85z M387.49,48.82c0-1.54-0.51-2.31-1.53-2.31c-0.47,0-0.83,0.19-1.11,0.58
		c-0.27,0.39-0.42,1.01-0.46,1.88h3.09V48.82z"/>
	<path d="M393.95,52.78c-0.47,0.34-0.99,0.5-1.55,0.5c-0.6,0-1.06-0.17-1.38-0.52c-0.32-0.35-0.48-0.83-0.48-1.46v-4.62h-1.05v-0.95
		h1.05v-1.69l1.26-0.15v1.85h1.62l-0.14,0.95h-1.48v4.61c0,0.63,0.27,0.95,0.8,0.95c0.16,0,0.31-0.02,0.44-0.07
		c0.13-0.05,0.29-0.12,0.46-0.21L393.95,52.78z"/>
	<path d="M300.29,60.4l-0.53,0.74c-0.3-0.21-0.58-0.36-0.84-0.46s-0.54-0.15-0.83-0.15c-0.38,0-0.68,0.09-0.9,0.27
		c-0.22,0.18-0.33,0.43-0.33,0.75c0,0.31,0.1,0.55,0.31,0.73c0.21,0.18,0.61,0.36,1.2,0.55c0.74,0.23,1.27,0.52,1.61,0.85
		s0.5,0.8,0.5,1.39c0,0.69-0.25,1.23-0.76,1.63s-1.13,0.59-1.89,0.59c-1,0-1.84-0.33-2.53-0.99l0.64-0.7
		c0.59,0.48,1.21,0.71,1.86,0.71c0.41,0,0.74-0.1,0.99-0.31c0.25-0.21,0.38-0.49,0.38-0.85c0-0.26-0.04-0.47-0.13-0.63
		c-0.09-0.16-0.25-0.3-0.48-0.43s-0.56-0.26-1-0.4c-0.7-0.23-1.2-0.51-1.51-0.84c-0.31-0.33-0.46-0.74-0.46-1.25
		c0-0.39,0.1-0.74,0.31-1.05c0.21-0.31,0.49-0.55,0.85-0.73c0.36-0.18,0.78-0.27,1.26-0.27C298.87,59.56,299.63,59.84,300.29,60.4z"
		/>
	<path d="M307.23,63.85h-4.28c0.04,0.86,0.21,1.48,0.52,1.86c0.31,0.38,0.73,0.57,1.26,0.57c0.34,0,0.64-0.05,0.9-0.15
		c0.27-0.1,0.54-0.27,0.83-0.5l0.56,0.74c-0.69,0.62-1.47,0.92-2.35,0.92c-0.96,0-1.71-0.33-2.23-1c-0.53-0.67-0.79-1.6-0.79-2.81
		s0.25-2.16,0.76-2.86c0.5-0.7,1.2-1.06,2.1-1.06c0.89,0,1.57,0.31,2.04,0.95c0.48,0.63,0.71,1.53,0.71,2.69
		C307.26,63.39,307.25,63.61,307.23,63.85z M306.04,62.82c0-1.54-0.51-2.31-1.53-2.31c-0.47,0-0.84,0.19-1.11,0.58
		c-0.27,0.39-0.42,1.01-0.46,1.88h3.09V62.82z"/>
	<path d="M316.32,59.74v0.94l-3.49,5.39h3.5l-0.13,1.04h-4.76v-0.94l3.49-5.39h-3.19v-1.04H316.32z"/>
	<path d="M322.97,56.76V67.1h-1.12l-0.08-0.97c-0.48,0.77-1.12,1.15-1.92,1.15s-1.43-0.34-1.87-1.02s-0.67-1.62-0.67-2.81
		c0-0.77,0.11-1.46,0.33-2.04c0.22-0.59,0.53-1.04,0.93-1.37c0.4-0.32,0.86-0.48,1.39-0.48c0.7,0,1.28,0.29,1.75,0.88v-3.82
		L322.97,56.76z M321.01,66.01c0.25-0.19,0.48-0.46,0.69-0.83v-3.7c-0.42-0.62-0.91-0.94-1.47-0.94c-0.5,0-0.89,0.24-1.18,0.71
		c-0.29,0.48-0.43,1.19-0.42,2.16c0,0.98,0.13,1.7,0.39,2.17c0.26,0.47,0.63,0.7,1.11,0.7C320.48,66.29,320.77,66.2,321.01,66.01z"
		/>
	<path d="M330.21,59.74l-2.2,7.36h-1.51l-2.27-7.36h1.32l1.71,6.3l1.69-6.3H330.21z"/>
	<path d="M336.17,60.55c0.52,0.66,0.78,1.61,0.78,2.86c0,1.2-0.27,2.14-0.8,2.83c-0.53,0.7-1.26,1.04-2.2,1.04
		c-0.94,0-1.68-0.34-2.21-1.02s-0.79-1.63-0.79-2.84c0-1.22,0.27-2.17,0.8-2.85s1.27-1.01,2.21-1.01S335.65,59.89,336.17,60.55z
		 M332.71,61.26c-0.29,0.46-0.43,1.18-0.43,2.16c0,1.91,0.56,2.87,1.68,2.87c1.12,0,1.68-0.96,1.68-2.88c0-0.98-0.14-1.7-0.42-2.16
		c-0.28-0.46-0.7-0.69-1.25-0.69S333,60.8,332.71,61.26z"/>
	<path d="M343.83,67.1h-1.09L342.67,66c-0.51,0.86-1.2,1.29-2.06,1.29c-0.59,0-1.05-0.19-1.39-0.57s-0.5-0.9-0.5-1.55v-5.42h1.26
		v5.31c0,0.43,0.08,0.74,0.25,0.94c0.16,0.2,0.41,0.3,0.73,0.3c0.63,0,1.16-0.41,1.61-1.23v-5.32h1.26V67.1z"/>
	<path d="M350.76,60.14c0.33,0.39,0.5,0.92,0.5,1.6v5.36H350v-5.21c0-0.48-0.08-0.82-0.24-1.03c-0.16-0.21-0.4-0.31-0.73-0.31
		c-0.62,0-1.18,0.44-1.68,1.32v5.24h-1.26v-7.36h1.09l0.1,1.09c0.57-0.85,1.27-1.27,2.1-1.27
		C349.97,59.56,350.43,59.75,350.76,60.14z"/>
	<path d="M358.19,66.09c0.08,0.14,0.21,0.25,0.39,0.33l-0.27,0.85c-0.36-0.06-0.65-0.17-0.85-0.34s-0.35-0.42-0.43-0.77
		c-0.48,0.75-1.14,1.12-2,1.12c-0.65,0-1.17-0.2-1.55-0.61c-0.38-0.41-0.57-0.95-0.57-1.63c0-0.78,0.26-1.38,0.77-1.79
		c0.51-0.41,1.25-0.62,2.2-0.62h0.95v-0.63c0-0.51-0.11-0.88-0.32-1.11s-0.55-0.34-1.03-0.34c-0.51,0-1.11,0.13-1.79,0.39
		l-0.31-0.88c0.82-0.34,1.59-0.5,2.3-0.5c1.6,0,2.39,0.8,2.39,2.39v3.47C358.07,65.72,358.11,65.94,358.19,66.09z M356.58,55.94
		l0.53,1.01l-2.69,1.22l-0.36-0.64L356.58,55.94z M356.82,65.18v-1.74h-0.81c-1.21,0-1.82,0.51-1.82,1.53c0,0.44,0.1,0.77,0.29,1.01
		c0.2,0.23,0.48,0.35,0.84,0.35C355.97,66.33,356.47,65.95,356.82,65.18z"/>
	<path d="M364.41,60.4l-0.53,0.74c-0.3-0.21-0.58-0.36-0.84-0.46s-0.54-0.15-0.83-0.15c-0.38,0-0.68,0.09-0.9,0.27
		c-0.22,0.18-0.33,0.43-0.33,0.75c0,0.31,0.1,0.55,0.31,0.73c0.21,0.18,0.61,0.36,1.2,0.55c0.74,0.23,1.27,0.52,1.61,0.85
		s0.5,0.8,0.5,1.39c0,0.69-0.25,1.23-0.76,1.63s-1.13,0.59-1.89,0.59c-1,0-1.84-0.33-2.53-0.99l0.64-0.7
		c0.59,0.48,1.21,0.71,1.86,0.71c0.41,0,0.74-0.1,0.99-0.31c0.25-0.21,0.38-0.49,0.38-0.85c0-0.26-0.04-0.47-0.13-0.63
		c-0.09-0.16-0.25-0.3-0.48-0.43s-0.56-0.26-1-0.4c-0.7-0.23-1.2-0.51-1.51-0.84c-0.31-0.33-0.46-0.74-0.46-1.25
		c0-0.39,0.1-0.74,0.31-1.05c0.21-0.31,0.49-0.55,0.85-0.73c0.36-0.18,0.78-0.27,1.26-0.27C362.99,59.56,363.74,59.84,364.41,60.4z"
		/>
	<path d="M370.97,60.55c0.52,0.66,0.78,1.61,0.78,2.86c0,1.2-0.27,2.14-0.8,2.83s-1.26,1.04-2.2,1.04c-0.94,0-1.68-0.34-2.21-1.02
		s-0.79-1.63-0.79-2.84c0-1.22,0.27-2.17,0.8-2.85c0.53-0.68,1.27-1.01,2.21-1.01C369.72,59.56,370.45,59.89,370.97,60.55z
		 M367.51,61.26c-0.29,0.46-0.43,1.18-0.43,2.16c0,1.91,0.56,2.87,1.68,2.87s1.68-0.96,1.68-2.88c0-0.98-0.14-1.7-0.42-2.16
		c-0.28-0.46-0.7-0.69-1.25-0.69S367.8,60.8,367.51,61.26z"/>
	<path d="M378.54,60.54c0.42,0.66,0.64,1.61,0.64,2.86c0,1.2-0.23,2.14-0.69,2.83s-1.09,1.04-1.88,1.04c-0.37,0-0.71-0.09-1.02-0.26
		c-0.31-0.17-0.57-0.42-0.8-0.73l-0.08,0.81h-1.12V56.77l1.26-0.14v4c0.23-0.34,0.51-0.6,0.83-0.79c0.32-0.19,0.68-0.29,1.07-0.29
		C377.52,59.56,378.12,59.89,378.54,60.54z M377.86,63.41c0-1.04-0.13-1.77-0.38-2.21c-0.25-0.43-0.61-0.65-1.08-0.65
		c-0.33,0-0.61,0.1-0.86,0.29c-0.25,0.2-0.48,0.47-0.71,0.83v3.65c0.18,0.29,0.39,0.52,0.64,0.7c0.25,0.18,0.53,0.27,0.83,0.27
		C377.34,66.29,377.86,65.33,377.86,63.41z"/>
	<path d="M382.25,56.5c0.15,0.16,0.23,0.35,0.23,0.59s-0.07,0.43-0.22,0.58c-0.15,0.15-0.35,0.23-0.6,0.23
		c-0.24,0-0.44-0.08-0.6-0.23c-0.15-0.15-0.23-0.35-0.23-0.58s0.08-0.43,0.23-0.59c0.15-0.16,0.35-0.24,0.6-0.24
		C381.9,56.27,382.1,56.35,382.25,56.5z M382.29,59.74v7.36h-1.26v-7.36H382.29z"/>
	<path d="M384.88,66.88c-0.26-0.27-0.39-0.65-0.39-1.13v-8.99l1.26-0.14v9.09c0,0.36,0.15,0.55,0.45,0.55
		c0.12,0,0.26-0.03,0.41-0.08l0.28,0.88c-0.3,0.16-0.61,0.24-0.94,0.24C385.49,67.28,385.14,67.15,384.88,66.88z"/>
	<path d="M392.9,66.09c0.08,0.14,0.21,0.25,0.39,0.33l-0.27,0.85c-0.36-0.06-0.65-0.17-0.85-0.34c-0.21-0.17-0.35-0.42-0.43-0.77
		c-0.48,0.75-1.14,1.12-2,1.12c-0.65,0-1.17-0.2-1.55-0.61c-0.38-0.41-0.57-0.95-0.57-1.63c0-0.78,0.26-1.38,0.77-1.79
		c0.51-0.41,1.25-0.62,2.2-0.62h0.95v-0.63c0-0.51-0.1-0.88-0.31-1.11s-0.55-0.34-1.03-0.34c-0.51,0-1.11,0.13-1.79,0.39l-0.31-0.88
		c0.82-0.34,1.59-0.5,2.3-0.5c1.6,0,2.39,0.8,2.39,2.39v3.47C392.77,65.72,392.81,65.94,392.9,66.09z M391.52,65.18v-1.74h-0.81
		c-1.21,0-1.82,0.51-1.82,1.53c0,0.44,0.1,0.77,0.29,1.01s0.48,0.35,0.84,0.35C390.68,66.33,391.18,65.95,391.52,65.18z"/>
	<path d="M287.03,74.4l-0.53,0.74c-0.3-0.21-0.58-0.36-0.84-0.46c-0.26-0.1-0.54-0.15-0.83-0.15c-0.38,0-0.68,0.09-0.9,0.27
		c-0.22,0.18-0.33,0.43-0.33,0.75c0,0.31,0.11,0.55,0.32,0.73c0.21,0.18,0.61,0.36,1.2,0.55c0.74,0.23,1.27,0.52,1.61,0.85
		s0.5,0.8,0.5,1.39c0,0.69-0.25,1.23-0.76,1.63s-1.13,0.59-1.89,0.59c-1,0-1.84-0.33-2.53-0.99l0.64-0.7
		c0.59,0.48,1.21,0.71,1.86,0.71c0.41,0,0.74-0.1,0.99-0.31c0.25-0.21,0.38-0.49,0.38-0.85c0-0.26-0.04-0.47-0.13-0.63
		c-0.09-0.16-0.25-0.3-0.48-0.43c-0.23-0.13-0.56-0.26-1-0.4c-0.7-0.23-1.2-0.51-1.51-0.84c-0.31-0.33-0.46-0.74-0.46-1.25
		c0-0.39,0.1-0.74,0.31-1.05c0.21-0.31,0.49-0.55,0.85-0.73c0.36-0.18,0.78-0.27,1.26-0.27C285.61,73.56,286.37,73.84,287.03,74.4z"
		/>
	<path d="M292.32,80.78c-0.47,0.34-0.99,0.5-1.55,0.5c-0.6,0-1.06-0.17-1.38-0.52c-0.32-0.35-0.48-0.83-0.48-1.46v-4.62h-1.05v-0.95
		h1.05v-1.69l1.26-0.15v1.85h1.62l-0.14,0.95h-1.48v4.61c0,0.63,0.27,0.95,0.8,0.95c0.16,0,0.31-0.02,0.44-0.07
		c0.13-0.05,0.29-0.12,0.46-0.21L292.32,80.78z"/>
	<path d="M296.85,70.14l0.49,0.56l-1.69,1.62h-0.78l-1.69-1.62l0.49-0.56l1.6,1.23L296.85,70.14z M297.07,73.65l-0.21,1.22
		c-0.18-0.06-0.37-0.08-0.57-0.08c-0.41,0-0.74,0.16-1,0.49c-0.26,0.33-0.46,0.83-0.61,1.5v4.33h-1.26v-7.36h1.09l0.1,1.46
		c0.36-1.08,0.98-1.62,1.83-1.62C296.68,73.57,296.89,73.6,297.07,73.65z"/>
	<path d="M303.05,77.85h-4.28c0.04,0.86,0.21,1.48,0.52,1.86c0.31,0.38,0.73,0.57,1.26,0.57c0.34,0,0.64-0.05,0.9-0.15
		c0.27-0.1,0.54-0.27,0.83-0.5l0.56,0.74c-0.69,0.62-1.47,0.92-2.35,0.92c-0.96,0-1.71-0.33-2.23-1c-0.53-0.67-0.79-1.6-0.79-2.81
		s0.25-2.16,0.76-2.86c0.5-0.7,1.2-1.06,2.1-1.06c0.89,0,1.57,0.31,2.04,0.95c0.48,0.63,0.71,1.53,0.71,2.69
		C303.07,77.39,303.07,77.61,303.05,77.85z M301.86,76.82c0-1.54-0.51-2.31-1.53-2.31c-0.47,0-0.84,0.19-1.11,0.58
		c-0.27,0.39-0.42,1.01-0.46,1.88h3.09V76.82z"/>
	<path d="M310.06,70.76V81.1h-1.12l-0.08-0.97c-0.48,0.77-1.12,1.15-1.92,1.15s-1.43-0.34-1.87-1.02s-0.67-1.62-0.67-2.81
		c0-0.77,0.11-1.46,0.33-2.04c0.22-0.59,0.53-1.04,0.93-1.37c0.4-0.32,0.86-0.48,1.39-0.48c0.7,0,1.28,0.29,1.75,0.88v-3.82
		L310.06,70.76z M308.11,80.01c0.25-0.19,0.48-0.46,0.69-0.83v-3.7c-0.42-0.62-0.91-0.94-1.47-0.94c-0.5,0-0.89,0.24-1.18,0.71
		c-0.29,0.48-0.43,1.19-0.42,2.16c0,0.98,0.13,1.7,0.39,2.17c0.26,0.47,0.63,0.7,1.11,0.7C307.57,80.29,307.86,80.2,308.11,80.01z"
		/>
	<path d="M317,74.14c0.33,0.39,0.5,0.92,0.5,1.6v5.36h-1.26v-5.21c0-0.48-0.08-0.82-0.24-1.03c-0.16-0.21-0.4-0.31-0.73-0.31
		c-0.62,0-1.18,0.44-1.68,1.32v5.24h-1.26v-7.36h1.09l0.1,1.09c0.57-0.85,1.27-1.27,2.1-1.27C316.21,73.56,316.67,73.75,317,74.14z"
		/>
	<path d="M321.26,69.94l0.53,1.01l-2.69,1.22l-0.36-0.64L321.26,69.94z M320.97,73.74v7.36h-1.26v-7.36H320.97z"/>
	<path d="M331.76,70.76V81.1h-1.12l-0.08-0.97c-0.48,0.77-1.12,1.15-1.92,1.15s-1.43-0.34-1.87-1.02s-0.67-1.62-0.67-2.81
		c0-0.77,0.11-1.46,0.33-2.04c0.22-0.59,0.53-1.04,0.93-1.37c0.4-0.32,0.86-0.48,1.39-0.48c0.7,0,1.28,0.29,1.75,0.88v-3.82
		L331.76,70.76z M329.81,80.01c0.25-0.19,0.48-0.46,0.69-0.83v-3.7c-0.42-0.62-0.91-0.94-1.47-0.94c-0.5,0-0.89,0.24-1.18,0.71
		c-0.29,0.48-0.43,1.19-0.42,2.16c0,0.98,0.13,1.7,0.39,2.17c0.26,0.47,0.63,0.7,1.11,0.7C329.27,80.29,329.56,80.2,329.81,80.01z"
		/>
	<path d="M339.17,77.85h-4.28c0.04,0.86,0.21,1.48,0.52,1.86c0.31,0.38,0.73,0.57,1.26,0.57c0.34,0,0.64-0.05,0.9-0.15
		c0.27-0.1,0.54-0.27,0.83-0.5l0.56,0.74c-0.69,0.62-1.47,0.92-2.35,0.92c-0.96,0-1.71-0.33-2.23-1c-0.53-0.67-0.79-1.6-0.79-2.81
		s0.25-2.16,0.76-2.86c0.5-0.7,1.2-1.06,2.1-1.06c0.89,0,1.57,0.31,2.04,0.95c0.48,0.63,0.71,1.53,0.71,2.69
		C339.19,77.39,339.18,77.61,339.17,77.85z M337.37,69.94l0.53,1.01l-2.69,1.22l-0.36-0.64L337.37,69.94z M337.98,76.82
		c0-1.54-0.51-2.31-1.53-2.31c-0.47,0-0.84,0.19-1.11,0.58c-0.27,0.39-0.42,1.01-0.46,1.88h3.09V76.82z"/>
	<path d="M341.27,80.88c-0.26-0.27-0.39-0.65-0.39-1.13v-8.99l1.26-0.14v9.09c0,0.36,0.15,0.55,0.45,0.55
		c0.12,0,0.26-0.03,0.41-0.08l0.28,0.88c-0.3,0.16-0.61,0.24-0.94,0.24C341.88,81.28,341.53,81.15,341.27,80.88z"/>
	<path d="M345.9,70.62V81.1h-1.26V70.76L345.9,70.62z M349.78,73.74l-2.49,3.28l2.73,4.09h-1.4l-2.65-4.03l2.49-3.33H349.78z"/>
	<path d="M355.67,80.09c0.08,0.14,0.21,0.25,0.39,0.33l-0.27,0.85c-0.36-0.06-0.65-0.17-0.85-0.34s-0.35-0.42-0.43-0.77
		c-0.48,0.75-1.14,1.12-2,1.12c-0.65,0-1.17-0.2-1.55-0.61c-0.38-0.41-0.57-0.95-0.57-1.63c0-0.78,0.26-1.38,0.77-1.79
		c0.51-0.41,1.25-0.62,2.2-0.62h0.95v-0.63c0-0.51-0.11-0.88-0.32-1.11s-0.55-0.34-1.03-0.34c-0.51,0-1.11,0.13-1.79,0.39
		l-0.31-0.88c0.82-0.34,1.59-0.5,2.3-0.5c1.6,0,2.39,0.8,2.39,2.39v3.47C355.55,79.72,355.59,79.94,355.67,80.09z M354.3,79.18
		v-1.74h-0.81c-1.21,0-1.82,0.51-1.82,1.53c0,0.44,0.1,0.77,0.29,1.01c0.2,0.23,0.48,0.35,0.84,0.35
		C353.46,80.33,353.95,79.95,354.3,79.18z"/>
	<path d="M365.12,73.74v0.94l-3.49,5.39h3.5l-0.13,1.04h-4.76v-0.94l3.49-5.39h-3.19v-1.04H365.12z M364.38,70.14l0.49,0.56
		l-1.69,1.62h-0.78l-1.69-1.62l0.49-0.56l1.6,1.23L364.38,70.14z"/>
	<path d="M367.86,70.5c0.15,0.16,0.23,0.35,0.23,0.59s-0.07,0.43-0.22,0.58c-0.15,0.15-0.35,0.23-0.6,0.23
		c-0.24,0-0.44-0.08-0.6-0.23c-0.15-0.15-0.23-0.35-0.23-0.58s0.08-0.43,0.23-0.59c0.15-0.16,0.35-0.24,0.6-0.24
		C367.51,70.27,367.7,70.35,367.86,70.5z M367.89,73.74v7.36h-1.26v-7.36H367.89z"/>
	<path d="M375.13,73.74l-2.2,7.36h-1.51l-2.27-7.36h1.32l1.71,6.3l1.69-6.3H375.13z"/>
	<path d="M381.1,74.55c0.52,0.66,0.78,1.61,0.78,2.86c0,1.2-0.27,2.14-0.8,2.83s-1.26,1.04-2.2,1.04c-0.94,0-1.68-0.34-2.21-1.02
		s-0.79-1.63-0.79-2.84c0-1.22,0.27-2.17,0.8-2.85c0.53-0.68,1.27-1.01,2.21-1.01C379.84,73.56,380.57,73.89,381.1,74.55z
		 M377.64,75.26c-0.29,0.46-0.43,1.18-0.43,2.16c0,1.91,0.56,2.87,1.68,2.87s1.68-0.96,1.68-2.88c0-0.98-0.14-1.7-0.42-2.16
		c-0.28-0.46-0.7-0.69-1.25-0.69S377.93,74.8,377.64,75.26z"/>
	<path d="M387.18,80.78c-0.47,0.34-0.98,0.5-1.55,0.5c-0.6,0-1.06-0.17-1.38-0.52c-0.32-0.35-0.48-0.83-0.48-1.46v-4.62h-1.05v-0.95
		h1.05v-1.69l1.26-0.15v1.85h1.62l-0.14,0.95h-1.48v4.61c0,0.63,0.27,0.95,0.8,0.95c0.16,0,0.3-0.02,0.44-0.07s0.29-0.12,0.46-0.21
		L387.18,80.78z"/>
	<path d="M392.9,80.09c0.08,0.14,0.21,0.25,0.39,0.33l-0.27,0.85c-0.36-0.06-0.65-0.17-0.85-0.34c-0.21-0.17-0.35-0.42-0.43-0.77
		c-0.48,0.75-1.14,1.12-2,1.12c-0.65,0-1.17-0.2-1.55-0.61c-0.38-0.41-0.57-0.95-0.57-1.63c0-0.78,0.26-1.38,0.77-1.79
		c0.51-0.41,1.25-0.62,2.2-0.62h0.95v-0.63c0-0.51-0.1-0.88-0.31-1.11s-0.55-0.34-1.03-0.34c-0.51,0-1.11,0.13-1.79,0.39l-0.31-0.88
		c0.82-0.34,1.59-0.5,2.3-0.5c1.6,0,2.39,0.8,2.39,2.39v3.47C392.77,79.72,392.81,79.94,392.9,80.09z M391.52,79.18v-1.74h-0.81
		c-1.21,0-1.82,0.51-1.82,1.53c0,0.44,0.1,0.77,0.29,1.01s0.48,0.35,0.84,0.35C390.68,80.33,391.18,79.95,391.52,79.18z"/>
</g>
<g>
	<path class="st14" d="M398.45,75.09c0,0,18.16,0.04,20.69,19.78"/>
	<polyline class="st14" points="416.24,92.89 419.16,95.21 421.44,92.34 	"/>
</g>
</svg>
