<svg version="1.1" id="Layer_1" xmlns="http://www.w3.org/2000/svg" x="0" y="0" viewBox="0 0 620 338.87" xml:space="preserve"><style>.st1{fill:#595959}.st2{fill:teal;stroke:#fff;stroke-width:.25}.st2,.st3,.st4,.st5{stroke-miterlimit:10}.st3{opacity:.2;stroke:#fff;stroke-width:.25}.st4,.st5{fill:none;stroke:#000;stroke-width:.5}.st5{stroke:#fff;stroke-width:.75;stroke-linejoin:round}.st7{opacity:.3}.st8{fill:none;stroke:#000;stroke-width:.5;stroke-linecap:round;stroke-miterlimit:10}</style><path fill="none" stroke="#d9d9d9" stroke-width=".75" stroke-linejoin="round" stroke-miterlimit="10" d="M57.61 292.21h504.87"/><path class="st1" d="M37.13 286.91c.49.81.73 2.02.73 3.63 0 1.62-.24 2.84-.73 3.65s-1.2 1.21-2.14 1.21c-.95 0-1.67-.41-2.16-1.22s-.73-2.02-.73-3.64c0-3.23.96-4.84 2.88-4.84.95 0 1.66.4 2.15 1.21zm-3.34.66c-.26.59-.39 1.58-.39 2.98s.13 2.39.39 2.98c.26.59.66.88 1.2.88.53 0 .93-.29 1.18-.88.26-.59.39-1.58.39-2.98s-.13-2.39-.38-2.98c-.25-.59-.65-.88-1.19-.88-.55-.01-.95.28-1.2.88zM46.8 309.49v9.37h-1.25v-8.05l-1.95 1.32-.57-.84 2.66-1.79h1.11zM54.15 314.89c.3.4.45.9.45 1.48 0 .52-.12.98-.36 1.39s-.59.71-1.04.94c-.45.22-.98.34-1.57.34-.59 0-1.1-.11-1.55-.33s-.78-.53-1.02-.93-.36-.86-.36-1.37c0-1.16.59-1.99 1.78-2.49-.5-.27-.87-.58-1.09-.92-.22-.35-.34-.76-.34-1.25 0-.5.12-.94.35-1.3.23-.36.55-.64.94-.83.4-.19.83-.28 1.31-.28.75 0 1.37.21 1.87.62.5.41.75.99.75 1.74 0 .48-.12.89-.36 1.23s-.63.66-1.16.94c.63.28 1.1.62 1.4 1.02zm-1.26 2.74c.3-.28.45-.7.45-1.25 0-.49-.12-.88-.37-1.15-.25-.28-.69-.54-1.32-.81l-.39-.15c-.45.23-.78.52-.99.85-.21.34-.31.76-.31 1.26 0 .56.15.98.45 1.26.3.28.71.42 1.25.42s.93-.15 1.23-.43zm-2.25-7c-.25.25-.38.62-.38 1.13 0 .42.11.75.32.99.21.24.57.46 1.07.67l.32.14c.39-.26.67-.53.83-.8.16-.28.25-.61.25-1 0-.49-.12-.87-.36-1.11-.24-.25-.58-.37-1.02-.37-.44-.02-.78.1-1.03.35zM59.36 309.65c.38.21.68.5.88.85.21.36.31.75.31 1.18 0 .6-.15 1.08-.46 1.45-.31.37-.75.62-1.32.75.62.06 1.11.28 1.48.67.37.39.56.94.56 1.64 0 .53-.12 1.01-.36 1.44s-.58.77-1.02 1.02c-.44.25-.96.38-1.55.38-.54 0-1.02-.1-1.45-.31s-.81-.53-1.17-.96l.76-.64c.29.32.58.55.86.69a2 2 0 00.96.22c.51 0 .92-.17 1.22-.5.3-.33.46-.79.46-1.36 0-.62-.15-1.06-.46-1.34s-.74-.41-1.31-.41h-.59l.15-.94h.39c.47 0 .85-.14 1.15-.43.3-.29.46-.7.46-1.25 0-.47-.13-.83-.39-1.09s-.61-.39-1.06-.39c-.33 0-.63.07-.9.2-.28.13-.55.34-.83.62l-.66-.67c.73-.75 1.57-1.12 2.52-1.12.54-.01.99.09 1.37.3zM67.26 310.55c.49.81.73 2.02.73 3.63 0 1.62-.24 2.84-.73 3.65s-1.2 1.21-2.14 1.21c-.95 0-1.67-.41-2.16-1.22s-.73-2.02-.73-3.64c0-3.23.96-4.84 2.88-4.84.95 0 1.66.4 2.15 1.21zm-3.34.65c-.26.59-.39 1.58-.39 2.98s.13 2.39.39 2.98c.26.59.66.88 1.2.88.53 0 .93-.29 1.18-.88.26-.59.39-1.58.39-2.98s-.13-2.39-.38-2.98c-.25-.59-.65-.88-1.19-.88-.55 0-.95.29-1.2.88zM126.45 309.49v9.37h-1.25v-8.05l-1.95 1.32-.57-.84 2.66-1.79h1.11zM133.8 314.89c.3.4.45.9.45 1.48 0 .52-.12.98-.36 1.39s-.59.71-1.04.94c-.45.22-.98.34-1.57.34-.59 0-1.1-.11-1.55-.33s-.78-.53-1.02-.93-.36-.86-.36-1.37c0-1.16.59-1.99 1.78-2.49-.5-.27-.87-.58-1.09-.92-.22-.35-.34-.76-.34-1.25 0-.5.12-.94.35-1.3.23-.36.55-.64.94-.83.4-.19.83-.28 1.31-.28.75 0 1.37.21 1.87.62.5.41.75.99.75 1.74 0 .48-.12.89-.36 1.23s-.63.66-1.16.94c.63.28 1.1.62 1.4 1.02zm-1.26 2.74c.3-.28.45-.7.45-1.25 0-.49-.12-.88-.37-1.15-.25-.28-.69-.54-1.32-.81l-.39-.15c-.45.23-.78.52-.99.85-.21.34-.31.76-.31 1.26 0 .56.15.98.45 1.26.3.28.71.42 1.25.42s.93-.15 1.23-.43zm-2.26-7c-.25.25-.38.62-.38 1.13 0 .42.11.75.32.99.21.24.57.46 1.07.67l.32.14c.39-.26.67-.53.83-.8.16-.28.25-.61.25-1 0-.49-.12-.87-.36-1.11-.24-.25-.58-.37-1.02-.37-.43-.02-.77.1-1.03.35zM141.2 315.54v1.01h-1.06v2.31h-1.2v-2.31h-3.67v-.91l2.51-6.31 1.06.41-2.28 5.81h2.39l.13-2.55h1.06v2.55h1.06zM147.36 310.55c.49.81.73 2.02.73 3.63 0 1.62-.24 2.84-.73 3.65s-1.2 1.21-2.14 1.21c-.95 0-1.67-.41-2.16-1.22s-.73-2.02-.73-3.64c0-3.23.96-4.84 2.88-4.84.95 0 1.67.4 2.15 1.21zm-3.34.65c-.26.59-.39 1.58-.39 2.98s.13 2.39.39 2.98c.26.59.66.88 1.2.88.53 0 .93-.29 1.18-.88.26-.59.39-1.58.39-2.98s-.13-2.39-.38-2.98c-.25-.59-.65-.88-1.19-.88-.54 0-.94.29-1.2.88zM203.3 309.49v9.37h-1.25v-8.05l-1.95 1.32-.57-.84 2.66-1.79h1.11zM210.65 314.89c.3.4.45.9.45 1.48 0 .52-.12.98-.36 1.39s-.59.71-1.04.94c-.45.22-.98.34-1.57.34-.59 0-1.1-.11-1.55-.33s-.78-.53-1.02-.93-.36-.86-.36-1.37c0-1.16.59-1.99 1.78-2.49-.5-.27-.87-.58-1.09-.92-.22-.35-.34-.76-.34-1.25 0-.5.12-.94.35-1.3.23-.36.55-.64.94-.83.4-.19.83-.28 1.31-.28.75 0 1.37.21 1.87.62.5.41.75.99.75 1.74 0 .48-.12.89-.36 1.23s-.63.66-1.16.94c.63.28 1.1.62 1.4 1.02zm-1.26 2.74c.3-.28.45-.7.45-1.25 0-.49-.12-.88-.37-1.15-.25-.28-.69-.54-1.32-.81l-.39-.15c-.45.23-.78.52-.99.85-.21.34-.31.76-.31 1.26 0 .56.15.98.45 1.26.3.28.71.42 1.25.42s.93-.15 1.23-.43zm-2.26-7c-.25.25-.38.62-.38 1.13 0 .42.11.75.32.99.21.24.57.46 1.07.67l.32.14c.39-.26.67-.53.83-.8.16-.28.25-.61.25-1 0-.49-.12-.87-.36-1.11-.24-.25-.58-.37-1.02-.37-.43-.02-.78.1-1.03.35zM217.02 310.47h-3.28v2.8c.44-.26.9-.39 1.37-.39.72 0 1.3.26 1.74.78.44.52.66 1.25.66 2.17 0 .63-.12 1.18-.37 1.67s-.6.86-1.04 1.13c-.45.27-.97.41-1.57.41-.53 0-1-.1-1.41-.31-.41-.21-.79-.51-1.16-.91l.74-.67c.27.29.55.51.83.65.28.15.6.22.97.22.54 0 .96-.19 1.26-.57.3-.38.45-.92.45-1.63 0-1.33-.5-2-1.51-2-.22 0-.43.03-.62.09s-.4.16-.63.29h-.91v-4.7h4.65l-.17.97zM223.86 310.55c.49.81.73 2.02.73 3.63 0 1.62-.24 2.84-.73 3.65s-1.2 1.21-2.14 1.21c-.95 0-1.67-.41-2.16-1.22s-.73-2.02-.73-3.64c0-3.23.96-4.84 2.88-4.84.95 0 1.67.4 2.15 1.21zm-3.34.65c-.26.59-.39 1.58-.39 2.98s.13 2.39.39 2.98c.26.59.66.88 1.2.88.53 0 .93-.29 1.18-.88.26-.59.39-1.58.39-2.98s-.13-2.39-.38-2.98c-.25-.59-.65-.88-1.19-.88-.54 0-.94.29-1.2.88zM280.85 309.49v9.37h-1.25v-8.05l-1.95 1.32-.57-.84 2.66-1.79h1.11zM288.2 314.89c.3.4.45.9.45 1.48 0 .52-.12.98-.36 1.39s-.59.71-1.04.94c-.45.22-.98.34-1.57.34-.59 0-1.1-.11-1.55-.33s-.78-.53-1.02-.93-.36-.86-.36-1.37c0-1.16.59-1.99 1.78-2.49-.5-.27-.87-.58-1.09-.92-.22-.35-.34-.76-.34-1.25 0-.5.12-.94.35-1.3.23-.36.55-.64.94-.83.4-.19.83-.28 1.31-.28.75 0 1.37.21 1.87.62.5.41.75.99.75 1.74 0 .48-.12.89-.36 1.23s-.63.66-1.16.94c.63.28 1.1.62 1.4 1.02zm-1.26 2.74c.3-.28.45-.7.45-1.25 0-.49-.12-.88-.37-1.15-.25-.28-.69-.54-1.32-.81l-.39-.15c-.45.23-.78.52-.99.85-.21.34-.31.76-.31 1.26 0 .56.15.98.45 1.26.3.28.71.42 1.25.42s.93-.15 1.23-.43zm-2.26-7c-.25.25-.38.62-.38 1.13 0 .42.11.75.32.99.21.24.57.46 1.07.67l.32.14c.39-.26.67-.53.83-.8.16-.28.25-.61.25-1 0-.49-.12-.87-.36-1.11-.24-.25-.58-.37-1.02-.37-.44-.02-.78.1-1.03.35zM294.45 313.03c.35.22.63.56.83 1.01.21.45.31.99.31 1.64 0 .69-.11 1.29-.34 1.8-.23.51-.55.9-.96 1.16-.41.27-.88.4-1.41.4-1 0-1.73-.39-2.21-1.18-.47-.79-.71-1.89-.71-3.3 0-1.07.13-2 .4-2.79s.65-1.39 1.15-1.81 1.08-.63 1.76-.63c.65 0 1.23.19 1.74.57l-.49.8c-.39-.26-.8-.39-1.22-.39-.61 0-1.09.32-1.45.95s-.56 1.51-.61 2.63c.53-.8 1.21-1.2 2.04-1.2.43 0 .82.12 1.17.34zm-.49 4.42c.25-.41.37-.99.37-1.74 0-.72-.12-1.24-.36-1.57a1.13 1.13 0 00-.97-.49c-.35 0-.67.12-.97.35s-.57.56-.79.97c.02 1.07.16 1.86.41 2.35.26.49.66.74 1.21.74.48 0 .85-.21 1.1-.61zM301.93 310.55c.49.81.73 2.02.73 3.63 0 1.62-.24 2.84-.73 3.65s-1.2 1.21-2.14 1.21c-.95 0-1.67-.41-2.16-1.22s-.73-2.02-.73-3.64c0-3.23.96-4.84 2.88-4.84.95 0 1.66.4 2.15 1.21zm-3.34.65c-.26.59-.39 1.58-.39 2.98s.13 2.39.39 2.98c.26.59.66.88 1.2.88.53 0 .93-.29 1.18-.88.26-.59.39-1.58.39-2.98s-.13-2.39-.38-2.98c-.25-.59-.65-.88-1.19-.88-.54 0-.94.29-1.2.88zM360.82 309.49v9.37h-1.25v-8.05l-1.95 1.32-.57-.84 2.66-1.79h1.11zM368.17 314.89c.3.4.45.9.45 1.48 0 .52-.12.98-.36 1.39s-.59.71-1.04.94c-.45.22-.98.34-1.57.34-.59 0-1.1-.11-1.55-.33s-.78-.53-1.02-.93-.36-.86-.36-1.37c0-1.16.59-1.99 1.78-2.49-.5-.27-.87-.58-1.09-.92-.22-.35-.34-.76-.34-1.25 0-.5.12-.94.35-1.3.23-.36.55-.64.94-.83.4-.19.83-.28 1.31-.28.75 0 1.37.21 1.87.62.5.41.75.99.75 1.74 0 .48-.12.89-.36 1.23s-.63.66-1.16.94c.63.28 1.1.62 1.4 1.02zm-1.26 2.74c.3-.28.45-.7.45-1.25 0-.49-.12-.88-.37-1.15-.25-.28-.69-.54-1.32-.81l-.39-.15c-.45.23-.78.52-.99.85-.21.34-.31.76-.31 1.26 0 .56.15.98.45 1.26.3.28.71.42 1.25.42s.93-.15 1.23-.43zm-2.25-7c-.25.25-.38.62-.38 1.13 0 .42.11.75.32.99.21.24.57.46 1.07.67l.32.14c.39-.26.67-.53.83-.8.16-.28.25-.61.25-1 0-.49-.12-.87-.36-1.11-.24-.25-.58-.37-1.02-.37-.44-.02-.78.1-1.03.35zM374.47 309.49v.92l-3.21 8.58-1.13-.36 3.08-8.13h-3.75v-1.01h5.01zM380.63 310.55c.49.81.73 2.02.73 3.63 0 1.62-.24 2.84-.73 3.65s-1.2 1.21-2.14 1.21c-.95 0-1.67-.41-2.16-1.22s-.73-2.02-.73-3.64c0-3.23.96-4.84 2.88-4.84.95 0 1.67.4 2.15 1.21zm-3.34.65c-.26.59-.39 1.58-.39 2.98s.13 2.39.39 2.98c.26.59.66.88 1.2.88.53 0 .93-.29 1.18-.88.26-.59.39-1.58.39-2.98s-.13-2.39-.38-2.98c-.25-.59-.65-.88-1.19-.88-.54 0-.94.29-1.2.88zM436.74 309.49v9.37h-1.25v-8.05l-1.95 1.32-.57-.84 2.66-1.79h1.11zM444.09 314.89c.3.4.45.9.45 1.48 0 .52-.12.98-.36 1.39s-.59.71-1.04.94c-.45.22-.98.34-1.57.34-.59 0-1.1-.11-1.55-.33s-.78-.53-1.02-.93-.36-.86-.36-1.37c0-1.16.59-1.99 1.78-2.49-.5-.27-.87-.58-1.09-.92-.22-.35-.34-.76-.34-1.25 0-.5.12-.94.35-1.3.23-.36.55-.64.94-.83.4-.19.83-.28 1.31-.28.75 0 1.37.21 1.87.62.5.41.75.99.75 1.74 0 .48-.12.89-.36 1.23s-.63.66-1.16.94c.63.28 1.1.62 1.4 1.02zm-1.26 2.74c.3-.28.45-.7.45-1.25 0-.49-.12-.88-.37-1.15-.25-.28-.69-.54-1.32-.81l-.39-.15c-.45.23-.78.52-.99.85-.21.34-.31.76-.31 1.26 0 .56.15.98.45 1.26.3.28.71.42 1.25.42s.93-.15 1.23-.43zm-2.25-7c-.25.25-.38.62-.38 1.13 0 .42.11.75.32.99.21.24.57.46 1.07.67l.32.14c.39-.26.67-.53.83-.8.16-.28.25-.61.25-1 0-.49-.12-.87-.36-1.11-.24-.25-.58-.37-1.02-.37-.44-.02-.78.1-1.03.35zM451.09 314.89c.3.4.45.9.45 1.48 0 .52-.12.98-.36 1.39s-.59.71-1.04.94c-.45.22-.98.34-1.57.34-.59 0-1.1-.11-1.55-.33s-.78-.53-1.02-.93-.36-.86-.36-1.37c0-1.16.59-1.99 1.78-2.49-.5-.27-.87-.58-1.09-.92-.22-.35-.34-.76-.34-1.25 0-.5.12-.94.35-1.3.23-.36.55-.64.94-.83.4-.19.83-.28 1.31-.28.75 0 1.37.21 1.87.62.5.41.75.99.75 1.74 0 .48-.12.89-.36 1.23s-.63.66-1.16.94c.63.28 1.1.62 1.4 1.02zm-1.26 2.74c.3-.28.45-.7.45-1.25 0-.49-.12-.88-.37-1.15-.25-.28-.69-.54-1.32-.81l-.39-.15c-.45.23-.78.52-.99.85-.21.34-.31.76-.31 1.26 0 .56.15.98.45 1.26.3.28.71.42 1.25.42s.93-.15 1.23-.43zm-2.25-7c-.25.25-.38.62-.38 1.13 0 .42.11.75.32.99.21.24.57.46 1.07.67l.32.14c.39-.26.67-.53.83-.8.16-.28.25-.61.25-1 0-.49-.12-.87-.36-1.11-.24-.25-.58-.37-1.02-.37-.44-.02-.78.1-1.03.35zM457.88 310.55c.49.81.73 2.02.73 3.63 0 1.62-.24 2.84-.73 3.65s-1.2 1.21-2.14 1.21c-.95 0-1.67-.41-2.16-1.22s-.73-2.02-.73-3.64c0-3.23.96-4.84 2.88-4.84.95 0 1.67.4 2.15 1.21zm-3.34.65c-.26.59-.39 1.58-.39 2.98s.13 2.39.39 2.98c.26.59.66.88 1.2.88.53 0 .93-.29 1.18-.88.26-.59.39-1.58.39-2.98s-.13-2.39-.38-2.98c-.25-.59-.65-.88-1.19-.88-.54 0-.94.29-1.2.88zM514.47 309.49v9.37h-1.25v-8.05l-1.95 1.32-.57-.84 2.66-1.79h1.11zM521.82 314.89c.3.4.45.9.45 1.48 0 .52-.12.98-.36 1.39-.24.4-.59.71-1.04.94-.45.22-.98.34-1.57.34-.59 0-1.1-.11-1.55-.33s-.78-.53-1.02-.93-.36-.86-.36-1.37c0-1.16.59-1.99 1.78-2.49-.5-.27-.87-.58-1.09-.92-.22-.35-.34-.76-.34-1.25 0-.5.12-.94.35-1.3.23-.36.55-.64.94-.83.4-.19.83-.28 1.31-.28.75 0 1.37.21 1.87.62.5.41.75.99.75 1.74 0 .48-.12.89-.36 1.23-.24.35-.63.66-1.16.94.63.28 1.1.62 1.4 1.02zm-1.26 2.74c.3-.28.45-.7.45-1.25 0-.49-.12-.88-.37-1.15-.25-.28-.69-.54-1.32-.81l-.39-.15c-.45.23-.78.52-.99.85-.21.34-.31.76-.31 1.26 0 .56.15.98.45 1.26.3.28.71.42 1.25.42s.93-.15 1.23-.43zm-2.26-7c-.25.25-.38.62-.38 1.13 0 .42.11.75.32.99.21.24.57.46 1.07.67l.32.14c.39-.26.67-.53.83-.8.16-.28.25-.61.25-1 0-.49-.12-.87-.36-1.11-.24-.25-.58-.37-1.02-.37-.43-.02-.77.1-1.03.35zM528.25 310.3c.47.64.71 1.55.71 2.73 0 1.24-.17 2.26-.5 3.05s-.84 1.42-1.5 1.89c-.67.47-1.55.87-2.65 1.2l-.28-.92c1.14-.35 2-.83 2.6-1.42.59-.59.94-1.41 1.03-2.46-.23.34-.51.6-.83.79-.32.19-.68.29-1.08.29-.43 0-.83-.12-1.19-.36s-.65-.59-.86-1.04c-.21-.45-.31-.98-.31-1.59 0-.65.12-1.21.36-1.68s.57-.82.99-1.06c.42-.24.9-.36 1.43-.36.91-.02 1.61.3 2.08.94zm-.58 3c.01-1.07-.1-1.84-.34-2.3-.24-.46-.63-.69-1.17-.69-.49 0-.86.18-1.13.54-.27.36-.41.9-.41 1.62 0 .66.13 1.17.38 1.51.25.35.6.52 1.04.52.63-.01 1.17-.41 1.63-1.2zM535.41 310.55c.49.81.73 2.02.73 3.63 0 1.62-.24 2.84-.73 3.65s-1.2 1.21-2.14 1.21c-.95 0-1.67-.41-2.16-1.22s-.73-2.02-.73-3.64c0-3.23.96-4.84 2.88-4.84.95 0 1.67.4 2.15 1.21zm-3.34.65c-.26.59-.39 1.58-.39 2.98s.13 2.39.39 2.98c.26.59.66.88 1.2.88.53 0 .93-.29 1.18-.88.26-.59.38-1.58.38-2.98s-.13-2.39-.38-2.98c-.25-.59-.65-.88-1.19-.88-.53 0-.93.29-1.19.88z"/><g><path class="st1" d="M582.65 309.49v9.37h-1.25v-8.05l-1.95 1.32-.57-.84 2.66-1.79h1.11zM589.43 310.3c.47.64.71 1.55.71 2.73 0 1.24-.17 2.26-.5 3.05s-.84 1.42-1.5 1.89c-.67.47-1.55.87-2.65 1.2l-.28-.92c1.14-.35 2-.83 2.6-1.42.59-.59.94-1.41 1.03-2.46-.23.34-.51.6-.83.79-.32.19-.68.29-1.08.29-.43 0-.83-.12-1.19-.36s-.65-.59-.86-1.04c-.21-.45-.31-.98-.31-1.59 0-.65.12-1.21.36-1.68s.57-.82.99-1.06c.42-.24.9-.36 1.43-.36.9-.02 1.61.3 2.08.94zm-.58 3c.01-1.07-.1-1.84-.34-2.3-.24-.46-.63-.69-1.17-.69-.49 0-.86.18-1.13.54-.27.36-.41.9-.41 1.62 0 .66.13 1.17.38 1.51.25.35.6.52 1.04.52.62-.01 1.17-.41 1.63-1.2zM596.59 310.55c.49.81.73 2.02.73 3.63 0 1.62-.24 2.84-.73 3.65s-1.2 1.21-2.14 1.21c-.95 0-1.67-.41-2.16-1.22s-.73-2.02-.73-3.64c0-3.23.96-4.84 2.88-4.84.95 0 1.66.4 2.15 1.21zm-3.34.65c-.26.59-.39 1.58-.39 2.98s.13 2.39.39 2.98c.26.59.66.88 1.2.88.53 0 .93-.29 1.18-.88.26-.59.38-1.58.38-2.98s-.13-2.39-.38-2.98c-.25-.59-.65-.88-1.19-.88-.53 0-.93.29-1.19.88zM603.88 310.55c.49.81.73 2.02.73 3.63 0 1.62-.24 2.84-.73 3.65s-1.2 1.21-2.14 1.21c-.95 0-1.67-.41-2.16-1.22s-.73-2.02-.73-3.64c0-3.23.96-4.84 2.88-4.84.95 0 1.67.4 2.15 1.21zm-3.34.65c-.26.59-.39 1.58-.39 2.98s.13 2.39.39 2.98c.26.59.66.88 1.2.88.53 0 .93-.29 1.18-.88.26-.59.38-1.58.38-2.98s-.13-2.39-.38-2.98c-.25-.59-.65-.88-1.19-.88-.53 0-.93.29-1.19.88z"/></g><g><path class="st1" d="M27.88 243.16v10.13h-1.35v-8.7l-2.1 1.42-.62-.91 2.88-1.94h1.19zM35.6 244.31c.52.88.79 2.19.79 3.92 0 1.76-.26 3.07-.79 3.94-.52.87-1.3 1.31-2.32 1.31-1.03 0-1.81-.44-2.33-1.32s-.79-2.19-.79-3.94c0-3.49 1.04-5.24 3.12-5.24 1.02.01 1.79.45 2.32 1.33zm-3.61.7c-.28.64-.42 1.71-.42 3.22 0 1.51.14 2.59.42 3.22.28.64.71.95 1.29.95.58 0 1-.32 1.28-.95.28-.64.42-1.71.42-3.22 0-1.51-.14-2.59-.41-3.22s-.7-.95-1.29-.95c-.59-.01-1.02.31-1.29.95z"/></g><g><path class="st1" d="M27.99 195.89c.42.24.74.56.96.97.22.41.33.87.33 1.39 0 .62-.12 1.2-.36 1.75s-.62 1.16-1.14 1.84c-.52.68-1.33 1.63-2.42 2.88h4.15l-.17 1.12h-5.48v-1.06c1.17-1.35 2.03-2.38 2.57-3.07.54-.7.92-1.29 1.13-1.79.21-.5.32-1.03.32-1.58 0-.53-.13-.95-.4-1.24-.27-.29-.63-.44-1.08-.44-.38 0-.72.09-1 .26s-.58.44-.88.82l-.85-.65c.74-1.02 1.68-1.53 2.83-1.53.57-.03 1.07.09 1.49.33zM36.37 196.85c.52.88.79 2.19.79 3.92 0 1.76-.26 3.07-.79 3.94-.52.87-1.3 1.31-2.32 1.31-1.03 0-1.81-.44-2.33-1.32s-.79-2.19-.79-3.94c0-3.49 1.04-5.24 3.12-5.24 1.02.01 1.79.45 2.32 1.33zm-3.61.7c-.28.64-.42 1.71-.42 3.22 0 1.51.14 2.59.42 3.22.28.64.71.95 1.29.95.58 0 1-.32 1.28-.95.28-.64.42-1.71.42-3.22 0-1.51-.14-2.59-.41-3.22s-.7-.95-1.29-.95c-.58-.01-1.02.31-1.29.95z"/></g><g><path class="st1" d="M27.98 148.41c.41.23.73.54.95.92.22.39.33.82.33 1.28 0 .65-.17 1.17-.5 1.57s-.81.67-1.42.81c.67.06 1.2.3 1.6.73.4.42.61 1.01.61 1.77 0 .58-.13 1.09-.39 1.56s-.63.83-1.1 1.1c-.48.27-1.04.41-1.67.41-.59 0-1.11-.11-1.57-.34-.46-.23-.88-.57-1.26-1.04l.82-.7c.31.34.62.59.93.75.31.16.65.23 1.04.23.56 0 1-.18 1.32-.54.33-.36.49-.85.49-1.48 0-.67-.16-1.15-.49-1.45-.33-.3-.8-.45-1.42-.45h-.64l.17-1.01h.42c.5 0 .92-.16 1.25-.47.33-.31.49-.76.49-1.35 0-.5-.14-.9-.42-1.18-.28-.28-.66-.42-1.14-.42-.35 0-.68.07-.98.21-.3.14-.6.36-.9.67l-.71-.73c.79-.81 1.7-1.21 2.72-1.21.57.02 1.06.14 1.47.36zM36.52 149.39c.52.88.79 2.19.79 3.92 0 1.76-.26 3.07-.79 3.94-.52.87-1.3 1.31-2.32 1.31-1.03 0-1.81-.44-2.33-1.32s-.79-2.19-.79-3.94c0-3.49 1.04-5.24 3.12-5.24 1.02.01 1.79.45 2.32 1.33zm-3.61.7c-.28.64-.42 1.71-.42 3.22 0 1.51.14 2.59.42 3.22.28.64.71.95 1.29.95.58 0 1-.32 1.28-.95.28-.64.42-1.71.42-3.22 0-1.51-.14-2.59-.41-3.22s-.7-.95-1.29-.95c-.58-.01-1.01.31-1.29.95z"/></g><g><path class="st1" d="M30.36 107.32v1.09h-1.15v2.5h-1.3v-2.5h-3.97v-.98l2.71-6.83 1.15.44-2.47 6.28h2.59l.14-2.76h1.15v2.76h1.15zM37.02 101.93c.52.88.79 2.19.79 3.92 0 1.76-.26 3.07-.79 3.94-.52.87-1.3 1.31-2.32 1.31-1.03 0-1.81-.44-2.33-1.32s-.79-2.19-.79-3.94c0-3.49 1.04-5.24 3.12-5.24 1.02.01 1.79.45 2.32 1.33zm-3.61.7c-.28.64-.42 1.71-.42 3.22 0 1.51.14 2.59.42 3.22.28.64.71.95 1.29.95.58 0 1-.32 1.28-.95.28-.64.42-1.71.42-3.22 0-1.51-.14-2.59-.41-3.22s-.7-.95-1.29-.95c-.58-.01-1.01.31-1.29.95z"/></g><g><path class="st2" d="M52.4 163.62h7.45v133.87H52.4zM60.15 163.62h7.45v133.87h-7.45zM67.75 163.62h7.95v133.87h-7.95z"/><path class="st2" d="M75.5 163.62h7.95v133.87H75.5z"/><path class="st2" d="M83.25 163.62h7.95v133.87h-7.95zM91.35 163.62h7.45v133.87h-7.45zM98.96 163.62h7.95v133.87h-7.95z"/><path class="st2" d="M106.71 163.62h7.95v133.87h-7.95z"/><path class="st2" d="M114.46 163.62h7.95v133.87h-7.95zM122.56 156.99h7.45v140.5h-7.45zM130.16 156.99h7.95v140.5h-7.95z"/><path class="st2" d="M137.91 156.99h7.95v140.5h-7.95z"/><path class="st2" d="M145.66 156.99h7.95v140.5h-7.95zM153.76 156.99h7.45v140.5h-7.45zM161.36 156.99h7.95v140.5h-7.95z"/><path class="st2" d="M169.11 156.99h7.95v140.5h-7.95z"/><path class="st2" d="M176.87 156.99h7.95v140.5h-7.95zM184.97 156.99h7.45v140.5h-7.45zM192.72 156.99h7.45v140.5h-7.45zM200.32 156.99h7.95v140.5h-7.95z"/><path class="st2" d="M208.07 141.42h7.95V297.5h-7.95z"/><path class="st2" d="M215.82 141.42h7.95V297.5h-7.95zM223.92 141.42h7.45V297.5h-7.45zM231.52 141.42h7.95V297.5h-7.95z"/><path class="st2" d="M239.28 141.42h7.95V297.5h-7.95z"/><path class="st2" d="M247.03 141.42h7.95V297.5h-7.95zM255.13 141.42h7.45V297.5h-7.45zM262.73 141.42h7.95V297.5h-7.95z"/><path class="st2" d="M270.48 141.42h7.95V297.5h-7.95z"/><path class="st2" d="M278.23 141.42h7.95V297.5h-7.95zM286.33 139.41h7.45v158.08h-7.45zM293.93 139.41h7.95v158.08h-7.95z"/><path class="st2" d="M301.68 139.41h7.95v158.08h-7.95z"/><path class="st2" d="M309.44 139.41h7.95v158.08h-7.95zM317.54 139.41h7.45v158.08h-7.45zM325.14 139.41h7.95v158.08h-7.95z"/><path class="st2" d="M332.89 139.41h7.95v158.08h-7.95z"/><path class="st2" d="M340.64 139.41h7.95v158.08h-7.95zM348.74 139.41h7.45v158.08h-7.45zM442 132.32h7.95v165.17H442zM450.1 132.32h7.45v165.17h-7.45zM457.7 132.32h7.95v165.17h-7.95z"/><path class="st2" d="M465.46 132.32h7.95v165.17h-7.95z"/><path class="st2" d="M473.21 132.32h7.95v165.17h-7.95zM481.31 132.32h7.45v165.17h-7.45zM489.06 132.32h7.45v165.17h-7.45zM496.66 132.32h7.95v165.17h-7.95z"/><path class="st2" d="M504.41 132.32h7.95v165.17h-7.95z"/><path class="st2" d="M512.16 132.32h7.95v165.17h-7.95zM520.26 130.47h7.45v167.02h-7.45zM527.87 130.47h7.95v167.02h-7.95z"/><path class="st2" d="M535.62 130.47h7.95v167.02h-7.95z"/><path class="st2" d="M543.37 130.47h7.95v167.02h-7.95zM551.47 130.47h7.45v167.02h-7.45zM559.07 130.47h7.95v167.02h-7.95z"/><path class="st2" d="M566.82 130.47h7.95v167.02h-7.95z"/><path class="st2" d="M574.57 130.47h7.95v167.02h-7.95zM582.67 130.47h7.45v167.02h-7.45zM590.27 130.47h7.95v167.02h-7.95zM356.49 125.69h7.45v171.8h-7.45zM364.09 125.69h7.95v171.8h-7.95z"/><path class="st2" d="M371.84 125.69h7.95v171.8h-7.95z"/><path class="st2" d="M379.59 125.69h7.95v171.8h-7.95zM387.7 125.69h7.45v171.8h-7.45zM395.3 125.69h7.95v171.8h-7.95z"/><path class="st2" d="M403.05 125.69H411v171.8h-7.95z"/><path class="st2" d="M410.8 125.69h7.95v171.8h-7.95zM418.9 125.69h7.45v171.8h-7.45zM426.5 125.69h7.95v171.8h-7.95z"/><path class="st2" d="M434.25 125.69h7.95v171.8h-7.95z"/><path class="st3" d="M52.4 163.62h7.45v133.87H52.4zM60.15 163.62h7.45v133.87h-7.45zM332.89 139.41h7.95v158.08h-7.95zM379.59 125.69h7.95v171.8h-7.95zM387.7 125.69h7.45v171.8h-7.45zM153.76 156.99h7.45v140.5h-7.45zM192.72 156.99h7.45v140.5h-7.45zM247.03 141.42h7.95V297.5h-7.95zM208.07 141.42h7.95V297.5h-7.95z"/></g><g><path d="M28.35 24.55c.68.27 1.32.67 1.92 1.22l-1.23 1.42c-.47-.39-.94-.68-1.42-.85-.48-.18-.98-.27-1.53-.27-.61 0-1.1.14-1.47.41s-.56.66-.56 1.15c0 .33.07.6.22.82.15.22.41.42.79.61.38.19.94.4 1.69.63 1.29.41 2.26.91 2.92 1.51.65.6.98 1.48.98 2.63 0 .79-.2 1.48-.6 2.09-.4.61-.97 1.08-1.72 1.42s-1.63.51-2.66.51c-1 0-1.9-.16-2.69-.48a6.19 6.19 0 01-2.04-1.32l1.29-1.44c.51.43 1.03.76 1.58.98s1.15.33 1.81.33c.72 0 1.3-.17 1.75-.51.44-.34.67-.82.67-1.44 0-.38-.08-.69-.23-.94-.15-.25-.41-.47-.78-.67s-.9-.4-1.6-.62c-1.39-.43-2.4-.95-3.02-1.56-.62-.61-.93-1.41-.93-2.39 0-.72.19-1.35.57-1.9.38-.54.91-.97 1.59-1.27.68-.3 1.45-.46 2.31-.46.9-.01 1.71.12 2.39.39zM38.48 37.09c-.35.25-.75.44-1.19.57s-.88.19-1.34.19c-.99-.01-1.74-.29-2.25-.85-.51-.55-.77-1.36-.77-2.44v-5.3h-1.58v-1.75h1.58v-2.22l2.43-.29v2.51h2.34l-.25 1.75h-2.09v5.24c0 .49.09.85.26 1.06.17.22.44.32.81.32.37 0 .77-.12 1.2-.36l.85 1.57zM45.34 22.36l.93 1.06-2.64 2.38h-1.52l-2.64-2.38.93-1.06 2.47 1.67 2.47-1.67zm.47 5.02l-.42 2.36c-.3-.08-.6-.11-.89-.11-.6 0-1.06.21-1.41.64-.34.42-.61 1.07-.82 1.95v5.36h-2.43V27.51h2.11l.23 1.98c.24-.72.59-1.28 1.05-1.66.46-.39.98-.58 1.58-.58.36-.01.7.04 1 .13zM54.95 33.29h-6.31c.08.98.33 1.67.76 2.09s1 .63 1.71.63c.44 0 .86-.07 1.25-.22s.81-.37 1.25-.67l1.01 1.39c-1.11.9-2.36 1.35-3.72 1.35-1.53 0-2.71-.47-3.54-1.41-.83-.94-1.24-2.22-1.24-3.84 0-1.03.18-1.95.53-2.76.35-.82.87-1.46 1.54-1.92.67-.46 1.47-.69 2.39-.69 1.41 0 2.5.45 3.27 1.34s1.16 2.14 1.16 3.73c0 .12-.02.44-.06.98zM52.6 31.6c0-1.76-.65-2.64-1.96-2.64-.6 0-1.06.22-1.4.66s-.54 1.14-.6 2.1h3.95v-.12zM65.65 23.48v14.08H63.5l-.17-1.27c-.32.48-.72.86-1.21 1.14-.49.28-1.04.42-1.66.42-1.23 0-2.17-.48-2.83-1.43-.66-.95-.99-2.24-.99-3.88 0-1.03.16-1.94.49-2.75.33-.8.8-1.43 1.42-1.89s1.33-.68 2.14-.68c.96 0 1.81.36 2.53 1.08v-5.09l2.43.27zm-3.36 12.21c.33-.21.64-.53.93-.98v-4.6c-.29-.35-.59-.62-.88-.8-.3-.18-.64-.27-1.04-.27-.65 0-1.16.29-1.53.86-.37.58-.56 1.45-.56 2.61 0 1.24.16 2.13.49 2.67.33.54.81.81 1.44.81a2 2 0 001.15-.3zM76.03 28.03c.5.54.75 1.29.75 2.25v7.28h-2.43v-6.9c0-.6-.1-1.01-.31-1.25s-.52-.36-.92-.36c-.42 0-.79.13-1.13.39-.34.26-.66.64-.98 1.13v6.99h-2.43V27.51h2.11l.19 1.31c.82-1.06 1.84-1.6 3.06-1.6.89.01 1.59.27 2.09.81zM82.27 21.98l.99 1.9-4.29 1.71-.68-1.23 3.98-2.38zm-.22 5.53v10.05h-2.43V27.51h2.43zM98.18 23.48v14.08h-2.15l-.17-1.27c-.32.48-.72.86-1.21 1.14-.49.28-1.04.42-1.66.42-1.23 0-2.17-.48-2.83-1.43-.66-.95-.99-2.24-.99-3.88 0-1.03.16-1.94.49-2.75.33-.8.8-1.43 1.42-1.89s1.33-.68 2.14-.68c.96 0 1.81.36 2.53 1.08v-5.09l2.43.27zm-3.37 12.21c.33-.21.64-.53.93-.98v-4.6c-.29-.35-.59-.62-.88-.8-.3-.18-.64-.27-1.04-.27-.65 0-1.16.29-1.53.86-.37.58-.56 1.45-.56 2.61 0 1.24.16 2.13.49 2.67.33.54.81.81 1.44.81a2 2 0 001.15-.3zM109.29 33.29h-6.31c.08.98.33 1.67.76 2.09s1 .63 1.71.63c.44 0 .86-.07 1.25-.22s.81-.37 1.25-.67l1.01 1.39c-1.11.9-2.36 1.35-3.72 1.35-1.53 0-2.71-.47-3.54-1.41-.83-.94-1.24-2.22-1.24-3.84 0-1.03.18-1.95.53-2.76.35-.82.87-1.46 1.54-1.92.67-.46 1.47-.69 2.39-.69 1.41 0 2.5.45 3.27 1.34s1.16 2.14 1.16 3.73c0 .12-.02.44-.06.98zm-2.87-11.31l.99 1.9-4.29 1.71-.68-1.23 3.98-2.38zm.52 9.62c0-1.76-.65-2.64-1.96-2.64-.6 0-1.06.22-1.4.66s-.54 1.14-.6 2.1h3.95v-.12zM112.09 37.17c-.44-.45-.66-1.09-.66-1.91V23.48l2.43-.27v11.97c0 .47.19.7.57.7.19 0 .38-.03.57-.1l.51 1.71c-.51.23-1.04.34-1.62.34-.75.02-1.36-.21-1.8-.66zM119.57 23.22v14.35h-2.43V23.48l2.43-.26zm6.02 4.29l-3.34 4.43 3.67 5.62h-2.79l-3.46-5.49 3.36-4.56h2.56zM134.61 35.77c.12.18.31.33.58.43l-.51 1.62c-.57-.05-1.04-.19-1.4-.42-.36-.23-.64-.58-.83-1.04-.34.51-.77.88-1.28 1.13-.51.25-1.09.37-1.72.37-1 0-1.79-.29-2.38-.85-.58-.57-.87-1.32-.87-2.24 0-1.09.4-1.92 1.19-2.5.79-.58 1.92-.86 3.39-.86h1.25v-.57c0-.65-.15-1.1-.45-1.36-.3-.26-.78-.39-1.43-.39-.73 0-1.62.18-2.66.53l-.57-1.65c1.25-.48 2.47-.72 3.65-.72 2.57 0 3.86 1.15 3.86 3.46v4.22c0 .36.06.65.18.84zm-2.58-.93v-2.03h-1.01c-1.57 0-2.36.58-2.36 1.75 0 .48.12.85.36 1.12.24.27.6.4 1.06.4.84 0 1.49-.41 1.95-1.24zM148.66 27.51v1.75l-4.86 6.4h4.96l-.25 1.9H141v-1.75l4.88-6.4h-4.47v-1.9h7.25zm-1.24-5.15l.93 1.06-2.64 2.38h-1.52l-2.64-2.38.93-1.06 2.47 1.67 2.47-1.67zM152.96 22.85c.29.28.43.64.43 1.05s-.14.77-.43 1.04c-.29.28-.66.42-1.11.42-.44 0-.81-.14-1.09-.42-.28-.28-.43-.63-.43-1.04s.14-.77.43-1.05c.29-.29.65-.43 1.09-.43.46 0 .83.14 1.11.43zm.13 4.66v10.05h-2.43V27.51h2.43zM164.09 27.51l-3.27 10.05h-2.91l-3.32-10.05h2.64l2.15 8.09 2.2-8.09h2.51zM173.05 28.64c.83.94 1.24 2.24 1.24 3.89 0 1.05-.19 1.98-.57 2.78-.38.8-.92 1.43-1.63 1.87-.71.44-1.55.67-2.53.67-1.48 0-2.64-.47-3.48-1.42-.84-.94-1.25-2.25-1.25-3.9 0-1.05.19-1.98.57-2.77.38-.8.93-1.42 1.64-1.86.72-.44 1.56-.67 2.54-.67 1.48 0 2.64.47 3.47 1.41zm-5.66 3.89c0 1.19.18 2.07.54 2.63.36.56.9.85 1.62.85.72 0 1.26-.28 1.62-.85.36-.57.54-1.44.54-2.62 0-1.18-.18-2.05-.54-2.61-.36-.56-.9-.85-1.61-.85-1.44-.01-2.17 1.14-2.17 3.45zM182.33 37.09c-.35.25-.75.44-1.19.57s-.88.19-1.34.19c-.99-.01-1.74-.29-2.25-.85-.51-.55-.77-1.36-.77-2.44v-5.3h-1.58v-1.75h1.58v-2.22l2.43-.29v2.51h2.34l-.25 1.75h-2.09v5.24c0 .49.09.85.26 1.06.17.22.44.32.81.32.37 0 .77-.12 1.2-.36l.85 1.57zM191.11 35.77c.12.18.31.33.58.43l-.51 1.62c-.57-.05-1.04-.19-1.4-.42-.36-.23-.64-.58-.83-1.04-.34.51-.77.88-1.28 1.13-.51.25-1.09.37-1.72.37-1 0-1.79-.29-2.38-.85-.58-.57-.87-1.32-.87-2.24 0-1.09.4-1.92 1.19-2.5.79-.58 1.92-.86 3.39-.86h1.25v-.57c0-.65-.15-1.1-.45-1.36-.3-.26-.78-.39-1.43-.39-.73 0-1.62.18-2.66.53l-.57-1.65c1.25-.48 2.47-.72 3.65-.72 2.57 0 3.86 1.15 3.86 3.46v4.22c0 .36.06.65.18.84zm-2.57-.93v-2.03h-1.01c-1.57 0-2.36.58-2.36 1.75 0 .48.12.85.36 1.12.24.27.6.4 1.06.4.84 0 1.48-.41 1.95-1.24zM206.7 27.51l-3.27 10.05h-2.91l-3.32-10.05h2.64l2.15 8.09 2.2-8.09h2.51zM218.24 24.77v12.79h-2.39V27.23L213 28.96l-1.06-1.63 4.16-2.55h2.14zM228.48 25.89c.77.89 1.16 2.1 1.16 3.62 0 1.74-.26 3.16-.78 4.27s-1.32 1.99-2.39 2.65c-1.08.66-2.5 1.2-4.27 1.62l-.51-1.73c1.67-.44 2.94-1.02 3.81-1.72.87-.7 1.38-1.66 1.55-2.88-.7.89-1.61 1.33-2.74 1.33-.66 0-1.26-.17-1.81-.5-.55-.34-.98-.82-1.3-1.45-.32-.63-.48-1.37-.48-2.2 0-.87.2-1.64.59-2.29.39-.65.93-1.16 1.61-1.51s1.43-.53 2.25-.53c1.43-.02 2.54.42 3.31 1.32zm-1.33 4.07c.01-1.3-.14-2.23-.45-2.78-.31-.55-.83-.83-1.55-.83-.63 0-1.13.22-1.48.65s-.53 1.04-.53 1.84c0 .84.17 1.45.5 1.84.34.39.78.59 1.32.59.86 0 1.59-.43 2.19-1.31zM233.74 35.22c.3.3.46.66.46 1.09 0 .42-.15.78-.46 1.08-.3.3-.67.46-1.1.46-.42 0-.78-.15-1.07-.46-.3-.3-.45-.67-.45-1.08 0-.43.15-.79.44-1.09.29-.3.65-.45 1.08-.45.43 0 .8.15 1.1.45zM247.9 28.42l-.95 1.43c-.86-.54-1.7-.82-2.53-.82-.48 0-.85.09-1.12.28a.84.84 0 00-.4.73c0 .23.06.42.17.57.11.15.32.29.62.43.3.13.74.28 1.32.45 1.09.29 1.9.68 2.42 1.16.53.48.79 1.15.79 2.01 0 1-.41 1.78-1.22 2.35s-1.82.85-3.02.85c-.82 0-1.57-.13-2.25-.38-.68-.25-1.26-.6-1.76-1.04l1.22-1.37c.87.66 1.79.99 2.74.99.54 0 .98-.11 1.3-.32.32-.22.48-.51.48-.89 0-.29-.06-.52-.18-.69-.12-.17-.34-.32-.65-.46-.31-.13-.79-.29-1.45-.48-1.03-.28-1.78-.67-2.26-1.17-.48-.5-.72-1.12-.72-1.87 0-.56.16-1.06.48-1.5.32-.44.78-.79 1.37-1.04.59-.25 1.26-.38 2.02-.38 1.36-.03 2.55.36 3.58 1.16zM255.95 37.09c-.35.25-.75.44-1.19.57s-.88.19-1.34.19c-.99-.01-1.74-.29-2.25-.85-.51-.55-.77-1.36-.77-2.44v-5.3h-1.58v-1.75h1.58v-2.22l2.43-.29v2.51h2.34l-.25 1.75h-2.09v5.24c0 .49.09.85.26 1.06.17.22.44.32.81.32.37 0 .77-.12 1.2-.36l.85 1.57zM264.57 28.64c.83.94 1.24 2.24 1.24 3.89 0 1.05-.19 1.98-.57 2.78-.38.8-.92 1.43-1.63 1.87-.71.44-1.55.67-2.53.67-1.48 0-2.64-.47-3.48-1.42-.84-.94-1.25-2.25-1.25-3.9 0-1.05.19-1.98.57-2.77.38-.8.93-1.42 1.64-1.86.72-.44 1.56-.67 2.54-.67 1.48 0 2.64.47 3.47 1.41zm-5.65 3.89c0 1.19.18 2.07.54 2.63.36.56.9.85 1.62.85.72 0 1.26-.28 1.62-.85.36-.57.54-1.44.54-2.62 0-1.18-.18-2.05-.54-2.61-.36-.56-.9-.85-1.61-.85-1.45-.01-2.17 1.14-2.17 3.45zM268.65 37.17c-.44-.45-.66-1.09-.66-1.91V23.48l2.43-.27v11.97c0 .47.19.7.57.7.19 0 .38-.03.57-.1l.51 1.71c-.51.23-1.04.34-1.62.34-.75.02-1.36-.21-1.8-.66zM281.79 33.29h-6.31c.08.98.33 1.67.76 2.09s1 .63 1.71.63c.44 0 .86-.07 1.25-.22s.81-.37 1.25-.67l1.01 1.39c-1.11.9-2.36 1.35-3.72 1.35-1.53 0-2.71-.47-3.54-1.41-.83-.94-1.24-2.22-1.24-3.84 0-1.03.18-1.95.53-2.76.35-.82.87-1.46 1.54-1.92.67-.46 1.47-.69 2.39-.69 1.41 0 2.5.45 3.27 1.34s1.16 2.14 1.16 3.73c0 .12-.02.44-.06.98zm-2.35-1.69c0-1.76-.65-2.64-1.96-2.64-.6 0-1.06.22-1.4.66s-.54 1.14-.6 2.1h3.95v-.12zM289.79 37.09c-.35.25-.75.44-1.19.57s-.88.19-1.34.19c-.99-.01-1.74-.29-2.25-.85-.51-.55-.77-1.36-.77-2.44v-5.3h-1.58v-1.75h1.58v-2.22l2.43-.29v2.51h2.34l-.25 1.75h-2.09v5.24c0 .49.09.85.26 1.06.17.22.44.32.81.32.37 0 .77-.12 1.2-.36l.85 1.57zM293.82 21.98l.99 1.9-4.29 1.71-.68-1.23 3.98-2.38zm-.23 5.53v10.05h-2.43V27.51h2.43z"/></g><g><path class="st4" d="M317.61 114.91s18.16.04 20.69 19.78M335.4 132.71l2.93 2.32 2.28-2.87"/></g><g><path class="st5" d="M52.36 107.66h545.9M52.36 155.14h545.9M52.36 202.63h545.9M52.36 249.97h545.9"/></g><g><path class="st4" d="M69.31 124.97s-10.01 8.13-8.05 27.94M63.64 150.34l-2.33 2.91-2.87-2.29"/></g><g><path class="st4" d="M398.8 92.51s-10.01 8.13-8.05 27.94M393.13 117.87l-2.33 2.92-2.86-2.29"/></g><g><path d="M59.06 96.45v6.69h-.89v-5.75l-1.39.94-.41-.6 1.9-1.28h.79zM64.31 100.31c.21.29.32.64.32 1.06 0 .37-.09.7-.26.99-.17.29-.42.51-.75.67-.32.16-.7.24-1.12.24-.42 0-.79-.08-1.11-.24-.32-.16-.56-.38-.73-.66-.17-.29-.25-.61-.25-.98 0-.83.42-1.42 1.27-1.78-.36-.19-.62-.41-.78-.66a1.6 1.6 0 01-.24-.89c0-.36.08-.67.25-.93.17-.26.39-.46.67-.59s.59-.2.93-.2c.53 0 .98.15 1.33.44s.54.71.54 1.24c0 .34-.09.63-.26.88s-.45.47-.83.67c.47.2.81.45 1.02.74zm-.89 1.95c.21-.2.32-.5.32-.89 0-.35-.09-.63-.26-.83-.18-.2-.49-.39-.95-.58l-.28-.11c-.32.17-.56.37-.71.61-.15.24-.23.54-.23.9 0 .4.11.7.32.9.21.2.51.3.89.3s.68-.1.9-.3zm-1.62-5c-.18.18-.27.44-.27.81 0 .3.08.53.23.7.15.17.41.33.76.48l.23.1c.28-.19.48-.38.59-.58.12-.2.17-.43.17-.71 0-.35-.09-.62-.26-.79-.16-.19-.4-.27-.72-.27-.3 0-.55.08-.73.26zM68.03 96.56c.27.15.48.35.63.61.15.26.22.54.22.84 0 .43-.11.77-.33 1.04s-.53.44-.94.54c.44.04.79.2 1.06.48.27.28.4.67.4 1.17 0 .38-.08.72-.25 1.03s-.41.55-.73.73c-.32.18-.69.27-1.11.27-.39 0-.73-.08-1.04-.22-.3-.15-.58-.38-.83-.69l.54-.46c.21.23.41.39.62.5s.43.16.69.16c.37 0 .66-.12.88-.36.22-.24.32-.56.32-.97 0-.44-.11-.76-.32-.96-.22-.2-.53-.29-.94-.29h-.42l.11-.67h.28c.33 0 .61-.1.83-.31.22-.21.33-.5.33-.89 0-.33-.09-.59-.28-.78-.18-.19-.43-.28-.75-.28-.23 0-.45.05-.64.14-.2.09-.4.24-.59.44l-.47-.48c.52-.53 1.12-.8 1.8-.8.34-.01.66.06.93.21zM73.67 97.21c.35.58.52 1.44.52 2.59 0 1.16-.17 2.03-.52 2.6-.35.58-.86.87-1.53.87-.68 0-1.19-.29-1.54-.87s-.52-1.45-.52-2.6c0-2.31.69-3.46 2.06-3.46.68 0 1.19.29 1.53.87zm-2.38.46c-.18.42-.27 1.13-.27 2.12 0 1 .09 1.71.27 2.13.18.42.47.63.86.63.38 0 .66-.21.84-.63s.28-1.13.28-2.13-.09-1.71-.27-2.13c-.18-.42-.46-.63-.85-.63s-.68.22-.86.64zM75.29 100.38v-.74h2.59v.74h-2.59zM80.84 96.56c.27.15.48.35.63.61.15.26.22.54.22.84 0 .43-.11.77-.33 1.04-.22.26-.53.44-.94.54.44.04.79.2 1.06.48.27.28.4.67.4 1.17 0 .38-.08.72-.25 1.03s-.41.55-.73.73c-.32.18-.68.27-1.1.27-.39 0-.73-.08-1.04-.22-.3-.15-.58-.38-.83-.69l.54-.46c.21.23.41.39.62.5.2.1.43.16.68.16.37 0 .66-.12.88-.36.22-.24.33-.56.33-.97 0-.44-.11-.76-.33-.96s-.53-.29-.93-.29h-.42l.11-.67h.28c.33 0 .61-.1.83-.31.22-.21.33-.5.33-.89 0-.33-.09-.59-.28-.78-.18-.19-.44-.28-.75-.28-.23 0-.45.05-.65.14-.2.09-.39.24-.59.44l-.47-.48c.52-.53 1.12-.8 1.8-.8.34-.01.66.06.93.21zM85.04 96.45v6.69h-.89v-5.75l-1.39.94-.41-.6 1.9-1.28h.79zM60.9 109.79c.33.13.64.33.94.6l-.56.76c-.22-.18-.45-.31-.67-.4-.22-.09-.47-.13-.73-.13-.55 0-.98.23-1.28.7s-.46 1.2-.46 2.18c0 1.85.58 2.77 1.74 2.77.26 0 .5-.04.71-.13s.44-.22.69-.4l.59.77c-.6.54-1.27.81-2.03.81-.94 0-1.68-.33-2.22-.98-.54-.65-.81-1.6-.81-2.83 0-.8.12-1.5.37-2.09s.6-1.04 1.05-1.36c.45-.32.98-.48 1.59-.48.39.01.75.07 1.08.21zM67.92 110.18c.33.39.5.92.5 1.6v5.36h-1.26v-5.21c0-.48-.08-.82-.25-1.03s-.4-.31-.72-.31c-.62 0-1.18.44-1.68 1.32v5.24h-1.26V106.8l1.26-.14v4.16c.27-.4.57-.71.9-.92.33-.21.71-.31 1.13-.31.59 0 1.05.2 1.38.59zM75.39 110.58c.52.66.78 1.61.78 2.86 0 1.2-.27 2.14-.8 2.83-.53.7-1.26 1.04-2.2 1.04-.94 0-1.68-.34-2.21-1.02s-.79-1.63-.79-2.84c0-1.22.27-2.17.8-2.85s1.27-1.01 2.21-1.01 1.69.33 2.21.99zm-3.46.71c-.29.46-.43 1.18-.43 2.16 0 1.91.56 2.87 1.68 2.87 1.12 0 1.68-.96 1.68-2.88 0-.98-.14-1.7-.42-2.16-.28-.46-.7-.69-1.25-.69s-.97.24-1.26.7zM78.31 116.91c-.26-.27-.39-.65-.39-1.13v-8.99l1.26-.14v9.09c0 .36.15.55.45.55.12 0 .26-.03.41-.08l.28.88c-.3.16-.61.24-.94.24-.45-.01-.8-.15-1.07-.42zM86.76 113.89h-4.28c.04.86.21 1.48.52 1.86.31.38.73.57 1.26.57.34 0 .64-.05.9-.15.27-.1.54-.27.83-.5l.56.74c-.69.62-1.47.92-2.35.92-.96 0-1.71-.33-2.23-1-.53-.67-.79-1.6-.79-2.81s.25-2.16.76-2.86c.5-.7 1.2-1.06 2.1-1.06.89 0 1.57.31 2.04.95.48.63.71 1.53.71 2.69-.01.19-.01.41-.03.65zm-1.19-1.04c0-1.54-.51-2.31-1.53-2.31-.47 0-.84.19-1.11.58-.27.39-.42 1.01-.46 1.88h3.09v-.15zM92.19 109.69l-.21 1.22c-.18-.06-.37-.08-.57-.08-.41 0-.74.16-1 .49-.26.33-.46.83-.61 1.5v4.33h-1.26v-7.36h1.09l.1 1.46c.36-1.08.97-1.62 1.83-1.62.24-.03.45 0 .63.06zM97.7 116.12c.08.14.21.25.39.33l-.27.85c-.36-.06-.65-.17-.85-.34-.21-.17-.35-.42-.43-.77-.48.75-1.14 1.12-2 1.12-.65 0-1.17-.2-1.55-.61-.38-.41-.57-.95-.57-1.63 0-.78.26-1.38.77-1.79.51-.41 1.25-.62 2.2-.62h.95v-.63c0-.51-.1-.88-.31-1.11s-.55-.34-1.03-.34c-.51 0-1.11.13-1.79.39l-.31-.88c.82-.34 1.59-.5 2.3-.5 1.6 0 2.39.8 2.39 2.39v3.47c-.01.3.03.53.11.67zm-1.37-.9v-1.74h-.81c-1.21 0-1.82.51-1.82 1.53 0 .44.1.77.29 1.01s.48.35.84.35c.66 0 1.16-.39 1.5-1.15z"/></g><g class="st7"><path d="M148.8 126.9v6.69h-.89v-5.75l-1.39.94-.41-.6 1.9-1.28h.79zM154.05 130.76c.21.29.32.64.32 1.06 0 .37-.09.7-.26.99-.17.29-.42.51-.75.67-.32.16-.7.24-1.12.24-.42 0-.79-.08-1.1-.24-.32-.16-.56-.38-.73-.66-.17-.29-.25-.61-.25-.98 0-.83.42-1.42 1.27-1.78-.36-.19-.62-.41-.78-.66a1.6 1.6 0 01-.24-.89c0-.36.08-.67.25-.93.17-.26.39-.46.67-.59s.6-.2.94-.2c.53 0 .98.15 1.33.44s.54.71.54 1.24c0 .34-.09.63-.26.88s-.45.47-.83.67c.45.21.79.46 1 .74zm-.9 1.96c.21-.2.32-.5.32-.89 0-.35-.09-.63-.27-.83-.18-.2-.49-.39-.94-.58l-.28-.11c-.32.17-.56.37-.71.61s-.23.54-.23.9c0 .4.11.7.32.9s.51.3.89.3.69-.1.9-.3zm-1.61-5c-.18.18-.27.44-.27.81 0 .3.08.53.23.7s.41.33.77.48l.23.1c.28-.19.48-.38.6-.58.12-.2.17-.43.17-.71 0-.35-.09-.62-.26-.79-.17-.18-.42-.27-.73-.27-.32-.01-.56.08-.74.26zM159.34 131.22v.72h-.76v1.65h-.86v-1.65h-2.62v-.65l1.79-4.51.76.29-1.63 4.15h1.71l.09-1.82h.76v1.82h.76zM162.47 127.02c.27.15.48.35.63.61.15.26.22.54.22.84 0 .43-.11.77-.33 1.04-.22.26-.53.44-.94.54.44.04.79.2 1.06.48.27.28.4.67.4 1.17 0 .38-.08.72-.25 1.03s-.41.55-.73.73c-.32.18-.69.27-1.1.27-.39 0-.73-.08-1.04-.22-.3-.15-.58-.38-.83-.69l.54-.46c.21.23.41.39.62.5.2.1.43.16.69.16.37 0 .66-.12.88-.36.22-.24.32-.56.32-.97 0-.44-.11-.76-.32-.96-.22-.2-.53-.29-.94-.29h-.42l.11-.67h.28c.33 0 .61-.1.83-.31.22-.21.33-.5.33-.89 0-.33-.09-.59-.28-.78-.18-.19-.44-.28-.75-.28-.23 0-.45.05-.65.14s-.4.24-.59.44l-.47-.48c.52-.53 1.12-.8 1.8-.8.34-.01.66.06.93.21zM150.24 138.08c.37.2.65.46.83.79.19.33.28.68.28 1.06 0 .35-.05.64-.16.89s-.24.45-.41.61c-.16.16-.38.34-.64.55-.36.29-.63.56-.81.8-.18.24-.27.57-.27.97v.63h-1.19v-.7c0-.39.06-.73.17-1s.26-.5.42-.67c.16-.17.38-.36.65-.57.32-.24.55-.46.71-.67.15-.2.23-.46.23-.79 0-.36-.11-.65-.34-.85-.22-.21-.53-.31-.91-.31-.33 0-.63.08-.91.23-.28.15-.56.39-.84.72l-.78-.62c.35-.46.75-.8 1.18-1.03.43-.23.91-.34 1.46-.34.52 0 .96.1 1.33.3zm-1.11 8.18c.16.17.25.38.25.62s-.08.45-.25.63c-.16.18-.38.27-.64.27-.25 0-.46-.09-.62-.27-.16-.18-.24-.39-.24-.63s.08-.45.24-.62c.16-.17.37-.26.62-.26.26 0 .48.09.64.26z"/></g><g class="st7"><path d="M250.59 114.1v6.69h-.89v-5.75l-1.39.94-.41-.6 1.9-1.28h.79zM255.84 117.96c.21.29.32.64.32 1.06 0 .37-.09.7-.26.99-.17.29-.42.51-.75.67-.32.16-.7.24-1.12.24-.42 0-.79-.08-1.1-.24-.32-.16-.56-.38-.73-.66-.17-.29-.25-.61-.25-.98 0-.83.42-1.42 1.27-1.78-.36-.19-.62-.41-.78-.66a1.6 1.6 0 01-.24-.89c0-.36.08-.67.25-.93.17-.26.39-.46.67-.59s.6-.2.94-.2c.53 0 .98.15 1.33.44s.54.71.54 1.24c0 .34-.09.63-.26.88s-.45.47-.83.67c.45.21.78.45 1 .74zm-.9 1.96c.21-.2.32-.5.32-.89 0-.35-.09-.63-.27-.83-.18-.2-.49-.39-.94-.58l-.28-.11c-.32.17-.56.37-.71.61s-.23.54-.23.9c0 .4.11.7.32.9s.51.3.89.3.68-.1.9-.3zm-1.61-5c-.18.18-.27.44-.27.81 0 .3.08.53.23.7s.41.33.77.48l.23.1c.28-.19.48-.38.6-.58.12-.2.17-.43.17-.71 0-.35-.09-.62-.26-.79-.17-.18-.42-.27-.73-.27-.32-.01-.56.08-.74.26zM260.39 114.8h-2.34v2c.31-.19.64-.28.98-.28.51 0 .93.19 1.24.56.31.37.47.89.47 1.55 0 .45-.09.84-.27 1.19s-.42.62-.74.81c-.32.19-.69.29-1.12.29-.38 0-.71-.07-1-.22s-.56-.36-.83-.65l.53-.48c.19.21.39.36.59.46.2.1.43.16.69.16.39 0 .69-.14.9-.41.21-.27.32-.66.32-1.17 0-.95-.36-1.43-1.08-1.43-.16 0-.31.02-.44.06-.13.04-.28.11-.45.21h-.65v-3.36h3.32l-.12.71zM264.93 114.8h-2.34v2c.31-.19.64-.28.98-.28.51 0 .93.19 1.24.56.31.37.47.89.47 1.55 0 .45-.09.84-.27 1.19s-.42.62-.74.81c-.32.19-.69.29-1.12.29-.38 0-.71-.07-1-.22s-.56-.36-.83-.65l.53-.48c.19.21.39.36.59.46.2.1.43.16.69.16.39 0 .69-.14.9-.41.21-.27.32-.66.32-1.17 0-.95-.36-1.43-1.08-1.43-.16 0-.31.02-.44.06-.13.04-.28.11-.45.21h-.65v-3.36h3.32l-.12.71zM252.02 125.28c.37.2.65.46.83.79.19.33.28.68.28 1.06 0 .35-.05.64-.16.89s-.24.45-.41.61c-.16.16-.38.34-.64.55-.36.29-.63.56-.81.8-.18.24-.27.57-.27.97v.63h-1.19v-.7c0-.39.06-.73.17-1s.26-.5.42-.67c.16-.17.38-.36.65-.57.32-.24.55-.46.71-.67.15-.2.23-.46.23-.79 0-.36-.11-.65-.34-.85-.22-.21-.53-.31-.91-.31-.33 0-.63.08-.91.23-.28.15-.56.39-.84.72l-.78-.62c.35-.46.75-.8 1.18-1.03.43-.23.91-.34 1.46-.34.52 0 .96.1 1.33.3zm-1.1 8.17c.16.17.25.38.25.62s-.08.45-.25.63c-.16.18-.38.27-.64.27-.25 0-.46-.09-.62-.27-.16-.18-.24-.39-.24-.63s.08-.45.24-.62c.16-.17.37-.26.62-.26.26 0 .47.09.64.26z"/></g><g class="st7"><path d="M211.01 114.1v6.69h-.89v-5.75l-1.39.94-.41-.6 1.9-1.28h.79zM216.26 117.96c.21.29.32.64.32 1.06 0 .37-.09.7-.26.99-.17.29-.42.51-.75.67-.32.16-.7.24-1.12.24-.42 0-.79-.08-1.1-.24-.32-.16-.56-.38-.73-.66-.17-.29-.25-.61-.25-.98 0-.83.42-1.42 1.27-1.78-.36-.19-.62-.41-.78-.66a1.6 1.6 0 01-.24-.89c0-.36.08-.67.25-.93.17-.26.39-.46.67-.59s.6-.2.94-.2c.53 0 .98.15 1.33.44s.54.71.54 1.24c0 .34-.09.63-.26.88s-.45.47-.83.67c.45.21.79.45 1 .74zm-.9 1.96c.21-.2.32-.5.32-.89 0-.35-.09-.63-.27-.83-.18-.2-.49-.39-.94-.58l-.28-.11c-.32.17-.56.37-.71.61s-.23.54-.23.9c0 .4.11.7.32.9s.51.3.89.3.69-.1.9-.3zm-1.61-5c-.18.18-.27.44-.27.81 0 .3.08.53.23.7s.41.33.77.48l.23.1c.28-.19.48-.38.6-.58.12-.2.17-.43.17-.71 0-.35-.09-.62-.26-.79-.17-.18-.42-.27-.73-.27-.32-.01-.56.08-.74.26zM220.81 114.8h-2.34v2c.31-.19.64-.28.98-.28.51 0 .93.19 1.24.56.31.37.47.89.47 1.55 0 .45-.09.84-.27 1.19s-.42.62-.74.81c-.32.19-.69.29-1.12.29-.38 0-.71-.07-1-.22s-.56-.36-.83-.65l.53-.48c.19.21.39.36.59.46.2.1.43.16.69.16.39 0 .69-.14.9-.41.21-.27.32-.66.32-1.17 0-.95-.36-1.43-1.08-1.43-.16 0-.31.02-.44.06-.13.04-.28.11-.45.21h-.65v-3.36h3.32l-.12.71zM225.7 114.86c.35.58.52 1.44.52 2.59 0 1.16-.17 2.03-.52 2.6-.35.58-.86.87-1.53.87-.68 0-1.19-.29-1.54-.87s-.52-1.45-.52-2.6c0-2.31.69-3.46 2.06-3.46.68 0 1.19.29 1.53.87zm-2.38.47c-.18.42-.27 1.13-.27 2.12 0 1 .09 1.71.27 2.13.18.42.47.63.85.63s.66-.21.85-.63c.18-.42.27-1.13.27-2.13s-.09-1.71-.27-2.13c-.18-.42-.46-.63-.85-.63s-.67.21-.85.64zM212.45 125.28c.37.2.65.46.83.79.19.33.28.68.28 1.06 0 .35-.05.64-.16.89s-.24.45-.41.61c-.16.16-.38.34-.64.55-.36.29-.63.56-.81.8-.18.24-.27.57-.27.97v.63h-1.19v-.7c0-.39.06-.73.17-1s.26-.5.42-.67c.16-.17.38-.36.65-.57.32-.24.55-.46.71-.67.15-.2.23-.46.23-.79 0-.36-.11-.65-.34-.85-.22-.21-.53-.31-.91-.31-.33 0-.63.08-.91.23-.28.15-.56.39-.84.72l-.78-.62c.35-.46.75-.8 1.18-1.03.43-.23.91-.34 1.46-.34.52 0 .96.1 1.33.3zm-1.11 8.17c.16.17.25.38.25.62s-.08.45-.25.63c-.16.18-.38.27-.64.27-.25 0-.46-.09-.62-.27-.16-.18-.24-.39-.24-.63s.08-.45.24-.62c.16-.17.37-.26.62-.26.26 0 .48.09.64.26z"/></g><g><path d="M190.88 78.56v6.69h-.89V79.5l-1.39.94-.41-.6 1.9-1.28h.79zM196.13 82.42c.21.29.32.64.32 1.06 0 .37-.09.7-.26.99-.17.29-.42.51-.75.67-.32.16-.7.24-1.12.24-.42 0-.79-.08-1.1-.24-.32-.16-.56-.38-.73-.66-.17-.29-.25-.61-.25-.98 0-.83.42-1.42 1.27-1.78-.36-.19-.62-.41-.78-.66a1.6 1.6 0 01-.24-.89c0-.36.08-.67.25-.93.17-.26.39-.46.67-.59s.6-.2.94-.2c.53 0 .98.15 1.33.44s.54.71.54 1.24c0 .34-.09.63-.26.88s-.45.47-.83.67c.45.21.79.45 1 .74zm-.9 1.96c.21-.2.32-.5.32-.89 0-.35-.09-.63-.27-.83-.18-.2-.49-.39-.94-.58l-.28-.11c-.32.17-.56.37-.71.61s-.23.54-.23.9c0 .4.11.7.32.9s.51.3.89.3.69-.1.9-.3zm-1.61-5c-.18.18-.27.44-.27.81 0 .3.08.53.23.7s.41.33.77.48l.23.1c.28-.19.48-.38.6-.58.12-.2.17-.43.17-.71 0-.35-.09-.62-.26-.79-.17-.18-.42-.27-.73-.27-.32-.01-.56.08-.74.26zM201.42 82.88v.72h-.76v1.65h-.86V83.6h-2.62v-.65l1.79-4.51.76.29-1.63 4.15h1.71l.09-1.82h.76v1.82h.76zM205.97 82.42c.21.29.32.64.32 1.06 0 .37-.09.7-.26.99-.17.29-.42.51-.75.67-.32.16-.7.24-1.12.24-.42 0-.79-.08-1.1-.24-.32-.16-.56-.38-.73-.66-.17-.29-.25-.61-.25-.98 0-.83.42-1.42 1.27-1.78-.36-.19-.62-.41-.78-.66a1.6 1.6 0 01-.24-.89c0-.36.08-.67.25-.93.17-.26.39-.46.67-.59s.6-.2.94-.2c.53 0 .98.15 1.33.44s.54.71.54 1.24c0 .34-.09.63-.26.88s-.45.47-.83.67c.45.21.79.45 1 .74zm-.9 1.96c.21-.2.32-.5.32-.89 0-.35-.09-.63-.27-.83-.18-.2-.49-.39-.94-.58l-.28-.11c-.32.17-.56.37-.71.61s-.23.54-.23.9c0 .4.11.7.32.9s.51.3.89.3.69-.1.9-.3zm-1.61-5c-.18.18-.27.44-.27.81 0 .3.08.53.23.7s.41.33.77.48l.23.1c.28-.19.48-.38.6-.58.12-.2.17-.43.17-.71 0-.35-.09-.62-.26-.79-.17-.18-.42-.27-.73-.27-.32-.01-.56.08-.74.26zM192.73 91.8l-.21 1.22c-.18-.06-.37-.08-.57-.08-.41 0-.74.16-1 .49-.26.33-.46.83-.61 1.5v4.33h-1.26V91.9h1.09l.1 1.46c.36-1.08.98-1.62 1.83-1.62.24-.02.45.01.63.06zM198.71 96h-4.28c.04.86.21 1.48.52 1.86.31.38.73.57 1.26.57.34 0 .64-.05.9-.15.27-.1.54-.27.83-.5l.56.74c-.69.62-1.47.92-2.35.92-.96 0-1.71-.33-2.23-1-.53-.67-.79-1.6-.79-2.81s.25-2.16.76-2.86c.5-.7 1.2-1.06 2.1-1.06.89 0 1.57.31 2.04.95.48.63.71 1.53.71 2.69-.01.19-.02.41-.03.65zm-1.19-1.03c0-1.54-.51-2.31-1.53-2.31-.47 0-.84.19-1.11.58-.27.39-.42 1.01-.46 1.88h3.09v-.15zM205.4 91.89l-2.2 7.36h-1.51l-2.27-7.36h1.32l1.71 6.3 1.69-6.3h1.26zM211.36 92.7c.52.66.78 1.61.78 2.86 0 1.2-.27 2.14-.8 2.83-.53.7-1.26 1.04-2.2 1.04-.94 0-1.68-.34-2.21-1.02s-.79-1.63-.79-2.84c0-1.22.27-2.17.8-2.85.53-.68 1.27-1.01 2.21-1.01.96-.01 1.69.33 2.21.99zm-3.46.71c-.29.46-.43 1.18-.43 2.16 0 1.91.56 2.87 1.68 2.87 1.12 0 1.68-.96 1.68-2.88 0-.98-.14-1.7-.42-2.16-.28-.46-.7-.69-1.25-.69s-.97.23-1.26.7zM214.29 99.03c-.26-.27-.39-.65-.39-1.13v-9l1.26-.14v9.09c0 .36.15.55.45.55.12 0 .26-.03.41-.08l.28.88c-.3.16-.61.24-.94.24-.46-.01-.81-.14-1.07-.41zM222.71 99.25h-1.09l-.07-1.11c-.51.86-1.2 1.29-2.06 1.29-.59 0-1.05-.19-1.39-.57s-.5-.9-.5-1.55v-5.42h1.26v5.31c0 .43.08.74.25.94.16.2.41.3.73.3.63 0 1.16-.41 1.61-1.23v-5.32h1.26v7.36zM228.62 91.9c.33.13.64.33.94.6l-.56.76c-.22-.18-.45-.31-.67-.4s-.47-.13-.73-.13c-.55 0-.98.23-1.28.7-.3.47-.46 1.2-.46 2.18 0 1.85.58 2.77 1.74 2.77.26 0 .5-.04.71-.13s.44-.22.69-.4l.59.77c-.6.54-1.27.81-2.03.81-.94 0-1.68-.33-2.22-.98-.54-.65-.81-1.6-.81-2.83 0-.8.12-1.5.37-2.09.25-.59.6-1.04 1.05-1.36.45-.32.98-.48 1.59-.48.4.01.76.08 1.08.21zM235.85 96h-4.28c.04.86.21 1.48.52 1.86.31.38.73.57 1.26.57.34 0 .64-.05.9-.15.27-.1.54-.27.83-.5l.56.74c-.69.62-1.47.92-2.35.92-.96 0-1.71-.33-2.23-1-.53-.67-.79-1.6-.79-2.81s.25-2.16.76-2.86c.5-.7 1.2-1.06 2.1-1.06.89 0 1.57.31 2.04.95.48.63.71 1.53.71 2.69-.01.19-.01.41-.03.65zm-1.19-1.03c0-1.54-.51-2.31-1.53-2.31-.47 0-.84.19-1.11.58-.27.39-.42 1.01-.46 1.88h3.09v-.15z"/></g><g><path d="M407.22 69.21v6.69h-.89v-5.75l-1.39.94-.41-.6 1.9-1.28h.79zM412.47 73.07c.21.29.32.64.32 1.06 0 .37-.09.7-.26.99-.17.29-.42.51-.75.67-.32.16-.7.24-1.12.24-.42 0-.79-.08-1.1-.24-.32-.16-.56-.38-.73-.66-.17-.29-.25-.61-.25-.98 0-.83.42-1.42 1.27-1.78-.36-.19-.62-.41-.78-.66a1.6 1.6 0 01-.24-.89c0-.36.08-.67.25-.93.17-.26.39-.46.67-.59s.6-.2.94-.2c.53 0 .98.15 1.33.44s.54.71.54 1.24c0 .34-.09.63-.26.88s-.45.47-.83.67c.45.2.78.45 1 .74zm-.9 1.95c.21-.2.32-.5.32-.89 0-.35-.09-.63-.27-.83-.18-.2-.49-.39-.94-.58l-.28-.11c-.32.17-.56.37-.71.61s-.23.54-.23.9c0 .4.11.7.32.9s.51.3.89.3.68-.09.9-.3zm-1.61-5c-.18.18-.27.44-.27.81 0 .3.08.53.23.7s.41.33.77.48l.23.1c.28-.19.48-.38.6-.58.12-.2.17-.43.17-.71 0-.35-.09-.62-.26-.79-.17-.18-.42-.27-.73-.27-.32 0-.56.09-.74.26zM416.84 69.21v.66L414.55 76l-.81-.26 2.2-5.81h-2.68v-.72h3.58zM420 69.33c.28.16.49.37.63.64.15.27.22.57.22.92 0 .41-.08.79-.24 1.15-.16.36-.41.77-.75 1.22-.35.45-.88 1.08-1.6 1.9H421l-.11.74h-3.62v-.7c.77-.89 1.34-1.57 1.69-2.03.36-.46.6-.85.75-1.18s.21-.68.21-1.04c0-.35-.09-.63-.27-.82a.942.942 0 00-.71-.29c-.25 0-.47.06-.66.17s-.38.29-.58.54l-.56-.43c.49-.67 1.11-1.01 1.87-1.01.39-.01.71.07.99.22zM421.95 73.14v-.74h2.59v.74h-2.59zM428.28 69.21v.66L425.99 76l-.81-.26 2.2-5.81h-2.68v-.72h3.58zM431.48 69.32c.27.15.48.35.63.61.15.26.22.54.22.84 0 .43-.11.77-.33 1.04-.22.26-.53.44-.94.54.44.04.79.2 1.06.48.27.28.4.67.4 1.17 0 .38-.08.72-.25 1.03s-.41.55-.73.73c-.32.18-.69.27-1.1.27-.39 0-.73-.08-1.04-.22-.3-.15-.58-.38-.83-.69l.54-.46c.21.23.41.39.62.5.2.1.43.16.69.16.37 0 .66-.12.88-.36.22-.24.32-.56.32-.97 0-.44-.11-.76-.32-.96-.22-.2-.53-.29-.94-.29h-.42l.11-.67h.28c.33 0 .61-.1.83-.31.22-.21.33-.5.33-.89 0-.33-.09-.59-.28-.78-.18-.19-.44-.28-.75-.28-.23 0-.45.05-.65.14s-.4.24-.59.44l-.47-.48c.52-.53 1.12-.8 1.8-.8.33-.01.65.06.93.21zM410.55 86.65h-4.28c.04.86.21 1.48.52 1.86.31.38.73.57 1.26.57.34 0 .64-.05.9-.15.27-.1.54-.27.83-.5l.56.74c-.69.62-1.47.92-2.35.92-.96 0-1.71-.33-2.23-1-.53-.67-.79-1.6-.79-2.81s.25-2.16.76-2.86c.5-.7 1.2-1.06 2.1-1.06.89 0 1.57.31 2.04.95.48.63.71 1.53.71 2.69 0 .19-.01.41-.03.65zm-1.19-1.04c0-1.54-.51-2.31-1.53-2.31-.47 0-.84.19-1.11.58-.27.39-.42 1.01-.46 1.88h3.09v-.15zM417.32 83.35c.41.66.61 1.61.61 2.84 0 1.19-.23 2.14-.68 2.84-.45.7-1.08 1.05-1.9 1.05-.73 0-1.32-.29-1.76-.88v3.5l-1.26.15V82.53h1.11l.07.99c.5-.78 1.17-1.18 2-1.18.8.01 1.4.34 1.81 1.01zm-.71 2.85c0-1-.12-1.72-.36-2.18-.24-.45-.6-.68-1.08-.68-.33 0-.62.1-.87.29s-.49.46-.71.8v3.72c.38.61.87.91 1.47.91 1.03.01 1.55-.94 1.55-2.86zM421 79.3c.15.16.23.35.23.59s-.07.43-.22.58c-.15.15-.35.23-.6.23-.24 0-.44-.08-.6-.23-.15-.15-.23-.35-.23-.58s.08-.43.23-.59c.15-.16.35-.24.6-.24.24 0 .43.08.59.24zm.03 3.23v7.36h-1.26v-7.36h1.26zM428.54 79.55V89.9h-1.12l-.08-.97c-.48.77-1.12 1.15-1.92 1.15s-1.43-.34-1.87-1.02-.67-1.62-.67-2.81c0-.77.11-1.46.33-2.04s.53-1.04.93-1.37c.4-.32.86-.48 1.39-.48.7 0 1.28.29 1.75.88v-3.82l1.26.13zm-1.96 9.26c.25-.19.48-.46.69-.83v-3.7c-.42-.62-.91-.94-1.47-.94-.5 0-.89.24-1.18.71-.29.48-.43 1.19-.42 2.16 0 .98.13 1.7.39 2.17s.63.7 1.11.7c.35.01.64-.09.88-.27zM435.94 86.65h-4.28c.04.86.21 1.48.52 1.86.31.38.73.57 1.26.57.34 0 .64-.05.9-.15.27-.1.54-.27.83-.5l.56.74c-.69.62-1.47.92-2.35.92-.96 0-1.71-.33-2.23-1-.53-.67-.79-1.6-.79-2.81s.25-2.16.76-2.86c.5-.7 1.2-1.06 2.1-1.06.89 0 1.57.31 2.04.95.48.63.71 1.53.71 2.69 0 .19-.01.41-.03.65zm-1.19-1.04c0-1.54-.51-2.31-1.53-2.31-.47 0-.84.19-1.11.58-.27.39-.42 1.01-.46 1.88h3.09v-.15zM445.8 82.95c.32.4.48.93.48 1.59v5.36h-1.25v-5.22c0-.9-.29-1.34-.87-1.34-.56 0-1.07.43-1.54 1.29v5.28h-1.25v-5.22c0-.9-.29-1.34-.87-1.34-.57 0-1.08.43-1.54 1.29v5.28h-1.25v-7.36h1.09l.1 1.08c.54-.84 1.19-1.26 1.96-1.26.4 0 .74.12 1.02.35.28.23.48.57.6.99.57-.9 1.25-1.34 2.03-1.34.55-.03.97.17 1.29.57zM449.71 79.3c.15.16.23.35.23.59s-.07.43-.22.58c-.15.15-.35.23-.6.23-.24 0-.44-.08-.6-.23-.15-.15-.23-.35-.23-.58s.08-.43.23-.59c.15-.16.35-.24.6-.24.24 0 .44.08.59.24zm.04 3.23v7.36h-1.26v-7.36h1.26zM457.15 86.65h-4.28c.04.86.21 1.48.52 1.86.31.38.73.57 1.26.57.34 0 .64-.05.9-.15.27-.1.54-.27.83-.5l.56.74c-.69.62-1.47.92-2.35.92-.96 0-1.71-.33-2.23-1-.53-.67-.79-1.6-.79-2.81s.25-2.16.76-2.86c.5-.7 1.2-1.06 2.1-1.06.89 0 1.57.31 2.04.95.48.63.71 1.53.71 2.69 0 .19-.01.41-.03.65zm-1.19-1.04c0-1.54-.51-2.31-1.53-2.31-.47 0-.84.19-1.11.58-.27.39-.42 1.01-.46 1.88h3.09v-.15zM466.89 82.93c.33.39.5.92.5 1.6v5.36h-1.26v-5.21c0-.48-.08-.82-.24-1.03s-.4-.31-.73-.31c-.62 0-1.18.44-1.68 1.32v5.24h-1.26v-7.36h1.09l.1 1.09c.57-.85 1.27-1.27 2.1-1.27.59-.01 1.05.19 1.38.57zM474.74 86.65h-4.28c.04.86.21 1.48.52 1.86.31.38.73.57 1.26.57.34 0 .64-.05.9-.15.27-.1.54-.27.83-.5l.56.74c-.69.62-1.47.92-2.35.92-.96 0-1.71-.33-2.23-1-.53-.67-.79-1.6-.79-2.81s.25-2.16.76-2.86c.5-.7 1.2-1.06 2.1-1.06.89 0 1.57.31 2.04.95.48.63.71 1.53.71 2.69-.01.19-.01.41-.03.65zm-1.19-1.04c0-1.54-.51-2.31-1.53-2.31-.47 0-.84.19-1.11.58-.27.39-.42 1.01-.46 1.88h3.09v-.15zM480.69 83.19l-.53.74c-.3-.21-.58-.36-.84-.46-.26-.1-.54-.15-.83-.15-.38 0-.68.09-.9.27-.22.18-.33.43-.33.75 0 .31.1.55.31.73.21.18.61.36 1.2.55.74.23 1.27.52 1.61.85s.5.8.5 1.39c0 .69-.25 1.23-.76 1.63s-1.13.59-1.89.59c-1 0-1.84-.33-2.53-.99l.64-.7c.59.48 1.21.71 1.86.71.41 0 .74-.1.99-.31s.38-.49.38-.85c0-.26-.04-.47-.13-.63-.09-.16-.25-.3-.48-.43-.23-.13-.56-.26-1-.4-.7-.23-1.2-.51-1.51-.84s-.45-.74-.45-1.24c0-.39.1-.74.31-1.05.21-.31.49-.55.85-.73.36-.18.78-.27 1.26-.27.85 0 1.6.28 2.27.84zm-.63-4.25l.49.56-1.69 1.62h-.78l-1.69-1.62.49-.56 1.6 1.23 1.58-1.23zM485.98 89.58c-.47.34-.98.5-1.55.5-.6 0-1.06-.17-1.38-.52-.32-.35-.48-.83-.48-1.46v-4.62h-1.05v-.95h1.05v-1.69l1.26-.15v1.85h1.62l-.14.95h-1.48v4.61c0 .63.27.95.8.95.16 0 .31-.02.44-.07.14-.05.29-.12.46-.21l.45.81zM491.62 83.35c.52.66.78 1.61.78 2.86 0 1.2-.27 2.14-.8 2.83-.53.7-1.26 1.04-2.2 1.04-.94 0-1.68-.34-2.21-1.02s-.79-1.63-.79-2.84c0-1.22.27-2.17.8-2.85.53-.68 1.27-1.01 2.21-1.01.96-.01 1.69.32 2.21.99zm-3.46.7c-.29.46-.43 1.18-.43 2.16 0 1.91.56 2.87 1.68 2.87 1.12 0 1.68-.96 1.68-2.88 0-.98-.14-1.7-.42-2.16-.28-.46-.7-.69-1.25-.69s-.97.24-1.26.7zM499.14 82.53l-2.2 7.36h-1.51l-2.27-7.36h1.32l1.71 6.3 1.69-6.3h1.26zM501.62 79.3c.15.16.23.35.23.59s-.07.43-.22.58c-.15.15-.35.23-.6.23-.24 0-.44-.08-.6-.23-.15-.15-.23-.35-.23-.58s.08-.43.23-.59c.15-.16.35-.24.6-.24.24 0 .44.08.59.24zm.04 3.23v7.36h-1.26v-7.36h1.26zM507.57 82.55c.33.13.64.33.94.6l-.56.76c-.22-.18-.45-.31-.67-.4s-.47-.13-.73-.13c-.55 0-.98.23-1.28.7-.3.47-.46 1.2-.46 2.18 0 1.85.58 2.77 1.74 2.77.26 0 .5-.04.71-.13s.44-.22.69-.4l.59.77c-.6.54-1.27.81-2.03.81-.94 0-1.68-.33-2.22-.98-.54-.65-.81-1.6-.81-2.83 0-.8.12-1.5.37-2.09.25-.59.6-1.04 1.05-1.36.45-.32.98-.48 1.59-.48.39.01.75.08 1.08.21z"/></g><g><path d="M281.37 84.34v6.69h-.89v-5.75l-1.39.94-.41-.6 1.9-1.28h.79zM286.62 88.2c.21.29.32.64.32 1.06 0 .37-.09.7-.26.99-.17.29-.42.51-.75.67-.32.16-.7.24-1.12.24-.42 0-.79-.08-1.1-.24-.32-.16-.56-.38-.73-.66-.17-.29-.25-.61-.25-.98 0-.83.42-1.42 1.27-1.78-.36-.19-.62-.41-.78-.66a1.6 1.6 0 01-.24-.89c0-.36.08-.67.25-.93.17-.26.39-.46.67-.59s.6-.2.94-.2c.53 0 .98.15 1.33.44s.54.71.54 1.24c0 .34-.09.63-.26.88s-.45.47-.83.67c.45.21.79.45 1 .74zm-.9 1.95c.21-.2.32-.5.32-.89 0-.35-.09-.63-.27-.83-.18-.2-.49-.39-.94-.58l-.28-.11c-.32.17-.56.37-.71.61s-.23.54-.23.9c0 .4.11.7.32.9s.51.3.89.3.69-.09.9-.3zm-1.61-5c-.18.18-.27.44-.27.81 0 .3.08.53.23.7s.41.33.77.48l.23.1c.28-.19.48-.38.6-.58.12-.2.17-.43.17-.71 0-.35-.09-.62-.26-.79-.17-.18-.42-.27-.73-.27s-.56.09-.74.26zM291.09 86.87c.25.16.45.4.6.72.15.32.22.71.22 1.17 0 .49-.08.92-.24 1.28-.16.36-.39.64-.69.83-.29.19-.63.29-1.01.29-.71 0-1.24-.28-1.57-.84-.34-.56-.51-1.35-.51-2.36 0-.77.1-1.43.29-1.99.19-.56.46-.99.82-1.29.36-.3.78-.45 1.26-.45.47 0 .88.14 1.24.41l-.35.57c-.28-.19-.57-.28-.87-.28-.43 0-.78.23-1.04.68-.26.45-.4 1.08-.44 1.88.38-.57.87-.86 1.46-.86.3 0 .58.08.83.24zm-.35 3.15c.18-.29.27-.71.27-1.25 0-.51-.08-.89-.25-1.12s-.4-.35-.69-.35c-.25 0-.48.08-.7.25-.22.17-.4.4-.56.69.01.77.11 1.33.29 1.68.18.35.47.53.87.53.33.01.59-.14.77-.43zM296.05 86.87c.25.16.45.4.6.72.15.32.22.71.22 1.17 0 .49-.08.92-.24 1.28-.16.36-.39.64-.69.83-.29.19-.63.29-1.01.29-.71 0-1.24-.28-1.57-.84-.34-.56-.51-1.35-.51-2.36 0-.77.1-1.43.29-1.99.19-.56.46-.99.82-1.29.36-.3.78-.45 1.26-.45.47 0 .88.14 1.24.41l-.35.57c-.28-.19-.57-.28-.87-.28-.43 0-.78.23-1.04.68-.26.45-.4 1.08-.44 1.88.38-.57.87-.86 1.46-.86.3 0 .58.08.83.24zm-.35 3.15c.18-.29.27-.71.27-1.25 0-.51-.08-.89-.25-1.12s-.4-.35-.69-.35c-.25 0-.48.08-.7.25-.22.17-.4.4-.56.69.01.77.11 1.33.29 1.68.18.35.47.53.87.53.33.01.59-.14.77-.43zM284.45 96.14c.61.49.91 1.24.91 2.23 0 1.05-.31 1.82-.93 2.33s-1.48.76-2.58.76h-.92v3.57h-1.3V95.4h2.18c1.15 0 2.04.24 2.64.74zm-.99 3.85c.36-.31.55-.84.55-1.61 0-.7-.18-1.21-.54-1.52-.36-.31-.91-.47-1.65-.47h-.9v4.06h.88c.74 0 1.3-.15 1.66-.46zM290.26 97.58l-.21 1.22c-.18-.06-.37-.08-.57-.08-.41 0-.74.16-1 .49-.26.33-.46.83-.61 1.5v4.33h-1.26v-7.36h1.09l.1 1.46c.36-1.08.98-1.62 1.83-1.62.25-.02.46.01.63.06zM296.55 105.03h-1.09l-.07-1.11c-.51.86-1.2 1.29-2.06 1.29-.59 0-1.05-.19-1.39-.57s-.5-.9-.5-1.55v-5.42h1.26v5.31c0 .43.08.74.25.94.16.2.41.3.73.3.63 0 1.16-.41 1.61-1.23v-5.32h1.26v7.36zM302.99 98.32l-.53.74c-.3-.21-.58-.36-.84-.46-.26-.1-.54-.15-.83-.15-.38 0-.68.09-.9.27-.22.18-.33.43-.33.75 0 .31.1.55.31.73.21.18.61.36 1.2.55.74.23 1.27.52 1.61.85s.5.8.5 1.39c0 .69-.25 1.23-.76 1.63s-1.13.59-1.89.59c-1 0-1.84-.33-2.53-.99l.64-.7c.59.48 1.21.71 1.86.71.41 0 .74-.1.99-.31s.38-.49.38-.85c0-.26-.04-.47-.13-.63-.09-.16-.25-.3-.48-.43-.23-.13-.56-.26-1-.4-.7-.23-1.2-.51-1.51-.84s-.46-.74-.46-1.25c0-.39.1-.74.31-1.05.21-.31.49-.55.85-.73.36-.18.78-.27 1.26-.27.86.01 1.62.29 2.28.85zM306.06 94.54v10.49h-1.26V94.68l1.26-.14zm3.87 3.13l-2.49 3.28 2.73 4.09h-1.4l-2.65-4.03 2.49-3.33h1.32zM315.95 98.48c.52.66.78 1.61.78 2.86 0 1.2-.27 2.14-.8 2.83-.53.7-1.26 1.04-2.2 1.04-.94 0-1.68-.34-2.21-1.02s-.79-1.63-.79-2.84c0-1.22.27-2.17.8-2.85.53-.68 1.27-1.01 2.21-1.01.96-.01 1.69.32 2.21.99zm-3.45.7c-.29.46-.43 1.18-.43 2.16 0 1.91.56 2.87 1.68 2.87 1.12 0 1.68-.96 1.68-2.88 0-.98-.14-1.7-.42-2.16-.28-.46-.7-.69-1.25-.69s-.98.24-1.26.7zM318.19 101.17v-1.04h3.63v1.04h-3.63zM327.38 97.58l-.21 1.22c-.18-.06-.37-.08-.57-.08-.41 0-.74.16-1 .49-.26.33-.46.83-.61 1.5v4.33h-1.26v-7.36h1.09l.1 1.46c.36-1.08.98-1.62 1.83-1.62.24-.02.45.01.63.06zM332.89 104.01c.08.14.21.25.39.33l-.27.85c-.36-.06-.65-.17-.85-.34-.21-.17-.35-.42-.43-.77-.48.75-1.14 1.12-2 1.12-.65 0-1.17-.2-1.55-.61-.38-.41-.57-.95-.57-1.63 0-.78.26-1.38.77-1.79.51-.41 1.25-.62 2.2-.62h.95v-.63c0-.51-.1-.88-.31-1.11s-.55-.34-1.03-.34c-.51 0-1.11.13-1.79.39l-.31-.88c.82-.34 1.59-.5 2.3-.5 1.6 0 2.39.8 2.39 2.39v3.47c-.01.31.03.53.11.67zm-1.37-.9v-1.74h-.81c-1.21 0-1.82.51-1.82 1.53 0 .44.1.77.29 1.01.2.23.48.35.84.35.66 0 1.16-.38 1.5-1.15zM336.29 94.54v10.49h-1.26V94.68l1.26-.14zm3.88 3.13l-2.49 3.28 2.73 4.09h-1.4l-2.65-4.03 2.49-3.33h1.32zM346.19 98.48c.52.66.78 1.61.78 2.86 0 1.2-.27 2.14-.8 2.83-.53.7-1.26 1.04-2.2 1.04-.94 0-1.68-.34-2.21-1.02s-.79-1.63-.79-2.84c0-1.22.27-2.17.8-2.85.53-.68 1.27-1.01 2.21-1.01.96-.01 1.69.32 2.21.99zm-3.46.7c-.29.46-.43 1.18-.43 2.16 0 1.91.56 2.87 1.68 2.87 1.12 0 1.68-.96 1.68-2.88 0-.98-.14-1.7-.42-2.16-.28-.46-.7-.69-1.25-.69s-.97.24-1.26.7zM353.85 105.03h-1.09l-.07-1.11c-.51.86-1.2 1.29-2.06 1.29-.59 0-1.05-.19-1.39-.57s-.5-.9-.5-1.55v-5.42H350v5.31c0 .43.08.74.25.94.16.2.41.3.73.3.63 0 1.16-.41 1.61-1.23v-5.32h1.26v7.36zM360.29 98.32l-.53.74c-.3-.21-.58-.36-.84-.46-.26-.1-.54-.15-.83-.15-.38 0-.68.09-.9.27-.22.18-.33.43-.33.75 0 .31.1.55.31.73.21.18.61.36 1.2.55.74.23 1.27.52 1.61.85s.5.8.5 1.39c0 .69-.25 1.23-.76 1.63s-1.13.59-1.89.59c-1 0-1.84-.33-2.53-.99l.64-.7c.59.48 1.21.71 1.86.71.41 0 .74-.1.99-.31s.38-.49.38-.85c0-.26-.04-.47-.13-.63-.09-.16-.25-.3-.48-.43-.23-.13-.56-.26-1-.4-.7-.23-1.2-.51-1.51-.84s-.46-.74-.46-1.25c0-.39.1-.74.31-1.05.21-.31.49-.55.85-.73.36-.18.78-.27 1.26-.27.86.01 1.62.29 2.28.85zM363.36 94.54v10.49h-1.26V94.68l1.26-.14zm3.87 3.13l-2.49 3.28 2.73 4.09h-1.4l-2.65-4.03 2.49-3.33h1.32zM373.13 104.01c.08.14.21.25.39.33l-.27.85c-.36-.06-.65-.17-.85-.34-.21-.17-.35-.42-.43-.77-.48.75-1.14 1.12-2 1.12-.65 0-1.17-.2-1.55-.61-.38-.41-.57-.95-.57-1.63 0-.78.26-1.38.77-1.79.51-.41 1.25-.62 2.2-.62h.95v-.63c0-.51-.1-.88-.31-1.11s-.55-.34-1.03-.34c-.51 0-1.11.13-1.79.39l-.31-.88c.82-.34 1.59-.5 2.3-.5 1.6 0 2.39.8 2.39 2.39v3.47c-.02.31.02.53.11.67zm-1.61-10.14l.53 1.01-2.69 1.22-.36-.65 2.52-1.58zm.24 9.24v-1.74h-.81c-1.21 0-1.82.51-1.82 1.53 0 .44.1.77.29 1.01.2.23.48.35.84.35.65 0 1.15-.38 1.5-1.15zM284.54 111.67l-2.2 7.36h-1.51l-2.27-7.36h1.32l1.71 6.3 1.69-6.3h1.26zM290.32 118.01c.08.14.21.25.39.33l-.27.85c-.36-.06-.65-.17-.85-.34-.21-.17-.35-.42-.43-.77-.48.75-1.14 1.12-2 1.12-.65 0-1.17-.2-1.55-.61-.38-.41-.57-.95-.57-1.63 0-.78.26-1.38.77-1.79.51-.41 1.25-.62 2.2-.62h.95v-.63c0-.51-.1-.88-.31-1.11s-.55-.34-1.03-.34c-.51 0-1.11.13-1.79.39l-.31-.88c.82-.34 1.59-.5 2.3-.5 1.6 0 2.39.8 2.39 2.39v3.47c-.02.31.03.53.11.67zm-1.61-10.14l.53 1.01-2.69 1.22-.36-.64 2.52-1.59zm.24 9.24v-1.74h-.81c-1.21 0-1.82.51-1.82 1.53 0 .44.1.77.29 1.01.2.23.48.35.84.35.65 0 1.15-.38 1.5-1.15zM292.64 118.81c-.26-.27-.39-.65-.39-1.13v-8.99l1.26-.14v9.09c0 .36.15.55.45.55.12 0 .26-.03.41-.08l.28.88c-.3.16-.61.24-.94.24-.45-.02-.81-.15-1.07-.42zM297.28 108.54v10.49h-1.26v-10.35l1.26-.14zm3.88 3.13l-2.49 3.28 2.73 4.09H300l-2.65-4.03 2.49-3.33h1.32zM307.05 118.01c.08.14.21.25.39.33l-.27.85c-.36-.06-.65-.17-.85-.34-.21-.17-.35-.42-.43-.77-.48.75-1.14 1.12-2 1.12-.65 0-1.17-.2-1.55-.61-.38-.41-.57-.95-.57-1.63 0-.78.26-1.38.77-1.79.51-.41 1.25-.62 2.2-.62h.95v-.63c0-.51-.1-.88-.31-1.11s-.55-.34-1.03-.34c-.51 0-1.11.13-1.79.39l-.31-.88c.82-.34 1.59-.5 2.3-.5 1.6 0 2.39.8 2.39 2.39v3.47c-.02.31.03.53.11.67zm-1.37-.9v-1.74h-.81c-1.21 0-1.82.51-1.82 1.53 0 .44.1.77.29 1.01.2.23.48.35.84.35.65 0 1.15-.38 1.5-1.15z"/></g><g><path class="st8" d="M602.36 299.17v3M563.36 299.17v3M524.36 299.17v3M485.36 299.17v3M446.36 299.17v3M407.36 299.17v3M368.36 299.17v3M329.36 299.17v3M290.36 299.17v3M251.36 299.17v3M212.36 299.17v3M173.36 299.17v3M134.36 299.17v3M95.36 299.17v3M56.36 299.17v3"/></g><g><path class="st4" d="M199.06 151l-2.64 2.64-2.59-2.59M196.42 153.64v-48.85"/></g><g opacity=".2"><path d="M576.56 11.71c.42.16.82.41 1.19.73l-.85.89c-.3-.23-.57-.4-.83-.5-.26-.1-.56-.16-.91-.16-.64 0-1.16.26-1.57.77s-.61 1.3-.61 2.35c0 1.1.16 1.9.49 2.39.32.49.82.73 1.48.73.5 0 .94-.11 1.32-.32v-2.16h-1.25l-.17-1.18h2.98v4.06c-.9.54-1.85.82-2.86.82-1.18 0-2.09-.37-2.72-1.1-.63-.74-.94-1.81-.94-3.23 0-.9.17-1.68.51-2.33s.8-1.15 1.37-1.48c.58-.34 1.22-.5 1.92-.5.55-.02 1.03.06 1.45.22zM583.15 13.51l-.27 1.49c-.19-.05-.38-.07-.56-.07-.38 0-.67.13-.89.4-.22.27-.39.68-.52 1.23v3.38h-1.54v-6.35h1.33l.14 1.25c.15-.46.37-.81.66-1.05s.62-.37 1-.37c.24 0 .45.03.65.09zM588.49 18.81c.08.12.2.21.37.27l-.32 1.02c-.36-.03-.65-.12-.88-.26-.23-.14-.4-.36-.52-.66-.22.32-.49.56-.81.71-.32.16-.69.23-1.09.23-.63 0-1.13-.18-1.5-.54-.37-.36-.55-.83-.55-1.42 0-.69.25-1.21.75-1.58.5-.36 1.21-.55 2.14-.55h.79v-.36c0-.41-.09-.69-.28-.86-.19-.16-.49-.25-.91-.25-.46 0-1.02.11-1.68.34l-.36-1.04c.79-.3 1.56-.46 2.3-.46 1.62 0 2.44.73 2.44 2.18v2.66c0 .27.04.45.11.57zm-1.62-.59v-1.28h-.64c-.99 0-1.49.37-1.49 1.1 0 .3.08.54.23.71.15.17.38.25.67.25.52 0 .93-.26 1.23-.78zM592.15 12.25c-.13.14-.2.36-.2.67v.67h1.52l-.17 1.1h-1.36v5.24h-1.54v-5.24h-1.03v-1.1h1.03v-.7c0-.6.19-1.09.58-1.46s.94-.56 1.65-.56c.56 0 1.11.12 1.64.37l-.44 1.03a2.43 2.43 0 00-1.04-.24c-.29.01-.51.08-.64.22zM600.74 11.86v8.08h-1.51v-6.53l-1.8 1.09-.67-1.03 2.63-1.61h1.35zM604 18.46c.19.19.29.42.29.69 0 .26-.1.49-.29.68a.95.95 0 01-.7.29c-.26 0-.49-.1-.68-.29a.929.929 0 01-.28-.68c0-.27.09-.5.28-.69s.41-.28.68-.28c.28-.01.51.09.7.28zM607.82 11.86v8.08h-1.51v-6.53l-1.8 1.09-.67-1.03 2.63-1.61h1.35z"/></g></svg>