<svg version="1.1" id="Layer_1" xmlns="http://www.w3.org/2000/svg" x="0" y="0" viewBox="0 0 1040 296.89" xml:space="preserve"><style>.st0{fill:teal;stroke:#fff;stroke-width:.25;stroke-miterlimit:10}.st1{opacity:.2}.st2{fill:#231f20}.st14,.st3{fill:none;stroke:#fff;stroke-width:.25;stroke-miterlimit:10}.st14{stroke:#000;stroke-width:.5}.st15{fill:#595959}.st16{fill:teal}</style><path d="M40.4 14.09c.68.27 1.32.67 1.92 1.22l-1.23 1.42c-.47-.39-.94-.68-1.42-.86-.47-.18-.98-.27-1.53-.27-.61 0-1.1.14-1.47.41s-.56.66-.56 1.15c0 .33.07.6.22.82.14.22.41.42.79.61.38.19.94.4 1.69.63 1.29.41 2.26.91 2.92 1.51.65.6.98 1.48.98 2.63 0 .79-.2 1.48-.6 2.09-.4.61-.97 1.08-1.72 1.42-.75.34-1.63.51-2.66.51-1 0-1.9-.16-2.69-.49A6.19 6.19 0 0133 25.57l1.29-1.44c.51.43 1.03.76 1.58.98s1.15.33 1.81.33c.72 0 1.3-.17 1.75-.51.44-.34.66-.82.66-1.44 0-.38-.08-.69-.23-.94-.15-.25-.41-.47-.78-.67s-.9-.4-1.6-.62c-1.39-.43-2.4-.95-3.02-1.56-.62-.61-.93-1.41-.93-2.39 0-.72.19-1.36.57-1.9.38-.54.91-.97 1.59-1.27.68-.3 1.45-.46 2.31-.46.91.02 1.72.15 2.4.41zM50.53 26.63c-.36.25-.75.44-1.19.57-.44.13-.88.2-1.34.2-.99-.01-1.74-.29-2.25-.85-.51-.55-.77-1.37-.77-2.44v-5.3H43.4v-1.75h1.58v-2.22l2.43-.29v2.51h2.34l-.25 1.75h-2.09v5.24c0 .49.09.85.26 1.06s.44.32.81.32.77-.12 1.2-.36l.85 1.56zM57.39 11.91l.93 1.06-2.64 2.38h-1.52l-2.64-2.38.93-1.06 2.47 1.67 2.47-1.67zm.47 5.02l-.42 2.36c-.3-.08-.6-.11-.89-.11-.6 0-1.06.21-1.41.64-.34.42-.61 1.07-.82 1.95v5.36h-2.43V17.06H54l.23 1.98c.24-.72.59-1.28 1.05-1.66.46-.39.98-.58 1.58-.58.36-.01.7.04 1 .13zM67 22.83h-6.31c.08.98.33 1.67.76 2.09.43.42 1 .63 1.71.63.44 0 .86-.07 1.25-.22s.81-.37 1.25-.67l1.01 1.39c-1.11.9-2.36 1.35-3.72 1.35-1.53 0-2.71-.47-3.54-1.41s-1.25-2.22-1.25-3.84c0-1.03.18-1.95.53-2.76.35-.82.87-1.46 1.54-1.92.67-.46 1.47-.69 2.39-.69 1.41 0 2.5.45 3.27 1.34.77.89 1.16 2.14 1.16 3.73.01.12-.01.45-.05.98zm-2.36-1.69c0-1.76-.65-2.64-1.96-2.64-.59 0-1.06.22-1.4.66-.33.44-.54 1.14-.6 2.1h3.95v-.12zM77.7 13.03v14.08h-2.15l-.17-1.27c-.32.48-.72.86-1.21 1.14-.49.28-1.04.42-1.66.42-1.23 0-2.17-.48-2.83-1.43-.66-.95-.99-2.24-.99-3.88 0-1.03.17-1.94.49-2.75.33-.8.8-1.43 1.42-1.89s1.33-.68 2.14-.68c.96 0 1.81.36 2.53 1.08v-5.09l2.43.27zm-3.37 12.21c.33-.21.64-.53.93-.98v-4.6c-.29-.35-.59-.62-.88-.8-.3-.18-.64-.27-1.04-.27-.65 0-1.16.29-1.53.87-.38.58-.56 1.45-.56 2.61 0 1.24.16 2.13.49 2.67.33.54.81.81 1.44.81.44 0 .82-.1 1.15-.31zM88.08 17.58c.5.54.75 1.29.75 2.25v7.28H86.4v-6.9c0-.59-.11-1.01-.31-1.25-.21-.24-.52-.36-.92-.36-.42 0-.79.13-1.13.39-.34.26-.66.64-.98 1.13v6.99h-2.43V17.06h2.11l.19 1.31c.82-1.06 1.84-1.6 3.06-1.6.89 0 1.59.27 2.09.81zM94.32 11.53l.99 1.9-4.29 1.71-.68-1.23 3.98-2.38zm-.23 5.53v10.05h-2.43V17.06h2.43zM110.22 13.03v14.08h-2.15l-.17-1.27c-.32.48-.72.86-1.21 1.14-.49.28-1.04.42-1.66.42-1.23 0-2.17-.48-2.83-1.43-.66-.95-.99-2.24-.99-3.88 0-1.03.16-1.94.49-2.75s.8-1.43 1.42-1.89c.62-.46 1.33-.68 2.14-.68.96 0 1.8.36 2.53 1.08v-5.09l2.43.27zm-3.36 12.21c.33-.21.64-.53.93-.98v-4.6c-.29-.35-.59-.62-.88-.8-.3-.18-.64-.27-1.04-.27-.65 0-1.16.29-1.53.87-.37.58-.56 1.45-.56 2.61 0 1.24.16 2.13.49 2.67.33.54.81.81 1.44.81.44 0 .82-.1 1.15-.31zM121.34 22.83h-6.31c.08.98.33 1.67.76 2.09s1 .63 1.71.63c.44 0 .86-.07 1.25-.22s.81-.37 1.25-.67l1.01 1.39c-1.11.9-2.36 1.35-3.72 1.35-1.53 0-2.71-.47-3.54-1.41-.83-.94-1.24-2.22-1.24-3.84 0-1.03.18-1.95.53-2.76.35-.82.87-1.46 1.54-1.92.67-.46 1.47-.69 2.39-.69 1.41 0 2.5.45 3.27 1.34.77.89 1.16 2.14 1.16 3.73 0 .12-.02.45-.06.98zm-2.87-11.3l.99 1.9-4.29 1.71-.68-1.23 3.98-2.38zm.51 9.61c0-1.76-.65-2.64-1.96-2.64-.59 0-1.06.22-1.4.66-.33.44-.54 1.14-.6 2.1h3.95v-.12zM124.14 26.72c-.44-.45-.66-1.09-.66-1.91V13.03l2.43-.27v11.97c0 .47.19.7.57.7.19 0 .38-.03.57-.1l.51 1.71c-.51.23-1.04.34-1.62.34-.76.02-1.36-.21-1.8-.66zM131.62 12.76v14.35h-2.43V13.03l2.43-.27zm6.02 4.3l-3.34 4.43 3.67 5.62h-2.79l-3.46-5.49 3.36-4.56h2.56zM146.66 25.31c.12.18.31.33.58.43l-.51 1.62c-.57-.05-1.04-.19-1.4-.42-.36-.23-.64-.58-.83-1.04-.34.51-.77.88-1.28 1.13-.51.25-1.09.37-1.72.37-1 0-1.79-.29-2.38-.86-.58-.57-.87-1.32-.87-2.24 0-1.09.4-1.92 1.19-2.5s1.92-.86 3.39-.86h1.25v-.57c0-.65-.15-1.1-.45-1.36-.3-.26-.78-.39-1.43-.39-.73 0-1.62.18-2.66.53l-.57-1.65c1.25-.48 2.47-.72 3.65-.72 2.57 0 3.86 1.15 3.86 3.46v4.22c0 .38.06.67.18.85zm-2.58-.92v-2.03h-1.01c-1.57 0-2.36.58-2.36 1.75 0 .48.12.85.36 1.12.24.27.6.4 1.06.4.84 0 1.48-.41 1.95-1.24zM160.71 17.06v1.75l-4.86 6.4h4.96l-.25 1.9h-7.5v-1.75l4.88-6.4h-4.47v-1.9h7.24zm-1.24-5.15l.93 1.06-2.64 2.38h-1.52l-2.64-2.38.93-1.06 2.47 1.67 2.47-1.67zM165.01 12.39c.29.29.43.64.43 1.05s-.14.77-.43 1.04-.65.42-1.11.42c-.44 0-.81-.14-1.09-.42s-.43-.63-.43-1.04.14-.77.43-1.05.65-.43 1.09-.43c.46.01.82.15 1.11.43zm.12 4.67v10.05h-2.43V17.06h2.43zM176.14 17.06l-3.27 10.05h-2.91l-3.32-10.05h2.64l2.15 8.09 2.2-8.09h2.51zM185.09 18.19c.83.94 1.24 2.24 1.24 3.89 0 1.05-.19 1.98-.57 2.78-.38.8-.92 1.43-1.63 1.87-.71.44-1.55.67-2.53.67-1.48 0-2.64-.47-3.48-1.42-.84-.94-1.25-2.25-1.25-3.9 0-1.05.19-1.98.57-2.77.38-.8.93-1.42 1.64-1.86s1.56-.67 2.54-.67c1.49-.01 2.64.47 3.47 1.41zm-5.65 3.88c0 1.19.18 2.07.54 2.63s.9.84 1.62.84 1.26-.28 1.62-.85c.36-.57.54-1.44.54-2.62s-.18-2.05-.54-2.61c-.36-.56-.9-.85-1.61-.85-1.44.01-2.17 1.16-2.17 3.46zM194.38 26.63c-.36.25-.75.44-1.19.57-.44.13-.88.19-1.34.19-.99-.01-1.74-.29-2.25-.85-.51-.55-.77-1.37-.77-2.44v-5.3h-1.58v-1.75h1.58v-2.22l2.43-.29v2.51h2.34l-.25 1.75h-2.09v5.24c0 .49.08.85.26 1.06.17.22.44.32.81.32s.77-.12 1.2-.36l.85 1.57zM203.16 25.31c.12.18.31.33.58.43l-.51 1.62c-.57-.05-1.04-.19-1.4-.42-.36-.23-.64-.58-.83-1.04-.34.51-.77.88-1.28 1.13-.51.25-1.09.37-1.72.37-1 0-1.79-.29-2.38-.86-.58-.57-.87-1.32-.87-2.24 0-1.09.4-1.92 1.19-2.5s1.92-.86 3.39-.86h1.25v-.57c0-.65-.15-1.1-.45-1.36-.3-.26-.78-.39-1.43-.39-.73 0-1.62.18-2.66.53l-.57-1.65c1.25-.48 2.47-.72 3.65-.72 2.57 0 3.86 1.15 3.86 3.46v4.22c0 .38.06.67.18.85zm-2.57-.92v-2.03h-1.01c-1.57 0-2.36.58-2.36 1.75 0 .48.12.85.36 1.12.24.27.6.4 1.06.4.83 0 1.48-.41 1.95-1.24z"/><g class="st1"><path d="M976.93 272.59c.67.26 1.29.64 1.89 1.15l-1.35 1.41a5.67 5.67 0 00-1.32-.8c-.41-.16-.89-.25-1.44-.25-1.01 0-1.84.41-2.49 1.22s-.97 2.05-.97 3.72c0 1.75.26 3.01.77 3.78s1.29 1.16 2.35 1.16c.8 0 1.49-.17 2.09-.51v-3.42h-1.98l-.27-1.86h4.71v6.42c-1.42.86-2.93 1.29-4.52 1.29-1.87 0-3.31-.58-4.3-1.75-.99-1.17-1.49-2.87-1.49-5.11 0-1.43.27-2.66.81-3.7.54-1.03 1.26-1.81 2.18-2.35s1.92-.8 3.04-.8c.86.01 1.63.14 2.29.4zM987.35 275.43l-.42 2.36c-.3-.08-.6-.11-.89-.11-.6 0-1.06.21-1.41.64-.34.42-.61 1.07-.82 1.95v5.36h-2.43v-10.05h2.11l.23 1.98c.24-.72.59-1.28 1.04-1.66.46-.39.98-.58 1.58-.58.37-.02.71.03 1.01.11zM995.82 283.82c.12.18.31.33.58.43l-.51 1.62c-.57-.05-1.04-.19-1.4-.42-.36-.23-.64-.58-.83-1.04-.34.51-.77.88-1.28 1.13-.51.25-1.09.37-1.72.37-1 0-1.79-.29-2.38-.86-.58-.57-.87-1.32-.87-2.24 0-1.09.4-1.92 1.19-2.5s1.92-.86 3.39-.86h1.25v-.57c0-.65-.15-1.1-.45-1.36-.3-.26-.78-.39-1.43-.39-.73 0-1.62.18-2.66.53l-.57-1.65c1.25-.48 2.47-.72 3.65-.72 2.57 0 3.86 1.15 3.86 3.46v4.22c0 .38.06.67.18.85zm-2.58-.92v-2.03h-1.01c-1.57 0-2.36.58-2.36 1.75 0 .48.12.85.36 1.12.24.27.6.4 1.06.4.84 0 1.49-.41 1.95-1.24zM1001.61 273.45c-.21.22-.31.57-.31 1.05v1.06h2.41l-.27 1.75h-2.15v8.3h-2.43v-8.3h-1.63v-1.75h1.63v-1.1c0-.95.31-1.72.92-2.31.62-.59 1.49-.88 2.61-.88.89 0 1.75.2 2.6.59l-.7 1.63c-.54-.25-1.1-.38-1.65-.38-.47.01-.82.12-1.03.34zM1015.21 272.83v12.79h-2.39v-10.34l-2.85 1.73-1.06-1.63 4.16-2.55h2.14zM1020.38 283.27c.3.3.46.66.46 1.09 0 .42-.15.78-.46 1.08-.3.3-.67.46-1.1.46-.42 0-.78-.15-1.07-.46-.3-.3-.45-.67-.45-1.08 0-.43.14-.79.44-1.09.29-.3.65-.45 1.08-.45s.79.15 1.1.45zM1026.42 272.83v12.79h-2.39v-10.34l-2.85 1.73-1.06-1.63 4.16-2.55h2.14z"/></g><path class="st0" d="M694.36 73.92h25.63v168.76h-25.63zM662.43 77.09h25.63v165.59h-25.63zM630.62 82.49h25.17v160.19h-25.17zM598.35 88.05h25.63v154.63h-25.63zM566.42 91.7h25.63v150.98h-25.63zM534.61 93.13h25.17v149.55h-25.17zM502.33 92.02h25.63v150.66h-25.63zM470.41 104.72h25.63v137.96h-25.63zM438.6 117.74h25.17v124.94H438.6zM406.32 123.93h25.63v118.75h-25.63zM374.4 137.58h25.63v105.1H374.4zM214.3 165.36h25.63v77.32H214.3zM182.38 171.56h25.63v71.13h-25.63zM150.45 172.35h25.63v70.33h-25.63zM118.29 179.49h25.63v63.19h-25.63zM86.37 182.51H112v60.17H86.37zM342.47 147.42h25.63v95.26h-25.63zM310.31 156.31h25.63v86.37h-25.63zM278.39 167.43h25.63v75.25h-25.63zM246.46 168.38h25.63v74.3h-25.63z"/><g class="st1"><path class="st2" d="M694.37 182.51H720v60.17h-25.63z"/><path class="st3" d="M694.37 182.51H720v60.17h-25.63z"/><path class="st2" d="M662.37 182.51H688v60.17h-25.63z"/><path class="st3" d="M662.37 182.51H688v60.17h-25.63z"/><path class="st2" d="M630.37 182.51H656v60.17h-25.63z"/><path class="st3" d="M630.37 182.51H656v60.17h-25.63z"/><path class="st2" d="M598.37 182.51H624v60.17h-25.63z"/><path class="st3" d="M598.37 182.51H624v60.17h-25.63z"/><path class="st2" d="M566.37 182.51H592v60.17h-25.63z"/><path class="st3" d="M566.37 182.51H592v60.17h-25.63z"/><path class="st2" d="M534.37 182.51H560v60.17h-25.63z"/><path class="st3" d="M534.37 182.51H560v60.17h-25.63z"/><path class="st2" d="M502.37 182.51H528v60.17h-25.63z"/><path class="st3" d="M502.37 182.51H528v60.17h-25.63z"/><path class="st2" d="M470.37 182.51H496v60.17h-25.63z"/><path class="st3" d="M470.37 182.51H496v60.17h-25.63z"/><path class="st2" d="M438.37 182.51H464v60.17h-25.63z"/><path class="st3" d="M438.37 182.51H464v60.17h-25.63z"/><path class="st2" d="M406.37 182.51H432v60.17h-25.63z"/><path class="st3" d="M406.37 182.51H432v60.17h-25.63z"/><g><path class="st2" d="M374.37 182.51H400v60.17h-25.63z"/><path class="st3" d="M374.37 182.51H400v60.17h-25.63z"/></g><g><path class="st2" d="M342.37 182.51H368v60.17h-25.63z"/><path class="st3" d="M342.37 182.51H368v60.17h-25.63z"/></g><g><path class="st2" d="M310.37 182.51H336v60.17h-25.63z"/><path class="st3" d="M310.37 182.51H336v60.17h-25.63z"/></g><g><path class="st2" d="M278.37 182.51H304v60.17h-25.63z"/><path class="st3" d="M278.37 182.51H304v60.17h-25.63z"/></g><g><path class="st2" d="M246.37 182.51H272v60.17h-25.63z"/><path class="st3" d="M246.37 182.51H272v60.17h-25.63z"/></g><g><path class="st2" d="M214.37 182.51H240v60.17h-25.63z"/><path class="st3" d="M214.37 182.51H240v60.17h-25.63z"/></g><g><path class="st2" d="M182.37 182.51H208v60.17h-25.63z"/><path class="st3" d="M182.37 182.51H208v60.17h-25.63z"/></g><g><path class="st2" d="M150.37 182.51H176v60.17h-25.63z"/><path class="st3" d="M150.37 182.51H176v60.17h-25.63z"/></g><g><path class="st2" d="M118.37 182.51H144v60.17h-25.63z"/><path class="st3" d="M118.37 182.51H144v60.17h-25.63z"/></g><g><path class="st2" d="M86.37 182.51H112v60.17H86.37z"/><path class="st3" d="M86.37 182.51H112v60.17H86.37z"/></g></g><g class="st1"><path class="st2" d="M694.37 73.92H720v48.52h-25.63z"/><path class="st3" d="M694.37 73.92H720v48.52h-25.63z"/><path class="st2" d="M662.37 77.09H688v45.35h-25.63z"/><path class="st3" d="M662.37 77.09H688v45.35h-25.63z"/><path class="st2" d="M630.37 82.49H656v39.95h-25.63z"/><path class="st3" d="M630.37 82.49H656v39.95h-25.63z"/><path class="st2" d="M598.37 88.31H624v34.13h-25.63z"/><path class="st3" d="M598.37 88.31H624v34.13h-25.63z"/><path class="st2" d="M566.37 92.02H592v30.42h-25.63z"/><path class="st3" d="M566.37 92.02H592v30.42h-25.63z"/><g><path class="st2" d="M534.37 93.13H560v29.31h-25.63z"/><path class="st3" d="M534.37 93.13H560v29.31h-25.63z"/></g><g><path class="st2" d="M502.37 92.02H528v30.42h-25.63z"/><path class="st3" d="M502.37 92.02H528v30.42h-25.63z"/></g><g><path class="st2" d="M470.37 104.72H496v17.72h-25.63z"/><path class="st3" d="M470.37 104.72H496v17.72h-25.63z"/></g><g><path class="st2" d="M438.37 117.74H464v4.7h-25.63z"/><path class="st3" d="M438.37 117.74H464v4.7h-25.63z"/></g></g><path fill="none" stroke="#bfbfbf" stroke-width=".75" stroke-linejoin="round" stroke-miterlimit="10" d="M83.16 242.68h640.05"/><path class="st15" d="M63.89 237.73c.49.81.73 2.02.73 3.63 0 1.62-.24 2.84-.73 3.65-.48.81-1.2 1.21-2.14 1.21-.95 0-1.67-.41-2.16-1.22-.49-.81-.73-2.03-.73-3.64 0-3.23.96-4.84 2.88-4.84.95-.01 1.66.4 2.15 1.21zm-3.34.65c-.26.59-.39 1.58-.39 2.98s.13 2.39.39 2.98c.26.59.66.88 1.2.88.53 0 .93-.29 1.18-.88.26-.59.39-1.58.39-2.98s-.13-2.39-.38-2.98-.65-.88-1.19-.88c-.55-.01-.94.29-1.2.88zM75.06 256.13v9.37h-1.25v-8.05l-1.95 1.32-.57-.84 2.66-1.79h1.11zM82.41 261.54c.3.4.45.9.45 1.48 0 .52-.12.98-.36 1.39-.24.4-.59.71-1.04.94-.45.22-.98.34-1.57.34-.59 0-1.1-.11-1.55-.33-.44-.22-.78-.53-1.02-.93s-.36-.86-.36-1.37c0-1.16.59-1.99 1.78-2.49-.5-.27-.87-.58-1.09-.92-.22-.34-.34-.76-.34-1.25 0-.5.12-.94.35-1.3s.55-.64.95-.83c.4-.19.83-.28 1.31-.28.75 0 1.37.21 1.87.62.5.41.75.99.75 1.74 0 .48-.12.89-.36 1.23-.24.34-.63.66-1.16.94.62.27 1.09.61 1.39 1.02zm-1.26 2.73c.3-.29.45-.7.45-1.25 0-.5-.12-.88-.37-1.16s-.69-.54-1.32-.81l-.39-.15c-.45.23-.78.52-.99.85s-.31.76-.31 1.26c0 .56.15.98.45 1.26.3.28.71.42 1.25.42s.93-.13 1.23-.42zm-2.25-7c-.25.25-.38.62-.38 1.13 0 .42.11.75.32.99.21.24.57.46 1.07.67l.32.14c.39-.26.67-.53.83-.81.16-.27.25-.61.25-1 0-.49-.12-.87-.36-1.11-.24-.25-.58-.37-1.02-.37-.44-.01-.78.11-1.03.36zM87.62 256.29c.38.21.68.5.88.85.21.36.31.75.31 1.18 0 .6-.15 1.08-.46 1.45-.31.37-.75.62-1.32.75.62.06 1.11.28 1.48.67.37.39.56.94.56 1.64 0 .53-.12 1.01-.36 1.44-.24.43-.58.77-1.02 1.02s-.96.38-1.55.38c-.54 0-1.02-.1-1.45-.31s-.81-.53-1.17-.96l.76-.64c.29.32.58.55.86.69s.6.22.96.22c.51 0 .92-.17 1.22-.5.3-.33.46-.79.46-1.37 0-.62-.15-1.06-.46-1.34-.3-.27-.74-.41-1.31-.41h-.59l.15-.94h.39c.47 0 .85-.14 1.16-.43.3-.29.46-.71.46-1.25 0-.47-.13-.83-.39-1.09-.26-.26-.61-.39-1.06-.39-.33 0-.63.07-.9.2s-.55.34-.83.62l-.66-.67c.73-.75 1.57-1.12 2.52-1.12.53 0 .98.1 1.36.31zM95.51 257.2c.49.81.73 2.02.73 3.63 0 1.62-.24 2.84-.73 3.65s-1.2 1.21-2.14 1.21c-.95 0-1.67-.41-2.16-1.22-.49-.81-.73-2.03-.73-3.64 0-3.23.96-4.84 2.88-4.84.96-.01 1.67.39 2.15 1.21zm-3.33.65c-.26.59-.39 1.58-.39 2.98s.13 2.39.39 2.98c.26.59.66.88 1.2.88.53 0 .93-.29 1.18-.88s.38-1.58.38-2.98-.13-2.39-.38-2.98-.65-.88-1.19-.88c-.54-.01-.94.28-1.19.88zM300.16 256.13v9.37h-1.25v-8.05l-1.95 1.32-.57-.84 2.66-1.79h1.11zM306.94 256.94c.47.64.71 1.55.71 2.73 0 1.24-.17 2.26-.5 3.04-.34.79-.84 1.42-1.51 1.89s-1.55.87-2.65 1.2l-.28-.92c1.14-.35 2-.83 2.6-1.42s.94-1.41 1.03-2.46c-.23.34-.51.6-.83.79-.32.19-.68.29-1.08.29-.43 0-.83-.12-1.19-.36-.37-.24-.65-.59-.86-1.04-.21-.45-.32-.98-.32-1.59 0-.65.12-1.21.36-1.68s.57-.82.99-1.06c.42-.24.9-.36 1.43-.36.93-.01 1.63.31 2.1.95zm-.58 3c.01-1.07-.1-1.84-.34-2.3-.24-.46-.63-.69-1.17-.69-.49 0-.86.18-1.13.54s-.41.9-.41 1.62c0 .66.12 1.17.38 1.51.25.34.6.52 1.04.52.63-.01 1.17-.41 1.63-1.2zM314.1 257.2c.49.81.73 2.02.73 3.63 0 1.62-.24 2.84-.73 3.65s-1.2 1.21-2.14 1.21c-.95 0-1.67-.41-2.16-1.22-.49-.81-.73-2.03-.73-3.64 0-3.23.96-4.84 2.88-4.84.95-.01 1.67.39 2.15 1.21zm-3.34.65c-.26.59-.39 1.58-.39 2.98s.13 2.39.39 2.98.66.88 1.2.88c.53 0 .93-.29 1.18-.88s.38-1.58.38-2.98-.12-2.39-.38-2.98c-.25-.59-.65-.88-1.19-.88-.53-.01-.93.28-1.19.88zM321.4 257.2c.49.81.73 2.02.73 3.63 0 1.62-.24 2.84-.73 3.65s-1.2 1.21-2.14 1.21c-.95 0-1.67-.41-2.16-1.22-.49-.81-.73-2.03-.73-3.64 0-3.23.96-4.84 2.88-4.84.95-.01 1.66.39 2.15 1.21zm-3.34.65c-.26.59-.38 1.58-.38 2.98s.13 2.39.38 2.98c.26.59.66.88 1.2.88.53 0 .93-.29 1.18-.88s.39-1.58.39-2.98-.13-2.39-.38-2.98-.65-.88-1.19-.88-.95.28-1.2.88z"/><g><path class="st15" d="M337.19 256.13v9.37h-1.25v-8.05l-1.95 1.32-.57-.84 2.66-1.79h1.11zM344.33 257.2c.49.81.73 2.02.73 3.63 0 1.62-.24 2.84-.73 3.65s-1.2 1.21-2.14 1.21c-.95 0-1.67-.41-2.16-1.22-.49-.81-.73-2.03-.73-3.64 0-3.23.96-4.84 2.88-4.84.95-.01 1.67.39 2.15 1.21zm-3.34.65c-.26.59-.39 1.58-.39 2.98s.13 2.39.39 2.98.66.88 1.2.88c.53 0 .93-.29 1.18-.88s.38-1.58.38-2.98-.12-2.39-.38-2.98c-.25-.59-.65-.88-1.19-.88-.53-.01-.93.28-1.19.88z"/></g><g><path class="st15" d="M113.05 262.18v1.01h-1.06v2.31h-1.2v-2.31h-3.67v-.91l2.51-6.31 1.06.41-2.28 5.81h2.39l.13-2.55h1.06v2.55h1.06zM119.21 257.2c.49.81.73 2.02.73 3.63 0 1.62-.24 2.84-.73 3.65s-1.2 1.21-2.14 1.21c-.95 0-1.67-.41-2.16-1.22-.49-.81-.73-2.03-.73-3.64 0-3.23.96-4.84 2.88-4.84.95-.01 1.67.39 2.15 1.21zm-3.34.65c-.26.59-.39 1.58-.39 2.98s.13 2.39.39 2.98c.26.59.66.88 1.2.88.53 0 .93-.29 1.18-.88s.38-1.58.38-2.98-.13-2.39-.38-2.98-.65-.88-1.19-.88c-.53-.01-.93.28-1.19.88z"/></g><g><path class="st15" d="M143.99 257.11h-3.28v2.8c.44-.26.9-.39 1.37-.39.72 0 1.3.26 1.74.78.44.52.66 1.25.66 2.17 0 .63-.12 1.18-.37 1.67s-.59.86-1.04 1.13-.97.41-1.57.41c-.53 0-1-.1-1.41-.31s-.79-.51-1.15-.91l.74-.67c.27.29.54.51.83.65.28.14.6.22.96.22.54 0 .96-.19 1.26-.57.3-.38.45-.92.45-1.63 0-1.33-.5-2-1.51-2-.22 0-.43.03-.62.09s-.4.16-.63.29h-.91v-4.7h4.65l-.17.97zM150.83 257.2c.49.81.73 2.02.73 3.63 0 1.62-.24 2.84-.73 3.65s-1.2 1.21-2.14 1.21c-.95 0-1.67-.41-2.16-1.22-.49-.81-.73-2.03-.73-3.64 0-3.23.96-4.84 2.88-4.84.95-.01 1.67.39 2.15 1.21zm-3.34.65c-.26.59-.38 1.58-.38 2.98s.13 2.39.38 2.98c.26.59.66.88 1.2.88.53 0 .93-.29 1.18-.88s.39-1.58.39-2.98-.13-2.39-.38-2.98-.65-.88-1.19-.88-.94.28-1.2.88z"/></g><g><path class="st15" d="M175.49 259.67c.35.22.63.56.83 1.01.21.45.31.99.31 1.64 0 .69-.11 1.29-.34 1.8-.23.51-.55.9-.96 1.16-.41.27-.88.4-1.41.4-1 0-1.73-.39-2.21-1.18-.47-.79-.71-1.89-.71-3.3 0-1.07.13-2 .4-2.79.27-.78.65-1.39 1.15-1.81.5-.42 1.08-.63 1.76-.63.65 0 1.23.19 1.74.57l-.49.8c-.39-.26-.8-.39-1.22-.39-.61 0-1.09.32-1.45.95s-.56 1.51-.61 2.63c.53-.8 1.21-1.2 2.04-1.2.43.01.82.12 1.17.34zm-.49 4.42c.25-.41.37-.99.37-1.74 0-.72-.12-1.24-.36-1.57a1.13 1.13 0 00-.97-.49c-.35 0-.67.12-.97.35-.3.23-.57.56-.79.97.02 1.07.16 1.86.41 2.35.26.5.66.74 1.21.74.48 0 .85-.2 1.1-.61zM182.97 257.2c.49.81.73 2.02.73 3.63 0 1.62-.24 2.84-.73 3.65s-1.2 1.21-2.14 1.21c-.95 0-1.67-.41-2.16-1.22-.49-.81-.73-2.03-.73-3.64 0-3.23.96-4.84 2.88-4.84.95-.01 1.66.39 2.15 1.21zm-3.34.65c-.26.59-.39 1.58-.39 2.98s.13 2.39.39 2.98c.26.59.66.88 1.2.88.53 0 .93-.29 1.18-.88s.38-1.58.38-2.98-.13-2.39-.38-2.98-.65-.88-1.19-.88c-.53-.01-.93.28-1.19.88z"/></g><g><path class="st15" d="M207.67 256.13v.92l-3.21 8.58-1.13-.36 3.08-8.13h-3.75v-1.01h5.01zM213.83 257.2c.49.81.73 2.02.73 3.63 0 1.62-.24 2.84-.73 3.65s-1.2 1.21-2.14 1.21c-.95 0-1.67-.41-2.16-1.22-.49-.81-.73-2.03-.73-3.64 0-3.23.96-4.84 2.88-4.84.95-.01 1.67.39 2.15 1.21zm-3.34.65c-.26.59-.38 1.58-.38 2.98s.13 2.39.38 2.98.66.88 1.2.88c.53 0 .93-.29 1.18-.88s.39-1.58.39-2.98-.13-2.39-.38-2.98c-.25-.59-.65-.88-1.19-.88s-.94.28-1.2.88z"/></g><g><path class="st15" d="M239.24 261.54c.3.4.45.9.45 1.48 0 .52-.12.98-.36 1.39-.24.4-.59.71-1.04.94-.45.22-.98.34-1.57.34-.59 0-1.1-.11-1.55-.33-.44-.22-.78-.53-1.02-.93s-.36-.86-.36-1.37c0-1.16.59-1.99 1.78-2.49-.5-.27-.87-.58-1.09-.92-.22-.34-.34-.76-.34-1.25 0-.5.12-.94.35-1.3s.55-.64.95-.83c.4-.19.83-.28 1.31-.28.75 0 1.37.21 1.87.62.5.41.75.99.75 1.74 0 .48-.12.89-.36 1.23-.24.34-.63.66-1.16.94.62.27 1.09.61 1.39 1.02zm-1.26 2.73c.3-.29.45-.7.45-1.25 0-.5-.12-.88-.37-1.16s-.69-.54-1.32-.81l-.39-.15c-.45.23-.78.52-.99.85s-.31.76-.31 1.26c0 .56.15.98.45 1.26.3.28.71.42 1.25.42s.93-.13 1.23-.42zm-2.26-7c-.25.25-.38.62-.38 1.13 0 .42.11.75.32.99.21.24.57.46 1.07.67l.32.14c.39-.26.67-.53.83-.81.16-.27.25-.61.25-1 0-.49-.12-.87-.36-1.11-.24-.25-.58-.37-1.02-.37-.44-.01-.78.11-1.03.36zM246.03 257.2c.49.81.73 2.02.73 3.63 0 1.62-.24 2.84-.73 3.65s-1.2 1.21-2.14 1.21c-.95 0-1.67-.41-2.16-1.22-.49-.81-.73-2.03-.73-3.64 0-3.23.96-4.84 2.88-4.84.95-.01 1.66.39 2.15 1.21zm-3.34.65c-.26.59-.38 1.58-.38 2.98s.13 2.39.38 2.98.66.88 1.2.88c.53 0 .93-.29 1.18-.88s.39-1.58.39-2.98-.13-2.39-.38-2.98c-.25-.59-.65-.88-1.19-.88s-.95.28-1.2.88z"/></g><g><path class="st15" d="M270.86 256.94c.47.64.71 1.55.71 2.73 0 1.24-.17 2.26-.5 3.04-.34.79-.84 1.42-1.5 1.89-.67.47-1.55.87-2.65 1.2l-.28-.92c1.14-.35 2-.83 2.6-1.42.59-.59.94-1.41 1.03-2.46-.23.34-.51.6-.83.79s-.68.29-1.08.29c-.43 0-.83-.12-1.19-.36s-.65-.59-.86-1.04c-.21-.45-.32-.98-.32-1.59 0-.65.12-1.21.37-1.68.24-.47.57-.82.99-1.06.42-.24.9-.36 1.43-.36.91-.01 1.61.31 2.08.95zm-.58 3c.01-1.07-.11-1.84-.34-2.3-.24-.46-.63-.69-1.17-.69-.49 0-.86.18-1.13.54-.27.36-.41.9-.41 1.62 0 .66.13 1.17.38 1.51.25.34.6.52 1.04.52.63-.01 1.17-.41 1.63-1.2zM278.02 257.2c.48.81.73 2.02.73 3.63 0 1.62-.24 2.84-.73 3.65s-1.2 1.21-2.14 1.21c-.95 0-1.67-.41-2.16-1.22-.48-.81-.73-2.03-.73-3.64 0-3.23.96-4.84 2.88-4.84.95-.01 1.67.39 2.15 1.21zm-3.34.65c-.26.59-.38 1.58-.38 2.98s.13 2.39.38 2.98c.26.59.66.88 1.2.88.53 0 .93-.29 1.18-.88.26-.59.38-1.58.38-2.98s-.13-2.39-.38-2.98c-.25-.59-.65-.88-1.19-.88s-.93.28-1.19.88z"/></g><g><path class="st15" d="M399.14 256.29c.38.21.68.5.88.85s.31.75.31 1.18c0 .6-.15 1.08-.46 1.45-.31.37-.75.62-1.32.75.62.06 1.11.28 1.48.67.37.39.56.94.56 1.64 0 .53-.12 1.01-.36 1.44-.24.43-.58.77-1.02 1.02s-.96.38-1.55.38c-.54 0-1.02-.1-1.45-.31s-.81-.53-1.17-.96l.76-.64c.29.32.58.55.86.69.28.14.6.22.96.22.51 0 .92-.17 1.22-.5.3-.33.46-.79.46-1.37 0-.62-.15-1.06-.46-1.34-.3-.27-.74-.41-1.31-.41h-.59l.15-.94h.39c.47 0 .85-.14 1.15-.43.3-.29.46-.71.46-1.25 0-.47-.13-.83-.38-1.09-.26-.26-.61-.39-1.06-.39-.33 0-.63.07-.9.2s-.55.34-.83.62l-.66-.67c.73-.75 1.57-1.12 2.52-1.12.53 0 .97.1 1.36.31zM407.03 257.2c.49.81.73 2.02.73 3.63 0 1.62-.24 2.84-.73 3.65s-1.2 1.21-2.14 1.21c-.95 0-1.67-.41-2.16-1.22-.49-.81-.73-2.03-.73-3.64 0-3.23.96-4.84 2.88-4.84.95-.01 1.67.39 2.15 1.21zm-3.34.65c-.26.59-.38 1.58-.38 2.98s.13 2.39.38 2.98.66.88 1.2.88c.53 0 .93-.29 1.18-.88s.39-1.58.39-2.98-.13-2.39-.38-2.98c-.25-.59-.65-.88-1.19-.88s-.94.28-1.2.88z"/></g><g><path class="st15" d="M367.86 256.31c.39.22.68.52.89.9s.31.8.31 1.28c0 .57-.11 1.11-.33 1.62-.22.51-.57 1.08-1.06 1.7-.49.63-1.23 1.51-2.24 2.66h3.84l-.15 1.04h-5.07v-.98c1.08-1.25 1.88-2.2 2.37-2.84.5-.64.85-1.2 1.04-1.66.2-.46.29-.95.29-1.46 0-.49-.12-.88-.37-1.15-.25-.27-.58-.41-1-.41-.35 0-.66.08-.92.24-.26.16-.53.41-.81.76l-.78-.6c.68-.94 1.55-1.41 2.62-1.41.53-.02.98.09 1.37.31zM375.61 257.2c.49.81.73 2.02.73 3.63 0 1.62-.24 2.84-.73 3.65s-1.2 1.21-2.14 1.21c-.95 0-1.67-.41-2.16-1.22-.49-.81-.73-2.03-.73-3.64 0-3.23.96-4.84 2.88-4.84.95-.01 1.67.39 2.15 1.21zm-3.34.65c-.26.59-.39 1.58-.39 2.98s.13 2.39.39 2.98.66.88 1.2.88c.53 0 .93-.29 1.18-.88s.38-1.58.38-2.98-.12-2.39-.38-2.98c-.25-.59-.65-.88-1.19-.88-.53-.01-.93.28-1.19.88z"/></g><g><path class="st15" d="M615.54 256.31c.39.22.68.52.89.9.21.38.31.8.31 1.28 0 .57-.11 1.11-.33 1.62-.22.51-.57 1.08-1.06 1.7-.49.63-1.23 1.51-2.24 2.66h3.84l-.15 1.04h-5.07v-.98c1.08-1.25 1.87-2.2 2.37-2.84.5-.64.85-1.2 1.04-1.66.2-.46.29-.95.29-1.46 0-.49-.12-.88-.37-1.15s-.58-.41-1-.41c-.36 0-.66.08-.92.24-.26.16-.53.41-.81.76l-.78-.6c.68-.94 1.55-1.41 2.62-1.41.52-.02.98.09 1.37.31zM623.28 257.2c.49.81.73 2.02.73 3.63 0 1.62-.24 2.84-.73 3.65s-1.2 1.21-2.14 1.21c-.95 0-1.67-.41-2.16-1.22-.49-.81-.73-2.03-.73-3.64 0-3.23.96-4.84 2.88-4.84.96-.01 1.67.39 2.15 1.21zm-3.33.65c-.26.59-.38 1.58-.38 2.98s.13 2.39.38 2.98c.26.59.66.88 1.2.88.53 0 .93-.29 1.18-.88s.39-1.58.39-2.98-.13-2.39-.38-2.98-.65-.88-1.19-.88-.95.28-1.2.88zM630.58 257.2c.49.81.73 2.02.73 3.63 0 1.62-.24 2.84-.73 3.65s-1.2 1.21-2.14 1.21c-.95 0-1.67-.41-2.16-1.22-.49-.81-.73-2.03-.73-3.64 0-3.23.96-4.84 2.88-4.84.95-.01 1.66.39 2.15 1.21zm-3.34.65c-.26.59-.39 1.58-.39 2.98s.13 2.39.39 2.98.66.88 1.2.88c.53 0 .93-.29 1.18-.88s.38-1.58.38-2.98-.12-2.39-.38-2.98c-.25-.59-.65-.88-1.19-.88-.54-.01-.93.28-1.19.88zM637.87 257.2c.49.81.73 2.02.73 3.63 0 1.62-.24 2.84-.73 3.65s-1.2 1.21-2.14 1.21c-.95 0-1.67-.41-2.16-1.22-.49-.81-.73-2.03-.73-3.64 0-3.23.96-4.84 2.88-4.84.95-.01 1.67.39 2.15 1.21zm-3.34.65c-.26.59-.38 1.58-.38 2.98s.13 2.39.38 2.98c.26.59.66.88 1.2.88.53 0 .93-.29 1.18-.88s.39-1.58.39-2.98-.13-2.39-.38-2.98-.65-.88-1.19-.88-.94.28-1.2.88z"/></g><g><path class="st15" d="M657.01 256.13v9.37h-1.25v-8.05l-1.95 1.32-.57-.84 2.66-1.79h1.11zM664.15 257.2c.49.81.73 2.02.73 3.63 0 1.62-.24 2.84-.73 3.65s-1.2 1.21-2.14 1.21c-.95 0-1.67-.41-2.16-1.22-.49-.81-.73-2.03-.73-3.64 0-3.23.96-4.84 2.88-4.84.95-.01 1.66.39 2.15 1.21zm-3.34.65c-.26.59-.38 1.58-.38 2.98s.13 2.39.38 2.98c.26.59.66.88 1.2.88.53 0 .93-.29 1.18-.88s.39-1.58.39-2.98-.13-2.39-.38-2.98-.65-.88-1.19-.88-.95.28-1.2.88z"/></g><g><path class="st15" d="M689.28 256.13v9.37h-1.25v-8.05l-1.95 1.32-.57-.84 2.66-1.79h1.11zM696.63 261.54c.3.4.45.9.45 1.48 0 .52-.12.98-.36 1.39s-.59.71-1.04.94c-.45.22-.98.34-1.58.34-.59 0-1.1-.11-1.55-.33-.44-.22-.78-.53-1.02-.93s-.36-.86-.36-1.37c0-1.16.59-1.99 1.78-2.49-.5-.27-.87-.58-1.09-.92-.22-.34-.34-.76-.34-1.25 0-.5.12-.94.35-1.3s.55-.64.94-.83c.4-.19.83-.28 1.31-.28.75 0 1.37.21 1.87.62.5.41.75.99.75 1.74 0 .48-.12.89-.36 1.23-.24.34-.63.66-1.16.94.64.27 1.11.61 1.41 1.02zm-1.26 2.73c.3-.29.45-.7.45-1.25 0-.5-.12-.88-.37-1.16-.25-.28-.69-.54-1.32-.81l-.39-.15c-.45.23-.78.52-.99.85s-.32.76-.32 1.26c0 .56.15.98.45 1.26.3.28.71.42 1.25.42s.94-.13 1.24-.42zm-2.25-7c-.25.25-.38.62-.38 1.13 0 .42.11.75.31.99.21.24.57.46 1.07.67l.32.14c.39-.26.67-.53.83-.81.16-.27.24-.61.24-1 0-.49-.12-.87-.36-1.11-.24-.25-.58-.37-1.02-.37-.42-.01-.76.11-1.01.36z"/></g><g><path class="st15" d="M432.76 262.18v1.01h-1.06v2.31h-1.2v-2.31h-3.67v-.91l2.51-6.31 1.06.41-2.28 5.81h2.39l.13-2.55h1.06v2.55h1.06zM438.92 257.2c.48.81.73 2.02.73 3.63 0 1.62-.24 2.84-.73 3.65s-1.2 1.21-2.14 1.21c-.95 0-1.67-.41-2.16-1.22-.48-.81-.73-2.03-.73-3.64 0-3.23.96-4.84 2.88-4.84.95-.01 1.66.39 2.15 1.21zm-3.34.65c-.26.59-.38 1.58-.38 2.98s.13 2.39.38 2.98c.26.59.66.88 1.2.88.53 0 .93-.29 1.18-.88.26-.59.38-1.58.38-2.98s-.13-2.39-.38-2.98c-.25-.59-.65-.88-1.19-.88s-.94.28-1.19.88z"/></g><g><path class="st15" d="M463.6 257.11h-3.28v2.8c.44-.26.9-.39 1.37-.39.72 0 1.3.26 1.74.78.44.52.66 1.25.66 2.17 0 .63-.12 1.18-.37 1.67s-.6.86-1.04 1.13c-.45.27-.97.41-1.57.41-.53 0-1-.1-1.41-.31s-.79-.51-1.16-.91l.74-.67c.27.29.55.51.83.65s.6.22.97.22c.54 0 .96-.19 1.26-.57.3-.38.45-.92.45-1.63 0-1.33-.5-2-1.51-2-.22 0-.43.03-.62.09s-.4.16-.63.29h-.91v-4.7h4.65l-.17.97zM470.45 257.2c.49.81.73 2.02.73 3.63 0 1.62-.24 2.84-.73 3.65s-1.2 1.21-2.14 1.21c-.95 0-1.67-.41-2.16-1.22-.49-.81-.73-2.03-.73-3.64 0-3.23.96-4.84 2.88-4.84.95-.01 1.66.39 2.15 1.21zm-3.34.65c-.26.59-.39 1.58-.39 2.98s.13 2.39.39 2.98c.26.59.66.88 1.2.88.53 0 .93-.29 1.18-.88s.38-1.58.38-2.98-.13-2.39-.38-2.98-.65-.88-1.19-.88c-.53-.01-.93.28-1.19.88z"/></g><g><path class="st15" d="M495.02 259.67c.35.22.63.56.83 1.01.21.45.31.99.31 1.64 0 .69-.11 1.29-.34 1.8-.23.51-.55.9-.96 1.16-.41.27-.88.4-1.41.4-1 0-1.73-.39-2.21-1.18s-.71-1.89-.71-3.3c0-1.07.13-2 .4-2.79.27-.78.65-1.39 1.15-1.81s1.08-.63 1.76-.63c.65 0 1.23.19 1.74.57l-.49.8c-.39-.26-.8-.39-1.22-.39-.61 0-1.09.32-1.45.95s-.56 1.51-.61 2.63c.53-.8 1.21-1.2 2.04-1.2.43.01.82.12 1.17.34zm-.49 4.42c.25-.41.37-.99.37-1.74 0-.72-.12-1.24-.36-1.57a1.13 1.13 0 00-.97-.49c-.35 0-.67.12-.97.35-.3.23-.57.56-.79.97.02 1.07.16 1.86.41 2.35.26.5.66.74 1.21.74.48 0 .85-.2 1.1-.61zM502.5 257.2c.49.81.73 2.02.73 3.63 0 1.62-.24 2.84-.73 3.65s-1.2 1.21-2.14 1.21c-.95 0-1.67-.41-2.16-1.22-.49-.81-.73-2.03-.73-3.64 0-3.23.96-4.84 2.88-4.84.95-.01 1.66.39 2.15 1.21zm-3.34.65c-.26.59-.39 1.58-.39 2.98s.13 2.39.39 2.98.66.88 1.2.88c.53 0 .93-.29 1.18-.88s.38-1.58.38-2.98-.12-2.39-.38-2.98c-.25-.59-.65-.88-1.19-.88-.53-.01-.93.28-1.19.88z"/></g><g><path class="st15" d="M527.12 256.13v.92l-3.21 8.58-1.13-.36 3.08-8.13h-3.75v-1.01h5.01zM533.28 257.2c.49.81.73 2.02.73 3.63 0 1.62-.24 2.84-.73 3.65s-1.2 1.21-2.14 1.21c-.95 0-1.67-.41-2.16-1.22-.49-.81-.73-2.03-.73-3.64 0-3.23.96-4.84 2.88-4.84.95-.01 1.66.39 2.15 1.21zm-3.34.65c-.26.59-.39 1.58-.39 2.98s.13 2.39.39 2.98c.26.59.66.88 1.2.88.53 0 .93-.29 1.18-.88s.38-1.58.38-2.98-.13-2.39-.38-2.98-.65-.88-1.19-.88c-.54-.01-.94.28-1.19.88z"/></g><g><path class="st15" d="M558.6 261.54c.3.4.45.9.45 1.48 0 .52-.12.98-.36 1.39s-.59.71-1.04.94c-.45.22-.98.34-1.58.34-.59 0-1.1-.11-1.55-.33-.44-.22-.78-.53-1.02-.93s-.36-.86-.36-1.37c0-1.16.59-1.99 1.78-2.49-.5-.27-.87-.58-1.09-.92-.22-.34-.34-.76-.34-1.25 0-.5.12-.94.35-1.3s.55-.64.94-.83c.4-.19.83-.28 1.31-.28.75 0 1.37.21 1.87.62.5.41.75.99.75 1.74 0 .48-.12.89-.36 1.23-.24.34-.63.66-1.16.94.63.27 1.11.61 1.41 1.02zm-1.26 2.73c.3-.29.45-.7.45-1.25 0-.5-.12-.88-.37-1.16-.25-.28-.69-.54-1.32-.81l-.39-.15c-.45.23-.78.52-.99.85s-.32.76-.32 1.26c0 .56.15.98.45 1.26.3.28.71.42 1.25.42s.94-.13 1.24-.42zm-2.26-7c-.25.25-.38.62-.38 1.13 0 .42.11.75.31.99.21.24.57.46 1.07.67l.32.14c.39-.26.67-.53.83-.81.16-.27.24-.61.24-1 0-.49-.12-.87-.36-1.11-.24-.25-.58-.37-1.02-.37-.42-.01-.76.11-1.01.36zM565.39 257.2c.49.81.73 2.02.73 3.63 0 1.62-.24 2.84-.73 3.65s-1.2 1.21-2.14 1.21c-.95 0-1.67-.41-2.16-1.22-.49-.81-.73-2.03-.73-3.64 0-3.23.96-4.84 2.88-4.84.95-.01 1.66.39 2.15 1.21zm-3.34.65c-.26.59-.39 1.58-.39 2.98s.13 2.39.39 2.98.66.88 1.2.88c.53 0 .93-.29 1.18-.88s.38-1.58.38-2.98-.12-2.39-.38-2.98c-.25-.59-.65-.88-1.19-.88-.54-.01-.94.28-1.19.88z"/></g><g><path class="st15" d="M590.14 256.94c.47.64.71 1.55.71 2.73 0 1.24-.17 2.26-.5 3.04-.34.79-.84 1.42-1.5 1.89-.67.47-1.55.87-2.65 1.2l-.28-.92c1.14-.35 2-.83 2.6-1.42s.94-1.41 1.03-2.46c-.23.34-.51.6-.83.79s-.68.29-1.08.29c-.43 0-.83-.12-1.19-.36s-.65-.59-.86-1.04c-.21-.45-.31-.98-.31-1.59 0-.65.12-1.21.36-1.68s.57-.82.99-1.06c.42-.24.9-.36 1.43-.36.9-.01 1.6.31 2.08.95zm-.59 3c.01-1.07-.11-1.84-.34-2.3s-.63-.69-1.17-.69c-.49 0-.86.18-1.13.54s-.41.9-.41 1.62c0 .66.13 1.17.38 1.51.25.34.6.52 1.04.52.63-.01 1.18-.41 1.63-1.2zM597.3 257.2c.49.81.73 2.02.73 3.63 0 1.62-.24 2.84-.73 3.65s-1.2 1.21-2.14 1.21c-.95 0-1.67-.41-2.16-1.22-.49-.81-.73-2.03-.73-3.64 0-3.23.96-4.84 2.88-4.84.95-.01 1.66.39 2.15 1.21zm-3.34.65c-.26.59-.38 1.58-.38 2.98s.13 2.39.38 2.98c.26.59.66.88 1.2.88.53 0 .93-.29 1.18-.88s.39-1.58.39-2.98-.13-2.39-.38-2.98-.65-.88-1.19-.88-.95.28-1.2.88z"/></g><g><path class="st15" d="M53.45 194.12c.39.22.68.52.89.9.21.38.31.8.31 1.28 0 .57-.11 1.11-.33 1.62-.22.51-.57 1.08-1.06 1.7-.49.63-1.23 1.51-2.24 2.66h3.84l-.15 1.04h-5.07v-.98c1.08-1.25 1.87-2.2 2.37-2.84.5-.64.85-1.2 1.04-1.66.2-.46.29-.95.29-1.46 0-.49-.12-.88-.37-1.15-.25-.27-.58-.41-1-.41-.35 0-.66.08-.92.24-.26.16-.53.41-.81.76l-.78-.6c.68-.94 1.55-1.41 2.62-1.41.53-.02.98.09 1.37.31zM61.2 195.01c.48.81.73 2.02.73 3.63 0 1.62-.24 2.84-.73 3.65s-1.2 1.21-2.14 1.21c-.95 0-1.67-.41-2.16-1.22-.48-.81-.73-2.03-.73-3.64 0-3.23.96-4.84 2.88-4.84.95-.01 1.67.39 2.15 1.21zm-3.34.65c-.26.59-.38 1.58-.38 2.98s.13 2.39.38 2.98c.26.59.66.88 1.2.88.53 0 .93-.29 1.18-.88.26-.59.38-1.58.38-2.98s-.13-2.39-.38-2.98c-.25-.59-.65-.88-1.19-.88s-.93.28-1.19.88z"/></g><g><path class="st15" d="M55.64 157.27v1.01h-1.06v2.31h-1.2v-2.31h-3.67v-.91l2.51-6.31 1.06.41-2.28 5.8h2.39l.13-2.55h1.06v2.55h1.06zM61.8 152.28c.49.81.73 2.02.73 3.63 0 1.62-.24 2.84-.73 3.65s-1.2 1.21-2.14 1.21c-.95 0-1.67-.41-2.16-1.22-.49-.81-.73-2.03-.73-3.64 0-3.23.96-4.84 2.88-4.84.95 0 1.67.4 2.15 1.21zm-3.34.66c-.26.59-.39 1.58-.39 2.98s.13 2.39.39 2.98.66.88 1.2.88c.53 0 .93-.29 1.18-.88s.38-1.58.38-2.98-.12-2.39-.38-2.98c-.25-.59-.65-.88-1.19-.88-.53-.01-.93.28-1.19.88z"/></g><g><path class="st15" d="M54.49 112.04c.35.22.63.56.83 1.01.21.45.31.99.31 1.64 0 .69-.11 1.29-.34 1.8-.23.51-.55.9-.96 1.16-.41.27-.88.4-1.41.4-1 0-1.73-.39-2.21-1.18s-.71-1.89-.71-3.3c0-1.07.13-2 .4-2.79.27-.78.65-1.39 1.15-1.81s1.08-.63 1.76-.63c.65 0 1.23.19 1.74.57l-.49.8c-.39-.26-.8-.39-1.22-.39-.61 0-1.09.32-1.45.95s-.56 1.51-.61 2.63c.53-.8 1.21-1.2 2.04-1.2.43 0 .82.12 1.17.34zm-.49 4.42c.25-.41.37-.99.37-1.74 0-.72-.12-1.24-.36-1.57a1.13 1.13 0 00-.97-.49c-.35 0-.67.12-.97.35-.3.23-.57.56-.79.97.02 1.07.16 1.86.41 2.35.26.5.66.74 1.21.74.49 0 .85-.21 1.1-.61zM61.97 109.56c.49.81.73 2.02.73 3.63 0 1.62-.24 2.84-.73 3.65s-1.2 1.21-2.14 1.21c-.95 0-1.67-.41-2.16-1.22-.49-.81-.73-2.03-.73-3.64 0-3.23.96-4.84 2.88-4.84.95 0 1.67.4 2.15 1.21zm-3.34.65c-.26.59-.39 1.58-.39 2.98s.13 2.39.39 2.98.66.88 1.2.88c.53 0 .93-.29 1.18-.88s.38-1.58.38-2.98-.12-2.39-.38-2.98c-.25-.59-.65-.88-1.19-.88-.53-.01-.93.29-1.19.88z"/></g><g><path class="st15" d="M55.24 71.18c.3.4.45.9.45 1.48 0 .52-.12.98-.37 1.39-.24.4-.59.71-1.04.94-.45.22-.98.34-1.57.34-.59 0-1.1-.11-1.55-.33-.44-.22-.78-.53-1.02-.93s-.36-.86-.36-1.37c0-1.16.59-1.99 1.78-2.49-.5-.27-.87-.58-1.09-.92-.22-.34-.34-.76-.34-1.25 0-.5.12-.94.35-1.3.23-.36.55-.64.95-.83.4-.19.83-.28 1.31-.28.75 0 1.37.21 1.87.62.5.41.75.99.75 1.74 0 .48-.12.89-.37 1.23-.24.34-.63.66-1.16.94.64.27 1.11.62 1.41 1.02zm-1.26 2.74c.3-.29.45-.7.45-1.25 0-.5-.12-.88-.37-1.16-.25-.28-.69-.54-1.32-.81l-.39-.15c-.45.23-.78.52-.99.85-.21.34-.31.76-.31 1.26 0 .56.15.98.45 1.26.3.28.71.42 1.25.42.51.01.93-.14 1.23-.42zm-2.26-7c-.25.25-.38.62-.38 1.13 0 .42.11.75.32.99.21.24.57.46 1.07.67l.32.14c.39-.26.67-.53.83-.81.16-.27.25-.61.25-1 0-.49-.12-.87-.36-1.11-.24-.25-.58-.37-1.02-.37-.43-.01-.78.11-1.03.36zM62.03 66.84c.48.81.73 2.02.73 3.63 0 1.62-.24 2.84-.73 3.65s-1.2 1.21-2.14 1.21c-.95 0-1.67-.41-2.16-1.22-.49-.81-.73-2.03-.73-3.64 0-3.23.96-4.84 2.88-4.84.95-.01 1.66.4 2.15 1.21zm-3.34.65c-.26.59-.38 1.58-.38 2.98s.13 2.39.38 2.98c.26.59.66.88 1.2.88.53 0 .93-.29 1.18-.88.26-.59.38-1.58.38-2.98s-.13-2.39-.38-2.98c-.25-.59-.65-.88-1.19-.88s-.94.29-1.19.88z"/></g><g><path class="st16" d="M94.72 164.14c.44.25.78.59 1.02 1.02.23.43.35.92.35 1.46 0 .65-.12 1.27-.38 1.85-.25.58-.65 1.23-1.21 1.94s-1.41 1.73-2.56 3.04h4.38l-.18 1.18h-5.79v-1.12c1.24-1.43 2.14-2.51 2.71-3.25.57-.74.97-1.37 1.19-1.9.22-.53.34-1.09.34-1.67 0-.57-.14-1-.42-1.31-.28-.31-.66-.46-1.14-.46-.41 0-.76.09-1.06.27-.3.18-.61.47-.93.86l-.9-.69c.78-1.08 1.78-1.62 2.99-1.62.62.03 1.15.15 1.59.4zM103.82 170.12c.34.46.51 1.02.51 1.7 0 .6-.14 1.13-.42 1.58-.28.46-.67.82-1.19 1.07-.52.26-1.12.38-1.8.38-.67 0-1.26-.13-1.77-.38s-.9-.61-1.17-1.06c-.27-.46-.41-.98-.41-1.57 0-1.32.68-2.27 2.03-2.85-.58-.31-.99-.66-1.25-1.06s-.38-.87-.38-1.42c0-.58.13-1.07.4-1.49s.63-.73 1.08-.94c.45-.21.95-.32 1.5-.32.85 0 1.57.23 2.14.7.57.47.86 1.13.86 1.98 0 .54-.14 1.01-.42 1.41s-.72.75-1.33 1.07c.74.34 1.27.74 1.62 1.2zm-1.44 3.12c.34-.33.51-.8.51-1.43 0-.57-.14-1-.42-1.32-.28-.31-.79-.62-1.51-.92l-.45-.18c-.51.27-.89.59-1.13.98-.24.38-.36.86-.36 1.44 0 .64.17 1.12.51 1.44.34.32.82.48 1.42.48.61 0 1.09-.16 1.43-.49zm-2.58-8c-.29.28-.43.71-.43 1.29 0 .48.12.86.36 1.13.24.27.65.53 1.22.76l.37.16c.45-.3.77-.6.95-.92.19-.31.28-.7.28-1.14 0-.57-.14-.99-.42-1.27-.28-.28-.67-.42-1.17-.42-.48-.01-.87.13-1.16.41z"/></g><g><path class="st16" d="M127.12 162.2c.44.25.78.59 1.02 1.02.24.43.35.92.35 1.46 0 .65-.13 1.27-.38 1.85-.25.58-.65 1.23-1.21 1.94s-1.41 1.73-2.56 3.04h4.38l-.18 1.18h-5.79v-1.12c1.24-1.43 2.14-2.51 2.71-3.25.57-.74.97-1.37 1.19-1.9.22-.53.34-1.09.34-1.67 0-.57-.14-1-.42-1.31-.28-.31-.66-.46-1.14-.46-.41 0-.76.09-1.06.27-.3.18-.61.47-.93.86l-.9-.69c.78-1.08 1.78-1.62 2.99-1.62.62.02 1.14.15 1.59.4zM135.56 162.93c.54.74.81 1.78.81 3.12 0 1.42-.19 2.58-.58 3.48-.38.9-.96 1.62-1.72 2.16s-1.77.99-3.03 1.37l-.32-1.06c1.3-.41 2.29-.95 2.97-1.62.68-.68 1.07-1.61 1.18-2.81-.27.38-.58.69-.95.9-.37.22-.78.33-1.24.33-.49 0-.94-.14-1.36-.42s-.74-.67-.98-1.19c-.24-.52-.36-1.12-.36-1.82 0-.75.14-1.39.42-1.92s.66-.94 1.14-1.22c.48-.28 1.02-.42 1.63-.42 1.05.01 1.85.38 2.39 1.12zm-.66 3.42c.01-1.23-.12-2.1-.39-2.63-.27-.53-.72-.79-1.34-.79-.56 0-.99.21-1.3.62-.31.41-.46 1.03-.46 1.85 0 .76.14 1.33.43 1.73s.68.59 1.18.59c.73-.01 1.36-.46 1.88-1.37z"/></g><g><path class="st16" d="M159.28 157.84c.44.24.77.57 1.01.98.23.41.35.86.35 1.35 0 .68-.18 1.24-.53 1.66-.35.42-.85.71-1.5.86.7.06 1.27.32 1.7.77.43.45.64 1.07.64 1.87 0 .61-.14 1.16-.41 1.65-.27.49-.66.88-1.17 1.17-.51.29-1.1.43-1.77.43-.62 0-1.17-.12-1.66-.36s-.93-.6-1.34-1.1l.86-.74c.33.36.66.63.98.79.33.17.69.25 1.1.25.59 0 1.05-.19 1.4-.57s.52-.9.52-1.56c0-.7-.17-1.21-.52-1.53s-.85-.47-1.5-.47h-.67l.18-1.07h.45c.53 0 .97-.17 1.32-.5.35-.33.52-.81.52-1.42 0-.53-.15-.95-.44-1.25-.29-.3-.7-.45-1.21-.45-.37 0-.72.07-1.03.22-.32.15-.63.38-.95.7l-.75-.77c.83-.85 1.79-1.28 2.88-1.28.59.01 1.1.13 1.54.37zM166.49 157.84c.44.24.77.57 1.01.98.23.41.35.86.35 1.35 0 .68-.18 1.24-.53 1.66-.35.42-.85.71-1.5.86.7.06 1.27.32 1.7.77.43.45.64 1.07.64 1.87 0 .61-.14 1.16-.41 1.65-.27.49-.66.88-1.17 1.17s-1.1.43-1.77.43c-.62 0-1.17-.12-1.66-.36s-.93-.6-1.34-1.1l.86-.74c.33.36.66.63.98.79.32.17.69.25 1.1.25.59 0 1.05-.19 1.4-.57s.52-.9.52-1.56c0-.7-.17-1.21-.52-1.53s-.84-.47-1.5-.47H164l.18-1.07h.45c.53 0 .97-.17 1.32-.5.35-.33.52-.81.52-1.42 0-.53-.15-.95-.44-1.25-.29-.3-.7-.45-1.21-.45-.37 0-.72.07-1.03.22s-.63.38-.95.7l-.75-.77c.83-.85 1.79-1.28 2.88-1.28.57.01 1.09.13 1.52.37z"/></g><g><path class="st16" d="M191.05 154.13c.44.24.77.57 1.01.98.23.41.35.86.35 1.35 0 .68-.18 1.24-.53 1.66-.35.42-.85.71-1.5.86.7.06 1.27.32 1.7.77s.64 1.07.64 1.87c0 .61-.14 1.16-.41 1.65-.27.49-.66.88-1.17 1.17-.51.29-1.1.43-1.77.43-.62 0-1.17-.12-1.66-.36s-.93-.6-1.34-1.1l.86-.74c.33.36.66.63.98.79.33.17.69.25 1.1.25.59 0 1.05-.19 1.4-.57s.52-.9.52-1.56c0-.7-.17-1.21-.52-1.53s-.84-.47-1.5-.47h-.67l.18-1.07h.45c.53 0 .97-.17 1.32-.5.35-.33.52-.81.52-1.42 0-.53-.15-.95-.44-1.25-.29-.3-.7-.45-1.21-.45-.37 0-.72.07-1.03.22s-.63.38-.95.7l-.75-.77c.83-.85 1.79-1.28 2.88-1.28.59.01 1.1.13 1.54.37zM198.26 154.13c.44.24.77.57 1.01.98.23.41.35.86.35 1.35 0 .68-.18 1.24-.53 1.66-.35.42-.85.71-1.5.86.7.06 1.27.32 1.7.77s.64 1.07.64 1.87c0 .61-.14 1.16-.41 1.65-.27.49-.66.88-1.17 1.17-.51.29-1.1.43-1.77.43-.62 0-1.17-.12-1.66-.36s-.93-.6-1.34-1.1l.86-.74c.33.36.66.63.98.79.33.17.69.25 1.1.25.59 0 1.05-.19 1.4-.57s.52-.9.52-1.56c0-.7-.17-1.21-.52-1.53s-.84-.47-1.5-.47h-.67l.18-1.07h.45c.53 0 .97-.17 1.32-.5.35-.33.52-.81.52-1.42 0-.53-.15-.95-.44-1.25-.29-.3-.7-.45-1.21-.45-.37 0-.72.07-1.03.22s-.63.38-.95.7l-.75-.77c.83-.85 1.79-1.28 2.88-1.28.59.01 1.11.13 1.54.37z"/></g><g><path class="st16" d="M222.82 151.32c.44.24.77.57 1.01.98.23.41.35.86.35 1.35 0 .68-.18 1.24-.53 1.66-.35.42-.85.71-1.5.86.7.06 1.27.32 1.7.77s.64 1.07.64 1.87c0 .61-.14 1.16-.41 1.65-.27.49-.66.88-1.17 1.17-.51.29-1.1.43-1.77.43-.62 0-1.17-.12-1.66-.36s-.93-.6-1.34-1.1l.86-.74c.33.36.66.63.98.79.33.17.69.25 1.1.25.59 0 1.05-.19 1.4-.57s.52-.9.52-1.56c0-.7-.17-1.21-.52-1.53s-.84-.47-1.5-.47h-.67l.18-1.07h.45c.53 0 .97-.17 1.32-.5.35-.33.52-.81.52-1.42 0-.53-.15-.95-.44-1.25-.29-.3-.7-.45-1.21-.45-.37 0-.72.07-1.03.22s-.63.38-.95.7l-.75-.77c.83-.85 1.79-1.28 2.88-1.28.59.01 1.1.13 1.54.37zM231.23 155.18c.4.26.72.64.95 1.15.23.51.35 1.14.35 1.87 0 .79-.13 1.47-.39 2.06-.26.58-.63 1.02-1.1 1.33-.47.3-1.01.46-1.62.46-1.14 0-1.98-.45-2.52-1.35-.54-.9-.81-2.16-.81-3.77 0-1.23.15-2.29.46-3.18.3-.9.74-1.58 1.31-2.06.57-.48 1.24-.72 2.01-.72.75 0 1.41.22 1.98.66l-.56.91c-.45-.3-.91-.45-1.39-.45-.69 0-1.25.36-1.66 1.09-.41.73-.64 1.73-.7 3.01.61-.92 1.39-1.38 2.34-1.38.5-.01.95.12 1.35.37zm-.56 5.05c.28-.46.42-1.13.42-1.99 0-.82-.14-1.42-.41-1.79-.27-.37-.64-.56-1.11-.56-.39 0-.77.13-1.11.4-.35.27-.65.63-.9 1.1.02 1.23.18 2.12.47 2.69s.75.85 1.38.85c.56 0 .97-.23 1.26-.7z"/></g><g><path class="st16" d="M255.31 151.32c.44.24.77.57 1.01.98.23.41.35.86.35 1.35 0 .68-.18 1.24-.53 1.66-.35.42-.85.71-1.5.86.7.06 1.27.32 1.7.77s.64 1.07.64 1.87c0 .61-.14 1.16-.41 1.65-.27.49-.66.88-1.17 1.17s-1.1.43-1.77.43c-.62 0-1.17-.12-1.66-.36s-.93-.6-1.34-1.1l.86-.74c.33.36.66.63.98.79.33.17.69.25 1.1.25.59 0 1.05-.19 1.4-.57s.52-.9.52-1.56c0-.7-.17-1.21-.52-1.53s-.85-.47-1.5-.47h-.67l.18-1.07h.45c.53 0 .97-.17 1.32-.5.35-.33.52-.81.52-1.42 0-.53-.15-.95-.44-1.25-.29-.3-.7-.45-1.21-.45-.37 0-.72.07-1.03.22-.32.15-.63.38-.95.7l-.75-.77c.83-.85 1.79-1.28 2.88-1.28.59.01 1.1.13 1.54.37zM263.85 152.26h-3.74v3.2c.5-.3 1.02-.45 1.57-.45.82 0 1.48.3 1.98.9.5.6.75 1.42.75 2.48 0 .71-.14 1.35-.42 1.9-.28.55-.68.99-1.19 1.3-.51.31-1.11.46-1.79.46-.61 0-1.14-.12-1.61-.35-.46-.24-.9-.58-1.32-1.04l.85-.77c.31.33.62.58.94.74s.69.25 1.1.25c.62 0 1.1-.22 1.44-.65.34-.43.51-1.05.51-1.86 0-1.53-.58-2.29-1.73-2.29-.26 0-.49.03-.7.1-.21.07-.45.18-.72.33h-1.04v-5.38h5.31l-.19 1.13z"/></g><g><path class="st16" d="M287.21 151.32c.44.24.77.57 1.01.98.23.41.35.86.35 1.35 0 .68-.18 1.24-.53 1.66-.35.42-.85.71-1.5.86.7.06 1.27.32 1.7.77s.64 1.07.64 1.87c0 .61-.14 1.16-.41 1.65-.27.49-.66.88-1.17 1.17-.51.29-1.1.43-1.77.43-.62 0-1.17-.12-1.66-.36s-.93-.6-1.34-1.1l.86-.74c.33.36.66.63.98.79.33.17.69.25 1.1.25.59 0 1.05-.19 1.4-.57s.52-.9.52-1.56c0-.7-.17-1.21-.52-1.53s-.84-.47-1.5-.47h-.67l.18-1.07h.45c.53 0 .97-.17 1.32-.5.35-.33.52-.81.52-1.42 0-.53-.15-.95-.44-1.25-.29-.3-.7-.45-1.21-.45-.37 0-.72.07-1.03.22s-.63.38-.95.7l-.75-.77c.83-.85 1.79-1.28 2.88-1.28.59.01 1.1.13 1.54.37zM295.75 152.26h-3.74v3.2c.5-.3 1.02-.45 1.57-.45.82 0 1.48.3 1.98.9.5.6.75 1.42.75 2.48 0 .71-.14 1.35-.42 1.9-.28.55-.68.99-1.19 1.3s-1.11.46-1.79.46c-.61 0-1.14-.12-1.61-.35-.46-.24-.9-.58-1.32-1.04l.85-.77c.31.33.62.58.94.74.32.17.69.25 1.1.25.62 0 1.1-.22 1.44-.65.34-.43.51-1.05.51-1.86 0-1.53-.58-2.29-1.73-2.29-.26 0-.49.03-.7.1-.21.07-.45.18-.72.33h-1.04v-5.38h5.31l-.19 1.13z"/></g><g><path class="st16" d="M321.62 147.19v1.15h-1.22v2.64h-1.38v-2.64h-4.19v-1.04l2.86-7.22 1.22.46-2.61 6.64h2.74l.14-2.91h1.22v2.91h1.22zM328.66 141.49c.55.93.83 2.31.83 4.14 0 1.86-.28 3.25-.83 4.17s-1.37 1.38-2.45 1.38c-1.09 0-1.91-.46-2.46-1.39-.55-.93-.83-2.31-.83-4.16 0-3.69 1.1-5.54 3.3-5.54 1.07.01 1.88.47 2.44 1.4zm-3.82.74c-.29.68-.44 1.81-.44 3.4 0 1.6.15 2.74.44 3.41.29.67.75 1.01 1.37 1.01.61 0 1.06-.34 1.35-1.01.29-.67.44-1.81.44-3.41s-.14-2.74-.43-3.41-.74-1.01-1.36-1.01-1.07.35-1.37 1.02z"/></g><g><path class="st16" d="M355.04 136.79v1.15h-1.22v2.64h-1.38v-2.64h-4.19v-1.04l2.86-7.22 1.22.46-2.61 6.64h2.74l.14-2.91h1.22v2.91h1.22zM361.6 131h-3.74v3.2c.5-.3 1.02-.45 1.57-.45.82 0 1.48.3 1.98.9.5.6.75 1.42.75 2.48 0 .71-.14 1.35-.42 1.9-.28.55-.68.99-1.19 1.3s-1.11.46-1.79.46c-.61 0-1.14-.12-1.61-.35-.46-.24-.9-.58-1.32-1.04l.85-.77c.31.33.62.58.94.74.32.17.69.25 1.1.25.62 0 1.1-.22 1.44-.65.34-.43.51-1.05.51-1.86 0-1.53-.58-2.29-1.73-2.29-.26 0-.49.03-.7.1-.21.07-.45.18-.72.33h-1.04v-5.38h5.31l-.19 1.13z"/></g><g><path class="st16" d="M386.47 128.23v1.15h-1.22v2.64h-1.38v-2.64h-4.19v-1.04l2.86-7.22 1.22.46-2.61 6.64h2.74l.14-2.91h1.22v2.91h1.22zM393.1 122.25c.54.74.81 1.78.81 3.12 0 1.42-.19 2.58-.58 3.48-.38.9-.96 1.62-1.72 2.16s-1.77.99-3.03 1.37l-.32-1.06c1.3-.41 2.29-.95 2.97-1.62.68-.68 1.07-1.61 1.18-2.81-.27.38-.58.69-.95.9-.37.22-.78.33-1.24.33-.49 0-.94-.14-1.36-.42s-.74-.67-.98-1.19c-.24-.52-.36-1.12-.36-1.82 0-.75.14-1.39.42-1.92s.66-.94 1.14-1.22c.48-.28 1.02-.42 1.63-.42 1.05.02 1.85.39 2.39 1.12zm-.67 3.43c.01-1.23-.12-2.1-.39-2.63-.27-.53-.72-.79-1.34-.79-.56 0-.99.21-1.3.62-.31.41-.46 1.03-.46 1.85 0 .76.14 1.33.43 1.73s.68.59 1.18.59c.74-.02 1.36-.47 1.88-1.37z"/></g><g><path class="st16" d="M418.14 109.47h-3.74v3.2c.5-.3 1.02-.45 1.57-.45.82 0 1.48.3 1.98.9.5.6.75 1.42.75 2.48 0 .71-.14 1.35-.42 1.9-.28.55-.68.99-1.19 1.3s-1.11.46-1.79.46c-.61 0-1.14-.12-1.61-.35-.46-.24-.9-.58-1.32-1.04l.85-.77c.31.33.62.58.94.74.32.17.69.25 1.1.25.62 0 1.1-.22 1.44-.65.34-.43.51-1.05.51-1.86 0-1.53-.58-2.29-1.73-2.29-.26 0-.49.03-.7.1-.21.07-.45.18-.72.33h-1.04v-5.38h5.31l-.19 1.13zM425.35 112.4c.4.26.72.64.95 1.15s.35 1.14.35 1.87c0 .79-.13 1.47-.39 2.06-.26.58-.63 1.02-1.1 1.33s-1.01.46-1.62.46c-1.14 0-1.98-.45-2.52-1.35-.54-.9-.81-2.16-.81-3.77 0-1.23.15-2.29.46-3.18.3-.9.74-1.58 1.31-2.06.57-.48 1.24-.72 2.01-.72.75 0 1.41.22 1.98.66l-.56.91c-.45-.3-.91-.45-1.39-.45-.69 0-1.25.36-1.66 1.09-.41.73-.64 1.73-.7 3.01.61-.92 1.39-1.38 2.34-1.38.5-.01.95.12 1.35.37zm-.56 5.05c.28-.46.42-1.13.42-1.99 0-.82-.14-1.42-.41-1.79-.27-.37-.64-.56-1.11-.56-.4 0-.77.13-1.11.4s-.65.63-.9 1.1c.02 1.23.18 2.12.47 2.69.29.57.75.85 1.38.85.56 0 .98-.24 1.26-.7z"/></g><g><path class="st16" d="M451.76 102.61h-3.74v3.2c.5-.3 1.02-.45 1.57-.45.82 0 1.48.3 1.98.9.5.6.75 1.42.75 2.48 0 .71-.14 1.35-.42 1.9-.28.55-.68.99-1.19 1.3-.51.31-1.11.46-1.79.46-.61 0-1.14-.12-1.61-.35-.46-.24-.9-.58-1.32-1.04l.85-.77c.31.33.62.58.94.74s.69.25 1.1.25c.62 0 1.1-.22 1.44-.65.34-.43.51-1.05.51-1.86 0-1.53-.58-2.29-1.73-2.29-.26 0-.49.03-.7.1-.21.07-.45.18-.72.33h-1.04v-5.38h5.31l-.19 1.13zM459.18 102.42c.54.74.81 1.78.81 3.12 0 1.42-.19 2.58-.58 3.48-.38.9-.96 1.62-1.72 2.16s-1.77.99-3.03 1.37l-.32-1.06c1.3-.41 2.29-.95 2.97-1.62.68-.68 1.07-1.61 1.18-2.81-.27.38-.58.69-.95.9-.37.22-.78.33-1.24.33-.49 0-.94-.14-1.36-.42s-.74-.67-.98-1.19c-.24-.52-.36-1.12-.36-1.82 0-.75.14-1.39.42-1.92s.66-.94 1.14-1.22c.48-.28 1.02-.42 1.63-.42 1.04.02 1.85.38 2.39 1.12zm-.67 3.42c.01-1.23-.12-2.1-.39-2.63-.27-.53-.72-.79-1.34-.79-.56 0-.99.21-1.3.62-.31.41-.46 1.03-.46 1.85 0 .76.14 1.33.43 1.73s.68.59 1.18.59c.73-.01 1.36-.46 1.88-1.37z"/></g><g><path class="st16" d="M481.08 92.68c.4.26.72.64.95 1.15s.35 1.14.35 1.87c0 .79-.13 1.47-.39 2.06-.26.58-.63 1.02-1.1 1.33s-1.01.46-1.62.46c-1.14 0-1.98-.45-2.52-1.35-.54-.9-.81-2.16-.81-3.77 0-1.23.15-2.29.46-3.18.3-.9.74-1.58 1.31-2.06.57-.48 1.24-.72 2.01-.72.75 0 1.41.22 1.98.66l-.56.91c-.45-.3-.91-.45-1.39-.45-.69 0-1.25.36-1.66 1.09-.41.73-.64 1.73-.7 3.01.61-.92 1.39-1.38 2.34-1.38.51-.02.95.11 1.35.37zm-.56 5.04c.28-.46.42-1.13.42-1.99 0-.82-.14-1.42-.41-1.79-.27-.37-.64-.56-1.11-.56-.4 0-.77.13-1.11.4s-.65.63-.9 1.1c.02 1.23.18 2.12.47 2.69s.75.85 1.38.85c.56 0 .98-.23 1.26-.7zM489.15 89.75h-3.74v3.2c.5-.3 1.02-.45 1.57-.45.82 0 1.48.3 1.98.9.5.6.75 1.42.75 2.48 0 .71-.14 1.35-.42 1.9s-.68.99-1.19 1.3-1.11.46-1.79.46c-.61 0-1.14-.12-1.61-.35-.46-.24-.9-.58-1.32-1.04l.85-.77c.31.33.62.58.95.74.32.17.69.25 1.1.25.62 0 1.1-.22 1.44-.65.34-.43.51-1.05.51-1.86 0-1.53-.58-2.29-1.73-2.29-.26 0-.49.03-.7.1s-.45.18-.72.33h-1.04v-5.38h5.31l-.2 1.13z"/></g><g><path class="st16" d="M516.76 75.27v1.06l-3.66 9.81-1.3-.42 3.52-9.3h-4.29v-1.15h5.73zM523.8 76.48c.55.93.83 2.31.83 4.14 0 1.86-.28 3.25-.83 4.17s-1.37 1.38-2.45 1.38c-1.09 0-1.91-.46-2.46-1.39-.55-.93-.83-2.31-.83-4.16 0-3.69 1.1-5.54 3.3-5.54 1.07.01 1.88.47 2.44 1.4zm-3.82.75c-.29.68-.44 1.81-.44 3.4 0 1.6.15 2.74.44 3.41.29.67.75 1.01 1.37 1.01.61 0 1.06-.34 1.35-1.01.29-.67.44-1.81.44-3.41s-.14-2.74-.43-3.41-.74-1.01-1.36-1.01c-.62 0-1.08.34-1.37 1.02z"/></g><g><path class="st16" d="M548.91 75.27v1.06l-3.66 9.81-1.3-.42 3.52-9.3h-4.29v-1.15h5.73zM555.95 76.48c.55.93.83 2.31.83 4.14 0 1.86-.28 3.25-.83 4.17s-1.37 1.38-2.45 1.38c-1.09 0-1.91-.46-2.46-1.39-.55-.93-.83-2.31-.83-4.16 0-3.69 1.1-5.54 3.3-5.54 1.07.01 1.89.47 2.44 1.4zm-3.81.75c-.29.68-.44 1.81-.44 3.4 0 1.6.15 2.74.44 3.41.29.67.75 1.01 1.37 1.01.61 0 1.06-.34 1.35-1.01.29-.67.44-1.81.44-3.41s-.14-2.74-.43-3.41-.74-1.01-1.36-1.01c-.62 0-1.08.34-1.37 1.02z"/></g><g><path class="st16" d="M581.07 75.27v1.06l-3.66 9.81-1.3-.42 3.52-9.3h-4.29v-1.15h5.73zM586.19 75.27v10.7h-1.42v-9.2l-2.22 1.5-.66-.96 3.04-2.05h1.26z"/></g><g><path class="st16" d="M611.13 70.87v1.06l-3.66 9.81-1.3-.42 3.52-9.3h-4.29v-1.15h5.73zM616.37 71.07c.44.25.78.59 1.02 1.02.24.43.35.92.35 1.46 0 .65-.13 1.27-.38 1.85-.25.58-.65 1.23-1.21 1.94s-1.41 1.73-2.56 3.04h4.38l-.18 1.18H612v-1.12c1.24-1.43 2.14-2.51 2.71-3.25.57-.74.97-1.37 1.19-1.9.22-.53.34-1.09.34-1.67 0-.57-.14-1-.42-1.31-.28-.31-.66-.46-1.14-.46-.41 0-.76.09-1.06.27-.3.18-.61.47-.93.86l-.9-.69c.78-1.08 1.78-1.62 2.99-1.62.62.02 1.14.15 1.59.4z"/></g><g><path class="st16" d="M642 66.52v1.06l-3.66 9.81-1.3-.42 3.52-9.3h-4.29v-1.15H642zM648.56 67.64h-3.74v3.2c.5-.3 1.02-.45 1.57-.45.82 0 1.48.3 1.98.9.5.6.75 1.42.75 2.48 0 .71-.14 1.35-.42 1.9-.28.55-.68.99-1.19 1.3s-1.11.46-1.79.46c-.61 0-1.14-.12-1.61-.35-.46-.24-.9-.58-1.32-1.04l.85-.77c.31.33.62.58.94.74.32.17.69.25 1.1.25.62 0 1.1-.22 1.44-.65.34-.43.51-1.05.51-1.86 0-1.53-.58-2.29-1.73-2.29-.26 0-.49.03-.7.1-.21.07-.45.18-.72.33h-1.04v-5.38h5.31l-.19 1.13z"/></g><g><path class="st16" d="M673.16 62.12v1.06l-3.66 9.81-1.3-.42 3.52-9.3h-4.29v-1.15h5.73zM679.59 66.17c.4.26.72.64.95 1.15s.35 1.14.35 1.87c0 .79-.13 1.47-.39 2.06-.26.58-.63 1.02-1.1 1.33-.47.3-1.01.46-1.62.46-1.14 0-1.98-.45-2.52-1.35s-.81-2.16-.81-3.77c0-1.23.15-2.29.46-3.18.3-.9.74-1.58 1.31-2.06.57-.48 1.24-.72 2.01-.72.75 0 1.41.22 1.98.66l-.56.91c-.45-.3-.91-.45-1.39-.45-.69 0-1.25.36-1.66 1.09s-.64 1.73-.7 3.01c.61-.92 1.39-1.38 2.34-1.38.5-.02.95.11 1.35.37zm-.56 5.04c.28-.46.42-1.13.42-1.99 0-.82-.14-1.42-.41-1.79-.27-.37-.64-.56-1.11-.56-.39 0-.77.13-1.11.4-.35.27-.65.63-.9 1.1.02 1.23.18 2.12.47 2.69.29.57.75.85 1.38.85.56 0 .97-.23 1.26-.7z"/></g><g><path class="st16" d="M704.92 57.77v1.06l-3.66 9.81-1.3-.42 3.52-9.3h-4.29v-1.15h5.73zM711.55 58.7c.54.74.81 1.78.81 3.12 0 1.42-.19 2.58-.58 3.48s-.96 1.62-1.72 2.16-1.77.99-3.03 1.37l-.32-1.06c1.3-.41 2.29-.95 2.97-1.62.68-.68 1.07-1.61 1.18-2.81-.27.38-.58.69-.95.9-.37.22-.78.33-1.24.33-.49 0-.94-.14-1.36-.42s-.74-.67-.98-1.19-.36-1.12-.36-1.82c0-.75.14-1.39.42-1.92s.66-.94 1.14-1.22c.48-.28 1.02-.42 1.63-.42 1.05.02 1.85.39 2.39 1.12zm-.66 3.43c.01-1.23-.12-2.1-.39-2.63-.27-.53-.72-.79-1.34-.79-.55 0-.99.21-1.3.62-.31.41-.46 1.03-.46 1.85 0 .76.14 1.33.43 1.73s.68.59 1.18.59c.73-.02 1.35-.47 1.88-1.37z"/></g><g><path d="M347.36 43.47v1.04L343.02 52h4.33l-.14 1.11h-5.61v-1.04l4.37-7.52h-3.93v-1.08h5.32zM353.49 52.09c.08.14.21.25.39.33l-.27.85c-.36-.06-.65-.17-.85-.34s-.35-.42-.43-.77c-.48.75-1.14 1.12-2 1.12-.65 0-1.17-.2-1.55-.61-.38-.41-.57-.95-.57-1.63 0-.78.26-1.38.77-1.79.51-.41 1.25-.62 2.2-.62h.95V48c0-.51-.11-.88-.32-1.11-.21-.23-.55-.34-1.03-.34-.51 0-1.11.13-1.79.39l-.31-.88c.82-.34 1.59-.5 2.3-.5 1.6 0 2.39.8 2.39 2.39v3.47c-.01.3.03.52.12.67zm-1.37-.91v-1.74h-.81c-1.21 0-1.82.51-1.82 1.53 0 .44.1.77.29 1.01.2.23.48.35.84.35.65 0 1.15-.38 1.5-1.15zM363.09 46.4l-.53.74c-.3-.21-.58-.36-.84-.46-.26-.1-.54-.15-.83-.15-.38 0-.68.09-.9.27s-.33.43-.33.75c0 .31.11.55.32.73.21.18.61.36 1.2.55.74.23 1.27.52 1.61.85s.5.8.5 1.39c0 .69-.25 1.23-.76 1.63s-1.13.59-1.89.59c-1 0-1.84-.33-2.53-.99l.64-.7c.59.48 1.21.71 1.86.71.41 0 .74-.1.99-.31s.38-.49.38-.85c0-.26-.04-.47-.13-.63-.09-.16-.25-.3-.48-.43-.23-.13-.56-.26-1-.4-.7-.23-1.2-.51-1.51-.84-.31-.33-.46-.74-.46-1.25 0-.39.1-.74.31-1.05.21-.31.49-.55.85-.73.36-.18.78-.27 1.26-.27.85.01 1.61.29 2.27.85zM368.38 52.78c-.47.34-.99.5-1.55.5-.6 0-1.06-.17-1.38-.52-.32-.35-.48-.83-.48-1.46v-4.62h-1.05v-.95h1.05v-1.69l1.26-.15v1.85h1.62l-.14.95h-1.48v4.61c0 .63.27.95.8.95.16 0 .31-.02.44-.07s.29-.12.46-.21l.45.81zM374.03 46.55c.52.66.78 1.61.78 2.86 0 1.2-.27 2.14-.8 2.83-.53.7-1.26 1.04-2.2 1.04-.94 0-1.68-.34-2.21-1.02s-.79-1.63-.79-2.84c0-1.22.27-2.17.8-2.85s1.27-1.02 2.21-1.02 1.68.34 2.21 1zm-3.46.71c-.29.46-.43 1.18-.43 2.16 0 1.91.56 2.87 1.68 2.87 1.12 0 1.68-.96 1.68-2.88 0-.98-.14-1.7-.42-2.16s-.7-.69-1.25-.69-.97.24-1.26.7zM380.24 52.88c-.26-.27-.39-.65-.39-1.13v-8.99l1.26-.14v9.08c0 .36.15.55.45.55.12 0 .26-.03.41-.08l.28.88c-.3.16-.61.24-.94.24-.45-.01-.81-.14-1.07-.41zM388.68 49.85h-4.28c.04.86.21 1.48.52 1.86.31.38.73.57 1.26.57.34 0 .64-.05.9-.15.27-.1.54-.27.83-.5l.56.74c-.69.62-1.47.92-2.35.92-.96 0-1.71-.33-2.23-1-.53-.67-.79-1.6-.79-2.81s.25-2.16.76-2.86c.5-.71 1.2-1.06 2.1-1.06.89 0 1.57.32 2.04.95.48.63.71 1.53.71 2.69 0 .19-.01.41-.03.65zm-1.19-1.03c0-1.54-.51-2.31-1.53-2.31-.47 0-.83.19-1.11.58-.27.39-.42 1.01-.46 1.88h3.09v-.15zM393.95 52.78c-.47.34-.99.5-1.55.5-.6 0-1.06-.17-1.38-.52-.32-.35-.48-.83-.48-1.46v-4.62h-1.05v-.95h1.05v-1.69l1.26-.15v1.85h1.62l-.14.95h-1.48v4.61c0 .63.27.95.8.95.16 0 .31-.02.44-.07s.29-.12.46-.21l.45.81zM300.29 60.4l-.53.74c-.3-.21-.58-.36-.84-.46s-.54-.15-.83-.15c-.38 0-.68.09-.9.27-.22.18-.33.43-.33.75 0 .31.1.55.31.73.21.18.61.36 1.2.55.74.23 1.27.52 1.61.85s.5.8.5 1.39c0 .69-.25 1.23-.76 1.63s-1.13.59-1.89.59c-1 0-1.84-.33-2.53-.99l.64-.7c.59.48 1.21.71 1.86.71.41 0 .74-.1.99-.31s.38-.49.38-.85c0-.26-.04-.47-.13-.63-.09-.16-.25-.3-.48-.43s-.56-.26-1-.4c-.7-.23-1.2-.51-1.51-.84-.31-.33-.46-.74-.46-1.25 0-.39.1-.74.31-1.05.21-.31.49-.55.85-.73.36-.18.78-.27 1.26-.27.86.01 1.62.29 2.28.85zM307.23 63.85h-4.28c.04.86.21 1.48.52 1.86.31.38.73.57 1.26.57.34 0 .64-.05.9-.15.27-.1.54-.27.83-.5l.56.74c-.69.62-1.47.92-2.35.92-.96 0-1.71-.33-2.23-1-.53-.67-.79-1.6-.79-2.81s.25-2.16.76-2.86c.5-.7 1.2-1.06 2.1-1.06.89 0 1.57.31 2.04.95.48.63.71 1.53.71 2.69 0 .19-.01.41-.03.65zm-1.19-1.03c0-1.54-.51-2.31-1.53-2.31-.47 0-.84.19-1.11.58-.27.39-.42 1.01-.46 1.88h3.09v-.15zM316.32 59.74v.94l-3.49 5.39h3.5l-.13 1.04h-4.76v-.94l3.49-5.39h-3.19v-1.04h4.58zM322.97 56.76V67.1h-1.12l-.08-.97c-.48.77-1.12 1.15-1.92 1.15s-1.43-.34-1.87-1.02-.67-1.62-.67-2.81c0-.77.11-1.46.33-2.04.22-.59.53-1.04.93-1.37.4-.32.86-.48 1.39-.48.7 0 1.28.29 1.75.88v-3.82l1.26.14zm-1.96 9.25c.25-.19.48-.46.69-.83v-3.7c-.42-.62-.91-.94-1.47-.94-.5 0-.89.24-1.18.71-.29.48-.43 1.19-.42 2.16 0 .98.13 1.7.39 2.17s.63.7 1.11.7c.35.01.64-.08.88-.27zM330.21 59.74l-2.2 7.36h-1.51l-2.27-7.36h1.32l1.71 6.3 1.69-6.3h1.26zM336.17 60.55c.52.66.78 1.61.78 2.86 0 1.2-.27 2.14-.8 2.83-.53.7-1.26 1.04-2.2 1.04-.94 0-1.68-.34-2.21-1.02s-.79-1.63-.79-2.84c0-1.22.27-2.17.8-2.85s1.27-1.01 2.21-1.01 1.69.33 2.21.99zm-3.46.71c-.29.46-.43 1.18-.43 2.16 0 1.91.56 2.87 1.68 2.87 1.12 0 1.68-.96 1.68-2.88 0-.98-.14-1.7-.42-2.16-.28-.46-.7-.69-1.25-.69s-.97.24-1.26.7zM343.83 67.1h-1.09l-.07-1.1c-.51.86-1.2 1.29-2.06 1.29-.59 0-1.05-.19-1.39-.57s-.5-.9-.5-1.55v-5.42h1.26v5.31c0 .43.08.74.25.94.16.2.41.3.73.3.63 0 1.16-.41 1.61-1.23v-5.32h1.26v7.35zM350.76 60.14c.33.39.5.92.5 1.6v5.36H350v-5.21c0-.48-.08-.82-.24-1.03-.16-.21-.4-.31-.73-.31-.62 0-1.18.44-1.68 1.32v5.24h-1.26v-7.36h1.09l.1 1.09c.57-.85 1.27-1.27 2.1-1.27.59-.01 1.05.18 1.38.57zM358.19 66.09c.08.14.21.25.39.33l-.27.85c-.36-.06-.65-.17-.85-.34s-.35-.42-.43-.77c-.48.75-1.14 1.12-2 1.12-.65 0-1.17-.2-1.55-.61-.38-.41-.57-.95-.57-1.63 0-.78.26-1.38.77-1.79.51-.41 1.25-.62 2.2-.62h.95V62c0-.51-.11-.88-.32-1.11s-.55-.34-1.03-.34c-.51 0-1.11.13-1.79.39l-.31-.88c.82-.34 1.59-.5 2.3-.5 1.6 0 2.39.8 2.39 2.39v3.47c0 .3.04.52.12.67zm-1.61-10.15l.53 1.01-2.69 1.22-.36-.64 2.52-1.59zm.24 9.24v-1.74h-.81c-1.21 0-1.82.51-1.82 1.53 0 .44.1.77.29 1.01.2.23.48.35.84.35.65 0 1.15-.38 1.5-1.15zM364.41 60.4l-.53.74c-.3-.21-.58-.36-.84-.46s-.54-.15-.83-.15c-.38 0-.68.09-.9.27-.22.18-.33.43-.33.75 0 .31.1.55.31.73.21.18.61.36 1.2.55.74.23 1.27.52 1.61.85s.5.8.5 1.39c0 .69-.25 1.23-.76 1.63s-1.13.59-1.89.59c-1 0-1.84-.33-2.53-.99l.64-.7c.59.48 1.21.71 1.86.71.41 0 .74-.1.99-.31s.38-.49.38-.85c0-.26-.04-.47-.13-.63-.09-.16-.25-.3-.48-.43s-.56-.26-1-.4c-.7-.23-1.2-.51-1.51-.84-.31-.33-.46-.74-.46-1.25 0-.39.1-.74.31-1.05.21-.31.49-.55.85-.73.36-.18.78-.27 1.26-.27.86.01 1.61.29 2.28.85zM370.97 60.55c.52.66.78 1.61.78 2.86 0 1.2-.27 2.14-.8 2.83s-1.26 1.04-2.2 1.04c-.94 0-1.68-.34-2.21-1.02s-.79-1.63-.79-2.84c0-1.22.27-2.17.8-2.85.53-.68 1.27-1.01 2.21-1.01.96 0 1.69.33 2.21.99zm-3.46.71c-.29.46-.43 1.18-.43 2.16 0 1.91.56 2.87 1.68 2.87s1.68-.96 1.68-2.88c0-.98-.14-1.7-.42-2.16-.28-.46-.7-.69-1.25-.69s-.97.24-1.26.7zM378.54 60.54c.42.66.64 1.61.64 2.86 0 1.2-.23 2.14-.69 2.83s-1.09 1.04-1.88 1.04c-.37 0-.71-.09-1.02-.26-.31-.17-.57-.42-.8-.73l-.08.81h-1.12V56.77l1.26-.14v4c.23-.34.51-.6.83-.79.32-.19.68-.29 1.07-.29.77.01 1.37.34 1.79.99zm-.68 2.87c0-1.04-.13-1.77-.38-2.21-.25-.43-.61-.65-1.08-.65-.33 0-.61.1-.86.29-.25.2-.48.47-.71.83v3.65c.18.29.39.52.64.7.25.18.53.27.83.27 1.04 0 1.56-.96 1.56-2.88zM382.25 56.5c.15.16.23.35.23.59s-.07.43-.22.58c-.15.15-.35.23-.6.23-.24 0-.44-.08-.6-.23-.15-.15-.23-.35-.23-.58s.08-.43.23-.59c.15-.16.35-.24.6-.24.24.01.44.09.59.24zm.04 3.24v7.36h-1.26v-7.36h1.26zM384.88 66.88c-.26-.27-.39-.65-.39-1.13v-8.99l1.26-.14v9.09c0 .36.15.55.45.55.12 0 .26-.03.41-.08l.28.88c-.3.16-.61.24-.94.24-.46-.02-.81-.15-1.07-.42zM392.9 66.09c.08.14.21.25.39.33l-.27.85c-.36-.06-.65-.17-.85-.34-.21-.17-.35-.42-.43-.77-.48.75-1.14 1.12-2 1.12-.65 0-1.17-.2-1.55-.61-.38-.41-.57-.95-.57-1.63 0-.78.26-1.38.77-1.79.51-.41 1.25-.62 2.2-.62h.95V62c0-.51-.1-.88-.31-1.11s-.55-.34-1.03-.34c-.51 0-1.11.13-1.79.39l-.31-.88c.82-.34 1.59-.5 2.3-.5 1.6 0 2.39.8 2.39 2.39v3.47c-.02.3.02.52.11.67zm-1.38-.91v-1.74h-.81c-1.21 0-1.82.51-1.82 1.53 0 .44.1.77.29 1.01s.48.35.84.35c.66 0 1.16-.38 1.5-1.15zM287.03 74.4l-.53.74c-.3-.21-.58-.36-.84-.46-.26-.1-.54-.15-.83-.15-.38 0-.68.09-.9.27-.22.18-.33.43-.33.75 0 .31.11.55.32.73.21.18.61.36 1.2.55.74.23 1.27.52 1.61.85s.5.8.5 1.39c0 .69-.25 1.23-.76 1.63s-1.13.59-1.89.59c-1 0-1.84-.33-2.53-.99l.64-.7c.59.48 1.21.71 1.86.71.41 0 .74-.1.99-.31s.38-.49.38-.85c0-.26-.04-.47-.13-.63-.09-.16-.25-.3-.48-.43-.23-.13-.56-.26-1-.4-.7-.23-1.2-.51-1.51-.84-.31-.33-.46-.74-.46-1.25 0-.39.1-.74.31-1.05.21-.31.49-.55.85-.73.36-.18.78-.27 1.26-.27.85.01 1.61.29 2.27.85zM292.32 80.78c-.47.34-.99.5-1.55.5-.6 0-1.06-.17-1.38-.52-.32-.35-.48-.83-.48-1.46v-4.62h-1.05v-.95h1.05v-1.69l1.26-.15v1.85h1.62l-.14.95h-1.48v4.61c0 .63.27.95.8.95.16 0 .31-.02.44-.07s.29-.12.46-.21l.45.81zM296.85 70.14l.49.56-1.69 1.62h-.78l-1.69-1.62.49-.56 1.6 1.23 1.58-1.23zm.22 3.51l-.21 1.22c-.18-.06-.37-.08-.57-.08-.41 0-.74.16-1 .49-.26.33-.46.83-.61 1.5v4.33h-1.26v-7.36h1.09l.1 1.46c.36-1.08.98-1.62 1.83-1.62.24-.02.45.01.63.06zM303.05 77.85h-4.28c.04.86.21 1.48.52 1.86.31.38.73.57 1.26.57.34 0 .64-.05.9-.15.27-.1.54-.27.83-.5l.56.74c-.69.62-1.47.92-2.35.92-.96 0-1.71-.33-2.23-1-.53-.67-.79-1.6-.79-2.81s.25-2.16.76-2.86c.5-.7 1.2-1.06 2.1-1.06.89 0 1.57.31 2.04.95.48.63.71 1.53.71 2.69-.01.19-.01.41-.03.65zm-1.19-1.03c0-1.54-.51-2.31-1.53-2.31-.47 0-.84.19-1.11.58-.27.39-.42 1.01-.46 1.88h3.09v-.15zM310.06 70.76V81.1h-1.12l-.08-.97c-.48.77-1.12 1.15-1.92 1.15s-1.43-.34-1.87-1.02-.67-1.62-.67-2.81c0-.77.11-1.46.33-2.04.22-.59.53-1.04.93-1.37.4-.32.86-.48 1.39-.48.7 0 1.28.29 1.75.88v-3.82l1.26.14zm-1.95 9.25c.25-.19.48-.46.69-.83v-3.7c-.42-.62-.91-.94-1.47-.94-.5 0-.89.24-1.18.71-.29.48-.43 1.19-.42 2.16 0 .98.13 1.7.39 2.17s.63.7 1.11.7c.34.01.63-.08.88-.27zM317 74.14c.33.39.5.92.5 1.6v5.36h-1.26v-5.21c0-.48-.08-.82-.24-1.03-.16-.21-.4-.31-.73-.31-.62 0-1.18.44-1.68 1.32v5.24h-1.26v-7.36h1.09l.1 1.09c.57-.85 1.27-1.27 2.1-1.27.59-.01 1.05.18 1.38.57zM321.26 69.94l.53 1.01-2.69 1.22-.36-.64 2.52-1.59zm-.29 3.8v7.36h-1.26v-7.36h1.26zM331.76 70.76V81.1h-1.12l-.08-.97c-.48.77-1.12 1.15-1.92 1.15s-1.43-.34-1.87-1.02-.67-1.62-.67-2.81c0-.77.11-1.46.33-2.04.22-.59.53-1.04.93-1.37.4-.32.86-.48 1.39-.48.7 0 1.28.29 1.75.88v-3.82l1.26.14zm-1.95 9.25c.25-.19.48-.46.69-.83v-3.7c-.42-.62-.91-.94-1.47-.94-.5 0-.89.24-1.18.71-.29.48-.43 1.19-.42 2.16 0 .98.13 1.7.39 2.17s.63.7 1.11.7c.34.01.63-.08.88-.27zM339.17 77.85h-4.28c.04.86.21 1.48.52 1.86.31.38.73.57 1.26.57.34 0 .64-.05.9-.15.27-.1.54-.27.83-.5l.56.74c-.69.62-1.47.92-2.35.92-.96 0-1.71-.33-2.23-1-.53-.67-.79-1.6-.79-2.81s.25-2.16.76-2.86c.5-.7 1.2-1.06 2.1-1.06.89 0 1.57.31 2.04.95.48.63.71 1.53.71 2.69-.01.19-.02.41-.03.65zm-1.8-7.91l.53 1.01-2.69 1.22-.36-.64 2.52-1.59zm.61 6.88c0-1.54-.51-2.31-1.53-2.31-.47 0-.84.19-1.11.58-.27.39-.42 1.01-.46 1.88h3.09v-.15zM341.27 80.88c-.26-.27-.39-.65-.39-1.13v-8.99l1.26-.14v9.09c0 .36.15.55.45.55.12 0 .26-.03.41-.08l.28.88c-.3.16-.61.24-.94.24-.46-.02-.81-.15-1.07-.42zM345.9 70.62V81.1h-1.26V70.76l1.26-.14zm3.88 3.12l-2.49 3.28 2.73 4.09h-1.4l-2.65-4.03 2.49-3.33h1.32zM355.67 80.09c.08.14.21.25.39.33l-.27.85c-.36-.06-.65-.17-.85-.34s-.35-.42-.43-.77c-.48.75-1.14 1.12-2 1.12-.65 0-1.17-.2-1.55-.61-.38-.41-.57-.95-.57-1.63 0-.78.26-1.38.77-1.79.51-.41 1.25-.62 2.2-.62h.95V76c0-.51-.11-.88-.32-1.11s-.55-.34-1.03-.34c-.51 0-1.11.13-1.79.39l-.31-.88c.82-.34 1.59-.5 2.3-.5 1.6 0 2.39.8 2.39 2.39v3.47c0 .3.04.52.12.67zm-1.37-.91v-1.74h-.81c-1.21 0-1.82.51-1.82 1.53 0 .44.1.77.29 1.01.2.23.48.35.84.35.66 0 1.15-.38 1.5-1.15zM365.12 73.74v.94l-3.49 5.39h3.5l-.13 1.04h-4.76v-.94l3.49-5.39h-3.19v-1.04h4.58zm-.74-3.6l.49.56-1.69 1.62h-.78l-1.69-1.62.49-.56 1.6 1.23 1.58-1.23zM367.86 70.5c.15.16.23.35.23.59s-.07.43-.22.58c-.15.15-.35.23-.6.23-.24 0-.44-.08-.6-.23-.15-.15-.23-.35-.23-.58s.08-.43.23-.59c.15-.16.35-.24.6-.24.24.01.43.09.59.24zm.03 3.24v7.36h-1.26v-7.36h1.26zM375.13 73.74l-2.2 7.36h-1.51l-2.27-7.36h1.32l1.71 6.3 1.69-6.3h1.26zM381.1 74.55c.52.66.78 1.61.78 2.86 0 1.2-.27 2.14-.8 2.83s-1.26 1.04-2.2 1.04c-.94 0-1.68-.34-2.21-1.02s-.79-1.63-.79-2.84c0-1.22.27-2.17.8-2.85.53-.68 1.27-1.01 2.21-1.01.95 0 1.68.33 2.21.99zm-3.46.71c-.29.46-.43 1.18-.43 2.16 0 1.91.56 2.87 1.68 2.87s1.68-.96 1.68-2.88c0-.98-.14-1.7-.42-2.16-.28-.46-.7-.69-1.25-.69s-.97.24-1.26.7zM387.18 80.78c-.47.34-.98.5-1.55.5-.6 0-1.06-.17-1.38-.52-.32-.35-.48-.83-.48-1.46v-4.62h-1.05v-.95h1.05v-1.69l1.26-.15v1.85h1.62l-.14.95h-1.48v4.61c0 .63.27.95.8.95.16 0 .3-.02.44-.07s.29-.12.46-.21l.45.81zM392.9 80.09c.08.14.21.25.39.33l-.27.85c-.36-.06-.65-.17-.85-.34-.21-.17-.35-.42-.43-.77-.48.75-1.14 1.12-2 1.12-.65 0-1.17-.2-1.55-.61-.38-.41-.57-.95-.57-1.63 0-.78.26-1.38.77-1.79.51-.41 1.25-.62 2.2-.62h.95V76c0-.51-.1-.88-.31-1.11s-.55-.34-1.03-.34c-.51 0-1.11.13-1.79.39l-.31-.88c.82-.34 1.59-.5 2.3-.5 1.6 0 2.39.8 2.39 2.39v3.47c-.02.3.02.52.11.67zm-1.38-.91v-1.74h-.81c-1.21 0-1.82.51-1.82 1.53 0 .44.1.77.29 1.01s.48.35.84.35c.66 0 1.16-.38 1.5-1.15z"/></g><g><path class="st14" d="M398.45 75.09s18.16.04 20.69 19.78M416.24 92.89l2.92 2.32 2.28-2.87"/></g></svg>