<svg width="129" height="63" viewBox="0 0 129 63" fill="none" xmlns="http://www.w3.org/2000/svg">
<path d="M105.101 16.2059L104.629 16.7885L104.629 16.7885L105.101 16.2059ZM122.505 52.7164L123.255 52.7164L123.255 52.7164L122.505 52.7164ZM121.975 59.8425C122.268 60.1354 122.743 60.1354 123.036 59.8425L127.809 55.0694C128.102 54.7765 128.102 54.3016 127.809 54.0087C127.516 53.7159 127.041 53.7159 126.748 54.0088L122.506 58.2515L118.263 54.009C117.97 53.7161 117.495 53.7161 117.202 54.009C116.909 54.3019 116.909 54.7768 117.202 55.0696L121.975 59.8425ZM103.528 15.8957L104.629 16.7885L105.573 15.6233L104.472 14.7305L103.528 15.8957ZM121.755 52.7164L121.756 59.3122L123.256 59.3121L123.255 52.7164L121.755 52.7164ZM104.629 16.7885C115.462 25.57 121.755 38.7709 121.755 52.7164L123.255 52.7164C123.255 38.3185 116.758 24.6895 105.573 15.6233L104.629 16.7885Z" fill="black"/>
<path d="M4.392 11.084C3.168 11.084 2.228 10.716 1.572 9.98C0.916 9.244 0.588 8.18 0.588 6.788C0.588 5.404 0.916 4.348 1.572 3.62C2.228 2.884 3.168 2.516 4.392 2.516C5.616 2.516 6.552 2.88 7.2 3.608C7.856 4.336 8.184 5.396 8.184 6.788C8.184 8.18 7.856 9.244 7.2 9.98C6.552 10.716 5.616 11.084 4.392 11.084ZM4.392 9.74C5.096 9.74 5.632 9.488 6 8.984C6.376 8.48 6.564 7.748 6.564 6.788C6.564 5.828 6.38 5.1 6.012 4.604C5.644 4.108 5.104 3.86 4.392 3.86C3.68 3.86 3.136 4.108 2.76 4.604C2.392 5.1 2.208 5.828 2.208 6.788C2.208 7.748 2.392 8.48 2.76 8.984C3.136 9.488 3.68 9.74 4.392 9.74ZM11.1173 11.096C10.7973 11.096 10.4853 11.06 10.1813 10.988C9.88534 10.916 9.64134 10.82 9.44934 10.7C9.25734 10.572 9.16134 10.44 9.16134 10.304C9.16134 10.168 9.22934 10 9.36534 9.8C9.50134 9.592 9.62134 9.488 9.72534 9.488C9.75734 9.488 9.84534 9.528 9.98934 9.608C10.1333 9.68 10.2853 9.744 10.4453 9.8C10.6053 9.856 10.7893 9.884 10.9973 9.884C11.2933 9.884 11.5133 9.828 11.6573 9.716C11.8093 9.604 11.8853 9.444 11.8853 9.236C11.8853 9.036 11.8053 8.88 11.6453 8.768C11.4853 8.656 11.2173 8.524 10.8413 8.372C10.5453 8.26 10.2893 8.14 10.0733 8.012C9.85734 7.884 9.67334 7.7 9.52134 7.46C9.37734 7.212 9.30534 6.9 9.30534 6.524C9.30534 5.948 9.49734 5.488 9.88134 5.144C10.2653 4.8 10.7773 4.628 11.4173 4.628C11.8413 4.628 12.2333 4.688 12.5933 4.808C12.9613 4.92 13.1453 5.072 13.1453 5.264C13.1453 5.4 13.0893 5.576 12.9773 5.792C12.8733 6 12.7733 6.104 12.6773 6.104C12.6533 6.104 12.5373 6.06 12.3293 5.972C12.1293 5.884 11.8853 5.84 11.5973 5.84C11.3573 5.84 11.1653 5.888 11.0213 5.984C10.8853 6.08 10.8173 6.22 10.8173 6.404C10.8173 6.596 10.8893 6.748 11.0333 6.86C11.1773 6.964 11.4293 7.08 11.7893 7.208C12.2773 7.376 12.6653 7.6 12.9533 7.88C13.2493 8.16 13.3973 8.572 13.3973 9.116C13.3973 9.7 13.1893 10.176 12.7733 10.544C12.3573 10.912 11.8053 11.096 11.1173 11.096ZM16.4464 11.024C16.1024 11.024 15.9024 10.948 15.8464 10.796L13.9264 5.144C13.9184 5.12 13.9104 5.092 13.9024 5.06C13.8944 5.02 13.8904 4.98 13.8904 4.94C13.8904 4.78 14.1064 4.7 14.5384 4.7H14.8264C15.1704 4.7 15.3704 4.776 15.4264 4.928L16.2424 7.496C16.4184 8.04 16.5624 8.628 16.6744 9.26H16.7224C16.8184 8.636 16.9664 8.024 17.1664 7.424L17.9584 4.928C18.0144 4.776 18.2184 4.7 18.5704 4.7H18.7744C19.1984 4.7 19.4104 4.78 19.4104 4.94C19.4104 4.988 19.3984 5.056 19.3744 5.144L17.4544 10.796C17.3984 10.948 17.1944 11.024 16.8424 11.024H16.4464ZM22.8734 11.084C21.9374 11.084 21.2254 10.808 20.7374 10.256C20.2494 9.704 20.0054 8.908 20.0054 7.868C20.0054 6.82 20.2494 6.02 20.7374 5.468C21.2254 4.916 21.9374 4.64 22.8734 4.64C23.8014 4.64 24.5054 4.916 24.9854 5.468C25.4734 6.02 25.7174 6.82 25.7174 7.868C25.7174 8.916 25.4734 9.716 24.9854 10.268C24.5054 10.812 23.8014 11.084 22.8734 11.084ZM22.8614 9.872C23.3094 9.872 23.6374 9.708 23.8454 9.38C24.0614 9.044 24.1694 8.536 24.1694 7.856C24.1694 7.184 24.0614 6.684 23.8454 6.356C23.6374 6.02 23.3094 5.852 22.8614 5.852C22.4134 5.852 22.0814 6.02 21.8654 6.356C21.6494 6.684 21.5414 7.184 21.5414 7.856C21.5414 8.536 21.6494 9.044 21.8654 9.38C22.0814 9.708 22.4134 9.872 22.8614 9.872ZM30.2694 11.084C29.9174 11.084 29.5934 11.004 29.2974 10.844C29.0094 10.684 28.7654 10.464 28.5654 10.184C28.5174 10.416 28.4574 10.612 28.3854 10.772C28.3454 10.868 28.2854 10.936 28.2054 10.976C28.1254 11.008 28.0054 11.024 27.8454 11.024H27.7374C27.3454 11.024 27.1494 10.908 27.1494 10.676V2.3C27.1494 2.076 27.3614 1.964 27.7854 1.964H28.0134C28.4374 1.964 28.6494 2.076 28.6494 2.3V5.096C29.0574 4.792 29.5254 4.64 30.0534 4.64C30.8294 4.64 31.4374 4.928 31.8774 5.504C32.3254 6.072 32.5494 6.856 32.5494 7.856C32.5494 8.52 32.4534 9.096 32.2614 9.584C32.0694 10.064 31.8014 10.436 31.4574 10.7C31.1134 10.956 30.7174 11.084 30.2694 11.084ZM29.8614 9.836C30.2374 9.836 30.5214 9.668 30.7134 9.332C30.9054 8.988 31.0014 8.488 31.0014 7.832C31.0014 6.52 30.5734 5.864 29.7174 5.864C29.3254 5.864 28.9694 5.976 28.6494 6.2V9.08C28.8174 9.312 29.0014 9.496 29.2014 9.632C29.4094 9.768 29.6294 9.836 29.8614 9.836ZM36.5375 11.084C35.6015 11.084 34.8895 10.808 34.4015 10.256C33.9135 9.704 33.6695 8.908 33.6695 7.868C33.6695 6.82 33.9135 6.02 34.4015 5.468C34.8895 4.916 35.6015 4.64 36.5375 4.64C37.4655 4.64 38.1695 4.916 38.6495 5.468C39.1375 6.02 39.3815 6.82 39.3815 7.868C39.3815 8.916 39.1375 9.716 38.6495 10.268C38.1695 10.812 37.4655 11.084 36.5375 11.084ZM36.5255 9.872C36.9735 9.872 37.3015 9.708 37.5095 9.38C37.7255 9.044 37.8335 8.536 37.8335 7.856C37.8335 7.184 37.7255 6.684 37.5095 6.356C37.3015 6.02 36.9735 5.852 36.5255 5.852C36.0775 5.852 35.7455 6.02 35.5295 6.356C35.3135 6.684 35.2055 7.184 35.2055 7.856C35.2055 8.536 35.3135 9.044 35.5295 9.38C35.7455 9.708 36.0775 9.872 36.5255 9.872ZM40.3871 11C40.3231 11 40.2511 10.904 40.1711 10.712C40.0991 10.52 40.0631 10.348 40.0631 10.196C40.0631 10.124 40.0751 10.072 40.0991 10.04L43.1231 5.936H40.5911C40.4791 5.936 40.3991 5.896 40.3511 5.816C40.3031 5.728 40.2791 5.596 40.2791 5.42V5.24C40.2791 5.064 40.3031 4.936 40.3511 4.856C40.3991 4.768 40.4791 4.724 40.5911 4.724H44.8271C44.8911 4.724 44.9591 4.824 45.0311 5.024C45.1031 5.216 45.1391 5.388 45.1391 5.54C45.1391 5.604 45.1311 5.66 45.1151 5.708L42.1031 9.788H44.8631C44.9751 9.788 45.0551 9.828 45.1031 9.908C45.1511 9.988 45.1751 10.12 45.1751 10.304V10.484C45.1751 10.66 45.1511 10.792 45.1031 10.88C45.0551 10.96 44.9751 11 44.8631 11H40.3871ZM48.7718 11.084C47.8358 11.084 47.1238 10.808 46.6358 10.256C46.1478 9.704 45.9038 8.908 45.9038 7.868C45.9038 6.82 46.1478 6.02 46.6358 5.468C47.1238 4.916 47.8358 4.64 48.7718 4.64C49.6998 4.64 50.4038 4.916 50.8838 5.468C51.3718 6.02 51.6158 6.82 51.6158 7.868C51.6158 8.916 51.3718 9.716 50.8838 10.268C50.4038 10.812 49.6998 11.084 48.7718 11.084ZM48.7598 9.872C49.2078 9.872 49.5358 9.708 49.7438 9.38C49.9598 9.044 50.0678 8.536 50.0678 7.856C50.0678 7.184 49.9598 6.684 49.7438 6.356C49.5358 6.02 49.2078 5.852 48.7598 5.852C48.3118 5.852 47.9798 6.02 47.7638 6.356C47.5478 6.684 47.4398 7.184 47.4398 7.856C47.4398 8.536 47.5478 9.044 47.7638 9.38C47.9798 9.708 48.3118 9.872 48.7598 9.872ZM54.7667 11.024C54.4227 11.024 54.2227 10.948 54.1667 10.796L52.2467 5.144C52.2387 5.12 52.2307 5.092 52.2227 5.06C52.2147 5.02 52.2107 4.98 52.2107 4.94C52.2107 4.78 52.4267 4.7 52.8587 4.7H53.1467C53.4907 4.7 53.6907 4.776 53.7467 4.928L54.5627 7.496C54.7387 8.04 54.8827 8.628 54.9947 9.26H55.0427C55.1387 8.636 55.2867 8.024 55.4867 7.424L56.2787 4.928C56.3347 4.776 56.5387 4.7 56.8907 4.7H57.0947C57.5187 4.7 57.7307 4.78 57.7307 4.94C57.7307 4.988 57.7187 5.056 57.6947 5.144L55.7747 10.796C55.7187 10.948 55.5147 11.024 55.1627 11.024H54.7667ZM60.1617 11.084C59.5537 11.084 59.0897 10.928 58.7697 10.616C58.4497 10.296 58.2897 9.864 58.2897 9.32C58.2897 7.848 59.5017 7.108 61.9257 7.1V6.644C61.9257 6.116 61.5697 5.852 60.8577 5.852C60.5617 5.852 60.3017 5.888 60.0777 5.96C59.8537 6.024 59.6577 6.096 59.4897 6.176C59.3217 6.248 59.2257 6.284 59.2017 6.284C59.0977 6.284 58.9777 6.172 58.8417 5.948C58.7137 5.724 58.6497 5.556 58.6497 5.444C58.6497 5.316 58.7497 5.192 58.9497 5.072C59.1577 4.944 59.4377 4.84 59.7897 4.76C60.1417 4.68 60.5217 4.64 60.9297 4.64C61.7777 4.64 62.4057 4.816 62.8137 5.168C63.2297 5.512 63.4377 5.988 63.4377 6.596V9.008C63.4377 9.552 63.4617 9.952 63.5097 10.208C63.5577 10.456 63.5817 10.608 63.5817 10.664C63.5817 10.776 63.4497 10.864 63.1857 10.928C62.9217 10.984 62.6857 11.012 62.4777 11.012C62.3497 11.012 62.2577 10.956 62.2017 10.844C62.1457 10.724 62.1017 10.596 62.0697 10.46C62.0457 10.324 62.0297 10.232 62.0217 10.184C61.8537 10.4 61.6137 10.604 61.3017 10.796C60.9977 10.988 60.6177 11.084 60.1617 11.084ZM60.5697 9.872C60.8497 9.872 61.1057 9.8 61.3377 9.656C61.5697 9.504 61.7657 9.312 61.9257 9.08V8.168C61.2697 8.168 60.7537 8.244 60.3777 8.396C60.0097 8.54 59.8257 8.8 59.8257 9.176C59.8257 9.392 59.8897 9.564 60.0177 9.692C60.1457 9.812 60.3297 9.872 60.5697 9.872ZM67.8408 11.084C66.8328 11.084 66.0808 10.824 65.5848 10.304C65.0888 9.784 64.8408 8.976 64.8408 7.88C64.8408 6.776 65.1008 5.96 65.6208 5.432C66.1408 4.904 66.8848 4.64 67.8528 4.64C68.3328 4.64 68.7728 4.708 69.1728 4.844C69.5728 4.98 69.7728 5.156 69.7728 5.372C69.7728 5.484 69.7008 5.652 69.5568 5.876C69.4208 6.092 69.3088 6.2 69.2208 6.2C69.2128 6.2 69.1528 6.176 69.0408 6.128C68.6728 5.944 68.2928 5.852 67.9008 5.852C67.3968 5.852 67.0208 6.012 66.7728 6.332C66.5328 6.652 66.4128 7.156 66.4128 7.844C66.4128 8.54 66.5288 9.052 66.7608 9.38C66.9928 9.708 67.3728 9.872 67.9008 9.872C68.1568 9.872 68.3728 9.848 68.5488 9.8C68.7328 9.744 68.9288 9.672 69.1368 9.584C69.2328 9.544 69.2928 9.524 69.3168 9.524C69.4288 9.524 69.5488 9.628 69.6768 9.836C69.8048 10.044 69.8688 10.208 69.8688 10.328C69.8688 10.488 69.7488 10.628 69.5088 10.748C69.2768 10.86 69.0008 10.944 68.6808 11C68.3608 11.056 68.0808 11.084 67.8408 11.084ZM71.601 11.024C71.177 11.024 70.965 10.908 70.965 10.676V5.048C70.965 4.816 71.177 4.7 71.601 4.7H71.841C72.265 4.7 72.477 4.816 72.477 5.048V10.676C72.477 10.908 72.265 11.024 71.841 11.024H71.601ZM71.241 4.124C70.969 4.124 70.833 4.064 70.833 3.944C70.833 3.912 70.849 3.864 70.881 3.8C70.921 3.728 70.953 3.668 70.977 3.62L71.457 2.732C71.537 2.596 71.633 2.504 71.745 2.456C71.857 2.408 72.069 2.384 72.381 2.384C72.605 2.384 72.765 2.4 72.861 2.432C72.957 2.456 73.005 2.508 73.005 2.588C73.005 2.692 72.917 2.844 72.741 3.044L72.069 3.788C71.957 3.916 71.837 4.004 71.709 4.052C71.581 4.1 71.425 4.124 71.241 4.124ZM80.1796 11.084C79.8276 11.084 79.5036 11.004 79.2076 10.844C78.9196 10.684 78.6756 10.464 78.4756 10.184C78.4276 10.416 78.3676 10.612 78.2956 10.772C78.2556 10.868 78.1956 10.936 78.1156 10.976C78.0356 11.008 77.9156 11.024 77.7556 11.024H77.6476C77.2556 11.024 77.0596 10.908 77.0596 10.676V2.3C77.0596 2.076 77.2716 1.964 77.6956 1.964H77.9236C78.3476 1.964 78.5596 2.076 78.5596 2.3V5.096C78.9676 4.792 79.4356 4.64 79.9636 4.64C80.7396 4.64 81.3476 4.928 81.7876 5.504C82.2356 6.072 82.4596 6.856 82.4596 7.856C82.4596 8.52 82.3636 9.096 82.1716 9.584C81.9796 10.064 81.7116 10.436 81.3676 10.7C81.0236 10.956 80.6276 11.084 80.1796 11.084ZM79.7716 9.836C80.1476 9.836 80.4316 9.668 80.6236 9.332C80.8156 8.988 80.9116 8.488 80.9116 7.832C80.9116 6.52 80.4836 5.864 79.6276 5.864C79.2356 5.864 78.8796 5.976 78.5596 6.2V9.08C78.7276 9.312 78.9116 9.496 79.1116 9.632C79.3196 9.768 79.5396 9.836 79.7716 9.836ZM86.4476 11.084C85.5116 11.084 84.7996 10.808 84.3116 10.256C83.8236 9.704 83.5796 8.908 83.5796 7.868C83.5796 6.82 83.8236 6.02 84.3116 5.468C84.7996 4.916 85.5116 4.64 86.4476 4.64C87.3756 4.64 88.0796 4.916 88.5596 5.468C89.0476 6.02 89.2916 6.82 89.2916 7.868C89.2916 8.916 89.0476 9.716 88.5596 10.268C88.0796 10.812 87.3756 11.084 86.4476 11.084ZM86.4356 9.872C86.8836 9.872 87.2116 9.708 87.4196 9.38C87.6356 9.044 87.7436 8.536 87.7436 7.856C87.7436 7.184 87.6356 6.684 87.4196 6.356C87.2116 6.02 86.8836 5.852 86.4356 5.852C85.9876 5.852 85.6556 6.02 85.4396 6.356C85.2236 6.684 85.1156 7.184 85.1156 7.856C85.1156 8.536 85.2236 9.044 85.4396 9.38C85.6556 9.708 85.9876 9.872 86.4356 9.872ZM90.6397 13.544C90.2557 13.544 89.9757 13.504 89.7997 13.424C89.6157 13.352 89.5237 13.216 89.5237 13.016C89.5237 12.88 89.5597 12.72 89.6317 12.536C89.7037 12.36 89.7917 12.272 89.8957 12.272C89.9277 12.272 89.9837 12.28 90.0637 12.296C90.1437 12.32 90.2277 12.332 90.3157 12.332C90.4837 12.332 90.6077 12.28 90.6877 12.176C90.7757 12.08 90.8197 11.916 90.8197 11.684V5.048C90.8197 4.816 91.0317 4.7 91.4557 4.7H91.6957C92.1197 4.7 92.3317 4.816 92.3317 5.048V11.696C92.3317 12.32 92.1677 12.784 91.8397 13.088C91.5197 13.392 91.1197 13.544 90.6397 13.544ZM91.5757 4.028C91.0637 4.028 90.8077 3.912 90.8077 3.68V2.816C90.8077 2.592 91.0637 2.48 91.5757 2.48C92.0797 2.48 92.3317 2.592 92.3317 2.816V3.68C92.3317 3.912 92.0797 4.028 91.5757 4.028ZM96.7881 11.084C95.7561 11.084 94.9881 10.812 94.4841 10.268C93.9801 9.716 93.7281 8.928 93.7281 7.904C93.7281 6.8 93.9761 5.98 94.4721 5.444C94.9761 4.908 95.6841 4.64 96.5961 4.64C97.4601 4.64 98.1001 4.92 98.5161 5.48C98.9401 6.04 99.1521 6.796 99.1521 7.748C99.1521 7.836 99.0801 7.964 98.9361 8.132C98.7921 8.292 98.6841 8.372 98.6121 8.372H95.3001C95.3401 8.9 95.4841 9.284 95.7321 9.524C95.9881 9.756 96.3561 9.872 96.8361 9.872C97.2681 9.872 97.7081 9.76 98.1561 9.536C98.2841 9.48 98.3641 9.452 98.3961 9.452C98.5001 9.452 98.6161 9.56 98.7441 9.776C98.8801 9.984 98.9481 10.144 98.9481 10.256C98.9481 10.408 98.8321 10.548 98.6001 10.676C98.3681 10.804 98.0801 10.904 97.7361 10.976C97.4001 11.048 97.0841 11.084 96.7881 11.084ZM97.6521 7.304C97.6521 6.848 97.5601 6.492 97.3761 6.236C97.2001 5.98 96.9361 5.852 96.5841 5.852C95.8401 5.852 95.4121 6.336 95.3001 7.304H97.6521Z" fill="black"/>
</svg>
