<svg width="100" height="60" viewBox="0 0 100 60" fill="none" xmlns="http://www.w3.org/2000/svg">
<path d="M76.1022 13.8927L75.6299 14.4753L75.6299 14.4753L76.1022 13.8927ZM93.5064 50.4031L94.2564 50.4031L94.2564 50.4031L93.5064 50.4031ZM92.9763 57.5293C93.2692 57.8222 93.744 57.8222 94.0369 57.5293L98.8098 52.7562C99.1027 52.4633 99.1027 51.9884 98.8098 51.6955C98.5169 51.4026 98.042 51.4026 97.7491 51.6955L93.5066 55.9383L89.2638 51.6957C88.9709 51.4028 88.496 51.4028 88.2032 51.6957C87.9103 51.9886 87.9103 52.4635 88.2032 52.7564L92.9763 57.5293ZM74.5285 13.5825L75.6299 14.4753L76.5745 13.31L75.4731 12.4172L74.5285 13.5825ZM92.7564 50.4032L92.7566 56.9989L94.2566 56.9989L94.2564 50.4031L92.7564 50.4032ZM75.6299 14.4753C86.4634 23.2567 92.7561 36.4576 92.7564 50.4032L94.2564 50.4031C94.2561 36.0053 87.7593 22.3763 76.5745 13.31L75.6299 14.4753Z" fill="black"/>
<path d="M1.644 11.024C1.22 11.024 1.008 10.908 1.008 10.676V2.924C1.008 2.692 1.22 2.576 1.644 2.576H1.956C2.38 2.576 2.592 2.692 2.592 2.924V6.032H6.216V2.924C6.216 2.692 6.428 2.576 6.852 2.576H7.164C7.588 2.576 7.8 2.692 7.8 2.924V10.676C7.8 10.908 7.588 11.024 7.164 11.024H6.852C6.428 11.024 6.216 10.908 6.216 10.676V7.388H2.592V10.676C2.592 10.908 2.38 11.024 1.956 11.024H1.644ZM12.4248 11.084C11.3928 11.084 10.6248 10.812 10.1208 10.268C9.61678 9.716 9.36478 8.928 9.36478 7.904C9.36478 6.8 9.61278 5.98 10.1088 5.444C10.6128 4.908 11.3208 4.64 12.2328 4.64C13.0968 4.64 13.7368 4.92 14.1528 5.48C14.5768 6.04 14.7888 6.796 14.7888 7.748C14.7888 7.836 14.7168 7.964 14.5728 8.132C14.4288 8.292 14.3208 8.372 14.2488 8.372H10.9368C10.9768 8.9 11.1208 9.284 11.3688 9.524C11.6248 9.756 11.9928 9.872 12.4728 9.872C12.9048 9.872 13.3448 9.76 13.7928 9.536C13.9208 9.48 14.0008 9.452 14.0328 9.452C14.1368 9.452 14.2528 9.56 14.3808 9.776C14.5168 9.984 14.5848 10.144 14.5848 10.256C14.5848 10.408 14.4688 10.548 14.2368 10.676C14.0048 10.804 13.7168 10.904 13.3728 10.976C13.0368 11.048 12.7208 11.084 12.4248 11.084ZM13.2888 7.304C13.2888 6.848 13.1968 6.492 13.0128 6.236C12.8368 5.98 12.5728 5.852 12.2208 5.852C11.4768 5.852 11.0488 6.336 10.9368 7.304H13.2888ZM20.1803 4.7C20.6043 4.7 20.8163 4.78 20.8163 4.94C20.8163 4.988 20.8043 5.056 20.7803 5.144L17.9123 13.232C17.8483 13.4 17.6363 13.484 17.2763 13.484H17.0843C16.8843 13.484 16.7323 13.46 16.6283 13.412C16.5243 13.372 16.4723 13.316 16.4723 13.244C16.4723 13.196 16.4923 13.128 16.5323 13.04L17.3723 10.868L15.3443 5.144C15.3363 5.12 15.3283 5.092 15.3203 5.06C15.3123 5.02 15.3083 4.98 15.3083 4.94C15.3083 4.78 15.5283 4.7 15.9683 4.7H16.2443C16.5963 4.7 16.8003 4.776 16.8563 4.928L17.7443 7.508C17.8323 7.788 17.9483 8.244 18.0923 8.876H18.1283L18.2363 8.444C18.3323 8.044 18.4163 7.732 18.4883 7.508L19.3643 4.928C19.4203 4.776 19.6243 4.7 19.9763 4.7H20.1803ZM23.6325 11.084C23.1845 11.084 22.7885 10.956 22.4445 10.7C22.1005 10.436 21.8325 10.064 21.6405 9.584C21.4485 9.096 21.3525 8.52 21.3525 7.856C21.3525 6.856 21.5765 6.072 22.0245 5.504C22.4725 4.928 23.0845 4.64 23.8605 4.64C24.3965 4.64 24.8605 4.792 25.2525 5.096V2.3C25.2525 2.076 25.4645 1.964 25.8885 1.964H26.1285C26.5525 1.964 26.7645 2.076 26.7645 2.3V9.008C26.7645 9.552 26.7885 9.952 26.8365 10.208C26.8845 10.456 26.9085 10.608 26.9085 10.664C26.9085 10.776 26.7765 10.864 26.5125 10.928C26.2485 10.984 26.0125 11.012 25.8045 11.012C25.6765 11.012 25.5845 10.956 25.5285 10.844C25.4725 10.724 25.4285 10.596 25.3965 10.46C25.3725 10.324 25.3565 10.232 25.3485 10.184C25.1565 10.464 24.9085 10.684 24.6045 10.844C24.3085 11.004 23.9845 11.084 23.6325 11.084ZM24.0525 9.836C24.4925 9.836 24.8925 9.584 25.2525 9.08V6.2C24.9325 5.976 24.5805 5.864 24.1965 5.864C23.3325 5.864 22.9005 6.52 22.9005 7.832C22.9005 8.488 22.9965 8.988 23.1885 9.332C23.3805 9.668 23.6685 9.836 24.0525 9.836ZM29.0977 11.024C28.6737 11.024 28.4617 10.908 28.4617 10.676V6.74C28.4617 6.204 28.4377 5.812 28.3897 5.564C28.3417 5.316 28.3177 5.164 28.3177 5.108C28.3177 4.996 28.4497 4.912 28.7137 4.856C28.9777 4.792 29.2137 4.76 29.4217 4.76C29.5497 4.76 29.6417 4.816 29.6977 4.928C29.7537 5.04 29.7937 5.16 29.8177 5.288C29.8497 5.408 29.8697 5.492 29.8777 5.54C30.2457 4.94 30.6897 4.64 31.2097 4.64C31.4737 4.64 31.6537 4.688 31.7497 4.784C31.8537 4.88 31.9057 5.024 31.9057 5.216C31.9057 5.376 31.8737 5.564 31.8097 5.78C31.7457 5.996 31.6657 6.104 31.5697 6.104C31.5297 6.104 31.4497 6.088 31.3297 6.056C31.2177 6.016 31.1017 5.996 30.9817 5.996C30.7497 5.996 30.5417 6.072 30.3577 6.224C30.1737 6.376 30.0457 6.516 29.9737 6.644V10.676C29.9737 10.908 29.7577 11.024 29.3257 11.024H29.0977ZM33.4682 11.024C33.0442 11.024 32.8322 10.908 32.8322 10.676V5.048C32.8322 4.816 33.0442 4.7 33.4682 4.7H33.7082C34.1322 4.7 34.3442 4.816 34.3442 5.048V10.676C34.3442 10.908 34.1322 11.024 33.7082 11.024H33.4682ZM33.6002 4.028C33.0882 4.028 32.8322 3.912 32.8322 3.68V2.816C32.8322 2.592 33.0882 2.48 33.6002 2.48C34.1042 2.48 34.3562 2.592 34.3562 2.816V3.68C34.3562 3.912 34.1042 4.028 33.6002 4.028ZM38.708 11.084C37.7 11.084 36.948 10.824 36.452 10.304C35.956 9.784 35.708 8.976 35.708 7.88C35.708 6.776 35.968 5.96 36.488 5.432C37.008 4.904 37.752 4.64 38.72 4.64C39.2 4.64 39.64 4.708 40.04 4.844C40.44 4.98 40.64 5.156 40.64 5.372C40.64 5.484 40.568 5.652 40.424 5.876C40.288 6.092 40.176 6.2 40.088 6.2C40.08 6.2 40.02 6.176 39.908 6.128C39.54 5.944 39.16 5.852 38.768 5.852C38.264 5.852 37.888 6.012 37.64 6.332C37.4 6.652 37.28 7.156 37.28 7.844C37.28 8.54 37.396 9.052 37.628 9.38C37.86 9.708 38.24 9.872 38.768 9.872C39.024 9.872 39.24 9.848 39.416 9.8C39.6 9.744 39.796 9.672 40.004 9.584C40.1 9.544 40.16 9.524 40.184 9.524C40.296 9.524 40.416 9.628 40.544 9.836C40.672 10.044 40.736 10.208 40.736 10.328C40.736 10.488 40.616 10.628 40.376 10.748C40.144 10.86 39.868 10.944 39.548 11C39.228 11.056 38.948 11.084 38.708 11.084ZM42.5282 11.024C42.1042 11.024 41.8922 10.908 41.8922 10.676V2.3C41.8922 2.076 42.1042 1.964 42.5282 1.964H42.7682C43.1922 1.964 43.4042 2.076 43.4042 2.3V5.456C43.6122 5.216 43.8682 5.02 44.1722 4.868C44.4762 4.716 44.8002 4.64 45.1442 4.64C45.7122 4.64 46.1602 4.796 46.4882 5.108C46.8242 5.412 46.9922 5.904 46.9922 6.584V10.676C46.9922 10.908 46.7802 11.024 46.3562 11.024H46.1162C45.6922 11.024 45.4802 10.908 45.4802 10.676V6.788C45.4802 6.508 45.4002 6.292 45.2402 6.14C45.0882 5.98 44.8602 5.9 44.5562 5.9C44.2842 5.9 44.0442 5.988 43.8362 6.164C43.6282 6.332 43.4842 6.492 43.4042 6.644V10.676C43.4042 10.908 43.1922 11.024 42.7682 11.024H42.5282ZM49.2533 11.024C48.8293 11.024 48.6173 10.908 48.6173 10.676V5.048C48.6173 4.816 48.8293 4.7 49.2533 4.7H49.4933C49.9173 4.7 50.1293 4.816 50.1293 5.048V10.676C50.1293 10.908 49.9173 11.024 49.4933 11.024H49.2533ZM49.3853 4.028C48.8733 4.028 48.6173 3.912 48.6173 3.68V2.816C48.6173 2.592 48.8733 2.48 49.3853 2.48C49.8893 2.48 50.1413 2.592 50.1413 2.816V3.68C50.1413 3.912 49.8893 4.028 49.3853 4.028ZM53.3531 11.084C52.7451 11.084 52.2811 10.928 51.9611 10.616C51.6411 10.296 51.4811 9.864 51.4811 9.32C51.4811 7.848 52.6931 7.108 55.1171 7.1V6.644C55.1171 6.116 54.7611 5.852 54.0491 5.852C53.7531 5.852 53.4931 5.888 53.2691 5.96C53.0451 6.024 52.8491 6.096 52.6811 6.176C52.5131 6.248 52.4171 6.284 52.3931 6.284C52.2891 6.284 52.1691 6.172 52.0331 5.948C51.9051 5.724 51.8411 5.556 51.8411 5.444C51.8411 5.316 51.9411 5.192 52.1411 5.072C52.3491 4.944 52.6291 4.84 52.9811 4.76C53.3331 4.68 53.7131 4.64 54.1211 4.64C54.9691 4.64 55.5971 4.816 56.0051 5.168C56.4211 5.512 56.6291 5.988 56.6291 6.596V9.008C56.6291 9.552 56.6531 9.952 56.7011 10.208C56.7491 10.456 56.7731 10.608 56.7731 10.664C56.7731 10.776 56.6411 10.864 56.3771 10.928C56.1131 10.984 55.8771 11.012 55.6691 11.012C55.5411 11.012 55.4491 10.956 55.3931 10.844C55.3371 10.724 55.2931 10.596 55.2611 10.46C55.2371 10.324 55.2211 10.232 55.2131 10.184C55.0451 10.4 54.8051 10.604 54.4931 10.796C54.1891 10.988 53.8091 11.084 53.3531 11.084ZM53.7611 9.872C54.0411 9.872 54.2971 9.8 54.5291 9.656C54.7611 9.504 54.9571 9.312 55.1171 9.08V8.168C54.4611 8.168 53.9451 8.244 53.5691 8.396C53.2011 8.54 53.0171 8.8 53.0171 9.176C53.0171 9.392 53.0811 9.564 53.2091 9.692C53.3371 9.812 53.5211 9.872 53.7611 9.872ZM53.7491 4.124C53.4771 4.124 53.3411 4.064 53.3411 3.944C53.3411 3.912 53.3571 3.864 53.3891 3.8C53.4291 3.728 53.4611 3.668 53.4851 3.62L53.9651 2.732C54.0451 2.596 54.1411 2.504 54.2531 2.456C54.3651 2.408 54.5771 2.384 54.8891 2.384C55.1131 2.384 55.2731 2.4 55.3691 2.432C55.4651 2.456 55.5131 2.508 55.5131 2.588C55.5131 2.692 55.4251 2.844 55.2491 3.044L54.5771 3.788C54.4651 3.916 54.3451 4.004 54.2171 4.052C54.0891 4.1 53.9331 4.124 53.7491 4.124ZM60.3122 11.084C59.8642 11.084 59.4682 10.956 59.1242 10.7C58.7802 10.436 58.5122 10.064 58.3202 9.584C58.1282 9.096 58.0322 8.52 58.0322 7.856C58.0322 6.856 58.2562 6.072 58.7042 5.504C59.1522 4.928 59.7642 4.64 60.5402 4.64C61.0762 4.64 61.5402 4.792 61.9322 5.096V2.3C61.9322 2.076 62.1442 1.964 62.5682 1.964H62.8082C63.2322 1.964 63.4442 2.076 63.4442 2.3V9.008C63.4442 9.552 63.4682 9.952 63.5162 10.208C63.5642 10.456 63.5882 10.608 63.5882 10.664C63.5882 10.776 63.4562 10.864 63.1922 10.928C62.9282 10.984 62.6922 11.012 62.4842 11.012C62.3562 11.012 62.2642 10.956 62.2082 10.844C62.1522 10.724 62.1082 10.596 62.0762 10.46C62.0522 10.324 62.0362 10.232 62.0282 10.184C61.8362 10.464 61.5882 10.684 61.2842 10.844C60.9882 11.004 60.6642 11.084 60.3122 11.084ZM60.7322 9.836C61.1722 9.836 61.5722 9.584 61.9322 9.08V6.2C61.6122 5.976 61.2602 5.864 60.8762 5.864C60.0122 5.864 59.5802 6.52 59.5802 7.832C59.5802 8.488 59.6762 8.988 59.8682 9.332C60.0602 9.668 60.3482 9.836 60.7322 9.836ZM66.6773 11.084C66.0693 11.084 65.6053 10.928 65.2853 10.616C64.9653 10.296 64.8053 9.864 64.8053 9.32C64.8053 7.848 66.0173 7.108 68.4413 7.1V6.644C68.4413 6.116 68.0853 5.852 67.3733 5.852C67.0773 5.852 66.8173 5.888 66.5933 5.96C66.3693 6.024 66.1733 6.096 66.0053 6.176C65.8373 6.248 65.7413 6.284 65.7173 6.284C65.6133 6.284 65.4933 6.172 65.3573 5.948C65.2293 5.724 65.1653 5.556 65.1653 5.444C65.1653 5.316 65.2653 5.192 65.4653 5.072C65.6733 4.944 65.9533 4.84 66.3053 4.76C66.6573 4.68 67.0373 4.64 67.4453 4.64C68.2933 4.64 68.9213 4.816 69.3293 5.168C69.7453 5.512 69.9533 5.988 69.9533 6.596V9.008C69.9533 9.552 69.9773 9.952 70.0253 10.208C70.0733 10.456 70.0973 10.608 70.0973 10.664C70.0973 10.776 69.9653 10.864 69.7013 10.928C69.4373 10.984 69.2013 11.012 68.9933 11.012C68.8653 11.012 68.7733 10.956 68.7173 10.844C68.6613 10.724 68.6173 10.596 68.5853 10.46C68.5613 10.324 68.5453 10.232 68.5373 10.184C68.3693 10.4 68.1293 10.604 67.8173 10.796C67.5133 10.988 67.1333 11.084 66.6773 11.084ZM67.0853 9.872C67.3653 9.872 67.6213 9.8 67.8533 9.656C68.0853 9.504 68.2813 9.312 68.4413 9.08V8.168C67.7853 8.168 67.2693 8.244 66.8933 8.396C66.5253 8.54 66.3413 8.8 66.3413 9.176C66.3413 9.392 66.4053 9.564 66.5333 9.692C66.6613 9.812 66.8453 9.872 67.0853 9.872Z" fill="black"/>
</svg>
